<?xml version="1.0" encoding="UTF-8" standalone="no"?>
<!-- Created with Inkscape (http://www.inkscape.org/) -->

<svg
   width="74.500008mm"
   height="81.856804mm"
   viewBox="0 0 74.500007 81.856804"
   version="1.1"
   id="svg22176"
   inkscape:version="1.1.2 (1:1.1+202202050950+0a00cf5339)"
   sodipodi:docname="Comp-sequence-stickman.svg"
   xmlns:inkscape="http://www.inkscape.org/namespaces/inkscape"
   xmlns:sodipodi="http://sodipodi.sourceforge.net/DTD/sodipodi-0.dtd"
   xmlns="http://www.w3.org/2000/svg"
   xmlns:svg="http://www.w3.org/2000/svg">
  <sodipodi:namedview
     id="namedview22178"
     pagecolor="#ffffff"
     bordercolor="#666666"
     borderopacity="1.0"
     inkscape:pageshadow="2"
     inkscape:pageopacity="0.0"
     inkscape:pagecheckerboard="0"
     inkscape:document-units="mm"
     showgrid="false"
     lock-margins="true"
     fit-margin-top="5"
     fit-margin-left="5"
     fit-margin-right="5"
     fit-margin-bottom="5"
     inkscape:zoom="1.0688958"
     inkscape:cx="124.42747"
     inkscape:cy="175.41466"
     inkscape:window-width="1366"
     inkscape:window-height="704"
     inkscape:window-x="0"
     inkscape:window-y="27"
     inkscape:window-maximized="1"
     inkscape:current-layer="layer1" />
  <defs
     id="defs22173" />
  <g
     inkscape:label="Calque 1"
     inkscape:groupmode="layer"
     id="layer1"
     transform="translate(-128.38907,-98.76107)">
    <path
       style="font-variation-settings:normal;vector-effect:none;fill:#3c3c3c;fill-opacity:1;stroke:#646464;stroke-width:1;stroke-linecap:butt;stroke-linejoin:miter;stroke-miterlimit:4;stroke-dasharray:none;stroke-dashoffset:0;stroke-opacity:1;-inkscape-stroke:none;paint-order:markers fill stroke;stop-color:#000000"
       d="m 137.85783,170.16242 v -1.32292 l 11.90625,-2.64583 10.58333,2.64583 1e-5,1.32292 z"
       id="path17823"
       sodipodi:nodetypes="cccccc" />
    <path
       id="rect1757-2"
       style="fill:#0d0d0d;fill-opacity:1;stroke:#0d0d0d;stroke-width:0.556368;stroke-miterlimit:10;stroke-opacity:1;paint-order:markers fill stroke;stop-color:#000000"
       d="m 166.962,174.13117 5.8152,1.15307 c 0,0 0.9416,-11.74052 -1.53073,-15.91141 -2.47234,-4.17089 -10.84288,-7.3632 -10.84288,-7.3632 l -3.77978,5.14026 c 0,0 7.50736,2.57749 9.58023,4.68789 2.07288,2.11038 0.75802,12.29307 0.75802,12.29307 z"
       sodipodi:nodetypes="cczcczc" />
    <rect
       style="font-variation-settings:normal;vector-effect:none;fill:#0d0d0d;fill-opacity:1;stroke:#3c3c3c;stroke-width:0.953463;stroke-linecap:butt;stroke-linejoin:miter;stroke-miterlimit:4;stroke-dasharray:none;stroke-dashoffset:0;stroke-opacity:1;-inkscape-stroke:none;paint-order:markers fill stroke;stop-color:#000000"
       id="rect18460"
       width="2.6458333"
       height="9.260417"
       x="148.44116"
       y="158.25616"
       ry="1.3229166" />
    <path
       id="path16306"
       style="fill:#0d0d0d;fill-opacity:1;stroke:#0d0d0d;stroke-width:0.51102;stroke-miterlimit:10;stroke-opacity:1;paint-order:markers fill stroke;stop-color:#000000"
       d="m 170.4017,115.92283 a 11.906252,11.906252 0 0 1 -11.90625,11.90624 11.906252,11.906252 0 0 1 -11.90625,-11.90624 11.906252,11.906252 0 0 1 11.90625,-11.90625 11.906252,11.906252 0 0 1 11.90625,11.90625 z" />
    <rect
       style="fill:#0d0d0d;fill-opacity:1;stroke:#0d0d0d;stroke-width:0.556432;stroke-miterlimit:10;stroke-opacity:1;-inkscape-stroke:none;paint-order:markers fill stroke;stop-color:#000000"
       id="rect16312"
       width="5.9284163"
       height="25.200369"
       x="105.67188"
       y="-207.67328"
       transform="matrix(-0.13450777,0.99091254,-0.98780603,-0.15568961,0,0)" />
    <path
       id="path16304"
       style="fill:#0d0d0d;fill-opacity:1;stroke:#0d0d0d;stroke-width:0.420749;stroke-miterlimit:10;stroke-opacity:1;-inkscape-stroke:none;paint-order:markers fill stroke;stop-color:#000000"
       d="m 159.5179,128.76009 c -6.73605,-2.59532 -13.12583,-2.28777 -15.72116,4.4483 l -7.04889,18.29509 16.45708,6.34073 5.55708,0.0667 3.82587,-0.76344 5.60229,-14.54052 c 2.59534,-6.73607 -1.93621,-11.25149 -8.67227,-13.84682 z"
       sodipodi:nodetypes="ssccccss" />
    <rect
       style="font-variation-settings:normal;vector-effect:none;fill:#3c3c3c;fill-opacity:1;stroke:#646464;stroke-width:1;stroke-linecap:butt;stroke-linejoin:miter;stroke-miterlimit:4;stroke-dasharray:none;stroke-dashoffset:0;stroke-opacity:1;-inkscape-stroke:none;paint-order:markers fill stroke;stop-color:#000000"
       id="rect16826"
       width="31.75"
       height="5.2916665"
       x="133.8891"
       y="154.28741"
       ry="2.6458333" />
    <rect
       style="font-variation-settings:normal;vector-effect:none;fill:#3c3c3c;fill-opacity:1;stroke:#646464;stroke-width:1;stroke-linecap:butt;stroke-linejoin:miter;stroke-miterlimit:4;stroke-dasharray:none;stroke-dashoffset:0;stroke-opacity:1;-inkscape-stroke:none;paint-order:markers fill stroke;stop-color:#000000"
       id="rect17049"
       width="22.489603"
       height="21.166664"
       x="133.88907"
       y="131.79784"
       ry="6.6145806" />
    <rect
       style="font-variation-settings:normal;vector-effect:none;fill:#0d0d0d;fill-opacity:1;stroke:#3c3c3c;stroke-width:0.953463;stroke-linecap:butt;stroke-linejoin:miter;stroke-miterlimit:4;stroke-dasharray:none;stroke-dashoffset:0;stroke-opacity:1;-inkscape-stroke:none;paint-order:markers fill stroke;stop-color:#000000"
       id="rect17329"
       width="2.6458232"
       height="14.552083"
       x="141.8266"
       y="142.38116"
       ry="1.3229192" />
    <path
       id="path17969"
       style="font-variation-settings:normal;vector-effect:none;fill:#3c3c3c;fill-opacity:1;stroke:#646464;stroke-width:1;stroke-linecap:butt;stroke-linejoin:miter;stroke-miterlimit:4;stroke-dasharray:none;stroke-dashoffset:0;stroke-opacity:1;-inkscape-stroke:none;paint-order:markers fill stroke;stop-color:#000000"
       d="m 141.82658,172.80825 a 1.984375,1.984375 0 0 1 -1.98437,1.98438 1.984375,1.984375 0 0 1 -1.98438,-1.98438 1.984375,1.984375 0 0 1 1.98438,-1.98437 1.984375,1.984375 0 0 1 1.98437,1.98437 z" />
    <path
       id="circle18051"
       style="font-variation-settings:normal;vector-effect:none;fill:#3c3c3c;fill-opacity:1;stroke:#646464;stroke-width:1;stroke-linecap:butt;stroke-linejoin:miter;stroke-miterlimit:4;stroke-dasharray:none;stroke-dashoffset:0;stroke-opacity:1;-inkscape-stroke:none;paint-order:markers fill stroke;stop-color:#000000"
       d="m 160.34742,172.80825 a 1.984375,1.984375 0 0 1 -1.98438,1.98437 1.984375,1.984375 0 0 1 -1.98437,-1.98437 1.984375,1.984375 0 0 1 1.98437,-1.98438 1.984375,1.984375 0 0 1 1.98438,1.98438 z" />
    <path
       style="font-variation-settings:normal;vector-effect:none;fill:#3c3c3c;fill-opacity:1;stroke:#646464;stroke-width:1;stroke-linecap:butt;stroke-linejoin:miter;stroke-miterlimit:4;stroke-dasharray:none;stroke-dashoffset:0;stroke-opacity:1;-inkscape-stroke:none;paint-order:markers fill stroke;stop-color:#000000"
       d="m 193.42033,115.92283 3.96875,1.32292 v 13.22916 l -3.96875,1.32292 v -15.875"
       id="path19914" />
    <path
       style="font-variation-settings:normal;vector-effect:none;fill:#3c3c3c;fill-opacity:1;stroke:#646464;stroke-width:1;stroke-linecap:butt;stroke-linejoin:miter;stroke-miterlimit:4;stroke-dasharray:none;stroke-dashoffset:0;stroke-opacity:1;-inkscape-stroke:none;paint-order:markers fill stroke;stop-color:#000000"
       d="m 172.25375,133.1207 v -18.5208 l 22.49,-1.3229 v 21.1667 z"
       id="path18999"
       sodipodi:nodetypes="ccccc" />
    <path
       style="font-variation-settings:normal;vector-effect:none;fill:#3c3c3c;fill-opacity:1;stroke:#646464;stroke-width:1;stroke-linecap:butt;stroke-linejoin:miter;stroke-miterlimit:4;stroke-dasharray:none;stroke-dashoffset:0;stroke-opacity:1;-inkscape-stroke:none;paint-order:markers fill stroke;stop-color:#000000"
       d="M 174.60375,130.5736 V 117.147 l 17.166,-0.7212 v 14.8691 z"
       id="path20099"
       sodipodi:nodetypes="ccccc" />
  </g>
</svg>
