<?xml version="1.0" encoding="UTF-8" standalone="no"?>
<!-- Created with Inkscape (http://www.inkscape.org/) -->

<svg
   version="1.1"
   id="svg2"
   xml:space="preserve"
   width="397.95312"
   height="386.6687"
   viewBox="0 0 397.95312 386.6687"
   sodipodi:docname="CRI_RGB.svg"
   inkscape:version="1.1.2 (1:1.1+202202050950+0a00cf5339)"
   xmlns:inkscape="http://www.inkscape.org/namespaces/inkscape"
   xmlns:sodipodi="http://sodipodi.sourceforge.net/DTD/sodipodi-0.dtd"
   xmlns="http://www.w3.org/2000/svg"
   xmlns:svg="http://www.w3.org/2000/svg"><defs
     id="defs6"><clipPath
       clipPathUnits="userSpaceOnUse"
       id="clipPath16"><path
         d="M 0,595.28 H 841.89 V 0 H 0 Z"
         id="path14" /></clipPath><clipPath
       clipPathUnits="userSpaceOnUse"
       id="clipPath44"><path
         d="M 0,595.28 H 841.89 V 0 H 0 Z"
         id="path42" /></clipPath><clipPath
       clipPathUnits="userSpaceOnUse"
       id="clipPath100"><path
         d="M 0,595.28 H 841.89 V 0 H 0 Z"
         id="path98" /></clipPath><clipPath
       clipPathUnits="userSpaceOnUse"
       id="clipPath152"><path
         d="M 0,595.28 H 841.89 V 0 H 0 Z"
         id="path150" /></clipPath><clipPath
       clipPathUnits="userSpaceOnUse"
       id="clipPath192"><path
         d="M 0,595.28 H 841.89 V 0 H 0 Z"
         id="path190" /></clipPath><clipPath
       clipPathUnits="userSpaceOnUse"
       id="clipPath252"><path
         d="m 413.502,246.334 h 2.029 v -2.315 h -2.029 z"
         id="path250" /></clipPath><clipPath
       clipPathUnits="userSpaceOnUse"
       id="clipPath268"><path
         d="m 415.84,243.656 h 0.215 v -0.257 h -0.215 z"
         id="path266" /></clipPath><clipPath
       clipPathUnits="userSpaceOnUse"
       id="clipPath296"><path
         d="m 398.978,261.682 h 4.967 v -5.571 h -4.967 z"
         id="path294" /></clipPath><clipPath
       clipPathUnits="userSpaceOnUse"
       id="clipPath316"><path
         d="M 0,595.28 H 841.89 V 0 H 0 Z"
         id="path314" /></clipPath><clipPath
       clipPathUnits="userSpaceOnUse"
       id="clipPath328"><path
         d="M 0,595.28 H 841.89 V 0 H 0 Z"
         id="path326" /></clipPath><clipPath
       clipPathUnits="userSpaceOnUse"
       id="clipPath340"><path
         d="M 0,595.28 H 841.89 V 0 H 0 Z"
         id="path338" /></clipPath></defs><sodipodi:namedview
     id="namedview4"
     pagecolor="#ffffff"
     bordercolor="#666666"
     borderopacity="1.0"
     inkscape:pageshadow="2"
     inkscape:pageopacity="0.0"
     inkscape:pagecheckerboard="0"
     showgrid="false"
     fit-margin-top="10"
     fit-margin-left="10"
     fit-margin-right="10"
     fit-margin-bottom="10"
     inkscape:zoom="0.32537527"
     inkscape:cx="-264.3102"
     inkscape:cy="13.830185"
     inkscape:window-width="1366"
     inkscape:window-height="704"
     inkscape:window-x="0"
     inkscape:window-y="27"
     inkscape:window-maximized="1"
     inkscape:current-layer="g8" /><g
     id="g8"
     inkscape:groupmode="layer"
     inkscape:label="CRI_RGB"
     transform="matrix(1.3333333,0,0,-1.3333333,-362.28327,590.19133)"><g
       id="g10"><g
         id="g12"
         clip-path="url(#clipPath16)"><g
           id="g18"
           transform="translate(530.7734,414.1055)"><path
             d="m 0,0 c 1.232,0.535 2.527,0.96 3.779,1.371 1.604,0.526 3.262,1.071 4.776,1.846 3.992,2.044 6.336,7.301 7.084,12.659 -0.737,0.711 -1.532,1.563 -2.375,2.378 C 12.172,16.229 10.949,14.255 9.369,12.539 6.727,9.673 3.412,8.066 0.221,8.112 -0.619,8.126 -1.469,8.252 -2.291,8.374 -3.865,8.607 -5.354,8.828 -6.748,8.318 -7.385,8.085 -7.934,7.726 -8.412,7.271 -8.301,5.914 -8.018,4.559 -7.611,3.28 -6.896,1.015 -6.037,-1.354 -5.055,-3.68 -3.58,-1.793 -1.42,-0.617 0,0"
             style="fill:#82b45f;fill-opacity:1;fill-rule:nonzero;stroke:none"
             id="path20" /></g><g
           id="g22"
           transform="translate(523.8008,423.0396)"><path
             d="m 0,0 c 1.549,0.566 3.191,0.323 4.777,0.088 0.801,-0.119 1.629,-0.241 2.426,-0.255 0.047,-0.001 0.094,-0.002 0.143,-0.002 2.941,0 6.037,1.532 8.513,4.219 1.573,1.705 2.789,3.693 3.881,5.734 -1.006,0.918 -2.074,1.72 -3.191,2.076 -2.85,0.907 -5.858,-0.954 -8.533,-1.692 C 5.176,9.385 2.307,8.286 0.443,5.881 -1.035,3.972 -1.561,1.576 -1.486,-0.864 -1.043,-0.511 -0.561,-0.205 0,0"
             style="fill:#82b45f;fill-opacity:1;fill-rule:nonzero;stroke:none"
             id="path24" /></g><g
           id="g26"
           transform="translate(540.498,410.6309)"><path
             d="m 0,0 c 1.17,0.749 2.381,1.523 3.529,2.308 1.836,1.255 3.694,2.681 4.84,4.612 1.035,1.745 1.436,3.818 1.823,5.823 0.125,0.65 0.25,1.3 0.396,1.941 C 9.285,16.133 7.885,17.497 6.49,18.801 5.641,13.415 3.201,8.195 -0.871,6.109 -2.432,5.31 -4.113,4.757 -5.742,4.223 -6.979,3.817 -8.258,3.397 -9.465,2.874 c -1.426,-0.62 -3.642,-1.828 -5.021,-3.778 1.111,-2.551 2.384,-5.026 3.812,-7.224 0.055,-0.086 0.117,-0.163 0.172,-0.248 C -7.703,-4.936 -3.803,-2.433 0,0"
             style="fill:#82b45f;fill-opacity:1;fill-rule:nonzero;stroke:none"
             id="path28" /></g><g
           id="g30"
           transform="translate(536.0645,397.0806)"><path
             d="m 0,0 c 0.91,1.854 1.857,3.174 2.984,4.156 1.262,1.102 2.801,1.805 4.289,2.486 0.399,0.183 0.797,0.365 1.19,0.555 4.984,2.407 9.301,6.241 12.332,10.879 -0.033,0.142 -0.053,0.282 -0.09,0.424 -0.891,3.456 -2.826,6.436 -5.141,9.118 -0.101,-0.482 -0.201,-0.964 -0.295,-1.449 -0.398,-2.06 -0.808,-4.19 -1.902,-6.033 C 12.156,18.095 10.23,16.614 8.332,15.317 7.176,14.527 5.961,13.75 4.787,12.999 0.979,10.561 -2.936,8.055 -5.678,4.617 -4.086,2.38 -2.244,0.64 -0.213,-0.484 -0.139,-0.324 -0.078,-0.158 0,0"
             style="fill:#82b45f;fill-opacity:1;fill-rule:nonzero;stroke:none"
             id="path32" /></g><g
           id="g34"
           transform="translate(544.8125,403.6875)"><path
             d="m 0,0 c -0.396,-0.192 -0.801,-0.376 -1.203,-0.56 -1.445,-0.662 -2.94,-1.345 -4.131,-2.385 -1.057,-0.922 -1.955,-2.178 -2.826,-3.951 -0.078,-0.158 -0.139,-0.326 -0.215,-0.487 3.731,-1.822 8.037,-1.651 12.519,1.133 0.428,0.266 0.852,0.542 1.266,0.829 1.678,1.161 3.225,2.515 4.461,4.182 2.328,3.142 3.17,7.381 2.365,11.786 C 9.164,6.06 4.891,2.361 0,0"
             style="fill:#82b45f;fill-opacity:1;fill-rule:nonzero;stroke:none"
             id="path36" /></g></g></g><g
       id="g38"><g
         id="g40"
         clip-path="url(#clipPath44)"><g
           id="g46"
           transform="translate(520.1563,316.7266)"><path
             d="m 0,0 c 1.799,-3.943 3.818,-8.061 6.978,-11.257 3.08,-3.114 7.401,-5.312 12.838,-6.533 5.135,-1.153 11.629,-1.448 16.485,-0.791 -2.317,6.025 -4.549,12.074 -7.11,18.015 C 28.898,-0.588 28.605,-0.612 28.316,-0.628 19.519,-1.123 12.455,1.38 7.301,6.821 5.935,8.264 4.603,9.887 3.193,11.605 c -3.246,3.96 -6.59,8.034 -10.728,10.355 -3.326,0.071 -6.66,-0.08 -9.944,-0.503 C -8.604,16.87 -3.494,7.664 0,0"
             style="fill:#82b45f;fill-opacity:1;fill-rule:nonzero;stroke:none"
             id="path48" /></g><g
           id="g50"
           transform="translate(523.8574,328.7471)"><path
             d="m 0,0 c 1.4,-1.709 2.725,-3.323 4.076,-4.749 5.137,-5.422 12.231,-7.843 21.141,-7.197 -0.016,0.033 -0.03,0.067 -0.043,0.1 -1.297,2.97 -2.67,5.956 -4.436,8.658 -0.025,-0.107 -0.047,-0.215 -0.099,-0.317 -0.567,-1.08 -2.528,-1.414 -3.766,-1.484 C 16.57,-5.006 16.311,-5.007 16.125,-5 13.316,-4.886 10.596,-4.014 8.256,-2.479 5.744,-0.829 4.043,1.604 2.4,3.958 1.106,5.81 -0.23,7.706 -1.953,9.198 -2.846,9.324 -3.736,9.435 -4.625,9.526 -6.371,9.706 -8.133,9.827 -9.898,9.896 -6.125,7.461 -3.019,3.683 0,0"
             style="fill:#82b45f;fill-opacity:1;fill-rule:nonzero;stroke:none"
             id="path52" /></g><g
           id="g54"
           transform="translate(551.2598,274.3076)"><path
             d="m 0,0 c -15.6,1.909 -33.283,4.074 -36.955,16.398 -0.859,2.585 -1.635,5.522 -2.457,8.632 -2.729,10.328 -5.822,22.034 -13.756,28.03 -3.478,2.81 -7.441,4.53 -11.41,6.013 -0.108,-0.055 -0.219,-0.104 -0.324,-0.16 -3.522,-1.852 -6.717,-4.199 -9.614,-6.881 4.914,-1.926 9.764,-4.969 14.44,-9.084 l 0.523,-0.46 c 3.364,-2.954 6.537,-5.743 8.889,-9.57 2.318,-3.774 4.051,-8.219 5.295,-13.586 0.715,-3.083 1.236,-6.256 1.742,-9.324 0.668,-4.071 1.359,-8.283 2.512,-12.306 1.64,-5.743 5.037,-13.505 11.885,-17.866 3.203,-2.038 7.214,-3.381 12.627,-4.225 1.763,-0.273 3.568,-0.486 5.314,-0.692 2.713,-0.319 5.518,-0.649 8.242,-1.22 2.537,-0.531 4.758,-1.209 6.678,-2.041 1.234,3.504 2.445,7.016 3.592,10.549 1.722,5.305 3.322,10.706 3.941,16.234 C 7.738,-0.949 3.951,-0.484 0,0"
             style="fill:#82b45f;fill-opacity:1;fill-rule:nonzero;stroke:none"
             id="path56" /></g><g
           id="g58"
           transform="translate(526.7949,333.0801)"><path
             d="m 0,0 c 1.609,-2.303 3.272,-4.684 5.678,-6.264 2.242,-1.47 4.847,-2.305 7.537,-2.414 1.127,-0.045 3.432,0.241 3.906,1.144 0.188,0.359 0.061,0.833 -0.375,1.409 l 0.053,0.042 C 16.18,-5.25 15.522,-4.445 14.795,-3.694 9.986,1.27 3.172,3.582 -3.734,4.689 -2.301,3.276 -1.133,1.622 0,0"
             style="fill:#82b45f;fill-opacity:1;fill-rule:nonzero;stroke:none"
             id="path60" /></g><g
           id="g62"
           transform="translate(553.6543,297.2124)"><path
             d="m 0,0 c -4.434,-0.249 -9.594,0.134 -13.824,1.085 -5.565,1.248 -9.992,3.507 -13.16,6.711 -3.237,3.273 -5.287,7.449 -7.112,11.447 -3.56,7.813 -8.826,17.233 -18.06,21.559 -4.864,-0.729 -9.598,-2.083 -14.01,-4.235 3.824,-1.454 7.629,-3.167 11.006,-5.896 8.105,-6.126 11.23,-17.948 13.986,-28.379 0.818,-3.1 1.594,-6.027 2.451,-8.602 3.551,-11.922 21.008,-14.06 36.408,-15.944 3.952,-0.485 7.739,-0.951 11.155,-1.557 0.07,0.72 0.129,1.439 0.164,2.163 0.014,0.292 0.015,0.573 0.019,0.859 -0.109,2.222 -0.326,4.455 -0.777,6.744 -0.058,0.293 -0.123,0.585 -0.183,0.877 C 7.121,-9.612 5.621,-6.279 4.139,-2.51 3.769,-1.575 3.406,-0.636 3.045,0.302 2.082,0.167 1.07,0.061 0,0"
             style="fill:#82b45f;fill-opacity:1;fill-rule:nonzero;stroke:none"
             id="path64" /></g><g
           id="g66"
           transform="translate(477.3574,273.167)"><path
             d="m 0,0 c 4.021,6.057 8.58,12.923 2.738,19.221 -5.109,5.507 -13.043,7.983 -19.713,9.476 -1.453,-2.909 -2.996,-5.768 -4.863,-8.449 4.449,-0.754 9.053,-1.937 11.145,-6.159 2.963,-7.475 -0.125,-14.629 -3.112,-21.546 -1.552,-3.594 -3.156,-7.309 -3.873,-10.995 -0.875,-4.294 -1.549,-10.456 2.67,-14.418 1.289,-1.143 2.621,-2.271 4.033,-3.467 8.731,-7.393 18.604,-15.761 17.752,-28.469 4.248,-1.033 8.528,-2.002 12.801,-2.83 -1.142,9.735 -3.285,19.599 -10.463,26.527 -1.322,1.274 -2.769,2.514 -4.17,3.715 -4.613,3.951 -9.382,8.039 -10.922,14.333 -1.658,6.798 0.202,14.334 5.534,22.394 z"
             style="fill:#82b45f;fill-opacity:1;fill-rule:nonzero;stroke:none"
             id="path68" /></g><g
           id="g70"
           transform="translate(450.7773,234.4649)"><path
             d="m 0,0 c -0.486,0.848 -0.977,1.704 -1.465,2.577 -2.353,4.209 -3.465,9.081 -3.215,14.091 0.088,1.744 0.319,3.512 0.541,5.22 0.385,2.96 0.786,6.021 0.44,9.023 -0.485,4.224 -2.725,7.827 -6.834,10.991 -1.592,-2.124 -2.957,-4.399 -3.91,-6.95 -2.946,-7.884 -1.207,-16.685 1.052,-24.793 1.875,-6.731 4.176,-13.534 8.573,-18.967 3.142,-3.881 7.168,-6.83 11.617,-9.108 C 6.281,-10.992 3.223,-5.633 0,0"
             style="fill:#82b45f;fill-opacity:1;fill-rule:nonzero;stroke:none"
             id="path72" /></g><g
           id="g74"
           transform="translate(548.0781,247.3653)"><path
             d="m 0,0 c -2.695,0.565 -5.486,0.893 -8.184,1.211 -1.751,0.206 -3.564,0.42 -5.337,0.696 -5.506,0.858 -9.598,2.23 -12.879,4.319 -7.022,4.472 -10.491,12.386 -12.164,18.238 -1.161,4.06 -1.856,8.29 -2.53,12.381 -0.502,3.057 -1.021,6.219 -1.732,9.281 -1.227,5.298 -2.934,9.678 -5.215,13.391 -2.299,3.743 -5.439,6.501 -8.762,9.421 l -0.525,0.461 c -4.711,4.147 -9.598,7.186 -14.541,9.075 -1.848,-1.761 -3.566,-3.661 -5.164,-5.659 0.42,-0.17 0.849,-0.32 1.275,-0.46 0.692,-0.226 1.346,-0.438 1.907,-0.762 10.541,-6.45 19.537,-16.581 24.693,-27.801 2.023,-5.617 1.396,-11.736 0.791,-17.654 -0.527,-5.137 -1.072,-10.45 0.195,-15.205 2.002,-6.864 11.037,-14.577 19.008,-21.381 3.812,-3.253 7.412,-6.326 9.666,-8.864 4.824,-5.434 6.582,-12.128 6.939,-18.956 1.422,0.967 2.768,2.055 3.993,3.309 3.724,3.814 6.105,8.646 8.095,13.638 0.655,1.642 1.266,3.302 1.871,4.948 1.754,4.776 3.498,9.557 5.196,14.353 C 4.709,-1.198 2.516,-0.526 0,0"
             style="fill:#82b45f;fill-opacity:1;fill-rule:nonzero;stroke:none"
             id="path76" /></g><g
           id="g78"
           transform="translate(528.0898,227.6182)"><path
             d="m 0,0 c -2.225,2.504 -5.807,5.562 -9.6,8.8 -8.042,6.865 -17.156,14.645 -19.216,21.705 -1.299,4.879 -0.748,10.251 -0.217,15.446 0.601,5.846 1.221,11.89 -0.742,17.34 -5.094,11.079 -13.998,21.106 -24.422,27.486 -0.494,0.285 -1.116,0.488 -1.774,0.702 -0.484,0.158 -0.996,0.334 -1.5,0.55 -0.955,-1.22 -1.867,-2.475 -2.734,-3.756 -1.822,-2.692 -3.328,-5.552 -4.764,-8.447 11.955,0.224 18.348,-4.404 21.836,-15.692 3.073,-9.235 2.164,-20.81 1.362,-31.024 -0.168,-2.137 -0.327,-4.159 -0.44,-6.068 -0.17,-2.855 1.041,-6.196 3.695,-10.211 1.077,-1.207 2.206,-2.453 3.338,-3.704 9.924,-10.967 20.172,-22.302 19.838,-37.328 7.795,-0.247 15.776,1.185 22.131,5.246 C 6.484,-12.115 4.797,-5.401 0,0"
             style="fill:#82b45f;fill-opacity:1;fill-rule:nonzero;stroke:none"
             id="path80" /></g><g
           id="g82"
           transform="translate(492.4258,240.3047)"><path
             d="m 0,0 c -1.135,1.253 -2.264,2.5 -3.369,3.747 -2.766,4.174 -4.01,7.646 -3.832,10.648 0.113,1.916 0.273,3.939 0.439,6.081 0.799,10.151 1.701,21.657 -1.332,30.771 -3.416,11.062 -9.715,15.533 -21.541,15.227 -0.705,-1.436 -1.4,-2.877 -2.109,-4.31 6.732,-1.518 14.705,-4.042 19.894,-9.636 6.192,-6.675 1.278,-14.078 -2.673,-20.028 l -0.442,-0.667 c -5.226,-7.901 -7.056,-15.263 -5.441,-21.878 1.486,-6.09 6.176,-10.105 10.709,-13.99 1.408,-1.206 2.863,-2.453 4.197,-3.741 7.377,-7.12 9.535,-17.206 10.684,-27.129 3.509,-0.669 7.009,-1.243 10.476,-1.644 1.322,-0.153 2.662,-0.258 4.008,-0.317 C 19.992,-22.1 9.836,-10.868 0,0"
             style="fill:#82b45f;fill-opacity:1;fill-rule:nonzero;stroke:none"
             id="path84" /></g><g
           id="g86"
           transform="translate(447.7305,265.4502)"><path
             d="m 0,0 c 0.354,-3.081 -0.051,-6.184 -0.443,-9.183 -0.221,-1.695 -0.45,-3.449 -0.535,-5.166 -0.245,-4.888 0.839,-9.639 3.132,-13.739 0.487,-0.87 0.975,-1.725 1.461,-2.572 3.322,-5.805 6.469,-11.324 6.908,-18.574 3.161,-1.557 6.516,-2.792 9.914,-3.788 -0.877,6.299 -4.587,11.095 -8.517,16.156 -2.33,3.003 -4.74,6.108 -6.647,9.659 -3.935,7.08 -1.631,13.756 0.811,20.824 0.455,1.316 0.926,2.678 1.353,4.043 C 9.234,6.019 5.748,14.082 -1.115,18.032 -3.219,15.916 -5.291,13.771 -7.096,11.444 -2.834,8.166 -0.508,4.414 0,0"
             style="fill:#82b45f;fill-opacity:1;fill-rule:nonzero;stroke:none"
             id="path88" /></g><g
           id="g90"
           transform="translate(465.959,236.3311)"><path
             d="m 0,0 c -1.414,1.197 -2.75,2.328 -4.051,3.481 -4.465,4.194 -3.775,10.586 -2.869,15.03 0.729,3.754 2.346,7.503 3.91,11.128 2.936,6.796 5.969,13.822 3.117,21.019 -1.998,4.029 -6.429,5.083 -10.97,5.831 -0.475,-0.658 -0.965,-1.309 -1.489,-1.942 -1.992,-2.412 -4.261,-4.654 -6.515,-6.917 7.011,-4.121 10.56,-12.408 8.709,-21.018 -0.438,-1.403 -0.91,-2.769 -1.366,-4.089 -2.392,-6.926 -4.652,-13.468 -0.855,-20.297 1.881,-3.506 4.275,-6.589 6.588,-9.572 4.043,-5.207 7.859,-10.141 8.685,-16.753 0.872,-0.247 1.745,-0.485 2.616,-0.703 3.947,-0.989 7.968,-2.018 12.019,-3.009 C 18.287,-15.495 8.584,-7.27 0,0"
             style="fill:#82b45f;fill-opacity:1;fill-rule:nonzero;stroke:none"
             id="path92" /></g></g></g><g
       id="g94"><g
         id="g96"
         clip-path="url(#clipPath100)"><g
           id="g102"
           transform="translate(403.4355,365.0699)"><path
             d="m 0,0 c -1.668,-4.986 -4.006,-9.801 -6.267,-14.458 -2.735,-5.628 -5.561,-11.448 -7.19,-17.568 -1.859,-6.982 -2.689,-12.571 -2.613,-17.59 l -0.094,-10e-4 c 1.795,-3.023 3.326,-6.279 5.094,-9.354 -0.184,11.625 5.33,22.111 10.683,32.256 1.598,3.029 3.248,6.16 4.725,9.275 8.723,19.032 9.35,38.975 1.738,54.761 C 2.906,37.098 -0.262,36.922 -3.43,36.723 2.608,23.206 3.734,11.17 0,0"
             style="fill:#82b45f;fill-opacity:1;fill-rule:nonzero;stroke:none"
             id="path104" /></g><g
           id="g106"
           transform="translate(374.957,373.521)"><path
             d="m 0,0 c -0.631,-1.576 -1.336,-3.134 -2.02,-4.641 -2.517,-5.558 -4.896,-10.808 -3.775,-16.973 0.713,-3.914 1.797,-7.736 2.848,-11.432 1.006,-3.551 2.033,-7.222 2.775,-11.053 1.227,-1.188 2.477,-2.353 3.711,-3.53 -0.322,2.229 -0.701,4.489 -1.098,6.835 -1.88,11.097 -3.828,22.572 0.584,33.051 C 7.103,2.45 12.123,15.031 11.813,27.101 8.818,26.701 5.852,26.093 3.127,24.841 3.838,16.498 2.605,6.513 0,0"
             style="fill:#82b45f;fill-opacity:1;fill-rule:nonzero;stroke:none"
             id="path108" /></g><g
           id="g110"
           transform="translate(365.9082,344.0054)"><path
             d="m 0,0 c -2.203,8.246 -3.832,17.185 -0.875,26.676 0.789,2.535 1.861,5.074 2.898,7.531 C 4.18,39.313 6.398,44.584 6.252,50.169 2.961,46.868 0.555,42.558 -1.311,38.226 -5.09,29.449 -7.287,19.696 -5.576,10.294 -4.418,3.942 -1.512,-1.912 2.266,-7.102 1.418,-4.842 0.658,-2.473 0,0"
             style="fill:#82b45f;fill-opacity:1;fill-rule:nonzero;stroke:none"
             id="path112" /></g><g
           id="g114"
           transform="translate(434.7695,386.3657)"><path
             d="m 0,0 c 1.721,-2.653 3.346,-5.159 4.768,-7.667 8.193,-14.437 -3.418,-27.877 -12.747,-38.675 -0.982,-1.138 -1.943,-2.249 -2.853,-3.331 -0.953,-1.132 -1.959,-2.301 -2.992,-3.503 -9.068,-10.541 -20.305,-23.614 -18.432,-37.681 2.826,-1.452 5.957,-2.288 9.18,-2.775 -0.045,2.875 0.267,5.491 1.326,8.14 5.859,9.921 12.955,17.998 20.469,26.548 4.554,5.185 9.265,10.546 13.719,16.39 8.82,11.576 3.23,23.566 -2.176,35.161 C 8.6,-3.829 7.031,-0.463 5.852,2.908 5.246,4.725 5.133,6.047 5.049,7.609 0.85,10.557 -3.494,13.355 -8.305,15.115 -8.355,15.134 -8.406,15.148 -8.457,15.167 -6.451,9.977 -3.184,4.911 0,0"
             style="fill:#82b45f;fill-opacity:1;fill-rule:nonzero;stroke:none"
             id="path116" /></g><g
           id="g118"
           transform="translate(436.3887,312.8145)"><path
             d="m 0,0 c 3.133,4.51 7.143,8.364 11.02,12.09 4.449,4.277 9.05,8.699 12.296,14.102 3.651,6.077 4.793,12.469 3.401,18.997 -0.52,2.434 -1.19,4.815 -1.838,7.117 -1.385,4.925 -2.688,9.587 -2.707,14.864 -5.848,4.499 -11.703,8.992 -17.717,13.267 -0.113,0.081 -0.227,0.16 -0.34,0.24 C 4.199,79.38 4.342,78.202 4.852,76.67 6.02,73.336 7.582,69.983 9.236,66.435 14.725,54.664 20.398,42.491 11.34,30.601 6.873,24.738 2.154,19.368 -2.408,14.175 -9.9,5.648 -16.979,-2.406 -22.783,-12.23 c -1.016,-2.548 -1.309,-5.108 -1.256,-7.943 2.434,-0.333 4.91,-0.485 7.336,-0.562 3.361,-0.109 6.769,-0.098 10.099,0.314 C -6.875,-13.757 -4.568,-6.576 0,0"
             style="fill:#82b45f;fill-opacity:1;fill-rule:nonzero;stroke:none"
             id="path120" /></g><g
           id="g122"
           transform="translate(471.7695,366.6587)"><path
             d="m 0,0 c -2.145,3.99 -5.455,7.147 -8.994,10.029 -1.166,0.949 -2.356,1.867 -3.535,2.776 -0.004,0.003 -0.008,0.006 -0.012,0.009 0.098,-4.98 1.342,-9.457 2.67,-14.174 0.65,-2.312 1.324,-4.704 1.849,-7.158 1.428,-6.696 0.258,-13.248 -3.48,-19.471 -3.291,-5.478 -7.924,-9.931 -12.404,-14.237 -3.856,-3.705 -7.84,-7.535 -10.936,-11.992 -4.474,-6.442 -6.74,-13.461 -6.49,-19.966 2.328,0.328 4.611,0.863 6.803,1.728 7.816,3.09 13.547,9.917 17.937,17.085 5.445,8.888 11.383,18.21 15.612,27.701 C 2.912,-18.936 4.527,-8.423 0,0"
             style="fill:#82b45f;fill-opacity:1;fill-rule:nonzero;stroke:none"
             id="path124" /></g><g
           id="g126"
           transform="translate(371.377,340.2964)"><path
             d="m 0,0 c -1.053,3.711 -2.143,7.548 -2.859,11.493 -1.159,6.366 1.261,11.707 3.822,17.361 0.679,1.501 1.383,3.052 2.008,4.614 2.546,6.367 3.761,16.105 3.103,24.307 C 4.35,56.904 2.807,55.779 1.412,54.48 1.742,48.535 -0.584,43.008 -2.842,37.66 -3.873,35.219 -4.938,32.694 -5.719,30.191 -8.627,20.858 -7.014,12.029 -4.836,3.878 c 0.867,-3.25 1.902,-6.324 3.092,-9.193 0.017,-0.02 0.031,-0.041 0.049,-0.061 1.32,-1.663 2.771,-3.198 4.271,-4.683 C 1.855,-6.593 0.922,-3.246 0,0"
             style="fill:#82b45f;fill-opacity:1;fill-rule:nonzero;stroke:none"
             id="path128" /></g><g
           id="g130"
           transform="translate(412.8164,336.3526)"><path
             d="m 0,0 c 3.74,5 7.609,10.169 10.955,15.666 4.149,6.912 5.797,14.69 5.039,23.776 C 14.668,49.388 8.043,58.524 1.594,66.414 0.232,66.32 -1.158,66.197 -2.609,66.088 4.969,50.163 4.315,30.121 -4.449,11 -5.932,7.869 -7.588,4.731 -9.189,1.697 c -5.413,-10.262 -11.006,-20.872 -10.604,-32.588 0.006,-0.156 0.016,-0.335 0.023,-0.513 0.422,-0.691 0.858,-1.37 1.317,-2.032 l 0.035,0.149 C -15.295,-20.437 -7.867,-10.511 0,0"
             style="fill:#82b45f;fill-opacity:1;fill-rule:nonzero;stroke:none"
             id="path132" /></g><g
           id="g134"
           transform="translate(438.9688,378.3755)"><path
             d="m 0,0 c -1.414,2.49 -3.033,4.988 -4.75,7.633 -3.305,5.099 -6.697,10.364 -8.707,15.795 -3.604,1.146 -6.875,1.217 -10.299,1.015 6.412,-7.878 12.92,-16.979 14.25,-26.953 0.77,-9.244 -0.908,-17.15 -5.131,-24.186 -3.363,-5.526 -7.242,-10.708 -10.992,-15.719 -7.824,-10.456 -15.215,-20.331 -18.305,-33.049 l -0.142,-0.729 c 1.265,-1.72 2.701,-3.305 4.431,-4.653 0.79,-0.614 1.62,-1.151 2.477,-1.634 -1.607,14.172 9.594,27.197 18.647,37.721 1.033,1.201 2.037,2.368 2.988,3.498 0.912,1.084 1.875,2.197 2.859,3.337 C -3.48,-27.281 7.963,-14.036 0,0"
             style="fill:#82b45f;fill-opacity:1;fill-rule:nonzero;stroke:none"
             id="path136" /></g><g
           id="g138"
           transform="translate(399.3066,401.7476)"><path
             d="m 0,0 c -1.498,-0.095 -2.998,-0.2 -4.498,-0.317 2.744,-15.838 -2.803,-31.003 -8.23,-43.897 -3.784,-10.087 -4.336,-26.361 -1.6,-38.649 0.467,-0.615 0.92,-1.242 1.344,-1.896 0.134,-0.207 0.263,-0.421 0.394,-0.631 0.03,4.847 0.863,10.23 2.627,16.855 1.647,6.18 4.486,12.029 7.235,17.685 2.251,4.638 4.582,9.434 6.234,14.38 C 7.207,-25.402 6.053,-13.45 0,0"
             style="fill:#82b45f;fill-opacity:1;fill-rule:nonzero;stroke:none"
             id="path140" /></g><g
           id="g142"
           transform="translate(389.498,400.9473)"><path
             d="m 0,0 c -0.691,-0.075 -1.383,-0.156 -2.074,-0.242 0.332,-12.224 -4.727,-24.902 -8.834,-35.176 -4.342,-10.309 -2.412,-21.688 -0.545,-32.692 0.428,-2.536 0.865,-5.13 1.219,-7.682 1.691,-1.633 3.328,-3.313 4.82,-5.134 -2.449,12.239 -1.811,27.901 1.885,37.754 5.404,12.839 10.937,27.838 8.199,43.526 H 4.672 C 4.666,0.381 4.662,0.407 4.656,0.433 3.104,0.308 1.551,0.168 0,0"
             style="fill:#82b45f;fill-opacity:1;fill-rule:nonzero;stroke:none"
             id="path144" /></g></g></g><g
       id="g146"><g
         id="g148"
         clip-path="url(#clipPath152)"><g
           id="g154"
           transform="translate(315.9102,402.9048)"><path
             d="m 0,0 c 8.805,-4.81 18.154,-8.669 27.789,-11.469 0.1,-0.029 0.19,-0.047 0.289,-0.073 -0.055,0.139 -0.111,0.278 -0.166,0.418 C 26.418,-7.27 24.947,-3.407 22.9,0.179 14.275,2.418 6.285,7.141 0.316,13.751 -2.621,13.019 -5.086,11.279 -7.527,9.264 -8.391,8.55 -9.23,7.807 -10.063,7.055 -7.145,4.13 -3.539,1.934 0,0"
             style="fill:#82b45f;fill-opacity:1;fill-rule:nonzero;stroke:none"
             id="path156" /></g><g
           id="g158"
           transform="translate(300.1895,386.5503)"><path
             d="m 0,0 c 3.957,-1.651 8.146,-2.893 12.199,-4.094 2.459,-0.728 5,-1.481 7.471,-2.32 11.676,-3.961 22.705,-10.184 32.178,-18.121 0.138,0.319 0.263,0.645 0.367,0.981 0.896,2.9 0.258,6.059 -0.797,8.908 -1.188,3.211 -2.443,6.405 -3.711,9.593 C 28.689,-4.219 9.883,2.982 -4.826,15.072 -7.674,13.379 -10.639,11.857 -13.143,9.701 -13.318,9.551 -13.482,9.394 -13.65,9.24 -10.424,5.543 -5.854,2.442 0,0"
             style="fill:#82b45f;fill-opacity:1;fill-rule:nonzero;stroke:none"
             id="path160" /></g><g
           id="g162"
           transform="translate(347.6328,382.1616)"><path
             d="m 0,0 c -1.121,2.814 -2.244,5.625 -3.348,8.442 -0.254,0.066 -0.505,0.125 -0.769,0.203 -9.68,2.813 -19.072,6.691 -27.92,11.524 -3.594,1.962 -7.256,4.196 -10.234,7.187 -2.362,-2.154 -4.682,-4.36 -7.313,-6.188 -0.682,-0.473 -1.383,-0.914 -2.092,-1.346 C -37.178,7.97 -18.701,0.884 0,0"
             style="fill:#82b45f;fill-opacity:1;fill-rule:nonzero;stroke:none"
             id="path164" /></g><g
           id="g166"
           transform="translate(338.3535,403.8853)"><path
             d="m 0,0 c -0.34,0.562 -0.693,1.118 -1.068,1.664 -2.471,3.613 -5.633,6.804 -9.438,8.973 -2.381,1.358 -5.037,2.312 -7.765,2.476 -0.252,0.015 -0.506,0.024 -0.758,0.025 -0.824,0.005 -1.61,-0.069 -2.362,-0.208 C -15.682,6.718 -8.143,2.236 0,0"
             style="fill:#82b45f;fill-opacity:1;fill-rule:nonzero;stroke:none"
             id="path168" /></g><g
           id="g170"
           transform="translate(319.6484,379.5166)"><path
             d="m 0,0 c -2.457,0.835 -4.992,1.586 -7.445,2.312 -4.071,1.206 -8.278,2.452 -12.266,4.117 -5.937,2.477 -10.584,5.63 -13.875,9.396 -3.019,-2.962 -4.906,-6.655 -5.918,-10.657 4.086,-4.608 10.063,-8.327 18.135,-11.285 3.334,-1.22 6.801,-2.259 10.154,-3.264 5.149,-1.543 10.471,-3.138 15.44,-5.43 4.722,-2.179 12.447,-6.708 16.611,-14.263 2.447,1.609 4.652,3.579 6.787,5.593 1.699,1.604 3.406,3.323 4.465,5.374 C 22.648,-10.173 11.648,-3.953 0,0"
             style="fill:#82b45f;fill-opacity:1;fill-rule:nonzero;stroke:none"
             id="path172" /></g><g
           id="g174"
           transform="translate(323.5996,364.1109)"><path
             d="m 0,0 c -4.928,2.272 -10.228,3.861 -15.353,5.396 -3.364,1.008 -6.84,2.05 -10.192,3.278 -7.975,2.922 -13.945,6.586 -18.094,11.116 -1.213,-5.448 -0.863,-11.404 0.418,-16.838 4.209,-2.91 9.379,-3.888 14.819,-4.912 5.269,-0.992 10.718,-2.019 15.168,-4.993 2.347,-1.569 4.291,-3.598 6.023,-5.774 3.725,-0.945 7.059,-3.146 10.807,-4.053 4.039,-0.976 8.197,0.157 11.746,2.16 0.336,0.19 0.666,0.391 0.992,0.595 C 12.264,-6.606 4.65,-2.146 0,0"
             style="fill:#82b45f;fill-opacity:1;fill-rule:nonzero;stroke:none"
             id="path176" /></g><g
           id="g178"
           transform="translate(310.002,356.6133)"><path
             d="m 0,0 c -4.338,2.9 -9.721,3.913 -14.926,4.893 -5.035,0.948 -10.213,1.931 -14.469,4.628 0.338,-1.303 0.723,-2.574 1.157,-3.794 1.129,-3.183 2.724,-6.318 4.205,-9.363 2.369,-0.038 4.761,-0.17 7.109,-0.613 3.494,-0.66 6.484,-1.991 8.723,-3.856 4.082,1.722 8.074,3.771 12.672,3.238 C 4.766,-4.901 5.06,-4.946 5.35,-4.999 3.785,-3.113 2.049,-1.369 0,0"
             style="fill:#82b45f;fill-opacity:1;fill-rule:nonzero;stroke:none"
             id="path180" /></g><g
           id="g182"
           transform="translate(292.957,351.7202)"><path
             d="m 0,0 c -2.186,0.413 -4.424,0.55 -6.648,0.596 1.103,-2.109 2.603,-4.093 4.755,-5.067 2.358,-1.068 5.123,-0.753 7.58,0.051 0.836,0.273 1.659,0.592 2.479,0.927 C 6.045,-1.813 3.246,-0.613 0,0"
             style="fill:#82b45f;fill-opacity:1;fill-rule:nonzero;stroke:none"
             id="path184" /></g></g></g><g
       id="g186"><g
         id="g188"
         clip-path="url(#clipPath192)"><g
           id="g194"
           transform="translate(312.7344,329.564)"><path
             d="m 0,0 c 4.389,-0.387 8.533,-0.753 13.094,-2.124 4.132,-1.241 8.834,-2.84 12.34,-6.119 4.183,-3.915 5.994,-9.689 6.992,-13.69 1.509,-6.052 2.222,-12.283 2.117,-18.523 -0.193,-11.479 -3.17,-22.787 -6.051,-33.721 -2.182,-8.287 -4.435,-16.855 -5.472,-25.452 -2.713,-22.561 2.873,-44.987 10.023,-65.017 5.717,-2.435 11.932,-4.063 18.008,-4.591 -10.022,22.06 -12.84,47.364 -7.666,71.056 0.898,4.121 2.049,8.271 3.162,12.283 2.388,8.612 4.855,17.518 4.947,26.546 0.057,5.616 -0.826,11.284 -1.697,16.089 -1.713,9.447 -4.018,18.892 -6.852,28.07 -1.726,5.595 -3.965,11.901 -8.701,15.916 -2.81,2.381 -6.33,3.808 -9.715,4.994 C 20.154,7.25 15.654,8.505 11.113,9.49 7.342,9.006 3.602,7.887 -0.074,5.892 -2.803,4.411 -5.113,2.689 -7.084,0.771 -4.627,0.412 -2.275,0.201 0,0"
             style="fill:#82b45f;fill-opacity:1;fill-rule:nonzero;stroke:none"
             id="path196" /></g><g
           id="g198"
           transform="translate(326.9004,224.753)"><path
             d="m 0,0 c 3.582,15.509 7.285,31.548 9.83,48.087 1.092,6.547 -0.021,13.226 -1.1,19.686 -5.763,16.127 -18.927,29.049 -33.792,33.288 -0.653,-0.94 -1.254,-1.909 -1.805,-2.906 7.051,-8.185 22.699,-28.335 22.056,-45.233 -0.322,-8.423 -1.529,-16.886 -2.697,-25.07 -1.396,-9.766 -2.838,-19.867 -2.765,-29.92 0.035,-5.167 0.32,-10.415 0.599,-15.491 0.16,-2.942 0.319,-5.947 0.436,-8.958 0.724,-1.983 1.426,-3.983 2.162,-5.966 C -4.955,-21.521 -2.447,-10.591 0,0"
             style="fill:#82b45f;fill-opacity:1;fill-rule:nonzero;stroke:none"
             id="path200" /></g><g
           id="g202"
           transform="translate(335.1055,230.0117)"><path
             d="m 0,0 c 1.039,8.643 3.301,17.234 5.488,25.542 2.869,10.897 5.836,22.165 6.028,33.566 0.103,6.182 -0.602,12.356 -2.098,18.352 -0.977,3.921 -2.746,9.574 -6.805,13.371 -3.4,3.182 -8.017,4.75 -12.08,5.97 -4.496,1.352 -8.607,1.715 -12.963,2.099 -2.402,0.212 -4.888,0.431 -7.506,0.83 l -0.089,0.014 c -1.043,-1.072 -1.989,-2.199 -2.844,-3.379 14.974,-4.36 28.207,-17.391 34.027,-33.686 1.1,-6.57 2.223,-13.304 1.114,-19.955 -2.547,-16.559 -6.255,-32.61 -9.838,-48.131 -2.522,-10.918 -5.12,-22.197 -7.278,-33.493 1.698,-4.447 3.645,-8.76 6.541,-12.508 C -4.17,-56.754 2.377,-61.423 9.85,-64.735 2.77,-44.775 -2.705,-22.471 0,0"
             style="fill:#82b45f;fill-opacity:1;fill-rule:nonzero;stroke:none"
             id="path204" /></g><g
           id="g206"
           transform="translate(290.8262,245.0977)"><path
             d="M 0,0 C 1.258,-1.824 2.596,-3.616 3.918,-5.368 4.896,9.522 3.305,24.609 -0.703,39.003 -1.75,34.667 -2.945,30.367 -4.291,26.114 -4.525,25.372 -4.764,24.625 -4.994,23.873 -1.582,16.44 0.145,8.175 0,0"
             style="fill:#82b45f;fill-opacity:1;fill-rule:nonzero;stroke:none"
             id="path208" /></g><g
           id="g210"
           transform="translate(316.5723,207.1582)"><path
             d="m 0,0 c -0.277,5.084 -0.566,10.34 -0.602,15.522 -0.07,10.103 1.375,20.227 2.774,30.017 1.164,8.167 2.371,16.613 2.689,25.004 0.629,16.535 -14.652,36.341 -21.732,44.588 -1.354,-2.557 -2.422,-5.281 -3.293,-8.12 3.492,-9.582 7.004,-19.8 8.586,-30.322 0.885,-5.882 1.174,-11.904 1.453,-17.727 l 2.314,-48.32 c 3.081,-5.687 5.866,-11.528 8.164,-17.58 0,-0.003 0.002,-0.004 0.002,-0.006 C 0.25,-4.609 0.125,-2.286 0,0"
             style="fill:#82b45f;fill-opacity:1;fill-rule:nonzero;stroke:none"
             id="path212" /></g><g
           id="g214"
           transform="translate(305.791,266.0879)"><path
             d="m 0,0 c -0.277,5.808 -0.564,11.814 -1.445,17.661 -1.528,10.161 -4.871,20.051 -8.252,29.362 -1.33,-4.601 -2.203,-9.471 -3.03,-14.378 7.006,-21.468 9.44,-44.182 7.2,-66.602 0.101,-0.158 0.213,-0.319 0.312,-0.477 2.608,-4.1 5.115,-8.276 7.465,-12.534 z"
             style="fill:#82b45f;fill-opacity:1;fill-rule:nonzero;stroke:none"
             id="path216" /></g><g
           id="g218"
           transform="translate(299.6914,232.9961)"><path
             d="M 0,0 C 2.055,21.653 -0.262,43.565 -6.863,64.338 -7.535,60.34 -8.34,56.365 -9.264,52.418 -4.93,37.373 -3.24,21.546 -4.354,5.95 -2.805,3.906 -1.303,1.918 0,0"
             style="fill:#82b45f;fill-opacity:1;fill-rule:nonzero;stroke:none"
             id="path220" /></g><g
           id="g222"
           transform="translate(285.541,268.0049)"><path
             d="M 0,0 C -0.853,-2.911 -1.49,-5.877 -1.094,-8.855 -0.502,-13.337 1.812,-17.731 4.643,-21.96 4.643,-14.44 3.039,-6.879 0,0"
             style="fill:#82b45f;fill-opacity:1;fill-rule:nonzero;stroke:none"
             id="path224" /></g><g
           id="g226"
           transform="translate(403.5313,195.2842)"><path
             d="m 0,0 c -2.061,3.674 -3.572,7.601 -4.826,11.267 -7.162,20.935 -9.828,43.33 -7.858,65.35 -1.941,2.618 -3.757,5.199 -5.451,7.713 0.258,-7.574 -0.67,-15.232 -1.59,-22.726 -0.849,-6.935 -1.73,-14.105 -1.658,-21.12 0.104,-10.27 2.244,-20.495 4.315,-30.381 1.453,-6.946 3.101,-14.819 7.543,-20.976 1.31,-1.819 2.88,-3.506 4.427,-5.139 0.047,0.071 0.094,0.143 0.141,0.213 2.221,3.387 5.002,7.22 7.867,11.341 C 1.826,-3.043 0.865,-1.543 0,0"
             style="fill:#82b45f;fill-opacity:1;fill-rule:nonzero;stroke:none"
             id="path228" /></g><g
           id="g230"
           transform="translate(414.2598,206.2207)"><path
             d="m 0,0 c -6.736,10.089 -11.172,19.031 -13.838,27.891 -2.152,7.155 -4.004,17.385 -2.002,28.226 -2.482,2.938 -4.812,5.88 -6.99,8.785 -1.838,-21.696 0.84,-43.739 7.894,-64.36 1.231,-3.6 2.711,-7.45 4.719,-11.052 0.834,-1.494 1.756,-2.947 2.793,-4.319 2.91,4.2 5.879,8.694 8.436,13.328 C 0.666,-0.997 0.334,-0.499 0,0"
             style="fill:#82b45f;fill-opacity:1;fill-rule:nonzero;stroke:none"
             id="path232" /></g><g
           id="g234"
           transform="translate(376.4551,286.9151)"><path
             d="m 0,0 c 0.41,-4.808 0.748,-11.119 -0.307,-17.297 -0.74,-4.324 -2.142,-8.552 -3.502,-12.642 -0.523,-1.577 -1.066,-3.209 -1.56,-4.82 -8.664,-28.213 -5.586,-59.286 8.443,-85.253 0.785,-1.453 1.658,-2.933 2.932,-3.888 1.252,0.573 2.453,1.23 3.586,1.992 5.08,3.41 8.644,8.578 12.015,13.703 -1.595,1.685 -3.222,3.424 -4.587,5.317 -4.524,6.271 -6.186,14.216 -7.653,21.225 -2.078,9.919 -4.224,20.175 -4.33,30.51 -0.072,7.057 0.811,14.25 1.664,21.206 0.959,7.814 1.934,15.811 1.547,23.68 C 4.467,-0.581 1.33,4.722 -1.158,9.242 -0.672,6.429 -0.289,3.376 0,0"
             style="fill:#82b45f;fill-opacity:1;fill-rule:nonzero;stroke:none"
             id="path236" /></g><g
           id="g238"
           transform="translate(378.9531,166.5918)"><path
             d="m 0,0 c -14.113,26.12 -17.209,57.378 -8.494,85.758 0.498,1.617 1.041,3.253 1.566,4.834 1.35,4.065 2.746,8.269 3.477,12.545 1.043,6.104 0.707,12.362 0.299,17.132 -0.356,4.169 -0.858,7.839 -1.524,11.167 -4.129,7.683 -6.191,12.675 -6.193,12.683 -0.807,1.605 -1.545,3.359 -2.278,5.165 -6.714,15.361 -19.158,20.756 -28.367,22.586 -3.841,0.71 -7.691,1.056 -11.515,0.795 3.908,-0.92 7.779,-2.034 11.556,-3.357 3.444,-1.208 7.03,-2.662 9.922,-5.114 4.871,-4.128 7.151,-10.538 8.904,-16.222 2.84,-9.203 5.153,-18.673 6.87,-28.147 0.877,-4.833 1.765,-10.541 1.709,-16.213 -0.094,-9.112 -2.575,-18.059 -4.971,-26.713 -1.111,-4.004 -2.26,-8.145 -3.154,-12.249 -5.172,-23.672 -2.315,-48.965 7.771,-70.975 6.154,-0.443 12.125,0.274 17.252,2.457 C 1.611,-2.845 0.762,-1.412 0,0"
             style="fill:#82b45f;fill-opacity:1;fill-rule:nonzero;stroke:none"
             id="path240" /></g><g
           id="g242"
           transform="translate(415.5313,244.0186)"><path
             d="M 0,0 C 0.104,-0.12 0.203,-0.239 0.309,-0.362 0.205,-0.241 0.104,-0.12 0,0"
             style="fill:#82b45f;fill-opacity:1;fill-rule:nonzero;stroke:none"
             id="path244" /></g><g
           id="g246"><g
             id="g248" /><g
             id="g260"><g
               clip-path="url(#clipPath252)"
               opacity="0.5"
               id="g258"><g
                 transform="translate(413.502,246.334)"
                 id="g256"><path
                   d="M 0,0 C 0.682,-0.768 1.363,-1.536 2.029,-2.315 1.332,-1.495 0.652,-0.722 0,0"
                   style="fill:#82b45f;fill-opacity:1;fill-rule:nonzero;stroke:none"
                   id="path254" /></g></g></g></g><g
           id="g262"><g
             id="g264" /><g
             id="g276"><g
               clip-path="url(#clipPath268)"
               opacity="0.5"
               id="g274"><g
                 transform="translate(415.959,243.5157)"
                 id="g272"><path
                   d="M 0,0 C -0.041,0.048 -0.08,0.093 -0.119,0.141 -0.049,0.055 0.023,-0.031 0.096,-0.116 0.062,-0.077 0.033,-0.041 0,0"
                   style="fill:#82b45f;fill-opacity:1;fill-rule:nonzero;stroke:none"
                   id="path270" /></g></g></g></g><g
           id="g278"
           transform="translate(420.6699,236.0869)"><path
             d="m 0,0 c -1.059,2.71 -2.746,5.067 -4.615,7.312 -0.072,0.086 -0.145,0.171 -0.215,0.257 -0.106,0.123 -0.205,0.243 -0.309,0.363 -0.666,0.779 -1.347,1.548 -2.029,2.315 -0.494,0.544 -0.975,1.063 -1.439,1.556 0.093,-1.165 0.173,-2.326 0.25,-3.471 0.025,-0.4 0.052,-0.803 0.08,-1.205 0.25,-3.69 0.57,-7.465 1.504,-11.063 1.289,-4.957 3.824,-9.646 7.23,-13.501 C 2.02,-11.506 2.188,-5.594 0,0"
             style="fill:#82b45f;fill-opacity:1;fill-rule:nonzero;stroke:none"
             id="path280" /></g><g
           id="g282"
           transform="translate(405.8379,254.1104)"><path
             d="M 0,0 C -0.639,0.665 -1.27,1.332 -1.893,2.001 -1.256,1.308 -0.652,0.663 -0.148,0.149 -0.102,0.102 -0.049,0.05 0,0"
             style="fill:#82b45f;fill-opacity:1;fill-rule:nonzero;stroke:none"
             id="path284" /></g><g
           id="g286"
           transform="translate(411.3379,248.6494)"><path
             d="M 0,0 C -0.023,0.023 -0.045,0.045 -0.068,0.066 -0.045,0.043 -0.022,0.018 0.002,-0.006 0.002,-0.004 0,-0.003 0,0"
             style="fill:#82b45f;fill-opacity:1;fill-rule:nonzero;stroke:none"
             id="path288" /></g><g
           id="g290"><g
             id="g292" /><g
             id="g304"><g
               clip-path="url(#clipPath296)"
               opacity="0.5"
               id="g302"><g
                 transform="translate(398.9785,261.6817)"
                 id="g300"><path
                   d="M 0,0 C 1.594,-1.865 3.252,-3.726 4.967,-5.57 2.693,-3.096 0,0 0,0"
                   style="fill:#82b45f;fill-opacity:1;fill-rule:nonzero;stroke:none"
                   id="path298" /></g></g></g></g><g
           id="g306"
           transform="translate(420.8867,217.9336)"><path
             d="m 0,0 c -3.602,3.983 -6.277,8.875 -7.623,14.052 -1.014,3.898 -1.311,7.972 -1.574,11.928 -0.01,0.154 -0.022,0.308 -0.031,0.462 -0.094,1.406 -0.194,2.837 -0.319,4.268 -0.023,0.023 -0.047,0.049 -0.07,0.072 -2.193,2.27 -4.037,3.982 -5.432,5.395 -0.049,0.05 -0.101,0.101 -0.148,0.149 -0.504,0.514 -1.108,1.158 -1.744,1.852 -1.715,1.844 -3.373,3.705 -4.967,5.57 -1.822,-10.516 -0.026,-20.418 2.072,-27.382 2.631,-8.741 6.998,-17.571 13.629,-27.53 0.312,-0.469 0.623,-0.936 0.945,-1.408 0.836,1.543 1.627,3.098 2.348,4.666 1.197,2.606 2.203,5.238 2.949,7.868 C 0.023,-0.025 0.012,-0.013 0,0"
             style="fill:#82b45f;fill-opacity:1;fill-rule:nonzero;stroke:none"
             id="path308" /></g></g></g><g
       id="g310"><g
         id="g312"
         clip-path="url(#clipPath316)"><g
           id="g318"
           transform="translate(491.5566,234.2754)"><path
             d="m 0,0 c 0,-3.709 -3.008,-6.717 -6.717,-6.717 -3.711,0 -6.717,3.008 -6.717,6.717 v 86.903 c 0,3.71 3.006,6.717 6.717,6.717 C -3.008,93.62 0,90.613 0,86.903 Z"
             style="fill:#000000;fill-opacity:1;fill-rule:nonzero;stroke:none"
             id="path320" /></g></g></g><g
       id="g322"><g
         id="g324"
         clip-path="url(#clipPath328)"><g
           id="g330"
           transform="translate(447.8555,293.628)"><path
             d="m 0,0 c -1.098,-2.741 -2.928,-4.935 -5.484,-6.579 -2.467,-1.647 -5.256,-2.468 -8.362,-2.468 h -0.137 -0.136 -0.137 -9.047 c -0.732,0 -1.326,0.227 -1.781,0.685 -0.459,0.457 -0.686,1.006 -0.686,1.644 v 25.085 c 0,0.73 0.227,1.323 0.686,1.782 0.455,0.456 1.049,0.685 1.781,0.685 h 9.457 c 2.01,0 3.975,-0.411 5.895,-1.234 2.65,-1.096 4.842,-2.878 6.58,-5.345 C 0.273,11.604 1.096,8.817 1.096,5.894 1.096,3.974 0.729,2.009 0,0 m 13.158,-55.103 c -0.275,1.46 -0.572,3.311 -0.891,5.551 -0.322,2.239 -0.64,4.569 -0.96,6.991 -0.321,2.421 -0.639,4.75 -0.959,6.991 -0.321,2.238 -0.618,4.18 -0.891,5.825 -0.549,4.02 -2.103,7.72 -4.66,11.103 -0.367,0.455 -0.504,1.004 -0.412,1.645 0.09,0.638 0.365,1.186 0.822,1.644 0.822,0.731 1.621,1.554 2.4,2.468 0.776,0.912 1.483,1.872 2.123,2.879 3.292,4.66 4.936,9.958 4.936,15.9 0,1.918 -0.184,3.79 -0.549,5.619 -0.367,1.827 -0.914,3.654 -1.644,5.483 -2.194,5.117 -5.666,9.274 -10.418,12.474 -4.752,3.197 -10.053,4.798 -15.901,4.798 h -18.64 c -1.92,0 -3.52,-0.641 -4.797,-1.92 -1.371,-1.37 -2.057,-2.971 -2.057,-4.797 V -42.15 c 1.061,-1.037 2.248,-2.216 3.547,-3.588 0.465,-0.493 0.945,-1.012 1.44,-1.556 0.681,-0.768 1.363,-1.536 2.029,-2.315 0.103,-0.12 0.203,-0.24 0.308,-0.363 0.071,-0.086 0.143,-0.172 0.215,-0.257 1.869,-2.245 3.557,-4.602 4.615,-7.312 0.487,-1.241 0.85,-2.5 1.114,-3.77 0.199,0.654 0.302,1.353 0.302,2.096 v 34.131 c 0,0.73 0.227,1.323 0.686,1.781 0.455,0.456 1.049,0.686 1.781,0.686 h 9.047 c 2.557,0 4.842,-0.87 6.854,-2.605 1.918,-1.644 3.105,-3.793 3.562,-6.442 0.275,-2.011 0.639,-4.592 1.098,-7.744 0.457,-3.153 0.89,-6.26 1.302,-9.321 0.411,-3.063 0.776,-5.712 1.096,-7.951 0.319,-2.24 0.481,-3.405 0.481,-3.494 0.273,-1.737 1.048,-3.154 2.33,-4.25 1.279,-1.097 2.74,-1.644 4.387,-1.644 0.455,0 0.775,0.045 0.958,0.136 1.827,0.275 3.311,1.165 4.455,2.673 1.141,1.508 1.577,3.174 1.301,5.003 z"
             style="fill:#000000;fill-opacity:1;fill-rule:nonzero;stroke:none"
             id="path332" /></g></g></g><g
       id="g334"><g
         id="g336"
         clip-path="url(#clipPath340)"><g
           id="g342"
           transform="translate(394.6816,258.4248)"><path
             d="m 0,0 c -1.92,0 -3.543,-0.663 -4.867,-1.988 -1.326,-1.325 -1.986,-2.902 -1.986,-4.729 0,-1.371 -0.276,-2.742 -0.825,-4.112 -0.914,-2.103 -2.191,-3.655 -3.838,-4.66 -1.736,-1.189 -3.699,-1.782 -5.892,-1.782 -1.555,0 -2.926,0.275 -4.113,0.822 -1.918,0.823 -3.473,2.102 -4.661,3.839 -1.279,1.827 -1.918,3.791 -1.918,5.893 v 52.086 c 0,2.103 0.639,4.067 1.918,5.894 1.188,1.736 2.743,3.015 4.661,3.839 1.187,0.546 2.558,0.822 4.113,0.822 2.193,0 4.156,-0.594 5.892,-1.782 1.647,-1.005 2.924,-2.558 3.838,-4.66 0.549,-1.371 0.825,-2.742 0.825,-4.113 0,-1.827 0.66,-3.404 1.986,-4.728 1.324,-1.326 2.947,-1.989 4.867,-1.989 1.826,0 3.402,0.663 4.729,1.989 1.322,1.324 1.986,2.901 1.986,4.728 0,2.378 -0.365,4.707 -1.096,6.991 -0.732,2.285 -1.738,4.433 -3.015,6.442 -2.651,4.022 -6.215,6.945 -10.692,8.772 -3.015,1.28 -6.123,1.92 -9.32,1.92 -4.752,0 -9.277,-1.371 -13.57,-4.112 -3.93,-2.65 -6.809,-6.214 -8.635,-10.692 -1.282,-3.015 -1.92,-6.121 -1.92,-9.321 V -6.717 c 0,-3.2 0.638,-6.305 1.92,-9.321 1.826,-4.478 4.705,-8.042 8.635,-10.692 4.293,-2.741 8.818,-4.112 13.57,-4.112 3.197,0 6.305,0.64 9.32,1.92 4.477,1.827 8.041,4.75 10.692,8.773 1.277,2.008 2.283,4.157 3.015,6.441 0.731,2.284 1.096,4.613 1.096,6.991 0,1.827 -0.664,3.404 -1.986,4.729 C 3.402,-0.663 1.826,0 0,0"
             style="fill:#000000;fill-opacity:1;fill-rule:nonzero;stroke:none"
             id="path344" /></g></g></g></g></svg>
