<?xml version="1.0" encoding="UTF-8" standalone="no"?>
<svg
   width="700pt"
   height="700pt"
   version="1.1"
   viewBox="0 0 700 700"
   id="svg1389"
   sodipodi:docname="vive-controller-side.svg"
   inkscape:version="1.1.2 (1:1.1+202202050950+0a00cf5339)"
   xmlns:inkscape="http://www.inkscape.org/namespaces/inkscape"
   xmlns:sodipodi="http://sodipodi.sourceforge.net/DTD/sodipodi-0.dtd"
   xmlns="http://www.w3.org/2000/svg"
   xmlns:svg="http://www.w3.org/2000/svg">
  <sodipodi:namedview
     id="namedview1391"
     pagecolor="#ffffff"
     bordercolor="#666666"
     borderopacity="1.0"
     inkscape:pageshadow="2"
     inkscape:pageopacity="0.0"
     inkscape:pagecheckerboard="0"
     inkscape:document-units="pt"
     showgrid="false"
     inkscape:zoom="0.66191711"
     inkscape:cx="407.90606"
     inkscape:cy="360.31702"
     inkscape:window-width="1366"
     inkscape:window-height="704"
     inkscape:window-x="0"
     inkscape:window-y="27"
     inkscape:window-maximized="1"
     inkscape:current-layer="svg1389" />
  <defs
     id="defs1295">
    <symbol
       id="w"
       overflow="visible">
      <path
         d="m2.7344-0.15625c-0.14844 0.074219-0.29688 0.125-0.45312 0.15625-0.14844 0.039062-0.30469 0.0625-0.46875 0.0625-0.49219 0-0.88281-0.13281-1.1719-0.40625-0.29297-0.28125-0.4375-0.66016-0.4375-1.1406 0-0.47656 0.14453-0.85156 0.4375-1.125 0.28906-0.28125 0.67969-0.42188 1.1719-0.42188 0.16406 0 0.32031 0.023438 0.46875 0.0625 0.15625 0.03125 0.30469 0.085938 0.45312 0.15625v0.625c-0.14844-0.09375-0.28906-0.16016-0.42188-0.20312-0.13672-0.050781-0.28125-0.078125-0.4375-0.078125-0.27344 0-0.48438 0.089844-0.64062 0.26562-0.15625 0.16797-0.23438 0.40625-0.23438 0.71875 0 0.30469 0.078125 0.54297 0.23438 0.71875 0.15625 0.17969 0.36719 0.26562 0.64062 0.26562 0.15625 0 0.30078-0.019531 0.4375-0.0625 0.13281-0.050781 0.27344-0.125 0.42188-0.21875z"
         id="path1226" />
    </symbol>
    <symbol
       id="b"
       overflow="visible">
      <path
         d="m2-1.625c-0.0625-0.03125-0.125-0.050781-0.1875-0.0625-0.0625-0.007812-0.125-0.015625-0.1875-0.015625-0.17969 0-0.32031 0.058594-0.42188 0.17188-0.09375 0.11719-0.14062 0.28125-0.14062 0.5v1.0312h-0.71875v-2.2344h0.71875v0.375c0.082031-0.14453 0.17969-0.25 0.29688-0.3125 0.125-0.070313 0.26953-0.10938 0.4375-0.10938h0.078125c0.03125 0 0.070312 0.007812 0.125 0.015625z"
         id="path1229" />
    </symbol>
    <symbol
       id="a"
       overflow="visible">
      <path
         d="m2.5625-1.125v0.20312h-1.6562c0.007812 0.16797 0.066406 0.29297 0.17188 0.375 0.10156 0.085937 0.25 0.125 0.4375 0.125 0.15625 0 0.3125-0.019531 0.46875-0.0625 0.15625-0.039063 0.31641-0.10938 0.48438-0.20312v0.54688c-0.17969 0.0625-0.35156 0.10938-0.51562 0.14062-0.16797 0.039062-0.33594 0.0625-0.5 0.0625-0.40625 0-0.72656-0.10156-0.95312-0.3125-0.21875-0.20703-0.32812-0.49219-0.32812-0.85938 0-0.36328 0.10938-0.64844 0.32812-0.85938 0.21875-0.20703 0.51953-0.3125 0.90625-0.3125 0.35156 0 0.63281 0.10547 0.84375 0.3125 0.20703 0.21094 0.3125 0.49219 0.3125 0.84375zm-0.71875-0.23438c0-0.13281-0.042969-0.24219-0.125-0.32812-0.085938-0.082031-0.1875-0.125-0.3125-0.125-0.13672 0-0.25 0.042969-0.34375 0.125-0.085938 0.074219-0.13672 0.18359-0.15625 0.32812z"
         id="path1232" />
    </symbol>
    <symbol
       id="e"
       overflow="visible">
      <path
         d="m1.3438-1c-0.14844 0-0.26172 0.027344-0.34375 0.078125-0.074219 0.042969-0.10938 0.11719-0.10938 0.21875 0 0.09375 0.03125 0.16797 0.09375 0.21875 0.0625 0.042969 0.14453 0.0625 0.25 0.0625 0.13281 0 0.25-0.046875 0.34375-0.14062s0.14062-0.21094 0.14062-0.35938v-0.078125zm1.0938-0.26562v1.2656h-0.71875v-0.32812c-0.10547 0.13672-0.21875 0.23438-0.34375 0.29688-0.11719 0.0625-0.25781 0.09375-0.42188 0.09375-0.23047 0-0.41797-0.066406-0.5625-0.20312-0.14844-0.13281-0.21875-0.3125-0.21875-0.53125 0-0.25781 0.085937-0.44531 0.26562-0.5625 0.1875-0.125 0.47266-0.1875 0.85938-0.1875h0.42188v-0.0625c0-0.11328-0.046875-0.19531-0.14062-0.25-0.085937-0.050781-0.22656-0.078125-0.42188-0.078125-0.14844 0-0.28906 0.015625-0.42188 0.046875-0.125 0.03125-0.24609 0.078125-0.35938 0.14062v-0.54688c0.14453-0.03125 0.29688-0.054687 0.45312-0.078125 0.15625-0.019531 0.3125-0.03125 0.46875-0.03125 0.39453 0 0.67969 0.078125 0.85938 0.23438 0.1875 0.15625 0.28125 0.41797 0.28125 0.78125z"
         id="path1235" />
    </symbol>
    <symbol
       id="c"
       overflow="visible">
      <path
         d="m1.125-2.8594v0.625h0.73438v0.51562h-0.73438v0.9375c0 0.10547 0.019531 0.17969 0.0625 0.21875 0.039062 0.03125 0.11719 0.046875 0.23438 0.046875h0.375v0.51562h-0.60938c-0.28125 0-0.48438-0.054688-0.60938-0.17188-0.11719-0.125-0.17188-0.32812-0.17188-0.60938v-0.9375h-0.35938v-0.51562h0.35938v-0.625z"
         id="path1238" />
    </symbol>
    <symbol
       id="l"
       overflow="visible">
      <path
         d="m1.8594-1.9062v-1.1875h0.71875v3.0938h-0.71875v-0.32812c-0.09375 0.13672-0.20312 0.23438-0.32812 0.29688-0.11719 0.0625-0.25 0.09375-0.40625 0.09375-0.27344 0-0.49609-0.10938-0.67188-0.32812-0.17969-0.21875-0.26562-0.5-0.26562-0.84375s0.085938-0.625 0.26562-0.84375c0.17578-0.21875 0.39844-0.32812 0.67188-0.32812 0.15625 0 0.28906 0.03125 0.40625 0.09375 0.125 0.0625 0.23438 0.15625 0.32812 0.28125zm-0.46875 1.4531c0.15625 0 0.26953-0.054687 0.34375-0.17188 0.082031-0.11328 0.125-0.27344 0.125-0.48438 0-0.21875-0.042969-0.37891-0.125-0.48438-0.074219-0.11328-0.1875-0.17188-0.34375-0.17188s-0.27734 0.058594-0.35938 0.17188c-0.074219 0.10547-0.10938 0.26562-0.10938 0.48438 0 0.21094 0.035156 0.37109 0.10938 0.48438 0.082031 0.11719 0.20312 0.17188 0.35938 0.17188z"
         id="path1241" />
    </symbol>
    <symbol
       id="k"
       overflow="visible">
      <path
         d="m1.5312-0.45312c0.15625 0 0.26953-0.054687 0.34375-0.17188 0.082031-0.11328 0.125-0.27344 0.125-0.48438 0-0.21875-0.042969-0.37891-0.125-0.48438-0.074219-0.11328-0.1875-0.17188-0.34375-0.17188s-0.27734 0.058594-0.35938 0.17188c-0.074219 0.10547-0.10938 0.26562-0.10938 0.48438 0 0.21094 0.035156 0.37109 0.10938 0.48438 0.082031 0.11719 0.20312 0.17188 0.35938 0.17188zm-0.46875-1.4531c0.09375-0.125 0.19531-0.21875 0.3125-0.28125 0.125-0.0625 0.26562-0.09375 0.42188-0.09375 0.26953 0 0.49219 0.10938 0.67188 0.32812 0.17578 0.21875 0.26562 0.5 0.26562 0.84375s-0.089844 0.625-0.26562 0.84375c-0.17969 0.21875-0.40234 0.32812-0.67188 0.32812-0.15625 0-0.29688-0.03125-0.42188-0.09375-0.11719-0.0625-0.21875-0.16016-0.3125-0.29688v0.32812h-0.71875v-3.0938h0.71875z"
         id="path1244" />
    </symbol>
    <symbol
       id="j"
       overflow="visible">
      <path
         d="m0.046875-2.2344h0.71875l0.59375 1.5156 0.51562-1.5156h0.70312l-0.9375 2.4531c-0.09375 0.23828-0.20312 0.40625-0.32812 0.5-0.125 0.10156-0.28906 0.15625-0.48438 0.15625h-0.42188v-0.46875h0.21875c0.125 0 0.21094-0.023438 0.26562-0.0625 0.0625-0.03125 0.10938-0.10156 0.14062-0.20312l0.015625-0.0625z"
         id="path1247" />
    </symbol>
    <symbol
       id="i"
       overflow="visible">
      <path
         d="m0.375-2.9688h0.76562v1.0781l1.1094-1.0781h0.89062l-1.4375 1.4062 1.5781 1.5625h-0.95312l-1.1875-1.1719v1.1719h-0.76562z"
         id="path1250" />
    </symbol>
    <symbol
       id="v"
       overflow="visible">
      <path
         d="m0.0625-2.2344h0.71875l0.54688 1.5469 0.5625-1.5469h0.70312l-0.875 2.2344h-0.78125z"
         id="path1253" />
    </symbol>
    <symbol
       id="h"
       overflow="visible">
      <path
         d="m0.34375-2.2344h0.71875v2.2344h-0.71875zm0-0.85938h0.71875v0.57812h-0.71875z"
         id="path1256" />
    </symbol>
    <symbol
       id="g"
       overflow="visible">
      <path
         d="m2.5781-1.3594v1.3594h-0.70312v-1.0469c0-0.1875-0.007812-0.31641-0.015625-0.39062-0.011719-0.070312-0.027344-0.125-0.046875-0.15625-0.03125-0.050781-0.074219-0.085938-0.125-0.10938-0.042969-0.03125-0.09375-0.046875-0.15625-0.046875-0.14844 0-0.26172 0.058594-0.34375 0.17188-0.085938 0.11719-0.125 0.27734-0.125 0.48438v1.0938h-0.71875v-2.2344h0.71875v0.32812c0.10156-0.125 0.21094-0.21875 0.32812-0.28125 0.125-0.0625 0.25781-0.09375 0.40625-0.09375 0.25781 0 0.45312 0.078125 0.57812 0.23438 0.13281 0.15625 0.20312 0.38672 0.20312 0.6875z"
         id="path1259" />
    </symbol>
    <symbol
       id="u"
       overflow="visible">
      <path
         d="m1.5625-1.8281c0.125 0 0.21875-0.023437 0.28125-0.078125 0.0625-0.050781 0.09375-0.12891 0.09375-0.23438 0-0.10156-0.03125-0.17969-0.09375-0.23438-0.0625-0.050781-0.15625-0.078125-0.28125-0.078125h-0.42188v0.625zm0.03125 1.3125c0.15625 0 0.26953-0.03125 0.34375-0.09375 0.082031-0.070313 0.125-0.17188 0.125-0.29688 0-0.13281-0.042969-0.23438-0.125-0.29688-0.074219-0.0625-0.1875-0.09375-0.34375-0.09375h-0.45312v0.78125zm0.70312-1.0781c0.16406 0.054688 0.29688 0.14062 0.39062 0.26562s0.14062 0.28125 0.14062 0.46875c0 0.29297-0.10156 0.51172-0.29688 0.65625-0.19922 0.13672-0.49609 0.20312-0.89062 0.20312h-1.2656v-2.9688h1.1562c0.40625 0 0.70312 0.0625 0.89062 0.1875s0.28125 0.32422 0.28125 0.59375c0 0.14844-0.039063 0.27344-0.10938 0.375-0.0625 0.09375-0.16406 0.16797-0.29688 0.21875z"
         id="path1262" />
    </symbol>
    <symbol
       id="f"
       overflow="visible">
      <path
         d="m2.0781-2.1562v0.53125c-0.14844-0.0625-0.29297-0.10938-0.4375-0.14062-0.13672-0.03125-0.27344-0.046875-0.40625-0.046875-0.13672 0-0.23438 0.023438-0.29688 0.0625-0.0625 0.03125-0.09375 0.078125-0.09375 0.14062s0.019531 0.10938 0.0625 0.14062c0.050781 0.03125 0.14453 0.054688 0.28125 0.0625l0.125 0.015625c0.36328 0.054687 0.60938 0.13281 0.73438 0.23438 0.125 0.10547 0.1875 0.27344 0.1875 0.5 0 0.24219-0.089844 0.42188-0.26562 0.54688-0.17969 0.11328-0.4375 0.17188-0.78125 0.17188-0.14844 0-0.29688-0.015625-0.45312-0.046875-0.15625-0.019531-0.32031-0.050781-0.48438-0.09375v-0.54688c0.13281 0.074219 0.27344 0.125 0.42188 0.15625 0.15625 0.03125 0.3125 0.046875 0.46875 0.046875 0.13281 0 0.23828-0.015625 0.3125-0.046875 0.070313-0.039062 0.10938-0.097656 0.10938-0.17188 0-0.0625-0.027344-0.10938-0.078125-0.14062-0.054687-0.03125-0.15234-0.054688-0.29688-0.078125l-0.125-0.015625c-0.3125-0.039062-0.53125-0.11328-0.65625-0.21875-0.125-0.11328-0.1875-0.28125-0.1875-0.5 0-0.22656 0.078125-0.39844 0.23438-0.51562 0.16406-0.11328 0.41406-0.17188 0.75-0.17188 0.125 0 0.25781 0.011719 0.40625 0.03125 0.14453 0.023438 0.30078 0.054688 0.46875 0.09375z"
         id="path1265" />
    </symbol>
    <symbol
       id="t"
       overflow="visible">
      <path
         d="m1.8125-3.0938v0.46875h-0.39062c-0.10547 0-0.17969 0.023438-0.21875 0.0625-0.042969 0.03125-0.0625 0.089844-0.0625 0.17188v0.15625h0.60938v0.51562h-0.60938v1.7188h-0.70312v-1.7188h-0.35938v-0.51562h0.35938v-0.15625c0-0.23828 0.066406-0.41406 0.20312-0.53125 0.13281-0.11328 0.34375-0.17188 0.625-0.17188z"
         id="path1268" />
    </symbol>
    <symbol
       id="d"
       overflow="visible">
      <path
         d="m1.4062-1.7812c-0.15625 0-0.27734 0.058594-0.35938 0.17188-0.085937 0.11719-0.125 0.28125-0.125 0.5 0 0.21094 0.039063 0.37109 0.125 0.48438 0.082031 0.11719 0.20312 0.17188 0.35938 0.17188s0.27344-0.054687 0.35938-0.17188c0.082031-0.11328 0.125-0.27344 0.125-0.48438 0-0.21875-0.042969-0.38281-0.125-0.5-0.085937-0.11328-0.20312-0.17188-0.35938-0.17188zm0-0.5c0.38281 0 0.67969 0.10547 0.89062 0.3125 0.21875 0.21094 0.32812 0.49609 0.32812 0.85938 0 0.36719-0.10938 0.65234-0.32812 0.85938-0.21094 0.21094-0.50781 0.3125-0.89062 0.3125-0.38672 0-0.6875-0.10156-0.90625-0.3125-0.21875-0.20703-0.32812-0.49219-0.32812-0.85938 0-0.36328 0.10938-0.64844 0.32812-0.85938 0.21875-0.20703 0.51953-0.3125 0.90625-0.3125z"
         id="path1271" />
    </symbol>
    <symbol
       id="s"
       overflow="visible">
      <path
         d="m2.4062-1.8594c0.09375-0.13281 0.20312-0.23828 0.32812-0.3125 0.125-0.070313 0.25781-0.10938 0.40625-0.10938 0.25781 0 0.45312 0.078125 0.57812 0.23438 0.13281 0.15625 0.20312 0.38672 0.20312 0.6875v1.3594h-0.71875v-1.1562c0.007813-0.019531 0.015625-0.039062 0.015625-0.0625v-0.078125c0-0.15625-0.027344-0.26953-0.078125-0.34375-0.042969-0.070313-0.11719-0.10938-0.21875-0.10938-0.13672 0-0.24219 0.058594-0.3125 0.17188-0.074219 0.11719-0.11719 0.27734-0.125 0.48438v1.0938h-0.70312v-1.1562c0-0.25-0.027344-0.41016-0.078125-0.48438-0.042969-0.070313-0.11719-0.10938-0.21875-0.10938-0.13672 0-0.24219 0.058594-0.3125 0.17188-0.074219 0.11719-0.10938 0.27734-0.10938 0.48438v1.0938h-0.71875v-2.2344h0.71875v0.32812c0.082031-0.125 0.17969-0.21875 0.29688-0.28125 0.11328-0.0625 0.23828-0.09375 0.375-0.09375 0.15625 0 0.28906 0.039062 0.40625 0.10938 0.11328 0.074219 0.20312 0.17969 0.26562 0.3125z"
         id="path1274" />
    </symbol>
    <symbol
       id="r"
       overflow="visible">
      <path
         d="m2.5781-1.3594v1.3594h-0.70312v-1.0312c0-0.19531-0.007812-0.33203-0.015625-0.40625-0.011719-0.070312-0.027344-0.125-0.046875-0.15625-0.03125-0.050781-0.074219-0.085938-0.125-0.10938-0.042969-0.03125-0.09375-0.046875-0.15625-0.046875-0.14844 0-0.26172 0.058594-0.34375 0.17188-0.085938 0.11719-0.125 0.27734-0.125 0.48438v1.0938h-0.71875v-3.0938h0.71875v1.1875c0.10156-0.125 0.21094-0.21875 0.32812-0.28125 0.125-0.0625 0.25781-0.09375 0.40625-0.09375 0.25781 0 0.45312 0.078125 0.57812 0.23438 0.13281 0.15625 0.20312 0.38672 0.20312 0.6875z"
         id="path1277" />
    </symbol>
    <symbol
       id="q"
       overflow="visible">
      <path
         d="m0.375-2.9688h0.85938l1.0781 2.0312v-2.0312h0.71875v2.9688h-0.84375l-1.0938-2.0469v2.0469h-0.71875z"
         id="path1280" />
    </symbol>
    <symbol
       id="p"
       overflow="visible">
      <path
         d="m0.3125-0.875v-1.3594h0.71875v0.23438 0.45312 0.35938c0 0.17969 0.003906 0.30859 0.015625 0.39062 0.007813 0.074219 0.023437 0.13281 0.046875 0.17188 0.03125 0.042969 0.066406 0.078125 0.10938 0.10938 0.050781 0.023437 0.10938 0.03125 0.17188 0.03125 0.14453 0 0.25781-0.054687 0.34375-0.17188 0.082031-0.11328 0.125-0.26953 0.125-0.46875v-1.1094h0.71875v2.2344h-0.71875v-0.32812c-0.10547 0.13672-0.21875 0.23438-0.34375 0.29688-0.11719 0.0625-0.24609 0.09375-0.39062 0.09375-0.26172 0-0.46094-0.078125-0.59375-0.23438-0.13672-0.16406-0.20312-0.39844-0.20312-0.70312z"
         id="path1283" />
    </symbol>
    <symbol
       id="o"
       overflow="visible">
      <path
         d="m0.375-2.9688h1.2656c0.38281 0 0.67578 0.085938 0.875 0.25 0.20703 0.16797 0.3125 0.40625 0.3125 0.71875s-0.10547 0.55469-0.3125 0.71875c-0.19922 0.16797-0.49219 0.25-0.875 0.25h-0.5v1.0312h-0.76562zm0.76562 0.54688v0.82812h0.42188c0.14453 0 0.25781-0.03125 0.34375-0.09375 0.082031-0.070312 0.125-0.17578 0.125-0.3125 0-0.13281-0.042969-0.23828-0.125-0.3125-0.085938-0.070312-0.19922-0.10938-0.34375-0.10938z"
         id="path1286" />
    </symbol>
    <symbol
       id="n"
       overflow="visible">
      <path
         d="m0.34375-2.2344h0.71875v2.1875c0 0.30078-0.074219 0.53125-0.21875 0.6875-0.14844 0.15625-0.35547 0.23438-0.625 0.23438h-0.35938v-0.46875h0.125c0.13281 0 0.22656-0.03125 0.28125-0.09375 0.050781-0.054688 0.078125-0.17188 0.078125-0.35938zm0-0.85938h0.71875v0.57812h-0.71875z"
         id="path1289" />
    </symbol>
    <symbol
       id="m"
       overflow="visible">
      <path
         d="m2.1406-2.1562v0.57812c-0.09375-0.0625-0.19531-0.10938-0.29688-0.14062-0.09375-0.039062-0.19531-0.0625-0.29688-0.0625-0.19922 0-0.35547 0.0625-0.46875 0.1875-0.10547 0.11719-0.15625 0.27734-0.15625 0.48438 0 0.21094 0.050781 0.37109 0.15625 0.48438 0.11328 0.11719 0.26953 0.17188 0.46875 0.17188 0.11328 0 0.21875-0.015625 0.3125-0.046875 0.10156-0.03125 0.19531-0.082031 0.28125-0.15625v0.59375c-0.10547 0.042969-0.21484 0.070312-0.32812 0.09375-0.11719 0.019531-0.23438 0.03125-0.35938 0.03125-0.39844 0-0.71094-0.10156-0.9375-0.3125-0.23047-0.20703-0.34375-0.49219-0.34375-0.85938 0-0.375 0.11328-0.66016 0.34375-0.85938 0.22656-0.20703 0.53906-0.3125 0.9375-0.3125 0.125 0 0.23828 0.011719 0.34375 0.03125 0.11328 0.023438 0.22656 0.054688 0.34375 0.09375z"
         id="path1292" />
    </symbol>
  </defs>
  <path
     transform="matrix(.81617 0 0 .81617 237.24 0)"
     d="m118.34 165.38c4.5228 3.7571 10.898 4.3122 16 1.3927l55.231-31.669c4.8818-2.7998 7.8252-8.0645 7.6577-13.693"
     fill="none"
     stroke="#000"
     stroke-miterlimit="10"
     stroke-width="2"
     id="path1297" />
  <path
     transform="matrix(.81617 0 0 .81617 237.24 0)"
     d="m90.998 138.13 39.38 40.38c4.5037 4.5133 11.477 5.437 17 2.259l47.229-27.668h0.004786c6.107-3.5082 9.0217-10.74 7.0499-17.503l-4.5515-15.899"
     fill="none"
     stroke="#000"
     stroke-miterlimit="10"
     stroke-width="2"
     id="path1299" />
  <path
     transform="matrix(.81617 0 0 .81617 237.24 0)"
     d="m62.87 367.84c-5.0397 0-9.8736 2.0054-13.434 5.5662-3.5656 3.5656-5.5662 8.3948-5.5662 13.434v56.002c0 6.7866 3.623 13.061 9.5003 16.454 5.8773 3.3933 13.123 3.3933 19.001 0 5.8773-3.3933 9.5003-9.6678 9.5003-16.454v-56.002c0-5.0397-2.0006-9.8689-5.5662-13.434-3.5608-3.5608-8.3948-5.5662-13.434-5.5662z"
     fill="none"
     stroke="#000"
     stroke-miterlimit="10"
     stroke-width="2"
     id="path1301"
     style="fill:#f4a259;fill-opacity:1" />
  <path
     id="path1303"
     style="fill:#8cb369;fill-opacity:1;font-variation-settings:normal;opacity:1;vector-effect:none;stroke:#000000;stroke-width:2.17645333;stroke-linecap:butt;stroke-linejoin:miter;stroke-miterlimit:10;stroke-dasharray:none;stroke-dashoffset:0;stroke-opacity:1;-inkscape-stroke:none;stop-color:#000000;stop-opacity:1"
     d="M 416.42773 289.56836 C 416.16211 289.56275 415.90124 289.57538 415.64453 289.60742 C 416.01299 306.93623 416.649 334.00591 417.5293 338.58008 C 418.1554 341.71505 419.01561 344.4775 419.94336 347.04297 C 422.36401 339.34447 429.5156 336.39648 434.93555 336.39648 C 438.01958 336.39648 454.61339 336.73958 468.48828 337.04688 C 470.61326 337.09378 472.48763 335.67316 473.0293 333.62109 C 473.56579 331.56391 472.6237 329.40624 470.75391 328.40625 C 462.44094 323.96824 453.01435 318.70831 446.91016 314.64062 C 437.74688 308.53564 424.88855 289.74709 416.42773 289.56836 z "
     transform="scale(0.75)" />
  <path
     transform="matrix(.81617 0 0 .81617 237.24 0)"
     d="m5.61 228.57h-0.44032c-0.35896 0.019145-0.68919 0.18187-0.92371 0.44989-0.23452 0.27281-0.34938 0.62698-0.31588 0.98114l6.2219 138.5h0.69877c3.8384-16.55 6.1501-38.001 6.1501-61.348 0-32.689-4.5085-61.491-11.391-78.582z"
     fill="none"
     stroke="#000"
     stroke-miterlimit="10"
     stroke-width="2"
     id="path1305" />
  <path
     d="m197.24 121.41c-0.038288-1.2875-0.2393-2.5701-0.59826-3.8097l-3.6422-12.468 45.999-26.998 26.438-54.81-26.433 54.805-45.999 26.998 3.6422 12.482h-0.004786c0.35895 1.2396 0.55997 2.5223 0.59826 3.8097l50.761-28.286 26.548-56.648v-0.004786c0.91414-1.9431 1.0146-4.1734 0.27759-6.1884-0.74184-2.0149-2.2542-3.6566-4.207-4.5515l-52.618-24.61-196 112-20.001 107v0.89978c8.859 15.138 15 47.999 15 86.101 0 39.499-6.6 73.37-16 87.69v2.3117l14.392 259h-0.004786c0.42596 7.83 3.8384 15.201 9.5291 20.594 5.6954 5.3939 13.238 8.4043 21.083 8.4043l24.002-11.999 34-339s-8.0023-8.0023-10.998-23.002c-1.0003-5.1977-1.79-46.128-2.0006-56.581l-0.004786 0.004786c-0.019145-1.5028-0.47382-2.9674-1.297-4.2213-3.6996-5.7385-14.353-24.442-7.7008-45.2 8.0023-24.998 35-39.002 35-39.002l1.3401-0.75141c-0.33024-0.28238-0.66048-0.55997-1.0003-0.87106l-26.342-26.376s-29.999 5.0014-46.999 29.999c-17 24.998-16 69.001-16 69.001l8.1985 446.39-8.1985-446.39s-1.0003-43.998 16-69.001c17-24.998 46.999-29.999 46.999-29.999l26.381 26.381c0.31109 0.3111 0.63176 0.59826 1.0003 0.87106"
     fill="none"
     stroke="#000"
     stroke-miterlimit="10"
     stroke-width="2"
     id="path1307"
     transform="matrix(.81617 0 0 .81617 237.24 0)" />
</svg>
