<?xml version="1.0" encoding="UTF-8" standalone="no"?>
<svg
   width="700pt"
   height="604pt"
   version="1.1"
   viewBox="0 0 700 604"
   id="svg1656"
   sodipodi:docname="vive-controller.svg"
   inkscape:version="1.1.2 (1:1.1+202202050950+0a00cf5339)"
   inkscape:export-filename="/home/criuser/Documents/score/score-diving-4th-dim/documentation/image/vive-controller.png"
   inkscape:export-xdpi="102.85715"
   inkscape:export-ydpi="102.85715"
   xmlns:inkscape="http://www.inkscape.org/namespaces/inkscape"
   xmlns:sodipodi="http://sodipodi.sourceforge.net/DTD/sodipodi-0.dtd"
   xmlns="http://www.w3.org/2000/svg"
   xmlns:svg="http://www.w3.org/2000/svg">
  <sodipodi:namedview
     id="namedview1658"
     pagecolor="#ffffff"
     bordercolor="#666666"
     borderopacity="1.0"
     inkscape:pageshadow="2"
     inkscape:pageopacity="0.0"
     inkscape:pagecheckerboard="0"
     inkscape:document-units="pt"
     showgrid="false"
     inkscape:zoom="0.29404931"
     inkscape:cx="343.47981"
     inkscape:cy="324.77546"
     inkscape:window-width="1366"
     inkscape:window-height="704"
     inkscape:window-x="0"
     inkscape:window-y="27"
     inkscape:window-maximized="1"
     inkscape:current-layer="layer4"
     height="699pt"
     showguides="true"
     inkscape:guide-bbox="true">
    <sodipodi:guide
       position="208.81524,331.71231"
       orientation="1,0"
       id="guide65905" />
    <sodipodi:guide
       position="428.66916,312.3946"
       orientation="1,0"
       id="guide65907" />
    <sodipodi:guide
       position="193.83741,272.91531"
       orientation="1,0"
       id="guide65909" />
    <sodipodi:guide
       position="443.64701,254.45307"
       orientation="1,0"
       id="guide66015" />
  </sodipodi:namedview>
  <defs
     id="defs1542">
    <symbol
       id="w"
       overflow="visible">
      <path
         d="M 2.75,-0.15625 C 2.60156,-0.082031 2.45312,-0.03125 2.29688,0 2.14844,0.039062 1.99219,0.0625 1.82813,0.0625 c -0.5,0 -0.89844,-0.14062 -1.1875,-0.42188 -0.29297,-0.28125 -0.4375,-0.65625 -0.4375,-1.125 0,-0.47656 0.14453,-0.85156 0.4375,-1.125 0.28906,-0.28125 0.6875,-0.42188 1.1875,-0.42188 0.16406,0 0.32031,0.023438 0.46875,0.0625 0.15625,0.03125 0.30469,0.085938 0.45312,0.15625 v 0.60938 C 2.60156,-2.29688 2.45703,-2.36329 2.3125,-2.40625 2.17578,-2.457031 2.03516,-2.484375 1.89062,-2.484375 c -0.28125,0 -0.5,0.089844 -0.65625,0.26562 -0.15625,0.17969 -0.23438,0.42188 -0.23438,0.73438 0,0.30469 0.078125,0.54297 0.23438,0.71875 0.15625,0.17969 0.375,0.26562 0.65625,0.26562 0.14453,0 0.28516,-0.019531 0.42188,-0.0625 0.14453,-0.050781 0.28906,-0.125 0.4375,-0.21875 z"
         id="path1473" />
    </symbol>
    <symbol
       id="b"
       overflow="visible">
      <path
         d="M 2,-1.625 C 1.9375,-1.65625 1.875,-1.675781 1.8125,-1.6875 1.757812,-1.707031 1.70312,-1.71875 1.64062,-1.71875 c -0.1875,0 -0.33594,0.0625 -0.4375,0.1875 -0.09375,0.11719 -0.14062,0.28125 -0.14062,0.5 V -5e-5 H 0.34375 v -2.2344 H 1.0625 v 0.35938 c 0.09375,-0.14453 0.19531,-0.25 0.3125,-0.3125 0.125,-0.070312 0.26953,-0.10938 0.4375,-0.10938 0.019531,0 0.039062,0.00781 0.0625,0.015625 H 2 Z"
         id="path1476" />
    </symbol>
    <symbol
       id="a"
       overflow="visible">
      <path
         d="m 2.5781,-1.125 v 0.20312 H 0.9062 c 0.019531,0.16797 0.082031,0.29297 0.1875,0.375 0.10156,0.085937 0.24219,0.125 0.42188,0.125 0.15625,0 0.3125,-0.019531 0.46875,-0.0625 0.15625,-0.039063 0.31641,-0.10938 0.48438,-0.20312 v 0.54688 C 2.30074,-0.07812 2.13277,-0.03124 1.96871,0 1.80074,0.039062 1.62887,0.0625 1.45309,0.0625 1.04684,0.0625 0.72653,-0.03906 0.49997,-0.25 0.28122,-0.45703 0.17185,-0.75 0.17185,-1.125 c 0,-0.36328 0.10938,-0.64844 0.32812,-0.85938 0.22656,-0.20703 0.53516,-0.3125 0.92188,-0.3125 0.34375,0 0.61719,0.10938 0.82812,0.32812 0.21875,0.21094 0.32812,0.49219 0.32812,0.84375 z M 1.84372,-1.35938 c 0,-0.13281 -0.042969,-0.24219 -0.125,-0.32812 -0.074219,-0.082031 -0.17969,-0.125 -0.3125,-0.125 -0.13672,0 -0.24609,0.042969 -0.32812,0.125 -0.085937,0.074219 -0.14062,0.18359 -0.17188,0.32812 z"
         id="path1479" />
    </symbol>
    <symbol
       id="e"
       overflow="visible">
      <path
         d="m 1.3438,-1 c -0.14844,0 -0.26172,0.027344 -0.34375,0.078125 -0.074219,0.042969 -0.10938,0.11719 -0.10938,0.21875 0,0.085937 0.03125,0.15234 0.09375,0.20312 0.0625,0.054688 0.14453,0.078125 0.25,0.078125 0.13281,0 0.25,-0.046875 0.34375,-0.14062 0.09375,-0.093745 0.14062,-0.21094 0.14062,-0.35938 V -1.000005 Z M 2.4376,-1.28125 V -5e-5 H 1.71885 v -0.32812 c -0.09375,0.13672 -0.20312,0.23438 -0.32812,0.29688 -0.11719,0.0625 -0.26172,0.09375 -0.4375,0.09375 -0.23047,0 -0.41797,-0.066406 -0.5625,-0.20312 -0.14844,-0.13281 -0.21875,-0.3125 -0.21875,-0.53125 0,-0.25781 0.085937,-0.45312 0.26562,-0.57812 0.1875,-0.125 0.47266,-0.1875 0.85938,-0.1875 h 0.42188 v -0.046875 c 0,-0.11328 -0.046875,-0.19531 -0.14062,-0.25 C 1.492303,-1.785186 1.35949,-1.81253 1.17199,-1.81253 c -0.15625,0 -0.30469,0.015625 -0.4375,0.046875 -0.125,0.03125 -0.24609,0.074219 -0.35938,0.125 v -0.53125 c 0.15625,-0.039063 0.30469,-0.070313 0.45312,-0.09375 0.15625,-0.019531 0.3125,-0.03125 0.46875,-0.03125 0.40625,0 0.69531,0.085937 0.875,0.25 0.17578,0.15625 0.26562,0.41406 0.26562,0.76562 z"
         id="path1482" />
    </symbol>
    <symbol
       id="c"
       overflow="visible">
      <path
         d="m 1.125,-2.875 v 0.64062 h 0.73438 v 0.5 H 1.125 v 0.95312 c 0,0.10547 0.019531,0.17969 0.0625,0.21875 0.039062,0.03125 0.125,0.046875 0.25,0.046875 H 1.79688 V -1.5e-5 H 1.1875 c -0.28125,0 -0.48438,-0.054688 -0.60938,-0.17188 -0.11719,-0.125 -0.17188,-0.32812 -0.17188,-0.60938 v -0.95312 H 0.04686 v -0.5 h 0.35938 v -0.64062 z"
         id="path1485" />
    </symbol>
    <symbol
       id="l"
       overflow="visible">
      <path
         d="M 1.8594,-1.9062 V -3.1093 H 2.59378 V 1e-4 H 1.8594 v -0.32812 c -0.09375,0.13672 -0.20312,0.23438 -0.32812,0.29688 -0.11719,0.0625 -0.25,0.09375 -0.40625,0.09375 -0.27344,0 -0.49609,-0.10938 -0.67188,-0.32812 -0.17969,-0.21875 -0.26562,-0.50391 -0.26562,-0.85938 0,-0.34375 0.085938,-0.625 0.26562,-0.84375 0.17578,-0.21875 0.39844,-0.32812 0.67188,-0.32812 0.15625,0 0.28906,0.03125 0.40625,0.09375 0.125,0.0625 0.23438,0.16406 0.32812,0.29688 z m -0.46875,1.4375 c 0.15625,0 0.26953,-0.050781 0.34375,-0.15625 0.082031,-0.11328 0.125,-0.28125 0.125,-0.5 0,-0.20703 -0.042969,-0.36328 -0.125,-0.46875 -0.074219,-0.11328 -0.1875,-0.17188 -0.34375,-0.17188 -0.14844,0 -0.26172,0.058594 -0.34375,0.17188 -0.085937,0.10547 -0.125,0.26172 -0.125,0.46875 0,0.21875 0.039063,0.38672 0.125,0.5 0.082031,0.10547 0.19531,0.15625 0.34375,0.15625 z"
         id="path1488" />
    </symbol>
    <symbol
       id="k"
       overflow="visible">
      <path
         d="m 1.5312,-0.46875 c 0.15625,0 0.26953,-0.050781 0.34375,-0.15625 0.082031,-0.11328 0.125,-0.28125 0.125,-0.5 0,-0.20703 -0.042969,-0.36328 -0.125,-0.46875 -0.074219,-0.11328 -0.1875,-0.17188 -0.34375,-0.17188 -0.14844,0 -0.26172,0.058594 -0.34375,0.17188 -0.085938,0.10547 -0.125,0.26172 -0.125,0.46875 0,0.21875 0.039062,0.38672 0.125,0.5 0.082031,0.10547 0.19531,0.15625 0.34375,0.15625 z m -0.46875,-1.4375 c 0.09375,-0.13281 0.19531,-0.23438 0.3125,-0.29688 0.125,-0.0625 0.26562,-0.09375 0.42188,-0.09375 0.28125,0 0.50781,0.10938 0.6875,0.32812 0.17578,0.21875 0.26562,0.5 0.26562,0.84375 0,0.35547 -0.089844,0.64062 -0.26562,0.85938 -0.17969,0.21875 -0.40625,0.32812 -0.6875,0.32812 -0.15625,0 -0.29688,-0.03125 -0.42188,-0.09375 C 1.25776,-0.09376 1.1562,-0.19142 1.06245,-0.32814 V -2e-5 H 0.3437 v -3.1094 h 0.71875 z"
         id="path1491" />
    </symbol>
    <symbol
       id="j"
       overflow="visible">
      <path
         d="m 0.046875,-2.2344 h 0.71875 l 0.60938,1.5156 0.5,-1.5156 h 0.71875 l -0.9375,2.4531 c -0.09375,0.23828 -0.20312,0.41016 -0.32812,0.51562 -0.125,0.10156 -0.29297,0.15625 -0.5,0.15625 H 0.406255 V 0.40619 h 0.23438 c 0.11328,0 0.19531,-0.023438 0.25,-0.0625 0.0625,-0.03125 0.10938,-0.10156 0.14062,-0.20312 L 1.04688,0.093695 Z"
         id="path1494" />
    </symbol>
    <symbol
       id="i"
       overflow="visible">
      <path
         d="m 0.375,-2.9844 h 0.76562 v 1.0938 l 1.1094,-1.0938 h 0.89062 l -1.4219,1.4062 1.5781,1.5781 H 2.32809 L 1.14059,-1.172 V -1e-4 H 0.37497 Z"
         id="path1497" />
    </symbol>
    <symbol
       id="v"
       overflow="visible">
      <path
         d="m 0.0625,-2.2344 h 0.71875 l 0.54688,1.5469 0.5625,-1.5469 H 2.60938 L 1.73438,0 H 0.9375 Z"
         id="path1500" />
    </symbol>
    <symbol
       id="h"
       overflow="visible">
      <path
         d="M 0.34375,-2.2344 H 1.0625 V 0 H 0.34375 Z m 0,-0.875 H 1.0625 v 0.57812 H 0.34375 Z"
         id="path1503" />
    </symbol>
    <symbol
       id="g"
       overflow="visible">
      <path
         d="M 2.5938,-1.3594 V 0 H 1.87505 v -1.0469 c 0,-0.1875 -0.00781,-0.31641 -0.015625,-0.39062 C 1.847706,-1.507832 1.832081,-1.56643 1.81255,-1.6094 1.789112,-1.648463 1.753956,-1.679713 1.70317,-1.70315 1.648483,-1.7344 1.5977,-1.750025 1.54692,-1.750025 c -0.15625,0 -0.27734,0.058594 -0.35938,0.17188 -0.085938,0.11719 -0.125,0.27734 -0.125,0.48438 V 3.5e-5 H 0.34379 v -2.2344 h 0.71875 v 0.32812 c 0.10156,-0.13281 0.21094,-0.23438 0.32812,-0.29688 0.125,-0.0625 0.26562,-0.09375 0.42188,-0.09375 0.25,0 0.44141,0.085937 0.57812,0.25 0.13281,0.15625 0.20312,0.38672 0.20312,0.6875 z"
         id="path1506" />
    </symbol>
    <symbol
       id="u"
       overflow="visible">
      <path
         d="m 1.5781,-1.8281 c 0.11328,0 0.20312,-0.023437 0.26562,-0.078125 0.0625,-0.050781 0.09375,-0.12891 0.09375,-0.23438 0,-0.10156 -0.03125,-0.17969 -0.09375,-0.23438 C 1.78122,-2.425766 1.69138,-2.45311 1.5781,-2.45311 H 1.1406 v 0.625 z m 0.015625,1.2969 c 0.15625,0 0.26953,-0.03125 0.34375,-0.09375 0.082031,-0.0625 0.125,-0.16016 0.125,-0.29688 0,-0.125 -0.042969,-0.21875 -0.125,-0.28125 -0.074219,-0.070313 -0.1875,-0.10938 -0.34375,-0.10938 h -0.45312 v 0.78125 z m 0.71875,-1.0625 c 0.16406,0.042969 0.28906,0.13281 0.375,0.26562 0.09375,0.125 0.14062,0.28125 0.14062,0.46875 0,0.29297 -0.10156,0.51172 -0.29688,0.65625 -0.1875,0.13672 -0.48047,0.20312 -0.875,0.20312 h -1.2812 v -2.9844 h 1.1562 c 0.41406,0 0.71094,0.0625 0.89062,0.1875 0.1875,0.125 0.28125,0.32812 0.28125,0.60938 0,0.13672 -0.039063,0.25781 -0.10938,0.35938 -0.0625,0.10547 -0.15625,0.18359 -0.28125,0.23438 z"
         id="path1509" />
    </symbol>
    <symbol
       id="f"
       overflow="visible">
      <path
         d="m 2.0938,-2.1719 v 0.54688 C 1.93755,-1.68752 1.78521,-1.7344 1.64068,-1.76564 1.50396,-1.79689 1.37506,-1.812515 1.25006,-1.812515 c -0.13672,0 -0.24219,0.015625 -0.3125,0.046875 -0.0625,0.03125 -0.09375,0.085937 -0.09375,0.15625 0,0.0625 0.023438,0.10938 0.078125,0.14062 0.050781,0.023438 0.14062,0.042969 0.26562,0.0625 l 0.125,0.015625 c 0.36328,0.042969 0.60938,0.12109 0.73438,0.23438 0.13281,0.10547 0.20312,0.27344 0.20312,0.5 0,0.24219 -0.089844,0.42188 -0.26562,0.54688 -0.17969,0.11328 -0.44531,0.17188 -0.79688,0.17188 -0.14844,0 -0.29688,-0.015625 -0.45312,-0.046875 -0.15625,-0.019531 -0.32031,-0.050781 -0.48438,-0.09375 v -0.54688 c 0.13281,0.074219 0.27344,0.125 0.42188,0.15625 0.15625,0.03125 0.3125,0.046875 0.46875,0.046875 0.13281,0 0.23828,-0.015625 0.3125,-0.046875 0.070313,-0.039062 0.10938,-0.097656 0.10938,-0.17188 0,-0.070313 -0.027344,-0.125 -0.078125,-0.15625 -0.042969,-0.03125 -0.13672,-0.050781 -0.28125,-0.0625 l -0.125,-0.015625 c -0.32422,-0.039062 -0.54688,-0.11328 -0.67188,-0.21875 -0.125,-0.11328 -0.1875,-0.28125 -0.1875,-0.5 0,-0.23828 0.078125,-0.41406 0.23438,-0.53125 0.16406,-0.11328 0.41406,-0.17188 0.75,-0.17188 0.13281,0 0.27344,0.011719 0.42188,0.03125 0.14453,0.023437 0.30078,0.054687 0.46875,0.09375 z"
         id="path1512" />
    </symbol>
    <symbol
       id="t"
       overflow="visible">
      <path
         d="m 1.8125,-3.1094 v 0.46875 H 1.42188 c -0.10547,0 -0.17969,0.023437 -0.21875,0.0625 -0.03125,0.03125 -0.046875,0.09375 -0.046875,0.1875 v 0.15625 h 0.60938 v 0.5 H 1.156255 V 0 h -0.71875 v -1.7344 h -0.35938 v -0.5 h 0.35938 v -0.15625 c 0,-0.25 0.066406,-0.42969 0.20312,-0.54688 0.13281,-0.11328 0.34375,-0.17188 0.625,-0.17188 z"
         id="path1515" />
    </symbol>
    <symbol
       id="d"
       overflow="visible">
      <path
         d="m 1.4062,-1.7812 c -0.15625,0 -0.27734,0.058594 -0.35938,0.17188 -0.085937,0.11719 -0.125,0.27734 -0.125,0.48438 0,0.21875 0.039063,0.38672 0.125,0.5 0.082031,0.11719 0.20312,0.17188 0.35938,0.17188 0.15626,0 0.27344,-0.054687 0.35938,-0.17188 0.082031,-0.11328 0.125,-0.28125 0.125,-0.5 0,-0.20703 -0.042969,-0.36719 -0.125,-0.48438 C 1.679643,-1.7226 1.56246,-1.7812 1.4062,-1.7812 Z m 0,-0.51562 c 0.38281,0 0.6875,0.10547 0.90625,0.3125 0.21875,0.21094 0.32812,0.49609 0.32812,0.85938 0,0.375 -0.10938,0.66797 -0.32812,0.875 -0.21875,0.21094 -0.52344,0.3125 -0.90625,0.3125 -0.38672,0 -0.6875,-0.10156 -0.90625,-0.3125 -0.21875,-0.20703 -0.32812,-0.5 -0.32812,-0.875 0,-0.36328 0.10938,-0.64844 0.32812,-0.85938 0.21875,-0.20703 0.51953,-0.3125 0.90625,-0.3125 z"
         id="path1518" />
    </symbol>
    <symbol
       id="s"
       overflow="visible">
      <path
         d="m 2.4219,-1.8594 c 0.082031,-0.14453 0.1875,-0.25391 0.3125,-0.32812 0.125,-0.070312 0.26562,-0.10938 0.42188,-0.10938 0.25,0 0.44141,0.085937 0.57812,0.25 0.13281,0.15625 0.20312,0.38672 0.20312,0.6875 V 0 H 3.21877 V -1.1719 -1.218775 -1.2969 c 0,-0.16406 -0.023438,-0.28125 -0.0625,-0.34375 -0.042969,-0.070313 -0.11719,-0.10938 -0.21875,-0.10938 -0.14844,0 -0.25781,0.058594 -0.32812,0.17188 -0.074219,0.10547 -0.10938,0.26562 -0.10938,0.48438 V 3e-5 H 1.78127 v -1.1719 c 0,-0.25 -0.023438,-0.40625 -0.0625,-0.46875 C 1.675801,-1.710933 1.59768,-1.75 1.48439,-1.75 1.34767,-1.75 1.2422,-1.691406 1.17189,-1.57812 1.097671,-1.47265 1.06251,-1.3125 1.06251,-1.09374 V 6e-5 H 0.34376 v -2.2344 h 0.71875 v 0.32812 c 0.082031,-0.125 0.17969,-0.21875 0.29688,-0.28125 0.11328,-0.070312 0.23828,-0.10938 0.375,-0.10938 0.15625,0 0.28906,0.042969 0.40625,0.125 0.125,0.074219 0.21875,0.17969 0.28125,0.3125 z"
         id="path1521" />
    </symbol>
    <symbol
       id="r"
       overflow="visible">
      <path
         d="M 2.5938,-1.3594 V 0 H 1.87505 v -1.0469 c 0,-0.1875 -0.00781,-0.31641 -0.015625,-0.39062 C 1.847706,-1.507832 1.832081,-1.56643 1.81255,-1.6094 1.789112,-1.648463 1.753956,-1.679713 1.70317,-1.70315 1.648483,-1.7344 1.5977,-1.750025 1.54692,-1.750025 c -0.15625,0 -0.27734,0.058594 -0.35938,0.17188 -0.085938,0.11719 -0.125,0.27734 -0.125,0.48438 V 3.5e-5 H 0.34379 v -3.1094 h 0.71875 v 1.2031 c 0.10156,-0.13281 0.21094,-0.23438 0.32812,-0.29688 0.125,-0.0625 0.26562,-0.09375 0.42188,-0.09375 0.25,0 0.44141,0.085937 0.57812,0.25 0.13281,0.15625 0.20312,0.38672 0.20312,0.6875 z"
         id="path1524" />
    </symbol>
    <symbol
       id="q"
       overflow="visible">
      <path
         d="m 0.375,-2.9844 h 0.85938 l 1.0938,2.0469 V -2.9844 H 3.04693 V 0 H 2.18755 L 1.10945,-2.0469 V 0 H 0.37507 Z"
         id="path1527" />
    </symbol>
    <symbol
       id="p"
       overflow="visible">
      <path
         d="m 0.3125,-0.875 v -1.3594 h 0.73438 v 0.21875 c 0,0.125 -0.00781,0.28125 -0.015625,0.46875 v 0.35938 c 0,0.17969 0.00391,0.30859 0.015625,0.39062 0.00781,0.074219 0.023437,0.13281 0.046875,0.17188 0.03125,0.042969 0.066406,0.078125 0.10938,0.10938 0.050781,0.023437 0.10938,0.03125 0.17188,0.03125 0.14453,0 0.25781,-0.054687 0.34375,-0.17188 0.09375,-0.11328 0.14062,-0.27344 0.14062,-0.48438 v -1.0938 h 0.71875 V -5e-5 h -0.71875 v -0.32812 c -0.11719,0.13672 -0.23438,0.23438 -0.35938,0.29688 -0.11719,0.0625 -0.24609,0.09375 -0.39062,0.09375 -0.26172,0 -0.46094,-0.078125 -0.59375,-0.23438 -0.13672,-0.16406 -0.20312,-0.39844 -0.20312,-0.70312 z"
         id="path1530" />
    </symbol>
    <symbol
       id="o"
       overflow="visible">
      <path
         d="m 0.375,-2.9844 h 1.2812 c 0.375,0 0.66016,0.085937 0.85938,0.25 0.20703,0.16797 0.3125,0.40625 0.3125,0.71875 0,0.3125 -0.10547,0.55859 -0.3125,0.73438 -0.19922,0.16797 -0.48438,0.25 -0.85938,0.25 H 1.14058 V -7e-5 H 0.37496 Z m 0.76562,0.5625 v 0.82812 h 0.4375 c 0.14453,0 0.25391,-0.035156 0.32812,-0.10938 0.082031,-0.070313 0.125,-0.17578 0.125,-0.3125 0,-0.125 -0.042969,-0.22266 -0.125,-0.29688 C 1.832021,-2.382852 1.72265,-2.42192 1.57812,-2.42192 Z"
         id="path1533" />
    </symbol>
    <symbol
       id="n"
       overflow="visible">
      <path
         d="M 0.34375,-2.2344 H 1.0625 v 2.1875 c 0,0.30078 -0.074219,0.53125 -0.21875,0.6875 -0.14844,0.16406 -0.35547,0.25 -0.625,0.25 H -0.14063 V 0.40622 h 0.125 c 0.13281,0 0.22656,-0.03125 0.28125,-0.09375 0.050781,-0.054688 0.078125,-0.17188 0.078125,-0.35938 z m 0,-0.875 H 1.0625 v 0.57812 H 0.34375 Z"
         id="path1536" />
    </symbol>
    <symbol
       id="m"
       overflow="visible">
      <path
         d="m 2.1562,-2.1719 v 0.59375 C 2.05073,-1.648463 1.95308,-1.70315 1.85932,-1.7344 1.76556,-1.76565 1.66401,-1.781275 1.56244,-1.781275 c -0.21094,0 -0.37109,0.058594 -0.48438,0.17188 -0.10547,0.11719 -0.15625,0.27734 -0.15625,0.48438 0,0.21875 0.050781,0.38672 0.15625,0.5 0.11328,0.11719 0.27344,0.17188 0.48438,0.17188 0.10156,0 0.20703,-0.015625 0.3125,-0.046875 0.10156,-0.03125 0.19531,-0.082031 0.28125,-0.15625 v 0.59375 C 2.039,-0.019541 1.92572,0.007802 1.81244,0.03124 1.69525,0.050771 1.58197,0.06249 1.46869,0.06249 c -0.40625,0 -0.72656,-0.10156 -0.95312,-0.3125 -0.23047,-0.20703 -0.34375,-0.5 -0.34375,-0.875 0,-0.36328 0.11328,-0.64844 0.34375,-0.85938 0.22656,-0.20703 0.54688,-0.3125 0.95312,-0.3125 0.11328,0 0.22656,0.011719 0.34375,0.03125 0.11328,0.023437 0.22656,0.054687 0.34375,0.09375 z"
         id="path1539" />
    </symbol>
  </defs>
  <g
     inkscape:groupmode="layer"
     id="layer1"
     inkscape:label="palette"
     style="display:inline"
     sodipodi:insensitive="true">
    <g
       id="g984"
       transform="matrix(0.75,0,0,0.75,20.935453,-273.70955)">
      <rect
         fill="#011627"
         x="0"
         y="0"
         width="55.555557"
         height="220"
         id="rect945" />
      <rect
         fill="#213442"
         x="55.555557"
         y="0"
         width="55.555557"
         height="220"
         id="rect947" />
      <rect
         fill="#40515d"
         x="111.11111"
         y="0"
         width="55.555557"
         height="220"
         id="rect949" />
      <rect
         fill="#7f8b92"
         x="166.66667"
         y="0"
         width="55.555557"
         height="220"
         id="rect951" />
      <rect
         fill="#bec5c7"
         x="222.22223"
         y="0"
         width="55.555557"
         height="220"
         id="rect953" />
      <rect
         fill="#fdfffc"
         x="277.77777"
         y="0"
         width="55.555557"
         height="220"
         id="rect955" />
      <rect
         fill="#2ec4b6"
         x="333.33334"
         y="73.333321"
         width="55.555565"
         height="73.333351"
         id="rect957"
         style="stroke-width:0.548394" />
      <rect
         fill="#e71d36"
         x="388.88889"
         y="0"
         width="55.555557"
         height="220"
         id="rect959" />
      <rect
         fill="#ff9f1c"
         x="444.44446"
         y="0"
         width="55.555557"
         height="220"
         id="rect961" />
      <text
         x="10"
         y="235"
         font-family="Arial"
         font-size="6px"
         alignment-baseline="middle"
         id="text963">Exported from Coolors.co</text>
      <text
         x="490"
         y="235"
         font-family="Arial"
         font-size="6px"
         alignment-baseline="middle"
         text-anchor="end"
         id="text965">https://coolors.co/011627-213442-40515d-7f8b92-bec5c7-fdfffc-2ec4b6-e71d36-ff9f1c</text>
      <rect
         fill="#2ec4b6"
         x="333.33334"
         y="146.66667"
         width="55.555573"
         height="73.333328"
         id="rect13097"
         style="fill:#3fe2b8;fill-opacity:1;stroke-width:0.499615" />
      <rect
         fill="#2ec4b6"
         x="333.33331"
         y="0"
         width="55.555595"
         height="73.333321"
         id="rect13099"
         style="fill:#238c93;fill-opacity:1;stroke-width:0.642844" />
    </g>
  </g>
  <g
     inkscape:groupmode="layer"
     id="layer2"
     inkscape:label="front"
     style="display:inline">
    <path
       d="m 620.50693,65.654137 c 0,24.702675 -42.17927,44.726133 -94.20685,44.726133 -52.02758,0 -94.20685,-20.023458 -94.20685,-44.726133 0,-24.702674 42.17927,-44.726136 94.20685,-44.726136 52.02758,0 94.20685,20.023462 94.20685,44.726136"
       fill="none"
       stroke="#000000"
       stroke-miterlimit="10"
       stroke-width="2"
       id="path1544"
       style="stroke:#213442;stroke-opacity:1" />
    <path
       d="m 607.39989,65.654137 c 0,-21.300578 -36.30486,-38.503568 -81.10145,-38.503568 -44.79249,0 -81.10145,17.20299 -81.10145,38.503568 0,11.183582 10.04327,21.249789 26.08219,28.284992 4.48826,-12.50002 27.4101,-22.019827 55.01516,-22.019827 27.60507,0 50.52682,9.519807 55.01517,22.019827 16.04711,-7.042986 26.08956,-17.10141 26.08956,-28.284992 z"
       fill="none"
       stroke="#000000"
       stroke-miterlimit="10"
       stroke-width="2"
       id="path1546"
       style="stroke:#213442;stroke-opacity:1" />
    <path
       d="m 526.30008,71.91193 c -27.61326,0 -50.52682,9.519807 -55.01516,22.019827 14.45706,6.339793 33.78503,10.214483 55.01516,10.214483 21.23422,0 40.56629,-3.87502 55.01516,-10.214483 -4.48826,-12.50002 -27.4019,-22.019827 -55.01516,-22.019827 z"
       fill="none"
       stroke="#000000"
       stroke-miterlimit="10"
       stroke-width="2"
       id="path1548"
       style="stroke:#213442;stroke-opacity:1" />
    <path
       d="m 607.39989,65.654137 c 0,-21.300578 -36.30486,-38.503568 -81.10145,-38.503568 -44.79249,0 -81.10145,17.20299 -81.10145,38.503568 0,12.835888 13.23811,24.207065 33.58597,31.202947 1.69532,-11.76193 22.31638,-21.054821 47.51138,-21.054821 25.19911,0 45.82386,9.288795 47.51139,21.054821 20.36342,-7.00391 33.59334,-18.367059 33.59334,-31.202947 z"
       fill="none"
       stroke="#000000"
       stroke-miterlimit="10"
       stroke-width="2"
       id="path1550"
       style="stroke:#213442;stroke-opacity:1" />
    <path
       d="m 526.30008,75.813731 c -25.2073,0 -45.82385,9.288796 -47.51138,21.054822 13.35116,4.593767 29.76936,7.300787 47.51138,7.300787 17.74202,0 34.16759,-2.71095 47.51138,-7.300787 -1.68753,-11.784867 -22.3049,-21.054822 -47.51138,-21.054822 z"
       fill="none"
       stroke="#000000"
       stroke-miterlimit="10"
       stroke-width="2"
       id="path1552"
       style="stroke:#213442;stroke-opacity:1" />
    <path
       d="m 539.43169,181.06982 c 0,7.24999 -5.87891,13.12915 -13.13243,13.12915 -7.25352,0 -13.13243,-5.87891 -13.13243,-13.12915 0,-7.25385 5.87891,-13.13244 13.13243,-13.13244 7.25352,0 13.13243,5.87892 13.13243,13.13244"
       fill="none"
       stroke="#000000"
       stroke-miterlimit="10"
       stroke-width="2"
       id="path1554"
       style="stroke:#213442;stroke-opacity:1" />
    <path
       d="m 539.43169,356.34371 c 0,7.24999 -5.87891,13.13243 -13.13243,13.13243 -7.25352,0 -13.13243,-5.88276 -13.13243,-13.13243 0,-7.25385 5.87891,-13.13244 13.13243,-13.13244 7.25352,0 13.13243,5.87892 13.13243,13.13244"
       fill="none"
       stroke="#000000"
       stroke-miterlimit="10"
       stroke-width="2"
       id="path1556"
       style="stroke:#213442;stroke-opacity:1" />
    <path
       id="path1558"
       d="m 526.30023,255.46874 -37.4442,-37.44421 c -20.67766,20.67767 -20.67998,54.20844 0,74.88841 z"
       style="font-variation-settings:normal;opacity:1;vector-effect:none;fill:#238c93;fill-opacity:1;stroke:#213442;stroke-width:1.63838;stroke-linecap:butt;stroke-linejoin:miter;stroke-miterlimit:10;stroke-dasharray:none;stroke-dashoffset:0;stroke-opacity:1;-inkscape-stroke:none;stop-color:#000000;stop-opacity:1" />
    <path
       id="path17524"
       d="m 563.7434,218.02557 c -20.67998,-20.67997 -54.2074,-20.68101 -74.88737,-10e-4 l 37.4442,37.44421 z"
       style="font-variation-settings:normal;opacity:1;vector-effect:none;fill:#2ec4b6;fill-opacity:1;stroke:#213442;stroke-width:1.63838;stroke-linecap:butt;stroke-linejoin:miter;stroke-miterlimit:10;stroke-dasharray:none;stroke-dashoffset:0;stroke-opacity:1;-inkscape-stroke:none;stop-color:#000000;stop-opacity:1" />
    <path
       id="path17193"
       d="m 563.7434,292.91191 -37.44317,-37.44317 -37.4442,37.4442 c 20.67997,20.67998 54.21029,20.67605 74.88737,-10e-4 z"
       style="font-variation-settings:normal;opacity:1;vector-effect:none;fill:none;fill-opacity:1;stroke:#213442;stroke-width:1.63838;stroke-linecap:butt;stroke-linejoin:miter;stroke-miterlimit:10;stroke-dasharray:none;stroke-dashoffset:0;stroke-opacity:1;-inkscape-stroke:none;stop-color:#000000;stop-opacity:1" />
    <path
       id="path17521"
       d="m 563.7434,218.02557 -37.44317,37.44317 37.44317,37.44317 c 20.67997,-20.67997 20.67997,-54.20636 0,-74.88634 z"
       style="font-variation-settings:normal;opacity:1;vector-effect:none;fill:#238c93;fill-opacity:1;stroke:#213442;stroke-width:1.63838;stroke-linecap:butt;stroke-linejoin:miter;stroke-miterlimit:10;stroke-dasharray:none;stroke-dashoffset:0;stroke-opacity:1;-inkscape-stroke:none;stop-color:#000000;stop-opacity:1" />
    <path
       d="m 522.85188,178.77717 h 6.8906 v 0.76172 h -6.8906 v -0.76172 m 0,1.918 h 6.8906 v 0.79687 h -6.8906 v -0.82031 m 0,1.918 h 6.8906 v 0.76172 h -6.8906 z"
       id="path1560"
       style="stroke:none;stroke-opacity:1;fill:#213442;fill-opacity:1" />
    <path
       d="m 526.30188,358.29717 3.2188,-2.5078 0.72266,-0.55859 -3.9414,-3.0625 -3.9414,3.0625 0.71094,0.55859 m 3.2266,3.6211 -3.2266,-2.5078 -0.71094,0.55078 3.9414,3.0625 3.9414,-3.0625 -0.71094,-0.55859 z"
       id="path1562"
       style="stroke:none;stroke-opacity:1;fill:#213442;fill-opacity:1" />
    <path
       d="m 528.48732,377.78191 c 0,2.91796 -4.37497,2.91796 -4.37497,0 0,-2.91795 4.37497,-2.91795 4.37497,0"
       fill="none"
       stroke="#000000"
       stroke-miterlimit="10"
       stroke-width="2"
       id="path1564"
       style="stroke:#213442;stroke-opacity:1" />
    <path
       d="m 582.97164,255.2147 c 0,-20.24628 -10.80102,-38.95658 -28.33578,-49.08177 -17.53476,-10.12109 -39.1368,-10.12109 -56.67156,0 -17.53476,10.12519 -28.33578,28.83549 -28.33578,49.08177 v 24.94516 0.22265 -0.004 c 0,20.24628 10.80102,38.95658 28.33578,49.07767 17.53476,10.12519 39.1368,10.12519 56.67156,0 17.53476,-10.12109 28.33578,-28.83221 28.33578,-49.07767 v -0.22266 z"
       fill="none"
       stroke="#000000"
       stroke-miterlimit="10"
       stroke-width="2"
       id="path1566"
       style="stroke:#213442;stroke-opacity:1" />
    <path
       d="m 442.60507,45.036763 c 0,0 -63.39056,57.956877 -69.9023,84.925427 -2.86716,11.87907 3.27734,21.30058 10.23824,24.16774 9.83192,4.09767 22.11731,-21.30057 30.30839,-21.70689 8.19141,-0.41015 32.76924,20.89016 35.6364,24.98447 2.86717,4.09767 11.05825,23.75815 11.87908,32.76924 0.64844,7.1367 14.66432,247.13324 20.48057,346.59929 v -0.008 c 0.66797,11.49569 5.70705,22.30081 14.08597,30.20681 8.37458,7.90232 19.45331,12.30505 30.96866,12.30833"
       fill="none"
       stroke="#000000"
       stroke-miterlimit="10"
       stroke-width="2"
       id="path1568"
       style="stroke:#213442;stroke-opacity:1" />
    <path
       d="m 429.63648,140.61002 c -8.19141,0.41015 -20.48057,25.80449 -30.30839,21.7069 l -14.89452,-7.79689"
       fill="none"
       stroke="#000000"
       stroke-miterlimit="10"
       stroke-width="2"
       id="path1570"
       style="stroke:#213442;stroke-opacity:1" />
    <path
       d="m 609.99672,45.036763 c 0,0 63.39793,57.956877 69.9023,84.925427 2.86717,11.87907 -3.27733,21.30058 -10.23823,24.16774 -9.83192,4.09767 -22.11731,-21.30057 -30.30839,-21.70689 -8.19141,-0.41015 -32.76924,20.89016 -35.63641,24.98447 -2.86716,4.09767 -11.05824,23.75815 -11.87907,32.76924 -0.64844,7.1367 -14.66432,247.13324 -20.48057,346.59929 v -0.008 c -0.66797,11.49569 -5.70705,22.30081 -14.08597,30.20681 -8.37458,7.90232 -19.45331,12.30505 -30.96866,12.30833"
       fill="none"
       stroke="#000000"
       stroke-miterlimit="10"
       stroke-width="2"
       id="path1572"
       style="stroke:#213442;stroke-opacity:1" />
    <path
       d="m 622.9645,140.61002 c 8.19141,0.41015 20.48057,25.80449 30.30839,21.7069 l 14.89451,-7.79689"
       fill="none"
       stroke="#000000"
       stroke-miterlimit="10"
       stroke-width="2"
       id="path1574"
       style="stroke:#213442;stroke-opacity:1" />
  </g>
  <g
     inkscape:groupmode="layer"
     id="layer3"
     inkscape:label="side"
     style="display:inline">
    <path
       d="m 152.44582,155.18156 c 3.69137,3.06643 8.89462,3.51949 13.05872,1.13668 l 45.07788,-25.84729 c 3.98438,-2.28511 6.3867,-6.582 6.24999,-11.17581"
       fill="none"
       stroke="#000000"
       stroke-miterlimit="10"
       stroke-width="1.63234"
       id="path1297"
       style="stroke:#213442;stroke-opacity:1" />
    <path
       d="m 130.1301,132.94093 32.14077,32.95694 c 3.67579,3.68362 9.36719,4.43752 13.87489,1.84373 l 38.5469,-22.58179 h 0.004 c 4.98435,-2.86329 7.36324,-8.76567 5.75391,-14.28543 l -3.71479,-12.97628"
       fill="none"
       stroke="#000000"
       stroke-miterlimit="10"
       stroke-width="1.63234"
       id="path1299"
       style="stroke:#213442;stroke-opacity:1" />
    <path
       d="m 107.17287,320.42334 c -4.11325,0 -8.05854,1.63675 -10.96443,4.54296 -2.91014,2.91014 -4.54297,6.85159 -4.54297,10.96443 v 45.70715 c 0,5.53902 2.95699,10.66 7.75386,13.42926 4.79688,2.76951 10.7106,2.76951 15.50805,0 4.79688,-2.76951 7.75386,-7.89056 7.75386,-13.42926 v -45.70715 c 0,-4.11325 -1.63283,-8.0547 -4.54296,-10.96443 -2.90622,-2.90621 -6.85159,-4.54296 -10.96443,-4.54296 z"
       fill="none"
       stroke="#000000"
       stroke-miterlimit="10"
       stroke-width="1.63234"
       id="path1301"
       style="fill:#ff9f1c;fill-opacity:1;stroke:#213442;stroke-opacity:1" />
    <path
       id="path1303"
       style="font-variation-settings:normal;vector-effect:none;fill:#e71d36;fill-opacity:1;stroke:#213442;stroke-width:1.63234;stroke-linecap:butt;stroke-linejoin:miter;stroke-miterlimit:10;stroke-dasharray:none;stroke-dashoffset:0;stroke-opacity:1;-inkscape-stroke:none;stop-color:#000000"
       d="m 130.94106,237.37963 c -0.19922,-0.005 -0.39487,0.005 -0.5874,0.0293 0.27634,12.99661 0.75335,33.29887 1.41357,36.72949 0.46958,2.35123 1.11474,4.42307 1.81055,6.34717 1.81549,-5.77387 7.17918,-7.98487 11.24414,-7.98487 2.31302,0 14.75838,0.25733 25.16455,0.4878 1.59373,0.0352 2.99951,-1.03029 3.40576,-2.56934 0.40237,-1.54288 -0.3042,-3.16114 -1.70654,-3.91113 -6.23473,-3.32851 -13.30467,-7.27345 -17.88281,-10.32422 -6.87246,-4.57874 -16.51621,-18.67015 -22.86182,-18.8042 z" />
    <path
       d="M 60.43897,206.75534 H 60.0796 c -0.29297,0.0156 -0.5625,0.14844 -0.75391,0.36719 -0.1914,0.22266 -0.28515,0.51172 -0.25781,0.80078 l 5.07813,113.03954 h 0.57031 c 3.13279,-13.50761 5.01953,-31.01528 5.01953,-50.0704 0,-26.67978 -3.6797,-50.18711 -9.29699,-64.13627 z"
       fill="none"
       stroke="#000000"
       stroke-miterlimit="10"
       stroke-width="1.63234"
       id="path1305"
       style="fill:#2ec4b6;fill-opacity:1;stroke:#213442;stroke-opacity:1" />
    <path
       d="m 216.84163,119.29456 c -0.0313,-1.05081 -0.19531,-2.09763 -0.48828,-3.10936 l -2.97266,-10.17601 37.54301,-22.034953 21.5779,-44.734278 -21.57382,44.730197 -37.543,22.034954 2.97265,10.18744 h -0.004 c 0.29296,1.01172 0.45703,2.05862 0.48828,3.10936 L 258.27132,96.21573 279.939,49.981327 v -0.0039 c 0.74609,-1.5859 0.82808,-3.406204 0.22656,-5.050787 -0.60547,-1.644501 -1.83981,-2.984407 -3.43363,-3.714797 L 233.78662,21.125882 73.8173,112.53692 57.49308,199.86711 v 0.73438 c 7.23045,12.35518 12.24255,39.17534 12.24255,70.27305 0,32.2379 -5.38672,59.88239 -13.05872,71.56995 v 1.88674 l 11.74632,211.38803 h -0.004 c 0.34765,6.39061 3.13278,12.4066 7.77736,16.8082 4.64842,4.40234 10.80446,6.85934 17.20731,6.85934 l 19.58972,-9.79323 27.74978,-276.68163 c 0,0 -6.53124,-6.53123 -8.97624,-18.77354 -0.81642,-4.2422 -1.46095,-37.64829 -1.63283,-46.17971 l -0.004,0.004 c -0.0156,-1.22654 -0.38672,-2.4219 -1.05857,-3.4453 -3.0195,-4.68359 -11.71449,-19.94883 -6.28516,-36.89088 6.53123,-20.40262 28.56594,-31.83227 28.56594,-31.83227 l 1.09375,-0.61327 c -0.26953,-0.23047 -0.53906,-0.45704 -0.81641,-0.71094 l -21.49955,-21.5273 c 0,0 -24.48428,4.082 -38.35917,24.48429 -13.87489,20.40261 -13.05872,56.31654 -13.05872,56.31654 l 6.69137,364.33013 -6.69137,-364.33013 c 0,0 -0.81642,-35.90985 13.05872,-56.31654 13.87489,-20.40262 38.35917,-24.48429 38.35917,-24.48429 l 21.53138,21.53138 c 0.2539,0.25391 0.51562,0.48829 0.81641,0.71094"
       fill="none"
       stroke="#000000"
       stroke-miterlimit="10"
       stroke-width="1.63234"
       id="path1307"
       style="stroke:#213442;stroke-opacity:1" />
  </g>
  <g
     inkscape:groupmode="layer"
     id="layer4"
     inkscape:label="legend"
     style="display:inline">
    <g
       aria-label="Grab"
       id="text43455"
       style="font-weight:300;font-size:40px;line-height:1.25;font-family:Roboto;-inkscape-font-specification:'Roboto Light';display:inline;stroke-width:0.75">
      <path
         d="m 231.32901,376.32214 q -1.25,1.77735 -3.92578,2.77344 -2.65625,0.99609 -5.95703,0.99609 -3.33985,0 -5.9375,-1.60156 -2.59766,-1.60156 -4.02344,-4.53125 -1.42578,-2.92969 -1.44531,-6.71875 v -3.59375 q 0,-5.91797 2.98828,-9.33594 2.98828,-3.4375 8.02734,-3.4375 4.39453,0 7.07032,2.2461 2.67578,2.22656 3.18359,6.15234 h -2.40234 q -0.52735,-3.125 -2.5586,-4.72656 -2.01172,-1.62109 -5.27344,-1.62109 -3.98437,0 -6.30859,2.83203 -2.32422,2.83203 -2.32422,7.98828 v 3.35937 q 0,3.24219 1.09375,5.74219 1.11328,2.48047 3.16406,3.84766 2.07032,1.36718 4.7461,1.36718 3.10547,0 5.33203,-0.97656 1.44531,-0.64453 2.14844,-1.5039 v -7.34375 h -7.63672 v -2.03125 h 10.03906 z"
         id="path972" />
      <path
         d="m 247.36417,360.56042 q -0.74219,-0.13671 -1.58203,-0.13671 -2.1875,0 -3.71094,1.23046 -1.50391,1.21094 -2.14844,3.53516 v 14.51172 h -2.32422 v -21.13281 h 2.28516 l 0.0391,3.35937 q 1.85547,-3.75 5.95703,-3.75 0.97656,0 1.54297,0.25391 z"
         id="path974" />
      <path
         d="m 263.61417,379.70105 q -0.35157,-0.99609 -0.44922,-2.94922 -1.23047,1.60156 -3.14453,2.48047 -1.89453,0.85937 -4.02344,0.85937 -3.04688,0 -4.94141,-1.69921 -1.875,-1.69922 -1.875,-4.29688 0,-3.08594 2.5586,-4.88281 2.57812,-1.79688 7.16797,-1.79688 h 4.23828 v -2.40234 q 0,-2.26563 -1.40625,-3.55469 -1.38672,-1.30859 -4.0625,-1.30859 -2.44141,0 -4.04297,1.25 -1.60156,1.25 -1.60156,3.00781 l -2.34375,-0.0195 q 0,-2.51953 2.34375,-4.35547 2.34375,-1.85547 5.76171,-1.85547 3.53516,0 5.56641,1.77735 2.05078,1.75781 2.10938,4.92187 v 10 q 0,3.06641 0.64453,4.58984 v 0.23438 z m -7.34375,-1.67969 q 2.34375,0 4.17968,-1.13281 1.85547,-1.13281 2.69532,-3.02734 v -4.64844 h -4.17969 q -3.49609,0.0391 -5.46875,1.28906 -1.97266,1.23047 -1.97266,3.39844 0,1.77734 1.3086,2.94922 1.32812,1.17187 3.4375,1.17187 z"
         id="path976" />
      <path
         d="m 288.71182,369.34949 q 0,4.9414 -2.1875,7.85156 -2.1875,2.89062 -5.8789,2.89062 -4.41407,0 -6.67969,-3.28125 l -0.0977,2.89063 h -2.1875 v -30 h 2.32422 v 11.93359 q 2.22656,-3.45703 6.60156,-3.45703 3.75,0 5.91797,2.8711 2.1875,2.85156 2.1875,7.94921 z m -2.34375,-0.41016 q 0,-4.17969 -1.62109,-6.44531 -1.62109,-2.28516 -4.57031,-2.28516 -2.2461,0 -3.8086,1.11328 -1.5625,1.09375 -2.36328,3.22266 v 9.53125 q 1.75781,3.98437 6.21094,3.98437 2.89062,0 4.51172,-2.28515 1.64062,-2.28516 1.64062,-6.83594 z"
         id="path978" />
    </g>
    <g
       aria-label="Select"
       id="text43455-3"
       style="font-weight:300;font-size:40px;line-height:1.25;font-family:Roboto;-inkscape-font-specification:'Roboto Light';display:inline;stroke-width:0.75">
      <path
         d="m 228.15242,318.52594 q 0,-2.36328 -1.66016,-3.73047 -1.66015,-1.38672 -6.07421,-2.61719 -4.41407,-1.25 -6.44532,-2.71484 -2.89062,-2.07031 -2.89062,-5.42969 0,-3.26172 2.67578,-5.29297 2.69531,-2.05078 6.875,-2.05078 2.83203,0 5.05859,1.09375 2.2461,1.09375 3.47657,3.04688 1.23046,1.95312 1.23046,4.35547 h -2.42187 q 0,-2.91016 -1.99219,-4.66797 -1.99219,-1.77735 -5.35156,-1.77735 -3.26172,0 -5.19531,1.46485 -1.9336,1.44531 -1.9336,3.78906 0,2.16797 1.73828,3.53516 1.73829,1.36718 5.56641,2.42187 3.82813,1.03516 5.80078,2.16797 1.97266,1.11328 2.96875,2.67578 0.9961,1.5625 0.9961,3.69141 0,3.35937 -2.69532,5.39062 -2.67578,2.03125 -7.07031,2.03125 -3.00781,0 -5.52734,-1.07422 -2.5,-1.07422 -3.8086,-3.00781 -1.28906,-1.93359 -1.28906,-4.43359 h 2.40234 q 0,3.00781 2.2461,4.74609 2.24609,1.73828 5.97656,1.73828 3.32031,0 5.33203,-1.46484 2.01172,-1.46485 2.01172,-3.88672 z"
         id="path959" />
      <path
         d="m 243.3868,325.90875 q -2.69532,0 -4.88282,-1.32812 -2.16797,-1.32813 -3.3789,-3.69141 -1.21094,-2.38281 -1.21094,-5.33203 v -0.83984 q 0,-3.04688 1.17187,-5.48829 1.19141,-2.4414 3.30079,-3.82812 2.10937,-1.40625 4.57031,-1.40625 3.84765,0 6.09375,2.63672 2.26562,2.61719 2.26562,7.16797 v 1.30859 h -15.07812 v 0.44922 q 0,3.59375 2.05078,5.99609 2.07031,2.38282 5.19531,2.38282 1.875,0 3.30078,-0.6836 1.44532,-0.68359 2.61719,-2.1875 l 1.46484,1.11328 q -2.57812,3.73047 -7.48046,3.73047 z m -0.42969,-19.92187 q -2.63672,0 -4.45313,1.93359 -1.79687,1.93359 -2.1875,5.19531 h 12.67578 v -0.2539 q -0.0976,-3.04688 -1.73828,-4.96094 -1.64062,-1.91406 -4.29687,-1.91406 z"
         id="path961" />
      <path
         d="m 258.48445,325.51813 h -2.34375 v -30 h 2.34375 z"
         id="path963" />
      <path
         d="m 273.0157,325.90875 q -2.69531,0 -4.88281,-1.32812 -2.16797,-1.32813 -3.37891,-3.69141 -1.21093,-2.38281 -1.21093,-5.33203 v -0.83984 q 0,-3.04688 1.17187,-5.48829 1.19141,-2.4414 3.30078,-3.82812 2.10938,-1.40625 4.57031,-1.40625 3.84766,0 6.09375,2.63672 2.26563,2.61719 2.26563,7.16797 v 1.30859 h -15.07813 v 0.44922 q 0,3.59375 2.05079,5.99609 2.07031,2.38282 5.19531,2.38282 1.875,0 3.30078,-0.6836 1.44531,-0.68359 2.61719,-2.1875 l 1.46484,1.11328 q -2.57812,3.73047 -7.48047,3.73047 z m -0.42969,-19.92187 q -2.63671,0 -4.45312,1.93359 -1.79688,1.93359 -2.1875,5.19531 h 12.67578 v -0.2539 q -0.0977,-3.04688 -1.73828,-4.96094 -1.64063,-1.91406 -4.29688,-1.91406 z"
         id="path965" />
      <path
         d="m 293.30867,323.9361 q 2.44141,0 4.08203,-1.36719 1.66016,-1.38672 1.79688,-3.57422 h 2.24609 q -0.0977,1.93359 -1.21094,3.53516 -1.11328,1.58203 -2.96875,2.48046 -1.83593,0.89844 -3.94531,0.89844 -4.16016,0 -6.60156,-2.89062 -2.42188,-2.89063 -2.42188,-7.77344 v -0.70313 q 0,-3.125 1.09375,-5.52734 1.09375,-2.40234 3.125,-3.71094 2.05078,-1.30859 4.78516,-1.30859 3.47656,0 5.72266,2.07031 2.26562,2.07031 2.42187,5.44922 h -2.24609 q -0.15625,-2.48047 -1.79688,-4.00391 -1.62109,-1.52343 -4.10156,-1.52343 -3.16406,0 -4.92188,2.28515 -1.73828,2.28516 -1.73828,6.40625 v 0.6836 q 0,4.04297 1.73828,6.30859 1.75782,2.26563 4.94141,2.26563 z"
         id="path967" />
      <path
         d="m 309.73445,298.97516 v 5.41015 h 4.375 v 1.91407 h -4.375 v 14.08203 q 0,1.75781 0.625,2.61719 0.64453,0.85937 2.12891,0.85937 0.58594,0 1.89453,-0.19531 l 0.0977,1.91406 q -0.91797,0.33203 -2.5,0.33203 -2.40235,0 -3.4961,-1.38672 -1.09375,-1.40625 -1.09375,-4.12109 v -14.10156 h -3.88672 v -1.91407 h 3.88672 v -5.41015 z"
         id="path969" />
    </g>
    <g
       aria-label="Turn view"
       id="text54392"
       style="font-weight:300;font-size:40px;line-height:1.25;font-family:Roboto;-inkscape-font-specification:'Roboto Light';display:inline;stroke-width:0.75">
      <path
         d="m 283.91916,244.36261 h -9.74609 v 26.38672 h -2.40235 v -26.38672 h -9.72656 v -2.05078 h 21.875 z"
         id="path942" />
      <path
         d="m 299.70041,268.07355 q -2.10938,3.0664 -6.73828,3.0664 -3.37891,0 -5.13672,-1.95312 -1.75781,-1.97266 -1.79688,-5.82031 v -13.75 h 2.32422 v 13.45703 q 0,6.03515 4.88282,6.03515 5.07812,0 6.42578,-4.19922 v -15.29296 h 2.34375 v 21.13281 h -2.26563 z"
         id="path944" />
      <path
         d="m 317.84494,251.6087 q -0.74219,-0.13672 -1.58203,-0.13672 -2.1875,0 -3.71094,1.23047 -1.5039,1.21094 -2.14844,3.53516 v 14.51172 h -2.32421 v -21.13281 h 2.28515 l 0.0391,3.35937 q 1.85547,-3.75 5.95704,-3.75 0.97656,0 1.54296,0.25391 z"
         id="path946" />
      <path
         d="m 323.76291,249.61652 0.0781,3.61328 q 1.19141,-1.95313 2.96875,-2.96875 1.77735,-1.03516 3.92579,-1.03516 3.39843,0 5.05859,1.91406 1.66016,1.91407 1.67969,5.74219 v 13.86719 h -2.32422 v -13.88672 q -0.0195,-2.83203 -1.21094,-4.21875 -1.17187,-1.38672 -3.76953,-1.38672 -2.16797,0 -3.84766,1.36719 -1.66015,1.34765 -2.46093,3.65234 v 14.47266 h -2.32422 v -21.13281 z"
         id="path948" />
      <path
         d="m 359.8176,267.52667 6.42578,-17.91015 h 2.40234 l -7.89062,21.13281 h -1.89453 l -7.92969,-21.13281 h 2.40234 z"
         id="path950" />
      <path
         d="m 375.09103,270.74933 h -2.34375 v -21.13281 h 2.34375 z m -2.7539,-27.2461 q 0,-0.66406 0.42969,-1.11328 0.42968,-0.46875 1.17187,-0.46875 0.74219,0 1.17188,0.46875 0.44921,0.44922 0.44921,1.11328 0,0.66407 -0.44921,1.11329 -0.42969,0.44921 -1.17188,0.44921 -0.74219,0 -1.17187,-0.44921 -0.42969,-0.44922 -0.42969,-1.11329 z"
         id="path952" />
      <path
         d="m 389.62228,271.13995 q -2.69531,0 -4.88281,-1.32812 -2.16797,-1.32813 -3.3789,-3.69141 -1.21094,-2.38281 -1.21094,-5.33203 v -0.83984 q 0,-3.04688 1.17187,-5.48828 1.19141,-2.44141 3.30078,-3.82813 2.10938,-1.40625 4.57032,-1.40625 3.84765,0 6.09375,2.63672 2.26562,2.61719 2.26562,7.16797 v 1.30859 h -15.07812 v 0.44922 q 0,3.59375 2.05078,5.99609 2.07031,2.38282 5.19531,2.38282 1.875,0 3.30078,-0.6836 1.44531,-0.68359 2.61719,-2.1875 l 1.46484,1.11328 q -2.57812,3.73047 -7.48047,3.73047 z m -0.42968,-19.92187 q -2.63672,0 -4.45313,1.93359 -1.79687,1.9336 -2.1875,5.19531 h 12.67578 v -0.2539 q -0.0976,-3.04688 -1.73828,-4.96094 -1.64062,-1.91406 -4.29687,-1.91406 z"
         id="path954" />
      <path
         d="m 407.16135,265.88605 0.35156,1.8164 0.46875,-1.91406 5.07812,-16.17187 h 1.99219 l 5.01953,16.03515 0.54688,2.22656 0.44922,-2.05078 4.33593,-16.21093 h 2.42188 l -6.15234,21.13281 h -1.99219 l -5.42969,-16.75781 -0.25391,-1.15235 -0.2539,1.17188 -5.33203,16.73828 h -1.99219 l -6.13281,-21.13281 h 2.40234 z"
         id="path956" />
    </g>
    <g
       aria-label="Teleport"
       id="text54392-7"
       style="font-weight:300;font-size:40px;line-height:1.25;font-family:Roboto;-inkscape-font-specification:'Roboto Light';display:inline;stroke-width:0.75">
      <path
         d="m 308.49249,186.89844 h -9.74609 v 26.38672 h -2.40234 v -26.38672 h -9.72657 v -2.05078 h 21.875 z"
         id="path925" />
      <path
         d="m 318.78546,213.67578 q -2.69531,0 -4.88281,-1.32812 -2.16797,-1.32813 -3.37891,-3.69141 -1.21093,-2.38281 -1.21093,-5.33203 v -0.83985 q 0,-3.04687 1.17187,-5.48828 1.19141,-2.4414 3.30078,-3.82812 2.10938,-1.40625 4.57031,-1.40625 3.84766,0 6.09375,2.63672 2.26563,2.61718 2.26563,7.16797 v 1.30859 h -15.07813 v 0.44922 q 0,3.59375 2.05079,5.99609 2.07031,2.38281 5.19531,2.38281 1.875,0 3.30078,-0.68359 1.44531,-0.68359 2.61719,-2.1875 l 1.46484,1.11328 q -2.57812,3.73047 -7.48047,3.73047 z m -0.42969,-19.92187 q -2.63671,0 -4.45312,1.93359 -1.79688,1.93359 -2.1875,5.19531 h 12.67578 v -0.2539 q -0.0977,-3.04688 -1.73828,-4.96094 -1.64063,-1.91406 -4.29688,-1.91406 z"
         id="path927" />
      <path
         d="m 333.88312,213.28516 h -2.34375 v -30 h 2.34375 z"
         id="path929" />
      <path
         d="m 348.41437,213.67578 q -2.69531,0 -4.88281,-1.32812 -2.16797,-1.32813 -3.37891,-3.69141 -1.21094,-2.38281 -1.21094,-5.33203 v -0.83985 q 0,-3.04687 1.17188,-5.48828 1.1914,-2.4414 3.30078,-3.82812 2.10937,-1.40625 4.57031,-1.40625 3.84766,0 6.09375,2.63672 2.26563,2.61718 2.26563,7.16797 v 1.30859 h -15.07813 v 0.44922 q 0,3.59375 2.05078,5.99609 2.07031,2.38281 5.19531,2.38281 1.875,0 3.30079,-0.68359 1.44531,-0.68359 2.61718,-2.1875 l 1.46485,1.11328 q -2.57813,3.73047 -7.48047,3.73047 z m -0.42969,-19.92187 q -2.63672,0 -4.45312,1.93359 -1.79688,1.93359 -2.1875,5.19531 h 12.67578 v -0.2539 q -0.0977,-3.04688 -1.73828,-4.96094 -1.64063,-1.91406 -4.29688,-1.91406 z"
         id="path931" />
      <path
         d="m 377.88702,202.93359 q 0,4.94141 -2.1875,7.85157 -2.1875,2.89062 -5.85937,2.89062 -4.33594,0 -6.64063,-3.04687 v 10.78125 h -2.32421 v -29.25782 h 2.16796 l 0.11719,2.98828 q 2.28516,-3.3789 6.6211,-3.3789 3.78906,0 5.9375,2.87109 2.16796,2.8711 2.16796,7.96875 z m -2.34375,-0.41015 q 0,-4.04297 -1.66015,-6.38672 -1.66016,-2.34375 -4.62891,-2.34375 -2.14844,0 -3.6914,1.03515 -1.54297,1.03516 -2.36329,3.00782 v 10.13672 q 0.83985,1.8164 2.40235,2.77343 1.5625,0.95703 3.6914,0.95703 2.94922,0 4.58985,-2.34375 1.66015,-2.36328 1.66015,-6.83593 z"
         id="path933" />
      <path
         d="m 381.77374,202.40625 q 0,-3.04688 1.17188,-5.48828 1.1914,-2.44141 3.33984,-3.78906 2.16797,-1.36719 4.90235,-1.36719 4.21875,0 6.83593,2.96875 2.61719,2.94922 2.61719,7.83203 v 0.48828 q 0,3.06641 -1.19141,5.52734 -1.17187,2.44141 -3.32031,3.76954 -2.14844,1.32812 -4.90234,1.32812 -4.19922,0 -6.83594,-2.94922 -2.61719,-2.96875 -2.61719,-7.85156 z m 2.34375,0.64453 q 0,3.78906 1.95313,6.23047 1.97265,2.42187 5.15625,2.42187 3.16406,0 5.11719,-2.42187 1.97265,-2.44141 1.97265,-6.42578 v -0.44922 q 0,-2.42188 -0.89844,-4.43359 -0.89843,-2.01172 -2.51953,-3.10547 -1.62109,-1.11328 -3.71093,-1.11328 -3.125,0 -5.09766,2.46093 -1.97266,2.44141 -1.97266,6.40625 z"
         id="path935" />
      <path
         d="m 415.23077,194.14453 q -0.74218,-0.13672 -1.58203,-0.13672 -2.1875,0 -3.71093,1.23047 -1.50391,1.21094 -2.14844,3.53516 v 14.51172 h -2.32422 v -21.13282 h 2.28516 l 0.0391,3.35938 q 1.85547,-3.75 5.95703,-3.75 0.97656,0 1.54297,0.2539 z"
         id="path937" />
      <path
         d="m 423.53156,186.74219 v 5.41015 h 4.375 v 1.91407 h -4.375 v 14.08203 q 0,1.75781 0.625,2.61718 0.64453,0.85938 2.1289,0.85938 0.58594,0 1.89453,-0.19531 l 0.0977,1.91406 q -0.91797,0.33203 -2.5,0.33203 -2.40234,0 -3.49609,-1.38672 -1.09375,-1.40625 -1.09375,-4.12109 v -14.10156 h -3.88672 v -1.91407 h 3.88672 v -5.41015 z"
         id="path939" />
    </g>
    <path
       style="font-variation-settings:normal;display:inline;opacity:1;vector-effect:none;fill:none;fill-opacity:1;stroke:#000000;stroke-width:1.63234;stroke-linecap:butt;stroke-linejoin:miter;stroke-miterlimit:10;stroke-dasharray:none;stroke-dashoffset:0;stroke-opacity:1;-inkscape-stroke:none;stop-color:#000000;stop-opacity:1"
       d="M 193.8374,368.17481 H 105.20434"
       id="path66243" />
    <path
       style="font-variation-settings:normal;display:inline;opacity:1;vector-effect:none;fill:none;fill-opacity:1;stroke:#000000;stroke-width:1.63234;stroke-linecap:butt;stroke-linejoin:miter;stroke-miterlimit:10;stroke-dasharray:none;stroke-dashoffset:0;stroke-opacity:1;-inkscape-stroke:none;stop-color:#000000;stop-opacity:1"
       d="m 443.647,200.25175 h 43.69365 l 23.14304,23.14304"
       id="path66557" />
    <path
       style="font-variation-settings:normal;display:inline;opacity:1;vector-effect:none;fill:none;fill-opacity:1;stroke:#000000;stroke-width:1.63234;stroke-linecap:butt;stroke-linejoin:miter;stroke-miterlimit:10;stroke-dasharray:none;stroke-dashoffset:0;stroke-opacity:1;-inkscape-stroke:none;stop-color:#000000;stop-opacity:1"
       d="M 193.8374,314.63897 H 180.09757 L 150.95066,264.15503"
       id="path66799" />
    <path
       style="font-variation-settings:normal;display:inline;opacity:1;vector-effect:none;fill:none;fill-opacity:1;stroke:#000000;stroke-width:1.63234;stroke-linecap:butt;stroke-linejoin:miter;stroke-miterlimit:10;stroke-dasharray:none;stroke-dashoffset:0;stroke-opacity:1;-inkscape-stroke:none;stop-color:#000000;stop-opacity:1"
       d="m 443.647,258.34753 h 45.66996"
       id="path66957" />
  </g>
</svg>
