<?xml version="1.0" encoding="UTF-8" standalone="no"?>
<svg
   width="700pt"
   height="604pt"
   version="1.1"
   viewBox="0 0 700 604"
   id="svg1656"
   sodipodi:docname="vive-controller-front.svg"
   inkscape:version="1.1.2 (1:1.1+202202050950+0a00cf5339)"
   xmlns:inkscape="http://www.inkscape.org/namespaces/inkscape"
   xmlns:sodipodi="http://sodipodi.sourceforge.net/DTD/sodipodi-0.dtd"
   xmlns="http://www.w3.org/2000/svg"
   xmlns:svg="http://www.w3.org/2000/svg">
  <sodipodi:namedview
     id="namedview1658"
     pagecolor="#ffffff"
     bordercolor="#666666"
     borderopacity="1.0"
     inkscape:pageshadow="2"
     inkscape:pageopacity="0.0"
     inkscape:pagecheckerboard="0"
     inkscape:document-units="pt"
     showgrid="false"
     inkscape:zoom="0.40765704"
     inkscape:cx="397.39286"
     inkscape:cy="214.64121"
     inkscape:window-width="1366"
     inkscape:window-height="704"
     inkscape:window-x="0"
     inkscape:window-y="27"
     inkscape:window-maximized="1"
     inkscape:current-layer="layer2"
     height="699pt"
     showguides="true"
     inkscape:guide-bbox="true">
    <sodipodi:guide
       position="208.81524,331.71231"
       orientation="1,0"
       id="guide65905" />
    <sodipodi:guide
       position="428.66916,312.3946"
       orientation="1,0"
       id="guide65907" />
    <sodipodi:guide
       position="193.83741,272.91531"
       orientation="1,0"
       id="guide65909" />
    <sodipodi:guide
       position="443.64701,254.45307"
       orientation="1,0"
       id="guide66015" />
  </sodipodi:namedview>
  <defs
     id="defs1542">
    <symbol
       id="w"
       overflow="visible">
      <path
         d="M 2.75,-0.15625 C 2.60156,-0.082031 2.45312,-0.03125 2.29688,0 2.14844,0.039062 1.99219,0.0625 1.82813,0.0625 c -0.5,0 -0.89844,-0.14062 -1.1875,-0.42188 -0.29297,-0.28125 -0.4375,-0.65625 -0.4375,-1.125 0,-0.47656 0.14453,-0.85156 0.4375,-1.125 0.28906,-0.28125 0.6875,-0.42188 1.1875,-0.42188 0.16406,0 0.32031,0.023438 0.46875,0.0625 0.15625,0.03125 0.30469,0.085938 0.45312,0.15625 v 0.60938 C 2.60156,-2.29688 2.45703,-2.36329 2.3125,-2.40625 2.17578,-2.457031 2.03516,-2.484375 1.89062,-2.484375 c -0.28125,0 -0.5,0.089844 -0.65625,0.26562 -0.15625,0.17969 -0.23438,0.42188 -0.23438,0.73438 0,0.30469 0.078125,0.54297 0.23438,0.71875 0.15625,0.17969 0.375,0.26562 0.65625,0.26562 0.14453,0 0.28516,-0.019531 0.42188,-0.0625 0.14453,-0.050781 0.28906,-0.125 0.4375,-0.21875 z"
         id="path1473" />
    </symbol>
    <symbol
       id="b"
       overflow="visible">
      <path
         d="M 2,-1.625 C 1.9375,-1.65625 1.875,-1.675781 1.8125,-1.6875 1.757812,-1.707031 1.70312,-1.71875 1.64062,-1.71875 c -0.1875,0 -0.33594,0.0625 -0.4375,0.1875 -0.09375,0.11719 -0.14062,0.28125 -0.14062,0.5 V -5e-5 H 0.34375 v -2.2344 H 1.0625 v 0.35938 c 0.09375,-0.14453 0.19531,-0.25 0.3125,-0.3125 0.125,-0.070312 0.26953,-0.10938 0.4375,-0.10938 0.019531,0 0.039062,0.00781 0.0625,0.015625 H 2 Z"
         id="path1476" />
    </symbol>
    <symbol
       id="a"
       overflow="visible">
      <path
         d="m 2.5781,-1.125 v 0.20312 H 0.9062 c 0.019531,0.16797 0.082031,0.29297 0.1875,0.375 0.10156,0.085937 0.24219,0.125 0.42188,0.125 0.15625,0 0.3125,-0.019531 0.46875,-0.0625 0.15625,-0.039063 0.31641,-0.10938 0.48438,-0.20312 v 0.54688 C 2.30074,-0.07812 2.13277,-0.03124 1.96871,0 1.80074,0.039062 1.62887,0.0625 1.45309,0.0625 1.04684,0.0625 0.72653,-0.03906 0.49997,-0.25 0.28122,-0.45703 0.17185,-0.75 0.17185,-1.125 c 0,-0.36328 0.10938,-0.64844 0.32812,-0.85938 0.22656,-0.20703 0.53516,-0.3125 0.92188,-0.3125 0.34375,0 0.61719,0.10938 0.82812,0.32812 0.21875,0.21094 0.32812,0.49219 0.32812,0.84375 z M 1.84372,-1.35938 c 0,-0.13281 -0.042969,-0.24219 -0.125,-0.32812 -0.074219,-0.082031 -0.17969,-0.125 -0.3125,-0.125 -0.13672,0 -0.24609,0.042969 -0.32812,0.125 -0.085937,0.074219 -0.14062,0.18359 -0.17188,0.32812 z"
         id="path1479" />
    </symbol>
    <symbol
       id="e"
       overflow="visible">
      <path
         d="m 1.3438,-1 c -0.14844,0 -0.26172,0.027344 -0.34375,0.078125 -0.074219,0.042969 -0.10938,0.11719 -0.10938,0.21875 0,0.085937 0.03125,0.15234 0.09375,0.20312 0.0625,0.054688 0.14453,0.078125 0.25,0.078125 0.13281,0 0.25,-0.046875 0.34375,-0.14062 0.09375,-0.093745 0.14062,-0.21094 0.14062,-0.35938 V -1.000005 Z M 2.4376,-1.28125 V -5e-5 H 1.71885 v -0.32812 c -0.09375,0.13672 -0.20312,0.23438 -0.32812,0.29688 -0.11719,0.0625 -0.26172,0.09375 -0.4375,0.09375 -0.23047,0 -0.41797,-0.066406 -0.5625,-0.20312 -0.14844,-0.13281 -0.21875,-0.3125 -0.21875,-0.53125 0,-0.25781 0.085937,-0.45312 0.26562,-0.57812 0.1875,-0.125 0.47266,-0.1875 0.85938,-0.1875 h 0.42188 v -0.046875 c 0,-0.11328 -0.046875,-0.19531 -0.14062,-0.25 C 1.492303,-1.785186 1.35949,-1.81253 1.17199,-1.81253 c -0.15625,0 -0.30469,0.015625 -0.4375,0.046875 -0.125,0.03125 -0.24609,0.074219 -0.35938,0.125 v -0.53125 c 0.15625,-0.039063 0.30469,-0.070313 0.45312,-0.09375 0.15625,-0.019531 0.3125,-0.03125 0.46875,-0.03125 0.40625,0 0.69531,0.085937 0.875,0.25 0.17578,0.15625 0.26562,0.41406 0.26562,0.76562 z"
         id="path1482" />
    </symbol>
    <symbol
       id="c"
       overflow="visible">
      <path
         d="m 1.125,-2.875 v 0.64062 h 0.73438 v 0.5 H 1.125 v 0.95312 c 0,0.10547 0.019531,0.17969 0.0625,0.21875 0.039062,0.03125 0.125,0.046875 0.25,0.046875 H 1.79688 V -1.5e-5 H 1.1875 c -0.28125,0 -0.48438,-0.054688 -0.60938,-0.17188 -0.11719,-0.125 -0.17188,-0.32812 -0.17188,-0.60938 v -0.95312 H 0.04686 v -0.5 h 0.35938 v -0.64062 z"
         id="path1485" />
    </symbol>
    <symbol
       id="l"
       overflow="visible">
      <path
         d="M 1.8594,-1.9062 V -3.1093 H 2.59378 V 1e-4 H 1.8594 v -0.32812 c -0.09375,0.13672 -0.20312,0.23438 -0.32812,0.29688 -0.11719,0.0625 -0.25,0.09375 -0.40625,0.09375 -0.27344,0 -0.49609,-0.10938 -0.67188,-0.32812 -0.17969,-0.21875 -0.26562,-0.50391 -0.26562,-0.85938 0,-0.34375 0.085938,-0.625 0.26562,-0.84375 0.17578,-0.21875 0.39844,-0.32812 0.67188,-0.32812 0.15625,0 0.28906,0.03125 0.40625,0.09375 0.125,0.0625 0.23438,0.16406 0.32812,0.29688 z m -0.46875,1.4375 c 0.15625,0 0.26953,-0.050781 0.34375,-0.15625 0.082031,-0.11328 0.125,-0.28125 0.125,-0.5 0,-0.20703 -0.042969,-0.36328 -0.125,-0.46875 -0.074219,-0.11328 -0.1875,-0.17188 -0.34375,-0.17188 -0.14844,0 -0.26172,0.058594 -0.34375,0.17188 -0.085937,0.10547 -0.125,0.26172 -0.125,0.46875 0,0.21875 0.039063,0.38672 0.125,0.5 0.082031,0.10547 0.19531,0.15625 0.34375,0.15625 z"
         id="path1488" />
    </symbol>
    <symbol
       id="k"
       overflow="visible">
      <path
         d="m 1.5312,-0.46875 c 0.15625,0 0.26953,-0.050781 0.34375,-0.15625 0.082031,-0.11328 0.125,-0.28125 0.125,-0.5 0,-0.20703 -0.042969,-0.36328 -0.125,-0.46875 -0.074219,-0.11328 -0.1875,-0.17188 -0.34375,-0.17188 -0.14844,0 -0.26172,0.058594 -0.34375,0.17188 -0.085938,0.10547 -0.125,0.26172 -0.125,0.46875 0,0.21875 0.039062,0.38672 0.125,0.5 0.082031,0.10547 0.19531,0.15625 0.34375,0.15625 z m -0.46875,-1.4375 c 0.09375,-0.13281 0.19531,-0.23438 0.3125,-0.29688 0.125,-0.0625 0.26562,-0.09375 0.42188,-0.09375 0.28125,0 0.50781,0.10938 0.6875,0.32812 0.17578,0.21875 0.26562,0.5 0.26562,0.84375 0,0.35547 -0.089844,0.64062 -0.26562,0.85938 -0.17969,0.21875 -0.40625,0.32812 -0.6875,0.32812 -0.15625,0 -0.29688,-0.03125 -0.42188,-0.09375 C 1.25776,-0.09376 1.1562,-0.19142 1.06245,-0.32814 V -2e-5 H 0.3437 v -3.1094 h 0.71875 z"
         id="path1491" />
    </symbol>
    <symbol
       id="j"
       overflow="visible">
      <path
         d="m 0.046875,-2.2344 h 0.71875 l 0.60938,1.5156 0.5,-1.5156 h 0.71875 l -0.9375,2.4531 c -0.09375,0.23828 -0.20312,0.41016 -0.32812,0.51562 -0.125,0.10156 -0.29297,0.15625 -0.5,0.15625 H 0.406255 V 0.40619 h 0.23438 c 0.11328,0 0.19531,-0.023438 0.25,-0.0625 0.0625,-0.03125 0.10938,-0.10156 0.14062,-0.20312 L 1.04688,0.093695 Z"
         id="path1494" />
    </symbol>
    <symbol
       id="i"
       overflow="visible">
      <path
         d="m 0.375,-2.9844 h 0.76562 v 1.0938 l 1.1094,-1.0938 h 0.89062 l -1.4219,1.4062 1.5781,1.5781 H 2.32809 L 1.14059,-1.172 V -1e-4 H 0.37497 Z"
         id="path1497" />
    </symbol>
    <symbol
       id="v"
       overflow="visible">
      <path
         d="m 0.0625,-2.2344 h 0.71875 l 0.54688,1.5469 0.5625,-1.5469 H 2.60938 L 1.73438,0 H 0.9375 Z"
         id="path1500" />
    </symbol>
    <symbol
       id="h"
       overflow="visible">
      <path
         d="M 0.34375,-2.2344 H 1.0625 V 0 H 0.34375 Z m 0,-0.875 H 1.0625 v 0.57812 H 0.34375 Z"
         id="path1503" />
    </symbol>
    <symbol
       id="g"
       overflow="visible">
      <path
         d="M 2.5938,-1.3594 V 0 H 1.87505 v -1.0469 c 0,-0.1875 -0.00781,-0.31641 -0.015625,-0.39062 C 1.847706,-1.507832 1.832081,-1.56643 1.81255,-1.6094 1.789112,-1.648463 1.753956,-1.679713 1.70317,-1.70315 1.648483,-1.7344 1.5977,-1.750025 1.54692,-1.750025 c -0.15625,0 -0.27734,0.058594 -0.35938,0.17188 -0.085938,0.11719 -0.125,0.27734 -0.125,0.48438 V 3.5e-5 H 0.34379 v -2.2344 h 0.71875 v 0.32812 c 0.10156,-0.13281 0.21094,-0.23438 0.32812,-0.29688 0.125,-0.0625 0.26562,-0.09375 0.42188,-0.09375 0.25,0 0.44141,0.085937 0.57812,0.25 0.13281,0.15625 0.20312,0.38672 0.20312,0.6875 z"
         id="path1506" />
    </symbol>
    <symbol
       id="u"
       overflow="visible">
      <path
         d="m 1.5781,-1.8281 c 0.11328,0 0.20312,-0.023437 0.26562,-0.078125 0.0625,-0.050781 0.09375,-0.12891 0.09375,-0.23438 0,-0.10156 -0.03125,-0.17969 -0.09375,-0.23438 C 1.78122,-2.425766 1.69138,-2.45311 1.5781,-2.45311 H 1.1406 v 0.625 z m 0.015625,1.2969 c 0.15625,0 0.26953,-0.03125 0.34375,-0.09375 0.082031,-0.0625 0.125,-0.16016 0.125,-0.29688 0,-0.125 -0.042969,-0.21875 -0.125,-0.28125 -0.074219,-0.070313 -0.1875,-0.10938 -0.34375,-0.10938 h -0.45312 v 0.78125 z m 0.71875,-1.0625 c 0.16406,0.042969 0.28906,0.13281 0.375,0.26562 0.09375,0.125 0.14062,0.28125 0.14062,0.46875 0,0.29297 -0.10156,0.51172 -0.29688,0.65625 -0.1875,0.13672 -0.48047,0.20312 -0.875,0.20312 h -1.2812 v -2.9844 h 1.1562 c 0.41406,0 0.71094,0.0625 0.89062,0.1875 0.1875,0.125 0.28125,0.32812 0.28125,0.60938 0,0.13672 -0.039063,0.25781 -0.10938,0.35938 -0.0625,0.10547 -0.15625,0.18359 -0.28125,0.23438 z"
         id="path1509" />
    </symbol>
    <symbol
       id="f"
       overflow="visible">
      <path
         d="m 2.0938,-2.1719 v 0.54688 C 1.93755,-1.68752 1.78521,-1.7344 1.64068,-1.76564 1.50396,-1.79689 1.37506,-1.812515 1.25006,-1.812515 c -0.13672,0 -0.24219,0.015625 -0.3125,0.046875 -0.0625,0.03125 -0.09375,0.085937 -0.09375,0.15625 0,0.0625 0.023438,0.10938 0.078125,0.14062 0.050781,0.023438 0.14062,0.042969 0.26562,0.0625 l 0.125,0.015625 c 0.36328,0.042969 0.60938,0.12109 0.73438,0.23438 0.13281,0.10547 0.20312,0.27344 0.20312,0.5 0,0.24219 -0.089844,0.42188 -0.26562,0.54688 -0.17969,0.11328 -0.44531,0.17188 -0.79688,0.17188 -0.14844,0 -0.29688,-0.015625 -0.45312,-0.046875 -0.15625,-0.019531 -0.32031,-0.050781 -0.48438,-0.09375 v -0.54688 c 0.13281,0.074219 0.27344,0.125 0.42188,0.15625 0.15625,0.03125 0.3125,0.046875 0.46875,0.046875 0.13281,0 0.23828,-0.015625 0.3125,-0.046875 0.070313,-0.039062 0.10938,-0.097656 0.10938,-0.17188 0,-0.070313 -0.027344,-0.125 -0.078125,-0.15625 -0.042969,-0.03125 -0.13672,-0.050781 -0.28125,-0.0625 l -0.125,-0.015625 c -0.32422,-0.039062 -0.54688,-0.11328 -0.67188,-0.21875 -0.125,-0.11328 -0.1875,-0.28125 -0.1875,-0.5 0,-0.23828 0.078125,-0.41406 0.23438,-0.53125 0.16406,-0.11328 0.41406,-0.17188 0.75,-0.17188 0.13281,0 0.27344,0.011719 0.42188,0.03125 0.14453,0.023437 0.30078,0.054687 0.46875,0.09375 z"
         id="path1512" />
    </symbol>
    <symbol
       id="t"
       overflow="visible">
      <path
         d="m 1.8125,-3.1094 v 0.46875 H 1.42188 c -0.10547,0 -0.17969,0.023437 -0.21875,0.0625 -0.03125,0.03125 -0.046875,0.09375 -0.046875,0.1875 v 0.15625 h 0.60938 v 0.5 H 1.156255 V 0 h -0.71875 v -1.7344 h -0.35938 v -0.5 h 0.35938 v -0.15625 c 0,-0.25 0.066406,-0.42969 0.20312,-0.54688 0.13281,-0.11328 0.34375,-0.17188 0.625,-0.17188 z"
         id="path1515" />
    </symbol>
    <symbol
       id="d"
       overflow="visible">
      <path
         d="m 1.4062,-1.7812 c -0.15625,0 -0.27734,0.058594 -0.35938,0.17188 -0.085937,0.11719 -0.125,0.27734 -0.125,0.48438 0,0.21875 0.039063,0.38672 0.125,0.5 0.082031,0.11719 0.20312,0.17188 0.35938,0.17188 0.15626,0 0.27344,-0.054687 0.35938,-0.17188 0.082031,-0.11328 0.125,-0.28125 0.125,-0.5 0,-0.20703 -0.042969,-0.36719 -0.125,-0.48438 C 1.679643,-1.7226 1.56246,-1.7812 1.4062,-1.7812 Z m 0,-0.51562 c 0.38281,0 0.6875,0.10547 0.90625,0.3125 0.21875,0.21094 0.32812,0.49609 0.32812,0.85938 0,0.375 -0.10938,0.66797 -0.32812,0.875 -0.21875,0.21094 -0.52344,0.3125 -0.90625,0.3125 -0.38672,0 -0.6875,-0.10156 -0.90625,-0.3125 -0.21875,-0.20703 -0.32812,-0.5 -0.32812,-0.875 0,-0.36328 0.10938,-0.64844 0.32812,-0.85938 0.21875,-0.20703 0.51953,-0.3125 0.90625,-0.3125 z"
         id="path1518" />
    </symbol>
    <symbol
       id="s"
       overflow="visible">
      <path
         d="m 2.4219,-1.8594 c 0.082031,-0.14453 0.1875,-0.25391 0.3125,-0.32812 0.125,-0.070312 0.26562,-0.10938 0.42188,-0.10938 0.25,0 0.44141,0.085937 0.57812,0.25 0.13281,0.15625 0.20312,0.38672 0.20312,0.6875 V 0 H 3.21877 V -1.1719 -1.218775 -1.2969 c 0,-0.16406 -0.023438,-0.28125 -0.0625,-0.34375 -0.042969,-0.070313 -0.11719,-0.10938 -0.21875,-0.10938 -0.14844,0 -0.25781,0.058594 -0.32812,0.17188 -0.074219,0.10547 -0.10938,0.26562 -0.10938,0.48438 V 3e-5 H 1.78127 v -1.1719 c 0,-0.25 -0.023438,-0.40625 -0.0625,-0.46875 C 1.675801,-1.710933 1.59768,-1.75 1.48439,-1.75 1.34767,-1.75 1.2422,-1.691406 1.17189,-1.57812 1.097671,-1.47265 1.06251,-1.3125 1.06251,-1.09374 V 6e-5 H 0.34376 v -2.2344 h 0.71875 v 0.32812 c 0.082031,-0.125 0.17969,-0.21875 0.29688,-0.28125 0.11328,-0.070312 0.23828,-0.10938 0.375,-0.10938 0.15625,0 0.28906,0.042969 0.40625,0.125 0.125,0.074219 0.21875,0.17969 0.28125,0.3125 z"
         id="path1521" />
    </symbol>
    <symbol
       id="r"
       overflow="visible">
      <path
         d="M 2.5938,-1.3594 V 0 H 1.87505 v -1.0469 c 0,-0.1875 -0.00781,-0.31641 -0.015625,-0.39062 C 1.847706,-1.507832 1.832081,-1.56643 1.81255,-1.6094 1.789112,-1.648463 1.753956,-1.679713 1.70317,-1.70315 1.648483,-1.7344 1.5977,-1.750025 1.54692,-1.750025 c -0.15625,0 -0.27734,0.058594 -0.35938,0.17188 -0.085938,0.11719 -0.125,0.27734 -0.125,0.48438 V 3.5e-5 H 0.34379 v -3.1094 h 0.71875 v 1.2031 c 0.10156,-0.13281 0.21094,-0.23438 0.32812,-0.29688 0.125,-0.0625 0.26562,-0.09375 0.42188,-0.09375 0.25,0 0.44141,0.085937 0.57812,0.25 0.13281,0.15625 0.20312,0.38672 0.20312,0.6875 z"
         id="path1524" />
    </symbol>
    <symbol
       id="q"
       overflow="visible">
      <path
         d="m 0.375,-2.9844 h 0.85938 l 1.0938,2.0469 V -2.9844 H 3.04693 V 0 H 2.18755 L 1.10945,-2.0469 V 0 H 0.37507 Z"
         id="path1527" />
    </symbol>
    <symbol
       id="p"
       overflow="visible">
      <path
         d="m 0.3125,-0.875 v -1.3594 h 0.73438 v 0.21875 c 0,0.125 -0.00781,0.28125 -0.015625,0.46875 v 0.35938 c 0,0.17969 0.00391,0.30859 0.015625,0.39062 0.00781,0.074219 0.023437,0.13281 0.046875,0.17188 0.03125,0.042969 0.066406,0.078125 0.10938,0.10938 0.050781,0.023437 0.10938,0.03125 0.17188,0.03125 0.14453,0 0.25781,-0.054687 0.34375,-0.17188 0.09375,-0.11328 0.14062,-0.27344 0.14062,-0.48438 v -1.0938 h 0.71875 V -5e-5 h -0.71875 v -0.32812 c -0.11719,0.13672 -0.23438,0.23438 -0.35938,0.29688 -0.11719,0.0625 -0.24609,0.09375 -0.39062,0.09375 -0.26172,0 -0.46094,-0.078125 -0.59375,-0.23438 -0.13672,-0.16406 -0.20312,-0.39844 -0.20312,-0.70312 z"
         id="path1530" />
    </symbol>
    <symbol
       id="o"
       overflow="visible">
      <path
         d="m 0.375,-2.9844 h 1.2812 c 0.375,0 0.66016,0.085937 0.85938,0.25 0.20703,0.16797 0.3125,0.40625 0.3125,0.71875 0,0.3125 -0.10547,0.55859 -0.3125,0.73438 -0.19922,0.16797 -0.48438,0.25 -0.85938,0.25 H 1.14058 V -7e-5 H 0.37496 Z m 0.76562,0.5625 v 0.82812 h 0.4375 c 0.14453,0 0.25391,-0.035156 0.32812,-0.10938 0.082031,-0.070313 0.125,-0.17578 0.125,-0.3125 0,-0.125 -0.042969,-0.22266 -0.125,-0.29688 C 1.832021,-2.382852 1.72265,-2.42192 1.57812,-2.42192 Z"
         id="path1533" />
    </symbol>
    <symbol
       id="n"
       overflow="visible">
      <path
         d="M 0.34375,-2.2344 H 1.0625 v 2.1875 c 0,0.30078 -0.074219,0.53125 -0.21875,0.6875 -0.14844,0.16406 -0.35547,0.25 -0.625,0.25 H -0.14063 V 0.40622 h 0.125 c 0.13281,0 0.22656,-0.03125 0.28125,-0.09375 0.050781,-0.054688 0.078125,-0.17188 0.078125,-0.35938 z m 0,-0.875 H 1.0625 v 0.57812 H 0.34375 Z"
         id="path1536" />
    </symbol>
    <symbol
       id="m"
       overflow="visible">
      <path
         d="m 2.1562,-2.1719 v 0.59375 C 2.05073,-1.648463 1.95308,-1.70315 1.85932,-1.7344 1.76556,-1.76565 1.66401,-1.781275 1.56244,-1.781275 c -0.21094,0 -0.37109,0.058594 -0.48438,0.17188 -0.10547,0.11719 -0.15625,0.27734 -0.15625,0.48438 0,0.21875 0.050781,0.38672 0.15625,0.5 0.11328,0.11719 0.27344,0.17188 0.48438,0.17188 0.10156,0 0.20703,-0.015625 0.3125,-0.046875 0.10156,-0.03125 0.19531,-0.082031 0.28125,-0.15625 v 0.59375 C 2.039,-0.019541 1.92572,0.007802 1.81244,0.03124 1.69525,0.050771 1.58197,0.06249 1.46869,0.06249 c -0.40625,0 -0.72656,-0.10156 -0.95312,-0.3125 -0.23047,-0.20703 -0.34375,-0.5 -0.34375,-0.875 0,-0.36328 0.11328,-0.64844 0.34375,-0.85938 0.22656,-0.20703 0.54688,-0.3125 0.95312,-0.3125 0.11328,0 0.22656,0.011719 0.34375,0.03125 0.11328,0.023437 0.22656,0.054687 0.34375,0.09375 z"
         id="path1539" />
    </symbol>
  </defs>
  <g
     inkscape:groupmode="layer"
     id="layer1"
     inkscape:label="palette"
     style="display:inline"
     sodipodi:insensitive="true">
    <g
       id="g984"
       transform="matrix(0.75,0,0,0.75,20.935453,-273.70955)">
      <rect
         fill="#011627"
         x="0"
         y="0"
         width="55.555557"
         height="220"
         id="rect945" />
      <rect
         fill="#213442"
         x="55.555557"
         y="0"
         width="55.555557"
         height="220"
         id="rect947" />
      <rect
         fill="#40515d"
         x="111.11111"
         y="0"
         width="55.555557"
         height="220"
         id="rect949" />
      <rect
         fill="#7f8b92"
         x="166.66667"
         y="0"
         width="55.555557"
         height="220"
         id="rect951" />
      <rect
         fill="#bec5c7"
         x="222.22223"
         y="0"
         width="55.555557"
         height="220"
         id="rect953" />
      <rect
         fill="#fdfffc"
         x="277.77777"
         y="0"
         width="55.555557"
         height="220"
         id="rect955" />
      <rect
         fill="#2ec4b6"
         x="333.33334"
         y="73.333321"
         width="55.555565"
         height="73.333351"
         id="rect957"
         style="stroke-width:0.548394" />
      <rect
         fill="#e71d36"
         x="388.88889"
         y="0"
         width="55.555557"
         height="220"
         id="rect959" />
      <rect
         fill="#ff9f1c"
         x="444.44446"
         y="0"
         width="55.555557"
         height="220"
         id="rect961" />
      <text
         x="10"
         y="235"
         font-family="Arial"
         font-size="6px"
         alignment-baseline="middle"
         id="text963">Exported from Coolors.co</text>
      <text
         x="490"
         y="235"
         font-family="Arial"
         font-size="6px"
         alignment-baseline="middle"
         text-anchor="end"
         id="text965">https://coolors.co/011627-213442-40515d-7f8b92-bec5c7-fdfffc-2ec4b6-e71d36-ff9f1c</text>
      <rect
         fill="#2ec4b6"
         x="333.33334"
         y="146.66667"
         width="55.555573"
         height="73.333328"
         id="rect13097"
         style="fill:#3fe2b8;fill-opacity:1;stroke-width:0.499615" />
      <rect
         fill="#2ec4b6"
         x="333.33331"
         y="0"
         width="55.555595"
         height="73.333321"
         id="rect13099"
         style="fill:#238c93;fill-opacity:1;stroke-width:0.642844" />
    </g>
  </g>
  <g
     inkscape:groupmode="layer"
     id="layer2"
     inkscape:label="front"
     style="display:inline">
    <path
       d="m 620.50693,65.654137 c 0,24.702675 -42.17927,44.726133 -94.20685,44.726133 -52.02758,0 -94.20685,-20.023458 -94.20685,-44.726133 0,-24.702674 42.17927,-44.726136 94.20685,-44.726136 52.02758,0 94.20685,20.023462 94.20685,44.726136"
       fill="none"
       stroke="#000000"
       stroke-miterlimit="10"
       stroke-width="2"
       id="path1544"
       style="stroke:#213442;stroke-opacity:1" />
    <path
       d="m 607.39989,65.654137 c 0,-21.300578 -36.30486,-38.503568 -81.10145,-38.503568 -44.79249,0 -81.10145,17.20299 -81.10145,38.503568 0,11.183582 10.04327,21.249789 26.08219,28.284992 4.48826,-12.50002 27.4101,-22.019827 55.01516,-22.019827 27.60507,0 50.52682,9.519807 55.01517,22.019827 16.04711,-7.042986 26.08956,-17.10141 26.08956,-28.284992 z"
       fill="none"
       stroke="#000000"
       stroke-miterlimit="10"
       stroke-width="2"
       id="path1546"
       style="stroke:#213442;stroke-opacity:1" />
    <path
       d="m 526.30008,71.91193 c -27.61326,0 -50.52682,9.519807 -55.01516,22.019827 14.45706,6.339793 33.78503,10.214483 55.01516,10.214483 21.23422,0 40.56629,-3.87502 55.01516,-10.214483 -4.48826,-12.50002 -27.4019,-22.019827 -55.01516,-22.019827 z"
       fill="none"
       stroke="#000000"
       stroke-miterlimit="10"
       stroke-width="2"
       id="path1548"
       style="stroke:#213442;stroke-opacity:1" />
    <path
       d="m 607.39989,65.654137 c 0,-21.300578 -36.30486,-38.503568 -81.10145,-38.503568 -44.79249,0 -81.10145,17.20299 -81.10145,38.503568 0,12.835888 13.23811,24.207065 33.58597,31.202947 1.69532,-11.76193 22.31638,-21.054821 47.51138,-21.054821 25.19911,0 45.82386,9.288795 47.51139,21.054821 20.36342,-7.00391 33.59334,-18.367059 33.59334,-31.202947 z"
       fill="none"
       stroke="#000000"
       stroke-miterlimit="10"
       stroke-width="2"
       id="path1550"
       style="stroke:#213442;stroke-opacity:1" />
    <path
       d="m 526.30008,75.813731 c -25.2073,0 -45.82385,9.288796 -47.51138,21.054822 13.35116,4.593767 29.76936,7.300787 47.51138,7.300787 17.74202,0 34.16759,-2.71095 47.51138,-7.300787 -1.68753,-11.784867 -22.3049,-21.054822 -47.51138,-21.054822 z"
       fill="none"
       stroke="#000000"
       stroke-miterlimit="10"
       stroke-width="2"
       id="path1552"
       style="stroke:#213442;stroke-opacity:1" />
    <path
       d="m 539.43169,181.06982 c 0,7.24999 -5.87891,13.12915 -13.13243,13.12915 -7.25352,0 -13.13243,-5.87891 -13.13243,-13.12915 0,-7.25385 5.87891,-13.13244 13.13243,-13.13244 7.25352,0 13.13243,5.87892 13.13243,13.13244"
       fill="none"
       stroke="#000000"
       stroke-miterlimit="10"
       stroke-width="2"
       id="path1554"
       style="stroke:#213442;stroke-opacity:1" />
    <path
       d="m 539.43169,356.34371 c 0,7.24999 -5.87891,13.13243 -13.13243,13.13243 -7.25352,0 -13.13243,-5.88276 -13.13243,-13.13243 0,-7.25385 5.87891,-13.13244 13.13243,-13.13244 7.25352,0 13.13243,5.87892 13.13243,13.13244"
       fill="none"
       stroke="#000000"
       stroke-miterlimit="10"
       stroke-width="2"
       id="path1556"
       style="stroke:#213442;stroke-opacity:1" />
    <path
       id="path1558"
       d="m 526.30023,255.46874 -37.4442,-37.44421 c -20.67766,20.67767 -20.67998,54.20844 0,74.88841 z"
       style="font-variation-settings:normal;opacity:1;vector-effect:none;fill:#238c93;fill-opacity:1;stroke:#213442;stroke-width:1.63838;stroke-linecap:butt;stroke-linejoin:miter;stroke-miterlimit:10;stroke-dasharray:none;stroke-dashoffset:0;stroke-opacity:1;-inkscape-stroke:none;stop-color:#000000;stop-opacity:1" />
    <path
       id="path17524"
       d="m 563.7434,218.02557 c -20.67998,-20.67997 -54.2074,-20.68101 -74.88737,-10e-4 l 37.4442,37.44421 z"
       style="font-variation-settings:normal;opacity:1;vector-effect:none;fill:#2ec4b6;fill-opacity:1;stroke:#213442;stroke-width:1.63838;stroke-linecap:butt;stroke-linejoin:miter;stroke-miterlimit:10;stroke-dasharray:none;stroke-dashoffset:0;stroke-opacity:1;-inkscape-stroke:none;stop-color:#000000;stop-opacity:1" />
    <path
       id="path17193"
       d="m 563.7434,292.91191 -37.44317,-37.44317 -37.4442,37.4442 c 20.67997,20.67998 54.21029,20.67605 74.88737,-10e-4 z"
       style="font-variation-settings:normal;opacity:1;vector-effect:none;fill:none;fill-opacity:1;stroke:#213442;stroke-width:1.63838;stroke-linecap:butt;stroke-linejoin:miter;stroke-miterlimit:10;stroke-dasharray:none;stroke-dashoffset:0;stroke-opacity:1;-inkscape-stroke:none;stop-color:#000000;stop-opacity:1" />
    <path
       id="path17521"
       d="m 563.7434,218.02557 -37.44317,37.44317 37.44317,37.44317 c 20.67997,-20.67997 20.67997,-54.20636 0,-74.88634 z"
       style="font-variation-settings:normal;opacity:1;vector-effect:none;fill:#238c93;fill-opacity:1;stroke:#213442;stroke-width:1.63838;stroke-linecap:butt;stroke-linejoin:miter;stroke-miterlimit:10;stroke-dasharray:none;stroke-dashoffset:0;stroke-opacity:1;-inkscape-stroke:none;stop-color:#000000;stop-opacity:1" />
    <path
       d="m 522.85188,178.77717 h 6.8906 v 0.76172 h -6.8906 v -0.76172 m 0,1.918 h 6.8906 v 0.79687 h -6.8906 v -0.82031 m 0,1.918 h 6.8906 v 0.76172 h -6.8906 z"
       id="path1560"
       style="stroke:none;stroke-opacity:1;fill:#213442;fill-opacity:1" />
    <path
       d="m 526.30188,358.29717 3.2188,-2.5078 0.72266,-0.55859 -3.9414,-3.0625 -3.9414,3.0625 0.71094,0.55859 m 3.2266,3.6211 -3.2266,-2.5078 -0.71094,0.55078 3.9414,3.0625 3.9414,-3.0625 -0.71094,-0.55859 z"
       id="path1562"
       style="stroke:none;stroke-opacity:1;fill:#213442;fill-opacity:1" />
    <path
       d="m 528.48732,377.78191 c 0,2.91796 -4.37497,2.91796 -4.37497,0 0,-2.91795 4.37497,-2.91795 4.37497,0"
       fill="none"
       stroke="#000000"
       stroke-miterlimit="10"
       stroke-width="2"
       id="path1564"
       style="stroke:#213442;stroke-opacity:1" />
    <path
       d="m 582.97164,255.2147 c 0,-20.24628 -10.80102,-38.95658 -28.33578,-49.08177 -17.53476,-10.12109 -39.1368,-10.12109 -56.67156,0 -17.53476,10.12519 -28.33578,28.83549 -28.33578,49.08177 v 24.94516 0.22265 -0.004 c 0,20.24628 10.80102,38.95658 28.33578,49.07767 17.53476,10.12519 39.1368,10.12519 56.67156,0 17.53476,-10.12109 28.33578,-28.83221 28.33578,-49.07767 v -0.22266 z"
       fill="none"
       stroke="#000000"
       stroke-miterlimit="10"
       stroke-width="2"
       id="path1566"
       style="stroke:#213442;stroke-opacity:1" />
    <path
       d="m 442.60507,45.036763 c 0,0 -63.39056,57.956877 -69.9023,84.925427 -2.86716,11.87907 3.27734,21.30058 10.23824,24.16774 9.83192,4.09767 22.11731,-21.30057 30.30839,-21.70689 8.19141,-0.41015 32.76924,20.89016 35.6364,24.98447 2.86717,4.09767 11.05825,23.75815 11.87908,32.76924 0.64844,7.1367 14.66432,247.13324 20.48057,346.59929 v -0.008 c 0.66797,11.49569 5.70705,22.30081 14.08597,30.20681 8.37458,7.90232 19.45331,12.30505 30.96866,12.30833"
       fill="none"
       stroke="#000000"
       stroke-miterlimit="10"
       stroke-width="2"
       id="path1568"
       style="stroke:#213442;stroke-opacity:1" />
    <path
       d="m 429.63648,140.61002 c -8.19141,0.41015 -20.48057,25.80449 -30.30839,21.7069 l -14.89452,-7.79689"
       fill="none"
       stroke="#000000"
       stroke-miterlimit="10"
       stroke-width="2"
       id="path1570"
       style="stroke:#213442;stroke-opacity:1" />
    <path
       d="m 609.99672,45.036763 c 0,0 63.39793,57.956877 69.9023,84.925427 2.86717,11.87907 -3.27733,21.30058 -10.23823,24.16774 -9.83192,4.09767 -22.11731,-21.30057 -30.30839,-21.70689 -8.19141,-0.41015 -32.76924,20.89016 -35.63641,24.98447 -2.86716,4.09767 -11.05824,23.75815 -11.87907,32.76924 -0.64844,7.1367 -14.66432,247.13324 -20.48057,346.59929 v -0.008 c -0.66797,11.49569 -5.70705,22.30081 -14.08597,30.20681 -8.37458,7.90232 -19.45331,12.30505 -30.96866,12.30833"
       fill="none"
       stroke="#000000"
       stroke-miterlimit="10"
       stroke-width="2"
       id="path1572"
       style="stroke:#213442;stroke-opacity:1" />
    <path
       d="m 622.9645,140.61002 c 8.19141,0.41015 20.48057,25.80449 30.30839,21.7069 l 14.89451,-7.79689"
       fill="none"
       stroke="#000000"
       stroke-miterlimit="10"
       stroke-width="2"
       id="path1574"
       style="stroke:#213442;stroke-opacity:1" />
  </g>
  <g
     inkscape:groupmode="layer"
     id="layer3"
     inkscape:label="side"
     style="display:inline">
    <path
       d="m 152.44582,155.18156 c 3.69137,3.06643 8.89462,3.51949 13.05872,1.13668 l 45.07788,-25.84729 c 3.98438,-2.28511 6.3867,-6.582 6.24999,-11.17581"
       fill="none"
       stroke="#000000"
       stroke-miterlimit="10"
       stroke-width="1.63234"
       id="path1297"
       style="stroke:#213442;stroke-opacity:1" />
    <path
       d="m 130.1301,132.94093 32.14077,32.95694 c 3.67579,3.68362 9.36719,4.43752 13.87489,1.84373 l 38.5469,-22.58179 h 0.004 c 4.98435,-2.86329 7.36324,-8.76567 5.75391,-14.28543 l -3.71479,-12.97628"
       fill="none"
       stroke="#000000"
       stroke-miterlimit="10"
       stroke-width="1.63234"
       id="path1299"
       style="stroke:#213442;stroke-opacity:1" />
    <path
       d="m 107.17287,320.42334 c -4.11325,0 -8.05854,1.63675 -10.96443,4.54296 -2.91014,2.91014 -4.54297,6.85159 -4.54297,10.96443 v 45.70715 c 0,5.53902 2.95699,10.66 7.75386,13.42926 4.79688,2.76951 10.7106,2.76951 15.50805,0 4.79688,-2.76951 7.75386,-7.89056 7.75386,-13.42926 v -45.70715 c 0,-4.11325 -1.63283,-8.0547 -4.54296,-10.96443 -2.90622,-2.90621 -6.85159,-4.54296 -10.96443,-4.54296 z"
       fill="none"
       stroke="#000000"
       stroke-miterlimit="10"
       stroke-width="1.63234"
       id="path1301"
       style="fill:#ff9f1c;fill-opacity:1;stroke:#213442;stroke-opacity:1" />
    <path
       id="path1303"
       style="font-variation-settings:normal;vector-effect:none;fill:#e71d36;fill-opacity:1;stroke:#213442;stroke-width:1.63234;stroke-linecap:butt;stroke-linejoin:miter;stroke-miterlimit:10;stroke-dasharray:none;stroke-dashoffset:0;stroke-opacity:1;-inkscape-stroke:none;stop-color:#000000"
       d="m 130.94106,237.37963 c -0.19922,-0.005 -0.39487,0.005 -0.5874,0.0293 0.27634,12.99661 0.75335,33.29887 1.41357,36.72949 0.46958,2.35123 1.11474,4.42307 1.81055,6.34717 1.81549,-5.77387 7.17918,-7.98487 11.24414,-7.98487 2.31302,0 14.75838,0.25733 25.16455,0.4878 1.59373,0.0352 2.99951,-1.03029 3.40576,-2.56934 0.40237,-1.54288 -0.3042,-3.16114 -1.70654,-3.91113 -6.23473,-3.32851 -13.30467,-7.27345 -17.88281,-10.32422 -6.87246,-4.57874 -16.51621,-18.67015 -22.86182,-18.8042 z" />
    <path
       d="M 60.43897,206.75534 H 60.0796 c -0.29297,0.0156 -0.5625,0.14844 -0.75391,0.36719 -0.1914,0.22266 -0.28515,0.51172 -0.25781,0.80078 l 5.07813,113.03954 h 0.57031 c 3.13279,-13.50761 5.01953,-31.01528 5.01953,-50.0704 0,-26.67978 -3.6797,-50.18711 -9.29699,-64.13627 z"
       fill="none"
       stroke="#000000"
       stroke-miterlimit="10"
       stroke-width="1.63234"
       id="path1305"
       style="fill:#2ec4b6;fill-opacity:1;stroke:#213442;stroke-opacity:1" />
    <path
       d="m 216.84163,119.29456 c -0.0313,-1.05081 -0.19531,-2.09763 -0.48828,-3.10936 l -2.97266,-10.17601 37.54301,-22.034953 21.5779,-44.734278 -21.57382,44.730197 -37.543,22.034954 2.97265,10.18744 h -0.004 c 0.29296,1.01172 0.45703,2.05862 0.48828,3.10936 L 258.27132,96.21573 279.939,49.981327 v -0.0039 c 0.74609,-1.5859 0.82808,-3.406204 0.22656,-5.050787 -0.60547,-1.644501 -1.83981,-2.984407 -3.43363,-3.714797 L 233.78662,21.125882 73.8173,112.53692 57.49308,199.86711 v 0.73438 c 7.23045,12.35518 12.24255,39.17534 12.24255,70.27305 0,32.2379 -5.38672,59.88239 -13.05872,71.56995 v 1.88674 l 11.74632,211.38803 h -0.004 c 0.34765,6.39061 3.13278,12.4066 7.77736,16.8082 4.64842,4.40234 10.80446,6.85934 17.20731,6.85934 l 19.58972,-9.79323 27.74978,-276.68163 c 0,0 -6.53124,-6.53123 -8.97624,-18.77354 -0.81642,-4.2422 -1.46095,-37.64829 -1.63283,-46.17971 l -0.004,0.004 c -0.0156,-1.22654 -0.38672,-2.4219 -1.05857,-3.4453 -3.0195,-4.68359 -11.71449,-19.94883 -6.28516,-36.89088 6.53123,-20.40262 28.56594,-31.83227 28.56594,-31.83227 l 1.09375,-0.61327 c -0.26953,-0.23047 -0.53906,-0.45704 -0.81641,-0.71094 l -21.49955,-21.5273 c 0,0 -24.48428,4.082 -38.35917,24.48429 -13.87489,20.40261 -13.05872,56.31654 -13.05872,56.31654 l 6.69137,364.33013 -6.69137,-364.33013 c 0,0 -0.81642,-35.90985 13.05872,-56.31654 13.87489,-20.40262 38.35917,-24.48429 38.35917,-24.48429 l 21.53138,21.53138 c 0.2539,0.25391 0.51562,0.48829 0.81641,0.71094"
       fill="none"
       stroke="#000000"
       stroke-miterlimit="10"
       stroke-width="1.63234"
       id="path1307"
       style="stroke:#213442;stroke-opacity:1" />
  </g>
  <g
     inkscape:groupmode="layer"
     id="layer4"
     inkscape:label="legend"
     style="display:inline">
    <text
       xml:space="preserve"
       style="font-style:normal;font-variant:normal;font-weight:300;font-stretch:normal;font-size:40px;line-height:1.25;font-family:Roboto;-inkscape-font-specification:'Roboto Light';display:inline;stroke-width:0.75"
       x="207.20792"
       y="379.70105"
       id="text43455"><tspan
         sodipodi:role="line"
         id="tspan43453"
         style="font-style:normal;font-variant:normal;font-weight:300;font-stretch:normal;font-size:40px;font-family:Roboto;-inkscape-font-specification:'Roboto Light';stroke-width:0.75"
         x="207.20792"
         y="379.70105">Grab</tspan></text>
    <text
       xml:space="preserve"
       style="font-style:normal;font-variant:normal;font-weight:300;font-stretch:normal;font-size:40px;line-height:1.25;font-family:Roboto;-inkscape-font-specification:'Roboto Light';display:inline;stroke-width:0.75"
       x="208.46492"
       y="325.51813"
       id="text43455-3"><tspan
         sodipodi:role="line"
         id="tspan43453-6"
         style="font-style:normal;font-variant:normal;font-weight:300;font-stretch:normal;font-size:40px;font-family:Roboto;-inkscape-font-specification:'Roboto Light';stroke-width:0.75"
         x="208.46492"
         y="325.51813">Select</tspan></text>
    <text
       xml:space="preserve"
       style="font-style:normal;font-variant:normal;font-weight:300;font-stretch:normal;font-size:40px;line-height:1.25;font-family:Roboto;-inkscape-font-specification:'Roboto Light';display:inline;stroke-width:0.75"
       x="261.02853"
       y="270.74933"
       id="text54392"><tspan
         sodipodi:role="line"
         id="tspan54390"
         style="font-style:normal;font-variant:normal;font-weight:300;font-stretch:normal;font-size:40px;font-family:Roboto;-inkscape-font-specification:'Roboto Light';stroke-width:0.75"
         x="261.02853"
         y="270.74933">Turn view</tspan></text>
    <text
       xml:space="preserve"
       style="font-style:normal;font-variant:normal;font-weight:300;font-stretch:normal;font-size:40px;line-height:1.25;font-family:Roboto;-inkscape-font-specification:'Roboto Light';display:inline;stroke-width:0.75"
       x="285.60187"
       y="213.28516"
       id="text54392-7"><tspan
         sodipodi:role="line"
         id="tspan54390-5"
         style="font-style:normal;font-variant:normal;font-weight:300;font-stretch:normal;font-size:40px;font-family:Roboto;-inkscape-font-specification:'Roboto Light';stroke-width:0.75"
         x="285.60187"
         y="213.28516">Teleport</tspan></text>
    <path
       style="font-variation-settings:normal;display:inline;opacity:1;vector-effect:none;fill:none;fill-opacity:1;stroke:#000000;stroke-width:1.63234;stroke-linecap:butt;stroke-linejoin:miter;stroke-miterlimit:10;stroke-dasharray:none;stroke-dashoffset:0;stroke-opacity:1;-inkscape-stroke:none;stop-color:#000000;stop-opacity:1"
       d="M 193.8374,368.17481 H 105.20434"
       id="path66243" />
    <path
       style="font-variation-settings:normal;display:inline;opacity:1;vector-effect:none;fill:none;fill-opacity:1;stroke:#000000;stroke-width:1.63234;stroke-linecap:butt;stroke-linejoin:miter;stroke-miterlimit:10;stroke-dasharray:none;stroke-dashoffset:0;stroke-opacity:1;-inkscape-stroke:none;stop-color:#000000;stop-opacity:1"
       d="m 443.647,200.25175 h 43.69365 l 23.14304,23.14304"
       id="path66557" />
    <path
       style="font-variation-settings:normal;display:inline;opacity:1;vector-effect:none;fill:none;fill-opacity:1;stroke:#000000;stroke-width:1.63234;stroke-linecap:butt;stroke-linejoin:miter;stroke-miterlimit:10;stroke-dasharray:none;stroke-dashoffset:0;stroke-opacity:1;-inkscape-stroke:none;stop-color:#000000;stop-opacity:1"
       d="M 193.8374,314.63897 H 180.09757 L 150.95066,264.15503"
       id="path66799" />
    <path
       style="font-variation-settings:normal;display:inline;opacity:1;vector-effect:none;fill:none;fill-opacity:1;stroke:#000000;stroke-width:1.63234;stroke-linecap:butt;stroke-linejoin:miter;stroke-miterlimit:10;stroke-dasharray:none;stroke-dashoffset:0;stroke-opacity:1;-inkscape-stroke:none;stop-color:#000000;stop-opacity:1"
       d="m 443.647,258.34753 h 45.66996"
       id="path66957" />
  </g>
</svg>
