<?xml version="1.0" encoding="UTF-8" standalone="no"?>
<svg
   width="700pt"
   height="700pt"
   version="1.1"
   viewBox="0 0 700 700"
   id="svg1656"
   sodipodi:docname="vive-controller-front.svg"
   inkscape:version="1.1.2 (1:1.1+202202050950+0a00cf5339)"
   xmlns:inkscape="http://www.inkscape.org/namespaces/inkscape"
   xmlns:sodipodi="http://sodipodi.sourceforge.net/DTD/sodipodi-0.dtd"
   xmlns="http://www.w3.org/2000/svg"
   xmlns:svg="http://www.w3.org/2000/svg">
  <sodipodi:namedview
     id="namedview1658"
     pagecolor="#ffffff"
     bordercolor="#666666"
     borderopacity="1.0"
     inkscape:pageshadow="2"
     inkscape:pageopacity="0.0"
     inkscape:pagecheckerboard="0"
     inkscape:document-units="pt"
     showgrid="false"
     inkscape:zoom="0.57651412"
     inkscape:cx="949.67318"
     inkscape:cy="366.86005"
     inkscape:window-width="1366"
     inkscape:window-height="704"
     inkscape:window-x="0"
     inkscape:window-y="27"
     inkscape:window-maximized="1"
     inkscape:current-layer="svg1656" />
  <defs
     id="defs1542">
    <symbol
       id="w"
       overflow="visible">
      <path
         d="m2.75-0.15625c-0.14844 0.074219-0.29688 0.125-0.45312 0.15625-0.14844 0.039062-0.30469 0.0625-0.46875 0.0625-0.5 0-0.89844-0.14062-1.1875-0.42188-0.29297-0.28125-0.4375-0.65625-0.4375-1.125 0-0.47656 0.14453-0.85156 0.4375-1.125 0.28906-0.28125 0.6875-0.42188 1.1875-0.42188 0.16406 0 0.32031 0.023438 0.46875 0.0625 0.15625 0.03125 0.30469 0.085938 0.45312 0.15625v0.60938c-0.14844-0.09375-0.29297-0.16016-0.4375-0.20312-0.13672-0.050781-0.27734-0.078125-0.42188-0.078125-0.28125 0-0.5 0.089844-0.65625 0.26562-0.15625 0.17969-0.23438 0.42188-0.23438 0.73438 0 0.30469 0.078125 0.54297 0.23438 0.71875 0.15625 0.17969 0.375 0.26562 0.65625 0.26562 0.14453 0 0.28516-0.019531 0.42188-0.0625 0.14453-0.050781 0.28906-0.125 0.4375-0.21875z"
         id="path1473" />
    </symbol>
    <symbol
       id="b"
       overflow="visible">
      <path
         d="m2-1.625c-0.0625-0.03125-0.125-0.050781-0.1875-0.0625-0.054688-0.019531-0.10938-0.03125-0.17188-0.03125-0.1875 0-0.33594 0.0625-0.4375 0.1875-0.09375 0.11719-0.14062 0.28125-0.14062 0.5v1.0312h-0.71875v-2.2344h0.71875v0.35938c0.09375-0.14453 0.19531-0.25 0.3125-0.3125 0.125-0.070312 0.26953-0.10938 0.4375-0.10938 0.019531 0 0.039062 0.007813 0.0625 0.015625h0.125z"
         id="path1476" />
    </symbol>
    <symbol
       id="a"
       overflow="visible">
      <path
         d="m2.5781-1.125v0.20312h-1.6719c0.019531 0.16797 0.082031 0.29297 0.1875 0.375 0.10156 0.085937 0.24219 0.125 0.42188 0.125 0.15625 0 0.3125-0.019531 0.46875-0.0625 0.15625-0.039063 0.31641-0.10938 0.48438-0.20312v0.54688c-0.16797 0.0625-0.33594 0.10938-0.5 0.14062-0.16797 0.039062-0.33984 0.0625-0.51562 0.0625-0.40625 0-0.72656-0.10156-0.95312-0.3125-0.21875-0.20703-0.32812-0.5-0.32812-0.875 0-0.36328 0.10938-0.64844 0.32812-0.85938 0.22656-0.20703 0.53516-0.3125 0.92188-0.3125 0.34375 0 0.61719 0.10938 0.82812 0.32812 0.21875 0.21094 0.32812 0.49219 0.32812 0.84375zm-0.73438-0.23438c0-0.13281-0.042969-0.24219-0.125-0.32812-0.074219-0.082031-0.17969-0.125-0.3125-0.125-0.13672 0-0.24609 0.042969-0.32812 0.125-0.085937 0.074219-0.14062 0.18359-0.17188 0.32812z"
         id="path1479" />
    </symbol>
    <symbol
       id="e"
       overflow="visible">
      <path
         d="m1.3438-1c-0.14844 0-0.26172 0.027344-0.34375 0.078125-0.074219 0.042969-0.10938 0.11719-0.10938 0.21875 0 0.085937 0.03125 0.15234 0.09375 0.20312 0.0625 0.054688 0.14453 0.078125 0.25 0.078125 0.13281 0 0.25-0.046875 0.34375-0.14062s0.14062-0.21094 0.14062-0.35938v-0.078125zm1.0938-0.28125v1.2812h-0.71875v-0.32812c-0.09375 0.13672-0.20312 0.23438-0.32812 0.29688-0.11719 0.0625-0.26172 0.09375-0.4375 0.09375-0.23047 0-0.41797-0.066406-0.5625-0.20312-0.14844-0.13281-0.21875-0.3125-0.21875-0.53125 0-0.25781 0.085937-0.45312 0.26562-0.57812 0.1875-0.125 0.47266-0.1875 0.85938-0.1875h0.42188v-0.046875c0-0.11328-0.046875-0.19531-0.14062-0.25-0.085937-0.050781-0.21875-0.078125-0.40625-0.078125-0.15625 0-0.30469 0.015625-0.4375 0.046875-0.125 0.03125-0.24609 0.074219-0.35938 0.125v-0.53125c0.15625-0.039063 0.30469-0.070313 0.45312-0.09375 0.15625-0.019531 0.3125-0.03125 0.46875-0.03125 0.40625 0 0.69531 0.085937 0.875 0.25 0.17578 0.15625 0.26562 0.41406 0.26562 0.76562z"
         id="path1482" />
    </symbol>
    <symbol
       id="c"
       overflow="visible">
      <path
         d="m1.125-2.875v0.64062h0.73438v0.5h-0.73438v0.95312c0 0.10547 0.019531 0.17969 0.0625 0.21875 0.039062 0.03125 0.125 0.046875 0.25 0.046875h0.35938v0.51562h-0.60938c-0.28125 0-0.48438-0.054688-0.60938-0.17188-0.11719-0.125-0.17188-0.32812-0.17188-0.60938v-0.95312h-0.35938v-0.5h0.35938v-0.64062z"
         id="path1485" />
    </symbol>
    <symbol
       id="l"
       overflow="visible">
      <path
         d="m1.8594-1.9062v-1.2031h0.73438v3.1094h-0.73438v-0.32812c-0.09375 0.13672-0.20312 0.23438-0.32812 0.29688-0.11719 0.0625-0.25 0.09375-0.40625 0.09375-0.27344 0-0.49609-0.10938-0.67188-0.32812-0.17969-0.21875-0.26562-0.50391-0.26562-0.85938 0-0.34375 0.085938-0.625 0.26562-0.84375 0.17578-0.21875 0.39844-0.32812 0.67188-0.32812 0.15625 0 0.28906 0.03125 0.40625 0.09375 0.125 0.0625 0.23438 0.16406 0.32812 0.29688zm-0.46875 1.4375c0.15625 0 0.26953-0.050781 0.34375-0.15625 0.082031-0.11328 0.125-0.28125 0.125-0.5 0-0.20703-0.042969-0.36328-0.125-0.46875-0.074219-0.11328-0.1875-0.17188-0.34375-0.17188-0.14844 0-0.26172 0.058594-0.34375 0.17188-0.085937 0.10547-0.125 0.26172-0.125 0.46875 0 0.21875 0.039063 0.38672 0.125 0.5 0.082031 0.10547 0.19531 0.15625 0.34375 0.15625z"
         id="path1488" />
    </symbol>
    <symbol
       id="k"
       overflow="visible">
      <path
         d="m1.5312-0.46875c0.15625 0 0.26953-0.050781 0.34375-0.15625 0.082031-0.11328 0.125-0.28125 0.125-0.5 0-0.20703-0.042969-0.36328-0.125-0.46875-0.074219-0.11328-0.1875-0.17188-0.34375-0.17188-0.14844 0-0.26172 0.058594-0.34375 0.17188-0.085938 0.10547-0.125 0.26172-0.125 0.46875 0 0.21875 0.039062 0.38672 0.125 0.5 0.082031 0.10547 0.19531 0.15625 0.34375 0.15625zm-0.46875-1.4375c0.09375-0.13281 0.19531-0.23438 0.3125-0.29688 0.125-0.0625 0.26562-0.09375 0.42188-0.09375 0.28125 0 0.50781 0.10938 0.6875 0.32812 0.17578 0.21875 0.26562 0.5 0.26562 0.84375 0 0.35547-0.089844 0.64062-0.26562 0.85938-0.17969 0.21875-0.40625 0.32812-0.6875 0.32812-0.15625 0-0.29688-0.03125-0.42188-0.09375-0.11719-0.0625-0.21875-0.16016-0.3125-0.29688v0.32812h-0.71875v-3.1094h0.71875z"
         id="path1491" />
    </symbol>
    <symbol
       id="j"
       overflow="visible">
      <path
         d="m0.046875-2.2344h0.71875l0.60938 1.5156 0.5-1.5156h0.71875l-0.9375 2.4531c-0.09375 0.23828-0.20312 0.41016-0.32812 0.51562-0.125 0.10156-0.29297 0.15625-0.5 0.15625h-0.42188v-0.48438h0.23438c0.11328 0 0.19531-0.023438 0.25-0.0625 0.0625-0.03125 0.10938-0.10156 0.14062-0.20312l0.015625-0.046875z"
         id="path1494" />
    </symbol>
    <symbol
       id="i"
       overflow="visible">
      <path
         d="m0.375-2.9844h0.76562v1.0938l1.1094-1.0938h0.89062l-1.4219 1.4062 1.5781 1.5781h-0.96875l-1.1875-1.1719v1.1719h-0.76562z"
         id="path1497" />
    </symbol>
    <symbol
       id="v"
       overflow="visible">
      <path
         d="m0.0625-2.2344h0.71875l0.54688 1.5469 0.5625-1.5469h0.71875l-0.875 2.2344h-0.79688z"
         id="path1500" />
    </symbol>
    <symbol
       id="h"
       overflow="visible">
      <path
         d="m0.34375-2.2344h0.71875v2.2344h-0.71875zm0-0.875h0.71875v0.57812h-0.71875z"
         id="path1503" />
    </symbol>
    <symbol
       id="g"
       overflow="visible">
      <path
         d="m2.5938-1.3594v1.3594h-0.71875v-1.0469c0-0.1875-0.007812-0.31641-0.015625-0.39062-0.011719-0.070312-0.027344-0.12891-0.046875-0.17188-0.023438-0.039063-0.058594-0.070313-0.10938-0.09375-0.054687-0.03125-0.10547-0.046875-0.15625-0.046875-0.15625 0-0.27734 0.058594-0.35938 0.17188-0.085938 0.11719-0.125 0.27734-0.125 0.48438v1.0938h-0.71875v-2.2344h0.71875v0.32812c0.10156-0.13281 0.21094-0.23438 0.32812-0.29688 0.125-0.0625 0.26562-0.09375 0.42188-0.09375 0.25 0 0.44141 0.085937 0.57812 0.25 0.13281 0.15625 0.20312 0.38672 0.20312 0.6875z"
         id="path1506" />
    </symbol>
    <symbol
       id="u"
       overflow="visible">
      <path
         d="m1.5781-1.8281c0.11328 0 0.20312-0.023437 0.26562-0.078125 0.0625-0.050781 0.09375-0.12891 0.09375-0.23438 0-0.10156-0.03125-0.17969-0.09375-0.23438-0.0625-0.050781-0.15234-0.078125-0.26562-0.078125h-0.4375v0.625zm0.015625 1.2969c0.15625 0 0.26953-0.03125 0.34375-0.09375 0.082031-0.0625 0.125-0.16016 0.125-0.29688 0-0.125-0.042969-0.21875-0.125-0.28125-0.074219-0.070313-0.1875-0.10938-0.34375-0.10938h-0.45312v0.78125zm0.71875-1.0625c0.16406 0.042969 0.28906 0.13281 0.375 0.26562 0.09375 0.125 0.14062 0.28125 0.14062 0.46875 0 0.29297-0.10156 0.51172-0.29688 0.65625-0.1875 0.13672-0.48047 0.20312-0.875 0.20312h-1.2812v-2.9844h1.1562c0.41406 0 0.71094 0.0625 0.89062 0.1875 0.1875 0.125 0.28125 0.32812 0.28125 0.60938 0 0.13672-0.039063 0.25781-0.10938 0.35938-0.0625 0.10547-0.15625 0.18359-0.28125 0.23438z"
         id="path1509" />
    </symbol>
    <symbol
       id="f"
       overflow="visible">
      <path
         d="m2.0938-2.1719v0.54688c-0.15625-0.0625-0.30859-0.10938-0.45312-0.14062-0.13672-0.03125-0.26562-0.046875-0.39062-0.046875-0.13672 0-0.24219 0.015625-0.3125 0.046875-0.0625 0.03125-0.09375 0.085937-0.09375 0.15625 0 0.0625 0.023438 0.10938 0.078125 0.14062 0.050781 0.023438 0.14062 0.042969 0.26562 0.0625l0.125 0.015625c0.36328 0.042969 0.60938 0.12109 0.73438 0.23438 0.13281 0.10547 0.20312 0.27344 0.20312 0.5 0 0.24219-0.089844 0.42188-0.26562 0.54688-0.17969 0.11328-0.44531 0.17188-0.79688 0.17188-0.14844 0-0.29688-0.015625-0.45312-0.046875-0.15625-0.019531-0.32031-0.050781-0.48438-0.09375v-0.54688c0.13281 0.074219 0.27344 0.125 0.42188 0.15625 0.15625 0.03125 0.3125 0.046875 0.46875 0.046875 0.13281 0 0.23828-0.015625 0.3125-0.046875 0.070313-0.039062 0.10938-0.097656 0.10938-0.17188 0-0.070313-0.027344-0.125-0.078125-0.15625-0.042969-0.03125-0.13672-0.050781-0.28125-0.0625l-0.125-0.015625c-0.32422-0.039062-0.54688-0.11328-0.67188-0.21875-0.125-0.11328-0.1875-0.28125-0.1875-0.5 0-0.23828 0.078125-0.41406 0.23438-0.53125 0.16406-0.11328 0.41406-0.17188 0.75-0.17188 0.13281 0 0.27344 0.011719 0.42188 0.03125 0.14453 0.023437 0.30078 0.054687 0.46875 0.09375z"
         id="path1512" />
    </symbol>
    <symbol
       id="t"
       overflow="visible">
      <path
         d="m1.8125-3.1094v0.46875h-0.39062c-0.10547 0-0.17969 0.023437-0.21875 0.0625-0.03125 0.03125-0.046875 0.09375-0.046875 0.1875v0.15625h0.60938v0.5h-0.60938v1.7344h-0.71875v-1.7344h-0.35938v-0.5h0.35938v-0.15625c0-0.25 0.066406-0.42969 0.20312-0.54688 0.13281-0.11328 0.34375-0.17188 0.625-0.17188z"
         id="path1515" />
    </symbol>
    <symbol
       id="d"
       overflow="visible">
      <path
         d="m1.4062-1.7812c-0.15625 0-0.27734 0.058594-0.35938 0.17188-0.085937 0.11719-0.125 0.27734-0.125 0.48438 0 0.21875 0.039063 0.38672 0.125 0.5 0.082031 0.11719 0.20312 0.17188 0.35938 0.17188s0.27344-0.054687 0.35938-0.17188c0.082031-0.11328 0.125-0.28125 0.125-0.5 0-0.20703-0.042969-0.36719-0.125-0.48438-0.085937-0.11328-0.20312-0.17188-0.35938-0.17188zm0-0.51562c0.38281 0 0.6875 0.10547 0.90625 0.3125 0.21875 0.21094 0.32812 0.49609 0.32812 0.85938 0 0.375-0.10938 0.66797-0.32812 0.875-0.21875 0.21094-0.52344 0.3125-0.90625 0.3125-0.38672 0-0.6875-0.10156-0.90625-0.3125-0.21875-0.20703-0.32812-0.5-0.32812-0.875 0-0.36328 0.10938-0.64844 0.32812-0.85938 0.21875-0.20703 0.51953-0.3125 0.90625-0.3125z"
         id="path1518" />
    </symbol>
    <symbol
       id="s"
       overflow="visible">
      <path
         d="m2.4219-1.8594c0.082031-0.14453 0.1875-0.25391 0.3125-0.32812 0.125-0.070312 0.26562-0.10938 0.42188-0.10938 0.25 0 0.44141 0.085937 0.57812 0.25 0.13281 0.15625 0.20312 0.38672 0.20312 0.6875v1.3594h-0.71875v-1.1719-0.046875-0.078125c0-0.16406-0.023438-0.28125-0.0625-0.34375-0.042969-0.070313-0.11719-0.10938-0.21875-0.10938-0.14844 0-0.25781 0.058594-0.32812 0.17188-0.074219 0.10547-0.10938 0.26562-0.10938 0.48438v1.0938h-0.71875v-1.1719c0-0.25-0.023438-0.40625-0.0625-0.46875-0.042969-0.070313-0.12109-0.10938-0.23438-0.10938-0.13672 0-0.24219 0.058594-0.3125 0.17188-0.074219 0.10547-0.10938 0.26562-0.10938 0.48438v1.0938h-0.71875v-2.2344h0.71875v0.32812c0.082031-0.125 0.17969-0.21875 0.29688-0.28125 0.11328-0.070312 0.23828-0.10938 0.375-0.10938 0.15625 0 0.28906 0.042969 0.40625 0.125 0.125 0.074219 0.21875 0.17969 0.28125 0.3125z"
         id="path1521" />
    </symbol>
    <symbol
       id="r"
       overflow="visible">
      <path
         d="m2.5938-1.3594v1.3594h-0.71875v-1.0469c0-0.1875-0.007812-0.31641-0.015625-0.39062-0.011719-0.070312-0.027344-0.12891-0.046875-0.17188-0.023438-0.039063-0.058594-0.070313-0.10938-0.09375-0.054687-0.03125-0.10547-0.046875-0.15625-0.046875-0.15625 0-0.27734 0.058594-0.35938 0.17188-0.085938 0.11719-0.125 0.27734-0.125 0.48438v1.0938h-0.71875v-3.1094h0.71875v1.2031c0.10156-0.13281 0.21094-0.23438 0.32812-0.29688 0.125-0.0625 0.26562-0.09375 0.42188-0.09375 0.25 0 0.44141 0.085937 0.57812 0.25 0.13281 0.15625 0.20312 0.38672 0.20312 0.6875z"
         id="path1524" />
    </symbol>
    <symbol
       id="q"
       overflow="visible">
      <path
         d="m0.375-2.9844h0.85938l1.0938 2.0469v-2.0469h0.71875v2.9844h-0.85938l-1.0781-2.0469v2.0469h-0.73438z"
         id="path1527" />
    </symbol>
    <symbol
       id="p"
       overflow="visible">
      <path
         d="m0.3125-0.875v-1.3594h0.73438v0.21875c0 0.125-0.007813 0.28125-0.015625 0.46875v0.35938c0 0.17969 0.003906 0.30859 0.015625 0.39062 0.007813 0.074219 0.023437 0.13281 0.046875 0.17188 0.03125 0.042969 0.066406 0.078125 0.10938 0.10938 0.050781 0.023437 0.10938 0.03125 0.17188 0.03125 0.14453 0 0.25781-0.054687 0.34375-0.17188 0.09375-0.11328 0.14062-0.27344 0.14062-0.48438v-1.0938h0.71875v2.2344h-0.71875v-0.32812c-0.11719 0.13672-0.23438 0.23438-0.35938 0.29688-0.11719 0.0625-0.24609 0.09375-0.39062 0.09375-0.26172 0-0.46094-0.078125-0.59375-0.23438-0.13672-0.16406-0.20312-0.39844-0.20312-0.70312z"
         id="path1530" />
    </symbol>
    <symbol
       id="o"
       overflow="visible">
      <path
         d="m0.375-2.9844h1.2812c0.375 0 0.66016 0.085937 0.85938 0.25 0.20703 0.16797 0.3125 0.40625 0.3125 0.71875s-0.10547 0.55859-0.3125 0.73438c-0.19922 0.16797-0.48438 0.25-0.85938 0.25h-0.51562v1.0312h-0.76562zm0.76562 0.5625v0.82812h0.4375c0.14453 0 0.25391-0.035156 0.32812-0.10938 0.082031-0.070313 0.125-0.17578 0.125-0.3125 0-0.125-0.042969-0.22266-0.125-0.29688-0.074219-0.070312-0.18359-0.10938-0.32812-0.10938z"
         id="path1533" />
    </symbol>
    <symbol
       id="n"
       overflow="visible">
      <path
         d="m0.34375-2.2344h0.71875v2.1875c0 0.30078-0.074219 0.53125-0.21875 0.6875-0.14844 0.16406-0.35547 0.25-0.625 0.25h-0.35938v-0.48438h0.125c0.13281 0 0.22656-0.03125 0.28125-0.09375 0.050781-0.054688 0.078125-0.17188 0.078125-0.35938zm0-0.875h0.71875v0.57812h-0.71875z"
         id="path1536" />
    </symbol>
    <symbol
       id="m"
       overflow="visible">
      <path
         d="m2.1562-2.1719v0.59375c-0.10547-0.070313-0.20312-0.125-0.29688-0.15625s-0.19531-0.046875-0.29688-0.046875c-0.21094 0-0.37109 0.058594-0.48438 0.17188-0.10547 0.11719-0.15625 0.27734-0.15625 0.48438 0 0.21875 0.050781 0.38672 0.15625 0.5 0.11328 0.11719 0.27344 0.17188 0.48438 0.17188 0.10156 0 0.20703-0.015625 0.3125-0.046875 0.10156-0.03125 0.19531-0.082031 0.28125-0.15625v0.59375c-0.11719 0.042969-0.23047 0.070312-0.34375 0.09375-0.11719 0.019531-0.23047 0.03125-0.34375 0.03125-0.40625 0-0.72656-0.10156-0.95312-0.3125-0.23047-0.20703-0.34375-0.5-0.34375-0.875 0-0.36328 0.11328-0.64844 0.34375-0.85938 0.22656-0.20703 0.54688-0.3125 0.95312-0.3125 0.11328 0 0.22656 0.011719 0.34375 0.03125 0.11328 0.023437 0.22656 0.054687 0.34375 0.09375z"
         id="path1539" />
    </symbol>
  </defs>
  <path
     transform="matrix(.81919 0 0 .81919 194.86 0)"
     d="m304.38 55.6c0 30.155-51.489 54.598-115 54.598s-115-24.443-115-54.598 51.489-54.598 115-54.598 115 24.443 115 54.598"
     fill="none"
     stroke="#000"
     stroke-miterlimit="10"
     stroke-width="2"
     id="path1544" />
  <path
     transform="matrix(.81919 0 0 .81919 194.86 0)"
     d="m288.38 55.6c0-26.002-44.318-47.002-99.002-47.002-54.679 0-99.002 21-99.002 47.002 0 13.652 12.26 25.94 31.839 34.528 5.4789-15.259 33.46-26.88 67.158-26.88s61.679 11.621 67.158 26.88c19.589-8.5975 31.848-20.876 31.848-34.528z"
     fill="none"
     stroke="#000"
     stroke-miterlimit="10"
     stroke-width="2"
     id="path1546" />
  <path
     transform="matrix(.81919 0 0 .81919 194.86 0)"
     d="m189.38 63.239c-33.708 0-61.679 11.621-67.158 26.88 17.648 7.7391 41.242 12.469 67.158 12.469 25.921 0 49.52-4.7303 67.158-12.469-5.4789-15.259-33.45-26.88-67.158-26.88z"
     fill="none"
     stroke="#000"
     stroke-miterlimit="10"
     stroke-width="2"
     id="path1548" />
  <path
     transform="matrix(.81919 0 0 .81919 194.86 0)"
     d="m288.38 55.6c0-26.002-44.318-47.002-99.002-47.002-54.679 0-99.002 21-99.002 47.002 0 15.669 16.16 29.55 40.999 38.09 2.0695-14.358 27.242-25.702 57.998-25.702 30.761 0 55.938 11.339 57.998 25.702 24.858-8.5498 41.008-22.421 41.008-38.09z"
     fill="none"
     stroke="#000"
     stroke-miterlimit="10"
     stroke-width="2"
     id="path1550" />
  <path
     transform="matrix(.81919 0 0 .81919 194.86 0)"
     d="m189.38 68.002c-30.771 0-55.938 11.339-57.998 25.702 16.298 5.6077 36.34 8.9122 57.998 8.9122s41.709-3.3093 57.998-8.9122c-2.06-14.386-27.228-25.702-57.998-25.702z"
     fill="none"
     stroke="#000"
     stroke-miterlimit="10"
     stroke-width="2"
     id="path1552" />
  <path
     transform="matrix(.81919 0 0 .81919 194.86 0)"
     d="m205.41 196.49c0 8.8502-7.1765 16.027-16.031 16.027s-16.031-7.1765-16.031-16.027c0-8.8549 7.1765-16.031 16.031-16.031s16.031 7.1765 16.031 16.031"
     fill="none"
     stroke="#000"
     stroke-miterlimit="10"
     stroke-width="2"
     id="path1554" />
  <path
     transform="matrix(.81919 0 0 .81919 194.86 0)"
     d="m205.41 410.45c0 8.8502-7.1765 16.031-16.031 16.031s-16.031-7.1812-16.031-16.031c0-8.8549 7.1765-16.031 16.031-16.031s16.031 7.1765 16.031 16.031"
     fill="none"
     stroke="#000"
     stroke-miterlimit="10"
     stroke-width="2"
     id="path1556" />
  <path
     id="path1558"
     d="m 349.99835,235.36157 -37.4442,-37.44421 c -20.67766,20.67767 -20.67998,54.20844 0,74.88841 z"
     style="font-variation-settings:normal;opacity:1;vector-effect:none;fill:none;fill-opacity:1;stroke:#000000;stroke-width:1.63838;stroke-linecap:butt;stroke-linejoin:miter;stroke-miterlimit:10;stroke-dasharray:none;stroke-dashoffset:0;stroke-opacity:1;-inkscape-stroke:none;stop-color:#000000;stop-opacity:1" />
  <path
     id="path17524"
     d="m 387.44152,197.9184 c -20.67998,-20.67997 -54.2074,-20.68101 -74.88737,-0.001 l 37.4442,37.44421 z"
     style="font-variation-settings:normal;opacity:1;vector-effect:none;fill:none;fill-opacity:1;stroke:#000000;stroke-width:1.63838;stroke-linecap:butt;stroke-linejoin:miter;stroke-miterlimit:10;stroke-dasharray:none;stroke-dashoffset:0;stroke-opacity:1;-inkscape-stroke:none;stop-color:#000000;stop-opacity:1" />
  <path
     id="path17193"
     d="m 387.44152,272.80474 -37.44317,-37.44317 -37.4442,37.4442 c 20.67997,20.67998 54.21029,20.67605 74.88737,-10e-4 z"
     style="font-variation-settings:normal;opacity:1;vector-effect:none;fill:none;fill-opacity:1;stroke:#000000;stroke-width:1.63838;stroke-linecap:butt;stroke-linejoin:miter;stroke-miterlimit:10;stroke-dasharray:none;stroke-dashoffset:0;stroke-opacity:1;-inkscape-stroke:none;stop-color:#000000;stop-opacity:1" />
  <path
     id="path17521"
     d="m 387.44152,197.9184 -37.44317,37.44317 37.44317,37.44317 c 20.67997,-20.67997 20.67997,-54.20636 0,-74.88634 z"
     style="font-variation-settings:normal;opacity:1;vector-effect:none;fill:none;fill-opacity:1;stroke:#000000;stroke-width:1.63838;stroke-linecap:butt;stroke-linejoin:miter;stroke-miterlimit:10;stroke-dasharray:none;stroke-dashoffset:0;stroke-opacity:1;-inkscape-stroke:none;stop-color:#000000;stop-opacity:1" />
  <path
     d="m346.55 158.67h6.8906v0.76172h-6.8906v-0.76172m0 1.918h6.8906v0.79687h-6.8906v-0.82031m0 1.918h6.8906v0.76172h-6.8906z"
     id="path1560" />
  <path
     d="m350 338.19 3.2188-2.5078 0.72266-0.55859-3.9414-3.0625-3.9414 3.0625 0.71094 0.55859m3.2266 3.6211-3.2266-2.5078-0.71094 0.55078 3.9414 3.0625 3.9414-3.0625-0.71094-0.55859z"
     id="path1562" />
  <path
     transform="matrix(.81919 0 0 .81919 194.86 0)"
     d="m192.05 436.62c0 3.562-5.3406 3.562-5.3406 0s5.3406-3.562 5.3406 0"
     fill="none"
     stroke="#000"
     stroke-miterlimit="10"
     stroke-width="2"
     id="path1564" />
  <path
     transform="matrix(.81919 0 0 .81919 194.86 0)"
     d="m258.56 287c0-24.715-13.185-47.555-34.59-59.915-21.405-12.355-47.775-12.355-69.18 0-21.405 12.36-34.59 35.2-34.59 59.915v30.451 0.2718-0.004769c0 24.715 13.185 47.555 34.59 59.91 21.405 12.36 47.775 12.36 69.18 0 21.405-12.355 34.59-35.196 34.59-59.91v-0.2718z"
     fill="none"
     stroke="#000"
     stroke-miterlimit="10"
     stroke-width="2"
     id="path1566" />
  <path
     transform="matrix(.81919 0 0 .81919 194.86 0)"
     d="m87.212 30.432s-77.382 70.749-85.331 103.67c-3.5 14.501 4.0007 26.002 12.498 29.502 12.002 5.0021 26.999-26.002 36.998-26.498 9.9994-0.50068 40.002 25.501 43.502 30.499 3.5 5.0021 13.499 29.002 14.501 40.002 0.79156 8.7119 17.901 301.68 25.001 423.1v-0.009537c0.8154 14.033 6.9667 27.223 17.195 36.874 10.223 9.6465 23.747 15.021 37.804 15.025"
     fill="none"
     stroke="#000"
     stroke-miterlimit="10"
     stroke-width="2"
     id="path1568" />
  <path
     transform="matrix(.81919 0 0 .81919 194.86 0)"
     d="m71.381 147.1c-9.9994 0.50068-25.001 31.5-36.998 26.498l-18.182-9.5178"
     fill="none"
     stroke="#000"
     stroke-miterlimit="10"
     stroke-width="2"
     id="path1570" />
  <path
     transform="matrix(.81919 0 0 .81919 194.86 0)"
     d="m291.55 30.432s77.391 70.749 85.331 103.67c3.5 14.501-4.0007 26.002-12.498 29.502-12.002 5.0021-26.999-26.002-36.998-26.498-9.9994-0.50068-40.002 25.501-43.502 30.499-3.5 5.0021-13.499 29.002-14.501 40.002-0.79156 8.7119-17.901 301.68-25.001 423.1v-0.009537c-0.8154 14.033-6.9667 27.223-17.195 36.874-10.223 9.6465-23.747 15.021-37.804 15.025"
     fill="none"
     stroke="#000"
     stroke-miterlimit="10"
     stroke-width="2"
     id="path1572" />
  <path
     transform="matrix(.81919 0 0 .81919 194.86 0)"
     d="m307.38 147.1c9.9994 0.50068 25.001 31.5 36.998 26.498l18.182-9.5178"
     fill="none"
     stroke="#000"
     stroke-miterlimit="10"
     stroke-width="2"
     id="path1574" />
</svg>
