<?xml version="1.0" encoding="UTF-8" standalone="no"?>
<!-- Created with Inkscape (http://www.inkscape.org/) -->

<svg
   width="81.249252mm"
   height="79.319557mm"
   viewBox="0 0 81.249252 79.319557"
   version="1.1"
   id="svg22176"
   inkscape:version="1.1.2 (1:1.1+202202050950+0a00cf5339)"
   sodipodi:docname="Vr-sequence-stickman.svg"
   xmlns:inkscape="http://www.inkscape.org/namespaces/inkscape"
   xmlns:sodipodi="http://sodipodi.sourceforge.net/DTD/sodipodi-0.dtd"
   xmlns="http://www.w3.org/2000/svg"
   xmlns:svg="http://www.w3.org/2000/svg">
  <sodipodi:namedview
     id="namedview22178"
     pagecolor="#ffffff"
     bordercolor="#666666"
     borderopacity="1.0"
     inkscape:pageshadow="2"
     inkscape:pageopacity="0.0"
     inkscape:pagecheckerboard="0"
     inkscape:document-units="mm"
     showgrid="false"
     lock-margins="true"
     fit-margin-top="5"
     fit-margin-left="5"
     fit-margin-right="5"
     fit-margin-bottom="5"
     inkscape:zoom="0.78769952"
     inkscape:cx="116.79581"
     inkscape:cy="197.4103"
     inkscape:window-width="1366"
     inkscape:window-height="704"
     inkscape:window-x="0"
     inkscape:window-y="27"
     inkscape:window-maximized="1"
     inkscape:current-layer="layer1" />
  <defs
     id="defs22173" />
  <g
     inkscape:label="Calque 1"
     inkscape:groupmode="layer"
     id="layer1"
     transform="translate(-76.963127,-87.625939)">
    <path
       id="path1743"
       style="fill:#0d0d0d;fill-opacity:1;stroke:#0d0d0d;stroke-width:0.420749;stroke-miterlimit:10;stroke-opacity:1;-inkscape-stroke:none;paint-order:markers fill stroke;stop-color:#000000"
       d="m 113.50468,117.62496 c -6.73605,-2.59532 -13.12583,-2.28777 -15.72116,4.4483 l -7.04889,18.29509 24.39344,9.39852 7.04888,-18.29509 c 2.59534,-6.73607 -1.93621,-11.25148 -8.67227,-13.84682 z"
       sodipodi:nodetypes="ssccss" />
    <path
       id="path1745"
       style="fill:#0d0d0d;fill-opacity:1;stroke:#0d0d0d;stroke-width:0.51102;stroke-miterlimit:10;stroke-opacity:1;paint-order:markers fill stroke;stop-color:#000000"
       d="M 124.38848,104.7877 A 11.906252,11.906252 0 0 1 112.48223,116.69395 11.906252,11.906252 0 0 1 100.57598,104.7877 11.906252,11.906252 0 0 1 112.48223,92.881449 11.906252,11.906252 0 0 1 124.38848,104.7877 Z" />
    <rect
       style="fill:#0d0d0d;fill-opacity:1;stroke:#0d0d0d;stroke-width:0.544749;stroke-miterlimit:10;stroke-opacity:1;-inkscape-stroke:none;paint-order:markers fill stroke;stop-color:#000000"
       id="rect1749"
       width="7.2159081"
       height="19.843746"
       x="109.8364"
       y="141.82938" />
    <rect
       style="fill:#0d0d0d;fill-opacity:1;stroke:#0d0d0d;stroke-width:0.544749;stroke-miterlimit:10;stroke-opacity:1;-inkscape-stroke:none;paint-order:markers fill stroke;stop-color:#000000"
       id="rect1753"
       width="7.2159081"
       height="19.843746"
       x="165.32806"
       y="18.815506"
       transform="rotate(47.826034)" />
    <rect
       style="fill:#0d0d0d;fill-opacity:1;stroke:#0d0d0d;stroke-width:0.556432;stroke-miterlimit:10;stroke-opacity:1;-inkscape-stroke:none;paint-order:markers fill stroke;stop-color:#000000"
       id="rect1755"
       width="5.9284163"
       height="25.200369"
       x="101.83543"
       y="-160.56978"
       transform="matrix(-0.13450777,0.99091254,-0.98780603,-0.15568961,0,0)" />
    <path
       id="rect1757"
       style="fill:#0d0d0d;fill-opacity:1;stroke:#0d0d0d;stroke-width:0.556368;stroke-miterlimit:10;stroke-opacity:1;paint-order:markers fill stroke;stop-color:#000000"
       d="m 104.01924,117.43399 -0.79742,5.87455 c 0,0 -11.410036,-2.92184 -14.552089,-6.61459 -3.142043,-3.69274 -3.443254,-12.64629 -3.443254,-12.64629 l 6.089094,-1.90579 c 0,0 0,7.9375 1.322915,10.58333 1.322914,2.64584 11.380754,4.70879 11.380754,4.70879 z"
       sodipodi:nodetypes="cczcczc" />
    <path
       style="fill:#3c3c3c;fill-opacity:1;stroke:#646464;stroke-width:1;stroke-linecap:butt;stroke-linejoin:miter;stroke-miterlimit:4;stroke-dasharray:none;stroke-opacity:1"
       d="m 144.23223,133.89187 c 0,0 0,-9.26042 0,-10.58333 0,-1.32292 2.57427,-1.32292 3.96875,-1.32292 1.39448,0 3.30323,0.39955 3.96875,1.32292 0.66552,0.92336 0.77954,1.86629 0,2.64583 -0.77954,0.77953 -3.96875,0 -3.96875,0 0,0 -0.34124,5.32931 -1.32292,6.61458 -0.98168,1.28527 -2.64583,1.32292 -2.64583,1.32292 z"
       id="path3118"
       sodipodi:nodetypes="czzzzczc" />
    <path
       style="fill:#3c3c3c;fill-opacity:1;stroke:#646464;stroke-width:1;stroke-linecap:butt;stroke-linejoin:miter;stroke-miterlimit:4;stroke-dasharray:none;stroke-opacity:1"
       d="m 84.70098,104.7877 c 0,0 7.09102,-5.955905 8.10402,-6.806745 1.013,-0.850846 2.66867,1.120363 3.56553,2.188165 0.89688,1.0678 1.81855,2.78637 1.53954,3.88985 -0.27903,1.10348 -0.92773,1.79724 -2.02601,1.70169 -1.09828,-0.0956 -2.55253,-3.03901 -2.55253,-3.03901 0,0 -4.30031,3.16629 -5.91586,3.24121 -1.61555,0.0749 -2.71469,-1.17516 -2.71469,-1.17516 z"
       id="path4671"
       sodipodi:nodetypes="czzzzczc" />
    <path
       style="font-variation-settings:normal;vector-effect:none;fill:#3c3c3c;fill-opacity:1;stroke:#646464;stroke-width:1;stroke-linecap:butt;stroke-linejoin:miter;stroke-miterlimit:4;stroke-dasharray:none;stroke-dashoffset:0;stroke-opacity:1;-inkscape-stroke:none;stop-color:#000000"
       d="m 124.38848,99.496035 c 0,0 -7.93138,1.985345 -11.90625,2.645835 -3.97486,0.66049 -11.90625,1.32292 -11.90625,1.32292 v 3.96875 c 0,0 9.26042,0 13.22917,-1.32292 l 1.32291,2.64583 h 9.26042 l 1.32292,-5.29166 z"
       id="path4706"
       sodipodi:nodetypes="czccccccc" />
    <path
       style="font-variation-settings:normal;vector-effect:none;fill:#0d0d0d;fill-opacity:1;stroke:#3c3c3c;stroke-width:0.953463;stroke-linecap:butt;stroke-linejoin:miter;stroke-miterlimit:4;stroke-dasharray:none;stroke-dashoffset:0;stroke-opacity:1;-inkscape-stroke:none;stop-color:#000000"
       d="m 118.87656,99.113006 c 1.38336,-0.759253 5.15492,-0.778891 6.71176,-0.389094 1.55684,0.389797 1.52016,-0.129672 2.47988,1.515568 0.95972,1.64525 0.83577,6.7205 0.28903,8.51697 -0.54674,1.79648 -0.42632,1.54534 -1.60569,2.22652 -1.17937,0.68117 -4.04439,0.85787 -5.39866,0.55002 -1.35427,-0.30786 -1.37207,0.0954 -2.47989,-1.51558 -1.10782,-1.611 -2.02501,-6.79656 -1.60211,-8.67789 0.4229,-1.881328 0.22232,-1.467261 1.60568,-2.226514 z"
       id="path5604"
       sodipodi:nodetypes="zzzzzzzzz" />
  </g>
</svg>
