<?xml version="1.0" encoding="UTF-8" standalone="no"?>
<!-- Created with matplotlib (https://matplotlib.org/) -->

<svg
   height="304.8317pt"
   version="1.1"
   viewBox="0 0 550.43387 304.83169"
   width="550.4339pt"
   id="svg680"
   sodipodi:docname="leven-dist-VR-Comp.svg"
   inkscape:version="1.1.2 (1:1.1+202202050950+0a00cf5339)"
   xmlns:inkscape="http://www.inkscape.org/namespaces/inkscape"
   xmlns:sodipodi="http://sodipodi.sourceforge.net/DTD/sodipodi-0.dtd"
   xmlns:xlink="http://www.w3.org/1999/xlink"
   xmlns="http://www.w3.org/2000/svg"
   xmlns:svg="http://www.w3.org/2000/svg">
  <sodipodi:namedview
     id="namedview682"
     pagecolor="#ffffff"
     bordercolor="#666666"
     borderopacity="1.0"
     inkscape:pageshadow="2"
     inkscape:pageopacity="0.0"
     inkscape:pagecheckerboard="0"
     inkscape:document-units="pt"
     showgrid="false"
     inkscape:zoom="1.0957934"
     inkscape:cx="150.57583"
     inkscape:cy="168.37115"
     inkscape:window-width="1366"
     inkscape:window-height="704"
     inkscape:window-x="0"
     inkscape:window-y="27"
     inkscape:window-maximized="1"
     inkscape:current-layer="svg680"
     height="304.8317pt" />
  <defs
     id="defs4">
    <style
       type="text/css"
       id="style2">
*{stroke-linecap:butt;stroke-linejoin:round;}
  </style>
    <path
       d="M 9.421875,75.984375 H 18.40625 V 0 H 9.421875 Z"
       id="DejaVuSans-108-7" />
    <path
       d="m 56.203125,29.59375 v -4.390625 h -41.3125 q 0.59375,-9.28125 5.59375,-14.140625 5,-4.859375 13.9375,-4.859375 5.171875,0 10.03125,1.265625 4.859375,1.265625 9.65625,3.8125 v -8.5 q -4.84375,-2.046875 -9.921875,-3.125 -5.078125,-1.078125 -10.296875,-1.078125 -13.09375,0 -20.734375,7.609375 -7.640625,7.625 -7.640625,20.625 0,13.421875 7.25,21.296875 Q 20.015625,56 32.328125,56 q 11.03125,0 17.453125,-7.109375 6.421875,-7.09375 6.421875,-19.296875 z m -8.984375,2.640625 q -0.09375,7.359375 -4.125,11.75 -4.03125,4.40625 -10.671875,4.40625 -7.515625,0 -12.03125,-4.25 -4.515625,-4.25 -5.203125,-11.96875 z"
       id="DejaVuSans-101-5" />
    <path
       d="M 2.984375,54.6875 H 12.5 L 29.59375,8.796875 46.6875,54.6875 h 9.515625 L 35.6875,0 H 23.484375 Z"
       id="DejaVuSans-118-3" />
    <path
       d="M 54.890625,33.015625 V 0 H 45.90625 v 32.71875 q 0,7.765625 -3.03125,11.609375 -3.03125,3.859375 -9.078125,3.859375 -7.28125,0 -11.484375,-4.640625 -4.203125,-4.625 -4.203125,-12.640625 V 0 h -9.03125 v 54.6875 h 9.03125 v -8.5 q 3.234375,4.9375 7.59375,7.375 4.375,2.4375 10.09375,2.4375 9.421875,0 14.25,-5.828125 4.84375,-5.828125 4.84375,-17.15625 z"
       id="DejaVuSans-110-5" />
    <path
       d="M 19.671875,64.796875 V 8.109375 H 31.59375 q 15.09375,0 22.09375,6.828125 7,6.84375 7,21.59375 0,14.640625 -7,21.453125 -7,6.8125 -22.09375,6.8125 z M 9.8125,72.90625 h 20.265625 q 21.1875,0 31.09375,-8.8125 9.921875,-8.8125 9.921875,-27.5625 0,-18.859375 -9.96875,-27.703125 Q 51.171875,0 30.078125,0 H 9.8125 Z"
       id="DejaVuSans-68-6" />
    <path
       d="M 9.421875,54.6875 H 18.40625 V 0 H 9.421875 Z m 0,21.296875 H 18.40625 V 64.59375 H 9.421875 Z"
       id="DejaVuSans-105-2" />
    <path
       d="m 44.28125,53.078125 v -8.5 Q 40.484375,46.53125 36.375,47.5 q -4.09375,0.984375 -8.5,0.984375 -6.6875,0 -10.03125,-2.046875 Q 14.5,44.390625 14.5,40.28125 q 0,-3.125 2.390625,-4.90625 2.390625,-1.78125 9.625,-3.390625 l 3.078125,-0.6875 Q 39.15625,29.25 43.1875,25.515625 47.21875,21.78125 47.21875,15.09375 q 0,-7.625 -6.03125,-12.078125 -6.03125,-4.4375 -16.578125,-4.4375 -4.390625,0 -9.15625,0.859375 Q 10.6875,0.296875 5.421875,2 v 9.28125 q 4.984375,-2.59375 9.8125,-3.890625 4.828125,-1.28125 9.578125,-1.28125 6.34375,0 9.75,2.171875 3.421875,2.171875 3.421875,6.125 0,3.65625 -2.46875,5.609375 -2.453125,1.953125 -10.8125,3.765625 l -3.125,0.734375 q -8.34375,1.75 -12.0625,5.390625 -3.703125,3.640625 -3.703125,9.984375 0,7.71875 5.46875,11.90625 Q 16.75,56 26.8125,56 q 4.96875,0 9.359375,-0.734375 4.40625,-0.71875 8.109375,-2.1875 z"
       id="DejaVuSans-115-9" />
    <path
       d="M 18.3125,70.21875 V 54.6875 h 18.5 v -6.984375 h -18.5 v -29.6875 q 0,-6.6875 1.828125,-8.59375 1.828125,-1.90625 7.453125,-1.90625 H 36.8125 V 0 H 27.59375 Q 17.1875,0 13.234375,3.875 9.28125,7.765625 9.28125,18.015625 v 29.6875 H 2.6875 V 54.6875 h 6.59375 v 15.53125 z"
       id="DejaVuSans-116-1" />
    <path
       d="M 9.421875,75.984375 H 18.40625 V 0 H 9.421875 Z"
       id="DejaVuSans-108-79" />
    <path
       d="m 56.203125,29.59375 v -4.390625 h -41.3125 q 0.59375,-9.28125 5.59375,-14.140625 5,-4.859375 13.9375,-4.859375 5.171875,0 10.03125,1.265625 4.859375,1.265625 9.65625,3.8125 v -8.5 q -4.84375,-2.046875 -9.921875,-3.125 -5.078125,-1.078125 -10.296875,-1.078125 -13.09375,0 -20.734375,7.609375 -7.640625,7.625 -7.640625,20.625 0,13.421875 7.25,21.296875 Q 20.015625,56 32.328125,56 q 11.03125,0 17.453125,-7.109375 6.421875,-7.09375 6.421875,-19.296875 z m -8.984375,2.640625 q -0.09375,7.359375 -4.125,11.75 -4.03125,4.40625 -10.671875,4.40625 -7.515625,0 -12.03125,-4.25 -4.515625,-4.25 -5.203125,-11.96875 z"
       id="DejaVuSans-101-2" />
    <path
       d="M 2.984375,54.6875 H 12.5 L 29.59375,8.796875 46.6875,54.6875 h 9.515625 L 35.6875,0 H 23.484375 Z"
       id="DejaVuSans-118-0" />
    <path
       d="M 54.890625,33.015625 V 0 H 45.90625 v 32.71875 q 0,7.765625 -3.03125,11.609375 -3.03125,3.859375 -9.078125,3.859375 -7.28125,0 -11.484375,-4.640625 -4.203125,-4.625 -4.203125,-12.640625 V 0 h -9.03125 v 54.6875 h 9.03125 v -8.5 q 3.234375,4.9375 7.59375,7.375 4.375,2.4375 10.09375,2.4375 9.421875,0 14.25,-5.828125 4.84375,-5.828125 4.84375,-17.15625 z"
       id="DejaVuSans-110-2" />
    <path
       d="M 19.671875,64.796875 V 8.109375 H 31.59375 q 15.09375,0 22.09375,6.828125 7,6.84375 7,21.59375 0,14.640625 -7,21.453125 -7,6.8125 -22.09375,6.8125 z M 9.8125,72.90625 h 20.265625 q 21.1875,0 31.09375,-8.8125 9.921875,-8.8125 9.921875,-27.5625 0,-18.859375 -9.96875,-27.703125 Q 51.171875,0 30.078125,0 H 9.8125 Z"
       id="DejaVuSans-68-3" />
    <path
       d="M 9.421875,54.6875 H 18.40625 V 0 H 9.421875 Z m 0,21.296875 H 18.40625 V 64.59375 H 9.421875 Z"
       id="DejaVuSans-105-7" />
    <path
       d="m 44.28125,53.078125 v -8.5 Q 40.484375,46.53125 36.375,47.5 q -4.09375,0.984375 -8.5,0.984375 -6.6875,0 -10.03125,-2.046875 Q 14.5,44.390625 14.5,40.28125 q 0,-3.125 2.390625,-4.90625 2.390625,-1.78125 9.625,-3.390625 l 3.078125,-0.6875 Q 39.15625,29.25 43.1875,25.515625 47.21875,21.78125 47.21875,15.09375 q 0,-7.625 -6.03125,-12.078125 -6.03125,-4.4375 -16.578125,-4.4375 -4.390625,0 -9.15625,0.859375 Q 10.6875,0.296875 5.421875,2 v 9.28125 q 4.984375,-2.59375 9.8125,-3.890625 4.828125,-1.28125 9.578125,-1.28125 6.34375,0 9.75,2.171875 3.421875,2.171875 3.421875,6.125 0,3.65625 -2.46875,5.609375 -2.453125,1.953125 -10.8125,3.765625 l -3.125,0.734375 q -8.34375,1.75 -12.0625,5.390625 -3.703125,3.640625 -3.703125,9.984375 0,7.71875 5.46875,11.90625 Q 16.75,56 26.8125,56 q 4.96875,0 9.359375,-0.734375 4.40625,-0.71875 8.109375,-2.1875 z"
       id="DejaVuSans-115-5" />
    <path
       d="M 18.3125,70.21875 V 54.6875 h 18.5 v -6.984375 h -18.5 v -29.6875 q 0,-6.6875 1.828125,-8.59375 1.828125,-1.90625 7.453125,-1.90625 H 36.8125 V 0 H 27.59375 Q 17.1875,0 13.234375,3.875 9.28125,7.765625 9.28125,18.015625 v 29.6875 H 2.6875 V 54.6875 h 6.59375 v 15.53125 z"
       id="DejaVuSans-116-9" />
    <path
       d="m 9.8125,72.90625 h 9.859375 V 8.296875 h 35.5 V 0 H 9.8125 Z"
       id="DejaVuSans-76-7" />
    <path
       d="m 34.28125,27.484375 q -10.890625,0 -15.09375,-2.484375 -4.203125,-2.484375 -4.203125,-8.5 0,-4.78125 3.15625,-7.59375 3.15625,-2.796875 8.5625,-2.796875 7.484375,0 12,5.296875 4.515625,5.296875 4.515625,14.078125 v 2 z m 17.921875,3.71875 V 0 H 43.21875 v 8.296875 q -3.078125,-4.96875 -7.671875,-7.34375 -4.59375,-2.375 -11.234375,-2.375 -8.390625,0 -13.359375,4.71875 Q 6,8.015625 6,15.921875 q 0,9.21875 6.171875,13.90625 6.1875,4.6875 18.4375,4.6875 H 43.21875 v 0.890625 q 0,6.203125 -4.078125,9.59375 -4.078125,3.390625 -11.453125,3.390625 -4.6875,0 -9.140625,-1.125 -4.4375,-1.125 -8.53125,-3.375 v 8.3125 q 4.921875,1.90625 9.5625,2.84375 Q 24.21875,56 28.609375,56 q 11.875,0 17.734375,-6.15625 5.859375,-6.140625 5.859375,-18.640625 z"
       id="DejaVuSans-97-5" />
    <path
       d="M 28.609375,0 0.78125,72.90625 h 10.296875 l 23.109375,-61.375 23.140625,61.375 h 10.25 L 39.796875,0 Z"
       id="DejaVuSans-86-3" />
    <path
       d="m 44.390625,34.1875 q 3.171875,-1.078125 6.171875,-4.59375 3,-3.515625 6.03125,-9.671875 L 66.609375,0 H 56 l -9.3125,18.703125 q -3.625,7.328125 -7.015625,9.71875 -3.390625,2.390625 -9.25,2.390625 h -10.75 V 0 H 9.8125 v 72.90625 h 22.265625 q 12.5,0 18.65625,-5.234375 6.15625,-5.21875 6.15625,-15.765625 0,-6.890625 -3.203125,-11.4375 -3.203125,-4.53125 -9.296875,-6.28125 z m -24.71875,30.609375 v -25.875 h 12.40625 q 7.125,0 10.765625,3.296875 3.640625,3.296875 3.640625,9.6875 0,6.390625 -3.640625,9.640625 -3.640625,3.25 -10.765625,3.25 z"
       id="DejaVuSans-82-5" />
    <path
       d="M 64.40625,67.28125 V 56.890625 q -4.984375,4.640625 -10.625,6.921875 -5.640625,2.296875 -11.984375,2.296875 -12.5,0 -19.140625,-7.640625 -6.640625,-7.640625 -6.640625,-22.09375 0,-14.40625 6.640625,-22.046875 Q 29.296875,6.6875 41.796875,6.6875 q 6.34375,0 11.984375,2.296875 5.640625,2.296875 10.625,6.9375 V 5.609375 Q 59.234375,2.09375 53.4375,0.328125 q -5.78125,-1.75 -12.21875,-1.75 -16.5625,0 -26.09375,10.125 Q 5.609375,18.84375 5.609375,36.375 q 0,17.578125 9.515625,27.703125 9.53125,10.140625 26.09375,10.140625 6.53125,0 12.3125,-1.734375 5.796875,-1.734375 10.875,-5.203125 z"
       id="DejaVuSans-67-6" />
    <path
       d="M 52,44.1875 Q 55.375,50.25 60.0625,53.125 64.75,56 71.09375,56 q 8.546875,0 13.1875,-5.984375 4.640625,-5.96875 4.640625,-17 V 0 h -9.03125 v 32.71875 q 0,7.859375 -2.796875,11.65625 -2.78125,3.8125 -8.484375,3.8125 -6.984375,0 -11.046875,-4.640625 -4.046875,-4.625 -4.046875,-12.640625 V 0 h -9.03125 v 32.71875 q 0,7.90625 -2.78125,11.6875 -2.78125,3.78125 -8.59375,3.78125 -6.890625,0 -10.953125,-4.65625 -4.046875,-4.65625 -4.046875,-12.625 V 0 h -9.03125 v 54.6875 h 9.03125 v -8.5 q 3.078125,5.03125 7.375,7.421875 Q 29.78125,56 35.6875,56 41.65625,56 45.828125,52.96875 50,49.953125 52,44.1875 Z"
       id="DejaVuSans-109-2" />
    <path
       d="m 18.109375,8.203125 v -29 H 9.078125 V 54.6875 h 9.03125 v -8.296875 q 2.84375,4.875 7.15625,7.234375 Q 29.59375,56 35.59375,56 q 9.96875,0 16.1875,-7.90625 6.234375,-7.90625 6.234375,-20.796875 0,-12.890625 -6.234375,-20.8125 -6.21875,-7.90625 -16.1875,-7.90625 -6,0 -10.328125,2.375 -4.3125,2.375 -7.15625,7.25 z M 48.6875,27.296875 q 0,9.90625 -4.078125,15.546875 -4.078125,5.640625 -11.203125,5.640625 -7.140625,0 -11.21875,-5.640625 -4.078125,-5.640625 -4.078125,-15.546875 0,-9.90625 4.078125,-15.546875 4.078125,-5.640625 11.21875,-5.640625 7.125,0 11.203125,5.640625 4.078125,5.640625 4.078125,15.546875 z"
       id="DejaVuSans-112-9" />
    <path
       d="M 54.890625,33.015625 V 0 H 45.90625 v 32.71875 q 0,7.765625 -3.03125,11.609375 -3.03125,3.859375 -9.078125,3.859375 -7.28125,0 -11.484375,-4.640625 -4.203125,-4.625 -4.203125,-12.640625 V 0 h -9.03125 v 75.984375 h 9.03125 V 46.1875 q 3.234375,4.9375 7.59375,7.375 4.375,2.4375 10.09375,2.4375 9.421875,0 14.25,-5.828125 4.84375,-5.828125 4.84375,-17.15625 z"
       id="DejaVuSans-104-1" />
    <path
       d="M 37.109375,75.984375 V 68.5 h -8.59375 q -4.828125,0 -6.71875,-1.953125 -1.875,-1.953125 -1.875,-7.03125 V 54.6875 H 34.71875 V 47.703125 H 19.921875 V 0 h -9.03125 V 47.703125 H 2.296875 V 54.6875 h 8.59375 V 58.5 q 0,9.125 4.25,13.296875 4.25,4.1875 13.46875,4.1875 z"
       id="DejaVuSans-102-2" />
    <path
       d="m 14.796875,27.296875 q 0,-9.90625 4.078125,-15.546875 4.078125,-5.640625 11.203125,-5.640625 7.125,0 11.21875,5.640625 4.109375,5.640625 4.109375,15.546875 0,9.90625 -4.109375,15.546875 -4.09375,5.640625 -11.21875,5.640625 -7.125,0 -11.203125,-5.640625 -4.078125,-5.640625 -4.078125,-15.546875 z M 45.40625,8.203125 q -2.828125,-4.875 -7.15625,-7.25 -4.3125,-2.375 -10.375,-2.375 -9.90625,0 -16.140625,7.90625 -6.21875,7.921875 -6.21875,20.8125 0,12.890625 6.21875,20.796875 Q 17.96875,56 27.875,56 q 6.0625,0 10.375,-2.375 4.328125,-2.359375 7.15625,-7.234375 V 54.6875 h 8.984375 V -20.796875 H 45.40625 Z"
       id="DejaVuSans-113-7" />
    <path
       d="m 39.40625,66.21875 q -10.75,0 -17.078125,-8.015625 -6.3125,-8 -6.3125,-21.828125 0,-13.765625 6.3125,-21.78125 6.328125,-8 17.078125,-8 10.734375,0 17.015625,8 6.28125,8.015625 6.28125,21.78125 0,13.828125 -6.28125,21.828125 -6.28125,8.015625 -17.015625,8.015625 z m 0,8 q 15.328125,0 24.5,-10.28125 9.1875,-10.28125 9.1875,-27.5625 0,-17.234375 -9.1875,-27.515625 -9.171875,-10.28125 -24.5,-10.28125 -15.375,0 -24.59375,10.25 Q 5.609375,19.09375 5.609375,36.375 q 0,17.28125 9.203125,27.5625 9.21875,10.28125 24.59375,10.28125 z"
       id="DejaVuSans-79-5" />
    <path
       d="m 41.109375,46.296875 q -1.515625,0.875 -3.296875,1.28125 Q 36.03125,48 33.890625,48 26.265625,48 22.1875,43.046875 18.109375,38.09375 18.109375,28.8125 V 0 h -9.03125 v 54.6875 h 9.03125 v -8.5 q 2.84375,4.984375 7.375,7.390625 Q 30.03125,56 36.53125,56 q 0.921875,0 2.046875,-0.125 1.125,-0.109375 2.484375,-0.359375 z"
       id="DejaVuSans-114-3" />
    <path
       d="m 45.40625,46.390625 v 29.59375 h 8.984375 V 0 H 45.40625 v 8.203125 q -2.828125,-4.875 -7.15625,-7.25 -4.3125,-2.375 -10.375,-2.375 -9.90625,0 -16.140625,7.90625 -6.21875,7.921875 -6.21875,20.8125 0,12.890625 6.21875,20.796875 Q 17.96875,56 27.875,56 q 6.0625,0 10.375,-2.375 4.328125,-2.359375 7.15625,-7.234375 z M 14.796875,27.296875 q 0,-9.90625 4.078125,-15.546875 4.078125,-5.640625 11.203125,-5.640625 7.125,0 11.21875,5.640625 4.109375,5.640625 4.109375,15.546875 0,9.90625 -4.109375,15.546875 -4.09375,5.640625 -11.21875,5.640625 -7.125,0 -11.203125,-5.640625 -4.078125,-5.640625 -4.078125,-15.546875 z"
       id="DejaVuSans-100-5" />
    <path
       id="DejaVuSans-32-6"
       d="" />
    <path
       d="M 10.59375,45.40625 H 73.1875 V 37.203125 H 10.59375 Z m 0,-19.921875 H 73.1875 V 17.1875 H 10.59375 Z"
       id="DejaVuSans-61-2" />
    <path
       d="M 64.40625,67.28125 V 56.890625 q -4.984375,4.640625 -10.625,6.921875 -5.640625,2.296875 -11.984375,2.296875 -12.5,0 -19.140625,-7.640625 -6.640625,-7.640625 -6.640625,-22.09375 0,-14.40625 6.640625,-22.046875 Q 29.296875,6.6875 41.796875,6.6875 q 6.34375,0 11.984375,2.296875 5.640625,2.296875 10.625,6.9375 V 5.609375 Q 59.234375,2.09375 53.4375,0.328125 q -5.78125,-1.75 -12.21875,-1.75 -16.5625,0 -26.09375,10.125 Q 5.609375,18.84375 5.609375,36.375 q 0,17.578125 9.515625,27.703125 9.53125,10.140625 26.09375,10.140625 6.53125,0 12.3125,-1.734375 5.796875,-1.734375 10.875,-5.203125 z"
       id="DejaVuSans-67" />
    <path
       d="M 8.5,21.578125 V 54.6875 h 8.984375 V 21.921875 q 0,-7.765625 3.015625,-11.65625 3.03125,-3.875 9.09375,-3.875 7.265625,0 11.484375,4.640625 4.234375,4.640625 4.234375,12.65625 v 31 h 8.984375 V 0 H 45.3125 V 8.40625 Q 42.046875,3.421875 37.71875,1 33.40625,-1.421875 27.6875,-1.421875 18.265625,-1.421875 13.375,4.4375 8.5,10.296875 8.5,21.578125 Z M 31.109375,56 Z"
       id="DejaVuSans-117-6" />
    <path
       d="M 54.890625,33.015625 V 0 H 45.90625 v 32.71875 q 0,7.765625 -3.03125,11.609375 -3.03125,3.859375 -9.078125,3.859375 -7.28125,0 -11.484375,-4.640625 -4.203125,-4.625 -4.203125,-12.640625 V 0 h -9.03125 v 54.6875 h 9.03125 v -8.5 q 3.234375,4.9375 7.59375,7.375 4.375,2.4375 10.09375,2.4375 9.421875,0 14.25,-5.828125 4.84375,-5.828125 4.84375,-17.15625 z"
       id="DejaVuSans-110" />
  </defs>
  <g
     id="patch_2"
     transform="translate(2.1844356,12)">
    <path
       d="m 46.31125,249.872 h 218.3745 V 38.88 H 46.31125 Z"
       style="fill:#ffffff"
       id="path9" />
  </g>
  <g
     id="ytick_1"
     transform="translate(2.1844356,12)">
    <g
       id="line2d_1">
      <path
         clip-path="url(#pf7848a4127)"
         d="m 46.31125,249.872 h 218.3745"
         style="fill:none;stroke:#cccccc;stroke-linecap:round"
         id="path107" />
    </g>
    <g
       id="text_9">
      <!-- 0 -->
      <defs
         id="defs111">
        <path
           d="m 31.78125,66.40625 q -7.609375,0 -11.453125,-7.5 Q 16.5,51.421875 16.5,36.375 q 0,-14.984375 3.828125,-22.484375 3.84375,-7.5 11.453125,-7.5 7.671875,0 11.5,7.5 3.84375,7.5 3.84375,22.484375 0,15.046875 -3.84375,22.53125 -3.828125,7.5 -11.5,7.5 z m 0,7.8125 q 12.265625,0 18.734375,-9.703125 6.46875,-9.6875 6.46875,-28.140625 0,-18.40625 -6.46875,-28.109375 -6.46875,-9.6875 -18.734375,-9.6875 -12.25,0 -18.71875,9.6875 Q 6.59375,17.96875 6.59375,36.375 q 0,18.453125 6.46875,28.140625 6.46875,9.703125 18.71875,9.703125 z"
           id="DejaVuSans-48" />
      </defs>
      <g
         style="fill:#262626"
         transform="matrix(0.11,0,0,-0.11,29.8125,254.05114)"
         id="g115">
        <use
           xlink:href="#DejaVuSans-48"
           id="use113"
           x="0"
           y="0"
           width="100%"
           height="100%" />
      </g>
    </g>
  </g>
  <g
     id="ytick_2"
     transform="translate(2.1844356,12)">
    <g
       id="line2d_2">
      <path
         clip-path="url(#pf7848a4127)"
         d="m 46.31125,218.95742 h 218.3745"
         style="fill:none;stroke:#cccccc;stroke-linecap:round"
         id="path119" />
    </g>
    <g
       id="text_10">
      <!-- 2 -->
      <g
         style="fill:#262626"
         transform="matrix(0.11,0,0,-0.11,29.8125,223.13656)"
         id="g124">
        <use
           xlink:href="#DejaVuSans-50"
           id="use122"
           x="0"
           y="0"
           width="100%"
           height="100%" />
      </g>
    </g>
  </g>
  <g
     id="ytick_3"
     transform="translate(2.1844356,12)">
    <g
       id="line2d_3">
      <path
         clip-path="url(#pf7848a4127)"
         d="m 46.31125,188.04284 h 218.3745"
         style="fill:none;stroke:#cccccc;stroke-linecap:round"
         id="path128" />
    </g>
    <g
       id="text_11">
      <!-- 4 -->
      <g
         style="fill:#262626"
         transform="matrix(0.11,0,0,-0.11,29.8125,192.22198)"
         id="g133">
        <use
           xlink:href="#DejaVuSans-52"
           id="use131"
           x="0"
           y="0"
           width="100%"
           height="100%" />
      </g>
    </g>
  </g>
  <g
     id="ytick_4"
     transform="translate(2.1844356,12)">
    <g
       id="line2d_4">
      <path
         clip-path="url(#pf7848a4127)"
         d="m 46.31125,157.12826 h 218.3745"
         style="fill:none;stroke:#cccccc;stroke-linecap:round"
         id="path137" />
    </g>
    <g
       id="text_12">
      <!-- 6 -->
      <g
         style="fill:#262626"
         transform="matrix(0.11,0,0,-0.11,29.8125,161.3074)"
         id="g142">
        <use
           xlink:href="#DejaVuSans-54"
           id="use140"
           x="0"
           y="0"
           width="100%"
           height="100%" />
      </g>
    </g>
  </g>
  <g
     id="ytick_5"
     transform="translate(2.1844356,12)">
    <g
       id="line2d_5">
      <path
         clip-path="url(#pf7848a4127)"
         d="m 46.31125,126.21368 h 218.3745"
         style="fill:none;stroke:#cccccc;stroke-linecap:round"
         id="path146" />
    </g>
    <g
       id="text_13">
      <!-- 8 -->
      <defs
         id="defs150">
        <path
           d="m 31.78125,34.625 q -7.03125,0 -11.0625,-3.765625 -4.015625,-3.765625 -4.015625,-10.34375 0,-6.59375 4.015625,-10.359375 4.03125,-3.765625 11.0625,-3.765625 7.03125,0 11.078125,3.78125 4.0625,3.796875 4.0625,10.34375 0,6.578125 -4.03125,10.34375 Q 38.875,34.625 31.78125,34.625 Z m -9.859375,4.1875 Q 15.578125,40.375 12.03125,44.71875 8.5,49.078125 8.5,55.328125 q 0,8.734375 6.21875,13.8125 6.234375,5.078125 17.0625,5.078125 10.890625,0 17.09375,-5.078125 6.203125,-5.078125 6.203125,-13.8125 0,-6.25 -3.546875,-10.609375 Q 48,40.375 41.703125,38.8125 q 7.125,-1.65625 11.09375,-6.5 3.984375,-4.828125 3.984375,-11.796875 0,-10.609375 -6.46875,-16.28125 -6.46875,-5.65625 -18.53125,-5.65625 -12.046875,0 -18.53125,5.65625 -6.46875,5.671875 -6.46875,16.28125 0,6.96875 4,11.796875 4.015625,4.84375 11.140625,6.5 z M 18.3125,54.390625 q 0,-5.65625 3.53125,-8.828125 3.546875,-3.171875 9.9375,-3.171875 6.359375,0 9.9375,3.171875 3.59375,3.171875 3.59375,8.828125 0,5.671875 -3.59375,8.84375 -3.578125,3.171875 -9.9375,3.171875 -6.390625,0 -9.9375,-3.171875 Q 18.3125,60.0625 18.3125,54.390625 Z"
           id="DejaVuSans-56" />
      </defs>
      <g
         style="fill:#262626"
         transform="matrix(0.11,0,0,-0.11,29.8125,130.39283)"
         id="g154">
        <use
           xlink:href="#DejaVuSans-56"
           id="use152"
           x="0"
           y="0"
           width="100%"
           height="100%" />
      </g>
    </g>
  </g>
  <g
     id="ytick_6"
     transform="translate(2.1844356,12)">
    <g
       id="line2d_6">
      <path
         clip-path="url(#pf7848a4127)"
         d="m 46.31125,95.299106 h 218.3745"
         style="fill:none;stroke:#cccccc;stroke-linecap:round"
         id="path158" />
    </g>
    <g
       id="text_14">
      <!-- 10 -->
      <g
         style="fill:#262626"
         transform="matrix(0.11,0,0,-0.11,22.81375,99.478247)"
         id="g165">
        <use
           xlink:href="#DejaVuSans-49"
           id="use161"
           x="0"
           y="0"
           width="100%"
           height="100%" />
        <use
           x="63.623047"
           xlink:href="#DejaVuSans-48"
           id="use163"
           y="0"
           width="100%"
           height="100%" />
      </g>
    </g>
  </g>
  <g
     id="ytick_7"
     transform="translate(2.1844356,12)">
    <g
       id="line2d_7">
      <path
         clip-path="url(#pf7848a4127)"
         d="m 46.31125,64.384527 h 218.3745"
         style="fill:none;stroke:#cccccc;stroke-linecap:round"
         id="path169" />
    </g>
    <g
       id="text_15">
      <!-- 12 -->
      <g
         style="fill:#262626"
         transform="matrix(0.11,0,0,-0.11,22.81375,68.563668)"
         id="g176">
        <use
           xlink:href="#DejaVuSans-49"
           id="use172"
           x="0"
           y="0"
           width="100%"
           height="100%" />
        <use
           x="63.623047"
           xlink:href="#DejaVuSans-50"
           id="use174"
           y="0"
           width="100%"
           height="100%" />
      </g>
    </g>
  </g>
  <g
     id="patch_3"
     transform="translate(2.1844356,12)">
    <path
       clip-path="url(#pf7848a4127)"
       d="M 49.430886,249.872 H 61.909428 V 64.384527 H 49.430886 Z"
       style="fill:#3274a1;stroke:#ffffff;stroke-linejoin:miter"
       id="path199" />
  </g>
  <g
     id="patch_4"
     transform="translate(2.1844356,12)">
    <path
       clip-path="url(#pf7848a4127)"
       d="M 80.627243,249.872 H 93.105785 V 172.58555 H 80.627243 Z"
       style="fill:#3274a1;stroke:#ffffff;stroke-linejoin:miter"
       id="path202" />
  </g>
  <g
     id="patch_5"
     transform="translate(2.1844356,12)">
    <path
       clip-path="url(#pf7848a4127)"
       d="m 111.8236,249.872 h 12.47854 V 157.12826 H 111.8236 Z"
       style="fill:#3274a1;stroke:#ffffff;stroke-linejoin:miter"
       id="path205" />
  </g>
  <g
     id="patch_6"
     transform="translate(2.1844356,12)">
    <path
       clip-path="url(#pf7848a4127)"
       d=""
       style="fill:#3274a1;stroke:#ffffff;stroke-linejoin:miter"
       id="path208" />
  </g>
  <g
     id="patch_7"
     transform="translate(2.1844356,12)">
    <path
       clip-path="url(#pf7848a4127)"
       d=""
       style="fill:#3274a1;stroke:#ffffff;stroke-linejoin:miter"
       id="path211" />
  </g>
  <g
     id="patch_8"
     transform="translate(2.1844356,12)">
    <path
       clip-path="url(#pf7848a4127)"
       d=""
       style="fill:#3274a1;stroke:#ffffff;stroke-linejoin:miter"
       id="path214" />
  </g>
  <g
     id="patch_9"
     transform="translate(2.1844356,12)">
    <path
       clip-path="url(#pf7848a4127)"
       d=""
       style="fill:#3274a1;stroke:#ffffff;stroke-linejoin:miter"
       id="path217" />
  </g>
  <g
     id="patch_10"
     transform="translate(2.1844356,12)">
    <path
       clip-path="url(#pf7848a4127)"
       d="M 61.909428,249.872 H 74.387971 V 126.21368 H 61.909428 Z"
       style="fill:#e1812c;stroke:#ffffff;stroke-linejoin:miter"
       id="path220" />
  </g>
  <g
     id="patch_11"
     transform="translate(2.1844356,12)">
    <path
       clip-path="url(#pf7848a4127)"
       d="M 93.105785,249.872 H 105.58433 V 110.7564 H 93.105785 Z"
       style="fill:#e1812c;stroke:#ffffff;stroke-linejoin:miter"
       id="path223" />
  </g>
  <g
     id="patch_12"
     transform="translate(2.1844356,12)">
    <path
       clip-path="url(#pf7848a4127)"
       d="m 124.30214,249.872 h 12.47854 v -61.82916 h -12.47854 z"
       style="fill:#e1812c;stroke:#ffffff;stroke-linejoin:miter"
       id="path226" />
  </g>
  <g
     id="patch_13"
     transform="translate(2.1844356,12)">
    <path
       clip-path="url(#pf7848a4127)"
       d=""
       style="fill:#e1812c;stroke:#ffffff;stroke-linejoin:miter"
       id="path229" />
  </g>
  <g
     id="patch_14"
     transform="translate(2.1844356,12)">
    <path
       clip-path="url(#pf7848a4127)"
       d=""
       style="fill:#e1812c;stroke:#ffffff;stroke-linejoin:miter"
       id="path232" />
  </g>
  <g
     id="patch_15"
     transform="translate(2.1844356,12)">
    <path
       clip-path="url(#pf7848a4127)"
       d=""
       style="fill:#e1812c;stroke:#ffffff;stroke-linejoin:miter"
       id="path235" />
  </g>
  <g
     id="patch_16"
     transform="translate(2.1844356,12)">
    <path
       clip-path="url(#pf7848a4127)"
       d=""
       style="fill:#e1812c;stroke:#ffffff;stroke-linejoin:miter"
       id="path238" />
  </g>
  <g
     id="patch_17"
     transform="translate(2.1844356,12)">
    <path
       d="M 46.31125,249.872 V 38.88"
       style="fill:none;stroke:#cccccc;stroke-width:1.25;stroke-linecap:square;stroke-linejoin:miter"
       id="path241" />
  </g>
  <g
     id="patch_18"
     transform="translate(2.1844356,12)">
    <path
       d="m 46.31125,249.872 h 218.3745"
       style="fill:none;stroke:#cccccc;stroke-width:1.25;stroke-linecap:square;stroke-linejoin:miter"
       id="path244" />
  </g>
  <g
     id="patch_19"
     transform="translate(2.1844356,12)">
    <path
       d="M 273.52136,249.872 H 491.89585 V 38.88 H 273.52136 Z"
       style="fill:#ffffff"
       id="path293" />
  </g>
  <g
     id="g17039"
     transform="translate(2.1844356,12)">
    <g
       id="xtick_1">
      <g
         id="text_1">
        <!-- 7 -->
        <defs
           id="defs13">
          <path
             d="m 8.203125,72.90625 h 46.875 V 68.703125 L 28.609375,0 H 18.3125 L 43.21875,64.59375 H 8.203125 Z"
             id="DejaVuSans-55" />
        </defs>
        <g
           style="fill:#262626"
           transform="matrix(0.11,0,0,-0.11,58.410053,267.73028)"
           id="g17">
          <use
             xlink:href="#DejaVuSans-55"
             id="use15"
             x="0"
             y="0"
             width="100%"
             height="100%" />
        </g>
      </g>
    </g>
    <g
       id="xtick_2">
      <g
         id="text_2">
        <!-- 6 -->
        <defs
           id="defs22">
          <path
             d="m 33.015625,40.375 q -6.640625,0 -10.53125,-4.546875 -3.875,-4.53125 -3.875,-12.4375 0,-7.859375 3.875,-12.4375 3.890625,-4.5625 10.53125,-4.5625 6.640625,0 10.515625,4.5625 3.875,4.578125 3.875,12.4375 0,7.90625 -3.875,12.4375 Q 39.65625,40.375 33.015625,40.375 Z M 52.59375,71.296875 V 62.3125 q -3.71875,1.75 -7.5,2.671875 -3.78125,0.9375 -7.5,0.9375 -9.765625,0 -14.921875,-6.59375 -5.140625,-6.59375 -5.875,-19.921875 2.875,4.25 7.21875,6.515625 4.359375,2.265625 9.578125,2.265625 10.984375,0 17.359375,-6.671875 6.375,-6.65625 6.375,-18.125 0,-11.234375 -6.640625,-18.03125 -6.640625,-6.78125 -17.671875,-6.78125 -12.65625,0 -19.34375,9.6875 -6.6875,9.703125 -6.6875,28.109375 0,17.28125 8.203125,27.5625 8.203125,10.28125 22.015625,10.28125 3.71875,0 7.5,-0.734375 3.78125,-0.734375 7.890625,-2.1875 z"
             id="DejaVuSans-54" />
        </defs>
        <g
           style="fill:#262626"
           transform="matrix(0.11,0,0,-0.11,89.60641,267.73028)"
           id="g26">
          <use
             xlink:href="#DejaVuSans-54"
             id="use24"
             x="0"
             y="0"
             width="100%"
             height="100%" />
        </g>
      </g>
    </g>
    <g
       id="xtick_3">
      <g
         id="text_3">
        <!-- 5 -->
        <defs
           id="defs31">
          <path
             d="m 10.796875,72.90625 h 38.71875 v -8.3125 h -29.6875 V 46.734375 q 2.140625,0.734375 4.28125,1.09375 2.15625,0.359375 4.3125,0.359375 Q 40.625,48.1875 47.75,41.5 54.890625,34.8125 54.890625,23.390625 54.890625,11.625 47.5625,5.09375 40.234375,-1.421875 26.90625,-1.421875 q -4.59375,0 -9.359375,0.78125 -4.75,0.78125 -9.828125,2.34375 V 11.625 q 4.390625,-2.390625 9.078125,-3.5625 4.6875,-1.171875 9.90625,-1.171875 8.453125,0 13.375,4.4375 4.9375,4.4375 4.9375,12.0625 0,7.609375 -4.9375,12.046875 -4.921875,4.453125 -13.375,4.453125 -3.953125,0 -7.890625,-0.875 -3.921875,-0.875 -8.015625,-2.734375 z"
             id="DejaVuSans-53" />
        </defs>
        <g
           style="fill:#262626"
           transform="matrix(0.11,0,0,-0.11,120.80277,267.73028)"
           id="g35">
          <use
             xlink:href="#DejaVuSans-53"
             id="use33"
             x="0"
             y="0"
             width="100%"
             height="100%" />
        </g>
      </g>
    </g>
    <g
       id="xtick_4">
      <g
         id="text_4">
        <!-- 4 -->
        <defs
           id="defs40">
          <path
             d="M 37.796875,64.3125 12.890625,25.390625 h 24.90625 z m -2.59375,8.59375 h 12.40625 V 25.390625 h 10.40625 V 17.1875 H 47.609375 V 0 h -9.8125 V 17.1875 H 4.890625 v 9.515625 z"
             id="DejaVuSans-52" />
        </defs>
        <g
           style="fill:#262626"
           transform="matrix(0.11,0,0,-0.11,151.99912,267.73028)"
           id="g44">
          <use
             xlink:href="#DejaVuSans-52"
             id="use42"
             x="0"
             y="0"
             width="100%"
             height="100%" />
        </g>
      </g>
    </g>
    <g
       id="xtick_5">
      <g
         id="text_5">
        <!-- 3 -->
        <defs
           id="defs49">
          <path
             d="M 40.578125,39.3125 Q 47.65625,37.796875 51.625,33 q 3.984375,-4.78125 3.984375,-11.8125 0,-10.78125 -7.421875,-16.703125 -7.421875,-5.90625 -21.09375,-5.90625 -4.578125,0 -9.4375,0.90625 -4.859375,0.90625 -10.03125,2.71875 v 9.515625 q 4.09375,-2.390625 8.96875,-3.609375 4.890625,-1.21875 10.21875,-1.21875 9.265625,0 14.125,3.65625 4.859375,3.65625 4.859375,10.640625 0,6.453125 -4.515625,10.078125 -4.515625,3.640625 -12.5625,3.640625 h -8.5 v 8.109375 h 8.890625 q 7.265625,0 11.125,2.90625 3.859375,2.90625 3.859375,8.375 0,5.609375 -3.984375,8.609375 -3.96875,3.015625 -11.390625,3.015625 -4.0625,0 -8.703125,-0.890625 Q 15.375,64.15625 9.8125,62.3125 v 8.78125 q 5.625,1.5625 10.53125,2.34375 4.90625,0.78125 9.25,0.78125 11.234375,0 17.765625,-5.109375 6.546875,-5.09375 6.546875,-13.78125 0,-6.0625 -3.46875,-10.234375 -3.46875,-4.171875 -9.859375,-5.78125 z"
             id="DejaVuSans-51" />
        </defs>
        <g
           style="fill:#262626"
           transform="matrix(0.11,0,0,-0.11,183.19548,267.73028)"
           id="g53">
          <use
             xlink:href="#DejaVuSans-51"
             id="use51"
             x="0"
             y="0"
             width="100%"
             height="100%" />
        </g>
      </g>
    </g>
    <g
       id="xtick_6">
      <g
         id="text_6">
        <!-- 2 -->
        <defs
           id="defs58">
          <path
             d="M 19.1875,8.296875 H 53.609375 V 0 H 7.328125 v 8.296875 q 5.609375,5.8125 15.296875,15.59375 9.703125,9.796875 12.1875,12.640625 4.734375,5.3125 6.609375,9 1.890625,3.6875 1.890625,7.25 0,5.8125 -4.078125,9.46875 -4.078125,3.671875 -10.625,3.671875 -4.640625,0 -9.796875,-1.609375 -5.140625,-1.609375 -11,-4.890625 v 9.96875 Q 13.765625,71.78125 18.9375,73 q 5.1875,1.21875 9.484375,1.21875 11.328125,0 18.0625,-5.671875 6.734375,-5.65625 6.734375,-15.125 0,-4.5 -1.6875,-8.53125 Q 49.859375,40.875 45.40625,35.40625 44.1875,33.984375 37.640625,27.21875 31.109375,20.453125 19.1875,8.296875 Z"
             id="DejaVuSans-50" />
        </defs>
        <g
           style="fill:#262626"
           transform="matrix(0.11,0,0,-0.11,214.39184,267.73028)"
           id="g62">
          <use
             xlink:href="#DejaVuSans-50"
             id="use60"
             x="0"
             y="0"
             width="100%"
             height="100%" />
        </g>
      </g>
    </g>
    <g
       id="xtick_7">
      <g
         id="text_7">
        <!-- 1 -->
        <defs
           id="defs67">
          <path
             d="m 12.40625,8.296875 h 16.109375 v 55.625 L 10.984375,60.40625 v 8.984375 l 17.4375,3.515625 H 38.28125 V 8.296875 H 54.390625 V 0 H 12.40625 Z"
             id="DejaVuSans-49" />
        </defs>
        <g
           style="fill:#262626"
           transform="matrix(0.11,0,0,-0.11,245.5882,267.73028)"
           id="g71">
          <use
             xlink:href="#DejaVuSans-49"
             id="use69"
             x="0"
             y="0"
             width="100%"
             height="100%" />
        </g>
      </g>
    </g>
    <g
       id="xtick_8">
      <g
         id="text_18">
        <!-- 7 -->
        <g
           style="fill:#262626"
           transform="matrix(0.11,0,0,-0.11,285.62016,267.73028)"
           id="g298">
          <use
             xlink:href="#DejaVuSans-55"
             id="use296"
             x="0"
             y="0"
             width="100%"
             height="100%" />
        </g>
      </g>
    </g>
    <g
       id="xtick_9">
      <g
         id="text_19">
        <!-- 6 -->
        <g
           style="fill:#262626"
           transform="matrix(0.11,0,0,-0.11,316.81652,267.73028)"
           id="g304">
          <use
             xlink:href="#DejaVuSans-54"
             id="use302"
             x="0"
             y="0"
             width="100%"
             height="100%" />
        </g>
      </g>
    </g>
    <g
       id="xtick_10">
      <g
         id="text_20">
        <!-- 5 -->
        <g
           style="fill:#262626"
           transform="matrix(0.11,0,0,-0.11,348.01287,267.73028)"
           id="g310">
          <use
             xlink:href="#DejaVuSans-53"
             id="use308"
             x="0"
             y="0"
             width="100%"
             height="100%" />
        </g>
      </g>
    </g>
    <g
       id="xtick_11">
      <g
         id="text_21">
        <!-- 4 -->
        <g
           style="fill:#262626"
           transform="matrix(0.11,0,0,-0.11,379.20923,267.73028)"
           id="g316">
          <use
             xlink:href="#DejaVuSans-52"
             id="use314"
             x="0"
             y="0"
             width="100%"
             height="100%" />
        </g>
      </g>
    </g>
    <g
       id="xtick_12">
      <g
         id="text_22">
        <!-- 3 -->
        <g
           style="fill:#262626"
           transform="matrix(0.11,0,0,-0.11,410.40559,267.73028)"
           id="g322">
          <use
             xlink:href="#DejaVuSans-51"
             id="use320"
             x="0"
             y="0"
             width="100%"
             height="100%" />
        </g>
      </g>
    </g>
    <g
       id="xtick_13">
      <g
         id="text_23">
        <!-- 2 -->
        <g
           style="fill:#262626"
           transform="matrix(0.11,0,0,-0.11,441.60194,267.73028)"
           id="g328">
          <use
             xlink:href="#DejaVuSans-50"
             id="use326"
             x="0"
             y="0"
             width="100%"
             height="100%" />
        </g>
      </g>
    </g>
    <g
       id="xtick_14">
      <g
         id="text_24">
        <!-- 1 -->
        <g
           style="fill:#262626"
           transform="matrix(0.11,0,0,-0.11,472.7983,267.73028)"
           id="g334">
          <use
             xlink:href="#DejaVuSans-49"
             id="use332"
             x="0"
             y="0"
             width="100%"
             height="100%" />
        </g>
      </g>
    </g>
  </g>
  <g
     id="matplotlib.axis_4"
     transform="translate(2.1844356,12)">
    <g
       id="ytick_8">
      <g
         id="line2d_8">
        <path
           clip-path="url(#pd458c7cf72)"
           d="M 273.52136,249.872 H 491.89585"
           style="fill:none;stroke:#cccccc;stroke-linecap:round"
           id="path360" />
      </g>
    </g>
    <g
       id="ytick_9">
      <g
         id="line2d_9">
        <path
           clip-path="url(#pd458c7cf72)"
           d="M 273.52136,218.95742 H 491.89585"
           style="fill:none;stroke:#cccccc;stroke-linecap:round"
           id="path364" />
      </g>
    </g>
    <g
       id="ytick_10">
      <g
         id="line2d_10">
        <path
           clip-path="url(#pd458c7cf72)"
           d="M 273.52136,188.04284 H 491.89585"
           style="fill:none;stroke:#cccccc;stroke-linecap:round"
           id="path368" />
      </g>
    </g>
    <g
       id="ytick_11">
      <g
         id="line2d_11">
        <path
           clip-path="url(#pd458c7cf72)"
           d="M 273.52136,157.12826 H 491.89585"
           style="fill:none;stroke:#cccccc;stroke-linecap:round"
           id="path372" />
      </g>
    </g>
    <g
       id="ytick_12">
      <g
         id="line2d_12">
        <path
           clip-path="url(#pd458c7cf72)"
           d="M 273.52136,126.21368 H 491.89585"
           style="fill:none;stroke:#cccccc;stroke-linecap:round"
           id="path376" />
      </g>
    </g>
    <g
       id="ytick_13">
      <g
         id="line2d_13">
        <path
           clip-path="url(#pd458c7cf72)"
           d="M 273.52136,95.299106 H 491.89585"
           style="fill:none;stroke:#cccccc;stroke-linecap:round"
           id="path380" />
      </g>
    </g>
    <g
       id="ytick_14">
      <g
         id="line2d_14">
        <path
           clip-path="url(#pd458c7cf72)"
           d="M 273.52136,64.384527 H 491.89585"
           style="fill:none;stroke:#cccccc;stroke-linecap:round"
           id="path384" />
      </g>
    </g>
  </g>
  <g
     id="patch_20"
     transform="translate(2.1844356,12)">
    <path
       clip-path="url(#pd458c7cf72)"
       d="m 276.64099,249.872 h 12.47854 V 126.21368 h -12.47854 z"
       style="fill:#3274a1;stroke:#ffffff;stroke-linejoin:miter"
       id="path389" />
  </g>
  <g
     id="patch_21"
     transform="translate(2.1844356,12)">
    <path
       clip-path="url(#pd458c7cf72)"
       d="m 307.83735,249.872 h 12.47854 V 126.21368 h -12.47854 z"
       style="fill:#3274a1;stroke:#ffffff;stroke-linejoin:miter"
       id="path392" />
  </g>
  <g
     id="patch_22"
     transform="translate(2.1844356,12)">
    <path
       clip-path="url(#pd458c7cf72)"
       d="m 339.03371,249.872 h 12.47854 v -77.28645 h -12.47854 z"
       style="fill:#3274a1;stroke:#ffffff;stroke-linejoin:miter"
       id="path395" />
  </g>
  <g
     id="patch_23"
     transform="translate(2.1844356,12)">
    <path
       clip-path="url(#pd458c7cf72)"
       d="M 370.23006,249.872 H 382.7086 V 234.41471 H 370.23006 Z"
       style="fill:#3274a1;stroke:#ffffff;stroke-linejoin:miter"
       id="path398" />
  </g>
  <g
     id="patch_24"
     transform="translate(2.1844356,12)">
    <path
       clip-path="url(#pd458c7cf72)"
       d=""
       style="fill:#3274a1;stroke:#ffffff;stroke-linejoin:miter"
       id="path401" />
  </g>
  <g
     id="patch_25"
     transform="translate(2.1844356,12)">
    <path
       clip-path="url(#pd458c7cf72)"
       d="m 432.62278,249.872 h 12.47854 v -15.45729 h -12.47854 z"
       style="fill:#3274a1;stroke:#ffffff;stroke-linejoin:miter"
       id="path404" />
  </g>
  <g
     id="patch_26"
     transform="translate(2.1844356,12)">
    <path
       clip-path="url(#pd458c7cf72)"
       d=""
       style="fill:#3274a1;stroke:#ffffff;stroke-linejoin:miter"
       id="path407" />
  </g>
  <g
     id="patch_27"
     transform="translate(2.1844356,12)">
    <path
       clip-path="url(#pd458c7cf72)"
       d="m 289.11953,249.872 h 12.47855 V 48.927238 h -12.47855 z"
       style="fill:#e1812c;stroke:#ffffff;stroke-linejoin:miter"
       id="path410" />
  </g>
  <g
     id="patch_28"
     transform="translate(2.1844356,12)">
    <path
       clip-path="url(#pd458c7cf72)"
       d="m 320.31589,249.872 h 12.47854 v -92.74374 h -12.47854 z"
       style="fill:#e1812c;stroke:#ffffff;stroke-linejoin:miter"
       id="path413" />
  </g>
  <g
     id="patch_29"
     transform="translate(2.1844356,12)">
    <path
       clip-path="url(#pd458c7cf72)"
       d="m 351.51225,249.872 h 12.47854 v -61.82916 h -12.47854 z"
       style="fill:#e1812c;stroke:#ffffff;stroke-linejoin:miter"
       id="path416" />
  </g>
  <g
     id="patch_30"
     transform="translate(2.1844356,12)">
    <path
       clip-path="url(#pd458c7cf72)"
       d=""
       style="fill:#e1812c;stroke:#ffffff;stroke-linejoin:miter"
       id="path419" />
  </g>
  <g
     id="patch_31"
     transform="translate(2.1844356,12)">
    <path
       clip-path="url(#pd458c7cf72)"
       d=""
       style="fill:#e1812c;stroke:#ffffff;stroke-linejoin:miter"
       id="path422" />
  </g>
  <g
     id="patch_32"
     transform="translate(2.1844356,12)">
    <path
       clip-path="url(#pd458c7cf72)"
       d=""
       style="fill:#e1812c;stroke:#ffffff;stroke-linejoin:miter"
       id="path425" />
  </g>
  <g
     id="patch_33"
     transform="translate(2.1844356,12)">
    <path
       clip-path="url(#pd458c7cf72)"
       d=""
       style="fill:#e1812c;stroke:#ffffff;stroke-linejoin:miter"
       id="path428" />
  </g>
  <g
     id="patch_34"
     transform="translate(2.1844356,12)">
    <path
       d="M 273.52136,249.872 V 38.88"
       style="fill:none;stroke:#cccccc;stroke-width:1.25;stroke-linecap:square;stroke-linejoin:miter"
       id="path431" />
  </g>
  <g
     id="patch_35"
     transform="translate(2.1844356,12)">
    <path
       d="M 273.52136,249.872 H 491.89585"
       style="fill:none;stroke:#cccccc;stroke-width:1.25;stroke-linecap:square;stroke-linejoin:miter"
       id="path434" />
  </g>
  <defs
     id="defs678">
    <clipPath
       id="pf7848a4127">
      <rect
         height="210.992"
         width="218.3745"
         x="46.311249"
         y="38.880001"
         id="rect672" />
    </clipPath>
    <clipPath
       id="pd458c7cf72">
      <rect
         height="210.992"
         width="218.3745"
         x="273.52136"
         y="38.880001"
         id="rect675" />
    </clipPath>
  </defs>
  <text
     xml:space="preserve"
     style="font-size:12px;line-height:1.25;font-family:Roboto;-inkscape-font-specification:Roboto;font-variation-settings:normal;opacity:1;vector-effect:none;fill:#262626;fill-opacity:1;stroke-width:1;stroke-linecap:butt;stroke-linejoin:round;stroke-miterlimit:4;stroke-dasharray:none;stroke-dashoffset:0;stroke-opacity:1;-inkscape-stroke:none;stop-color:#000000;stop-opacity:1"
     x="211.0174"
     y="295.76471"
     id="text7888"><tspan
       sodipodi:role="line"
       id="tspan7886"
       style="font-style:normal;font-variant:normal;font-weight:normal;font-stretch:normal;font-family:'DejaVu Sans';-inkscape-font-specification:'DejaVu Sans';font-variation-settings:normal;vector-effect:none;fill:#262626;fill-opacity:1;stroke-width:1;stroke-linecap:butt;stroke-linejoin:round;stroke-miterlimit:4;stroke-dasharray:none;stroke-dashoffset:0;stroke-opacity:1;-inkscape-stroke:none;stop-color:#000000;stop-opacity:1"
       x="211.0174"
       y="295.76471">Levenshtein distance</tspan></text>
  <text
     xml:space="preserve"
     style="font-size:14.4px;line-height:1;font-family:'DejaVu Sans';-inkscape-font-specification:'DejaVu Sans';font-variation-settings:normal;opacity:1;vector-effect:none;fill:#262626;fill-opacity:1;stroke-width:1;stroke-linecap:butt;stroke-linejoin:round;stroke-miterlimit:4;stroke-dasharray:none;stroke-dashoffset:0;stroke-opacity:1;-inkscape-stroke:none;stop-color:#000000;stop-opacity:1"
     x="274.65982"
     y="16.303139"
     id="text2801"><tspan
       sodipodi:role="line"
       id="tspan2799"
       style="font-size:14.4px;font-variation-settings:normal;text-align:center;text-anchor:middle;vector-effect:none;fill:#262626;fill-opacity:1;stroke-width:1;stroke-linecap:butt;stroke-linejoin:round;stroke-miterlimit:4;stroke-dasharray:none;stroke-dashoffset:0;stroke-opacity:1;-inkscape-stroke:none;stop-color:#000000;stop-opacity:1"
       x="274.65982"
       y="16.303139">Levenshtein distance in VR and Computer</tspan><tspan
       sodipodi:role="line"
       style="font-size:14.4px;font-variation-settings:normal;text-align:center;text-anchor:middle;vector-effect:none;fill:#262626;fill-opacity:1;stroke-width:1;stroke-linecap:butt;stroke-linejoin:round;stroke-miterlimit:4;stroke-dasharray:none;stroke-dashoffset:0;stroke-opacity:1;-inkscape-stroke:none;stop-color:#000000;stop-opacity:1"
       x="274.65982"
       y="30.703138"
       id="tspan16067">in the first and second sequence</tspan></text>
  <g
     id="g13071"
     transform="translate(2.1844356)">
    <text
       xml:space="preserve"
       style="font-size:12px;line-height:1.25;font-family:sans-serif;font-variation-settings:normal;opacity:1;vector-effect:none;fill:#262626;fill-opacity:1;stroke-width:1;stroke-linecap:butt;stroke-linejoin:round;stroke-miterlimit:4;stroke-dasharray:none;stroke-dashoffset:0;stroke-opacity:1;-inkscape-stroke:none;stop-color:#000000;stop-opacity:1"
       x="111.55096"
       y="44.879295"
       id="text2730"><tspan
         sodipodi:role="line"
         id="tspan2728"
         style="font-style:normal;font-variant:normal;font-weight:normal;font-stretch:normal;font-family:'DejaVu Sans';-inkscape-font-specification:'DejaVu Sans';font-variation-settings:normal;vector-effect:none;fill:#262626;fill-opacity:1;stroke-width:1;stroke-linecap:butt;stroke-linejoin:round;stroke-miterlimit:4;stroke-dasharray:none;stroke-dashoffset:0;stroke-opacity:1;-inkscape-stroke:none;stop-color:#000000;stop-opacity:1"
         x="111.55096"
         y="44.879295">First sequence</tspan></text>
    <text
       xml:space="preserve"
       style="font-size:12px;line-height:1.25;font-family:sans-serif;font-variation-settings:normal;opacity:1;vector-effect:none;fill:#262626;fill-opacity:1;stroke-width:1;stroke-linecap:butt;stroke-linejoin:round;stroke-miterlimit:4;stroke-dasharray:none;stroke-dashoffset:0;stroke-opacity:1;-inkscape-stroke:none;stop-color:#000000;stop-opacity:1"
       x="329.45346"
       y="44.879295"
       id="text7405"><tspan
         sodipodi:role="line"
         id="tspan7403"
         style="font-style:normal;font-variant:normal;font-weight:normal;font-stretch:normal;font-family:'DejaVu Sans';-inkscape-font-specification:'DejaVu Sans';font-variation-settings:normal;vector-effect:none;fill:#262626;fill-opacity:1;stroke-width:1;stroke-linecap:butt;stroke-linejoin:round;stroke-miterlimit:4;stroke-dasharray:none;stroke-dashoffset:0;stroke-opacity:1;-inkscape-stroke:none;stop-color:#000000;stop-opacity:1"
         x="329.45346"
         y="44.879295">Second sequence</tspan></text>
  </g>
  <g
     id="text_13-3"
     transform="translate(2.4244356,12.00562)"
     style="stroke-linecap:butt;stroke-linejoin:round">
    <!-- Count -->
    <defs
       id="defs195">
      <path
         d="M 64.40625,67.28125 V 56.890625 q -4.984375,4.640625 -10.625,6.921875 -5.640625,2.296875 -11.984375,2.296875 -12.5,0 -19.140625,-7.640625 -6.640625,-7.640625 -6.640625,-22.09375 0,-14.40625 6.640625,-22.046875 Q 29.296875,6.6875 41.796875,6.6875 q 6.34375,0 11.984375,2.296875 5.640625,2.296875 10.625,6.9375 V 5.609375 Q 59.234375,2.09375 53.4375,0.328125 q -5.78125,-1.75 -12.21875,-1.75 -16.5625,0 -26.09375,10.125 Q 5.609375,18.84375 5.609375,36.375 q 0,17.578125 9.515625,27.703125 9.53125,10.140625 26.09375,10.140625 6.53125,0 12.3125,-1.734375 5.796875,-1.734375 10.875,-5.203125 z"
         id="path1107" />
      <path
         d="M 8.5,21.578125 V 54.6875 h 8.984375 V 21.921875 q 0,-7.765625 3.015625,-11.65625 3.03125,-3.875 9.09375,-3.875 7.265625,0 11.484375,4.640625 4.234375,4.640625 4.234375,12.65625 v 31 h 8.984375 V 0 H 45.3125 V 8.40625 Q 42.046875,3.421875 37.71875,1 33.40625,-1.421875 27.6875,-1.421875 18.265625,-1.421875 13.375,4.4375 8.5,10.296875 8.5,21.578125 Z M 31.109375,56 Z"
         id="path1109" />
      <path
         d="M 54.890625,33.015625 V 0 H 45.90625 v 32.71875 q 0,7.765625 -3.03125,11.609375 -3.03125,3.859375 -9.078125,3.859375 -7.28125,0 -11.484375,-4.640625 -4.203125,-4.625 -4.203125,-12.640625 V 0 h -9.03125 v 54.6875 h 9.03125 v -8.5 q 3.234375,4.9375 7.59375,7.375 4.375,2.4375 10.09375,2.4375 9.421875,0 14.25,-5.828125 4.84375,-5.828125 4.84375,-17.15625 z"
         id="path1111" />
    </defs>
    <g
       style="fill:#262626"
       transform="matrix(0,-0.12,-0.12,0,16.318125,162.19413)"
       id="g207">
      <use
         xlink:href="#DejaVuSans-67"
         id="use197"
         x="0"
         y="0"
         width="100%"
         height="100%" />
      <path
         d="m 100.43359,48.390625 q -7.218746,0 -11.421871,-5.640625 -4.203125,-5.640625 -4.203125,-15.453125 0,-9.8125 4.171875,-15.453125 4.1875,-5.640625 11.453121,-5.640625 7.1875,0 11.375,5.65625 4.20313,5.671875 4.20313,15.4375 0,9.71875 -4.20313,15.40625 -4.1875,5.6875 -11.375,5.6875 z m 0,7.609375 q 11.71875,0 18.40625,-7.625 6.70313,-7.609375 6.70313,-21.078125 0,-13.421875 -6.70313,-21.078125 -6.6875,-7.640625 -18.40625,-7.640625 -11.765621,0 -18.437496,7.640625 -6.65625,7.65625 -6.65625,21.078125 0,13.46875 6.65625,21.078125 Q 88.667969,56 100.43359,56 Z"
         id="use199" />
      <use
         x="131.00586"
         xlink:href="#DejaVuSans-117-6"
         id="use201"
         y="0"
         width="100%"
         height="100%" />
      <use
         x="194.38477"
         xlink:href="#DejaVuSans-110"
         id="use203"
         y="0"
         width="100%"
         height="100%" />
      <path
         d="M 276.07617,70.21875 V 54.6875 h 18.5 v -6.984375 h -18.5 v -29.6875 q 0,-6.6875 1.82813,-8.59375 1.82812,-1.90625 7.45312,-1.90625 h 9.21875 V 0 h -9.21875 q -10.40625,0 -14.35937,3.875 -3.95313,3.890625 -3.95313,14.140625 v 29.6875 h -6.59375 V 54.6875 h 6.59375 v 15.53125 z"
         id="use205" />
    </g>
  </g>
</svg>
