<?xml version="1.0" encoding="UTF-8" standalone="no"?>
<!-- Created with matplotlib (https://matplotlib.org/) -->

<svg
   height="292.831687pt"
   version="1.1"
   viewBox="0 0 547.91625 292.831687"
   width="547.91625pt"
   id="svg620"
   sodipodi:docname="nb-true-VR-Comp.svg"
   inkscape:version="1.1.2 (1:1.1+202202050950+0a00cf5339)"
   xmlns:inkscape="http://www.inkscape.org/namespaces/inkscape"
   xmlns:sodipodi="http://sodipodi.sourceforge.net/DTD/sodipodi-0.dtd"
   xmlns:xlink="http://www.w3.org/1999/xlink"
   xmlns="http://www.w3.org/2000/svg"
   xmlns:svg="http://www.w3.org/2000/svg">
  <sodipodi:namedview
     id="namedview622"
     pagecolor="#ffffff"
     bordercolor="#666666"
     borderopacity="1.0"
     inkscape:pageshadow="2"
     inkscape:pageopacity="0.0"
     inkscape:pagecheckerboard="0"
     inkscape:document-units="pt"
     showgrid="false"
     inkscape:zoom="0.97279535"
     inkscape:cx="335.11673"
     inkscape:cy="184.5198"
     inkscape:window-width="1366"
     inkscape:window-height="704"
     inkscape:window-x="0"
     inkscape:window-y="27"
     inkscape:window-maximized="1"
     inkscape:current-layer="svg620" />
  <defs
     id="defs4">
    <style
       type="text/css"
       id="style2">
*{stroke-linecap:butt;stroke-linejoin:round;}
  </style>
    <path
       d="m 12.40625,8.296875 h 16.109375 v 55.625 L 10.984375,60.40625 v 8.984375 l 17.4375,3.515625 H 38.28125 V 8.296875 H 54.390625 V 0 H 12.40625 Z"
       id="DejaVuSans-49-3" />
    <path
       d="M 19.1875,8.296875 H 53.609375 V 0 H 7.328125 v 8.296875 q 5.609375,5.8125 15.296875,15.59375 9.703125,9.796875 12.1875,12.640625 4.734375,5.3125 6.609375,9 1.890625,3.6875 1.890625,7.25 0,5.8125 -4.078125,9.46875 -4.078125,3.671875 -10.625,3.671875 -4.640625,0 -9.796875,-1.609375 -5.140625,-1.609375 -11,-4.890625 v 9.96875 Q 13.765625,71.78125 18.9375,73 q 5.1875,1.21875 9.484375,1.21875 11.328125,0 18.0625,-5.671875 6.734375,-5.65625 6.734375,-15.125 0,-4.5 -1.6875,-8.53125 Q 49.859375,40.875 45.40625,35.40625 44.1875,33.984375 37.640625,27.21875 31.109375,20.453125 19.1875,8.296875 Z"
       id="DejaVuSans-50-2" />
    <path
       d="M 40.578125,39.3125 Q 47.65625,37.796875 51.625,33 q 3.984375,-4.78125 3.984375,-11.8125 0,-10.78125 -7.421875,-16.703125 -7.421875,-5.90625 -21.09375,-5.90625 -4.578125,0 -9.4375,0.90625 -4.859375,0.90625 -10.03125,2.71875 v 9.515625 q 4.09375,-2.390625 8.96875,-3.609375 4.890625,-1.21875 10.21875,-1.21875 9.265625,0 14.125,3.65625 4.859375,3.65625 4.859375,10.640625 0,6.453125 -4.515625,10.078125 -4.515625,3.640625 -12.5625,3.640625 h -8.5 v 8.109375 h 8.890625 q 7.265625,0 11.125,2.90625 3.859375,2.90625 3.859375,8.375 0,5.609375 -3.984375,8.609375 -3.96875,3.015625 -11.390625,3.015625 -4.0625,0 -8.703125,-0.890625 Q 15.375,64.15625 9.8125,62.3125 v 8.78125 q 5.625,1.5625 10.53125,2.34375 4.90625,0.78125 9.25,0.78125 11.234375,0 17.765625,-5.109375 6.546875,-5.09375 6.546875,-13.78125 0,-6.0625 -3.46875,-10.234375 -3.46875,-4.171875 -9.859375,-5.78125 z"
       id="DejaVuSans-51-0" />
    <path
       d="M 37.796875,64.3125 12.890625,25.390625 h 24.90625 z m -2.59375,8.59375 h 12.40625 V 25.390625 h 10.40625 V 17.1875 H 47.609375 V 0 h -9.8125 V 17.1875 H 4.890625 v 9.515625 z"
       id="DejaVuSans-52-7" />
    <path
       d="m 10.796875,72.90625 h 38.71875 v -8.3125 h -29.6875 V 46.734375 q 2.140625,0.734375 4.28125,1.09375 2.15625,0.359375 4.3125,0.359375 Q 40.625,48.1875 47.75,41.5 54.890625,34.8125 54.890625,23.390625 54.890625,11.625 47.5625,5.09375 40.234375,-1.421875 26.90625,-1.421875 q -4.59375,0 -9.359375,0.78125 -4.75,0.78125 -9.828125,2.34375 V 11.625 q 4.390625,-2.390625 9.078125,-3.5625 4.6875,-1.171875 9.90625,-1.171875 8.453125,0 13.375,4.4375 4.9375,4.4375 4.9375,12.0625 0,7.609375 -4.9375,12.046875 -4.921875,4.453125 -13.375,4.453125 -3.953125,0 -7.890625,-0.875 -3.921875,-0.875 -8.015625,-2.734375 z"
       id="DejaVuSans-53-7" />
    <path
       d="m 33.015625,40.375 q -6.640625,0 -10.53125,-4.546875 -3.875,-4.53125 -3.875,-12.4375 0,-7.859375 3.875,-12.4375 3.890625,-4.5625 10.53125,-4.5625 6.640625,0 10.515625,4.5625 3.875,4.578125 3.875,12.4375 0,7.90625 -3.875,12.4375 Q 39.65625,40.375 33.015625,40.375 Z M 52.59375,71.296875 V 62.3125 q -3.71875,1.75 -7.5,2.671875 -3.78125,0.9375 -7.5,0.9375 -9.765625,0 -14.921875,-6.59375 -5.140625,-6.59375 -5.875,-19.921875 2.875,4.25 7.21875,6.515625 4.359375,2.265625 9.578125,2.265625 10.984375,0 17.359375,-6.671875 6.375,-6.65625 6.375,-18.125 0,-11.234375 -6.640625,-18.03125 -6.640625,-6.78125 -17.671875,-6.78125 -12.65625,0 -19.34375,9.6875 -6.6875,9.703125 -6.6875,28.109375 0,17.28125 8.203125,27.5625 8.203125,10.28125 22.015625,10.28125 3.71875,0 7.5,-0.734375 3.78125,-0.734375 7.890625,-2.1875 z"
       id="DejaVuSans-54-9" />
    <path
       d="M 54.890625,33.015625 V 0 H 45.90625 v 32.71875 q 0,7.765625 -3.03125,11.609375 -3.03125,3.859375 -9.078125,3.859375 -7.28125,0 -11.484375,-4.640625 -4.203125,-4.625 -4.203125,-12.640625 V 0 h -9.03125 v 54.6875 h 9.03125 v -8.5 q 3.234375,4.9375 7.59375,7.375 4.375,2.4375 10.09375,2.4375 9.421875,0 14.25,-5.828125 4.84375,-5.828125 4.84375,-17.15625 z"
       id="DejaVuSans-110-2" />
    <path
       d="m 48.6875,27.296875 q 0,9.90625 -4.078125,15.546875 -4.078125,5.640625 -11.203125,5.640625 -7.140625,0 -11.21875,-5.640625 -4.078125,-5.640625 -4.078125,-15.546875 0,-9.90625 4.078125,-15.546875 4.078125,-5.640625 11.21875,-5.640625 7.125,0 11.203125,5.640625 4.078125,5.640625 4.078125,15.546875 z m -30.578125,19.09375 q 2.84375,4.875 7.15625,7.234375 Q 29.59375,56 35.59375,56 q 9.96875,0 16.1875,-7.90625 6.234375,-7.90625 6.234375,-20.796875 0,-12.890625 -6.234375,-20.8125 -6.21875,-7.90625 -16.1875,-7.90625 -6,0 -10.328125,2.375 -4.3125,2.375 -7.15625,7.25 V 0 h -9.03125 v 75.984375 h 9.03125 z"
       id="DejaVuSans-98-9" />
    <path
       d="M -0.296875,72.90625 H 61.375 v -8.3125 H 35.5 V 0 H 25.59375 V 64.59375 H -0.296875 Z"
       id="DejaVuSans-84-3" />
    <path
       d="m 41.109375,46.296875 q -1.515625,0.875 -3.296875,1.28125 Q 36.03125,48 33.890625,48 26.265625,48 22.1875,43.046875 18.109375,38.09375 18.109375,28.8125 V 0 h -9.03125 v 54.6875 h 9.03125 v -8.5 q 2.84375,4.984375 7.375,7.390625 Q 30.03125,56 36.53125,56 q 0.921875,0 2.046875,-0.125 1.125,-0.109375 2.484375,-0.359375 z"
       id="DejaVuSans-114-1" />
    <path
       d="M 8.5,21.578125 V 54.6875 h 8.984375 V 21.921875 q 0,-7.765625 3.015625,-11.65625 3.03125,-3.875 9.09375,-3.875 7.265625,0 11.484375,4.640625 4.234375,4.640625 4.234375,12.65625 v 31 h 8.984375 V 0 H 45.3125 V 8.40625 Q 42.046875,3.421875 37.71875,1 33.40625,-1.421875 27.6875,-1.421875 18.265625,-1.421875 13.375,4.4375 8.5,10.296875 8.5,21.578125 Z M 31.109375,56 Z"
       id="DejaVuSans-117-9" />
    <path
       d="m 56.203125,29.59375 v -4.390625 h -41.3125 q 0.59375,-9.28125 5.59375,-14.140625 5,-4.859375 13.9375,-4.859375 5.171875,0 10.03125,1.265625 4.859375,1.265625 9.65625,3.8125 v -8.5 q -4.84375,-2.046875 -9.921875,-3.125 -5.078125,-1.078125 -10.296875,-1.078125 -13.09375,0 -20.734375,7.609375 -7.640625,7.625 -7.640625,20.625 0,13.421875 7.25,21.296875 Q 20.015625,56 32.328125,56 q 11.03125,0 17.453125,-7.109375 6.421875,-7.09375 6.421875,-19.296875 z m -8.984375,2.640625 q -0.09375,7.359375 -4.125,11.75 -4.03125,4.40625 -10.671875,4.40625 -7.515625,0 -12.03125,-4.25 -4.515625,-4.25 -5.203125,-11.96875 z"
       id="DejaVuSans-101-4" />
    <path
       d="M 64.40625,67.28125 V 56.890625 q -4.984375,4.640625 -10.625,6.921875 -5.640625,2.296875 -11.984375,2.296875 -12.5,0 -19.140625,-7.640625 -6.640625,-7.640625 -6.640625,-22.09375 0,-14.40625 6.640625,-22.046875 Q 29.296875,6.6875 41.796875,6.6875 q 6.34375,0 11.984375,2.296875 5.640625,2.296875 10.625,6.9375 V 5.609375 Q 59.234375,2.09375 53.4375,0.328125 q -5.78125,-1.75 -12.21875,-1.75 -16.5625,0 -26.09375,10.125 Q 5.609375,18.84375 5.609375,36.375 q 0,17.578125 9.515625,27.703125 9.53125,10.140625 26.09375,10.140625 6.53125,0 12.3125,-1.734375 5.796875,-1.734375 10.875,-5.203125 z"
       id="DejaVuSans-67-6" />
    <path
       d="M 8.5,21.578125 V 54.6875 h 8.984375 V 21.921875 q 0,-7.765625 3.015625,-11.65625 3.03125,-3.875 9.09375,-3.875 7.265625,0 11.484375,4.640625 4.234375,4.640625 4.234375,12.65625 v 31 h 8.984375 V 0 H 45.3125 V 8.40625 Q 42.046875,3.421875 37.71875,1 33.40625,-1.421875 27.6875,-1.421875 18.265625,-1.421875 13.375,4.4375 8.5,10.296875 8.5,21.578125 Z M 31.109375,56 Z"
       id="DejaVuSans-117" />
    <path
       d="M 54.890625,33.015625 V 0 H 45.90625 v 32.71875 q 0,7.765625 -3.03125,11.609375 -3.03125,3.859375 -9.078125,3.859375 -7.28125,0 -11.484375,-4.640625 -4.203125,-4.625 -4.203125,-12.640625 V 0 h -9.03125 v 54.6875 h 9.03125 v -8.5 q 3.234375,4.9375 7.59375,7.375 4.375,2.4375 10.09375,2.4375 9.421875,0 14.25,-5.828125 4.84375,-5.828125 4.84375,-17.15625 z"
       id="DejaVuSans-110" />
    <defs
       id="defs195">
      <path
         d="M 64.40625,67.28125 V 56.890625 q -4.984375,4.640625 -10.625,6.921875 -5.640625,2.296875 -11.984375,2.296875 -12.5,0 -19.140625,-7.640625 -6.640625,-7.640625 -6.640625,-22.09375 0,-14.40625 6.640625,-22.046875 Q 29.296875,6.6875 41.796875,6.6875 q 6.34375,0 11.984375,2.296875 5.640625,2.296875 10.625,6.9375 V 5.609375 Q 59.234375,2.09375 53.4375,0.328125 q -5.78125,-1.75 -12.21875,-1.75 -16.5625,0 -26.09375,10.125 Q 5.609375,18.84375 5.609375,36.375 q 0,17.578125 9.515625,27.703125 9.53125,10.140625 26.09375,10.140625 6.53125,0 12.3125,-1.734375 5.796875,-1.734375 10.875,-5.203125 z"
         id="path1137" />
      <path
         d="M 8.5,21.578125 V 54.6875 h 8.984375 V 21.921875 q 0,-7.765625 3.015625,-11.65625 3.03125,-3.875 9.09375,-3.875 7.265625,0 11.484375,4.640625 4.234375,4.640625 4.234375,12.65625 v 31 h 8.984375 V 0 H 45.3125 V 8.40625 Q 42.046875,3.421875 37.71875,1 33.40625,-1.421875 27.6875,-1.421875 18.265625,-1.421875 13.375,4.4375 8.5,10.296875 8.5,21.578125 Z M 31.109375,56 Z"
         id="path1139" />
      <path
         d="M 54.890625,33.015625 V 0 H 45.90625 v 32.71875 q 0,7.765625 -3.03125,11.609375 -3.03125,3.859375 -9.078125,3.859375 -7.28125,0 -11.484375,-4.640625 -4.203125,-4.625 -4.203125,-12.640625 V 0 h -9.03125 v 54.6875 h 9.03125 v -8.5 q 3.234375,4.9375 7.59375,7.375 4.375,2.4375 10.09375,2.4375 9.421875,0 14.25,-5.828125 4.84375,-5.828125 4.84375,-17.15625 z"
         id="path1141" />
    </defs>
  </defs>
  <g
     id="patch_2">
    <path
       d="m 46.31125,249.872 h 218.3745 V 59.04 H 46.31125 Z"
       style="fill:#ffffff"
       id="path9" />
  </g>
  <g
     id="line2d_1">
    <path
       clip-path="url(#p0f822d52a4)"
       d="m 46.31125,249.872 h 218.3745"
       style="fill:none;stroke:#cccccc;stroke-linecap:round"
       id="path90" />
  </g>
  <g
     id="text_8"
     transform="matrix(1.4,0,0,1.4,-13.323719,-100.01892)">
    <!-- 0 -->
    <defs
       id="defs94">
      <path
         d="m 31.78125,66.40625 q -7.609375,0 -11.453125,-7.5 Q 16.5,51.421875 16.5,36.375 q 0,-14.984375 3.828125,-22.484375 3.84375,-7.5 11.453125,-7.5 7.671875,0 11.5,7.5 3.84375,7.5 3.84375,22.484375 0,15.046875 -3.84375,22.53125 -3.828125,7.5 -11.5,7.5 z m 0,7.8125 q 12.265625,0 18.734375,-9.703125 6.46875,-9.6875 6.46875,-28.140625 0,-18.40625 -6.46875,-28.109375 -6.46875,-9.6875 -18.734375,-9.6875 -12.25,0 -18.71875,9.6875 Q 6.59375,17.96875 6.59375,36.375 q 0,18.453125 6.46875,28.140625 6.46875,9.703125 18.71875,9.703125 z"
         id="DejaVuSans-48" />
    </defs>
    <g
       style="fill:#262626"
       transform="matrix(0.11,0,0,-0.11,29.8125,254.05114)"
       id="g98">
      <use
         xlink:href="#DejaVuSans-48"
         id="use96"
         x="0"
         y="0"
         width="100%"
         height="100%" />
    </g>
  </g>
  <g
     id="line2d_2">
    <path
       clip-path="url(#p0f822d52a4)"
       d="m 46.31125,216.8275 h 218.3745"
       style="fill:none;stroke:#cccccc;stroke-linecap:round"
       id="path102" />
  </g>
  <g
     id="text_9"
     transform="matrix(1.4,0,0,1.4,-13.265625,-86.769844)">
    <!-- 2 -->
    <g
       style="fill:#262626"
       transform="matrix(0.11,0,0,-0.11,29.8125,221.00664)"
       id="g107">
      <use
         xlink:href="#DejaVuSans-50"
         id="use105"
         x="0"
         y="0"
         width="100%"
         height="100%" />
    </g>
  </g>
  <g
     id="line2d_3">
    <path
       clip-path="url(#p0f822d52a4)"
       d="m 46.31125,183.783 h 218.3745"
       style="fill:none;stroke:#cccccc;stroke-linecap:round"
       id="path111" />
  </g>
  <g
     id="text_10"
     transform="matrix(1.4,0,0,1.4,-13.308938,-73.580918)">
    <!-- 4 -->
    <g
       style="fill:#262626"
       transform="matrix(0.11,0,0,-0.11,29.8125,187.96214)"
       id="g116">
      <use
         xlink:href="#DejaVuSans-52"
         id="use114"
         x="0"
         y="0"
         width="100%"
         height="100%" />
    </g>
  </g>
  <g
     id="line2d_4">
    <path
       clip-path="url(#p0f822d52a4)"
       d="m 46.31125,150.73849 h 218.3745"
       style="fill:none;stroke:#cccccc;stroke-linecap:round"
       id="path120" />
  </g>
  <g
     id="text_11"
     transform="matrix(1.4,0,0,1.4,-13.339875,-60.365521)">
    <!-- 6 -->
    <g
       style="fill:#262626"
       transform="matrix(0.11,0,0,-0.11,29.8125,154.91763)"
       id="g125">
      <use
         xlink:href="#DejaVuSans-54"
         id="use123"
         x="0"
         y="0"
         width="100%"
         height="100%" />
    </g>
  </g>
  <g
     id="line2d_5">
    <path
       clip-path="url(#p0f822d52a4)"
       d="m 46.31125,117.69399 h 218.3745"
       style="fill:none;stroke:#cccccc;stroke-linecap:round"
       id="path129" />
  </g>
  <g
     id="text_12"
     transform="matrix(1.4,0,0,1.4,-13.323375,-47.147721)">
    <!-- 8 -->
    <defs
       id="defs133">
      <path
         d="m 31.78125,34.625 q -7.03125,0 -11.0625,-3.765625 -4.015625,-3.765625 -4.015625,-10.34375 0,-6.59375 4.015625,-10.359375 4.03125,-3.765625 11.0625,-3.765625 7.03125,0 11.078125,3.78125 4.0625,3.796875 4.0625,10.34375 0,6.578125 -4.03125,10.34375 Q 38.875,34.625 31.78125,34.625 Z m -9.859375,4.1875 Q 15.578125,40.375 12.03125,44.71875 8.5,49.078125 8.5,55.328125 q 0,8.734375 6.21875,13.8125 6.234375,5.078125 17.0625,5.078125 10.890625,0 17.09375,-5.078125 6.203125,-5.078125 6.203125,-13.8125 0,-6.25 -3.546875,-10.609375 Q 48,40.375 41.703125,38.8125 q 7.125,-1.65625 11.09375,-6.5 3.984375,-4.828125 3.984375,-11.796875 0,-10.609375 -6.46875,-16.28125 -6.46875,-5.65625 -18.53125,-5.65625 -12.046875,0 -18.53125,5.65625 -6.46875,5.671875 -6.46875,16.28125 0,6.96875 4,11.796875 4.015625,4.84375 11.140625,6.5 z M 18.3125,54.390625 q 0,-5.65625 3.53125,-8.828125 3.546875,-3.171875 9.9375,-3.171875 6.359375,0 9.9375,3.171875 3.59375,3.171875 3.59375,8.828125 0,5.671875 -3.59375,8.84375 -3.578125,3.171875 -9.9375,3.171875 -6.390625,0 -9.9375,-3.171875 Q 18.3125,60.0625 18.3125,54.390625 Z"
         id="DejaVuSans-56" />
    </defs>
    <g
       style="fill:#262626"
       transform="matrix(0.11,0,0,-0.11,29.8125,121.87313)"
       id="g137">
      <use
         xlink:href="#DejaVuSans-56"
         id="use135"
         x="0"
         y="0"
         width="100%"
         height="100%" />
    </g>
  </g>
  <g
     id="line2d_6">
    <path
       clip-path="url(#p0f822d52a4)"
       d="m 46.31125,84.649489 h 218.3745"
       style="fill:none;stroke:#cccccc;stroke-linecap:round"
       id="path141" />
  </g>
  <g
     id="text_13"
     transform="matrix(1.4,0,0,1.4,-12.02052,-33.929921)">
    <!-- 10 -->
    <g
       style="fill:#262626"
       transform="matrix(0.11,0,0,-0.11,22.81375,88.82863)"
       id="g148">
      <use
         xlink:href="#DejaVuSans-49"
         id="use144"
         x="0"
         y="0"
         width="100%"
         height="100%" />
      <use
         x="63.623047"
         xlink:href="#DejaVuSans-48"
         id="use146"
         y="0"
         width="100%"
         height="100%" />
    </g>
  </g>
  <g
     id="patch_3">
    <path
       clip-path="url(#p0f822d52a4)"
       d="m 49.950825,249.872 h 14.5583 v -49.56675 h -14.5583 z"
       style="fill:#3274a1;stroke:#ffffff;stroke-linejoin:miter"
       id="path171" />
  </g>
  <g
     id="patch_4">
    <path
       clip-path="url(#p0f822d52a4)"
       d="M 86.346575,249.872 H 100.90488 V 216.8275 H 86.346575 Z"
       style="fill:#3274a1;stroke:#ffffff;stroke-linejoin:miter"
       id="path174" />
  </g>
  <g
     id="patch_5">
    <path
       clip-path="url(#p0f822d52a4)"
       d="m 122.74232,249.872 h 14.5583 V 68.127238 h -14.5583 z"
       style="fill:#3274a1;stroke:#ffffff;stroke-linejoin:miter"
       id="path177" />
  </g>
  <g
     id="patch_6">
    <path
       clip-path="url(#p0f822d52a4)"
       d="m 159.13807,249.872 h 14.5583 v -33.0445 h -14.5583 z"
       style="fill:#3274a1;stroke:#ffffff;stroke-linejoin:miter"
       id="path180" />
  </g>
  <g
     id="patch_7">
    <path
       clip-path="url(#p0f822d52a4)"
       d="m 195.53382,249.872 h 14.5583 v -66.089 h -14.5583 z"
       style="fill:#3274a1;stroke:#ffffff;stroke-linejoin:miter"
       id="path183" />
  </g>
  <g
     id="patch_8">
    <path
       clip-path="url(#p0f822d52a4)"
       d="m 231.92957,249.872 h 14.5583 v -16.52225 h -14.5583 z"
       style="fill:#3274a1;stroke:#ffffff;stroke-linejoin:miter"
       id="path186" />
  </g>
  <g
     id="patch_9">
    <path
       clip-path="url(#p0f822d52a4)"
       d=""
       style="fill:#e1812c;stroke:#ffffff;stroke-linejoin:miter"
       id="path189" />
  </g>
  <g
     id="patch_10">
    <path
       clip-path="url(#p0f822d52a4)"
       d="m 100.90488,249.872 h 14.5583 v -33.0445 h -14.5583 z"
       style="fill:#e1812c;stroke:#ffffff;stroke-linejoin:miter"
       id="path192" />
  </g>
  <g
     id="patch_11">
    <path
       clip-path="url(#p0f822d52a4)"
       d="m 137.30062,249.872 h 14.5583 V 134.21624 h -14.5583 z"
       style="fill:#e1812c;stroke:#ffffff;stroke-linejoin:miter"
       id="path195" />
  </g>
  <g
     id="patch_12">
    <path
       clip-path="url(#p0f822d52a4)"
       d="m 173.69637,249.872 h 14.5583 V 134.21624 h -14.5583 z"
       style="fill:#e1812c;stroke:#ffffff;stroke-linejoin:miter"
       id="path198" />
  </g>
  <g
     id="patch_13">
    <path
       clip-path="url(#p0f822d52a4)"
       d="m 210.09212,249.872 h 14.5583 v -66.089 h -14.5583 z"
       style="fill:#e1812c;stroke:#ffffff;stroke-linejoin:miter"
       id="path201" />
  </g>
  <g
     id="patch_14">
    <path
       clip-path="url(#p0f822d52a4)"
       d="m 246.48787,249.872 h 14.5583 v -16.52225 h -14.5583 z"
       style="fill:#e1812c;stroke:#ffffff;stroke-linejoin:miter"
       id="path204" />
  </g>
  <g
     id="patch_15">
    <path
       d="M 46.31125,249.872 V 59.04"
       style="fill:none;stroke:#cccccc;stroke-width:1.25;stroke-linecap:square;stroke-linejoin:miter"
       id="path207" />
  </g>
  <g
     id="patch_16">
    <path
       d="m 46.31125,249.872 h 218.3745"
       style="fill:none;stroke:#cccccc;stroke-width:1.25;stroke-linecap:square;stroke-linejoin:miter"
       id="path210" />
  </g>
  <g
     id="patch_17">
    <path
       d="M 273.52136,249.872 H 491.89585 V 59.04 H 273.52136 Z"
       style="fill:#ffffff"
       id="path259" />
  </g>
  <g
     id="xtick_1"
     transform="matrix(1.4,0,0,1.4,-25.84215,-105.48817)">
    <g
       id="text_1">
      <!-- 1 -->
      <defs
         id="defs13">
        <path
           d="m 12.40625,8.296875 h 16.109375 v 55.625 L 10.984375,60.40625 v 8.984375 l 17.4375,3.515625 H 38.28125 V 8.296875 H 54.390625 V 0 H 12.40625 Z"
           id="DejaVuSans-49" />
      </defs>
      <g
         style="fill:#262626"
         transform="matrix(0.11,0,0,-0.11,61.00975,267.73028)"
         id="g17">
        <use
           xlink:href="#DejaVuSans-49"
           id="use15"
           x="0"
           y="0"
           width="100%"
           height="100%" />
      </g>
    </g>
  </g>
  <g
     id="xtick_2"
     transform="matrix(1.4,0,0,1.4,-40.302825,-105.4593)">
    <g
       id="text_2">
      <!-- 2 -->
      <defs
         id="defs22">
        <path
           d="M 19.1875,8.296875 H 53.609375 V 0 H 7.328125 v 8.296875 q 5.609375,5.8125 15.296875,15.59375 9.703125,9.796875 12.1875,12.640625 4.734375,5.3125 6.609375,9 1.890625,3.6875 1.890625,7.25 0,5.8125 -4.078125,9.46875 -4.078125,3.671875 -10.625,3.671875 -4.640625,0 -9.796875,-1.609375 -5.140625,-1.609375 -11,-4.890625 v 9.96875 Q 13.765625,71.78125 18.9375,73 q 5.1875,1.21875 9.484375,1.21875 11.328125,0 18.0625,-5.671875 6.734375,-5.65625 6.734375,-15.125 0,-4.5 -1.6875,-8.53125 Q 49.859375,40.875 45.40625,35.40625 44.1875,33.984375 37.640625,27.21875 31.109375,20.453125 19.1875,8.296875 Z"
           id="DejaVuSans-50" />
      </defs>
      <g
         style="fill:#262626"
         transform="matrix(0.11,0,0,-0.11,97.4055,267.73028)"
         id="g26">
        <use
           xlink:href="#DejaVuSans-50"
           id="use24"
           x="0"
           y="0"
           width="100%"
           height="100%" />
      </g>
    </g>
  </g>
  <g
     id="xtick_3"
     transform="matrix(1.4,0,0,1.4,-54.911656,-105.49058)">
    <g
       id="text_3">
      <!-- 3 -->
      <defs
         id="defs31">
        <path
           d="M 40.578125,39.3125 Q 47.65625,37.796875 51.625,33 q 3.984375,-4.78125 3.984375,-11.8125 0,-10.78125 -7.421875,-16.703125 -7.421875,-5.90625 -21.09375,-5.90625 -4.578125,0 -9.4375,0.90625 -4.859375,0.90625 -10.03125,2.71875 v 9.515625 q 4.09375,-2.390625 8.96875,-3.609375 4.890625,-1.21875 10.21875,-1.21875 9.265625,0 14.125,3.65625 4.859375,3.65625 4.859375,10.640625 0,6.453125 -4.515625,10.078125 -4.515625,3.640625 -12.5625,3.640625 h -8.5 v 8.109375 h 8.890625 q 7.265625,0 11.125,2.90625 3.859375,2.90625 3.859375,8.375 0,5.609375 -3.984375,8.609375 -3.96875,3.015625 -11.390625,3.015625 -4.0625,0 -8.703125,-0.890625 Q 15.375,64.15625 9.8125,62.3125 v 8.78125 q 5.625,1.5625 10.53125,2.34375 4.90625,0.78125 9.25,0.78125 11.234375,0 17.765625,-5.109375 6.546875,-5.09375 6.546875,-13.78125 0,-6.0625 -3.46875,-10.234375 -3.46875,-4.171875 -9.859375,-5.78125 z"
           id="DejaVuSans-51" />
      </defs>
      <g
         style="fill:#262626"
         transform="matrix(0.11,0,0,-0.11,133.80125,267.73028)"
         id="g35">
        <use
           xlink:href="#DejaVuSans-51"
           id="use33"
           x="0"
           y="0"
           width="100%"
           height="100%" />
      </g>
    </g>
  </g>
  <g
     id="xtick_4"
     transform="matrix(1.4,0,0,1.4,-69.462737,-105.48817)">
    <g
       id="text_4">
      <!-- 4 -->
      <defs
         id="defs40">
        <path
           d="M 37.796875,64.3125 12.890625,25.390625 h 24.90625 z m -2.59375,8.59375 h 12.40625 V 25.390625 h 10.40625 V 17.1875 H 47.609375 V 0 h -9.8125 V 17.1875 H 4.890625 v 9.515625 z"
           id="DejaVuSans-52" />
      </defs>
      <g
         style="fill:#262626"
         transform="matrix(0.11,0,0,-0.11,170.197,267.73028)"
         id="g44">
        <use
           xlink:href="#DejaVuSans-52"
           id="use42"
           x="0"
           y="0"
           width="100%"
           height="100%" />
      </g>
    </g>
  </g>
  <g
     id="xtick_5"
     transform="matrix(1.4,0,0,1.4,-84.014506,-105.51946)">
    <g
       id="text_5">
      <!-- 5 -->
      <defs
         id="defs49">
        <path
           d="m 10.796875,72.90625 h 38.71875 v -8.3125 h -29.6875 V 46.734375 q 2.140625,0.734375 4.28125,1.09375 2.15625,0.359375 4.3125,0.359375 Q 40.625,48.1875 47.75,41.5 54.890625,34.8125 54.890625,23.390625 54.890625,11.625 47.5625,5.09375 40.234375,-1.421875 26.90625,-1.421875 q -4.59375,0 -9.359375,0.78125 -4.75,0.78125 -9.828125,2.34375 V 11.625 q 4.390625,-2.390625 9.078125,-3.5625 4.6875,-1.171875 9.90625,-1.171875 8.453125,0 13.375,4.4375 4.9375,4.4375 4.9375,12.0625 0,7.609375 -4.9375,12.046875 -4.921875,4.453125 -13.375,4.453125 -3.953125,0 -7.890625,-0.875 -3.921875,-0.875 -8.015625,-2.734375 z"
           id="DejaVuSans-53" />
      </defs>
      <g
         style="fill:#262626"
         transform="matrix(0.11,0,0,-0.11,206.59275,267.73028)"
         id="g53">
        <use
           xlink:href="#DejaVuSans-53"
           id="use51"
           x="0"
           y="0"
           width="100%"
           height="100%" />
      </g>
    </g>
  </g>
  <g
     id="xtick_6"
     transform="matrix(1.4,0,0,1.4,-98.610275,-105.49058)">
    <g
       id="text_6">
      <!-- 6 -->
      <defs
         id="defs58">
        <path
           d="m 33.015625,40.375 q -6.640625,0 -10.53125,-4.546875 -3.875,-4.53125 -3.875,-12.4375 0,-7.859375 3.875,-12.4375 3.890625,-4.5625 10.53125,-4.5625 6.640625,0 10.515625,4.5625 3.875,4.578125 3.875,12.4375 0,7.90625 -3.875,12.4375 Q 39.65625,40.375 33.015625,40.375 Z M 52.59375,71.296875 V 62.3125 q -3.71875,1.75 -7.5,2.671875 -3.78125,0.9375 -7.5,0.9375 -9.765625,0 -14.921875,-6.59375 -5.140625,-6.59375 -5.875,-19.921875 2.875,4.25 7.21875,6.515625 4.359375,2.265625 9.578125,2.265625 10.984375,0 17.359375,-6.671875 6.375,-6.65625 6.375,-18.125 0,-11.234375 -6.640625,-18.03125 -6.640625,-6.78125 -17.671875,-6.78125 -12.65625,0 -19.34375,9.6875 -6.6875,9.703125 -6.6875,28.109375 0,17.28125 8.203125,27.5625 8.203125,10.28125 22.015625,10.28125 3.71875,0 7.5,-0.734375 3.78125,-0.734375 7.890625,-2.1875 z"
           id="DejaVuSans-54" />
      </defs>
      <g
         style="fill:#262626"
         transform="matrix(0.11,0,0,-0.11,242.9885,267.73028)"
         id="g62">
        <use
           xlink:href="#DejaVuSans-54"
           id="use60"
           x="0"
           y="0"
           width="100%"
           height="100%" />
      </g>
    </g>
  </g>
  <g
     id="xtick_7"
     transform="matrix(1.4,0,0,1.4,-116.72619,-105.48817)">
    <g
       id="text_16">
      <!-- 1 -->
      <g
         style="fill:#262626"
         transform="matrix(0.11,0,0,-0.11,288.21986,267.73028)"
         id="g264">
        <use
           xlink:href="#DejaVuSans-49"
           id="use262"
           x="0"
           y="0"
           width="100%"
           height="100%" />
      </g>
    </g>
  </g>
  <g
     id="xtick_8"
     transform="matrix(1.4,0,0,1.4,-131.18687,-105.4593)">
    <g
       id="text_17">
      <!-- 2 -->
      <g
         style="fill:#262626"
         transform="matrix(0.11,0,0,-0.11,324.61561,267.73028)"
         id="g270">
        <use
           xlink:href="#DejaVuSans-50"
           id="use268"
           x="0"
           y="0"
           width="100%"
           height="100%" />
      </g>
    </g>
  </g>
  <g
     id="xtick_9"
     transform="matrix(1.4,0,0,1.4,-145.7957,-105.49058)">
    <g
       id="text_18">
      <!-- 3 -->
      <g
         style="fill:#262626"
         transform="matrix(0.11,0,0,-0.11,361.01136,267.73028)"
         id="g276">
        <use
           xlink:href="#DejaVuSans-51"
           id="use274"
           x="0"
           y="0"
           width="100%"
           height="100%" />
      </g>
    </g>
  </g>
  <g
     id="xtick_10"
     transform="matrix(1.4,0,0,1.4,-160.34678,-105.48817)">
    <g
       id="text_19">
      <!-- 4 -->
      <g
         style="fill:#262626"
         transform="matrix(0.11,0,0,-0.11,397.4071,267.73028)"
         id="g282">
        <use
           xlink:href="#DejaVuSans-52"
           id="use280"
           x="0"
           y="0"
           width="100%"
           height="100%" />
      </g>
    </g>
  </g>
  <g
     id="xtick_11"
     transform="matrix(1.4,0,0,1.4,-174.89855,-105.51946)">
    <g
       id="text_20">
      <!-- 5 -->
      <g
         style="fill:#262626"
         transform="matrix(0.11,0,0,-0.11,433.80286,267.73028)"
         id="g288">
        <use
           xlink:href="#DejaVuSans-53"
           id="use286"
           x="0"
           y="0"
           width="100%"
           height="100%" />
      </g>
    </g>
  </g>
  <g
     id="xtick_12"
     transform="matrix(1.4,0,0,1.4,-189.49431,-105.49058)">
    <g
       id="text_21">
      <!-- 6 -->
      <g
         style="fill:#262626"
         transform="matrix(0.11,0,0,-0.11,470.1986,267.73028)"
         id="g294">
        <use
           xlink:href="#DejaVuSans-54"
           id="use292"
           x="0"
           y="0"
           width="100%"
           height="100%" />
      </g>
    </g>
  </g>
  <g
     id="matplotlib.axis_4">
    <g
       id="ytick_7">
      <g
         id="line2d_7">
        <path
           clip-path="url(#p8dd56ba4d4)"
           d="M 273.52136,249.872 H 491.89585"
           style="fill:none;stroke:#cccccc;stroke-linecap:round"
           id="path314" />
      </g>
    </g>
    <g
       id="ytick_8">
      <g
         id="line2d_8">
        <path
           clip-path="url(#p8dd56ba4d4)"
           d="M 273.52136,216.8275 H 491.89585"
           style="fill:none;stroke:#cccccc;stroke-linecap:round"
           id="path318" />
      </g>
    </g>
    <g
       id="ytick_9">
      <g
         id="line2d_9">
        <path
           clip-path="url(#p8dd56ba4d4)"
           d="M 273.52136,183.783 H 491.89585"
           style="fill:none;stroke:#cccccc;stroke-linecap:round"
           id="path322" />
      </g>
    </g>
    <g
       id="ytick_10">
      <g
         id="line2d_10">
        <path
           clip-path="url(#p8dd56ba4d4)"
           d="M 273.52136,150.73849 H 491.89585"
           style="fill:none;stroke:#cccccc;stroke-linecap:round"
           id="path326" />
      </g>
    </g>
    <g
       id="ytick_11">
      <g
         id="line2d_11">
        <path
           clip-path="url(#p8dd56ba4d4)"
           d="M 273.52136,117.69399 H 491.89585"
           style="fill:none;stroke:#cccccc;stroke-linecap:round"
           id="path330" />
      </g>
    </g>
    <g
       id="ytick_12">
      <g
         id="line2d_12">
        <path
           clip-path="url(#p8dd56ba4d4)"
           d="M 273.52136,84.649489 H 491.89585"
           style="fill:none;stroke:#cccccc;stroke-linecap:round"
           id="path334" />
      </g>
    </g>
  </g>
  <g
     id="patch_18">
    <path
       clip-path="url(#p8dd56ba4d4)"
       d=""
       style="fill:#3274a1;stroke:#ffffff;stroke-linejoin:miter"
       id="path339" />
  </g>
  <g
     id="patch_19">
    <path
       clip-path="url(#p8dd56ba4d4)"
       d="m 313.55668,249.872 h 14.5583 v -49.56675 h -14.5583 z"
       style="fill:#3274a1;stroke:#ffffff;stroke-linejoin:miter"
       id="path342" />
  </g>
  <g
     id="patch_20">
    <path
       clip-path="url(#p8dd56ba4d4)"
       d="m 349.95243,249.872 h 14.5583 v -99.13351 h -14.5583 z"
       style="fill:#3274a1;stroke:#ffffff;stroke-linejoin:miter"
       id="path345" />
  </g>
  <g
     id="patch_21">
    <path
       clip-path="url(#p8dd56ba4d4)"
       d="m 386.34818,249.872 h 14.5583 V 134.21624 h -14.5583 z"
       style="fill:#3274a1;stroke:#ffffff;stroke-linejoin:miter"
       id="path348" />
  </g>
  <g
     id="patch_22">
    <path
       clip-path="url(#p8dd56ba4d4)"
       d="m 422.74393,249.872 h 14.5583 v -99.13351 h -14.5583 z"
       style="fill:#3274a1;stroke:#ffffff;stroke-linejoin:miter"
       id="path351" />
  </g>
  <g
     id="patch_23">
    <path
       clip-path="url(#p8dd56ba4d4)"
       d="m 459.13968,249.872 h 14.5583 v -16.52225 h -14.5583 z"
       style="fill:#3274a1;stroke:#ffffff;stroke-linejoin:miter"
       id="path354" />
  </g>
  <g
     id="patch_24">
    <path
       clip-path="url(#p8dd56ba4d4)"
       d=""
       style="fill:#e1812c;stroke:#ffffff;stroke-linejoin:miter"
       id="path357" />
  </g>
  <g
     id="patch_25">
    <path
       clip-path="url(#p8dd56ba4d4)"
       d="m 328.11498,249.872 h 14.5583 v -33.0445 h -14.5583 z"
       style="fill:#e1812c;stroke:#ffffff;stroke-linejoin:miter"
       id="path360" />
  </g>
  <g
     id="patch_26">
    <path
       clip-path="url(#p8dd56ba4d4)"
       d="m 364.51073,249.872 h 14.5583 V 84.649489 h -14.5583 z"
       style="fill:#e1812c;stroke:#ffffff;stroke-linejoin:miter"
       id="path363" />
  </g>
  <g
     id="patch_27">
    <path
       clip-path="url(#p8dd56ba4d4)"
       d="m 400.90648,249.872 h 14.5583 V 117.69399 h -14.5583 z"
       style="fill:#e1812c;stroke:#ffffff;stroke-linejoin:miter"
       id="path366" />
  </g>
  <g
     id="patch_28">
    <path
       clip-path="url(#p8dd56ba4d4)"
       d="m 437.30223,249.872 h 14.5583 v -49.56675 h -14.5583 z"
       style="fill:#e1812c;stroke:#ffffff;stroke-linejoin:miter"
       id="path369" />
  </g>
  <g
     id="patch_29">
    <path
       clip-path="url(#p8dd56ba4d4)"
       d=""
       style="fill:#e1812c;stroke:#ffffff;stroke-linejoin:miter"
       id="path372" />
  </g>
  <g
     id="patch_30">
    <path
       d="M 273.52136,249.872 V 59.04"
       style="fill:none;stroke:#cccccc;stroke-width:1.25;stroke-linecap:square;stroke-linejoin:miter"
       id="path375" />
  </g>
  <g
     id="patch_31">
    <path
       d="M 273.52136,249.872 H 491.89585"
       style="fill:none;stroke:#cccccc;stroke-width:1.25;stroke-linecap:square;stroke-linejoin:miter"
       id="path378" />
  </g>
  <g
     id="text_24"
     transform="matrix(1.15,0,0,1.15,-41.538602,-3.3346012)">
    <!-- Number of True in VR and Computer -->
    <defs
       id="defs428">
      <path
         d="M 9.8125,72.90625 H 23.09375 L 55.421875,11.921875 V 72.90625 h 9.5625 V 0 h -13.28125 l -32.3125,60.984375 V 0 H 9.8125 Z"
         id="DejaVuSans-78" />
      <path
         d="M 52,44.1875 Q 55.375,50.25 60.0625,53.125 64.75,56 71.09375,56 q 8.546875,0 13.1875,-5.984375 4.640625,-5.96875 4.640625,-17 V 0 h -9.03125 v 32.71875 q 0,7.859375 -2.796875,11.65625 -2.78125,3.8125 -8.484375,3.8125 -6.984375,0 -11.046875,-4.640625 -4.046875,-4.625 -4.046875,-12.640625 V 0 h -9.03125 v 32.71875 q 0,7.90625 -2.78125,11.6875 -2.78125,3.78125 -8.59375,3.78125 -6.890625,0 -10.953125,-4.65625 -4.046875,-4.65625 -4.046875,-12.625 V 0 h -9.03125 v 54.6875 h 9.03125 v -8.5 q 3.078125,5.03125 7.375,7.421875 Q 29.78125,56 35.6875,56 41.65625,56 45.828125,52.96875 50,49.953125 52,44.1875 Z"
         id="DejaVuSans-109" />
      <path
         d="M 37.109375,75.984375 V 68.5 h -8.59375 q -4.828125,0 -6.71875,-1.953125 -1.875,-1.953125 -1.875,-7.03125 V 54.6875 H 34.71875 V 47.703125 H 19.921875 V 0 h -9.03125 V 47.703125 H 2.296875 V 54.6875 h 8.59375 V 58.5 q 0,9.125 4.25,13.296875 4.25,4.1875 13.46875,4.1875 z"
         id="DejaVuSans-102" />
      <path
         d="M 9.421875,54.6875 H 18.40625 V 0 H 9.421875 Z m 0,21.296875 H 18.40625 V 64.59375 H 9.421875 Z"
         id="DejaVuSans-105" />
      <path
         d="M 28.609375,0 0.78125,72.90625 h 10.296875 l 23.109375,-61.375 23.140625,61.375 h 10.25 L 39.796875,0 Z"
         id="DejaVuSans-86" />
      <path
         d="m 44.390625,34.1875 q 3.171875,-1.078125 6.171875,-4.59375 3,-3.515625 6.03125,-9.671875 L 66.609375,0 H 56 l -9.3125,18.703125 q -3.625,7.328125 -7.015625,9.71875 -3.390625,2.390625 -9.25,2.390625 h -10.75 V 0 H 9.8125 v 72.90625 h 22.265625 q 12.5,0 18.65625,-5.234375 6.15625,-5.21875 6.15625,-15.765625 0,-6.890625 -3.203125,-11.4375 -3.203125,-4.53125 -9.296875,-6.28125 z m -24.71875,30.609375 v -25.875 h 12.40625 q 7.125,0 10.765625,3.296875 3.640625,3.296875 3.640625,9.6875 0,6.390625 -3.640625,9.640625 -3.640625,3.25 -10.765625,3.25 z"
         id="DejaVuSans-82" />
      <path
         d="m 34.28125,27.484375 q -10.890625,0 -15.09375,-2.484375 -4.203125,-2.484375 -4.203125,-8.5 0,-4.78125 3.15625,-7.59375 3.15625,-2.796875 8.5625,-2.796875 7.484375,0 12,5.296875 4.515625,5.296875 4.515625,14.078125 v 2 z m 17.921875,3.71875 V 0 H 43.21875 v 8.296875 q -3.078125,-4.96875 -7.671875,-7.34375 -4.59375,-2.375 -11.234375,-2.375 -8.390625,0 -13.359375,4.71875 Q 6,8.015625 6,15.921875 q 0,9.21875 6.171875,13.90625 6.1875,4.6875 18.4375,4.6875 H 43.21875 v 0.890625 q 0,6.203125 -4.078125,9.59375 -4.078125,3.390625 -11.453125,3.390625 -4.6875,0 -9.140625,-1.125 -4.4375,-1.125 -8.53125,-3.375 v 8.3125 q 4.921875,1.90625 9.5625,2.84375 Q 24.21875,56 28.609375,56 q 11.875,0 17.734375,-6.15625 5.859375,-6.140625 5.859375,-18.640625 z"
         id="DejaVuSans-97" />
      <path
         d="M 64.40625,67.28125 V 56.890625 q -4.984375,4.640625 -10.625,6.921875 -5.640625,2.296875 -11.984375,2.296875 -12.5,0 -19.140625,-7.640625 -6.640625,-7.640625 -6.640625,-22.09375 0,-14.40625 6.640625,-22.046875 Q 29.296875,6.6875 41.796875,6.6875 q 6.34375,0 11.984375,2.296875 5.640625,2.296875 10.625,6.9375 V 5.609375 Q 59.234375,2.09375 53.4375,0.328125 q -5.78125,-1.75 -12.21875,-1.75 -16.5625,0 -26.09375,10.125 Q 5.609375,18.84375 5.609375,36.375 q 0,17.578125 9.515625,27.703125 9.53125,10.140625 26.09375,10.140625 6.53125,0 12.3125,-1.734375 5.796875,-1.734375 10.875,-5.203125 z"
         id="DejaVuSans-67" />
      <path
         d="m 18.109375,8.203125 v -29 H 9.078125 V 54.6875 h 9.03125 v -8.296875 q 2.84375,4.875 7.15625,7.234375 Q 29.59375,56 35.59375,56 q 9.96875,0 16.1875,-7.90625 6.234375,-7.90625 6.234375,-20.796875 0,-12.890625 -6.234375,-20.8125 -6.21875,-7.90625 -16.1875,-7.90625 -6,0 -10.328125,2.375 -4.3125,2.375 -7.15625,7.25 z M 48.6875,27.296875 q 0,9.90625 -4.078125,15.546875 -4.078125,5.640625 -11.203125,5.640625 -7.140625,0 -11.21875,-5.640625 -4.078125,-5.640625 -4.078125,-15.546875 0,-9.90625 4.078125,-15.546875 4.078125,-5.640625 11.21875,-5.640625 7.125,0 11.203125,5.640625 4.078125,5.640625 4.078125,15.546875 z"
         id="DejaVuSans-112" />
    </defs>
    <g
       style="fill:#262626"
       transform="matrix(0.144,0,0,-0.144,145.50362,18.14175)"
       id="g496">
      <use
         xlink:href="#DejaVuSans-78"
         id="use430"
         x="0"
         y="0"
         width="100%"
         height="100%" />
      <path
         d="M 83.304687,21.578125 V 54.6875 h 8.984375 V 21.921875 q 0,-7.765625 3.015625,-11.65625 3.03125,-3.875 9.093753,-3.875 7.26562,0 11.48437,4.640625 4.23438,4.640625 4.23438,12.65625 v 31 h 8.98437 V 0 h -8.98437 V 8.40625 Q 116.85156,3.421875 112.52344,1 q -4.3125,-2.421875 -10.03125,-2.421875 -9.421878,0 -14.312503,5.859375 -4.875,5.859375 -4.875,17.140625 z M 105.91406,56 Z"
         id="use432" />
      <use
         x="138.18359"
         xlink:href="#DejaVuSans-109"
         id="use434"
         y="0"
         width="100%"
         height="100%" />
      <path
         d="m 284.2832,27.296875 q 0,9.90625 -4.07812,15.546875 -4.07813,5.640625 -11.20313,5.640625 -7.14062,0 -11.21875,-5.640625 -4.07812,-5.640625 -4.07812,-15.546875 0,-9.90625 4.07812,-15.546875 4.07813,-5.640625 11.21875,-5.640625 7.125,0 11.20313,5.640625 4.07812,5.640625 4.07812,15.546875 z m -30.57812,19.09375 q 2.84375,4.875 7.15625,7.234375 4.32812,2.375 10.32812,2.375 9.96875,0 16.1875,-7.90625 6.23438,-7.90625 6.23438,-20.796875 0,-12.890625 -6.23438,-20.8125 -6.21875,-7.90625 -16.1875,-7.90625 -6,0 -10.32812,2.375 -4.3125,2.375 -7.15625,7.25 V 0 h -9.03125 v 75.984375 h 9.03125 z"
         id="use436" />
      <path
         d="m 355.27539,29.59375 v -4.390625 h -41.3125 q 0.59375,-9.28125 5.59375,-14.140625 5,-4.859375 13.9375,-4.859375 5.17188,0 10.03125,1.265625 4.85938,1.265625 9.65625,3.8125 v -8.5 q -4.84375,-2.046875 -9.92187,-3.125 -5.07813,-1.078125 -10.29688,-1.078125 -13.09375,0 -20.73437,7.609375 -7.64063,7.625 -7.64063,20.625 0,13.421875 7.25,21.296875 Q 319.08789,56 331.40039,56 q 11.03125,0 17.45313,-7.109375 6.42187,-7.09375 6.42187,-19.296875 z m -8.98437,2.640625 q -0.0937,7.359375 -4.125,11.75 -4.03125,4.40625 -10.67188,4.40625 -7.51562,0 -12.03125,-4.25 -4.51562,-4.25 -5.20312,-11.96875 z"
         id="use438" />
      <path
         d="m 401.70508,46.296875 q -1.51563,0.875 -3.29688,1.28125 Q 396.62695,48 394.48633,48 386.86133,48 382.7832,43.046875 378.70508,38.09375 378.70508,28.8125 V 0 h -9.03125 v 54.6875 h 9.03125 v -8.5 q 2.84375,4.984375 7.375,7.390625 Q 390.62695,56 397.12695,56 q 0.92188,0 2.04688,-0.125 1.125,-0.109375 2.48437,-0.359375 z"
         id="use440" />
      <path
         id="use442"
         d="" />
      <path
         d="m 464.10547,48.390625 q -7.21875,0 -11.42188,-5.640625 -4.20312,-5.640625 -4.20312,-15.453125 0,-9.8125 4.17187,-15.453125 4.1875,-5.640625 11.45313,-5.640625 7.1875,0 11.375,5.65625 4.20312,5.671875 4.20312,15.4375 0,9.71875 -4.20312,15.40625 -4.1875,5.6875 -11.375,5.6875 z m 0,7.609375 q 11.71875,0 18.40625,-7.625 6.70312,-7.609375 6.70312,-21.078125 0,-13.421875 -6.70312,-21.078125 -6.6875,-7.640625 -18.40625,-7.640625 -11.76563,0 -18.4375,7.640625 -6.65625,7.65625 -6.65625,21.078125 0,13.46875 6.65625,21.078125 6.67187,7.625 18.4375,7.625 z"
         id="use444" />
      <use
         x="494.67773"
         xlink:href="#DejaVuSans-102"
         id="use446"
         y="0"
         width="100%"
         height="100%" />
      <path
         id="use448"
         d="" />
      <path
         d="m 561.37305,72.90625 h 61.67187 v -8.3125 h -25.875 V 0 h -9.90625 v 64.59375 h -25.89062 z"
         id="use450" />
      <path
         d="m 649.11328,46.296875 q -1.51562,0.875 -3.29687,1.28125 Q 644.03516,48 641.89453,48 634.26953,48 630.19141,43.046875 626.11328,38.09375 626.11328,28.8125 V 0 h -9.03125 v 54.6875 h 9.03125 v -8.5 q 2.84375,4.984375 7.375,7.390625 Q 638.03516,56 644.53516,56 q 0.92187,0 2.04687,-0.125 1.125,-0.109375 2.48438,-0.359375 z"
         id="use452" />
      <path
         d="M 657.61719,21.578125 V 54.6875 h 8.98437 V 21.921875 q 0,-7.765625 3.01563,-11.65625 3.03125,-3.875 9.09375,-3.875 7.26562,0 11.48437,4.640625 4.23438,4.640625 4.23438,12.65625 v 31 h 8.98437 V 0 h -8.98437 V 8.40625 Q 691.16406,3.421875 686.83594,1 q -4.3125,-2.421875 -10.03125,-2.421875 -9.42188,0 -14.3125,5.859375 -4.875,5.859375 -4.875,17.140625 z M 680.22656,56 Z"
         id="use454" />
      <path
         d="m 768.69922,29.59375 v -4.390625 h -41.3125 q 0.59375,-9.28125 5.59375,-14.140625 5,-4.859375 13.9375,-4.859375 5.17187,0 10.03125,1.265625 4.85937,1.265625 9.65625,3.8125 v -8.5 q -4.84375,-2.046875 -9.92188,-3.125 -5.07812,-1.078125 -10.29687,-1.078125 -13.09375,0 -20.73438,7.609375 -7.64062,7.625 -7.64062,20.625 0,13.421875 7.25,21.296875 Q 732.51172,56 744.82422,56 q 11.03125,0 17.45312,-7.109375 6.42188,-7.09375 6.42188,-19.296875 z m -8.98438,2.640625 q -0.0937,7.359375 -4.125,11.75 -4.03125,4.40625 -10.67187,4.40625 -7.51563,0 -12.03125,-4.25 -4.51563,-4.25 -5.20313,-11.96875 z"
         id="use456" />
      <path
         id="use458"
         d="" />
      <use
         x="805.80664"
         xlink:href="#DejaVuSans-105"
         id="use460"
         y="0"
         width="100%"
         height="100%" />
      <path
         d="M 888.48047,33.015625 V 0 h -8.98438 v 32.71875 q 0,7.765625 -3.03125,11.609375 -3.03125,3.859375 -9.07812,3.859375 -7.28125,0 -11.48438,-4.640625 -4.20312,-4.625 -4.20312,-12.640625 V 0 h -9.03125 v 54.6875 h 9.03125 v -8.5 q 3.23437,4.9375 7.59375,7.375 4.375,2.4375 10.09375,2.4375 9.42187,0 14.25,-5.828125 4.84375,-5.828125 4.84375,-17.15625 z"
         id="use462" />
      <path
         id="use464"
         d="" />
      <use
         x="928.75586"
         xlink:href="#DejaVuSans-86"
         id="use466"
         y="0"
         width="100%"
         height="100%" />
      <use
         x="997.16406"
         xlink:href="#DejaVuSans-82"
         id="use468"
         y="0"
         width="100%"
         height="100%" />
      <path
         id="use470"
         d="" />
      <use
         x="1098.4336"
         xlink:href="#DejaVuSans-97"
         id="use472"
         y="0"
         width="100%"
         height="100%" />
      <path
         d="M 1214.6035,33.015625 V 0 h -8.9844 v 32.71875 q 0,7.765625 -3.0312,11.609375 -3.0313,3.859375 -9.0781,3.859375 -7.2813,0 -11.4844,-4.640625 -4.2031,-4.625 -4.2031,-12.640625 V 0 h -9.0313 v 54.6875 h 9.0313 v -8.5 q 3.2343,4.9375 7.5937,7.375 4.375,2.4375 10.0938,2.4375 9.4218,0 14.25,-5.828125 4.8437,-5.828125 4.8437,-17.15625 z"
         id="use474" />
      <path
         d="m 1268.498,46.390625 v 29.59375 h 8.9844 V 0 h -8.9844 v 8.203125 q -2.8281,-4.875 -7.1562,-7.25 -4.3125,-2.375 -10.375,-2.375 -9.9063,0 -16.1406,7.90625 -6.2188,7.921875 -6.2188,20.8125 0,12.890625 6.2188,20.796875 Q 1241.0605,56 1250.9668,56 q 6.0625,0 10.375,-2.375 4.3281,-2.359375 7.1562,-7.234375 z m -30.6093,-19.09375 q 0,-9.90625 4.0781,-15.546875 4.0781,-5.640625 11.2031,-5.640625 7.125,0 11.2188,5.640625 4.1093,5.640625 4.1093,15.546875 0,9.90625 -4.1093,15.546875 -4.0938,5.640625 -11.2188,5.640625 -7.125,0 -11.2031,-5.640625 -4.0781,-5.640625 -4.0781,-15.546875 z"
         id="use476" />
      <path
         id="use478"
         d="" />
      <use
         x="1318.3555"
         xlink:href="#DejaVuSans-67"
         id="use480"
         y="0"
         width="100%"
         height="100%" />
      <path
         d="m 1418.7891,48.390625 q -7.2188,0 -11.4219,-5.640625 -4.2031,-5.640625 -4.2031,-15.453125 0,-9.8125 4.1718,-15.453125 4.1875,-5.640625 11.4532,-5.640625 7.1875,0 11.375,5.65625 4.2031,5.671875 4.2031,15.4375 0,9.71875 -4.2031,15.40625 -4.1875,5.6875 -11.375,5.6875 z m 0,7.609375 q 11.7187,0 18.4062,-7.625 6.7031,-7.609375 6.7031,-21.078125 0,-13.421875 -6.7031,-21.078125 -6.6875,-7.640625 -18.4062,-7.640625 -11.7657,0 -18.4375,7.640625 -6.6563,7.65625 -6.6563,21.078125 0,13.46875 6.6563,21.078125 6.6718,7.625 18.4375,7.625 z"
         id="use482" />
      <use
         x="1449.3613"
         xlink:href="#DejaVuSans-109"
         id="use484"
         y="0"
         width="100%"
         height="100%" />
      <use
         x="1546.7734"
         xlink:href="#DejaVuSans-112"
         id="use486"
         y="0"
         width="100%"
         height="100%" />
      <path
         d="M 1618.75,21.578125 V 54.6875 h 8.9844 V 21.921875 q 0,-7.765625 3.0156,-11.65625 3.0313,-3.875 9.0938,-3.875 7.2656,0 11.4843,4.640625 4.2344,4.640625 4.2344,12.65625 v 31 h 8.9844 V 0 h -8.9844 V 8.40625 Q 1652.2969,3.421875 1647.9688,1 q -4.3125,-2.421875 -10.0313,-2.421875 -9.4219,0 -14.3125,5.859375 -4.875,5.859375 -4.875,17.140625 z M 1641.3594,56 Z"
         id="use488" />
      <path
         d="M 1691.9414,70.21875 V 54.6875 h 18.5 v -6.984375 h -18.5 v -29.6875 q 0,-6.6875 1.8281,-8.59375 1.8282,-1.90625 7.4532,-1.90625 h 9.2187 V 0 h -9.2187 q -10.4063,0 -14.3594,3.875 -3.9531,3.890625 -3.9531,14.140625 v 29.6875 h -6.5938 V 54.6875 h 6.5938 v 15.53125 z"
         id="use490" />
      <path
         d="m 1769.041,29.59375 v -4.390625 h -41.3125 q 0.5938,-9.28125 5.5938,-14.140625 5,-4.859375 13.9375,-4.859375 5.1718,0 10.0312,1.265625 4.8594,1.265625 9.6563,3.8125 v -8.5 q -4.8438,-2.046875 -9.9219,-3.125 -5.0781,-1.078125 -10.2969,-1.078125 -13.0937,0 -20.7344,7.609375 -7.6406,7.625 -7.6406,20.625 0,13.421875 7.25,21.296875 Q 1732.8535,56 1745.166,56 q 11.0313,0 17.4531,-7.109375 6.4219,-7.09375 6.4219,-19.296875 z m -8.9844,2.640625 q -0.094,7.359375 -4.125,11.75 -4.0312,4.40625 -10.6718,4.40625 -7.5157,0 -12.0313,-4.25 -4.5156,-4.25 -5.2031,-11.96875 z"
         id="use492" />
      <path
         d="m 1815.4707,46.296875 q -1.5156,0.875 -3.2969,1.28125 Q 1810.3926,48 1808.252,48 q -7.625,0 -11.7032,-4.953125 -4.0781,-4.953125 -4.0781,-14.234375 V 0 h -9.0312 v 54.6875 h 9.0312 v -8.5 q 2.8438,4.984375 7.375,7.390625 Q 1804.3926,56 1810.8926,56 q 0.9219,0 2.0469,-0.125 1.125,-0.109375 2.4843,-0.359375 z"
         id="use494" />
    </g>
    <!-- in the first and second sequence -->
    <defs
       id="defs499">
      <path
         d="M 54.890625,33.015625 V 0 H 45.90625 v 32.71875 q 0,7.765625 -3.03125,11.609375 -3.03125,3.859375 -9.078125,3.859375 -7.28125,0 -11.484375,-4.640625 -4.203125,-4.625 -4.203125,-12.640625 V 0 h -9.03125 v 75.984375 h 9.03125 V 46.1875 q 3.234375,4.9375 7.59375,7.375 4.375,2.4375 10.09375,2.4375 9.421875,0 14.25,-5.828125 4.84375,-5.828125 4.84375,-17.15625 z"
         id="DejaVuSans-104" />
    </defs>
    <g
       style="fill:#262626"
       transform="matrix(0.144,0,0,-0.144,158.40512,34.2666)"
       id="g565">
      <use
         xlink:href="#DejaVuSans-105"
         id="use501"
         x="0"
         y="0"
         width="100%"
         height="100%" />
      <path
         d="M 82.673828,33.015625 V 0 h -8.984375 v 32.71875 q 0,7.765625 -3.03125,11.609375 -3.03125,3.859375 -9.078125,3.859375 -7.28125,0 -11.484375,-4.640625 -4.203125,-4.625 -4.203125,-12.640625 V 0 h -9.03125 v 54.6875 h 9.03125 v -8.5 q 3.234375,4.9375 7.59375,7.375 4.375,2.4375 10.09375,2.4375 9.421875,0 14.25,-5.828125 4.84375,-5.828125 4.84375,-17.15625 z"
         id="use503" />
      <path
         id="use505"
         d="" />
      <path
         d="M 141.26172,70.21875 V 54.6875 h 18.5 v -6.984375 h -18.5 v -29.6875 q 0,-6.6875 1.82812,-8.59375 1.82813,-1.90625 7.45313,-1.90625 h 9.21875 V 0 h -9.21875 q -10.40625,0 -14.35938,3.875 -3.95312,3.890625 -3.95312,14.140625 v 29.6875 h -6.59375 V 54.6875 h 6.59375 v 15.53125 z"
         id="use507" />
      <use
         x="162.1582"
         xlink:href="#DejaVuSans-104"
         id="use509"
         y="0"
         width="100%"
         height="100%" />
      <path
         d="m 281.74023,29.59375 v -4.390625 h -41.3125 q 0.59375,-9.28125 5.59375,-14.140625 5,-4.859375 13.9375,-4.859375 5.17188,0 10.03125,1.265625 4.85938,1.265625 9.65625,3.8125 v -8.5 q -4.84375,-2.046875 -9.92187,-3.125 -5.07813,-1.078125 -10.29688,-1.078125 -13.09375,0 -20.73437,7.609375 -7.64063,7.625 -7.64063,20.625 0,13.421875 7.25,21.296875 Q 245.55273,56 257.86523,56 q 11.03125,0 17.45313,-7.109375 6.42187,-7.09375 6.42187,-19.296875 z m -8.98437,2.640625 q -0.0937,7.359375 -4.125,11.75 -4.03125,4.40625 -10.67188,4.40625 -7.51562,0 -12.03125,-4.25 -4.51562,-4.25 -5.20312,-11.96875 z"
         id="use511" />
      <path
         id="use513"
         d="" />
      <use
         x="318.84766"
         xlink:href="#DejaVuSans-102"
         id="use515"
         y="0"
         width="100%"
         height="100%" />
      <use
         x="354.05273"
         xlink:href="#DejaVuSans-105"
         id="use517"
         y="0"
         width="100%"
         height="100%" />
      <path
         d="m 422.94531,46.296875 q -1.51562,0.875 -3.29687,1.28125 Q 417.86719,48 415.72656,48 408.10156,48 404.02344,43.046875 399.94531,38.09375 399.94531,28.8125 V 0 h -9.03125 v 54.6875 h 9.03125 v -8.5 q 2.84375,4.984375 7.375,7.390625 Q 411.86719,56 418.36719,56 q 0.92187,0 2.04687,-0.125 1.125,-0.109375 2.48438,-0.359375 z"
         id="use519" />
      <path
         d="m 467.23047,53.078125 v -8.5 q -3.79688,1.953125 -7.90625,2.921875 -4.09375,0.984375 -8.5,0.984375 -6.6875,0 -10.03125,-2.046875 -3.34375,-2.046875 -3.34375,-6.15625 0,-3.125 2.39062,-4.90625 2.39063,-1.78125 9.625,-3.390625 l 3.07813,-0.6875 q 9.5625,-2.046875 13.59375,-5.78125 4.03125,-3.734375 4.03125,-10.421875 0,-7.625 -6.03125,-12.078125 -6.03125,-4.4375 -16.57813,-4.4375 -4.39062,0 -9.15625,0.859375 Q 433.63672,0.296875 428.37109,2 v 9.28125 q 4.98438,-2.59375 9.8125,-3.890625 4.82813,-1.28125 9.57813,-1.28125 6.34375,0 9.75,2.171875 3.42187,2.171875 3.42187,6.125 0,3.65625 -2.46875,5.609375 -2.45312,1.953125 -10.8125,3.765625 l -3.125,0.734375 q -8.34375,1.75 -12.0625,5.390625 -3.70312,3.640625 -3.70312,9.984375 0,7.71875 5.46875,11.90625 Q 439.69922,56 449.76172,56 q 4.96875,0 9.35937,-0.734375 4.40625,-0.71875 8.10938,-2.1875 z"
         id="use521" />
      <path
         d="M 493.36133,70.21875 V 54.6875 h 18.5 v -6.984375 h -18.5 v -29.6875 q 0,-6.6875 1.82812,-8.59375 1.82813,-1.90625 7.45313,-1.90625 h 9.21875 V 0 h -9.21875 q -10.40625,0 -14.35938,3.875 -3.95312,3.890625 -3.95312,14.140625 v 29.6875 h -6.59375 V 54.6875 h 6.59375 v 15.53125 z"
         id="use523" />
      <path
         id="use525"
         d="" />
      <use
         x="546.04492"
         xlink:href="#DejaVuSans-97"
         id="use527"
         y="0"
         width="100%"
         height="100%" />
      <path
         d="M 662.21484,33.015625 V 0 h -8.98437 v 32.71875 q 0,7.765625 -3.03125,11.609375 -3.03125,3.859375 -9.07813,3.859375 -7.28125,0 -11.48437,-4.640625 -4.20313,-4.625 -4.20313,-12.640625 V 0 h -9.03125 v 54.6875 h 9.03125 v -8.5 q 3.23438,4.9375 7.59375,7.375 4.375,2.4375 10.09375,2.4375 9.42188,0 14.25,-5.828125 4.84375,-5.828125 4.84375,-17.15625 z"
         id="use529" />
      <path
         d="m 716.10937,46.390625 v 29.59375 h 8.98438 V 0 h -8.98438 v 8.203125 q -2.82812,-4.875 -7.15625,-7.25 -4.3125,-2.375 -10.375,-2.375 -9.90625,0 -16.14062,7.90625 -6.21875,7.921875 -6.21875,20.8125 0,12.890625 6.21875,20.796875 Q 688.67187,56 698.57812,56 q 6.0625,0 10.375,-2.375 4.32813,-2.359375 7.15625,-7.234375 z M 685.5,27.296875 q 0,-9.90625 4.07812,-15.546875 4.07813,-5.640625 11.20313,-5.640625 7.125,0 11.21875,5.640625 4.10937,5.640625 4.10937,15.546875 0,9.90625 -4.10937,15.546875 -4.09375,5.640625 -11.21875,5.640625 -7.125,0 -11.20313,-5.640625 Q 685.5,37.203125 685.5,27.296875 Z"
         id="use531" />
      <path
         id="use533"
         d="" />
      <path
         d="m 810.24805,53.078125 v -8.5 Q 806.45117,46.53125 802.3418,47.5 q -4.09375,0.984375 -8.5,0.984375 -6.6875,0 -10.03125,-2.046875 -3.34375,-2.046875 -3.34375,-6.15625 0,-3.125 2.39062,-4.90625 2.39063,-1.78125 9.625,-3.390625 l 3.07813,-0.6875 q 9.5625,-2.046875 13.59375,-5.78125 4.03125,-3.734375 4.03125,-10.421875 0,-7.625 -6.03125,-12.078125 -6.03125,-4.4375 -16.57813,-4.4375 -4.39062,0 -9.15625,0.859375 Q 776.6543,0.296875 771.38867,2 v 9.28125 q 4.98438,-2.59375 9.8125,-3.890625 4.82813,-1.28125 9.57813,-1.28125 6.34375,0 9.75,2.171875 3.42187,2.171875 3.42187,6.125 0,3.65625 -2.46875,5.609375 -2.45312,1.953125 -10.8125,3.765625 l -3.125,0.734375 q -8.34375,1.75 -12.0625,5.390625 -3.70312,3.640625 -3.70312,9.984375 0,7.71875 5.46875,11.90625 Q 782.7168,56 792.7793,56 q 4.96875,0 9.35937,-0.734375 4.40625,-0.71875 8.10938,-2.1875 z"
         id="use535" />
      <path
         d="m 874.26953,29.59375 v -4.390625 h -41.3125 q 0.59375,-9.28125 5.59375,-14.140625 5,-4.859375 13.9375,-4.859375 5.17188,0 10.03125,1.265625 4.85938,1.265625 9.65625,3.8125 v -8.5 q -4.84375,-2.046875 -9.92187,-3.125 -5.07813,-1.078125 -10.29688,-1.078125 -13.09375,0 -20.73437,7.609375 -7.64063,7.625 -7.64063,20.625 0,13.421875 7.25,21.296875 Q 838.08203,56 850.39453,56 q 11.03125,0 17.45313,-7.109375 6.42187,-7.09375 6.42187,-19.296875 z m -8.98437,2.640625 q -0.0937,7.359375 -4.125,11.75 -4.03125,4.40625 -10.67188,4.40625 -7.51562,0 -12.03125,-4.25 -4.51562,-4.25 -5.20312,-11.96875 z"
         id="use537" />
      <path
         d="M 928.37109,52.59375 V 44.1875 q -3.8125,2.109375 -7.64062,3.15625 -3.82813,1.046875 -7.73438,1.046875 -8.75,0 -13.59375,-5.546875 -4.82812,-5.53125 -4.82812,-15.546875 0,-10.015625 4.82812,-15.5625 4.84375,-5.53125 13.59375,-5.53125 3.90625,0 7.73438,1.046875 3.82812,1.046875 7.64062,3.15625 v -8.3125 q -3.76562,-1.75 -7.79687,-2.625 -4.01563,-0.890625 -8.5625,-0.890625 -12.35938,0 -19.64063,7.765625 -7.26562,7.765625 -7.26562,20.953125 0,13.375 7.34375,21.03125 Q 899.80859,56 912.60547,56 q 4.14062,0 8.09375,-0.859375 3.95312,-0.84375 7.67187,-2.546875 z"
         id="use539" />
      <path
         d="m 965.17969,48.390625 q -7.21875,0 -11.42188,-5.640625 -4.20312,-5.640625 -4.20312,-15.453125 0,-9.8125 4.17187,-15.453125 4.1875,-5.640625 11.45313,-5.640625 7.1875,0 11.375,5.65625 4.20312,5.671875 4.20312,15.4375 0,9.71875 -4.20312,15.40625 -4.1875,5.6875 -11.375,5.6875 z m 0,7.609375 q 11.71875,0 18.40625,-7.625 6.70312,-7.609375 6.70312,-21.078125 0,-13.421875 -6.70312,-21.078125 -6.6875,-7.640625 -18.40625,-7.640625 -11.76563,0 -18.4375,7.640625 -6.65625,7.65625 -6.65625,21.078125 0,13.46875 6.65625,21.078125 6.67187,7.625 18.4375,7.625 z"
         id="use541" />
      <path
         d="M 1050.6426,33.015625 V 0 h -8.9844 v 32.71875 q 0,7.765625 -3.0312,11.609375 -3.0313,3.859375 -9.0782,3.859375 -7.2812,0 -11.4843,-4.640625 -4.2032,-4.625 -4.2032,-12.640625 V 0 h -9.0312 v 54.6875 h 9.0312 v -8.5 q 3.2344,4.9375 7.5938,7.375 4.375,2.4375 10.0937,2.4375 9.4219,0 14.25,-5.828125 4.8438,-5.828125 4.8438,-17.15625 z"
         id="use543" />
      <path
         d="m 1104.5371,46.390625 v 29.59375 h 8.9844 V 0 h -8.9844 v 8.203125 q -2.8281,-4.875 -7.1562,-7.25 -4.3125,-2.375 -10.375,-2.375 -9.9063,0 -16.1407,7.90625 -6.2187,7.921875 -6.2187,20.8125 0,12.890625 6.2187,20.796875 Q 1077.0996,56 1087.0059,56 q 6.0625,0 10.375,-2.375 4.3281,-2.359375 7.1562,-7.234375 z m -30.6094,-19.09375 q 0,-9.90625 4.0782,-15.546875 4.0781,-5.640625 11.2031,-5.640625 7.125,0 11.2187,5.640625 4.1094,5.640625 4.1094,15.546875 0,9.90625 -4.1094,15.546875 -4.0937,5.640625 -11.2187,5.640625 -7.125,0 -11.2031,-5.640625 -4.0782,-5.640625 -4.0782,-15.546875 z"
         id="use545" />
      <path
         id="use547"
         d="" />
      <path
         d="m 1198.6758,53.078125 v -8.5 q -3.7969,1.953125 -7.9063,2.921875 -4.0937,0.984375 -8.5,0.984375 -6.6875,0 -10.0312,-2.046875 -3.3438,-2.046875 -3.3438,-6.15625 0,-3.125 2.3907,-4.90625 2.3906,-1.78125 9.625,-3.390625 l 3.0781,-0.6875 q 9.5625,-2.046875 13.5937,-5.78125 4.0313,-3.734375 4.0313,-10.421875 0,-7.625 -6.0313,-12.078125 -6.0312,-4.4375 -16.5781,-4.4375 -4.3906,0 -9.1562,0.859375 Q 1165.082,0.296875 1159.8164,2 v 9.28125 q 4.9844,-2.59375 9.8125,-3.890625 4.8281,-1.28125 9.5781,-1.28125 6.3438,0 9.75,2.171875 3.4219,2.171875 3.4219,6.125 0,3.65625 -2.4687,5.609375 -2.4532,1.953125 -10.8125,3.765625 l -3.125,0.734375 q -8.3438,1.75 -12.0625,5.390625 -3.7032,3.640625 -3.7032,9.984375 0,7.71875 5.4688,11.90625 Q 1171.1445,56 1181.207,56 q 4.9688,0 9.3594,-0.734375 4.4063,-0.71875 8.1094,-2.1875 z"
         id="use549" />
      <path
         d="m 1262.6973,29.59375 v -4.390625 h -41.3125 q 0.5937,-9.28125 5.5937,-14.140625 5,-4.859375 13.9375,-4.859375 5.1719,0 10.0313,1.265625 4.8593,1.265625 9.6562,3.8125 v -8.5 q -4.8437,-2.046875 -9.9219,-3.125 -5.0781,-1.078125 -10.2968,-1.078125 -13.0938,0 -20.7344,7.609375 -7.6406,7.625 -7.6406,20.625 0,13.421875 7.25,21.296875 Q 1226.5098,56 1238.8223,56 q 11.0312,0 17.4531,-7.109375 6.4219,-7.09375 6.4219,-19.296875 z m -8.9844,2.640625 q -0.094,7.359375 -4.125,11.75 -4.0313,4.40625 -10.6719,4.40625 -7.5156,0 -12.0312,-4.25 -4.5157,-4.25 -5.2032,-11.96875 z"
         id="use551" />
      <path
         d="m 1282.8145,27.296875 q 0,-9.90625 4.0781,-15.546875 4.0781,-5.640625 11.2031,-5.640625 7.125,0 11.2188,5.640625 4.1093,5.640625 4.1093,15.546875 0,9.90625 -4.1093,15.546875 -4.0938,5.640625 -11.2188,5.640625 -7.125,0 -11.2031,-5.640625 -4.0781,-5.640625 -4.0781,-15.546875 z m 30.6093,-19.09375 q -2.8281,-4.875 -7.1562,-7.25 -4.3125,-2.375 -10.375,-2.375 -9.9063,0 -16.1406,7.90625 -6.2188,7.921875 -6.2188,20.8125 0,12.890625 6.2188,20.796875 Q 1285.9863,56 1295.8926,56 q 6.0625,0 10.375,-2.375 4.3281,-2.359375 7.1562,-7.234375 V 54.6875 h 8.9844 v -75.484375 h -8.9844 z"
         id="use553" />
      <path
         d="M 1339.9941,21.578125 V 54.6875 h 8.9844 V 21.921875 q 0,-7.765625 3.0156,-11.65625 3.0313,-3.875 9.0938,-3.875 7.2656,0 11.4844,4.640625 4.2343,4.640625 4.2343,12.65625 v 31 h 8.9844 V 0 h -8.9844 V 8.40625 Q 1373.541,3.421875 1369.2129,1 q -4.3125,-2.421875 -10.0313,-2.421875 -9.4218,0 -14.3125,5.859375 -4.875,5.859375 -4.875,17.140625 z M 1362.6035,56 Z"
         id="use555" />
      <path
         d="m 1451.0762,29.59375 v -4.390625 h -41.3125 q 0.5937,-9.28125 5.5937,-14.140625 5,-4.859375 13.9375,-4.859375 5.1719,0 10.0313,1.265625 4.8593,1.265625 9.6562,3.8125 v -8.5 q -4.8437,-2.046875 -9.9219,-3.125 -5.0781,-1.078125 -10.2968,-1.078125 -13.0938,0 -20.7344,7.609375 -7.6406,7.625 -7.6406,20.625 0,13.421875 7.25,21.296875 Q 1414.8887,56 1427.2012,56 q 11.0312,0 17.4531,-7.109375 6.4219,-7.09375 6.4219,-19.296875 z m -8.9844,2.640625 q -0.094,7.359375 -4.125,11.75 -4.0313,4.40625 -10.6719,4.40625 -7.5156,0 -12.0312,-4.25 -4.5157,-4.25 -5.2032,-11.96875 z"
         id="use557" />
      <path
         d="M 1511.2871,33.015625 V 0 h -8.9844 v 32.71875 q 0,7.765625 -3.0312,11.609375 -3.0313,3.859375 -9.0781,3.859375 -7.2813,0 -11.4844,-4.640625 -4.2031,-4.625 -4.2031,-12.640625 V 0 h -9.0313 v 54.6875 h 9.0313 v -8.5 q 3.2343,4.9375 7.5937,7.375 4.375,2.4375 10.0938,2.4375 9.4218,0 14.25,-5.828125 4.8437,-5.828125 4.8437,-17.15625 z"
         id="use559" />
      <path
         d="M 1568.5566,52.59375 V 44.1875 q -3.8125,2.109375 -7.6406,3.15625 -3.8281,1.046875 -7.7344,1.046875 -8.75,0 -13.5937,-5.546875 -4.8281,-5.53125 -4.8281,-15.546875 0,-10.015625 4.8281,-15.5625 4.8437,-5.53125 13.5937,-5.53125 3.9063,0 7.7344,1.046875 3.8281,1.046875 7.6406,3.15625 v -8.3125 q -3.7656,-1.75 -7.7968,-2.625 -4.0157,-0.890625 -8.5625,-0.890625 -12.3594,0 -19.6407,7.765625 -7.2656,7.765625 -7.2656,20.953125 0,13.375 7.3438,21.03125 Q 1539.9941,56 1552.791,56 q 4.1406,0 8.0938,-0.859375 3.9531,-0.84375 7.6718,-2.546875 z"
         id="use561" />
      <path
         d="m 1630.959,29.59375 v -4.390625 h -41.3125 q 0.5937,-9.28125 5.5937,-14.140625 5,-4.859375 13.9375,-4.859375 5.1719,0 10.0313,1.265625 4.8594,1.265625 9.6562,3.8125 v -8.5 q -4.8437,-2.046875 -9.9218,-3.125 -5.0782,-1.078125 -10.2969,-1.078125 -13.0938,0 -20.7344,7.609375 -7.6406,7.625 -7.6406,20.625 0,13.421875 7.25,21.296875 Q 1594.7715,56 1607.084,56 q 11.0312,0 17.4531,-7.109375 6.4219,-7.09375 6.4219,-19.296875 z m -8.9844,2.640625 q -0.094,7.359375 -4.125,11.75 -4.0312,4.40625 -10.6719,4.40625 -7.5156,0 -12.0312,-4.25 -4.5156,-4.25 -5.2031,-11.96875 z"
         id="use563" />
    </g>
  </g>
  <defs
     id="defs618">
    <clipPath
       id="p0f822d52a4">
      <rect
         height="190.832"
         width="218.374498"
         x="46.31125"
         y="59.04"
         id="rect612" />
    </clipPath>
    <clipPath
       id="p8dd56ba4d4">
      <rect
         height="190.832"
         width="218.374498"
         x="273.521356"
         y="59.04"
         id="rect615" />
    </clipPath>
  </defs>
  <text
     xml:space="preserve"
     style="font-size:16.8px;line-height:1.25;font-family:'DejaVu Sans';-inkscape-font-specification:'DejaVu Sans';font-variation-settings:normal;opacity:1;vector-effect:none;fill:#262626;fill-opacity:1;stroke-width:1.4;stroke-linecap:butt;stroke-linejoin:round;stroke-miterlimit:4;stroke-dasharray:none;stroke-dashoffset:0;stroke-opacity:1;-inkscape-stroke:none;stop-color:#000000;stop-opacity:1"
     x="167.14221"
     y="284.92542"
     id="text1793"><tspan
       sodipodi:role="line"
       id="tspan1791"
       style="font-variation-settings:normal;vector-effect:none;fill:#262626;fill-opacity:1;stroke-width:1.4;stroke-linecap:butt;stroke-linejoin:round;stroke-miterlimit:4;stroke-dasharray:none;stroke-dashoffset:0;stroke-opacity:1;-inkscape-stroke:none;stop-color:#000000;stop-opacity:1"
       x="167.14221"
       y="284.92542">Number of true answers</tspan></text>
  <text
     xml:space="preserve"
     style="font-size:13.8px;line-height:1.25;font-family:sans-serif;font-variation-settings:normal;vector-effect:none;fill:#262626;fill-opacity:1;stroke-width:1.15;stroke-linecap:butt;stroke-linejoin:round;stroke-miterlimit:4;stroke-dasharray:none;stroke-dashoffset:0;stroke-opacity:1;-inkscape-stroke:none;stop-color:#000000"
     x="104.72704"
     y="59.663425"
     id="text2730"><tspan
       sodipodi:role="line"
       id="tspan2728"
       style="font-style:normal;font-variant:normal;font-weight:normal;font-stretch:normal;font-family:'DejaVu Sans';-inkscape-font-specification:'DejaVu Sans';font-variation-settings:normal;vector-effect:none;fill:#262626;fill-opacity:1;stroke-width:1.15;stroke-linecap:butt;stroke-linejoin:round;stroke-miterlimit:4;stroke-dasharray:none;stroke-dashoffset:0;stroke-opacity:1;-inkscape-stroke:none;stop-color:#000000;stop-opacity:1"
       x="104.72704"
       y="59.663425">First sequence</tspan></text>
  <text
     xml:space="preserve"
     style="font-size:13.8px;line-height:1.25;font-family:sans-serif;font-variation-settings:normal;vector-effect:none;fill:#262626;fill-opacity:1;stroke-width:1.15;stroke-linecap:butt;stroke-linejoin:round;stroke-miterlimit:4;stroke-dasharray:none;stroke-dashoffset:0;stroke-opacity:1;-inkscape-stroke:none;stop-color:#000000"
     x="321.24042"
     y="59.663425"
     id="text7405"><tspan
       sodipodi:role="line"
       id="tspan7403"
       style="font-style:normal;font-variant:normal;font-weight:normal;font-stretch:normal;font-family:'DejaVu Sans';-inkscape-font-specification:'DejaVu Sans';font-variation-settings:normal;vector-effect:none;fill:#262626;fill-opacity:1;stroke-width:1.15;stroke-linecap:butt;stroke-linejoin:round;stroke-miterlimit:4;stroke-dasharray:none;stroke-dashoffset:0;stroke-opacity:1;-inkscape-stroke:none;stop-color:#000000;stop-opacity:1"
       x="321.24042"
       y="59.663425">Second sequence</tspan></text>
  <g
     style="fill:#262626"
     transform="matrix(0,-0.168,-0.168,0,18.30525,179.4842)"
     id="g207">
    <use
       xlink:href="#DejaVuSans-67-6"
       id="use197"
       x="0"
       y="0"
       width="100%"
       height="100%" />
    <path
       d="m 100.43359,48.390625 q -7.218746,0 -11.421871,-5.640625 -4.203125,-5.640625 -4.203125,-15.453125 0,-9.8125 4.171875,-15.453125 4.1875,-5.640625 11.453121,-5.640625 7.1875,0 11.375,5.65625 4.20313,5.671875 4.20313,15.4375 0,9.71875 -4.20313,15.40625 -4.1875,5.6875 -11.375,5.6875 z m 0,7.609375 q 11.71875,0 18.40625,-7.625 6.70313,-7.609375 6.70313,-21.078125 0,-13.421875 -6.70313,-21.078125 -6.6875,-7.640625 -18.40625,-7.640625 -11.765621,0 -18.437496,7.640625 -6.65625,7.65625 -6.65625,21.078125 0,13.46875 6.65625,21.078125 Q 88.667969,56 100.43359,56 Z"
       id="use199" />
    <use
       x="131.00586"
       xlink:href="#DejaVuSans-117"
       id="use201"
       y="0"
       width="100%"
       height="100%" />
    <use
       x="194.38477"
       xlink:href="#DejaVuSans-110"
       id="use203"
       y="0"
       width="100%"
       height="100%" />
    <path
       d="M 276.07617,70.21875 V 54.6875 h 18.5 v -6.984375 h -18.5 v -29.6875 q 0,-6.6875 1.82813,-8.59375 1.82812,-1.90625 7.45312,-1.90625 h 9.21875 V 0 h -9.21875 q -10.40625,0 -14.35937,3.875 -3.95313,3.890625 -3.95313,14.140625 v 29.6875 h -6.59375 V 54.6875 h 6.59375 v 15.53125 z"
       id="use205" />
  </g>
</svg>
