<?xml version="1.0" encoding="UTF-8" standalone="no"?>
<!-- Created with matplotlib (https://matplotlib.org/) -->

<svg
   height="312pt"
   version="1.1"
   viewBox="0 0 540 312"
   width="540pt"
   id="svg607"
   sodipodi:docname="true-nb-compared-null.svg"
   inkscape:version="1.1.2 (1:1.1+202202050950+0a00cf5339)"
   xmlns:inkscape="http://www.inkscape.org/namespaces/inkscape"
   xmlns:sodipodi="http://sodipodi.sourceforge.net/DTD/sodipodi-0.dtd"
   xmlns:xlink="http://www.w3.org/1999/xlink"
   xmlns="http://www.w3.org/2000/svg"
   xmlns:svg="http://www.w3.org/2000/svg">
  <sodipodi:namedview
     id="namedview609"
     pagecolor="#ffffff"
     bordercolor="#666666"
     borderopacity="1.0"
     inkscape:pageshadow="2"
     inkscape:pageopacity="0.0"
     inkscape:pagecheckerboard="0"
     inkscape:document-units="pt"
     showgrid="false"
     height="289pt"
     inkscape:zoom="0.81070391"
     inkscape:cx="318.24196"
     inkscape:cy="216.47854"
     inkscape:window-width="1366"
     inkscape:window-height="704"
     inkscape:window-x="0"
     inkscape:window-y="27"
     inkscape:window-maximized="1"
     inkscape:current-layer="svg607" />
  <defs
     id="defs4">
    <style
       type="text/css"
       id="style2">
*{stroke-linecap:butt;stroke-linejoin:round;}
  </style>
    <path
       d="m 44.390625,34.1875 q 3.171875,-1.078125 6.171875,-4.59375 3,-3.515625 6.03125,-9.671875 L 66.609375,0 H 56 l -9.3125,18.703125 q -3.625,7.328125 -7.015625,9.71875 -3.390625,2.390625 -9.25,2.390625 h -10.75 V 0 H 9.8125 v 72.90625 h 22.265625 q 12.5,0 18.65625,-5.234375 6.15625,-5.21875 6.15625,-15.765625 0,-6.890625 -3.203125,-11.4375 -3.203125,-4.53125 -9.296875,-6.28125 z m -24.71875,30.609375 v -25.875 h 12.40625 q 7.125,0 10.765625,3.296875 3.640625,3.296875 3.640625,9.6875 0,6.390625 -3.640625,9.640625 -3.640625,3.25 -10.765625,3.25 z"
       id="DejaVuSans-82-7" />
    <path
       d="M 9.421875,75.984375 H 18.40625 V 0 H 9.421875 Z"
       id="DejaVuSans-108-5" />
    <path
       d="M 64.40625,67.28125 V 56.890625 q -4.984375,4.640625 -10.625,6.921875 -5.640625,2.296875 -11.984375,2.296875 -12.5,0 -19.140625,-7.640625 -6.640625,-7.640625 -6.640625,-22.09375 0,-14.40625 6.640625,-22.046875 Q 29.296875,6.6875 41.796875,6.6875 q 6.34375,0 11.984375,2.296875 5.640625,2.296875 10.625,6.9375 V 5.609375 Q 59.234375,2.09375 53.4375,0.328125 q -5.78125,-1.75 -12.21875,-1.75 -16.5625,0 -26.09375,10.125 Q 5.609375,18.84375 5.609375,36.375 q 0,17.578125 9.515625,27.703125 9.53125,10.140625 26.09375,10.140625 6.53125,0 12.3125,-1.734375 5.796875,-1.734375 10.875,-5.203125 z"
       id="DejaVuSans-67-7" />
    <path
       d="M 48.78125,52.59375 V 44.1875 q -3.8125,2.109375 -7.640625,3.15625 -3.828125,1.046875 -7.734375,1.046875 -8.75,0 -13.59375,-5.546875 -4.828125,-5.53125 -4.828125,-15.546875 0,-10.015625 4.828125,-15.5625 4.84375,-5.53125 13.59375,-5.53125 3.90625,0 7.734375,1.046875 3.828125,1.046875 7.640625,3.15625 v -8.3125 q -3.765625,-1.75 -7.796875,-2.625 -4.015625,-0.890625 -8.5625,-0.890625 -12.359375,0 -19.640625,7.765625 -7.265625,7.765625 -7.265625,20.953125 0,13.375 7.34375,21.03125 Q 20.21875,56 33.015625,56 q 4.140625,0 8.09375,-0.859375 3.953125,-0.84375 7.671875,-2.546875 z"
       id="DejaVuSans-99-5" />
    <path
       d="M 17.921875,72.90625 V 45.796875 H 9.625 V 72.90625 Z"
       id="DejaVuSans-39-3" />
    <path
       d="m 45.40625,46.390625 v 29.59375 h 8.984375 V 0 H 45.40625 v 8.203125 q -2.828125,-4.875 -7.15625,-7.25 -4.3125,-2.375 -10.375,-2.375 -9.90625,0 -16.140625,7.90625 -6.21875,7.921875 -6.21875,20.8125 0,12.890625 6.21875,20.796875 Q 17.96875,56 27.875,56 q 6.0625,0 10.375,-2.375 4.328125,-2.359375 7.15625,-7.234375 z M 14.796875,27.296875 q 0,-9.90625 4.078125,-15.546875 4.078125,-5.640625 11.203125,-5.640625 7.125,0 11.21875,5.640625 4.109375,5.640625 4.109375,15.546875 0,9.90625 -4.109375,15.546875 -4.09375,5.640625 -11.21875,5.640625 -7.125,0 -11.203125,-5.640625 -4.078125,-5.640625 -4.078125,-15.546875 z"
       id="DejaVuSans-100-4" />
  </defs>
  <g
     id="patch_2"
     transform="translate(0,7.5)">
    <path
       d="M 67.5,252 H 486 V 34.56 H 67.5 Z"
       style="fill:#ffffff"
       id="path9" />
  </g>
  <g
     id="matplotlib.axis_1"
     transform="translate(0,7.5)">
    <g
       id="xtick_1">
      <g
         id="text_1">
        <!-- 0 -->
        <defs
           id="defs13">
          <path
             d="m 31.78125,66.40625 q -7.609375,0 -11.453125,-7.5 Q 16.5,51.421875 16.5,36.375 q 0,-14.984375 3.828125,-22.484375 3.84375,-7.5 11.453125,-7.5 7.671875,0 11.5,7.5 3.84375,7.5 3.84375,22.484375 0,15.046875 -3.84375,22.53125 -3.828125,7.5 -11.5,7.5 z m 0,7.8125 q 12.265625,0 18.734375,-9.703125 6.46875,-9.6875 6.46875,-28.140625 0,-18.40625 -6.46875,-28.109375 -6.46875,-9.6875 -18.734375,-9.6875 -12.25,0 -18.71875,9.6875 Q 6.59375,17.96875 6.59375,36.375 q 0,18.453125 6.46875,28.140625 6.46875,9.703125 18.71875,9.703125 z"
             id="DejaVuSans-48" />
        </defs>
        <g
           style="fill:#262626"
           transform="matrix(0.154,0,0,-0.154,88.757125,279.20159)"
           id="g17">
          <use
             xlink:href="#DejaVuSans-48"
             id="use15"
             x="0"
             y="0"
             width="100%"
             height="100%" />
        </g>
      </g>
    </g>
    <g
       id="xtick_2">
      <g
         id="text_2">
        <!-- 1 -->
        <defs
           id="defs22">
          <path
             d="m 12.40625,8.296875 h 16.109375 v 55.625 L 10.984375,60.40625 v 8.984375 l 17.4375,3.515625 H 38.28125 V 8.296875 H 54.390625 V 0 H 12.40625 Z"
             id="DejaVuSans-49" />
        </defs>
        <g
           style="fill:#262626"
           transform="matrix(0.154,0,0,-0.154,141.06962,279.20159)"
           id="g26">
          <use
             xlink:href="#DejaVuSans-49"
             id="use24"
             x="0"
             y="0"
             width="100%"
             height="100%" />
        </g>
      </g>
    </g>
    <g
       id="xtick_3">
      <g
         id="text_3">
        <!-- 2 -->
        <defs
           id="defs31">
          <path
             d="M 19.1875,8.296875 H 53.609375 V 0 H 7.328125 v 8.296875 q 5.609375,5.8125 15.296875,15.59375 9.703125,9.796875 12.1875,12.640625 4.734375,5.3125 6.609375,9 1.890625,3.6875 1.890625,7.25 0,5.8125 -4.078125,9.46875 -4.078125,3.671875 -10.625,3.671875 -4.640625,0 -9.796875,-1.609375 -5.140625,-1.609375 -11,-4.890625 v 9.96875 Q 13.765625,71.78125 18.9375,73 q 5.1875,1.21875 9.484375,1.21875 11.328125,0 18.0625,-5.671875 6.734375,-5.65625 6.734375,-15.125 0,-4.5 -1.6875,-8.53125 Q 49.859375,40.875 45.40625,35.40625 44.1875,33.984375 37.640625,27.21875 31.109375,20.453125 19.1875,8.296875 Z"
             id="DejaVuSans-50" />
        </defs>
        <g
           style="fill:#262626"
           transform="matrix(0.154,0,0,-0.154,193.38212,279.20159)"
           id="g35">
          <use
             xlink:href="#DejaVuSans-50"
             id="use33"
             x="0"
             y="0"
             width="100%"
             height="100%" />
        </g>
      </g>
    </g>
    <g
       id="xtick_4">
      <g
         id="text_4">
        <!-- 3 -->
        <defs
           id="defs40">
          <path
             d="M 40.578125,39.3125 Q 47.65625,37.796875 51.625,33 q 3.984375,-4.78125 3.984375,-11.8125 0,-10.78125 -7.421875,-16.703125 -7.421875,-5.90625 -21.09375,-5.90625 -4.578125,0 -9.4375,0.90625 -4.859375,0.90625 -10.03125,2.71875 v 9.515625 q 4.09375,-2.390625 8.96875,-3.609375 4.890625,-1.21875 10.21875,-1.21875 9.265625,0 14.125,3.65625 4.859375,3.65625 4.859375,10.640625 0,6.453125 -4.515625,10.078125 -4.515625,3.640625 -12.5625,3.640625 h -8.5 v 8.109375 h 8.890625 q 7.265625,0 11.125,2.90625 3.859375,2.90625 3.859375,8.375 0,5.609375 -3.984375,8.609375 -3.96875,3.015625 -11.390625,3.015625 -4.0625,0 -8.703125,-0.890625 Q 15.375,64.15625 9.8125,62.3125 v 8.78125 q 5.625,1.5625 10.53125,2.34375 4.90625,0.78125 9.25,0.78125 11.234375,0 17.765625,-5.109375 6.546875,-5.09375 6.546875,-13.78125 0,-6.0625 -3.46875,-10.234375 -3.46875,-4.171875 -9.859375,-5.78125 z"
             id="DejaVuSans-51" />
        </defs>
        <g
           style="fill:#262626"
           transform="matrix(0.154,0,0,-0.154,245.69462,279.20159)"
           id="g44">
          <use
             xlink:href="#DejaVuSans-51"
             id="use42"
             x="0"
             y="0"
             width="100%"
             height="100%" />
        </g>
      </g>
    </g>
    <g
       id="xtick_5">
      <g
         id="text_5">
        <!-- 4 -->
        <defs
           id="defs49">
          <path
             d="M 37.796875,64.3125 12.890625,25.390625 h 24.90625 z m -2.59375,8.59375 h 12.40625 V 25.390625 h 10.40625 V 17.1875 H 47.609375 V 0 h -9.8125 V 17.1875 H 4.890625 v 9.515625 z"
             id="DejaVuSans-52" />
        </defs>
        <g
           style="fill:#262626"
           transform="matrix(0.154,0,0,-0.154,298.00712,279.20159)"
           id="g53">
          <use
             xlink:href="#DejaVuSans-52"
             id="use51"
             x="0"
             y="0"
             width="100%"
             height="100%" />
        </g>
      </g>
    </g>
    <g
       id="xtick_6">
      <g
         id="text_6">
        <!-- 5 -->
        <defs
           id="defs58">
          <path
             d="m 10.796875,72.90625 h 38.71875 v -8.3125 h -29.6875 V 46.734375 q 2.140625,0.734375 4.28125,1.09375 2.15625,0.359375 4.3125,0.359375 Q 40.625,48.1875 47.75,41.5 54.890625,34.8125 54.890625,23.390625 54.890625,11.625 47.5625,5.09375 40.234375,-1.421875 26.90625,-1.421875 q -4.59375,0 -9.359375,0.78125 -4.75,0.78125 -9.828125,2.34375 V 11.625 q 4.390625,-2.390625 9.078125,-3.5625 4.6875,-1.171875 9.90625,-1.171875 8.453125,0 13.375,4.4375 4.9375,4.4375 4.9375,12.0625 0,7.609375 -4.9375,12.046875 -4.921875,4.453125 -13.375,4.453125 -3.953125,0 -7.890625,-0.875 -3.921875,-0.875 -8.015625,-2.734375 z"
             id="DejaVuSans-53" />
        </defs>
        <g
           style="fill:#262626"
           transform="matrix(0.154,0,0,-0.154,350.31962,279.20159)"
           id="g62">
          <use
             xlink:href="#DejaVuSans-53"
             id="use60"
             x="0"
             y="0"
             width="100%"
             height="100%" />
        </g>
      </g>
    </g>
    <g
       id="xtick_7">
      <g
         id="text_7">
        <!-- 6 -->
        <defs
           id="defs67">
          <path
             d="m 33.015625,40.375 q -6.640625,0 -10.53125,-4.546875 -3.875,-4.53125 -3.875,-12.4375 0,-7.859375 3.875,-12.4375 3.890625,-4.5625 10.53125,-4.5625 6.640625,0 10.515625,4.5625 3.875,4.578125 3.875,12.4375 0,7.90625 -3.875,12.4375 Q 39.65625,40.375 33.015625,40.375 Z M 52.59375,71.296875 V 62.3125 q -3.71875,1.75 -7.5,2.671875 -3.78125,0.9375 -7.5,0.9375 -9.765625,0 -14.921875,-6.59375 -5.140625,-6.59375 -5.875,-19.921875 2.875,4.25 7.21875,6.515625 4.359375,2.265625 9.578125,2.265625 10.984375,0 17.359375,-6.671875 6.375,-6.65625 6.375,-18.125 0,-11.234375 -6.640625,-18.03125 -6.640625,-6.78125 -17.671875,-6.78125 -12.65625,0 -19.34375,9.6875 -6.6875,9.703125 -6.6875,28.109375 0,17.28125 8.203125,27.5625 8.203125,10.28125 22.015625,10.28125 3.71875,0 7.5,-0.734375 3.78125,-0.734375 7.890625,-2.1875 z"
             id="DejaVuSans-54" />
        </defs>
        <g
           style="fill:#262626"
           transform="matrix(0.154,0,0,-0.154,402.63212,279.20159)"
           id="g71">
          <use
             xlink:href="#DejaVuSans-54"
             id="use69"
             x="0"
             y="0"
             width="100%"
             height="100%" />
        </g>
      </g>
    </g>
    <g
       id="xtick_8">
      <g
         id="text_8">
        <!-- 7 -->
        <defs
           id="defs76">
          <path
             d="m 8.203125,72.90625 h 46.875 V 68.703125 L 28.609375,0 H 18.3125 L 43.21875,64.59375 H 8.203125 Z"
             id="DejaVuSans-55" />
        </defs>
        <g
           style="fill:#262626"
           transform="matrix(0.154,0,0,-0.154,454.94462,279.20159)"
           id="g80">
          <use
             xlink:href="#DejaVuSans-55"
             id="use78"
             x="0"
             y="0"
             width="100%"
             height="100%" />
        </g>
      </g>
    </g>
    <g
       id="text_9">
      <!-- Number of true shapes in answer -->
      <defs
         id="defs101">
        <path
           d="M 9.8125,72.90625 H 23.09375 L 55.421875,11.921875 V 72.90625 h 9.5625 V 0 h -13.28125 l -32.3125,60.984375 V 0 H 9.8125 Z"
           id="DejaVuSans-78" />
        <path
           d="M 8.5,21.578125 V 54.6875 h 8.984375 V 21.921875 q 0,-7.765625 3.015625,-11.65625 3.03125,-3.875 9.09375,-3.875 7.265625,0 11.484375,4.640625 4.234375,4.640625 4.234375,12.65625 v 31 h 8.984375 V 0 H 45.3125 V 8.40625 Q 42.046875,3.421875 37.71875,1 33.40625,-1.421875 27.6875,-1.421875 18.265625,-1.421875 13.375,4.4375 8.5,10.296875 8.5,21.578125 Z M 31.109375,56 Z"
           id="DejaVuSans-117" />
        <path
           d="M 52,44.1875 Q 55.375,50.25 60.0625,53.125 64.75,56 71.09375,56 q 8.546875,0 13.1875,-5.984375 4.640625,-5.96875 4.640625,-17 V 0 h -9.03125 v 32.71875 q 0,7.859375 -2.796875,11.65625 -2.78125,3.8125 -8.484375,3.8125 -6.984375,0 -11.046875,-4.640625 -4.046875,-4.625 -4.046875,-12.640625 V 0 h -9.03125 v 32.71875 q 0,7.90625 -2.78125,11.6875 -2.78125,3.78125 -8.59375,3.78125 -6.890625,0 -10.953125,-4.65625 -4.046875,-4.65625 -4.046875,-12.625 V 0 h -9.03125 v 54.6875 h 9.03125 v -8.5 q 3.078125,5.03125 7.375,7.421875 Q 29.78125,56 35.6875,56 41.65625,56 45.828125,52.96875 50,49.953125 52,44.1875 Z"
           id="DejaVuSans-109" />
        <path
           d="m 48.6875,27.296875 q 0,9.90625 -4.078125,15.546875 -4.078125,5.640625 -11.203125,5.640625 -7.140625,0 -11.21875,-5.640625 -4.078125,-5.640625 -4.078125,-15.546875 0,-9.90625 4.078125,-15.546875 4.078125,-5.640625 11.21875,-5.640625 7.125,0 11.203125,5.640625 4.078125,5.640625 4.078125,15.546875 z m -30.578125,19.09375 q 2.84375,4.875 7.15625,7.234375 Q 29.59375,56 35.59375,56 q 9.96875,0 16.1875,-7.90625 6.234375,-7.90625 6.234375,-20.796875 0,-12.890625 -6.234375,-20.8125 -6.21875,-7.90625 -16.1875,-7.90625 -6,0 -10.328125,2.375 -4.3125,2.375 -7.15625,7.25 V 0 h -9.03125 v 75.984375 h 9.03125 z"
           id="DejaVuSans-98" />
        <path
           d="m 56.203125,29.59375 v -4.390625 h -41.3125 q 0.59375,-9.28125 5.59375,-14.140625 5,-4.859375 13.9375,-4.859375 5.171875,0 10.03125,1.265625 4.859375,1.265625 9.65625,3.8125 v -8.5 q -4.84375,-2.046875 -9.921875,-3.125 -5.078125,-1.078125 -10.296875,-1.078125 -13.09375,0 -20.734375,7.609375 -7.640625,7.625 -7.640625,20.625 0,13.421875 7.25,21.296875 Q 20.015625,56 32.328125,56 q 11.03125,0 17.453125,-7.109375 6.421875,-7.09375 6.421875,-19.296875 z m -8.984375,2.640625 q -0.09375,7.359375 -4.125,11.75 -4.03125,4.40625 -10.671875,4.40625 -7.515625,0 -12.03125,-4.25 -4.515625,-4.25 -5.203125,-11.96875 z"
           id="DejaVuSans-101" />
        <path
           d="m 41.109375,46.296875 q -1.515625,0.875 -3.296875,1.28125 Q 36.03125,48 33.890625,48 26.265625,48 22.1875,43.046875 18.109375,38.09375 18.109375,28.8125 V 0 h -9.03125 v 54.6875 h 9.03125 v -8.5 q 2.84375,4.984375 7.375,7.390625 Q 30.03125,56 36.53125,56 q 0.921875,0 2.046875,-0.125 1.125,-0.109375 2.484375,-0.359375 z"
           id="DejaVuSans-114" />
        <path
           id="DejaVuSans-32"
           d="" />
        <path
           d="m 30.609375,48.390625 q -7.21875,0 -11.421875,-5.640625 -4.203125,-5.640625 -4.203125,-15.453125 0,-9.8125 4.171875,-15.453125 4.1875,-5.640625 11.453125,-5.640625 7.1875,0 11.375,5.65625 4.203125,5.671875 4.203125,15.4375 0,9.71875 -4.203125,15.40625 -4.1875,5.6875 -11.375,5.6875 z m 0,7.609375 q 11.71875,0 18.40625,-7.625 6.703125,-7.609375 6.703125,-21.078125 0,-13.421875 -6.703125,-21.078125 -6.6875,-7.640625 -18.40625,-7.640625 -11.765625,0 -18.4375,7.640625 -6.65625,7.65625 -6.65625,21.078125 0,13.46875 6.65625,21.078125 Q 18.84375,56 30.609375,56 Z"
           id="DejaVuSans-111" />
        <path
           d="M 37.109375,75.984375 V 68.5 h -8.59375 q -4.828125,0 -6.71875,-1.953125 -1.875,-1.953125 -1.875,-7.03125 V 54.6875 H 34.71875 V 47.703125 H 19.921875 V 0 h -9.03125 V 47.703125 H 2.296875 V 54.6875 h 8.59375 V 58.5 q 0,9.125 4.25,13.296875 4.25,4.1875 13.46875,4.1875 z"
           id="DejaVuSans-102" />
        <path
           d="M 18.3125,70.21875 V 54.6875 h 18.5 v -6.984375 h -18.5 v -29.6875 q 0,-6.6875 1.828125,-8.59375 1.828125,-1.90625 7.453125,-1.90625 H 36.8125 V 0 H 27.59375 Q 17.1875,0 13.234375,3.875 9.28125,7.765625 9.28125,18.015625 v 29.6875 H 2.6875 V 54.6875 h 6.59375 v 15.53125 z"
           id="DejaVuSans-116" />
        <path
           d="m 44.28125,53.078125 v -8.5 Q 40.484375,46.53125 36.375,47.5 q -4.09375,0.984375 -8.5,0.984375 -6.6875,0 -10.03125,-2.046875 Q 14.5,44.390625 14.5,40.28125 q 0,-3.125 2.390625,-4.90625 2.390625,-1.78125 9.625,-3.390625 l 3.078125,-0.6875 Q 39.15625,29.25 43.1875,25.515625 47.21875,21.78125 47.21875,15.09375 q 0,-7.625 -6.03125,-12.078125 -6.03125,-4.4375 -16.578125,-4.4375 -4.390625,0 -9.15625,0.859375 Q 10.6875,0.296875 5.421875,2 v 9.28125 q 4.984375,-2.59375 9.8125,-3.890625 4.828125,-1.28125 9.578125,-1.28125 6.34375,0 9.75,2.171875 3.421875,2.171875 3.421875,6.125 0,3.65625 -2.46875,5.609375 -2.453125,1.953125 -10.8125,3.765625 l -3.125,0.734375 q -8.34375,1.75 -12.0625,5.390625 -3.703125,3.640625 -3.703125,9.984375 0,7.71875 5.46875,11.90625 Q 16.75,56 26.8125,56 q 4.96875,0 9.359375,-0.734375 4.40625,-0.71875 8.109375,-2.1875 z"
           id="DejaVuSans-115" />
        <path
           d="M 54.890625,33.015625 V 0 H 45.90625 v 32.71875 q 0,7.765625 -3.03125,11.609375 -3.03125,3.859375 -9.078125,3.859375 -7.28125,0 -11.484375,-4.640625 -4.203125,-4.625 -4.203125,-12.640625 V 0 h -9.03125 v 75.984375 h 9.03125 V 46.1875 q 3.234375,4.9375 7.59375,7.375 4.375,2.4375 10.09375,2.4375 9.421875,0 14.25,-5.828125 4.84375,-5.828125 4.84375,-17.15625 z"
           id="DejaVuSans-104" />
        <path
           d="m 34.28125,27.484375 q -10.890625,0 -15.09375,-2.484375 -4.203125,-2.484375 -4.203125,-8.5 0,-4.78125 3.15625,-7.59375 3.15625,-2.796875 8.5625,-2.796875 7.484375,0 12,5.296875 4.515625,5.296875 4.515625,14.078125 v 2 z m 17.921875,3.71875 V 0 H 43.21875 v 8.296875 q -3.078125,-4.96875 -7.671875,-7.34375 -4.59375,-2.375 -11.234375,-2.375 -8.390625,0 -13.359375,4.71875 Q 6,8.015625 6,15.921875 q 0,9.21875 6.171875,13.90625 6.1875,4.6875 18.4375,4.6875 H 43.21875 v 0.890625 q 0,6.203125 -4.078125,9.59375 -4.078125,3.390625 -11.453125,3.390625 -4.6875,0 -9.140625,-1.125 -4.4375,-1.125 -8.53125,-3.375 v 8.3125 q 4.921875,1.90625 9.5625,2.84375 Q 24.21875,56 28.609375,56 q 11.875,0 17.734375,-6.15625 5.859375,-6.140625 5.859375,-18.640625 z"
           id="DejaVuSans-97" />
        <path
           d="m 18.109375,8.203125 v -29 H 9.078125 V 54.6875 h 9.03125 v -8.296875 q 2.84375,4.875 7.15625,7.234375 Q 29.59375,56 35.59375,56 q 9.96875,0 16.1875,-7.90625 6.234375,-7.90625 6.234375,-20.796875 0,-12.890625 -6.234375,-20.8125 -6.21875,-7.90625 -16.1875,-7.90625 -6,0 -10.328125,2.375 -4.3125,2.375 -7.15625,7.25 z M 48.6875,27.296875 q 0,9.90625 -4.078125,15.546875 -4.078125,5.640625 -11.203125,5.640625 -7.140625,0 -11.21875,-5.640625 -4.078125,-5.640625 -4.078125,-15.546875 0,-9.90625 4.078125,-15.546875 4.078125,-5.640625 11.21875,-5.640625 7.125,0 11.203125,5.640625 4.078125,5.640625 4.078125,15.546875 z"
           id="DejaVuSans-112" />
        <path
           d="M 9.421875,54.6875 H 18.40625 V 0 H 9.421875 Z m 0,21.296875 H 18.40625 V 64.59375 H 9.421875 Z"
           id="DejaVuSans-105" />
        <path
           d="M 54.890625,33.015625 V 0 H 45.90625 v 32.71875 q 0,7.765625 -3.03125,11.609375 -3.03125,3.859375 -9.078125,3.859375 -7.28125,0 -11.484375,-4.640625 -4.203125,-4.625 -4.203125,-12.640625 V 0 h -9.03125 v 54.6875 h 9.03125 v -8.5 q 3.234375,4.9375 7.59375,7.375 4.375,2.4375 10.09375,2.4375 9.421875,0 14.25,-5.828125 4.84375,-5.828125 4.84375,-17.15625 z"
           id="DejaVuSans-110" />
        <path
           d="M 4.203125,54.6875 H 13.1875 L 24.421875,12.015625 35.59375,54.6875 H 46.1875 L 57.421875,12.015625 68.609375,54.6875 H 77.59375 L 63.28125,0 H 52.6875 L 40.921875,44.828125 29.109375,0 H 18.5 Z"
           id="DejaVuSans-119" />
      </defs>
      <g
         style="fill:#262626"
         transform="matrix(0.168,0,0,-0.168,136.60256,299.16969)"
         id="g165">
        <use
           xlink:href="#DejaVuSans-78"
           id="use103"
           x="0"
           y="0"
           width="100%"
           height="100%" />
        <use
           x="74.804688"
           xlink:href="#DejaVuSans-117"
           id="use105"
           y="0"
           width="100%"
           height="100%" />
        <use
           x="138.18359"
           xlink:href="#DejaVuSans-109"
           id="use107"
           y="0"
           width="100%"
           height="100%" />
        <use
           x="235.5957"
           xlink:href="#DejaVuSans-98"
           id="use109"
           y="0"
           width="100%"
           height="100%" />
        <use
           x="299.07227"
           xlink:href="#DejaVuSans-101"
           id="use111"
           y="0"
           width="100%"
           height="100%" />
        <use
           x="360.5957"
           xlink:href="#DejaVuSans-114"
           id="use113"
           y="0"
           width="100%"
           height="100%" />
        <use
           x="401.70898"
           xlink:href="#DejaVuSans-32"
           id="use115"
           y="0"
           width="100%"
           height="100%" />
        <use
           x="433.49609"
           xlink:href="#DejaVuSans-111"
           id="use117"
           y="0"
           width="100%"
           height="100%" />
        <use
           x="494.67773"
           xlink:href="#DejaVuSans-102"
           id="use119"
           y="0"
           width="100%"
           height="100%" />
        <use
           x="529.88281"
           xlink:href="#DejaVuSans-32"
           id="use121"
           y="0"
           width="100%"
           height="100%" />
        <use
           x="561.66992"
           xlink:href="#DejaVuSans-116"
           id="use123"
           y="0"
           width="100%"
           height="100%" />
        <use
           x="600.87891"
           xlink:href="#DejaVuSans-114"
           id="use125"
           y="0"
           width="100%"
           height="100%" />
        <use
           x="641.99219"
           xlink:href="#DejaVuSans-117"
           id="use127"
           y="0"
           width="100%"
           height="100%" />
        <use
           x="705.37109"
           xlink:href="#DejaVuSans-101"
           id="use129"
           y="0"
           width="100%"
           height="100%" />
        <use
           x="766.89453"
           xlink:href="#DejaVuSans-32"
           id="use131"
           y="0"
           width="100%"
           height="100%" />
        <use
           x="798.68164"
           xlink:href="#DejaVuSans-115"
           id="use133"
           y="0"
           width="100%"
           height="100%" />
        <use
           x="850.78125"
           xlink:href="#DejaVuSans-104"
           id="use135"
           y="0"
           width="100%"
           height="100%" />
        <use
           x="914.16016"
           xlink:href="#DejaVuSans-97"
           id="use137"
           y="0"
           width="100%"
           height="100%" />
        <use
           x="975.43945"
           xlink:href="#DejaVuSans-112"
           id="use139"
           y="0"
           width="100%"
           height="100%" />
        <use
           x="1038.916"
           xlink:href="#DejaVuSans-101"
           id="use141"
           y="0"
           width="100%"
           height="100%" />
        <use
           x="1100.4395"
           xlink:href="#DejaVuSans-115"
           id="use143"
           y="0"
           width="100%"
           height="100%" />
        <use
           x="1152.5391"
           xlink:href="#DejaVuSans-32"
           id="use145"
           y="0"
           width="100%"
           height="100%" />
        <use
           x="1184.3262"
           xlink:href="#DejaVuSans-105"
           id="use147"
           y="0"
           width="100%"
           height="100%" />
        <use
           x="1212.1094"
           xlink:href="#DejaVuSans-110"
           id="use149"
           y="0"
           width="100%"
           height="100%" />
        <use
           x="1275.4883"
           xlink:href="#DejaVuSans-32"
           id="use151"
           y="0"
           width="100%"
           height="100%" />
        <use
           x="1307.2754"
           xlink:href="#DejaVuSans-97"
           id="use153"
           y="0"
           width="100%"
           height="100%" />
        <use
           x="1368.5547"
           xlink:href="#DejaVuSans-110"
           id="use155"
           y="0"
           width="100%"
           height="100%" />
        <use
           x="1431.9336"
           xlink:href="#DejaVuSans-115"
           id="use157"
           y="0"
           width="100%"
           height="100%" />
        <use
           x="1484.0332"
           xlink:href="#DejaVuSans-119"
           id="use159"
           y="0"
           width="100%"
           height="100%" />
        <use
           x="1565.8203"
           xlink:href="#DejaVuSans-101"
           id="use161"
           y="0"
           width="100%"
           height="100%" />
        <use
           x="1627.3438"
           xlink:href="#DejaVuSans-114"
           id="use163"
           y="0"
           width="100%"
           height="100%" />
      </g>
    </g>
  </g>
  <g
     id="ytick_1"
     transform="translate(0,7.5)">
    <g
       id="line2d_1">
      <path
         clip-path="url(#p830e49c6ff)"
         d="M 67.5,252 H 486"
         style="fill:none;stroke:#cccccc;stroke-width:2;stroke-linecap:round"
         id="path169" />
    </g>
    <g
       id="text_10">
      <!-- 0.0 -->
      <defs
         id="defs173">
        <path
           d="M 10.6875,12.40625 H 21 V 0 H 10.6875 Z"
           id="DejaVuSans-46" />
      </defs>
      <g
         style="fill:#262626"
         transform="matrix(0.154,0,0,-0.154,27.509187,257.8508)"
         id="g181">
        <use
           xlink:href="#DejaVuSans-48"
           id="use175"
           x="0"
           y="0"
           width="100%"
           height="100%" />
        <use
           x="63.623047"
           xlink:href="#DejaVuSans-46"
           id="use177"
           y="0"
           width="100%"
           height="100%" />
        <use
           x="95.410156"
           xlink:href="#DejaVuSans-48"
           id="use179"
           y="0"
           width="100%"
           height="100%" />
      </g>
    </g>
  </g>
  <g
     id="ytick_2"
     transform="translate(0,7.5)">
    <g
       id="line2d_2">
      <path
         clip-path="url(#p830e49c6ff)"
         d="M 67.5,197.18319 H 486"
         style="fill:none;stroke:#cccccc;stroke-width:2;stroke-linecap:round"
         id="path185" />
    </g>
    <g
       id="text_11">
      <!-- 0.1 -->
      <g
         style="fill:#262626"
         transform="matrix(0.154,0,0,-0.154,27.509187,203.03399)"
         id="g194">
        <use
           xlink:href="#DejaVuSans-48"
           id="use188"
           x="0"
           y="0"
           width="100%"
           height="100%" />
        <use
           x="63.623047"
           xlink:href="#DejaVuSans-46"
           id="use190"
           y="0"
           width="100%"
           height="100%" />
        <use
           x="95.410156"
           xlink:href="#DejaVuSans-49"
           id="use192"
           y="0"
           width="100%"
           height="100%" />
      </g>
    </g>
  </g>
  <g
     id="ytick_3"
     transform="translate(0,7.5)">
    <g
       id="line2d_3">
      <path
         clip-path="url(#p830e49c6ff)"
         d="M 67.5,142.36639 H 486"
         style="fill:none;stroke:#cccccc;stroke-width:2;stroke-linecap:round"
         id="path198" />
    </g>
    <g
       id="text_12">
      <!-- 0.2 -->
      <g
         style="fill:#262626"
         transform="matrix(0.154,0,0,-0.154,27.509187,148.21718)"
         id="g207">
        <use
           xlink:href="#DejaVuSans-48"
           id="use201"
           x="0"
           y="0"
           width="100%"
           height="100%" />
        <use
           x="63.623047"
           xlink:href="#DejaVuSans-46"
           id="use203"
           y="0"
           width="100%"
           height="100%" />
        <use
           x="95.410156"
           xlink:href="#DejaVuSans-50"
           id="use205"
           y="0"
           width="100%"
           height="100%" />
      </g>
    </g>
  </g>
  <g
     id="ytick_4"
     transform="translate(0,7.5)">
    <g
       id="line2d_4">
      <path
         clip-path="url(#p830e49c6ff)"
         d="M 67.5,87.54958 H 486"
         style="fill:none;stroke:#cccccc;stroke-width:2;stroke-linecap:round"
         id="path211" />
    </g>
    <g
       id="text_13">
      <!-- 0.3 -->
      <g
         style="fill:#262626"
         transform="matrix(0.154,0,0,-0.154,27.509187,93.400377)"
         id="g220">
        <use
           xlink:href="#DejaVuSans-48"
           id="use214"
           x="0"
           y="0"
           width="100%"
           height="100%" />
        <use
           x="63.623047"
           xlink:href="#DejaVuSans-46"
           id="use216"
           y="0"
           width="100%"
           height="100%" />
        <use
           x="95.410156"
           xlink:href="#DejaVuSans-51"
           id="use218"
           y="0"
           width="100%"
           height="100%" />
      </g>
    </g>
  </g>
  <g
     id="patch_3"
     transform="translate(0,7.5)">
    <path
       clip-path="url(#p830e49c6ff)"
       d="m 72.73125,252 h 20.925 v -0.15972 h -20.925 z"
       style="fill:#808080;stroke:#ffffff;stroke-width:2;stroke-linejoin:miter"
       id="path262" />
  </g>
  <g
     id="patch_4"
     transform="translate(0,7.5)">
    <path
       clip-path="url(#p830e49c6ff)"
       d="m 125.04375,252 h 20.925 v -7.82641 h -20.925 z"
       style="fill:#808080;stroke:#ffffff;stroke-width:2;stroke-linejoin:miter"
       id="path265" />
  </g>
  <g
     id="patch_5"
     transform="translate(0,7.5)">
    <path
       clip-path="url(#p830e49c6ff)"
       d="m 177.35625,252 h 20.925 v -70.43768 h -20.925 z"
       style="fill:#808080;stroke:#ffffff;stroke-width:2;stroke-linejoin:miter"
       id="path268" />
  </g>
  <g
     id="patch_6"
     transform="translate(0,7.5)">
    <path
       clip-path="url(#p830e49c6ff)"
       d="m 229.66875,252 h 20.925 V 56.339778 h -20.925 z"
       style="fill:#808080;stroke:#ffffff;stroke-width:2;stroke-linejoin:miter"
       id="path271" />
  </g>
  <g
     id="patch_7"
     transform="translate(0,7.5)">
    <path
       clip-path="url(#p830e49c6ff)"
       d="m 281.98125,252 h 20.925 V 56.339778 h -20.925 z"
       style="fill:#808080;stroke:#ffffff;stroke-width:2;stroke-linejoin:miter"
       id="path274" />
  </g>
  <g
     id="patch_8"
     transform="translate(0,7.5)">
    <path
       clip-path="url(#p830e49c6ff)"
       d="m 334.29375,252 h 20.925 v -70.43768 h -20.925 z"
       style="fill:#808080;stroke:#ffffff;stroke-width:2;stroke-linejoin:miter"
       id="path277" />
  </g>
  <g
     id="patch_9"
     transform="translate(0,7.5)">
    <path
       clip-path="url(#p830e49c6ff)"
       d="m 386.60625,252 h 20.925 v -7.82641 h -20.925 z"
       style="fill:#808080;stroke:#ffffff;stroke-width:2;stroke-linejoin:miter"
       id="path280" />
  </g>
  <g
     id="patch_10"
     transform="translate(0,7.5)">
    <path
       clip-path="url(#p830e49c6ff)"
       d="m 438.91875,252 h 20.925 v -0.15972 h -20.925 z"
       style="fill:#808080;stroke:#ffffff;stroke-width:2;stroke-linejoin:miter"
       id="path283" />
  </g>
  <g
     id="patch_11"
     transform="translate(0,7.5)">
    <path
       clip-path="url(#p830e49c6ff)"
       d=""
       style="fill:#54d49c;stroke:#ffffff;stroke-width:2;stroke-linejoin:miter"
       id="path286" />
  </g>
  <g
     id="patch_12"
     transform="translate(0,7.5)">
    <path
       clip-path="url(#p830e49c6ff)"
       d="m 145.96875,252 h 20.925 v -18.27227 h -20.925 z"
       style="fill:#54d49c;stroke:#ffffff;stroke-width:2;stroke-linejoin:miter"
       id="path289" />
  </g>
  <g
     id="patch_13"
     transform="translate(0,7.5)">
    <path
       clip-path="url(#p830e49c6ff)"
       d="m 198.28125,252 h 20.925 v -54.81681 h -20.925 z"
       style="fill:#54d49c;stroke:#ffffff;stroke-width:2;stroke-linejoin:miter"
       id="path292" />
  </g>
  <g
     id="patch_14"
     transform="translate(0,7.5)">
    <path
       clip-path="url(#p830e49c6ff)"
       d="m 250.59375,252 h 20.925 V 44.914286 h -20.925 z"
       style="fill:#54d49c;stroke:#ffffff;stroke-width:2;stroke-linejoin:miter"
       id="path295" />
  </g>
  <g
     id="patch_15"
     transform="translate(0,7.5)">
    <path
       clip-path="url(#p830e49c6ff)"
       d="m 302.90625,252 h 20.925 V 105.82185 h -20.925 z"
       style="fill:#54d49c;stroke:#ffffff;stroke-width:2;stroke-linejoin:miter"
       id="path298" />
  </g>
  <g
     id="patch_16"
     transform="translate(0,7.5)">
    <path
       clip-path="url(#p830e49c6ff)"
       d="m 355.21875,252 h 20.925 V 148.45714 h -20.925 z"
       style="fill:#54d49c;stroke:#ffffff;stroke-width:2;stroke-linejoin:miter"
       id="path301" />
  </g>
  <g
     id="patch_17"
     transform="translate(0,7.5)">
    <path
       clip-path="url(#p830e49c6ff)"
       d="m 407.53125,252 h 20.925 v -18.27227 h -20.925 z"
       style="fill:#54d49c;stroke:#ffffff;stroke-width:2;stroke-linejoin:miter"
       id="path304" />
  </g>
  <g
     id="patch_18"
     transform="translate(0,7.5)">
    <path
       clip-path="url(#p830e49c6ff)"
       d=""
       style="fill:#54d49c;stroke:#ffffff;stroke-width:2;stroke-linejoin:miter"
       id="path307" />
  </g>
  <g
     id="line2d_5"
     transform="translate(0,7.5)">
    <path
       clip-path="url(#p830e49c6ff)"
       d="M 0,0"
       style="fill:none;stroke:#424242;stroke-width:5.4;stroke-linecap:round"
       id="path310" />
  </g>
  <g
     id="line2d_6"
     transform="translate(0,7.5)">
    <path
       clip-path="url(#p830e49c6ff)"
       d="M 0,0"
       style="fill:none;stroke:#424242;stroke-width:5.4;stroke-linecap:round"
       id="path313" />
  </g>
  <g
     id="line2d_7"
     transform="translate(0,7.5)">
    <path
       clip-path="url(#p830e49c6ff)"
       d="M 0,0"
       style="fill:none;stroke:#424242;stroke-width:5.4;stroke-linecap:round"
       id="path316" />
  </g>
  <g
     id="line2d_8"
     transform="translate(0,7.5)">
    <path
       clip-path="url(#p830e49c6ff)"
       d="M 0,0"
       style="fill:none;stroke:#424242;stroke-width:5.4;stroke-linecap:round"
       id="path319" />
  </g>
  <g
     id="line2d_9"
     transform="translate(0,7.5)">
    <path
       clip-path="url(#p830e49c6ff)"
       d="M 0,0"
       style="fill:none;stroke:#424242;stroke-width:5.4;stroke-linecap:round"
       id="path322" />
  </g>
  <g
     id="line2d_10"
     transform="translate(0,7.5)">
    <path
       clip-path="url(#p830e49c6ff)"
       d="M 0,0"
       style="fill:none;stroke:#424242;stroke-width:5.4;stroke-linecap:round"
       id="path325" />
  </g>
  <g
     id="line2d_11"
     transform="translate(0,7.5)">
    <path
       clip-path="url(#p830e49c6ff)"
       d="M 0,0"
       style="fill:none;stroke:#424242;stroke-width:5.4;stroke-linecap:round"
       id="path328" />
  </g>
  <g
     id="line2d_12"
     transform="translate(0,7.5)">
    <path
       clip-path="url(#p830e49c6ff)"
       d="M 0,0"
       style="fill:none;stroke:#424242;stroke-width:5.4;stroke-linecap:round"
       id="path331" />
  </g>
  <g
     id="line2d_13"
     transform="translate(0,7.5)">
    <path
       clip-path="url(#p830e49c6ff)"
       d="M 0,0"
       style="fill:none;stroke:#424242;stroke-width:5.4;stroke-linecap:round"
       id="path334" />
  </g>
  <g
     id="line2d_14"
     transform="translate(0,7.5)">
    <path
       clip-path="url(#p830e49c6ff)"
       d="M 0,0"
       style="fill:none;stroke:#424242;stroke-width:5.4;stroke-linecap:round"
       id="path337" />
  </g>
  <g
     id="line2d_15"
     transform="translate(0,7.5)">
    <path
       clip-path="url(#p830e49c6ff)"
       d="M 0,0"
       style="fill:none;stroke:#424242;stroke-width:5.4;stroke-linecap:round"
       id="path340" />
  </g>
  <g
     id="line2d_16"
     transform="translate(0,7.5)">
    <path
       clip-path="url(#p830e49c6ff)"
       d="M 0,0"
       style="fill:none;stroke:#424242;stroke-width:5.4;stroke-linecap:round"
       id="path343" />
  </g>
  <g
     id="line2d_17"
     transform="translate(0,7.5)">
    <path
       clip-path="url(#p830e49c6ff)"
       d="M 0,0"
       style="fill:none;stroke:#424242;stroke-width:5.4;stroke-linecap:round"
       id="path346" />
  </g>
  <g
     id="line2d_18"
     transform="translate(0,7.5)">
    <path
       clip-path="url(#p830e49c6ff)"
       d="M 0,0"
       style="fill:none;stroke:#424242;stroke-width:5.4;stroke-linecap:round"
       id="path349" />
  </g>
  <g
     id="line2d_19"
     transform="translate(0,7.5)">
    <path
       clip-path="url(#p830e49c6ff)"
       d="M 0,0"
       style="fill:none;stroke:#424242;stroke-width:5.4;stroke-linecap:round"
       id="path352" />
  </g>
  <g
     id="line2d_20"
     transform="translate(0,7.5)">
    <path
       clip-path="url(#p830e49c6ff)"
       d="M 0,0"
       style="fill:none;stroke:#424242;stroke-width:5.4;stroke-linecap:round"
       id="path355" />
  </g>
  <g
     id="patch_19"
     transform="translate(0,7.5)">
    <path
       d="M 67.5,252 V 34.56"
       style="fill:none;stroke:#cccccc;stroke-width:2.5;stroke-linecap:square;stroke-linejoin:miter"
       id="path358" />
  </g>
  <g
     id="patch_20"
     transform="translate(0,7.5)">
    <path
       d="M 486,252 V 34.56"
       style="fill:none;stroke:#cccccc;stroke-width:2.5;stroke-linecap:square;stroke-linejoin:miter"
       id="path361" />
  </g>
  <g
     id="patch_21"
     transform="translate(0,7.5)">
    <path
       d="M 67.5,252 H 486"
       style="fill:none;stroke:#cccccc;stroke-width:2.5;stroke-linecap:square;stroke-linejoin:miter"
       id="path364" />
  </g>
  <g
     id="patch_22"
     transform="translate(0,7.5)">
    <path
       d="M 67.5,34.56 H 486"
       style="fill:none;stroke:#cccccc;stroke-width:2.5;stroke-linecap:square;stroke-linejoin:miter"
       id="path367" />
  </g>
  <g
     id="legend_1"
     transform="translate(-162.17375,-46.79877)">
    <g
       id="patch_23">
      <path
         d="m 510.005,149.62062 h 171.77016 q 3.08,0 3.08,-3.08 V 102.872 q 0,-3.08 -3.08,-3.08 H 510.005 q -3.08,0 -3.08,3.08 v 43.66862 q 0,3.08 3.08,3.08 z"
         style="opacity:0.8;fill:#ffffff;stroke:#cccccc;stroke-width:2;stroke-linejoin:miter"
         id="path523" />
    </g>
    <g
       id="patch_24">
      <path
         d="m 513.085,117.65359 h 30.8 v -10.78 h -30.8 z"
         style="fill:#808080;stroke:#ffffff;stroke-width:2;stroke-linejoin:miter"
         id="path526" />
    </g>
    <g
       id="text_16">
      <!-- Null distribution -->
      <g
         style="fill:#262626"
         transform="matrix(0.154,0,0,-0.154,556.205,117.65359)"
         id="g563">
        <use
           xlink:href="#DejaVuSans-78"
           id="use529"
           x="0"
           y="0"
           width="100%"
           height="100%" />
        <use
           x="74.804688"
           xlink:href="#DejaVuSans-117"
           id="use531"
           y="0"
           width="100%"
           height="100%" />
        <path
           d="m 147.60547,75.984375 h 8.98437 V 0 h -8.98437 z"
           id="use533" />
        <path
           d="m 175.38867,75.984375 h 8.98438 V 0 h -8.98438 z"
           id="use535" />
        <use
           x="193.75"
           xlink:href="#DejaVuSans-32"
           id="use537"
           y="0"
           width="100%"
           height="100%" />
        <path
           d="m 270.94336,46.390625 v 29.59375 h 8.98437 V 0 h -8.98437 v 8.203125 q -2.82813,-4.875 -7.15625,-7.25 -4.3125,-2.375 -10.375,-2.375 -9.90625,0 -16.14063,7.90625 -6.21875,7.921875 -6.21875,20.8125 0,12.890625 6.21875,20.796875 Q 243.50586,56 253.41211,56 q 6.0625,0 10.375,-2.375 4.32812,-2.359375 7.15625,-7.234375 z m -30.60938,-19.09375 q 0,-9.90625 4.07813,-15.546875 4.07812,-5.640625 11.20312,-5.640625 7.125,0 11.21875,5.640625 4.10938,5.640625 4.10938,15.546875 0,9.90625 -4.10938,15.546875 -4.09375,5.640625 -11.21875,5.640625 -7.125,0 -11.20312,-5.640625 -4.07813,-5.640625 -4.07813,-15.546875 z"
           id="use539" />
        <use
           x="289.01367"
           xlink:href="#DejaVuSans-105"
           id="use541"
           y="0"
           width="100%"
           height="100%" />
        <use
           x="316.79688"
           xlink:href="#DejaVuSans-115"
           id="use543"
           y="0"
           width="100%"
           height="100%" />
        <use
           x="368.89648"
           xlink:href="#DejaVuSans-116"
           id="use545"
           y="0"
           width="100%"
           height="100%" />
        <use
           x="408.10547"
           xlink:href="#DejaVuSans-114"
           id="use547"
           y="0"
           width="100%"
           height="100%" />
        <use
           x="449.21875"
           xlink:href="#DejaVuSans-105"
           id="use549"
           y="0"
           width="100%"
           height="100%" />
        <use
           x="477.00195"
           xlink:href="#DejaVuSans-98"
           id="use551"
           y="0"
           width="100%"
           height="100%" />
        <use
           x="540.47852"
           xlink:href="#DejaVuSans-117"
           id="use553"
           y="0"
           width="100%"
           height="100%" />
        <use
           x="603.85742"
           xlink:href="#DejaVuSans-116"
           id="use555"
           y="0"
           width="100%"
           height="100%" />
        <use
           x="643.06641"
           xlink:href="#DejaVuSans-105"
           id="use557"
           y="0"
           width="100%"
           height="100%" />
        <use
           x="670.84961"
           xlink:href="#DejaVuSans-111"
           id="use559"
           y="0"
           width="100%"
           height="100%" />
        <use
           x="732.03125"
           xlink:href="#DejaVuSans-110"
           id="use561"
           y="0"
           width="100%"
           height="100%" />
      </g>
    </g>
    <g
       id="patch_25">
      <path
         d="m 513.085,140.25791 h 30.8 v -10.78 h -30.8 z"
         style="fill:#54d49c;stroke:#ffffff;stroke-width:2;stroke-linejoin:miter"
         id="path566" />
    </g>
    <g
       id="text_17">
      <!-- Participants -->
      <defs
         id="defs570">
        <path
           d="M 19.671875,64.796875 V 37.40625 h 12.40625 q 6.890625,0 10.640625,3.5625 3.765625,3.5625 3.765625,10.15625 0,6.546875 -3.765625,10.109375 -3.75,3.5625 -10.640625,3.5625 z M 9.8125,72.90625 h 22.265625 q 12.265625,0 18.53125,-5.546875 6.28125,-5.546875 6.28125,-16.234375 0,-10.796875 -6.28125,-16.3125 -6.265625,-5.515625 -18.53125,-5.515625 H 19.671875 V 0 H 9.8125 Z"
           id="DejaVuSans-80" />
      </defs>
      <g
         style="fill:#262626"
         transform="matrix(0.154,0,0,-0.154,556.205,140.25791)"
         id="g596">
        <use
           xlink:href="#DejaVuSans-80"
           id="use572"
           x="0"
           y="0"
           width="100%"
           height="100%" />
        <use
           x="55.802734"
           xlink:href="#DejaVuSans-97"
           id="use574"
           y="0"
           width="100%"
           height="100%" />
        <use
           x="117.08203"
           xlink:href="#DejaVuSans-114"
           id="use576"
           y="0"
           width="100%"
           height="100%" />
        <use
           x="158.19531"
           xlink:href="#DejaVuSans-116"
           id="use578"
           y="0"
           width="100%"
           height="100%" />
        <use
           x="197.4043"
           xlink:href="#DejaVuSans-105"
           id="use580"
           y="0"
           width="100%"
           height="100%" />
        <path
           d="M 273.96875,52.59375 V 44.1875 q -3.8125,2.109375 -7.64063,3.15625 -3.82812,1.046875 -7.73437,1.046875 -8.75,0 -13.59375,-5.546875 -4.82813,-5.53125 -4.82813,-15.546875 0,-10.015625 4.82813,-15.5625 4.84375,-5.53125 13.59375,-5.53125 3.90625,0 7.73437,1.046875 3.82813,1.046875 7.64063,3.15625 v -8.3125 q -3.76563,-1.75 -7.79688,-2.625 -4.01562,-0.890625 -8.5625,-0.890625 -12.35937,0 -19.64062,7.765625 -7.26563,7.765625 -7.26563,20.953125 0,13.375 7.34375,21.03125 Q 245.40625,56 258.20312,56 q 4.14063,0 8.09375,-0.859375 3.95313,-0.84375 7.67188,-2.546875 z"
           id="use582" />
        <use
           x="280.16797"
           xlink:href="#DejaVuSans-105"
           id="use584"
           y="0"
           width="100%"
           height="100%" />
        <use
           x="307.95117"
           xlink:href="#DejaVuSans-112"
           id="use586"
           y="0"
           width="100%"
           height="100%" />
        <use
           x="371.42773"
           xlink:href="#DejaVuSans-97"
           id="use588"
           y="0"
           width="100%"
           height="100%" />
        <use
           x="432.70703"
           xlink:href="#DejaVuSans-110"
           id="use590"
           y="0"
           width="100%"
           height="100%" />
        <use
           x="496.08594"
           xlink:href="#DejaVuSans-116"
           id="use592"
           y="0"
           width="100%"
           height="100%" />
        <use
           x="535.29492"
           xlink:href="#DejaVuSans-115"
           id="use594"
           y="0"
           width="100%"
           height="100%" />
      </g>
    </g>
  </g>
  <defs
     id="defs605">
    <clipPath
       id="p830e49c6ff">
      <rect
         height="217.44"
         width="418.5"
         x="67.5"
         y="34.560001"
         id="rect602" />
    </clipPath>
  </defs>
  <text
     xml:space="preserve"
     style="font-size:16.5px;line-height:1.25;font-family:sans-serif;font-variation-settings:normal;opacity:1;vector-effect:none;fill:#262626;fill-opacity:1;stroke-width:1;stroke-linecap:butt;stroke-linejoin:round;stroke-miterlimit:4;stroke-dasharray:none;stroke-dashoffset:0;stroke-opacity:1;-inkscape-stroke:none;stop-color:#000000;stop-opacity:1"
     x="-193.58527"
     y="19.67778"
     id="text3298"
     transform="rotate(-90)"><tspan
       sodipodi:role="line"
       style="font-size:16.5px;font-variation-settings:normal;vector-effect:none;fill:#262626;fill-opacity:1;stroke-width:1;stroke-linecap:butt;stroke-linejoin:round;stroke-miterlimit:4;stroke-dasharray:none;stroke-dashoffset:0;stroke-opacity:1;-inkscape-stroke:none;stop-color:#000000;stop-opacity:1"
       x="-193.58527"
       y="19.67778"
       id="tspan6802">Frequency</tspan></text>
  <text
     xml:space="preserve"
     style="font-size:16.5px;line-height:1;font-family:sans-serif;font-variation-settings:normal;white-space:pre;inline-size:284.769;opacity:1;vector-effect:none;fill:#262626;fill-opacity:1;stroke-width:1;stroke-linecap:butt;stroke-linejoin:round;stroke-miterlimit:4;stroke-dasharray:none;stroke-dashoffset:0;stroke-opacity:1;-inkscape-stroke:none;stop-color:#000000;stop-opacity:1"
     x="230.5154"
     y="-22.780573"
     id="text4745"
     transform="translate(-98.549433,42.699905)"><tspan
       x="230.5154"
       y="-22.780573"
       id="tspan11037"><tspan
         style="font-family:'DejaVu Sans';-inkscape-font-specification:'DejaVu Sans';text-align:center;text-anchor:middle;vector-effect:none;stop-color:#000000;stop-opacity:1"
         id="tspan11035">Participants' number of true </tspan></tspan><tspan
       x="230.5154"
       y="-6.280571"
       id="tspan11041"><tspan
         style="font-family:'DejaVu Sans';-inkscape-font-specification:'DejaVu Sans';text-align:center;text-anchor:middle;vector-effect:none;stop-color:#000000;stop-opacity:1"
         id="tspan11039">answers and the null distribution</tspan></tspan></text>
</svg>
