<?xml version="1.0" encoding="UTF-8" standalone="no"?>
<!-- Created with matplotlib (https://matplotlib.org/) -->

<svg
   height="298.8317pt"
   version="1.1"
   viewBox="0 0 549.32422 298.83169"
   width="549.32422pt"
   id="svg757"
   sodipodi:docname="veracity-VR-Comp.svg"
   inkscape:version="1.1.2 (1:1.1+202202050950+0a00cf5339)"
   xmlns:inkscape="http://www.inkscape.org/namespaces/inkscape"
   xmlns:sodipodi="http://sodipodi.sourceforge.net/DTD/sodipodi-0.dtd"
   xmlns:xlink="http://www.w3.org/1999/xlink"
   xmlns="http://www.w3.org/2000/svg"
   xmlns:svg="http://www.w3.org/2000/svg">
  <sodipodi:namedview
     id="namedview759"
     pagecolor="#ffffff"
     bordercolor="#666666"
     borderopacity="1.0"
     inkscape:pageshadow="2"
     inkscape:pageopacity="0.0"
     inkscape:pagecheckerboard="0"
     inkscape:document-units="pt"
     showgrid="false"
     inkscape:zoom="2.1036334"
     inkscape:cx="48.487537"
     inkscape:cy="169.94406"
     inkscape:window-width="1366"
     inkscape:window-height="704"
     inkscape:window-x="0"
     inkscape:window-y="27"
     inkscape:window-maximized="1"
     inkscape:current-layer="svg757" />
  <defs
     id="defs4">
    <style
       type="text/css"
       id="style2">
*{stroke-linecap:butt;stroke-linejoin:round;}
  </style>
    <defs
       id="defs571">
      <path
         d="M 28.609375,0 0.78125,72.90625 h 10.296875 l 23.109375,-61.375 23.140625,61.375 h 10.25 L 39.796875,0 Z"
         id="DejaVuSans-86" />
      <path
         d="m 44.390625,34.1875 q 3.171875,-1.078125 6.171875,-4.59375 3,-3.515625 6.03125,-9.671875 L 66.609375,0 H 56 l -9.3125,18.703125 q -3.625,7.328125 -7.015625,9.71875 -3.390625,2.390625 -9.25,2.390625 h -10.75 V 0 H 9.8125 v 72.90625 h 22.265625 q 12.5,0 18.65625,-5.234375 6.15625,-5.21875 6.15625,-15.765625 0,-6.890625 -3.203125,-11.4375 -3.203125,-4.53125 -9.296875,-6.28125 z m -24.71875,30.609375 v -25.875 h 12.40625 q 7.125,0 10.765625,3.296875 3.640625,3.296875 3.640625,9.6875 0,6.390625 -3.640625,9.640625 -3.640625,3.25 -10.765625,3.25 z"
         id="DejaVuSans-82" />
      <path
         d="M 52,44.1875 Q 55.375,50.25 60.0625,53.125 64.75,56 71.09375,56 q 8.546875,0 13.1875,-5.984375 4.640625,-5.96875 4.640625,-17 V 0 h -9.03125 v 32.71875 q 0,7.859375 -2.796875,11.65625 -2.78125,3.8125 -8.484375,3.8125 -6.984375,0 -11.046875,-4.640625 -4.046875,-4.625 -4.046875,-12.640625 V 0 h -9.03125 v 32.71875 q 0,7.90625 -2.78125,11.6875 -2.78125,3.78125 -8.59375,3.78125 -6.890625,0 -10.953125,-4.65625 -4.046875,-4.65625 -4.046875,-12.625 V 0 h -9.03125 v 54.6875 h 9.03125 v -8.5 q 3.078125,5.03125 7.375,7.421875 Q 29.78125,56 35.6875,56 41.65625,56 45.828125,52.96875 50,49.953125 52,44.1875 Z"
         id="DejaVuSans-109" />
      <path
         d="m 18.109375,8.203125 v -29 H 9.078125 V 54.6875 h 9.03125 v -8.296875 q 2.84375,4.875 7.15625,7.234375 Q 29.59375,56 35.59375,56 q 9.96875,0 16.1875,-7.90625 6.234375,-7.90625 6.234375,-20.796875 0,-12.890625 -6.234375,-20.8125 -6.21875,-7.90625 -16.1875,-7.90625 -6,0 -10.328125,2.375 -4.3125,2.375 -7.15625,7.25 z M 48.6875,27.296875 q 0,9.90625 -4.078125,15.546875 -4.078125,5.640625 -11.203125,5.640625 -7.140625,0 -11.21875,-5.640625 -4.078125,-5.640625 -4.078125,-15.546875 0,-9.90625 4.078125,-15.546875 4.078125,-5.640625 11.21875,-5.640625 7.125,0 11.203125,5.640625 4.078125,5.640625 4.078125,15.546875 z"
         id="DejaVuSans-112" />
      <path
         d="M 54.890625,33.015625 V 0 H 45.90625 v 32.71875 q 0,7.765625 -3.03125,11.609375 -3.03125,3.859375 -9.078125,3.859375 -7.28125,0 -11.484375,-4.640625 -4.203125,-4.625 -4.203125,-12.640625 V 0 h -9.03125 v 75.984375 h 9.03125 V 46.1875 q 3.234375,4.9375 7.59375,7.375 4.375,2.4375 10.09375,2.4375 9.421875,0 14.25,-5.828125 4.84375,-5.828125 4.84375,-17.15625 z"
         id="DejaVuSans-104" />
      <path
         d="M 37.109375,75.984375 V 68.5 h -8.59375 q -4.828125,0 -6.71875,-1.953125 -1.875,-1.953125 -1.875,-7.03125 V 54.6875 H 34.71875 V 47.703125 H 19.921875 V 0 h -9.03125 V 47.703125 H 2.296875 V 54.6875 h 8.59375 V 58.5 q 0,9.125 4.25,13.296875 4.25,4.1875 13.46875,4.1875 z"
         id="DejaVuSans-102" />
    </defs>
    <path
       d="M 2.984375,54.6875 H 12.5 L 29.59375,8.796875 46.6875,54.6875 h 9.515625 L 35.6875,0 H 23.484375 Z"
       id="DejaVuSans-118-5" />
    <path
       d="m 56.203125,29.59375 v -4.390625 h -41.3125 q 0.59375,-9.28125 5.59375,-14.140625 5,-4.859375 13.9375,-4.859375 5.171875,0 10.03125,1.265625 4.859375,1.265625 9.65625,3.8125 v -8.5 q -4.84375,-2.046875 -9.921875,-3.125 -5.078125,-1.078125 -10.296875,-1.078125 -13.09375,0 -20.734375,7.609375 -7.640625,7.625 -7.640625,20.625 0,13.421875 7.25,21.296875 Q 20.015625,56 32.328125,56 q 11.03125,0 17.453125,-7.109375 6.421875,-7.09375 6.421875,-19.296875 z m -8.984375,2.640625 q -0.09375,7.359375 -4.125,11.75 -4.03125,4.40625 -10.671875,4.40625 -7.515625,0 -12.03125,-4.25 -4.515625,-4.25 -5.203125,-11.96875 z"
       id="DejaVuSans-101-9" />
    <path
       d="m 41.109375,46.296875 q -1.515625,0.875 -3.296875,1.28125 Q 36.03125,48 33.890625,48 26.265625,48 22.1875,43.046875 18.109375,38.09375 18.109375,28.8125 V 0 h -9.03125 v 54.6875 h 9.03125 v -8.5 q 2.84375,4.984375 7.375,7.390625 Q 30.03125,56 36.53125,56 q 0.921875,0 2.046875,-0.125 1.125,-0.109375 2.484375,-0.359375 z"
       id="DejaVuSans-114-2" />
    <path
       d="m 34.28125,27.484375 q -10.890625,0 -15.09375,-2.484375 -4.203125,-2.484375 -4.203125,-8.5 0,-4.78125 3.15625,-7.59375 3.15625,-2.796875 8.5625,-2.796875 7.484375,0 12,5.296875 4.515625,5.296875 4.515625,14.078125 v 2 z m 17.921875,3.71875 V 0 H 43.21875 v 8.296875 q -3.078125,-4.96875 -7.671875,-7.34375 -4.59375,-2.375 -11.234375,-2.375 -8.390625,0 -13.359375,4.71875 Q 6,8.015625 6,15.921875 q 0,9.21875 6.171875,13.90625 6.1875,4.6875 18.4375,4.6875 H 43.21875 v 0.890625 q 0,6.203125 -4.078125,9.59375 -4.078125,3.390625 -11.453125,3.390625 -4.6875,0 -9.140625,-1.125 -4.4375,-1.125 -8.53125,-3.375 v 8.3125 q 4.921875,1.90625 9.5625,2.84375 Q 24.21875,56 28.609375,56 q 11.875,0 17.734375,-6.15625 5.859375,-6.140625 5.859375,-18.640625 z"
       id="DejaVuSans-97-2" />
    <path
       d="M 48.78125,52.59375 V 44.1875 q -3.8125,2.109375 -7.640625,3.15625 -3.828125,1.046875 -7.734375,1.046875 -8.75,0 -13.59375,-5.546875 -4.828125,-5.53125 -4.828125,-15.546875 0,-10.015625 4.828125,-15.5625 4.84375,-5.53125 13.59375,-5.53125 3.90625,0 7.734375,1.046875 3.828125,1.046875 7.640625,3.15625 v -8.3125 q -3.765625,-1.75 -7.796875,-2.625 -4.015625,-0.890625 -8.5625,-0.890625 -12.359375,0 -19.640625,7.765625 -7.265625,7.765625 -7.265625,20.953125 0,13.375 7.34375,21.03125 Q 20.21875,56 33.015625,56 q 4.140625,0 8.09375,-0.859375 3.953125,-0.84375 7.671875,-2.546875 z"
       id="DejaVuSans-99-8" />
    <path
       d="M 9.421875,54.6875 H 18.40625 V 0 H 9.421875 Z m 0,21.296875 H 18.40625 V 64.59375 H 9.421875 Z"
       id="DejaVuSans-105-9" />
    <path
       d="M 18.3125,70.21875 V 54.6875 h 18.5 v -6.984375 h -18.5 v -29.6875 q 0,-6.6875 1.828125,-8.59375 1.828125,-1.90625 7.453125,-1.90625 H 36.8125 V 0 H 27.59375 Q 17.1875,0 13.234375,3.875 9.28125,7.765625 9.28125,18.015625 v 29.6875 H 2.6875 V 54.6875 h 6.59375 v 15.53125 z"
       id="DejaVuSans-116-7" />
    <path
       d="M 32.171875,-5.078125 Q 28.375,-14.84375 24.75,-17.8125 q -3.609375,-2.984375 -9.65625,-2.984375 h -7.1875 v 7.515625 h 5.28125 q 3.703125,0 5.75,1.765625 2.0625,1.75 4.546875,8.296875 L 25.09375,0.875 2.984375,54.6875 H 12.5 L 29.59375,11.921875 46.6875,54.6875 h 9.515625 z"
       id="DejaVuSans-121-3" />
    <path
       d="m 53.515625,70.515625 v -9.625 q -5.609375,2.6875 -10.59375,4 -4.984375,1.328125 -9.625,1.328125 -8.046875,0 -12.421875,-3.125 -4.375,-3.125 -4.375,-8.890625 0,-4.84375 2.90625,-7.3125 2.90625,-2.453125 11.015625,-3.96875 L 36.375,41.703125 Q 47.40625,39.59375 52.65625,34.296875 57.90625,29 57.90625,20.125 q 0,-10.609375 -7.109375,-16.078125 -7.09375,-5.46875 -20.8125,-5.46875 -5.171875,0 -11.015625,1.171875 Q 13.140625,0.921875 6.890625,3.21875 V 13.375 q 6,-3.359375 11.765625,-5.078125 5.765625,-1.703125 11.328125,-1.703125 8.4375,0 13.03125,3.3125 4.59375,3.328125 4.59375,9.484375 0,5.359375 -3.296875,8.390625 Q 41.015625,30.8125 33.5,32.328125 L 27.484375,33.5 q -11.03125,2.1875 -15.96875,6.875 -4.921875,4.6875 -4.921875,13.046875 0,9.671875 6.8125,15.234375 6.8125,5.5625 18.765625,5.5625 5.140625,0 10.453125,-0.9375 5.328125,-0.921875 10.890625,-2.765625 z"
       id="DejaVuSans-83-6" />
    <path
       d="m 30.609375,48.390625 q -7.21875,0 -11.421875,-5.640625 -4.203125,-5.640625 -4.203125,-15.453125 0,-9.8125 4.171875,-15.453125 4.1875,-5.640625 11.453125,-5.640625 7.1875,0 11.375,5.65625 4.203125,5.671875 4.203125,15.4375 0,9.71875 -4.203125,15.40625 -4.1875,5.6875 -11.375,5.6875 z m 0,7.609375 q 11.71875,0 18.40625,-7.625 6.703125,-7.609375 6.703125,-21.078125 0,-13.421875 -6.703125,-21.078125 -6.6875,-7.640625 -18.40625,-7.640625 -11.765625,0 -18.4375,7.640625 -6.65625,7.65625 -6.65625,21.078125 0,13.46875 6.65625,21.078125 Q 18.84375,56 30.609375,56 Z"
       id="DejaVuSans-111-1" />
  </defs>
  <g
     id="patch_2"
     transform="translate(0,9)">
    <path
       d="M 39.3125,249.872 H 257.46873 V 38.88 H 39.3125 Z"
       style="fill:#ffffff"
       id="path9" />
  </g>
  <g
     id="ytick_1"
     transform="translate(0,9)">
    <g
       id="line2d_5">
      <path
         clip-path="url(#p651c65dcb7)"
         d="M 39.3125,249.872 H 257.46873"
         style="fill:none;stroke:#cccccc;stroke-linecap:round"
         id="path120" />
    </g>
    <g
       id="text_6">
      <!-- 0 -->
      <g
         style="fill:#262626"
         transform="matrix(0.11,0,0,-0.11,22.81375,254.05114)"
         id="g125">
        <path
           d="m 31.78125,66.40625 q -7.609375,0 -11.453125,-7.5 Q 16.5,51.421875 16.5,36.375 q 0,-14.984375 3.828125,-22.484375 3.84375,-7.5 11.453125,-7.5 7.671875,0 11.5,7.5 3.84375,7.5 3.84375,22.484375 0,15.046875 -3.84375,22.53125 -3.828125,7.5 -11.5,7.5 z m 0,7.8125 q 12.265625,0 18.734375,-9.703125 6.46875,-9.6875 6.46875,-28.140625 0,-18.40625 -6.46875,-28.109375 -6.46875,-9.6875 -18.734375,-9.6875 -12.25,0 -18.71875,9.6875 Q 6.59375,17.96875 6.59375,36.375 q 0,18.453125 6.46875,28.140625 6.46875,9.703125 18.71875,9.703125 z"
           id="use123" />
      </g>
    </g>
  </g>
  <g
     id="ytick_2"
     transform="translate(0,9)">
    <g
       id="line2d_6">
      <path
         clip-path="url(#p651c65dcb7)"
         d="M 39.3125,216.38121 H 257.46873"
         style="fill:none;stroke:#cccccc;stroke-linecap:round"
         id="path129" />
    </g>
    <g
       id="text_7">
      <!-- 1 -->
      <defs
         id="defs133">
        <path
           d="m 12.40625,8.296875 h 16.109375 v 55.625 L 10.984375,60.40625 v 8.984375 l 17.4375,3.515625 H 38.28125 V 8.296875 H 54.390625 V 0 H 12.40625 Z"
           id="DejaVuSans-49" />
      </defs>
      <g
         style="fill:#262626"
         transform="matrix(0.11,0,0,-0.11,22.81375,220.56035)"
         id="g137">
        <use
           xlink:href="#DejaVuSans-49"
           id="use135"
           x="0"
           y="0"
           width="100%"
           height="100%" />
      </g>
    </g>
  </g>
  <g
     id="ytick_3"
     transform="translate(0,9)">
    <g
       id="line2d_7">
      <path
         clip-path="url(#p651c65dcb7)"
         d="M 39.3125,182.89041 H 257.46873"
         style="fill:none;stroke:#cccccc;stroke-linecap:round"
         id="path141" />
    </g>
    <g
       id="text_8">
      <!-- 2 -->
      <g
         style="fill:#262626"
         transform="matrix(0.11,0,0,-0.11,22.81375,187.06955)"
         id="g146">
        <path
           d="M 19.1875,8.296875 H 53.609375 V 0 H 7.328125 v 8.296875 q 5.609375,5.8125 15.296875,15.59375 9.703125,9.796875 12.1875,12.640625 4.734375,5.3125 6.609375,9 1.890625,3.6875 1.890625,7.25 0,5.8125 -4.078125,9.46875 -4.078125,3.671875 -10.625,3.671875 -4.640625,0 -9.796875,-1.609375 -5.140625,-1.609375 -11,-4.890625 v 9.96875 Q 13.765625,71.78125 18.9375,73 q 5.1875,1.21875 9.484375,1.21875 11.328125,0 18.0625,-5.671875 6.734375,-5.65625 6.734375,-15.125 0,-4.5 -1.6875,-8.53125 Q 49.859375,40.875 45.40625,35.40625 44.1875,33.984375 37.640625,27.21875 31.109375,20.453125 19.1875,8.296875 Z"
           id="use144" />
      </g>
    </g>
  </g>
  <g
     id="ytick_4"
     transform="translate(0,9)">
    <g
       id="line2d_8">
      <path
         clip-path="url(#p651c65dcb7)"
         d="M 39.3125,149.39962 H 257.46873"
         style="fill:none;stroke:#cccccc;stroke-linecap:round"
         id="path150" />
    </g>
    <g
       id="text_9">
      <!-- 3 -->
      <defs
         id="defs154">
        <path
           d="M 40.578125,39.3125 Q 47.65625,37.796875 51.625,33 q 3.984375,-4.78125 3.984375,-11.8125 0,-10.78125 -7.421875,-16.703125 -7.421875,-5.90625 -21.09375,-5.90625 -4.578125,0 -9.4375,0.90625 -4.859375,0.90625 -10.03125,2.71875 v 9.515625 q 4.09375,-2.390625 8.96875,-3.609375 4.890625,-1.21875 10.21875,-1.21875 9.265625,0 14.125,3.65625 4.859375,3.65625 4.859375,10.640625 0,6.453125 -4.515625,10.078125 -4.515625,3.640625 -12.5625,3.640625 h -8.5 v 8.109375 h 8.890625 q 7.265625,0 11.125,2.90625 3.859375,2.90625 3.859375,8.375 0,5.609375 -3.984375,8.609375 -3.96875,3.015625 -11.390625,3.015625 -4.0625,0 -8.703125,-0.890625 Q 15.375,64.15625 9.8125,62.3125 v 8.78125 q 5.625,1.5625 10.53125,2.34375 4.90625,0.78125 9.25,0.78125 11.234375,0 17.765625,-5.109375 6.546875,-5.09375 6.546875,-13.78125 0,-6.0625 -3.46875,-10.234375 -3.46875,-4.171875 -9.859375,-5.78125 z"
           id="DejaVuSans-51" />
      </defs>
      <g
         style="fill:#262626"
         transform="matrix(0.11,0,0,-0.11,22.81375,153.57876)"
         id="g158">
        <use
           xlink:href="#DejaVuSans-51"
           id="use156"
           x="0"
           y="0"
           width="100%"
           height="100%" />
      </g>
    </g>
  </g>
  <g
     id="ytick_5"
     transform="translate(0,9)">
    <g
       id="line2d_9">
      <path
         clip-path="url(#p651c65dcb7)"
         d="M 39.3125,115.90882 H 257.46873"
         style="fill:none;stroke:#cccccc;stroke-linecap:round"
         id="path162" />
    </g>
    <g
       id="text_10">
      <!-- 4 -->
      <g
         style="fill:#262626"
         transform="matrix(0.11,0,0,-0.11,22.81375,120.08797)"
         id="g167">
        <path
           d="M 37.796875,64.3125 12.890625,25.390625 h 24.90625 z m -2.59375,8.59375 h 12.40625 V 25.390625 h 10.40625 V 17.1875 H 47.609375 V 0 h -9.8125 V 17.1875 H 4.890625 v 9.515625 z"
           id="use165" />
      </g>
    </g>
  </g>
  <g
     id="ytick_6"
     transform="translate(0,9)">
    <g
       id="line2d_10">
      <path
         clip-path="url(#p651c65dcb7)"
         d="M 39.3125,82.418032 H 257.46873"
         style="fill:none;stroke:#cccccc;stroke-linecap:round"
         id="path171" />
    </g>
    <g
       id="text_11">
      <!-- 5 -->
      <defs
         id="defs175">
        <path
           d="m 10.796875,72.90625 h 38.71875 v -8.3125 h -29.6875 V 46.734375 q 2.140625,0.734375 4.28125,1.09375 2.15625,0.359375 4.3125,0.359375 Q 40.625,48.1875 47.75,41.5 54.890625,34.8125 54.890625,23.390625 54.890625,11.625 47.5625,5.09375 40.234375,-1.421875 26.90625,-1.421875 q -4.59375,0 -9.359375,0.78125 -4.75,0.78125 -9.828125,2.34375 V 11.625 q 4.390625,-2.390625 9.078125,-3.5625 4.6875,-1.171875 9.90625,-1.171875 8.453125,0 13.375,4.4375 4.9375,4.4375 4.9375,12.0625 0,7.609375 -4.9375,12.046875 -4.921875,4.453125 -13.375,4.453125 -3.953125,0 -7.890625,-0.875 -3.921875,-0.875 -8.015625,-2.734375 z"
           id="DejaVuSans-53" />
      </defs>
      <g
         style="fill:#262626"
         transform="matrix(0.11,0,0,-0.11,22.81375,86.597172)"
         id="g179">
        <use
           xlink:href="#DejaVuSans-53"
           id="use177"
           x="0"
           y="0"
           width="100%"
           height="100%" />
      </g>
    </g>
  </g>
  <g
     id="ytick_7"
     transform="translate(0,9)">
    <g
       id="line2d_11">
      <path
         clip-path="url(#p651c65dcb7)"
         d="M 39.3125,48.927238 H 257.46873"
         style="fill:none;stroke:#cccccc;stroke-linecap:round"
         id="path183" />
    </g>
    <g
       id="text_12">
      <!-- 6 -->
      <g
         style="fill:#262626"
         transform="matrix(0.11,0,0,-0.11,22.81375,53.106379)"
         id="g188">
        <path
           d="m 33.015625,40.375 q -6.640625,0 -10.53125,-4.546875 -3.875,-4.53125 -3.875,-12.4375 0,-7.859375 3.875,-12.4375 3.890625,-4.5625 10.53125,-4.5625 6.640625,0 10.515625,4.5625 3.875,4.578125 3.875,12.4375 0,7.90625 -3.875,12.4375 Q 39.65625,40.375 33.015625,40.375 Z M 52.59375,71.296875 V 62.3125 q -3.71875,1.75 -7.5,2.671875 -3.78125,0.9375 -7.5,0.9375 -9.765625,0 -14.921875,-6.59375 -5.140625,-6.59375 -5.875,-19.921875 2.875,4.25 7.21875,6.515625 4.359375,2.265625 9.578125,2.265625 10.984375,0 17.359375,-6.671875 6.375,-6.65625 6.375,-18.125 0,-11.234375 -6.640625,-18.03125 -6.640625,-6.78125 -17.671875,-6.78125 -12.65625,0 -19.34375,9.6875 -6.6875,9.703125 -6.6875,28.109375 0,17.28125 8.203125,27.5625 8.203125,10.28125 22.015625,10.28125 3.71875,0 7.5,-0.734375 3.78125,-0.734375 7.890625,-2.1875 z"
           id="use186" />
      </g>
    </g>
  </g>
  <g
     id="text_13"
     transform="translate(0,9)">
    <!-- Count -->
    <defs
       id="defs195">
      <path
         d="M 64.40625,67.28125 V 56.890625 q -4.984375,4.640625 -10.625,6.921875 -5.640625,2.296875 -11.984375,2.296875 -12.5,0 -19.140625,-7.640625 -6.640625,-7.640625 -6.640625,-22.09375 0,-14.40625 6.640625,-22.046875 Q 29.296875,6.6875 41.796875,6.6875 q 6.34375,0 11.984375,2.296875 5.640625,2.296875 10.625,6.9375 V 5.609375 Q 59.234375,2.09375 53.4375,0.328125 q -5.78125,-1.75 -12.21875,-1.75 -16.5625,0 -26.09375,10.125 Q 5.609375,18.84375 5.609375,36.375 q 0,17.578125 9.515625,27.703125 9.53125,10.140625 26.09375,10.140625 6.53125,0 12.3125,-1.734375 5.796875,-1.734375 10.875,-5.203125 z"
         id="DejaVuSans-67" />
      <path
         d="M 8.5,21.578125 V 54.6875 h 8.984375 V 21.921875 q 0,-7.765625 3.015625,-11.65625 3.03125,-3.875 9.09375,-3.875 7.265625,0 11.484375,4.640625 4.234375,4.640625 4.234375,12.65625 v 31 h 8.984375 V 0 H 45.3125 V 8.40625 Q 42.046875,3.421875 37.71875,1 33.40625,-1.421875 27.6875,-1.421875 18.265625,-1.421875 13.375,4.4375 8.5,10.296875 8.5,21.578125 Z M 31.109375,56 Z"
         id="DejaVuSans-117" />
      <path
         d="M 54.890625,33.015625 V 0 H 45.90625 v 32.71875 q 0,7.765625 -3.03125,11.609375 -3.03125,3.859375 -9.078125,3.859375 -7.28125,0 -11.484375,-4.640625 -4.203125,-4.625 -4.203125,-12.640625 V 0 h -9.03125 v 54.6875 h 9.03125 v -8.5 q 3.234375,4.9375 7.59375,7.375 4.375,2.4375 10.09375,2.4375 9.421875,0 14.25,-5.828125 4.84375,-5.828125 4.84375,-17.15625 z"
         id="DejaVuSans-110" />
    </defs>
    <g
       style="fill:#262626"
       transform="matrix(0,-0.12,-0.12,0,16.318125,162.19413)"
       id="g207">
      <use
         xlink:href="#DejaVuSans-67"
         id="use197"
         x="0"
         y="0"
         width="100%"
         height="100%" />
      <path
         d="m 100.43359,48.390625 q -7.218746,0 -11.421871,-5.640625 -4.203125,-5.640625 -4.203125,-15.453125 0,-9.8125 4.171875,-15.453125 4.1875,-5.640625 11.453121,-5.640625 7.1875,0 11.375,5.65625 4.20313,5.671875 4.20313,15.4375 0,9.71875 -4.20313,15.40625 -4.1875,5.6875 -11.375,5.6875 z m 0,7.609375 q 11.71875,0 18.40625,-7.625 6.70313,-7.609375 6.70313,-21.078125 0,-13.421875 -6.70313,-21.078125 -6.6875,-7.640625 -18.40625,-7.640625 -11.765621,0 -18.437496,7.640625 -6.65625,7.65625 -6.65625,21.078125 0,13.46875 6.65625,21.078125 Q 88.667969,56 100.43359,56 Z"
         id="use199" />
      <use
         x="131.00586"
         xlink:href="#DejaVuSans-117"
         id="use201"
         y="0"
         width="100%"
         height="100%" />
      <use
         x="194.38477"
         xlink:href="#DejaVuSans-110"
         id="use203"
         y="0"
         width="100%"
         height="100%" />
      <path
         d="M 276.07617,70.21875 V 54.6875 h 18.5 v -6.984375 h -18.5 v -29.6875 q 0,-6.6875 1.82813,-8.59375 1.82812,-1.90625 7.45312,-1.90625 h 9.21875 V 0 h -9.21875 q -10.40625,0 -14.35937,3.875 -3.95313,3.890625 -3.95313,14.140625 v 29.6875 h -6.59375 V 54.6875 h 6.59375 v 15.53125 z"
         id="use205" />
    </g>
  </g>
  <g
     id="patch_3"
     transform="translate(0,9)">
    <path
       clip-path="url(#p651c65dcb7)"
       d="m 58.243413,249.872 h 9.01472 v 0 z"
       style="fill:#ff7f0e;fill-opacity:0.5;stroke:#ffffff;stroke-linejoin:miter"
       id="path211" />
  </g>
  <g
     id="patch_4"
     transform="translate(0,9)">
    <path
       clip-path="url(#p651c65dcb7)"
       d="m 76.272853,249.872 h 9.014721 v -33.49079 h -9.014721 z"
       style="fill:#ff7f0e;fill-opacity:0.5;stroke:#ffffff;stroke-linejoin:miter"
       id="path214" />
  </g>
  <g
     id="patch_5"
     transform="translate(0,9)">
    <path
       clip-path="url(#p651c65dcb7)"
       d="m 94.302294,249.872 h 9.014716 v -66.98159 h -9.014716 z"
       style="fill:#ff7f0e;fill-opacity:0.5;stroke:#ffffff;stroke-linejoin:miter"
       id="path217" />
  </g>
  <g
     id="patch_6"
     transform="translate(0,9)">
    <path
       clip-path="url(#p651c65dcb7)"
       d="m 112.33173,249.872 h 9.01473 V 48.927238 h -9.01473 z"
       style="fill:#ff7f0e;fill-opacity:0.5;stroke:#ffffff;stroke-linejoin:miter"
       id="path220" />
  </g>
  <g
     id="patch_7"
     transform="translate(0,9)">
    <path
       clip-path="url(#p651c65dcb7)"
       d="m 130.36117,249.872 h 9.01473 v -66.98159 h -9.01473 z"
       style="fill:#ff7f0e;fill-opacity:0.5;stroke:#ffffff;stroke-linejoin:miter"
       id="path223" />
  </g>
  <g
     id="patch_8"
     transform="translate(0,9)">
    <path
       clip-path="url(#p651c65dcb7)"
       d="m 148.39062,249.872 h 9.01472 V 48.927238 h -9.01472 z"
       style="fill:#ff7f0e;fill-opacity:0.5;stroke:#ffffff;stroke-linejoin:miter"
       id="path226" />
  </g>
  <g
     id="patch_9"
     transform="translate(0,9)">
    <path
       clip-path="url(#p651c65dcb7)"
       d="m 166.42006,249.872 h 9.01472 v -33.49079 h -9.01472 z"
       style="fill:#ff7f0e;fill-opacity:0.5;stroke:#ffffff;stroke-linejoin:miter"
       id="path229" />
  </g>
  <g
     id="patch_10"
     transform="translate(0,9)">
    <path
       clip-path="url(#p651c65dcb7)"
       d="m 184.4495,249.872 h 9.01472 V 149.39962 h -9.01472 z"
       style="fill:#ff7f0e;fill-opacity:0.5;stroke:#ffffff;stroke-linejoin:miter"
       id="path232" />
  </g>
  <g
     id="patch_11"
     transform="translate(0,9)">
    <path
       clip-path="url(#p651c65dcb7)"
       d="m 202.47894,249.872 h 9.01472 v 0 z"
       style="fill:#ff7f0e;fill-opacity:0.5;stroke:#ffffff;stroke-linejoin:miter"
       id="path235" />
  </g>
  <g
     id="patch_12"
     transform="translate(0,9)">
    <path
       clip-path="url(#p651c65dcb7)"
       d="m 220.50838,249.872 h 9.01472 v 0 z"
       style="fill:#ff7f0e;fill-opacity:0.5;stroke:#ffffff;stroke-linejoin:miter"
       id="path238" />
  </g>
  <g
     id="patch_13"
     transform="translate(0,9)">
    <path
       clip-path="url(#p651c65dcb7)"
       d="m 238.53782,249.872 h 9.01472 v 0 z"
       style="fill:#ff7f0e;fill-opacity:0.5;stroke:#ffffff;stroke-linejoin:miter"
       id="path241" />
  </g>
  <g
     id="patch_14"
     transform="translate(0,9)">
    <path
       clip-path="url(#p651c65dcb7)"
       d="m 49.228692,249.872 h 9.014721 V 149.39962 h -9.014721 z"
       style="fill:#1f77b4;fill-opacity:0.5;stroke:#ffffff;stroke-linejoin:miter"
       id="path244" />
  </g>
  <g
     id="patch_15"
     transform="translate(0,9)">
    <path
       clip-path="url(#p651c65dcb7)"
       d="m 67.258133,249.872 h 9.01472 v -66.98159 h -9.01472 z"
       style="fill:#1f77b4;fill-opacity:0.5;stroke:#ffffff;stroke-linejoin:miter"
       id="path247" />
  </g>
  <g
     id="patch_16"
     transform="translate(0,9)">
    <path
       clip-path="url(#p651c65dcb7)"
       d="m 85.287574,249.872 h 9.01472 V 149.39962 h -9.01472 z"
       style="fill:#1f77b4;fill-opacity:0.5;stroke:#ffffff;stroke-linejoin:miter"
       id="path250" />
  </g>
  <g
     id="patch_17"
     transform="translate(0,9)">
    <path
       clip-path="url(#p651c65dcb7)"
       d="m 103.31701,249.872 h 9.01472 V 48.927238 h -9.01472 z"
       style="fill:#1f77b4;fill-opacity:0.5;stroke:#ffffff;stroke-linejoin:miter"
       id="path253" />
  </g>
  <g
     id="patch_18"
     transform="translate(0,9)">
    <path
       clip-path="url(#p651c65dcb7)"
       d="m 121.34646,249.872 h 9.01471 V 82.418032 h -9.01471 z"
       style="fill:#1f77b4;fill-opacity:0.5;stroke:#ffffff;stroke-linejoin:miter"
       id="path256" />
  </g>
  <g
     id="patch_19"
     transform="translate(0,9)">
    <path
       clip-path="url(#p651c65dcb7)"
       d="m 139.3759,249.872 h 9.01472 v -66.98159 h -9.01472 z"
       style="fill:#1f77b4;fill-opacity:0.5;stroke:#ffffff;stroke-linejoin:miter"
       id="path259" />
  </g>
  <g
     id="patch_20"
     transform="translate(0,9)">
    <path
       clip-path="url(#p651c65dcb7)"
       d="m 157.40534,249.872 h 9.01472 v -33.49079 h -9.01472 z"
       style="fill:#1f77b4;fill-opacity:0.5;stroke:#ffffff;stroke-linejoin:miter"
       id="path262" />
  </g>
  <g
     id="patch_21"
     transform="translate(0,9)">
    <path
       clip-path="url(#p651c65dcb7)"
       d="m 175.43478,249.872 h 9.01472 v 0 z"
       style="fill:#1f77b4;fill-opacity:0.5;stroke:#ffffff;stroke-linejoin:miter"
       id="path265" />
  </g>
  <g
     id="patch_22"
     transform="translate(0,9)">
    <path
       clip-path="url(#p651c65dcb7)"
       d="m 193.46422,249.872 h 9.01472 v -33.49079 h -9.01472 z"
       style="fill:#1f77b4;fill-opacity:0.5;stroke:#ffffff;stroke-linejoin:miter"
       id="path268" />
  </g>
  <g
     id="patch_23"
     transform="translate(0,9)">
    <path
       clip-path="url(#p651c65dcb7)"
       d="m 211.49366,249.872 h 9.01472 v 0 z"
       style="fill:#1f77b4;fill-opacity:0.5;stroke:#ffffff;stroke-linejoin:miter"
       id="path271" />
  </g>
  <g
     id="patch_24"
     transform="translate(0,9)">
    <path
       clip-path="url(#p651c65dcb7)"
       d="m 229.5231,249.872 h 9.01472 v 0 z"
       style="fill:#1f77b4;fill-opacity:0.5;stroke:#ffffff;stroke-linejoin:miter"
       id="path274" />
  </g>
  <g
     id="line2d_12"
     transform="translate(0,9)">
    <path
       clip-path="url(#p651c65dcb7)"
       d="m 49.228692,247.58682 1.993205,-0.73227 1.993204,-0.919 1.993205,-1.1379 1.993204,-1.39012 1.993205,-1.67576 1.993204,-1.99348 1.993205,-2.3405 1.993204,-2.71233 1.993205,-3.10298 1.993204,-3.50489 1.993205,-3.90934 1.993204,-4.30664 2.989807,-7.16435 2.989807,-7.9165 2.989806,-8.52171 4.983012,-15.03531 6.976215,-21.11437 2.989807,-8.46543 2.98981,-7.82789 2.9898,-7.02426 1.99321,-4.16975 1.9932,-3.72457 1.99321,-3.26037 1.9932,-2.78778 1.99321,-2.31814 1.9932,-1.86295 1.99321,-1.43307 1.9932,-1.03799 1.9932,-0.68476 1.99321,-0.37721 1.9932,-0.11539 1.99321,0.10482 1.9932,0.29143 1.99321,0.45571 1.9932,0.61104 1.99321,0.77138 1.9932,0.94967 1.9932,1.156 1.99321,1.39637 1.9932,1.67157 1.99321,1.97691 1.9932,2.30243 1.99321,2.63405 1.9932,2.9549 2.98981,4.96736 2.9898,5.4602 11.95923,22.49158 3.98641,6.6026 3.98641,6.13458 7.97282,12.12694 3.98641,6.58577 3.98641,7.06798 11.95922,21.77428 2.98981,4.77312 2.98981,4.23842 1.9932,2.4937 1.99321,2.21748 1.9932,1.94208 1.9932,1.67526 1.99321,1.42338 1.9932,1.19124 1.99321,0.98208 1.9932,0.79757 2.98981,0.90501 2.98981,0.62663 2.9898,0.41961 3.98641,0.33791 5.97961,0.23136 1.99321,0.0366 v 0"
       style="fill:none;stroke:#ff7f0e;stroke-width:1.5;stroke-linecap:round"
       id="path277" />
  </g>
  <g
     id="line2d_13"
     transform="translate(0,9)">
    <path
       clip-path="url(#p651c65dcb7)"
       d="m 49.228692,200.27291 6.976216,-13.15537 3.986409,-7.10827 3.986409,-6.64231 3.986409,-6.13397 3.986409,-5.65509 3.986409,-5.25579 4.983011,-6.15958 5.979614,-6.99961 5.979613,-6.66579 4.983011,-5.21405 3.986408,-3.82351 2.98981,-2.58384 2.98981,-2.27172 1.9932,-1.30677 1.9932,-1.11441 1.99321,-0.89795 1.9932,-0.65609 1.99321,-0.38781 1.9932,-0.0926 1.99321,0.22945 1.9932,0.57717 1.99321,0.94843 1.9932,1.33979 1.9932,1.74656 1.99321,2.16273 1.9932,2.58117 1.99321,2.99375 1.9932,3.39178 1.99321,3.76623 2.9898,6.27827 2.98981,6.90286 3.98641,9.86777 9.96602,25.06674 2.98981,6.87554 2.9898,6.32816 2.98981,5.69901 1.99321,3.42746 1.9932,3.12525 1.9932,2.82663 1.99321,2.53765 1.9932,2.26346 1.99321,2.00834 1.9932,1.77572 2.98981,2.28248 2.98981,1.90589 2.9898,1.62146 3.98641,1.87076 8.96942,3.79666 6.97622,3.08637 11.95922,5.40253 4.98302,1.94912 3.98641,1.31808 3.9864,1.0783 3.98641,0.84129 3.98641,0.62632 2.98981,0.34881 v 0"
       style="fill:none;stroke:#1f77b4;stroke-width:1.5;stroke-linecap:round"
       id="path280" />
  </g>
  <g
     id="patch_25"
     transform="translate(0,9)">
    <path
       d="M 39.3125,249.872 V 38.88"
       style="fill:none;stroke:#cccccc;stroke-width:1.25;stroke-linecap:square;stroke-linejoin:miter"
       id="path283" />
  </g>
  <g
     id="patch_26"
     transform="translate(0,9)">
    <path
       d="M 39.3125,249.872 H 257.46873"
       style="fill:none;stroke:#cccccc;stroke-width:1.25;stroke-linecap:square;stroke-linejoin:miter"
       id="path286" />
  </g>
  <g
     id="patch_27"
     transform="translate(0,9)">
    <path
       d="M 266.30816,249.872 H 484.4644 V 38.88 H 266.30816 Z"
       style="fill:#ffffff"
       id="path335" />
  </g>
  <g
     id="matplotlib.axis_4"
     transform="translate(0,9)">
    <g
       id="ytick_8">
      <g
         id="line2d_18">
        <path
           clip-path="url(#p3ab251acb6)"
           d="M 266.30816,249.872 H 484.4644"
           style="fill:none;stroke:#cccccc;stroke-linecap:round"
           id="path420" />
      </g>
    </g>
    <g
       id="ytick_9">
      <g
         id="line2d_19">
        <path
           clip-path="url(#p3ab251acb6)"
           d="M 266.30816,216.38121 H 484.4644"
           style="fill:none;stroke:#cccccc;stroke-linecap:round"
           id="path424" />
      </g>
    </g>
    <g
       id="ytick_10">
      <g
         id="line2d_20">
        <path
           clip-path="url(#p3ab251acb6)"
           d="M 266.30816,182.89041 H 484.4644"
           style="fill:none;stroke:#cccccc;stroke-linecap:round"
           id="path428" />
      </g>
    </g>
    <g
       id="ytick_11">
      <g
         id="line2d_21">
        <path
           clip-path="url(#p3ab251acb6)"
           d="M 266.30816,149.39962 H 484.4644"
           style="fill:none;stroke:#cccccc;stroke-linecap:round"
           id="path432" />
      </g>
    </g>
    <g
       id="ytick_12">
      <g
         id="line2d_22">
        <path
           clip-path="url(#p3ab251acb6)"
           d="M 266.30816,115.90882 H 484.4644"
           style="fill:none;stroke:#cccccc;stroke-linecap:round"
           id="path436" />
      </g>
    </g>
    <g
       id="ytick_13">
      <g
         id="line2d_23">
        <path
           clip-path="url(#p3ab251acb6)"
           d="M 266.30816,82.418032 H 484.4644"
           style="fill:none;stroke:#cccccc;stroke-linecap:round"
           id="path440" />
      </g>
    </g>
    <g
       id="ytick_14">
      <g
         id="line2d_24">
        <path
           clip-path="url(#p3ab251acb6)"
           d="M 266.30816,48.927238 H 484.4644"
           style="fill:none;stroke:#cccccc;stroke-linecap:round"
           id="path444" />
      </g>
    </g>
  </g>
  <g
     id="patch_28"
     transform="translate(0,9)">
    <path
       clip-path="url(#p3ab251acb6)"
       d="m 285.23908,249.872 h 9.01472 v 0 z"
       style="fill:#ff7f0e;fill-opacity:0.5;stroke:#ffffff;stroke-linejoin:miter"
       id="path449" />
  </g>
  <g
     id="patch_29"
     transform="translate(0,9)">
    <path
       clip-path="url(#p3ab251acb6)"
       d="m 303.26852,249.872 h 9.01472 v -66.98159 h -9.01472 z"
       style="fill:#ff7f0e;fill-opacity:0.5;stroke:#ffffff;stroke-linejoin:miter"
       id="path452" />
  </g>
  <g
     id="patch_30"
     transform="translate(0,9)">
    <path
       clip-path="url(#p3ab251acb6)"
       d="m 321.29796,249.872 h 9.01472 V 82.418032 h -9.01472 z"
       style="fill:#ff7f0e;fill-opacity:0.5;stroke:#ffffff;stroke-linejoin:miter"
       id="path455" />
  </g>
  <g
     id="patch_31"
     transform="translate(0,9)">
    <path
       clip-path="url(#p3ab251acb6)"
       d="m 339.3274,249.872 h 9.01472 V 149.39962 h -9.01472 z"
       style="fill:#ff7f0e;fill-opacity:0.5;stroke:#ffffff;stroke-linejoin:miter"
       id="path458" />
  </g>
  <g
     id="patch_32"
     transform="translate(0,9)">
    <path
       clip-path="url(#p3ab251acb6)"
       d="m 357.35684,249.872 h 9.01472 V 82.418032 h -9.01472 z"
       style="fill:#ff7f0e;fill-opacity:0.5;stroke:#ffffff;stroke-linejoin:miter"
       id="path461" />
  </g>
  <g
     id="patch_33"
     transform="translate(0,9)">
    <path
       clip-path="url(#p3ab251acb6)"
       d="M 375.38628,249.872 H 384.401 V 115.90882 h -9.01472 z"
       style="fill:#ff7f0e;fill-opacity:0.5;stroke:#ffffff;stroke-linejoin:miter"
       id="path464" />
  </g>
  <g
     id="patch_34"
     transform="translate(0,9)">
    <path
       clip-path="url(#p3ab251acb6)"
       d="m 393.41572,249.872 h 9.01472 v -66.98159 h -9.01472 z"
       style="fill:#ff7f0e;fill-opacity:0.5;stroke:#ffffff;stroke-linejoin:miter"
       id="path467" />
  </g>
  <g
     id="patch_35"
     transform="translate(0,9)">
    <path
       clip-path="url(#p3ab251acb6)"
       d="m 411.44516,249.872 h 9.01472 v -66.98159 h -9.01472 z"
       style="fill:#ff7f0e;fill-opacity:0.5;stroke:#ffffff;stroke-linejoin:miter"
       id="path470" />
  </g>
  <g
     id="patch_36"
     transform="translate(0,9)">
    <path
       clip-path="url(#p3ab251acb6)"
       d="m 429.4746,249.872 h 9.01472 v 0 z"
       style="fill:#ff7f0e;fill-opacity:0.5;stroke:#ffffff;stroke-linejoin:miter"
       id="path473" />
  </g>
  <g
     id="patch_37"
     transform="translate(0,9)">
    <path
       clip-path="url(#p3ab251acb6)"
       d="m 447.50404,249.872 h 9.01472 v 0 z"
       style="fill:#ff7f0e;fill-opacity:0.5;stroke:#ffffff;stroke-linejoin:miter"
       id="path476" />
  </g>
  <g
     id="patch_38"
     transform="translate(0,9)">
    <path
       clip-path="url(#p3ab251acb6)"
       d="m 465.53348,249.872 h 9.01472 v 0 z"
       style="fill:#ff7f0e;fill-opacity:0.5;stroke:#ffffff;stroke-linejoin:miter"
       id="path479" />
  </g>
  <g
     id="patch_39"
     transform="translate(0,9)">
    <path
       clip-path="url(#p3ab251acb6)"
       d="m 276.22436,249.872 h 9.01472 v 0 z"
       style="fill:#1f77b4;fill-opacity:0.5;stroke:#ffffff;stroke-linejoin:miter"
       id="path482" />
  </g>
  <g
     id="patch_40"
     transform="translate(0,9)">
    <path
       clip-path="url(#p3ab251acb6)"
       d="m 294.2538,249.872 h 9.01472 v -33.49079 h -9.01472 z"
       style="fill:#1f77b4;fill-opacity:0.5;stroke:#ffffff;stroke-linejoin:miter"
       id="path485" />
  </g>
  <g
     id="patch_41"
     transform="translate(0,9)">
    <path
       clip-path="url(#p3ab251acb6)"
       d="m 312.28324,249.872 h 9.01472 V 149.39962 h -9.01472 z"
       style="fill:#1f77b4;fill-opacity:0.5;stroke:#ffffff;stroke-linejoin:miter"
       id="path488" />
  </g>
  <g
     id="patch_42"
     transform="translate(0,9)">
    <path
       clip-path="url(#p3ab251acb6)"
       d="m 330.31268,249.872 h 9.01472 V 82.418032 h -9.01472 z"
       style="fill:#1f77b4;fill-opacity:0.5;stroke:#ffffff;stroke-linejoin:miter"
       id="path491" />
  </g>
  <g
     id="patch_43"
     transform="translate(0,9)">
    <path
       clip-path="url(#p3ab251acb6)"
       d="m 348.34212,249.872 h 9.01472 V 48.927238 h -9.01472 z"
       style="fill:#1f77b4;fill-opacity:0.5;stroke:#ffffff;stroke-linejoin:miter"
       id="path494" />
  </g>
  <g
     id="patch_44"
     transform="translate(0,9)">
    <path
       clip-path="url(#p3ab251acb6)"
       d="m 366.37156,249.872 h 9.01472 v 0 z"
       style="fill:#1f77b4;fill-opacity:0.5;stroke:#ffffff;stroke-linejoin:miter"
       id="path497" />
  </g>
  <g
     id="patch_45"
     transform="translate(0,9)">
    <path
       clip-path="url(#p3ab251acb6)"
       d="m 384.401,249.872 h 9.01472 V 82.418032 H 384.401 Z"
       style="fill:#1f77b4;fill-opacity:0.5;stroke:#ffffff;stroke-linejoin:miter"
       id="path500" />
  </g>
  <g
     id="patch_46"
     transform="translate(0,9)">
    <path
       clip-path="url(#p3ab251acb6)"
       d="m 402.43044,249.872 h 9.01472 v -66.98159 h -9.01472 z"
       style="fill:#1f77b4;fill-opacity:0.5;stroke:#ffffff;stroke-linejoin:miter"
       id="path503" />
  </g>
  <g
     id="patch_47"
     transform="translate(0,9)">
    <path
       clip-path="url(#p3ab251acb6)"
       d="m 420.45988,249.872 h 9.01472 v 0 z"
       style="fill:#1f77b4;fill-opacity:0.5;stroke:#ffffff;stroke-linejoin:miter"
       id="path506" />
  </g>
  <g
     id="patch_48"
     transform="translate(0,9)">
    <path
       clip-path="url(#p3ab251acb6)"
       d="m 438.48932,249.872 h 9.01472 v 0 z"
       style="fill:#1f77b4;fill-opacity:0.5;stroke:#ffffff;stroke-linejoin:miter"
       id="path509" />
  </g>
  <g
     id="patch_49"
     transform="translate(0,9)">
    <path
       clip-path="url(#p3ab251acb6)"
       d="m 456.51876,249.872 h 9.01472 v -33.49079 h -9.01472 z"
       style="fill:#1f77b4;fill-opacity:0.5;stroke:#ffffff;stroke-linejoin:miter"
       id="path512" />
  </g>
  <g
     id="line2d_25"
     transform="translate(0,9)">
    <path
       clip-path="url(#p3ab251acb6)"
       d="m 276.22436,243.86566 1.9932,-1.7991 1.99321,-2.20826 1.9932,-2.66985 1.99321,-3.17913 1.9932,-3.72778 1.9932,-4.30372 1.99321,-4.89098 1.9932,-5.47023 1.99321,-6.01937 2.9898,-9.93424 2.98981,-10.76095 8.96942,-33.03392 2.98981,-9.69478 1.9932,-5.74348 1.99321,-5.07896 1.9932,-4.37527 1.99321,-3.66799 1.9932,-2.99237 1.9932,-2.3809 1.99321,-1.86091 1.9932,-1.45255 1.99321,-1.16741 7.97282,-4.16356 1.9932,-1.35073 1.99321,-1.55264 2.9898,-2.65664 5.97961,-5.58853 1.99321,-1.54195 1.9932,-1.168324 0.99661,-0.404554 0.9966,-0.265234 0.9966,-0.112612 0.9966,0.05192 0.99661,0.226773 0.9966,0.410157 0.9966,0.600151 0.9966,0.794713 0.99661,0.99172 0.9966,1.189 0.9966,1.38439 1.9932,3.33683 1.99321,4.04395 1.9932,4.66581 1.99321,5.1791 2.9898,8.45549 8.96942,26.24892 2.98981,7.86724 2.98981,7.09776 2.9898,6.31008 2.98981,5.60552 2.98981,5.05535 3.98641,6.21295 9.96602,15.23284 11.95923,18.84026 2.9898,4.18053 2.98981,3.73452 1.9932,2.20598 1.99321,1.96586 1.9932,1.72374 1.99321,1.4871 1.9932,1.26228 1.99321,1.05419 1.9932,0.86628 2.98981,0.99559 2.9898,0.69855 2.98981,0.47283 3.98641,0.38423 4.98301,0.23755 7.97282,0.12475 1.9932,0.0104 v 0"
       style="fill:none;stroke:#ff7f0e;stroke-width:1.5;stroke-linecap:round"
       id="path515" />
  </g>
  <g
     id="line2d_26"
     transform="translate(0,9)">
    <path
       clip-path="url(#p3ab251acb6)"
       d="m 276.22436,240.14761 1.9932,-1.76722 1.99321,-1.99794 1.9932,-2.24137 1.99321,-2.49521 1.9932,-2.75666 1.9932,-3.02251 2.98981,-5.03289 2.98981,-5.61772 2.9898,-6.16703 2.98981,-6.65905 3.98641,-9.50602 4.98301,-12.54814 8.96942,-22.69695 3.98641,-9.34633 2.98981,-6.43257 2.9898,-5.80295 1.99321,-3.46547 1.9932,-3.11042 1.99321,-2.73184 1.9932,-2.3341 1.99321,-1.92199 1.9932,-1.50071 1.99321,-1.07579 1.9932,-0.65306 1.9932,-0.23852 1.99321,0.16179 1.9932,0.54189 1.99321,0.89611 1.9932,1.21926 1.99321,1.5068 1.9932,1.75513 2.98981,3.00663 3.98641,4.48134 11.95922,13.8945 3.98641,4.20033 4.98301,4.92756 7.97282,7.82027 3.98641,4.27212 2.98981,3.49021 2.9898,3.77637 2.98981,4.07198 3.98641,5.85695 4.98301,7.84932 10.96263,17.64362 3.9864,5.87537 2.98981,4.02083 2.98981,3.61817 2.9898,3.16898 1.99321,1.84895 1.9932,1.63405 1.99321,1.42053 1.9932,1.21254 1.99321,1.01405 1.9932,0.82876 2.98981,0.93247 2.98981,0.61975 2.9898,0.38275 3.98641,0.27906 8.96942,0.50047 0.9966,0.0946 v 0"
       style="fill:none;stroke:#1f77b4;stroke-width:1.5;stroke-linecap:round"
       id="path518" />
  </g>
  <g
     id="patch_50"
     transform="translate(0,9)">
    <path
       d="M 266.30816,249.872 V 38.88"
       style="fill:none;stroke:#cccccc;stroke-width:1.25;stroke-linecap:square;stroke-linejoin:miter"
       id="path521" />
  </g>
  <g
     id="patch_51"
     transform="translate(0,9)">
    <path
       d="M 266.30816,249.872 H 484.4644"
       style="fill:none;stroke:#cccccc;stroke-width:1.25;stroke-linecap:square;stroke-linejoin:miter"
       id="path524" />
  </g>
  <text
     xml:space="preserve"
     style="font-size:12px;line-height:1.25;font-family:'DejaVu Sans';-inkscape-font-specification:'DejaVu Sans';font-variation-settings:normal;vector-effect:none;fill:#262626;fill-opacity:1;stroke-width:1;stroke-linecap:butt;stroke-linejoin:round;stroke-miterlimit:4;stroke-dasharray:none;stroke-dashoffset:0;stroke-opacity:1;-inkscape-stroke:none;stop-color:#000000"
     x="219.64635"
     y="292.13535"
     id="text8151"><tspan
       sodipodi:role="line"
       id="tspan8149"
       style="font-variation-settings:normal;vector-effect:none;fill:#262626;fill-opacity:1;stroke-width:1;stroke-linecap:butt;stroke-linejoin:round;stroke-miterlimit:4;stroke-dasharray:none;stroke-dashoffset:0;stroke-opacity:1;-inkscape-stroke:none;stop-color:#000000;stop-opacity:1"
       x="219.64635"
       y="292.13535">Veracity score</tspan></text>
  <path
     id="use589"
     d=""
     style="fill:#262626;stroke-width:0.144" />
  <path
     id="use601"
     d=""
     style="fill:#262626;stroke-width:0.144" />
  <path
     id="use607"
     d=""
     style="fill:#262626;stroke-width:0.144" />
  <path
     id="use613"
     d=""
     style="fill:#262626;stroke-width:0.144" />
  <path
     id="use621"
     d=""
     style="fill:#262626;stroke-width:0.144" />
  <path
     d="m 283.35329,20.475 q -0.21825,-0.126 -0.47475,-0.1845 -0.2565,-0.06075 -0.56475,-0.06075 -1.098,0 -1.68525,0.71325 -0.58725,0.71325 -0.58725,2.04975 v 4.149 h -1.3005 v -7.875 h 1.3005 v 1.224 q 0.4095,-0.71775 1.062,-1.06425 0.65475,-0.34875 1.59075,-0.34875 0.13275,0 0.29475,0.018 0.162,0.01575 0.35775,0.05175 z"
     id="use637"
     style="fill:#262626;stroke-width:0.144" />
  <path
     id="use639"
     d=""
     style="fill:#262626;stroke-width:0.144" />
  <path
     id="use645"
     d=""
     style="fill:#262626;stroke-width:0.144" />
  <path
     id="use653"
     d=""
     style="fill:#262626;stroke-width:0.144" />
  <path
     id="use665"
     d=""
     style="fill:#262626;stroke-width:0.144" />
  <path
     id="use673"
     d=""
     style="fill:#262626;stroke-width:0.144" />
  <path
     id="use687"
     d=""
     style="fill:#262626;stroke-width:0.144" />
  <defs
     id="defs755">
    <clipPath
       id="p651c65dcb7">
      <rect
         height="210.992"
         width="218.15623"
         x="39.3125"
         y="38.880001"
         id="rect749" />
    </clipPath>
    <clipPath
       id="p3ab251acb6">
      <rect
         height="210.992"
         width="218.15623"
         x="266.30817"
         y="38.880001"
         id="rect752" />
    </clipPath>
  </defs>
  <text
     xml:space="preserve"
     style="font-size:14.4px;line-height:1;font-family:'DejaVu Sans';-inkscape-font-specification:'DejaVu Sans';font-variation-settings:normal;opacity:1;vector-effect:none;fill:#262626;fill-opacity:1;stroke-width:1;stroke-linecap:butt;stroke-linejoin:round;stroke-miterlimit:4;stroke-dasharray:none;stroke-dashoffset:0;stroke-opacity:1;-inkscape-stroke:none;stop-color:#000000;stop-opacity:1"
     x="246.19438"
     y="13.302429"
     id="text3321"><tspan
       sodipodi:role="line"
       id="tspan3319"
       style="font-size:14.4px;font-variation-settings:normal;text-align:center;text-anchor:middle;vector-effect:none;fill:#262626;fill-opacity:1;stroke-width:1;stroke-linecap:butt;stroke-linejoin:round;stroke-miterlimit:4;stroke-dasharray:none;stroke-dashoffset:0;stroke-opacity:1;-inkscape-stroke:none;stop-color:#000000;stop-opacity:1"
       x="246.19438"
       y="13.302429">Veracity score in VR and Computer</tspan><tspan
       sodipodi:role="line"
       style="font-size:14.4px;font-variation-settings:normal;text-align:center;text-anchor:middle;vector-effect:none;fill:#262626;fill-opacity:1;stroke-width:1;stroke-linecap:butt;stroke-linejoin:round;stroke-miterlimit:4;stroke-dasharray:none;stroke-dashoffset:0;stroke-opacity:1;-inkscape-stroke:none;stop-color:#000000;stop-opacity:1"
       x="246.19438"
       y="27.702429"
       id="tspan4481">in the first and second sequence</tspan></text>
  <g
     id="g13071"
     style="stroke-linecap:butt;stroke-linejoin:round"
     transform="translate(-7.28594,-2.904498)">
    <text
       xml:space="preserve"
       style="font-size:12px;line-height:1.25;font-family:sans-serif;font-variation-settings:normal;opacity:1;vector-effect:none;fill:#262626;fill-opacity:1;stroke-width:1;stroke-linecap:butt;stroke-linejoin:round;stroke-miterlimit:4;stroke-dasharray:none;stroke-dashoffset:0;stroke-opacity:1;-inkscape-stroke:none;stop-color:#000000;stop-opacity:1"
       x="111.55096"
       y="44.879295"
       id="text2730"><tspan
         sodipodi:role="line"
         id="tspan2728"
         style="font-style:normal;font-variant:normal;font-weight:normal;font-stretch:normal;font-family:'DejaVu Sans';-inkscape-font-specification:'DejaVu Sans';font-variation-settings:normal;vector-effect:none;fill:#262626;fill-opacity:1;stroke-width:1;stroke-linecap:butt;stroke-linejoin:round;stroke-miterlimit:4;stroke-dasharray:none;stroke-dashoffset:0;stroke-opacity:1;-inkscape-stroke:none;stop-color:#000000;stop-opacity:1"
         x="111.55096"
         y="44.879295">First sequence</tspan></text>
    <text
       xml:space="preserve"
       style="font-size:12px;line-height:1.25;font-family:sans-serif;font-variation-settings:normal;opacity:1;vector-effect:none;fill:#262626;fill-opacity:1;stroke-width:1;stroke-linecap:butt;stroke-linejoin:round;stroke-miterlimit:4;stroke-dasharray:none;stroke-dashoffset:0;stroke-opacity:1;-inkscape-stroke:none;stop-color:#000000;stop-opacity:1"
       x="329.45346"
       y="44.879295"
       id="text7405"><tspan
         sodipodi:role="line"
         id="tspan7403"
         style="font-style:normal;font-variant:normal;font-weight:normal;font-stretch:normal;font-family:'DejaVu Sans';-inkscape-font-specification:'DejaVu Sans';font-variation-settings:normal;vector-effect:none;fill:#262626;fill-opacity:1;stroke-width:1;stroke-linecap:butt;stroke-linejoin:round;stroke-miterlimit:4;stroke-dasharray:none;stroke-dashoffset:0;stroke-opacity:1;-inkscape-stroke:none;stop-color:#000000;stop-opacity:1"
         x="329.45346"
         y="44.879295">Second sequence</tspan></text>
  </g>
</svg>
