<?xml version="1.0" encoding="UTF-8" standalone="no"?>
<!-- Created with matplotlib (https://matplotlib.org/) -->

<svg
   height="364pt"
   version="1.1"
   viewBox="0 0 525 364"
   width="525pt"
   id="svg1090"
   sodipodi:docname="Veracity-Score-Experience.svg"
   inkscape:version="1.1.2 (1:1.1+202202050950+0a00cf5339)"
   xmlns:inkscape="http://www.inkscape.org/namespaces/inkscape"
   xmlns:sodipodi="http://sodipodi.sourceforge.net/DTD/sodipodi-0.dtd"
   xmlns:xlink="http://www.w3.org/1999/xlink"
   xmlns="http://www.w3.org/2000/svg"
   xmlns:svg="http://www.w3.org/2000/svg">
  <sodipodi:namedview
     id="namedview1092"
     pagecolor="#ffffff"
     bordercolor="#666666"
     borderopacity="1.0"
     inkscape:pageshadow="2"
     inkscape:pageopacity="0.0"
     inkscape:pagecheckerboard="0"
     inkscape:document-units="pt"
     showgrid="false"
     inkscape:zoom="0.60621087"
     inkscape:cx="89.077914"
     inkscape:cy="192.17735"
     inkscape:window-width="1366"
     inkscape:window-height="704"
     inkscape:window-x="0"
     inkscape:window-y="27"
     inkscape:window-maximized="1"
     inkscape:current-layer="svg1090" />
  <defs
     id="defs4">
    <style
       type="text/css"
       id="style2">
*{stroke-linecap:butt;stroke-linejoin:round;}
  </style>
    <defs
       id="defs865">
      <path
         d="M 0,2.5 C 0.663008,2.5 1.29895,2.236584 1.767767,1.767767 2.236584,1.29895 2.5,0.663008 2.5,0 2.5,-0.663008 2.236584,-1.29895 1.767767,-1.767767 1.29895,-2.236584 0.663008,-2.5 0,-2.5 c -0.663008,0 -1.29895,0.263416 -1.767767,0.732233 C -2.236584,-1.29895 -2.5,-0.663008 -2.5,0 c 0,0.663008 0.263416,1.29895 0.732233,1.767767 C -1.29895,2.236584 -0.663008,2.5 0,2.5 Z"
         id="C7_0_fe3f428e41" />
    </defs>
    <defs
       id="defs829">
      <path
         d="M 0,2.5 C 0.663008,2.5 1.29895,2.236584 1.767767,1.767767 2.236584,1.29895 2.5,0.663008 2.5,0 2.5,-0.663008 2.236584,-1.29895 1.767767,-1.767767 1.29895,-2.236584 0.663008,-2.5 0,-2.5 c -0.663008,0 -1.29895,0.263416 -1.767767,0.732233 C -2.236584,-1.29895 -2.5,-0.663008 -2.5,0 c 0,0.663008 0.263416,1.29895 0.732233,1.767767 C -1.29895,2.236584 -0.663008,2.5 0,2.5 Z"
         id="C4_0_ccf4889c25" />
    </defs>
    <defs
       id="defs447">
      <path
         d="m 224.4375,-88.247751 h -2.79804 l -0.60613,-1.379974 -0.70294,-1.379974 -0.80715,-1.379973 -0.9176,-1.379974 -1.03274,-1.379974 -1.15068,-1.379974 -1.26915,-1.379974 -1.3856,-1.379974 -1.49726,-1.379978 -1.60122,-1.37997 -1.69454,-1.37997 -1.7744,-1.37998 -1.83812,-1.37997 -1.88343,-1.37998 -1.90845,-1.37997 -1.91183,-1.37997 -1.89286,-1.37998 -1.85143,-1.37997 -1.7881,-1.37997 -1.70412,-1.37998 -1.60125,-1.37997 -1.48186,-1.37998 -1.34865,-1.37997 -1.2047,-1.37997 -1.05323,-1.37998 -0.89752,-1.37997 -0.74074,-1.37998 -0.58591,-1.37997 -0.43573,-1.37997 -0.29251,-1.37998 -0.15812,-1.37997 -0.034,-1.37998 0.079,-1.37997 0.18035,-1.37997 0.27007,-1.37998 0.34856,-1.37997 0.41649,-1.37997 0.47479,-1.37998 0.5246,-1.37997 0.5671,-1.37998 0.60353,-1.37997 0.63505,-1.37997 0.66275,-1.37998 0.68759,-1.37997 0.71033,-1.37998 0.73158,-1.37997 0.75175,-1.37997 0.77109,-1.37998 0.78967,-1.37997 0.80742,-1.37998 0.82411,-1.37997 0.83944,-1.37997 0.85302,-1.37998 0.86435,-1.37997 0.87293,-1.37997 0.87826,-1.37998 0.8798,-1.37997 0.87711,-1.37998 0.86978,-1.37997 0.85758,-1.37997 0.8404,-1.37998 0.81832,-1.37997 0.79167,-1.37998 0.76098,-1.37997 0.72701,-1.37997 0.6908,-1.37998 0.65351,-1.37997 0.61648,-1.37998 0.58111,-1.37997 0.54878,-1.37997 0.52081,-1.37998 0.4983,-1.37997 0.48212,-1.37998 0.4728,-1.37997 0.47054,-1.37997 0.47508,-1.37998 0.48584,-1.37997 0.50185,-1.37997 0.52185,-1.37998 0.54433,-1.37997 0.5677,-1.37998 0.59028,-1.37997 0.61048,-1.37997 0.62685,-1.37998 0.63816,-1.37997 0.64348,-1.37998 0.64222,-1.37997 0.63409,-1.37997 0.61918,-1.37998 0.59784,-1.37997 0.57074,-1.37998 0.53867,-1.37997 0.50268,-1.37997 0.4638,-1.37998 0.42314,-1.37997 0.38176,-1.37997 0.34061,-1.37998 0.30058,-1.37997 0.26237,-1.37998 h 1.26471 v 0 1.37998 1.37997 1.37998 1.37997 1.37997 1.37998 1.37997 1.37997 1.37998 1.37997 1.37998 1.37997 1.37997 1.37998 1.37997 1.37998 1.37997 1.37997 1.37998 1.37997 1.37998 1.37997 1.37997 1.37998 1.37997 1.37997 1.37998 1.37997 1.37998 1.37997 1.37997 1.37998 1.37997 1.37998 1.37997 1.37997 1.37998 1.37997 1.37998 1.37997 1.37997 1.37998 1.37997 1.37998 1.37997 1.37997 1.37998 1.37997 1.37997 1.37998 1.37997 1.37998 1.37997 1.37997 1.37998 1.37997 1.37998 1.37997 1.37997 1.37998 1.37997 1.37998 1.37997 1.37997 1.37998 1.37997 1.37997 1.37998 1.37997 1.37998 1.37997 1.37997 1.37998 1.37997 1.37998 1.37997 1.37997 1.37998 1.37997 1.37998 1.37997 1.37997 1.37998 1.37997 1.37997 1.37998 1.37997 1.37998 1.37997 1.37997 1.379978 1.379974 1.379974 1.379974 1.379974 1.379974 1.379973 1.379974 z"
         id="m98327b2a4f"
         style="stroke:#737373;stroke-width:3" />
    </defs>
    <defs
       id="defs673">
      <path
         d="M 0,2.5 C 0.663008,2.5 1.29895,2.236584 1.767767,1.767767 2.236584,1.29895 2.5,0.663008 2.5,0 2.5,-0.663008 2.236584,-1.29895 1.767767,-1.767767 1.29895,-2.236584 0.663008,-2.5 0,-2.5 c -0.663008,0 -1.29895,0.263416 -1.767767,0.732233 C -2.236584,-1.29895 -2.5,-0.663008 -2.5,0 c 0,0.663008 0.263416,1.29895 0.732233,1.767767 C -1.29895,2.236584 -0.663008,2.5 0,2.5 Z"
         id="C2_0_89fe41d32e" />
    </defs>
    <defs
       id="defs431">
      <path
         d="m 119.8125,-45.883636 h -0.75174 l -0.18305,-1.996695 -0.2179,-1.996694 -0.25698,-1.996694 -0.30025,-1.996694 -0.34761,-1.996694 -0.39878,-1.996695 -0.45336,-1.996694 -0.51081,-1.996694 -0.57045,-1.996694 -0.63145,-1.996695 -0.69289,-1.996694 -0.75374,-1.996694 -0.8129,-1.996694 -0.86923,-1.996694 -0.92164,-1.996695 -0.96901,-1.996694 -1.01038,-1.996694 -1.04488,-1.996694 -1.07179,-1.996694 -1.09063,-1.996695 -1.10108,-1.996694 -1.10309,-1.996694 -1.09682,-1.996694 -1.08264,-1.996695 -1.0611,-1.996694 -1.032907,-1.996694 -0.998847,-1.996694 -0.959764,-1.99669 -0.916481,-1.9967 -0.86976,-1.99669 -0.820254,-1.9967 -0.768469,-1.99669 -0.714756,-1.9967 -0.659302,-1.99669 -0.602154,-1.99669 -0.543243,-1.9967 -0.482434,-1.99669 -0.419575,-1.9967 -0.35455,-1.99669 -0.287334,-1.9967 -0.218027,-1.99669 -0.146892,-1.99669 -0.07436,-1.9967 -10e-4,-1.99669 0.07234,-1.9967 0.144913,-1.99669 0.215755,-1.99669 0.283937,-1.9967 0.34857,-1.99669 0.408864,-1.9967 0.464163,-1.99669 0.513993,-1.9967 0.558068,-1.99669 0.596307,-1.99669 0.628817,-1.9967 0.65588,-1.99669 0.677921,-1.9967 0.695461,-1.99669 0.709085,-1.99669 0.719396,-1.9967 0.726976,-1.99669 0.732349,-1.9967 0.735968,-1.99669 0.738186,-1.9967 0.73927,-1.99669 0.73938,-1.99669 0.73862,-1.9967 0.73701,-1.99669 0.73454,-1.9967 0.73118,-1.99669 0.72689,-1.9967 0.72162,-1.99669 0.71537,-1.99669 0.70812,-1.9967 0.69985,-1.99669 0.69057,-1.9967 0.68023,-1.99669 0.66879,-1.99669 0.65617,-1.9967 0.64227,-1.99669 0.62694,-1.9967 0.61006,-1.99669 0.59146,-1.9967 0.57103,-1.99669 0.54869,-1.99669 0.52441,-1.9967 0.49824,-1.99669 0.4703,-1.9967 0.44081,-1.99669 0.41006,-1.9967 0.37841,-1.99669 0.34626,-1.99669 0.31407,-1.9967 0.28227,-1.99669 0.25132,-1.9967 0.2216,-1.99669 0.19348,-1.99669 0.16723,-1.9967 0.14308,-1.99669 h 0.62779 v 0 1.99669 1.9967 1.99669 1.99669 1.9967 1.99669 1.9967 1.99669 1.99669 1.9967 1.99669 1.9967 1.99669 1.9967 1.99669 1.99669 1.9967 1.99669 1.9967 1.99669 1.9967 1.99669 1.99669 1.9967 1.99669 1.9967 1.99669 1.99669 1.9967 1.99669 1.9967 1.99669 1.9967 1.99669 1.99669 1.9967 1.99669 1.9967 1.99669 1.9967 1.99669 1.99669 1.9967 1.99669 1.9967 1.99669 1.99669 1.9967 1.99669 1.9967 1.99669 1.9967 1.99669 1.99669 1.9967 1.99669 1.9967 1.99669 1.99669 1.9967 1.99669 1.9967 1.99669 1.9967 1.99669 1.99669 1.9967 1.99669 1.9967 1.99669 1.9967 1.99669 1.996694 1.996694 1.996694 1.996695 1.996694 1.996694 1.996694 1.996695 1.996694 1.996694 1.996694 1.996694 1.996695 1.996694 1.996694 1.996694 1.996694 1.996695 1.996694 1.996694 1.996694 1.996695 1.996694 1.996694 1.996694 1.996694 z"
         id="md20720b42e"
         style="stroke:#737373;stroke-width:3" />
    </defs>
    <defs
       id="defs396">
      <path
         d="M 48.78125,52.59375 V 44.1875 q -3.8125,2.109375 -7.640625,3.15625 -3.828125,1.046875 -7.734375,1.046875 -8.75,0 -13.59375,-5.546875 -4.828125,-5.53125 -4.828125,-15.546875 0,-10.015625 4.828125,-15.5625 4.84375,-5.53125 13.59375,-5.53125 3.90625,0 7.734375,1.046875 3.828125,1.046875 7.640625,3.15625 v -8.3125 q -3.765625,-1.75 -7.796875,-2.625 -4.015625,-0.890625 -8.5625,-0.890625 -12.359375,0 -19.640625,7.765625 -7.265625,7.765625 -7.265625,20.953125 0,13.375 7.34375,21.03125 Q 20.21875,56 33.015625,56 q 4.140625,0 8.09375,-0.859375 3.953125,-0.84375 7.671875,-2.546875 z"
         id="DejaVuSans-99" />
      <path
         d="m 53.515625,70.515625 v -9.625 q -5.609375,2.6875 -10.59375,4 -4.984375,1.328125 -9.625,1.328125 -8.046875,0 -12.421875,-3.125 -4.375,-3.125 -4.375,-8.890625 0,-4.84375 2.90625,-7.3125 2.90625,-2.453125 11.015625,-3.96875 L 36.375,41.703125 Q 47.40625,39.59375 52.65625,34.296875 57.90625,29 57.90625,20.125 q 0,-10.609375 -7.109375,-16.078125 -7.09375,-5.46875 -20.8125,-5.46875 -5.171875,0 -11.015625,1.171875 Q 13.140625,0.921875 6.890625,3.21875 V 13.375 q 6,-3.359375 11.765625,-5.078125 5.765625,-1.703125 11.328125,-1.703125 8.4375,0 13.03125,3.3125 4.59375,3.328125 4.59375,9.484375 0,5.359375 -3.296875,8.390625 Q 41.015625,30.8125 33.5,32.328125 L 27.484375,33.5 q -11.03125,2.1875 -15.96875,6.875 -4.921875,4.6875 -4.921875,13.046875 0,9.671875 6.8125,15.234375 6.8125,5.5625 18.765625,5.5625 5.140625,0 10.453125,-0.9375 5.328125,-0.921875 10.890625,-2.765625 z"
         id="DejaVuSans-83" />
    </defs>
    <defs
       id="defs439">
      <path
         d="m 121.17458,-82.487477 h -1.36208 v -1.45649 -1.456489 -1.45649 -1.45649 -1.456489 -1.45649 -1.45649 -1.456489 -1.45649 -1.45649 -1.456489 -1.45649 -1.456487 -1.45649 -1.45649 -1.45649 -1.45649 -1.45649 -1.45649 -1.45649 -1.45649 -1.45649 -1.45649 -1.45649 -1.45649 -1.45649 -1.45649 -1.45649 -1.45649 -1.45649 -1.45649 -1.45649 -1.45649 -1.45649 -1.45649 -1.45648 -1.4565 -1.45648 -1.45649 -1.45649 -1.45649 -1.45649 -1.45649 -1.45649 -1.45649 -1.45649 -1.45649 -1.45649 -1.45649 -1.45649 -1.45649 -1.45649 -1.45649 -1.45649 -1.45649 -1.45649 -1.45649 -1.45649 -1.45649 -1.45649 -1.45649 -1.45649 -1.45649 -1.45649 -1.45649 -1.45648 -1.45649 -1.45649 -1.45649 -1.45649 -1.45649 -1.45649 -1.45649 -1.45649 -1.45649 -1.45649 -1.45649 -1.45649 -1.45649 -1.45649 -1.45649 -1.45649 -1.45649 -1.45649 -1.45649 -1.45649 -1.45649 -1.45649 -1.45649 -1.45649 -1.45649 -1.45649 -1.45649 -1.45649 -1.45649 -1.45648 -1.45649 -1.45649 -1.45649 h 1.31817 v 0 l 0.28733,1.45649 0.33332,1.45649 0.38271,1.45649 0.43488,1.45648 0.489,1.45649 0.54411,1.45649 0.59898,1.45649 0.65237,1.45649 0.70286,1.45649 0.74905,1.45649 0.78956,1.45649 0.82316,1.45649 0.84875,1.45649 0.86557,1.45649 0.87313,1.45649 0.87138,1.45649 0.86065,1.45649 0.84172,1.45649 0.81582,1.45649 0.78452,1.45649 0.74975,1.45649 0.71366,1.45649 0.67858,1.45649 0.64681,1.45649 0.6206,1.45649 0.60195,1.45649 0.59255,1.45649 0.59364,1.45649 0.60598,1.45649 0.62973,1.45649 0.66449,1.45649 0.70925,1.45649 0.76247,1.45649 0.8221,1.45648 0.88568,1.45649 0.95045,1.45649 1.01343,1.45649 1.07158,1.45649 1.12193,1.45649 1.16163,1.45649 1.18816,1.45649 1.19936,1.45649 1.19353,1.45649 1.16947,1.45649 1.12658,1.45649 1.06483,1.45649 0.98476,1.45649 0.88746,1.45649 0.77456,1.45649 0.64814,1.45649 0.51066,1.45649 0.36489,1.45649 0.21381,1.45649 0.0605,1.45649 -0.092,1.45649 -0.24073,1.45649 -0.38293,1.45649 -0.51619,1.45649 -0.63849,1.45649 -0.74828,1.45649 -0.84452,1.45649 -0.92671,1.45648 -0.99489,1.4565 -1.04964,1.45648 -1.09192,1.45649 -1.12315,1.45649 -1.14497,1.45649 -1.1592,1.45649 -1.1677,1.45649 -1.17228,1.45649 -1.17453,1.45649 -1.17579,1.45649 -1.17705,1.45649 -1.17891,1.45649 -1.18156,1.45649 -1.18481,1.45649 -1.1881,1.45649 -1.19064,1.45649 -1.19139,1.45649 -1.18924,1.45649 -1.18305,1.45649 -1.1718,1.45649 -1.1546,1.45649 -1.13084,1.45649 -1.10016,1.45649 -1.06252,1.45649 -1.01817,1.456487 -0.96767,1.45649 -0.91181,1.456489 -0.85161,1.45649 -0.78818,1.45649 -0.72277,1.456489 -0.65659,1.45649 -0.59085,1.45649 -0.52661,1.456489 -0.46488,1.45649 -0.40645,1.45649 -0.35193,1.456489 z"
         id="m579a28ee0e"
         style="stroke:#737373;stroke-width:3" />
    </defs>
    <defs
       id="defs617">
      <path
         d="M 0,2.5 C 0.663008,2.5 1.29895,2.236584 1.767767,1.767767 2.236584,1.29895 2.5,0.663008 2.5,0 2.5,-0.663008 2.236584,-1.29895 1.767767,-1.767767 1.29895,-2.236584 0.663008,-2.5 0,-2.5 c -0.663008,0 -1.29895,0.263416 -1.767767,0.732233 C -2.236584,-1.29895 -2.5,-0.663008 -2.5,0 c 0,0.663008 0.263416,1.29895 0.732233,1.767767 C -1.29895,2.236584 -0.663008,2.5 0,2.5 Z"
         id="C1_0_29133b5eb2" />
    </defs>
    <defs
       id="defs479">
      <path
         d="m 437.66749,-131.35716 h -3.97999 v -0.82791 -0.8279 -0.82791 -0.8279 -0.8279 -0.82791 -0.8279 -0.8279 -0.82791 -0.8279 -0.82791 -0.8279 -0.8279 -0.82791 -0.8279 -0.82791 -0.8279 -0.8279 -0.82791 -0.8279 -0.8279 -0.82791 -0.8279 -0.82791 -0.8279 -0.8279 -0.82791 -0.8279 -0.82791 -0.8279 -0.8279 -0.82791 -0.8279 -0.8279 -0.82791 -0.8279 -0.82791 -0.8279 -0.8279 -0.82791 -0.8279 -0.8279 -0.82791 -0.8279 -0.82791 -0.8279 -0.8279 -0.82791 -0.8279 -0.82791 -0.8279 -0.8279 -0.82791 -0.8279 -0.8279 -0.82791 -0.8279 -0.82791 -0.8279 -0.8279 -0.82791 -0.8279 -0.82791 -0.8279 -0.8279 -0.82791 -0.8279 -0.8279 -0.82791 -0.8279 -0.82791 -0.8279 -0.8279 -0.82791 -0.8279 -0.8279 -0.82791 -0.8279 -0.82791 -0.8279 -0.8279 -0.82791 -0.8279 -0.82791 -0.8279 -0.8279 -0.82791 -0.8279 -0.8279 -0.82791 -0.8279 -0.82791 -0.8279 -0.8279 -0.82791 -0.8279 -0.82791 -0.8279 -0.8279 h 3.97999 v 0 l 0.47615,0.8279 0.51752,0.8279 0.5603,0.82791 0.60427,0.8279 0.64916,0.82791 0.69464,0.8279 0.74037,0.8279 0.78598,0.82791 0.83106,0.8279 0.87515,0.82791 0.91786,0.8279 0.95869,0.8279 0.9972,0.82791 1.03293,0.8279 1.06544,0.8279 1.0943,0.82791 1.11913,0.8279 1.13956,0.82791 1.1553,0.8279 1.16608,0.8279 1.17171,0.82791 1.17204,0.8279 1.16702,0.82791 1.15665,0.8279 1.14101,0.8279 1.12023,0.82791 1.09453,0.8279 1.0642,0.8279 1.02955,0.82791 0.99096,0.8279 0.94889,0.82791 0.90375,0.8279 0.85604,0.8279 0.80623,0.82791 0.75481,0.8279 0.70222,0.8279 0.64894,0.82791 0.59533,0.8279 0.54178,0.82791 0.48858,0.8279 0.43597,0.8279 0.38416,0.82791 0.33326,0.8279 0.2833,0.82791 0.23433,0.8279 0.18623,0.8279 0.13893,0.82791 0.0923,0.8279 0.046,0.8279 v 0.82791 l -0.046,0.8279 -0.0923,0.82791 -0.13893,0.8279 -0.18623,0.8279 -0.23433,0.82791 -0.2833,0.8279 -0.33326,0.82791 -0.38416,0.8279 -0.43597,0.8279 -0.48858,0.82791 -0.54178,0.8279 -0.59533,0.8279 -0.64894,0.82791 -0.70222,0.8279 -0.75481,0.82791 -0.80623,0.8279 -0.85604,0.8279 -0.90375,0.82791 -0.94889,0.8279 -0.99096,0.8279 -1.02955,0.82791 -1.0642,0.8279 -1.09453,0.82791 -1.12023,0.8279 -1.14101,0.8279 -1.15665,0.82791 -1.16702,0.8279 -1.17204,0.82791 -1.17171,0.8279 -1.16608,0.8279 -1.1553,0.82791 -1.13956,0.8279 -1.11913,0.8279 -1.0943,0.82791 -1.06544,0.8279 -1.03293,0.82791 -0.9972,0.8279 -0.95869,0.8279 -0.91786,0.82791 -0.87515,0.8279 -0.83106,0.82791 -0.78598,0.8279 -0.74037,0.8279 -0.69464,0.82791 -0.64916,0.8279 -0.60427,0.8279 -0.5603,0.82791 -0.51752,0.8279 z"
         id="m53694637c4"
         style="stroke:#737373;stroke-width:3" />
    </defs>
    <defs
       id="defs471">
      <path
         d="m 333.04249,-106.47469 h -3.97999 v -0.41395 -0.41396 -0.41395 -0.41395 -0.41395 -0.41395 -0.41396 -0.41395 -0.41395 -0.41395 -0.41395 -0.41396 -0.41395 -0.41395 -0.41395 -0.41395 -0.41396 -0.41395 -0.41395 -0.41395 -0.41395 -0.41395 -0.41396 -0.41395 -0.41395 -0.41395 -0.41395 -0.41396 -0.41395 -0.41395 -0.41395 -0.41395 -0.41395 -0.41396 -0.41395 -0.41395 -0.41395 -0.41395 -0.41396 -0.41395 -0.41395 -0.41395 -0.41395 -0.41396 -0.41395 -0.41395 -0.41395 -0.41395 -0.41396 -0.41395 -0.41395 -0.41395 -0.41395 -0.41395 -0.41396 -0.41395 -0.41395 -0.41395 -0.41395 -0.41396 -0.41395 -0.41395 -0.41395 -0.41395 -0.41396 -0.41395 -0.41395 -0.41395 -0.41395 -0.41396 -0.41395 -0.41395 -0.41395 -0.41395 -0.41395 -0.41396 -0.41395 -0.41395 -0.41395 -0.41395 -0.41396 -0.41395 -0.41395 -0.41395 -0.41395 -0.41396 -0.41395 -0.41395 -0.41395 -0.41395 -0.41396 -0.41395 -0.41395 -0.41395 -0.41395 -0.41396 -0.41395 -0.41395 -0.41395 h 3.97999 v 0 l 0.47615,0.41395 0.51752,0.41395 0.5603,0.41395 0.60427,0.41396 0.64916,0.41395 0.69464,0.41395 0.74037,0.41395 0.78598,0.41395 0.83106,0.41396 0.87515,0.41395 0.91786,0.41395 0.95869,0.41395 0.9972,0.41395 1.03293,0.41396 1.06544,0.41395 1.0943,0.41395 1.11913,0.41395 1.13956,0.41395 1.1553,0.41396 1.16608,0.41395 1.17171,0.41395 1.17204,0.41395 1.16702,0.41395 1.15665,0.41396 1.14101,0.41395 1.12023,0.41395 1.09453,0.41395 1.0642,0.41395 1.02955,0.41395 0.99096,0.41396 0.94889,0.41395 0.90375,0.41395 0.85604,0.41395 0.80623,0.41395 0.75481,0.41396 0.70222,0.41395 0.64894,0.41395 0.59533,0.41395 0.54178,0.41395 0.48858,0.41396 0.43597,0.41395 0.38416,0.41395 0.33326,0.41395 0.2833,0.41395 0.23433,0.41396 0.18623,0.41395 0.13893,0.41395 0.0923,0.41395 0.046,0.41395 v 0.41395 l -0.046,0.41396 -0.0923,0.41395 -0.13893,0.41395 -0.18623,0.41395 -0.23433,0.41395 -0.2833,0.41396 -0.33326,0.41395 -0.38416,0.41395 -0.43597,0.41395 -0.48858,0.41395 -0.54178,0.41396 -0.59533,0.41395 -0.64894,0.41395 -0.70222,0.41395 -0.75481,0.41395 -0.80623,0.41396 -0.85604,0.41395 -0.90375,0.41395 -0.94889,0.41395 -0.99096,0.41395 -1.02955,0.41395 -1.0642,0.41396 -1.09453,0.41395 -1.12023,0.41395 -1.14101,0.41395 -1.15665,0.41395 -1.16702,0.41396 -1.17204,0.41395 -1.17171,0.41395 -1.16608,0.41395 -1.1553,0.41395 -1.13956,0.41395 -1.11913,0.41396 -1.0943,0.41395 -1.06544,0.41395 -1.03293,0.41395 -0.9972,0.41395 -0.95869,0.41396 -0.91786,0.41395 -0.87515,0.41395 -0.83106,0.41395 -0.78598,0.41395 -0.74037,0.41396 -0.69464,0.41395 -0.64916,0.41395 -0.60427,0.41395 -0.5603,0.41395 -0.51752,0.41396 z"
         id="m0bd0bb0493"
         style="stroke:#737373;stroke-width:3" />
    </defs>
    <defs
       id="defs841">
      <path
         d="M 0,2.5 C 0.663008,2.5 1.29895,2.236584 1.767767,1.767767 2.236584,1.29895 2.5,0.663008 2.5,0 2.5,-0.663008 2.236584,-1.29895 1.767767,-1.767767 1.29895,-2.236584 0.663008,-2.5 0,-2.5 c -0.663008,0 -1.29895,0.263416 -1.767767,0.732233 C -2.236584,-1.29895 -2.5,-0.663008 -2.5,0 c 0,0.663008 0.263416,1.29895 0.732233,1.767767 C -1.29895,2.236584 -0.663008,2.5 0,2.5 Z"
         id="C5_0_74dd12cb1c" />
    </defs>
    <defs
       id="defs534">
      <path
         d="M 0,3 C 0.795609,3 1.55874,2.683901 2.12132,2.12132 2.683901,1.55874 3,0.795609 3,0 3,-0.795609 2.683901,-1.55874 2.12132,-2.12132 1.55874,-2.683901 0.795609,-3 0,-3 -0.795609,-3 -1.55874,-2.683901 -2.12132,-2.12132 -2.683901,-1.55874 -3,-0.795609 -3,0 -3,0.795609 -2.683901,1.55874 -2.12132,2.12132 -1.55874,2.683901 -0.795609,3 0,3 Z"
         id="m56282a4df8"
         style="stroke:#737373;stroke-width:2" />
    </defs>
    <defs
       id="defs853">
      <path
         d="M 0,2.5 C 0.663008,2.5 1.29895,2.236584 1.767767,1.767767 2.236584,1.29895 2.5,0.663008 2.5,0 2.5,-0.663008 2.236584,-1.29895 1.767767,-1.767767 1.29895,-2.236584 0.663008,-2.5 0,-2.5 c -0.663008,0 -1.29895,0.263416 -1.767767,0.732233 C -2.236584,-1.29895 -2.5,-0.663008 -2.5,0 c 0,0.663008 0.263416,1.29895 0.732233,1.767767 C -1.29895,2.236584 -0.663008,2.5 0,2.5 Z"
         id="C6_0_a3cd11e5ef" />
    </defs>
    <defs
       id="defs463">
      <path
         d="m 329.0625,-118.60873 h -1.70571 l -0.20407,-0.96589 -0.22179,-0.96588 -0.24013,-0.96589 -0.25897,-0.96589 -0.27821,-0.96589 -0.2977,-0.96589 -0.31731,-0.96588 -0.33685,-0.96589 -0.35616,-0.96589 -0.37507,-0.96589 -0.39337,-0.96588 -0.41086,-0.96589 -0.42738,-0.96589 -0.44268,-0.96589 -0.45662,-0.96589 -0.46898,-0.96588 -0.47963,-0.96589 -0.48838,-0.96589 -0.49513,-0.96589 -0.49975,-0.96589 -0.50216,-0.96588 -0.5023,-0.96589 -0.50015,-0.96589 -0.49571,-0.96589 -0.489,-0.96588 -0.4801,-0.96589 -0.46909,-0.96589 -0.45608,-0.96589 -0.44124,-0.96588 -0.4247,-0.96589 -0.40667,-0.96589 -0.38732,-0.96589 -0.36687,-0.96589 -0.34553,-0.96588 -0.32349,-0.96589 -0.30095,-0.96589 -0.27812,-0.96589 -0.25514,-0.96588 -0.23219,-0.96589 -0.20939,-0.96589 -0.18685,-0.96589 -0.16464,-0.96589 -0.14282,-0.96588 -0.12142,-0.96589 -0.10042,-0.96589 -0.0798,-0.96589 -0.0595,-0.96588 -0.0395,-0.96589 -0.0197,-0.96589 v -0.96589 l 0.0197,-0.96589 0.0395,-0.96588 0.0595,-0.96589 0.0798,-0.96589 0.10042,-0.96589 0.12142,-0.96588 0.14282,-0.96589 0.16464,-0.96589 0.18685,-0.96589 0.20939,-0.96589 0.23219,-0.96588 0.25514,-0.96589 0.27812,-0.96589 0.30095,-0.96589 0.32349,-0.96588 0.34553,-0.96589 0.36687,-0.96589 0.38732,-0.96589 0.40667,-0.96589 0.4247,-0.96588 0.44124,-0.96589 0.45608,-0.96589 0.46909,-0.96589 0.4801,-0.96588 0.489,-0.96589 0.49571,-0.96589 0.50015,-0.96589 0.5023,-0.96589 0.50216,-0.96588 0.49975,-0.96589 0.49513,-0.96589 0.48838,-0.96589 0.47963,-0.96589 0.46898,-0.96588 0.45662,-0.96589 0.44268,-0.96589 0.42738,-0.96589 0.41086,-0.96588 0.39337,-0.96589 0.37507,-0.96589 0.35616,-0.96589 0.33685,-0.96589 0.31731,-0.96588 0.2977,-0.96589 0.27821,-0.96589 0.25897,-0.96589 0.24013,-0.96588 0.22179,-0.96589 0.20407,-0.96589 h 1.70571 v 0 0.96589 0.96589 0.96588 0.96589 0.96589 0.96589 0.96588 0.96589 0.96589 0.96589 0.96589 0.96588 0.96589 0.96589 0.96589 0.96588 0.96589 0.96589 0.96589 0.96589 0.96588 0.96589 0.96589 0.96589 0.96589 0.96588 0.96589 0.96589 0.96589 0.96588 0.96589 0.96589 0.96589 0.96589 0.96588 0.96589 0.96589 0.96589 0.96588 0.96589 0.96589 0.96589 0.96589 0.96588 0.96589 0.96589 0.96589 0.96588 0.96589 0.96589 0.96589 0.96589 0.96588 0.96589 0.96589 0.96589 0.96588 0.96589 0.96589 0.96589 0.96589 0.96588 0.96589 0.96589 0.96589 0.96588 0.96589 0.96589 0.96589 0.96589 0.96588 0.96589 0.96589 0.96589 0.96588 0.96589 0.96589 0.96589 0.96588 0.96589 0.96589 0.96589 0.96589 0.96588 0.96589 0.96589 0.96589 0.96589 0.96588 0.96589 0.96589 0.96589 0.96588 0.96589 0.96589 0.96589 0.96589 0.96588 z"
         id="mee24938244"
         style="stroke:#737373;stroke-width:3" />
    </defs>
    <defs
       id="defs749">
      <path
         d="M 0,2.5 C 0.663008,2.5 1.29895,2.236584 1.767767,1.767767 2.236584,1.29895 2.5,0.663008 2.5,0 2.5,-0.663008 2.236584,-1.29895 1.767767,-1.767767 1.29895,-2.236584 0.663008,-2.5 0,-2.5 c -0.663008,0 -1.29895,0.263416 -1.767767,0.732233 C -2.236584,-1.29895 -2.5,-0.663008 -2.5,0 c 0,0.663008 0.263416,1.29895 0.732233,1.767767 C -1.29895,2.236584 -0.663008,2.5 0,2.5 Z"
         id="C3_0_6f8ee928d0" />
    </defs>
    <defs
       id="defs455">
      <path
         d="m 225.62243,-81.273198 h -1.18493 v -1.401314 -1.401314 -1.401314 -1.401313 -1.401314 -1.401314 -1.401314 -1.401313 -1.401314 -1.401314 -1.401314 -1.401313 -1.401314 -1.401313 -1.40132 -1.40131 -1.40131 -1.40132 -1.40131 -1.40131 -1.40132 -1.40131 -1.40132 -1.40131 -1.40131 -1.40132 -1.40131 -1.40131 -1.40132 -1.40131 -1.40132 -1.40131 -1.40131 -1.40132 -1.40131 -1.40131 -1.40132 -1.40131 -1.40131 -1.40132 -1.40131 -1.40132 -1.40131 -1.40131 -1.40132 -1.40131 -1.40131 -1.40132 -1.40131 -1.40132 -1.40131 -1.40131 -1.40132 -1.40131 -1.40131 -1.40132 -1.40131 -1.40132 -1.40131 -1.40131 -1.40132 -1.40131 -1.40131 -1.40132 -1.40131 -1.40132 -1.40131 -1.40131 -1.40132 -1.40131 -1.40132 -1.40131 -1.40131 -1.40132 -1.40131 -1.40131 -1.40132 -1.40131 -1.40132 -1.40131 -1.40131 -1.40132 -1.40131 -1.40131 -1.40132 -1.40131 -1.40132 -1.40131 -1.40131 -1.40132 -1.40131 -1.40131 -1.40132 -1.40131 -1.40132 -1.40131 -1.40131 -1.40132 -1.40131 h 1.04706 v 0 l 0.25094,1.40131 0.29669,1.40132 0.34717,1.40131 0.40209,1.40131 0.46094,1.40132 0.52311,1.40131 0.58773,1.40132 0.65386,1.40131 0.72044,1.40131 0.78631,1.40132 0.85037,1.40131 0.91154,1.40131 0.96886,1.40132 1.02159,1.40131 1.06914,1.40132 1.11124,1.40131 1.14783,1.40131 1.17911,1.40132 1.20549,1.40131 1.22753,1.40131 1.24584,1.40132 1.26103,1.40131 1.2736,1.40132 1.28382,1.40131 1.29173,1.40131 1.297,1.40132 1.29898,1.40131 1.29666,1.40131 1.28878,1.40132 1.2738,1.40131 1.25019,1.40132 1.21636,1.40131 1.17095,1.40131 1.11288,1.40132 1.04156,1.40131 0.95688,1.40132 0.85936,1.40131 0.75012,1.40131 0.63087,1.40132 0.50383,1.40131 0.37167,1.40131 0.23729,1.40132 0.10374,1.40131 -0.0259,1.40132 -0.14887,1.40131 -0.2625,1.40131 -0.36465,1.40132 -0.45358,1.40131 -0.52807,1.40131 -0.58739,1.40132 -0.6313,1.40131 -0.66,1.40132 -0.67412,1.40131 -0.6746,1.40131 -0.66279,1.40132 -0.64023,1.40131 -0.60881,1.40131 -0.57057,1.40132 -0.52785,1.40131 -0.48307,1.40132 -0.43884,1.40131 -0.3978,1.40131 -0.3626,1.40132 -0.33571,1.40131 -0.31945,1.40131 -0.31571,1.40132 -0.32592,1.40131 -0.35094,1.40131 -0.39097,1.40132 -0.44548,1.40131 -0.5132,1.40132 -0.5922,1.40131 -0.67994,1.40131 -0.77334,1.40132 -0.86905,1.40131 -0.96348,1.40131 -1.05308,1.40132 -1.1345,1.40131 -1.20475,1.40132 -1.26131,1.40131 -1.30232,1.40131 -1.32651,1.40132 -1.33339,1.40131 -1.32313,1.40131 -1.29651,1.40132 -1.2549,1.401313 -1.20007,1.401314 -1.13421,1.401313 -1.05961,1.401314 -0.97873,1.401314 -0.89395,1.401314 -0.80754,1.401313 -0.72158,1.401314 -0.63786,1.401314 -0.55785,1.401314 -0.48275,1.401313 -0.41339,1.401314 -0.35033,1.401314 z"
         id="m9d83633975"
         style="stroke:#737373;stroke-width:3" />
    </defs>
    <defs
       id="defs557">
      <path
         d="M 0,2.5 C 0.663008,2.5 1.29895,2.236584 1.767767,1.767767 2.236584,1.29895 2.5,0.663008 2.5,0 2.5,-0.663008 2.236584,-1.29895 1.767767,-1.767767 1.29895,-2.236584 0.663008,-2.5 0,-2.5 c -0.663008,0 -1.29895,0.263416 -1.767767,0.732233 C -2.236584,-1.29895 -2.5,-0.663008 -2.5,0 c 0,0.663008 0.263416,1.29895 0.732233,1.767767 C -1.29895,2.236584 -0.663008,2.5 0,2.5 Z"
         id="C0_0_8c870dd965" />
    </defs>
  </defs>
  <path
     d="M 64.5,261 H 483 V 43.56 H 64.5 Z"
     style="fill:#ffffff"
     id="path9" />
  <g
     id="xtick_1"
     transform="translate(-3,9)">
    <g
       id="text_1">
      <!-- less than 5h in your life -->
      <defs
         id="defs27">
        <path
           d="M 9.421875,75.984375 H 18.40625 V 0 H 9.421875 Z"
           id="DejaVuSans-108" />
        <path
           d="m 56.203125,29.59375 v -4.390625 h -41.3125 q 0.59375,-9.28125 5.59375,-14.140625 5,-4.859375 13.9375,-4.859375 5.171875,0 10.03125,1.265625 4.859375,1.265625 9.65625,3.8125 v -8.5 q -4.84375,-2.046875 -9.921875,-3.125 -5.078125,-1.078125 -10.296875,-1.078125 -13.09375,0 -20.734375,7.609375 -7.640625,7.625 -7.640625,20.625 0,13.421875 7.25,21.296875 Q 20.015625,56 32.328125,56 q 11.03125,0 17.453125,-7.109375 6.421875,-7.09375 6.421875,-19.296875 z m -8.984375,2.640625 q -0.09375,7.359375 -4.125,11.75 -4.03125,4.40625 -10.671875,4.40625 -7.515625,0 -12.03125,-4.25 -4.515625,-4.25 -5.203125,-11.96875 z"
           id="DejaVuSans-101" />
        <path
           d="m 44.28125,53.078125 v -8.5 Q 40.484375,46.53125 36.375,47.5 q -4.09375,0.984375 -8.5,0.984375 -6.6875,0 -10.03125,-2.046875 Q 14.5,44.390625 14.5,40.28125 q 0,-3.125 2.390625,-4.90625 2.390625,-1.78125 9.625,-3.390625 l 3.078125,-0.6875 Q 39.15625,29.25 43.1875,25.515625 47.21875,21.78125 47.21875,15.09375 q 0,-7.625 -6.03125,-12.078125 -6.03125,-4.4375 -16.578125,-4.4375 -4.390625,0 -9.15625,0.859375 Q 10.6875,0.296875 5.421875,2 v 9.28125 q 4.984375,-2.59375 9.8125,-3.890625 4.828125,-1.28125 9.578125,-1.28125 6.34375,0 9.75,2.171875 3.421875,2.171875 3.421875,6.125 0,3.65625 -2.46875,5.609375 -2.453125,1.953125 -10.8125,3.765625 l -3.125,0.734375 q -8.34375,1.75 -12.0625,5.390625 -3.703125,3.640625 -3.703125,9.984375 0,7.71875 5.46875,11.90625 Q 16.75,56 26.8125,56 q 4.96875,0 9.359375,-0.734375 4.40625,-0.71875 8.109375,-2.1875 z"
           id="DejaVuSans-115" />
        <path
           id="DejaVuSans-32"
           d="" />
        <path
           d="M 18.3125,70.21875 V 54.6875 h 18.5 v -6.984375 h -18.5 v -29.6875 q 0,-6.6875 1.828125,-8.59375 1.828125,-1.90625 7.453125,-1.90625 H 36.8125 V 0 H 27.59375 Q 17.1875,0 13.234375,3.875 9.28125,7.765625 9.28125,18.015625 v 29.6875 H 2.6875 V 54.6875 h 6.59375 v 15.53125 z"
           id="DejaVuSans-116" />
        <path
           d="M 54.890625,33.015625 V 0 H 45.90625 v 32.71875 q 0,7.765625 -3.03125,11.609375 -3.03125,3.859375 -9.078125,3.859375 -7.28125,0 -11.484375,-4.640625 -4.203125,-4.625 -4.203125,-12.640625 V 0 h -9.03125 v 75.984375 h 9.03125 V 46.1875 q 3.234375,4.9375 7.59375,7.375 4.375,2.4375 10.09375,2.4375 9.421875,0 14.25,-5.828125 4.84375,-5.828125 4.84375,-17.15625 z"
           id="DejaVuSans-104" />
        <path
           d="m 34.28125,27.484375 q -10.890625,0 -15.09375,-2.484375 -4.203125,-2.484375 -4.203125,-8.5 0,-4.78125 3.15625,-7.59375 3.15625,-2.796875 8.5625,-2.796875 7.484375,0 12,5.296875 4.515625,5.296875 4.515625,14.078125 v 2 z m 17.921875,3.71875 V 0 H 43.21875 v 8.296875 q -3.078125,-4.96875 -7.671875,-7.34375 -4.59375,-2.375 -11.234375,-2.375 -8.390625,0 -13.359375,4.71875 Q 6,8.015625 6,15.921875 q 0,9.21875 6.171875,13.90625 6.1875,4.6875 18.4375,4.6875 H 43.21875 v 0.890625 q 0,6.203125 -4.078125,9.59375 -4.078125,3.390625 -11.453125,3.390625 -4.6875,0 -9.140625,-1.125 -4.4375,-1.125 -8.53125,-3.375 v 8.3125 q 4.921875,1.90625 9.5625,2.84375 Q 24.21875,56 28.609375,56 q 11.875,0 17.734375,-6.15625 5.859375,-6.140625 5.859375,-18.640625 z"
           id="DejaVuSans-97" />
        <path
           d="M 54.890625,33.015625 V 0 H 45.90625 v 32.71875 q 0,7.765625 -3.03125,11.609375 -3.03125,3.859375 -9.078125,3.859375 -7.28125,0 -11.484375,-4.640625 -4.203125,-4.625 -4.203125,-12.640625 V 0 h -9.03125 v 54.6875 h 9.03125 v -8.5 q 3.234375,4.9375 7.59375,7.375 4.375,2.4375 10.09375,2.4375 9.421875,0 14.25,-5.828125 4.84375,-5.828125 4.84375,-17.15625 z"
           id="DejaVuSans-110" />
        <path
           d="m 10.796875,72.90625 h 38.71875 v -8.3125 h -29.6875 V 46.734375 q 2.140625,0.734375 4.28125,1.09375 2.15625,0.359375 4.3125,0.359375 Q 40.625,48.1875 47.75,41.5 54.890625,34.8125 54.890625,23.390625 54.890625,11.625 47.5625,5.09375 40.234375,-1.421875 26.90625,-1.421875 q -4.59375,0 -9.359375,0.78125 -4.75,0.78125 -9.828125,2.34375 V 11.625 q 4.390625,-2.390625 9.078125,-3.5625 4.6875,-1.171875 9.90625,-1.171875 8.453125,0 13.375,4.4375 4.9375,4.4375 4.9375,12.0625 0,7.609375 -4.9375,12.046875 -4.921875,4.453125 -13.375,4.453125 -3.953125,0 -7.890625,-0.875 -3.921875,-0.875 -8.015625,-2.734375 z"
           id="DejaVuSans-53" />
        <path
           d="M 9.421875,54.6875 H 18.40625 V 0 H 9.421875 Z m 0,21.296875 H 18.40625 V 64.59375 H 9.421875 Z"
           id="DejaVuSans-105" />
        <path
           d="M 32.171875,-5.078125 Q 28.375,-14.84375 24.75,-17.8125 q -3.609375,-2.984375 -9.65625,-2.984375 h -7.1875 v 7.515625 h 5.28125 q 3.703125,0 5.75,1.765625 2.0625,1.75 4.546875,8.296875 L 25.09375,0.875 2.984375,54.6875 H 12.5 L 29.59375,11.921875 46.6875,54.6875 h 9.515625 z"
           id="DejaVuSans-121" />
        <path
           d="m 30.609375,48.390625 q -7.21875,0 -11.421875,-5.640625 -4.203125,-5.640625 -4.203125,-15.453125 0,-9.8125 4.171875,-15.453125 4.1875,-5.640625 11.453125,-5.640625 7.1875,0 11.375,5.65625 4.203125,5.671875 4.203125,15.4375 0,9.71875 -4.203125,15.40625 -4.1875,5.6875 -11.375,5.6875 z m 0,7.609375 q 11.71875,0 18.40625,-7.625 6.703125,-7.609375 6.703125,-21.078125 0,-13.421875 -6.703125,-21.078125 -6.6875,-7.640625 -18.40625,-7.640625 -11.765625,0 -18.4375,7.640625 -6.65625,7.65625 -6.65625,21.078125 0,13.46875 6.65625,21.078125 Q 18.84375,56 30.609375,56 Z"
           id="DejaVuSans-111" />
        <path
           d="M 8.5,21.578125 V 54.6875 h 8.984375 V 21.921875 q 0,-7.765625 3.015625,-11.65625 3.03125,-3.875 9.09375,-3.875 7.265625,0 11.484375,4.640625 4.234375,4.640625 4.234375,12.65625 v 31 h 8.984375 V 0 H 45.3125 V 8.40625 Q 42.046875,3.421875 37.71875,1 33.40625,-1.421875 27.6875,-1.421875 18.265625,-1.421875 13.375,4.4375 8.5,10.296875 8.5,21.578125 Z M 31.109375,56 Z"
           id="DejaVuSans-117" />
        <path
           d="m 41.109375,46.296875 q -1.515625,0.875 -3.296875,1.28125 Q 36.03125,48 33.890625,48 26.265625,48 22.1875,43.046875 18.109375,38.09375 18.109375,28.8125 V 0 h -9.03125 v 54.6875 h 9.03125 v -8.5 q 2.84375,4.984375 7.375,7.390625 Q 30.03125,56 36.53125,56 q 0.921875,0 2.046875,-0.125 1.125,-0.109375 2.484375,-0.359375 z"
           id="DejaVuSans-114" />
        <path
           d="M 37.109375,75.984375 V 68.5 h -8.59375 q -4.828125,0 -6.71875,-1.953125 -1.875,-1.953125 -1.875,-7.03125 V 54.6875 H 34.71875 V 47.703125 H 19.921875 V 0 h -9.03125 V 47.703125 H 2.296875 V 54.6875 h 8.59375 V 58.5 q 0,9.125 4.25,13.296875 4.25,4.1875 13.46875,4.1875 z"
           id="DejaVuSans-102" />
      </defs>
      <g
         style="fill:#262626"
         transform="matrix(0.14875258,-0.03985813,-0.03985813,-0.14875258,33.523683,325.63431)"
         id="g79">
        <use
           xlink:href="#DejaVuSans-108"
           id="use29"
           x="0"
           y="0"
           width="100%"
           height="100%" />
        <use
           x="27.783203"
           xlink:href="#DejaVuSans-101"
           id="use31"
           y="0"
           width="100%"
           height="100%" />
        <use
           x="89.306641"
           xlink:href="#DejaVuSans-115"
           id="use33"
           y="0"
           width="100%"
           height="100%" />
        <use
           x="141.40625"
           xlink:href="#DejaVuSans-115"
           id="use35"
           y="0"
           width="100%"
           height="100%" />
        <use
           x="193.50586"
           xlink:href="#DejaVuSans-32"
           id="use37"
           y="0"
           width="100%"
           height="100%" />
        <use
           x="225.29297"
           xlink:href="#DejaVuSans-116"
           id="use39"
           y="0"
           width="100%"
           height="100%" />
        <use
           x="264.50195"
           xlink:href="#DejaVuSans-104"
           id="use41"
           y="0"
           width="100%"
           height="100%" />
        <use
           x="327.88086"
           xlink:href="#DejaVuSans-97"
           id="use43"
           y="0"
           width="100%"
           height="100%" />
        <use
           x="389.16016"
           xlink:href="#DejaVuSans-110"
           id="use45"
           y="0"
           width="100%"
           height="100%" />
        <use
           x="452.53906"
           xlink:href="#DejaVuSans-32"
           id="use47"
           y="0"
           width="100%"
           height="100%" />
        <use
           x="484.32617"
           xlink:href="#DejaVuSans-53"
           id="use49"
           y="0"
           width="100%"
           height="100%" />
        <use
           x="547.94922"
           xlink:href="#DejaVuSans-104"
           id="use51"
           y="0"
           width="100%"
           height="100%" />
        <use
           x="611.32812"
           xlink:href="#DejaVuSans-32"
           id="use53"
           y="0"
           width="100%"
           height="100%" />
        <use
           x="643.11523"
           xlink:href="#DejaVuSans-105"
           id="use55"
           y="0"
           width="100%"
           height="100%" />
        <use
           x="670.89844"
           xlink:href="#DejaVuSans-110"
           id="use57"
           y="0"
           width="100%"
           height="100%" />
        <use
           x="734.27734"
           xlink:href="#DejaVuSans-32"
           id="use59"
           y="0"
           width="100%"
           height="100%" />
        <use
           x="766.06445"
           xlink:href="#DejaVuSans-121"
           id="use61"
           y="0"
           width="100%"
           height="100%" />
        <use
           x="825.24414"
           xlink:href="#DejaVuSans-111"
           id="use63"
           y="0"
           width="100%"
           height="100%" />
        <use
           x="886.42578"
           xlink:href="#DejaVuSans-117"
           id="use65"
           y="0"
           width="100%"
           height="100%" />
        <use
           x="949.80469"
           xlink:href="#DejaVuSans-114"
           id="use67"
           y="0"
           width="100%"
           height="100%" />
        <use
           x="990.91797"
           xlink:href="#DejaVuSans-32"
           id="use69"
           y="0"
           width="100%"
           height="100%" />
        <use
           x="1022.7051"
           xlink:href="#DejaVuSans-108"
           id="use71"
           y="0"
           width="100%"
           height="100%" />
        <use
           x="1050.4883"
           xlink:href="#DejaVuSans-105"
           id="use73"
           y="0"
           width="100%"
           height="100%" />
        <use
           x="1078.2715"
           xlink:href="#DejaVuSans-102"
           id="use75"
           y="0"
           width="100%"
           height="100%" />
        <use
           x="1113.4766"
           xlink:href="#DejaVuSans-101"
           id="use77"
           y="0"
           width="100%"
           height="100%" />
      </g>
    </g>
  </g>
  <g
     id="xtick_2"
     transform="translate(-3,9)">
    <g
       id="text_2">
      <!-- less than 1h in your life -->
      <defs
         id="defs84">
        <path
           d="m 12.40625,8.296875 h 16.109375 v 55.625 L 10.984375,60.40625 v 8.984375 l 17.4375,3.515625 H 38.28125 V 8.296875 H 54.390625 V 0 H 12.40625 Z"
           id="DejaVuSans-49" />
      </defs>
      <g
         style="fill:#262626"
         transform="matrix(0.14875258,-0.03985813,-0.03985813,-0.14875258,138.14868,325.63431)"
         id="g136">
        <use
           xlink:href="#DejaVuSans-108"
           id="use86"
           x="0"
           y="0"
           width="100%"
           height="100%" />
        <use
           x="27.783203"
           xlink:href="#DejaVuSans-101"
           id="use88"
           y="0"
           width="100%"
           height="100%" />
        <use
           x="89.306641"
           xlink:href="#DejaVuSans-115"
           id="use90"
           y="0"
           width="100%"
           height="100%" />
        <use
           x="141.40625"
           xlink:href="#DejaVuSans-115"
           id="use92"
           y="0"
           width="100%"
           height="100%" />
        <use
           x="193.50586"
           xlink:href="#DejaVuSans-32"
           id="use94"
           y="0"
           width="100%"
           height="100%" />
        <use
           x="225.29297"
           xlink:href="#DejaVuSans-116"
           id="use96"
           y="0"
           width="100%"
           height="100%" />
        <use
           x="264.50195"
           xlink:href="#DejaVuSans-104"
           id="use98"
           y="0"
           width="100%"
           height="100%" />
        <use
           x="327.88086"
           xlink:href="#DejaVuSans-97"
           id="use100"
           y="0"
           width="100%"
           height="100%" />
        <use
           x="389.16016"
           xlink:href="#DejaVuSans-110"
           id="use102"
           y="0"
           width="100%"
           height="100%" />
        <use
           x="452.53906"
           xlink:href="#DejaVuSans-32"
           id="use104"
           y="0"
           width="100%"
           height="100%" />
        <use
           x="484.32617"
           xlink:href="#DejaVuSans-49"
           id="use106"
           y="0"
           width="100%"
           height="100%" />
        <use
           x="547.94922"
           xlink:href="#DejaVuSans-104"
           id="use108"
           y="0"
           width="100%"
           height="100%" />
        <use
           x="611.32812"
           xlink:href="#DejaVuSans-32"
           id="use110"
           y="0"
           width="100%"
           height="100%" />
        <use
           x="643.11523"
           xlink:href="#DejaVuSans-105"
           id="use112"
           y="0"
           width="100%"
           height="100%" />
        <use
           x="670.89844"
           xlink:href="#DejaVuSans-110"
           id="use114"
           y="0"
           width="100%"
           height="100%" />
        <use
           x="734.27734"
           xlink:href="#DejaVuSans-32"
           id="use116"
           y="0"
           width="100%"
           height="100%" />
        <use
           x="766.06445"
           xlink:href="#DejaVuSans-121"
           id="use118"
           y="0"
           width="100%"
           height="100%" />
        <use
           x="825.24414"
           xlink:href="#DejaVuSans-111"
           id="use120"
           y="0"
           width="100%"
           height="100%" />
        <use
           x="886.42578"
           xlink:href="#DejaVuSans-117"
           id="use122"
           y="0"
           width="100%"
           height="100%" />
        <use
           x="949.80469"
           xlink:href="#DejaVuSans-114"
           id="use124"
           y="0"
           width="100%"
           height="100%" />
        <use
           x="990.91797"
           xlink:href="#DejaVuSans-32"
           id="use126"
           y="0"
           width="100%"
           height="100%" />
        <use
           x="1022.7051"
           xlink:href="#DejaVuSans-108"
           id="use128"
           y="0"
           width="100%"
           height="100%" />
        <use
           x="1050.4883"
           xlink:href="#DejaVuSans-105"
           id="use130"
           y="0"
           width="100%"
           height="100%" />
        <use
           x="1078.2715"
           xlink:href="#DejaVuSans-102"
           id="use132"
           y="0"
           width="100%"
           height="100%" />
        <use
           x="1113.4766"
           xlink:href="#DejaVuSans-101"
           id="use134"
           y="0"
           width="100%"
           height="100%" />
      </g>
    </g>
  </g>
  <g
     id="xtick_3"
     transform="translate(-3,9)">
    <g
       id="text_3">
      <!-- less than 3h per month -->
      <defs
         id="defs143">
        <path
           d="M 40.578125,39.3125 Q 47.65625,37.796875 51.625,33 q 3.984375,-4.78125 3.984375,-11.8125 0,-10.78125 -7.421875,-16.703125 -7.421875,-5.90625 -21.09375,-5.90625 -4.578125,0 -9.4375,0.90625 -4.859375,0.90625 -10.03125,2.71875 v 9.515625 q 4.09375,-2.390625 8.96875,-3.609375 4.890625,-1.21875 10.21875,-1.21875 9.265625,0 14.125,3.65625 4.859375,3.65625 4.859375,10.640625 0,6.453125 -4.515625,10.078125 -4.515625,3.640625 -12.5625,3.640625 h -8.5 v 8.109375 h 8.890625 q 7.265625,0 11.125,2.90625 3.859375,2.90625 3.859375,8.375 0,5.609375 -3.984375,8.609375 -3.96875,3.015625 -11.390625,3.015625 -4.0625,0 -8.703125,-0.890625 Q 15.375,64.15625 9.8125,62.3125 v 8.78125 q 5.625,1.5625 10.53125,2.34375 4.90625,0.78125 9.25,0.78125 11.234375,0 17.765625,-5.109375 6.546875,-5.09375 6.546875,-13.78125 0,-6.0625 -3.46875,-10.234375 -3.46875,-4.171875 -9.859375,-5.78125 z"
           id="DejaVuSans-51" />
        <path
           d="m 18.109375,8.203125 v -29 H 9.078125 V 54.6875 h 9.03125 v -8.296875 q 2.84375,4.875 7.15625,7.234375 Q 29.59375,56 35.59375,56 q 9.96875,0 16.1875,-7.90625 6.234375,-7.90625 6.234375,-20.796875 0,-12.890625 -6.234375,-20.8125 -6.21875,-7.90625 -16.1875,-7.90625 -6,0 -10.328125,2.375 -4.3125,2.375 -7.15625,7.25 z M 48.6875,27.296875 q 0,9.90625 -4.078125,15.546875 -4.078125,5.640625 -11.203125,5.640625 -7.140625,0 -11.21875,-5.640625 -4.078125,-5.640625 -4.078125,-15.546875 0,-9.90625 4.078125,-15.546875 4.078125,-5.640625 11.21875,-5.640625 7.125,0 11.203125,5.640625 4.078125,5.640625 4.078125,15.546875 z"
           id="DejaVuSans-112" />
        <path
           d="M 52,44.1875 Q 55.375,50.25 60.0625,53.125 64.75,56 71.09375,56 q 8.546875,0 13.1875,-5.984375 4.640625,-5.96875 4.640625,-17 V 0 h -9.03125 v 32.71875 q 0,7.859375 -2.796875,11.65625 -2.78125,3.8125 -8.484375,3.8125 -6.984375,0 -11.046875,-4.640625 -4.046875,-4.625 -4.046875,-12.640625 V 0 h -9.03125 v 32.71875 q 0,7.90625 -2.78125,11.6875 -2.78125,3.78125 -8.59375,3.78125 -6.890625,0 -10.953125,-4.65625 -4.046875,-4.65625 -4.046875,-12.625 V 0 h -9.03125 v 54.6875 h 9.03125 v -8.5 q 3.078125,5.03125 7.375,7.421875 Q 29.78125,56 35.6875,56 41.65625,56 45.828125,52.96875 50,49.953125 52,44.1875 Z"
           id="DejaVuSans-109" />
      </defs>
      <g
         style="fill:#262626"
         transform="matrix(0.14875258,-0.03985813,-0.03985813,-0.14875258,243.47445,325.25877)"
         id="g189">
        <use
           xlink:href="#DejaVuSans-108"
           id="use145"
           x="0"
           y="0"
           width="100%"
           height="100%" />
        <use
           x="27.783203"
           xlink:href="#DejaVuSans-101"
           id="use147"
           y="0"
           width="100%"
           height="100%" />
        <use
           x="89.306641"
           xlink:href="#DejaVuSans-115"
           id="use149"
           y="0"
           width="100%"
           height="100%" />
        <use
           x="141.40625"
           xlink:href="#DejaVuSans-115"
           id="use151"
           y="0"
           width="100%"
           height="100%" />
        <use
           x="193.50586"
           xlink:href="#DejaVuSans-32"
           id="use153"
           y="0"
           width="100%"
           height="100%" />
        <use
           x="225.29297"
           xlink:href="#DejaVuSans-116"
           id="use155"
           y="0"
           width="100%"
           height="100%" />
        <use
           x="264.50195"
           xlink:href="#DejaVuSans-104"
           id="use157"
           y="0"
           width="100%"
           height="100%" />
        <use
           x="327.88086"
           xlink:href="#DejaVuSans-97"
           id="use159"
           y="0"
           width="100%"
           height="100%" />
        <use
           x="389.16016"
           xlink:href="#DejaVuSans-110"
           id="use161"
           y="0"
           width="100%"
           height="100%" />
        <use
           x="452.53906"
           xlink:href="#DejaVuSans-32"
           id="use163"
           y="0"
           width="100%"
           height="100%" />
        <use
           x="484.32617"
           xlink:href="#DejaVuSans-51"
           id="use165"
           y="0"
           width="100%"
           height="100%" />
        <use
           x="547.94922"
           xlink:href="#DejaVuSans-104"
           id="use167"
           y="0"
           width="100%"
           height="100%" />
        <use
           x="611.32812"
           xlink:href="#DejaVuSans-32"
           id="use169"
           y="0"
           width="100%"
           height="100%" />
        <use
           x="643.11523"
           xlink:href="#DejaVuSans-112"
           id="use171"
           y="0"
           width="100%"
           height="100%" />
        <use
           x="706.5918"
           xlink:href="#DejaVuSans-101"
           id="use173"
           y="0"
           width="100%"
           height="100%" />
        <use
           x="768.11523"
           xlink:href="#DejaVuSans-114"
           id="use175"
           y="0"
           width="100%"
           height="100%" />
        <use
           x="809.22852"
           xlink:href="#DejaVuSans-32"
           id="use177"
           y="0"
           width="100%"
           height="100%" />
        <use
           x="841.01562"
           xlink:href="#DejaVuSans-109"
           id="use179"
           y="0"
           width="100%"
           height="100%" />
        <use
           x="938.42773"
           xlink:href="#DejaVuSans-111"
           id="use181"
           y="0"
           width="100%"
           height="100%" />
        <use
           x="999.60938"
           xlink:href="#DejaVuSans-110"
           id="use183"
           y="0"
           width="100%"
           height="100%" />
        <use
           x="1062.9883"
           xlink:href="#DejaVuSans-116"
           id="use185"
           y="0"
           width="100%"
           height="100%" />
        <use
           x="1102.1973"
           xlink:href="#DejaVuSans-104"
           id="use187"
           y="0"
           width="100%"
           height="100%" />
      </g>
    </g>
  </g>
  <g
     id="xtick_4"
     transform="translate(-3,9)">
    <g
       id="text_4">
      <!-- less than 6h per week -->
      <defs
         id="defs196">
        <path
           d="m 33.015625,40.375 q -6.640625,0 -10.53125,-4.546875 -3.875,-4.53125 -3.875,-12.4375 0,-7.859375 3.875,-12.4375 3.890625,-4.5625 10.53125,-4.5625 6.640625,0 10.515625,4.5625 3.875,4.578125 3.875,12.4375 0,7.90625 -3.875,12.4375 Q 39.65625,40.375 33.015625,40.375 Z M 52.59375,71.296875 V 62.3125 q -3.71875,1.75 -7.5,2.671875 -3.78125,0.9375 -7.5,0.9375 -9.765625,0 -14.921875,-6.59375 -5.140625,-6.59375 -5.875,-19.921875 2.875,4.25 7.21875,6.515625 4.359375,2.265625 9.578125,2.265625 10.984375,0 17.359375,-6.671875 6.375,-6.65625 6.375,-18.125 0,-11.234375 -6.640625,-18.03125 -6.640625,-6.78125 -17.671875,-6.78125 -12.65625,0 -19.34375,9.6875 -6.6875,9.703125 -6.6875,28.109375 0,17.28125 8.203125,27.5625 8.203125,10.28125 22.015625,10.28125 3.71875,0 7.5,-0.734375 3.78125,-0.734375 7.890625,-2.1875 z"
           id="DejaVuSans-54" />
        <path
           d="M 4.203125,54.6875 H 13.1875 L 24.421875,12.015625 35.59375,54.6875 H 46.1875 L 57.421875,12.015625 68.609375,54.6875 H 77.59375 L 63.28125,0 H 52.6875 L 40.921875,44.828125 29.109375,0 H 18.5 Z"
           id="DejaVuSans-119" />
        <path
           d="m 9.078125,75.984375 h 9.03125 v -44.875 l 26.8125,23.578125 h 11.46875 l -29,-25.578125 L 57.625,0 H 45.90625 L 18.109375,26.703125 V 0 h -9.03125 z"
           id="DejaVuSans-107" />
      </defs>
      <g
         style="fill:#262626"
         transform="matrix(0.14875258,-0.03985813,-0.03985813,-0.14875258,352.69567,322.79566)"
         id="g240">
        <use
           xlink:href="#DejaVuSans-108"
           id="use198"
           x="0"
           y="0"
           width="100%"
           height="100%" />
        <use
           x="27.783203"
           xlink:href="#DejaVuSans-101"
           id="use200"
           y="0"
           width="100%"
           height="100%" />
        <use
           x="89.306641"
           xlink:href="#DejaVuSans-115"
           id="use202"
           y="0"
           width="100%"
           height="100%" />
        <use
           x="141.40625"
           xlink:href="#DejaVuSans-115"
           id="use204"
           y="0"
           width="100%"
           height="100%" />
        <use
           x="193.50586"
           xlink:href="#DejaVuSans-32"
           id="use206"
           y="0"
           width="100%"
           height="100%" />
        <use
           x="225.29297"
           xlink:href="#DejaVuSans-116"
           id="use208"
           y="0"
           width="100%"
           height="100%" />
        <use
           x="264.50195"
           xlink:href="#DejaVuSans-104"
           id="use210"
           y="0"
           width="100%"
           height="100%" />
        <use
           x="327.88086"
           xlink:href="#DejaVuSans-97"
           id="use212"
           y="0"
           width="100%"
           height="100%" />
        <use
           x="389.16016"
           xlink:href="#DejaVuSans-110"
           id="use214"
           y="0"
           width="100%"
           height="100%" />
        <use
           x="452.53906"
           xlink:href="#DejaVuSans-32"
           id="use216"
           y="0"
           width="100%"
           height="100%" />
        <use
           x="484.32617"
           xlink:href="#DejaVuSans-54"
           id="use218"
           y="0"
           width="100%"
           height="100%" />
        <use
           x="547.94922"
           xlink:href="#DejaVuSans-104"
           id="use220"
           y="0"
           width="100%"
           height="100%" />
        <use
           x="611.32812"
           xlink:href="#DejaVuSans-32"
           id="use222"
           y="0"
           width="100%"
           height="100%" />
        <use
           x="643.11523"
           xlink:href="#DejaVuSans-112"
           id="use224"
           y="0"
           width="100%"
           height="100%" />
        <use
           x="706.5918"
           xlink:href="#DejaVuSans-101"
           id="use226"
           y="0"
           width="100%"
           height="100%" />
        <use
           x="768.11523"
           xlink:href="#DejaVuSans-114"
           id="use228"
           y="0"
           width="100%"
           height="100%" />
        <use
           x="809.22852"
           xlink:href="#DejaVuSans-32"
           id="use230"
           y="0"
           width="100%"
           height="100%" />
        <use
           x="841.01562"
           xlink:href="#DejaVuSans-119"
           id="use232"
           y="0"
           width="100%"
           height="100%" />
        <use
           x="922.80273"
           xlink:href="#DejaVuSans-101"
           id="use234"
           y="0"
           width="100%"
           height="100%" />
        <use
           x="984.32617"
           xlink:href="#DejaVuSans-101"
           id="use236"
           y="0"
           width="100%"
           height="100%" />
        <use
           x="1045.8496"
           xlink:href="#DejaVuSans-107"
           id="use238"
           y="0"
           width="100%"
           height="100%" />
      </g>
    </g>
  </g>
  <g
     id="text_5"
     transform="translate(-3,9)">
    <!-- Time already spent in VR -->
    <defs
       id="defs248">
      <path
         d="M -0.296875,72.90625 H 61.375 v -8.3125 H 35.5 V 0 H 25.59375 V 64.59375 H -0.296875 Z"
         id="DejaVuSans-84" />
      <path
         d="m 45.40625,46.390625 v 29.59375 h 8.984375 V 0 H 45.40625 v 8.203125 q -2.828125,-4.875 -7.15625,-7.25 -4.3125,-2.375 -10.375,-2.375 -9.90625,0 -16.140625,7.90625 -6.21875,7.921875 -6.21875,20.8125 0,12.890625 6.21875,20.796875 Q 17.96875,56 27.875,56 q 6.0625,0 10.375,-2.375 4.328125,-2.359375 7.15625,-7.234375 z M 14.796875,27.296875 q 0,-9.90625 4.078125,-15.546875 4.078125,-5.640625 11.203125,-5.640625 7.125,0 11.21875,5.640625 4.109375,5.640625 4.109375,15.546875 0,9.90625 -4.109375,15.546875 -4.09375,5.640625 -11.21875,5.640625 -7.125,0 -11.203125,-5.640625 -4.078125,-5.640625 -4.078125,-15.546875 z"
         id="DejaVuSans-100" />
      <path
         d="M 28.609375,0 0.78125,72.90625 h 10.296875 l 23.109375,-61.375 23.140625,61.375 h 10.25 L 39.796875,0 Z"
         id="DejaVuSans-86" />
      <path
         d="m 44.390625,34.1875 q 3.171875,-1.078125 6.171875,-4.59375 3,-3.515625 6.03125,-9.671875 L 66.609375,0 H 56 l -9.3125,18.703125 q -3.625,7.328125 -7.015625,9.71875 -3.390625,2.390625 -9.25,2.390625 h -10.75 V 0 H 9.8125 v 72.90625 h 22.265625 q 12.5,0 18.65625,-5.234375 6.15625,-5.21875 6.15625,-15.765625 0,-6.890625 -3.203125,-11.4375 -3.203125,-4.53125 -9.296875,-6.28125 z m -24.71875,30.609375 v -25.875 h 12.40625 q 7.125,0 10.765625,3.296875 3.640625,3.296875 3.640625,9.6875 0,6.390625 -3.640625,9.640625 -3.640625,3.25 -10.765625,3.25 z"
         id="DejaVuSans-82" />
    </defs>
    <g
       style="fill:#262626"
       transform="matrix(0.168,0,0,-0.168,171.41925,345.49327)"
       id="g298">
      <use
         xlink:href="#DejaVuSans-84"
         id="use250"
         x="0"
         y="0"
         width="100%"
         height="100%" />
      <use
         x="57.958984"
         xlink:href="#DejaVuSans-105"
         id="use252"
         y="0"
         width="100%"
         height="100%" />
      <use
         x="85.742188"
         xlink:href="#DejaVuSans-109"
         id="use254"
         y="0"
         width="100%"
         height="100%" />
      <use
         x="183.1543"
         xlink:href="#DejaVuSans-101"
         id="use256"
         y="0"
         width="100%"
         height="100%" />
      <use
         x="244.67773"
         xlink:href="#DejaVuSans-32"
         id="use258"
         y="0"
         width="100%"
         height="100%" />
      <use
         x="276.46484"
         xlink:href="#DejaVuSans-97"
         id="use260"
         y="0"
         width="100%"
         height="100%" />
      <use
         x="337.74414"
         xlink:href="#DejaVuSans-108"
         id="use262"
         y="0"
         width="100%"
         height="100%" />
      <use
         x="365.52734"
         xlink:href="#DejaVuSans-114"
         id="use264"
         y="0"
         width="100%"
         height="100%" />
      <use
         x="404.39062"
         xlink:href="#DejaVuSans-101"
         id="use266"
         y="0"
         width="100%"
         height="100%" />
      <use
         x="465.91406"
         xlink:href="#DejaVuSans-97"
         id="use268"
         y="0"
         width="100%"
         height="100%" />
      <use
         x="527.19336"
         xlink:href="#DejaVuSans-100"
         id="use270"
         y="0"
         width="100%"
         height="100%" />
      <use
         x="590.66992"
         xlink:href="#DejaVuSans-121"
         id="use272"
         y="0"
         width="100%"
         height="100%" />
      <use
         x="649.84961"
         xlink:href="#DejaVuSans-32"
         id="use274"
         y="0"
         width="100%"
         height="100%" />
      <use
         x="681.63672"
         xlink:href="#DejaVuSans-115"
         id="use276"
         y="0"
         width="100%"
         height="100%" />
      <use
         x="733.73633"
         xlink:href="#DejaVuSans-112"
         id="use278"
         y="0"
         width="100%"
         height="100%" />
      <use
         x="797.21289"
         xlink:href="#DejaVuSans-101"
         id="use280"
         y="0"
         width="100%"
         height="100%" />
      <use
         x="858.73633"
         xlink:href="#DejaVuSans-110"
         id="use282"
         y="0"
         width="100%"
         height="100%" />
      <use
         x="922.11523"
         xlink:href="#DejaVuSans-116"
         id="use284"
         y="0"
         width="100%"
         height="100%" />
      <use
         x="961.32422"
         xlink:href="#DejaVuSans-32"
         id="use286"
         y="0"
         width="100%"
         height="100%" />
      <use
         x="993.11133"
         xlink:href="#DejaVuSans-105"
         id="use288"
         y="0"
         width="100%"
         height="100%" />
      <use
         x="1020.8945"
         xlink:href="#DejaVuSans-110"
         id="use290"
         y="0"
         width="100%"
         height="100%" />
      <use
         x="1084.2734"
         xlink:href="#DejaVuSans-32"
         id="use292"
         y="0"
         width="100%"
         height="100%" />
      <use
         x="1116.0605"
         xlink:href="#DejaVuSans-86"
         id="use294"
         y="0"
         width="100%"
         height="100%" />
      <use
         x="1184.4688"
         xlink:href="#DejaVuSans-82"
         id="use296"
         y="0"
         width="100%"
         height="100%" />
    </g>
  </g>
  <g
     id="line2d_1"
     transform="translate(-3,9)">
    <path
       clip-path="url(#p37ddee0762)"
       d="M 67.5,249.01903 H 486"
       style="fill:none;stroke:#cccccc;stroke-width:2;stroke-linecap:round"
       id="path302" />
  </g>
  <g
     id="text_6"
     transform="translate(7.5,9)">
    <!-- 0.2 -->
    <defs
       id="defs309">
      <path
         d="M 10.59375,35.5 H 73.1875 V 27.203125 H 10.59375 Z"
         id="DejaVuSans-8722" />
      <path
         d="m 31.78125,66.40625 q -7.609375,0 -11.453125,-7.5 Q 16.5,51.421875 16.5,36.375 q 0,-14.984375 3.828125,-22.484375 3.84375,-7.5 11.453125,-7.5 7.671875,0 11.5,7.5 3.84375,7.5 3.84375,22.484375 0,15.046875 -3.84375,22.53125 -3.828125,7.5 -11.5,7.5 z m 0,7.8125 q 12.265625,0 18.734375,-9.703125 6.46875,-9.6875 6.46875,-28.140625 0,-18.40625 -6.46875,-28.109375 -6.46875,-9.6875 -18.734375,-9.6875 -12.25,0 -18.71875,9.6875 Q 6.59375,17.96875 6.59375,36.375 q 0,18.453125 6.46875,28.140625 6.46875,9.703125 18.71875,9.703125 z"
         id="DejaVuSans-48" />
      <path
         d="M 10.6875,12.40625 H 21 V 0 H 10.6875 Z"
         id="DejaVuSans-46" />
      <path
         d="M 19.1875,8.296875 H 53.609375 V 0 H 7.328125 v 8.296875 q 5.609375,5.8125 15.296875,15.59375 9.703125,9.796875 12.1875,12.640625 4.734375,5.3125 6.609375,9 1.890625,3.6875 1.890625,7.25 0,5.8125 -4.078125,9.46875 -4.078125,3.671875 -10.625,3.671875 -4.640625,0 -9.796875,-1.609375 -5.140625,-1.609375 -11,-4.890625 v 9.96875 Q 13.765625,71.78125 18.9375,73 q 5.1875,1.21875 9.484375,1.21875 11.328125,0 18.0625,-5.671875 6.734375,-5.65625 6.734375,-15.125 0,-4.5 -1.6875,-8.53125 Q 49.859375,40.875 45.40625,35.40625 44.1875,33.984375 37.640625,27.21875 31.109375,20.453125 19.1875,8.296875 Z"
         id="DejaVuSans-50" />
    </defs>
    <g
       style="fill:#262626"
       transform="matrix(0.154,0,0,-0.154,14.604469,254.86983)"
       id="g319">
      <use
         xlink:href="#DejaVuSans-8722"
         id="use311"
         x="0"
         y="0"
         width="100%"
         height="100%" />
      <use
         x="83.789062"
         xlink:href="#DejaVuSans-48"
         id="use313"
         y="0"
         width="100%"
         height="100%" />
      <use
         x="147.41211"
         xlink:href="#DejaVuSans-46"
         id="use315"
         y="0"
         width="100%"
         height="100%" />
      <use
         x="179.19922"
         xlink:href="#DejaVuSans-50"
         id="use317"
         y="0"
         width="100%"
         height="100%" />
    </g>
  </g>
  <g
     id="line2d_2"
     transform="translate(-3,9)">
    <path
       clip-path="url(#p37ddee0762)"
       d="M 67.5,210.35327 H 486"
       style="fill:none;stroke:#cccccc;stroke-width:2;stroke-linecap:round"
       id="path323" />
  </g>
  <g
     id="text_7"
     transform="translate(7.5,9)">
    <!-- 0.0 -->
    <g
       style="fill:#262626"
       transform="matrix(0.154,0,0,-0.154,27.509187,216.20406)"
       id="g332">
      <use
         xlink:href="#DejaVuSans-48"
         id="use326"
         x="0"
         y="0"
         width="100%"
         height="100%" />
      <use
         x="63.623047"
         xlink:href="#DejaVuSans-46"
         id="use328"
         y="0"
         width="100%"
         height="100%" />
      <use
         x="95.410156"
         xlink:href="#DejaVuSans-48"
         id="use330"
         y="0"
         width="100%"
         height="100%" />
    </g>
  </g>
  <g
     id="line2d_3"
     transform="translate(-3,9)">
    <path
       clip-path="url(#p37ddee0762)"
       d="M 67.5,171.6875 H 486"
       style="fill:none;stroke:#cccccc;stroke-width:2;stroke-linecap:round"
       id="path336" />
  </g>
  <g
     id="text_8"
     transform="translate(7.5,9)">
    <!-- 0.2 -->
    <g
       style="fill:#262626"
       transform="matrix(0.154,0,0,-0.154,27.509187,177.5383)"
       id="g345">
      <use
         xlink:href="#DejaVuSans-48"
         id="use339"
         x="0"
         y="0"
         width="100%"
         height="100%" />
      <use
         x="63.623047"
         xlink:href="#DejaVuSans-46"
         id="use341"
         y="0"
         width="100%"
         height="100%" />
      <use
         x="95.410156"
         xlink:href="#DejaVuSans-50"
         id="use343"
         y="0"
         width="100%"
         height="100%" />
    </g>
  </g>
  <g
     id="line2d_4"
     transform="translate(-3,9)">
    <path
       clip-path="url(#p37ddee0762)"
       d="M 67.5,133.02174 H 486"
       style="fill:none;stroke:#cccccc;stroke-width:2;stroke-linecap:round"
       id="path349" />
  </g>
  <g
     id="text_9"
     transform="translate(7.5,9)">
    <!-- 0.4 -->
    <defs
       id="defs353">
      <path
         d="M 37.796875,64.3125 12.890625,25.390625 h 24.90625 z m -2.59375,8.59375 h 12.40625 V 25.390625 h 10.40625 V 17.1875 H 47.609375 V 0 h -9.8125 V 17.1875 H 4.890625 v 9.515625 z"
         id="DejaVuSans-52" />
    </defs>
    <g
       style="fill:#262626"
       transform="matrix(0.154,0,0,-0.154,27.509187,138.87253)"
       id="g361">
      <use
         xlink:href="#DejaVuSans-48"
         id="use355"
         x="0"
         y="0"
         width="100%"
         height="100%" />
      <use
         x="63.623047"
         xlink:href="#DejaVuSans-46"
         id="use357"
         y="0"
         width="100%"
         height="100%" />
      <use
         x="95.410156"
         xlink:href="#DejaVuSans-52"
         id="use359"
         y="0"
         width="100%"
         height="100%" />
    </g>
  </g>
  <g
     id="line2d_5"
     transform="translate(-3,9)">
    <path
       clip-path="url(#p37ddee0762)"
       d="M 67.5,94.35597 H 486"
       style="fill:none;stroke:#cccccc;stroke-width:2;stroke-linecap:round"
       id="path365" />
  </g>
  <g
     id="text_10"
     transform="translate(7.5,9)">
    <!-- 0.6 -->
    <g
       style="fill:#262626"
       transform="matrix(0.154,0,0,-0.154,27.509187,100.20677)"
       id="g374">
      <use
         xlink:href="#DejaVuSans-48"
         id="use368"
         x="0"
         y="0"
         width="100%"
         height="100%" />
      <use
         x="63.623047"
         xlink:href="#DejaVuSans-46"
         id="use370"
         y="0"
         width="100%"
         height="100%" />
      <use
         x="95.410156"
         xlink:href="#DejaVuSans-54"
         id="use372"
         y="0"
         width="100%"
         height="100%" />
    </g>
  </g>
  <g
     id="line2d_6"
     transform="translate(-3,9)">
    <path
       clip-path="url(#p37ddee0762)"
       d="M 67.5,55.690205 H 486"
       style="fill:none;stroke:#cccccc;stroke-width:2;stroke-linecap:round"
       id="path378" />
  </g>
  <g
     id="text_11"
     transform="translate(7.5,9)">
    <!-- 0.8 -->
    <defs
       id="defs382">
      <path
         d="m 31.78125,34.625 q -7.03125,0 -11.0625,-3.765625 -4.015625,-3.765625 -4.015625,-10.34375 0,-6.59375 4.015625,-10.359375 4.03125,-3.765625 11.0625,-3.765625 7.03125,0 11.078125,3.78125 4.0625,3.796875 4.0625,10.34375 0,6.578125 -4.03125,10.34375 Q 38.875,34.625 31.78125,34.625 Z m -9.859375,4.1875 Q 15.578125,40.375 12.03125,44.71875 8.5,49.078125 8.5,55.328125 q 0,8.734375 6.21875,13.8125 6.234375,5.078125 17.0625,5.078125 10.890625,0 17.09375,-5.078125 6.203125,-5.078125 6.203125,-13.8125 0,-6.25 -3.546875,-10.609375 Q 48,40.375 41.703125,38.8125 q 7.125,-1.65625 11.09375,-6.5 3.984375,-4.828125 3.984375,-11.796875 0,-10.609375 -6.46875,-16.28125 -6.46875,-5.65625 -18.53125,-5.65625 -12.046875,0 -18.53125,5.65625 -6.46875,5.671875 -6.46875,16.28125 0,6.96875 4,11.796875 4.015625,4.84375 11.140625,6.5 z M 18.3125,54.390625 q 0,-5.65625 3.53125,-8.828125 3.546875,-3.171875 9.9375,-3.171875 6.359375,0 9.9375,3.171875 3.59375,3.171875 3.59375,8.828125 0,5.671875 -3.59375,8.84375 -3.578125,3.171875 -9.9375,3.171875 -6.390625,0 -9.9375,-3.171875 Q 18.3125,60.0625 18.3125,54.390625 Z"
         id="DejaVuSans-56" />
    </defs>
    <g
       style="fill:#262626"
       transform="matrix(0.154,0,0,-0.154,27.509187,61.541001)"
       id="g390">
      <use
         xlink:href="#DejaVuSans-48"
         id="use384"
         x="0"
         y="0"
         width="100%"
         height="100%" />
      <use
         x="63.623047"
         xlink:href="#DejaVuSans-46"
         id="use386"
         y="0"
         width="100%"
         height="100%" />
      <use
         x="95.410156"
         xlink:href="#DejaVuSans-56"
         id="use388"
         y="0"
         width="100%"
         height="100%" />
    </g>
  </g>
  <g
     style="fill:#262626"
     transform="matrix(0,-0.168,-0.168,0,25.110594,212.55525)"
     id="g426">
    <use
       xlink:href="#DejaVuSans-86"
       id="use398"
       x="0"
       y="0"
       width="100%"
       height="100%" />
    <use
       x="60.658203"
       xlink:href="#DejaVuSans-101"
       id="use400"
       y="0"
       width="100%"
       height="100%" />
    <use
       x="122.18164"
       xlink:href="#DejaVuSans-114"
       id="use402"
       y="0"
       width="100%"
       height="100%" />
    <use
       x="163.29492"
       xlink:href="#DejaVuSans-97"
       id="use404"
       y="0"
       width="100%"
       height="100%" />
    <use
       x="224.57422"
       xlink:href="#DejaVuSans-99"
       id="use406"
       y="0"
       width="100%"
       height="100%" />
    <use
       x="279.55469"
       xlink:href="#DejaVuSans-105"
       id="use408"
       y="0"
       width="100%"
       height="100%" />
    <use
       x="307.33789"
       xlink:href="#DejaVuSans-116"
       id="use410"
       y="0"
       width="100%"
       height="100%" />
    <use
       x="346.54688"
       xlink:href="#DejaVuSans-121"
       id="use412"
       y="0"
       width="100%"
       height="100%" />
    <use
       x="405.72656"
       xlink:href="#DejaVuSans-32"
       id="use414"
       y="0"
       width="100%"
       height="100%" />
    <use
       x="437.51367"
       xlink:href="#DejaVuSans-83"
       id="use416"
       y="0"
       width="100%"
       height="100%" />
    <use
       x="500.99023"
       xlink:href="#DejaVuSans-99"
       id="use418"
       y="0"
       width="100%"
       height="100%" />
    <use
       x="555.9707"
       xlink:href="#DejaVuSans-111"
       id="use420"
       y="0"
       width="100%"
       height="100%" />
    <use
       x="617.15234"
       xlink:href="#DejaVuSans-114"
       id="use422"
       y="0"
       width="100%"
       height="100%" />
    <use
       x="656.01562"
       xlink:href="#DejaVuSans-101"
       id="use424"
       y="0"
       width="100%"
       height="100%" />
  </g>
  <g
     clip-path="url(#p37ddee0762)"
     id="g435"
     transform="translate(-3,9)">
    <use
       style="fill:#abc9ea;stroke:#737373;stroke-width:3"
       x="0"
       xlink:href="#md20720b42e"
       y="288"
       id="use433"
       width="100%"
       height="100%" />
  </g>
  <g
     clip-path="url(#p37ddee0762)"
     id="g443"
     transform="translate(-3,9)">
    <use
       style="fill:#efb792;stroke:#737373;stroke-width:3"
       x="0"
       xlink:href="#m579a28ee0e"
       y="288"
       id="use441"
       width="100%"
       height="100%" />
  </g>
  <g
     clip-path="url(#p37ddee0762)"
     id="g451"
     transform="translate(-3,9)">
    <use
       style="fill:#abc9ea;stroke:#737373;stroke-width:3"
       x="0"
       xlink:href="#m98327b2a4f"
       y="288"
       id="use449"
       width="100%"
       height="100%" />
  </g>
  <g
     clip-path="url(#p37ddee0762)"
     id="g459"
     transform="translate(-3,9)">
    <use
       style="fill:#efb792;stroke:#737373;stroke-width:3"
       x="0"
       xlink:href="#m9d83633975"
       y="288"
       id="use457"
       width="100%"
       height="100%" />
  </g>
  <g
     clip-path="url(#p37ddee0762)"
     id="g467"
     transform="translate(-3,9)">
    <use
       style="fill:#abc9ea;stroke:#737373;stroke-width:3"
       x="0"
       xlink:href="#mee24938244"
       y="288"
       id="use465"
       width="100%"
       height="100%" />
  </g>
  <g
     clip-path="url(#p37ddee0762)"
     id="g475"
     transform="translate(-3,9)">
    <use
       style="fill:#efb792;stroke:#737373;stroke-width:3"
       x="0"
       xlink:href="#m0bd0bb0493"
       y="288"
       id="use473"
       width="100%"
       height="100%" />
  </g>
  <g
     clip-path="url(#p37ddee0762)"
     id="g483"
     transform="translate(-3,9)">
    <use
       style="fill:#efb792;stroke:#737373;stroke-width:3"
       x="0"
       xlink:href="#m53694637c4"
       y="288"
       id="use481"
       width="100%"
       height="100%" />
  </g>
  <path
     clip-path="url(#p37ddee0762)"
     d="M 119.8125,210.35327 Z"
     style="fill:#abc9ea;stroke:#737373;stroke-width:1.5;stroke-linejoin:miter"
     id="path488"
     transform="translate(-3,9)" />
  <path
     clip-path="url(#p37ddee0762)"
     d="M 119.8125,210.35327 Z"
     style="fill:#efb792;stroke:#737373;stroke-width:1.5;stroke-linejoin:miter"
     id="path491"
     transform="translate(-3,9)" />
  <path
     clip-path="url(#p37ddee0762)"
     d="M 119.8125,202.46229 V 84.097706"
     style="fill:none;stroke:#737373;stroke-width:3;stroke-linecap:round"
     id="path494"
     transform="translate(-3,9)" />
  <path
     clip-path="url(#p37ddee0762)"
     d="M 119.8125,161.03469 V 127.49805"
     style="fill:none;stroke:#737373;stroke-width:9;stroke-linecap:round"
     id="path497"
     transform="translate(-3,9)" />
  <path
     clip-path="url(#p37ddee0762)"
     d="M 224.4375,178.78938 V 91.988678"
     style="fill:none;stroke:#737373;stroke-width:3;stroke-linecap:round"
     id="path500"
     transform="translate(-3,9)" />
  <path
     clip-path="url(#p37ddee0762)"
     d="M 224.4375,159.06194 V 123.55257"
     style="fill:none;stroke:#737373;stroke-width:9;stroke-linecap:round"
     id="path503"
     transform="translate(-3,9)" />
  <path
     clip-path="url(#p37ddee0762)"
     d="m 329.0625,166.95292 v -59.1823"
     style="fill:none;stroke:#737373;stroke-width:3;stroke-linecap:round"
     id="path506"
     transform="translate(-3,9)" />
  <path
     clip-path="url(#p37ddee0762)"
     d="M 329.0625,158.07557 V 128.48443"
     style="fill:none;stroke:#737373;stroke-width:9;stroke-linecap:round"
     id="path509"
     transform="translate(-3,9)" />
  <path
     clip-path="url(#p37ddee0762)"
     d="m 391.8375,135.38903 h 41.85"
     style="fill:none;stroke:#737373;stroke-width:3;stroke-linecap:round"
     id="path512"
     transform="translate(-3,9)" />
  <path
     clip-path="url(#p37ddee0762)"
     d="M 433.6875,135.38903 V 103.82514"
     style="fill:none;stroke:#737373;stroke-width:3;stroke-linecap:round"
     id="path515"
     transform="translate(-3,9)" />
  <path
     clip-path="url(#p37ddee0762)"
     d="m 433.6875,135.38903 v -13.8092"
     style="fill:none;stroke:#737373;stroke-width:9;stroke-linecap:round"
     id="path518"
     transform="translate(-3,9)" />
  <path
     d="M 64.5,261 V 43.56"
     style="fill:none;stroke:#cccccc;stroke-width:2.5;stroke-linecap:square;stroke-linejoin:miter"
     id="path521" />
  <path
     d="M 483,261 V 43.56"
     style="fill:none;stroke:#cccccc;stroke-width:2.5;stroke-linecap:square;stroke-linejoin:miter"
     id="path524" />
  <path
     d="M 64.5,261 H 483"
     style="fill:none;stroke:#cccccc;stroke-width:2.5;stroke-linecap:square;stroke-linejoin:miter"
     id="path527" />
  <path
     d="M 64.5,43.56 H 483"
     style="fill:none;stroke:#cccccc;stroke-width:2.5;stroke-linecap:square;stroke-linejoin:miter"
     id="path530" />
  <g
     clip-path="url(#p37ddee0762)"
     id="g538"
     transform="translate(-3,9)">
    <use
       style="fill:#ffffff;stroke:#737373;stroke-width:2"
       x="119.8125"
       xlink:href="#m56282a4df8"
       y="143.28"
       id="use536"
       width="100%"
       height="100%" />
  </g>
  <g
     clip-path="url(#p37ddee0762)"
     id="g543"
     transform="translate(-3,9)">
    <use
       style="fill:#ffffff;stroke:#737373;stroke-width:2"
       x="224.4375"
       xlink:href="#m56282a4df8"
       y="143.28"
       id="use541"
       width="100%"
       height="100%" />
  </g>
  <g
     clip-path="url(#p37ddee0762)"
     id="g548"
     transform="translate(-3,9)">
    <use
       style="fill:#ffffff;stroke:#737373;stroke-width:2"
       x="329.0625"
       xlink:href="#m56282a4df8"
       y="145.25275"
       id="use546"
       width="100%"
       height="100%" />
  </g>
  <g
     clip-path="url(#p37ddee0762)"
     id="g553"
     transform="translate(-3,9)">
    <use
       style="fill:#ffffff;stroke:#737373;stroke-width:2"
       x="433.6875"
       xlink:href="#m56282a4df8"
       y="131.44354"
       id="use551"
       width="100%"
       height="100%" />
  </g>
  <g
     clip-path="url(#p37ddee0762)"
     id="g561"
     transform="translate(-3,9)">
    <use
       style="fill:#4c72b0"
       x="98.887497"
       xlink:href="#C0_0_8c870dd965"
       y="202.4623"
       id="use559"
       width="100%"
       height="100%" />
  </g>
  <g
     clip-path="url(#p37ddee0762)"
     id="g565"
     transform="translate(-3,9)">
    <use
       style="fill:#4c72b0"
       x="98.887497"
       xlink:href="#C0_0_8c870dd965"
       y="186.68034"
       id="use563"
       width="100%"
       height="100%" />
  </g>
  <g
     clip-path="url(#p37ddee0762)"
     id="g569"
     transform="translate(-3,9)">
    <use
       style="fill:#4c72b0"
       x="95.66259"
       xlink:href="#C0_0_8c870dd965"
       y="182.73486"
       id="use567"
       width="100%"
       height="100%" />
  </g>
  <g
     clip-path="url(#p37ddee0762)"
     id="g573"
     transform="translate(-3,9)">
    <use
       style="fill:#4c72b0"
       x="98.887497"
       xlink:href="#C0_0_8c870dd965"
       y="178.78938"
       id="use571"
       width="100%"
       height="100%" />
  </g>
  <g
     clip-path="url(#p37ddee0762)"
     id="g577"
     transform="translate(-3,9)">
    <use
       style="fill:#4c72b0"
       x="98.887497"
       xlink:href="#C0_0_8c870dd965"
       y="163.00743"
       id="use575"
       width="100%"
       height="100%" />
  </g>
  <g
     clip-path="url(#p37ddee0762)"
     id="g581"
     transform="translate(-3,9)">
    <use
       style="fill:#4c72b0"
       x="95.66259"
       xlink:href="#C0_0_8c870dd965"
       y="159.06195"
       id="use579"
       width="100%"
       height="100%" />
  </g>
  <g
     clip-path="url(#p37ddee0762)"
     id="g585"
     transform="translate(-3,9)">
    <use
       style="fill:#4c72b0"
       x="98.887497"
       xlink:href="#C0_0_8c870dd965"
       y="155.11646"
       id="use583"
       width="100%"
       height="100%" />
  </g>
  <g
     clip-path="url(#p37ddee0762)"
     id="g589"
     transform="translate(-3,9)">
    <use
       style="fill:#4c72b0"
       x="95.66259"
       xlink:href="#C0_0_8c870dd965"
       y="151.17097"
       id="use587"
       width="100%"
       height="100%" />
  </g>
  <g
     clip-path="url(#p37ddee0762)"
     id="g593"
     transform="translate(-3,9)">
    <use
       style="fill:#4c72b0"
       x="98.887497"
       xlink:href="#C0_0_8c870dd965"
       y="139.33452"
       id="use591"
       width="100%"
       height="100%" />
  </g>
  <g
     clip-path="url(#p37ddee0762)"
     id="g597"
     transform="translate(-3,9)">
    <use
       style="fill:#4c72b0"
       x="95.66259"
       xlink:href="#C0_0_8c870dd965"
       y="135.38902"
       id="use595"
       width="100%"
       height="100%" />
  </g>
  <g
     clip-path="url(#p37ddee0762)"
     id="g601"
     transform="translate(-3,9)">
    <use
       style="fill:#4c72b0"
       x="98.887497"
       xlink:href="#C0_0_8c870dd965"
       y="127.49805"
       id="use599"
       width="100%"
       height="100%" />
  </g>
  <g
     clip-path="url(#p37ddee0762)"
     id="g605"
     transform="translate(-3,9)">
    <use
       style="fill:#4c72b0"
       x="98.887497"
       xlink:href="#C0_0_8c870dd965"
       y="111.71611"
       id="use603"
       width="100%"
       height="100%" />
  </g>
  <g
     clip-path="url(#p37ddee0762)"
     id="g609"
     transform="translate(-3,9)">
    <use
       style="fill:#4c72b0"
       x="95.66259"
       xlink:href="#C0_0_8c870dd965"
       y="107.77062"
       id="use607"
       width="100%"
       height="100%" />
  </g>
  <g
     clip-path="url(#p37ddee0762)"
     id="g613"
     transform="translate(-3,9)">
    <use
       style="fill:#4c72b0"
       x="98.887497"
       xlink:href="#C0_0_8c870dd965"
       y="84.09771"
       id="use611"
       width="100%"
       height="100%" />
  </g>
  <g
     clip-path="url(#p37ddee0762)"
     id="g621"
     transform="translate(-3,9)">
    <use
       style="fill:#dd8452"
       x="140.7375"
       xlink:href="#C1_0_29133b5eb2"
       y="174.84389"
       id="use619"
       width="100%"
       height="100%" />
  </g>
  <g
     clip-path="url(#p37ddee0762)"
     id="g625"
     transform="translate(-3,9)">
    <use
       style="fill:#dd8452"
       x="137.51259"
       xlink:href="#C1_0_29133b5eb2"
       y="170.89841"
       id="use623"
       width="100%"
       height="100%" />
  </g>
  <g
     clip-path="url(#p37ddee0762)"
     id="g629"
     transform="translate(-3,9)">
    <use
       style="fill:#dd8452"
       x="140.7375"
       xlink:href="#C1_0_29133b5eb2"
       y="159.06195"
       id="use627"
       width="100%"
       height="100%" />
  </g>
  <g
     clip-path="url(#p37ddee0762)"
     id="g633"
     transform="translate(-3,9)">
    <use
       style="fill:#dd8452"
       x="140.7375"
       xlink:href="#C1_0_29133b5eb2"
       y="147.22548"
       id="use631"
       width="100%"
       height="100%" />
  </g>
  <g
     clip-path="url(#p37ddee0762)"
     id="g637"
     transform="translate(-3,9)">
    <use
       style="fill:#dd8452"
       x="135.4875"
       xlink:href="#C1_0_29133b5eb2"
       y="147.22548"
       id="use635"
       width="100%"
       height="100%" />
  </g>
  <g
     clip-path="url(#p37ddee0762)"
     id="g641"
     transform="translate(-3,9)">
    <use
       style="fill:#dd8452"
       x="143.9624"
       xlink:href="#C1_0_29133b5eb2"
       y="143.28"
       id="use639"
       width="100%"
       height="100%" />
  </g>
  <g
     clip-path="url(#p37ddee0762)"
     id="g645"
     transform="translate(-3,9)">
    <use
       style="fill:#dd8452"
       x="140.7375"
       xlink:href="#C1_0_29133b5eb2"
       y="139.33452"
       id="use643"
       width="100%"
       height="100%" />
  </g>
  <g
     clip-path="url(#p37ddee0762)"
     id="g649"
     transform="translate(-3,9)">
    <use
       style="fill:#dd8452"
       x="140.7375"
       xlink:href="#C1_0_29133b5eb2"
       y="131.44354"
       id="use647"
       width="100%"
       height="100%" />
  </g>
  <g
     clip-path="url(#p37ddee0762)"
     id="g653"
     transform="translate(-3,9)">
    <use
       style="fill:#dd8452"
       x="137.51259"
       xlink:href="#C1_0_29133b5eb2"
       y="127.49805"
       id="use651"
       width="100%"
       height="100%" />
  </g>
  <g
     clip-path="url(#p37ddee0762)"
     id="g657"
     transform="translate(-3,9)">
    <use
       style="fill:#dd8452"
       x="143.9624"
       xlink:href="#C1_0_29133b5eb2"
       y="127.49805"
       id="use655"
       width="100%"
       height="100%" />
  </g>
  <g
     clip-path="url(#p37ddee0762)"
     id="g661"
     transform="translate(-3,9)">
    <use
       style="fill:#dd8452"
       x="140.7375"
       xlink:href="#C1_0_29133b5eb2"
       y="111.71611"
       id="use659"
       width="100%"
       height="100%" />
  </g>
  <g
     clip-path="url(#p37ddee0762)"
     id="g665"
     transform="translate(-3,9)">
    <use
       style="fill:#dd8452"
       x="140.7375"
       xlink:href="#C1_0_29133b5eb2"
       y="95.934166"
       id="use663"
       width="100%"
       height="100%" />
  </g>
  <g
     clip-path="url(#p37ddee0762)"
     id="g669"
     transform="translate(-3,9)">
    <use
       style="fill:#dd8452"
       x="137.51259"
       xlink:href="#C1_0_29133b5eb2"
       y="91.988678"
       id="use667"
       width="100%"
       height="100%" />
  </g>
  <g
     clip-path="url(#p37ddee0762)"
     id="g677"
     transform="translate(-3,9)">
    <use
       style="fill:#4c72b0"
       x="203.5125"
       xlink:href="#C2_0_89fe41d32e"
       y="170.89841"
       id="use675"
       width="100%"
       height="100%" />
  </g>
  <g
     clip-path="url(#p37ddee0762)"
     id="g681"
     transform="translate(-3,9)">
    <use
       style="fill:#4c72b0"
       x="198.2625"
       xlink:href="#C2_0_89fe41d32e"
       y="170.89841"
       id="use679"
       width="100%"
       height="100%" />
  </g>
  <g
     clip-path="url(#p37ddee0762)"
     id="g685"
     transform="translate(-3,9)">
    <use
       style="fill:#4c72b0"
       x="208.7625"
       xlink:href="#C2_0_89fe41d32e"
       y="170.89841"
       id="use683"
       width="100%"
       height="100%" />
  </g>
  <g
     clip-path="url(#p37ddee0762)"
     id="g689"
     transform="translate(-3,9)">
    <use
       style="fill:#4c72b0"
       x="193.0125"
       xlink:href="#C2_0_89fe41d32e"
       y="170.89841"
       id="use687"
       width="100%"
       height="100%" />
  </g>
  <g
     clip-path="url(#p37ddee0762)"
     id="g693"
     transform="translate(-3,9)">
    <use
       style="fill:#4c72b0"
       x="203.5125"
       xlink:href="#C2_0_89fe41d32e"
       y="159.06195"
       id="use691"
       width="100%"
       height="100%" />
  </g>
  <g
     clip-path="url(#p37ddee0762)"
     id="g697"
     transform="translate(-3,9)">
    <use
       style="fill:#4c72b0"
       x="198.2625"
       xlink:href="#C2_0_89fe41d32e"
       y="159.06195"
       id="use695"
       width="100%"
       height="100%" />
  </g>
  <g
     clip-path="url(#p37ddee0762)"
     id="g701"
     transform="translate(-3,9)">
    <use
       style="fill:#4c72b0"
       x="208.7625"
       xlink:href="#C2_0_89fe41d32e"
       y="159.06195"
       id="use699"
       width="100%"
       height="100%" />
  </g>
  <g
     clip-path="url(#p37ddee0762)"
     id="g705"
     transform="translate(-3,9)">
    <use
       style="fill:#4c72b0"
       x="203.5125"
       xlink:href="#C2_0_89fe41d32e"
       y="151.17097"
       id="use703"
       width="100%"
       height="100%" />
  </g>
  <g
     clip-path="url(#p37ddee0762)"
     id="g709"
     transform="translate(-3,9)">
    <use
       style="fill:#4c72b0"
       x="198.2625"
       xlink:href="#C2_0_89fe41d32e"
       y="151.17097"
       id="use707"
       width="100%"
       height="100%" />
  </g>
  <g
     clip-path="url(#p37ddee0762)"
     id="g713"
     transform="translate(-3,9)">
    <use
       style="fill:#4c72b0"
       x="203.5125"
       xlink:href="#C2_0_89fe41d32e"
       y="143.28"
       id="use711"
       width="100%"
       height="100%" />
  </g>
  <g
     clip-path="url(#p37ddee0762)"
     id="g717"
     transform="translate(-3,9)">
    <use
       style="fill:#4c72b0"
       x="203.5125"
       xlink:href="#C2_0_89fe41d32e"
       y="135.38902"
       id="use715"
       width="100%"
       height="100%" />
  </g>
  <g
     clip-path="url(#p37ddee0762)"
     id="g721"
     transform="translate(-3,9)">
    <use
       style="fill:#4c72b0"
       x="198.2625"
       xlink:href="#C2_0_89fe41d32e"
       y="135.38902"
       id="use719"
       width="100%"
       height="100%" />
  </g>
  <g
     clip-path="url(#p37ddee0762)"
     id="g725"
     transform="translate(-3,9)">
    <use
       style="fill:#4c72b0"
       x="208.7625"
       xlink:href="#C2_0_89fe41d32e"
       y="135.38902"
       id="use723"
       width="100%"
       height="100%" />
  </g>
  <g
     clip-path="url(#p37ddee0762)"
     id="g729"
     transform="translate(-3,9)">
    <use
       style="fill:#4c72b0"
       x="203.5125"
       xlink:href="#C2_0_89fe41d32e"
       y="123.55257"
       id="use727"
       width="100%"
       height="100%" />
  </g>
  <g
     clip-path="url(#p37ddee0762)"
     id="g733"
     transform="translate(-3,9)">
    <use
       style="fill:#4c72b0"
       x="203.5125"
       xlink:href="#C2_0_89fe41d32e"
       y="115.6616"
       id="use731"
       width="100%"
       height="100%" />
  </g>
  <g
     clip-path="url(#p37ddee0762)"
     id="g737"
     transform="translate(-3,9)">
    <use
       style="fill:#4c72b0"
       x="198.2625"
       xlink:href="#C2_0_89fe41d32e"
       y="115.6616"
       id="use735"
       width="100%"
       height="100%" />
  </g>
  <g
     clip-path="url(#p37ddee0762)"
     id="g741"
     transform="translate(-3,9)">
    <use
       style="fill:#4c72b0"
       x="203.5125"
       xlink:href="#C2_0_89fe41d32e"
       y="91.988678"
       id="use739"
       width="100%"
       height="100%" />
  </g>
  <g
     clip-path="url(#p37ddee0762)"
     id="g745"
     transform="translate(-3,9)">
    <use
       style="fill:#4c72b0"
       x="198.2625"
       xlink:href="#C2_0_89fe41d32e"
       y="91.988678"
       id="use743"
       width="100%"
       height="100%" />
  </g>
  <g
     clip-path="url(#p37ddee0762)"
     id="g753"
     transform="translate(-3,9)">
    <use
       style="fill:#dd8452"
       x="245.3625"
       xlink:href="#C3_0_6f8ee928d0"
       y="178.78938"
       id="use751"
       width="100%"
       height="100%" />
  </g>
  <g
     clip-path="url(#p37ddee0762)"
     id="g757"
     transform="translate(-3,9)">
    <use
       style="fill:#dd8452"
       x="242.13759"
       xlink:href="#C3_0_6f8ee928d0"
       y="174.84389"
       id="use755"
       width="100%"
       height="100%" />
  </g>
  <g
     clip-path="url(#p37ddee0762)"
     id="g761"
     transform="translate(-3,9)">
    <use
       style="fill:#dd8452"
       x="245.3625"
       xlink:href="#C3_0_6f8ee928d0"
       y="166.95291"
       id="use759"
       width="100%"
       height="100%" />
  </g>
  <g
     clip-path="url(#p37ddee0762)"
     id="g765"
     transform="translate(-3,9)">
    <use
       style="fill:#dd8452"
       x="240.1125"
       xlink:href="#C3_0_6f8ee928d0"
       y="166.95291"
       id="use763"
       width="100%"
       height="100%" />
  </g>
  <g
     clip-path="url(#p37ddee0762)"
     id="g769"
     transform="translate(-3,9)">
    <use
       style="fill:#dd8452"
       x="250.6125"
       xlink:href="#C3_0_6f8ee928d0"
       y="166.95291"
       id="use767"
       width="100%"
       height="100%" />
  </g>
  <g
     clip-path="url(#p37ddee0762)"
     id="g773"
     transform="translate(-3,9)">
    <use
       style="fill:#dd8452"
       x="245.3625"
       xlink:href="#C3_0_6f8ee928d0"
       y="151.17097"
       id="use771"
       width="100%"
       height="100%" />
  </g>
  <g
     clip-path="url(#p37ddee0762)"
     id="g777"
     transform="translate(-3,9)">
    <use
       style="fill:#dd8452"
       x="242.13759"
       xlink:href="#C3_0_6f8ee928d0"
       y="147.22548"
       id="use775"
       width="100%"
       height="100%" />
  </g>
  <g
     clip-path="url(#p37ddee0762)"
     id="g781"
     transform="translate(-3,9)">
    <use
       style="fill:#dd8452"
       x="245.3625"
       xlink:href="#C3_0_6f8ee928d0"
       y="143.28"
       id="use779"
       width="100%"
       height="100%" />
  </g>
  <g
     clip-path="url(#p37ddee0762)"
     id="g785"
     transform="translate(-3,9)">
    <use
       style="fill:#dd8452"
       x="250.6125"
       xlink:href="#C3_0_6f8ee928d0"
       y="143.28"
       id="use783"
       width="100%"
       height="100%" />
  </g>
  <g
     clip-path="url(#p37ddee0762)"
     id="g789"
     transform="translate(-3,9)">
    <use
       style="fill:#dd8452"
       x="245.3625"
       xlink:href="#C3_0_6f8ee928d0"
       y="131.44354"
       id="use787"
       width="100%"
       height="100%" />
  </g>
  <g
     clip-path="url(#p37ddee0762)"
     id="g793"
     transform="translate(-3,9)">
    <use
       style="fill:#dd8452"
       x="242.13759"
       xlink:href="#C3_0_6f8ee928d0"
       y="127.49805"
       id="use791"
       width="100%"
       height="100%" />
  </g>
  <g
     clip-path="url(#p37ddee0762)"
     id="g797"
     transform="translate(-3,9)">
    <use
       style="fill:#dd8452"
       x="248.5874"
       xlink:href="#C3_0_6f8ee928d0"
       y="127.49805"
       id="use795"
       width="100%"
       height="100%" />
  </g>
  <g
     clip-path="url(#p37ddee0762)"
     id="g801"
     transform="translate(-3,9)">
    <use
       style="fill:#dd8452"
       x="236.88759"
       xlink:href="#C3_0_6f8ee928d0"
       y="127.49805"
       id="use799"
       width="100%"
       height="100%" />
  </g>
  <g
     clip-path="url(#p37ddee0762)"
     id="g805"
     transform="translate(-3,9)">
    <use
       style="fill:#dd8452"
       x="245.3625"
       xlink:href="#C3_0_6f8ee928d0"
       y="123.55257"
       id="use803"
       width="100%"
       height="100%" />
  </g>
  <g
     clip-path="url(#p37ddee0762)"
     id="g809"
     transform="translate(-3,9)">
    <use
       style="fill:#dd8452"
       x="242.13759"
       xlink:href="#C3_0_6f8ee928d0"
       y="119.60708"
       id="use807"
       width="100%"
       height="100%" />
  </g>
  <g
     clip-path="url(#p37ddee0762)"
     id="g813"
     transform="translate(-3,9)">
    <use
       style="fill:#dd8452"
       x="245.3625"
       xlink:href="#C3_0_6f8ee928d0"
       y="115.6616"
       id="use811"
       width="100%"
       height="100%" />
  </g>
  <g
     clip-path="url(#p37ddee0762)"
     id="g817"
     transform="translate(-3,9)">
    <use
       style="fill:#dd8452"
       x="245.3625"
       xlink:href="#C3_0_6f8ee928d0"
       y="107.77062"
       id="use815"
       width="100%"
       height="100%" />
  </g>
  <g
     clip-path="url(#p37ddee0762)"
     id="g821"
     transform="translate(-3,9)">
    <use
       style="fill:#dd8452"
       x="245.3625"
       xlink:href="#C3_0_6f8ee928d0"
       y="99.879654"
       id="use819"
       width="100%"
       height="100%" />
  </g>
  <g
     clip-path="url(#p37ddee0762)"
     id="g825"
     transform="translate(-3,9)">
    <use
       style="fill:#dd8452"
       x="242.13759"
       xlink:href="#C3_0_6f8ee928d0"
       y="95.934166"
       id="use823"
       width="100%"
       height="100%" />
  </g>
  <g
     clip-path="url(#p37ddee0762)"
     id="g833"
     transform="translate(-3,9)">
    <use
       style="fill:#4c72b0"
       x="308.13751"
       xlink:href="#C4_0_ccf4889c25"
       y="135.38902"
       id="use831"
       width="100%"
       height="100%" />
  </g>
  <g
     clip-path="url(#p37ddee0762)"
     id="g837"
     transform="translate(-3,9)">
    <use
       style="fill:#4c72b0"
       x="308.13751"
       xlink:href="#C4_0_ccf4889c25"
       y="107.77062"
       id="use835"
       width="100%"
       height="100%" />
  </g>
  <g
     clip-path="url(#p37ddee0762)"
     id="g845"
     transform="translate(-3,9)">
    <use
       style="fill:#dd8452"
       x="349.98749"
       xlink:href="#C5_0_74dd12cb1c"
       y="166.95291"
       id="use843"
       width="100%"
       height="100%" />
  </g>
  <g
     clip-path="url(#p37ddee0762)"
     id="g849"
     transform="translate(-3,9)">
    <use
       style="fill:#dd8452"
       x="349.98749"
       xlink:href="#C5_0_74dd12cb1c"
       y="155.11646"
       id="use847"
       width="100%"
       height="100%" />
  </g>
  <g
     clip-path="url(#p37ddee0762)"
     id="g857"
     transform="translate(-3,9)">
    <use
       style="fill:#4c72b0"
       x="412.76251"
       xlink:href="#C6_0_a3cd11e5ef"
       y="135.38902"
       id="use855"
       width="100%"
       height="100%" />
  </g>
  <g
     clip-path="url(#p37ddee0762)"
     id="g861"
     transform="translate(-3,9)">
    <use
       style="fill:#4c72b0"
       x="407.51251"
       xlink:href="#C6_0_a3cd11e5ef"
       y="135.38902"
       id="use859"
       width="100%"
       height="100%" />
  </g>
  <g
     clip-path="url(#p37ddee0762)"
     id="g869"
     transform="translate(-3,9)">
    <use
       style="fill:#dd8452"
       x="454.61249"
       xlink:href="#C7_0_fe3f428e41"
       y="127.49805"
       id="use867"
       width="100%"
       height="100%" />
  </g>
  <g
     clip-path="url(#p37ddee0762)"
     id="g873"
     transform="translate(-3,9)">
    <use
       style="fill:#dd8452"
       x="454.61249"
       xlink:href="#C7_0_fe3f428e41"
       y="103.82513"
       id="use871"
       width="100%"
       height="100%" />
  </g>
  <defs
     id="defs1088">
    <clipPath
       id="p37ddee0762">
      <rect
         height="217.44"
         width="418.5"
         x="67.5"
         y="34.560001"
         id="rect1085" />
    </clipPath>
  </defs>
  <text
     xml:space="preserve"
     style="font-size:17px;line-height:1;font-family:'DejaVu Sans';-inkscape-font-specification:'DejaVu Sans';font-variation-settings:normal;white-space:pre;inline-size:368.628;vector-effect:none;fill:#262626;fill-opacity:1;stroke-width:1;stroke-linecap:butt;stroke-linejoin:round;stroke-miterlimit:4;stroke-dasharray:none;stroke-dashoffset:0;stroke-opacity:1;-inkscape-stroke:none;stop-color:#000000"
     x="146.72192"
     y="-1.304224"
     id="text4443"
     transform="translate(-57.524476,21.930941)"><tspan
       x="146.72192"
       y="-1.304224"
       id="tspan21877"><tspan
         style="text-align:center;text-anchor:middle;vector-effect:none;stop-color:#000000;stop-opacity:1"
         id="tspan21875">Veracity score in function of participants' </tspan></tspan><tspan
       x="146.72192"
       y="15.695776"
       id="tspan21881"><tspan
         style="text-align:center;text-anchor:middle;vector-effect:none;stop-color:#000000;stop-opacity:1"
         id="tspan21879">time already spent in VR</tspan></tspan></text>
</svg>
