<?xml version="1.0" encoding="utf-8" standalone="no"?>
<!DOCTYPE svg PUBLIC "-//W3C//DTD SVG 1.1//EN"
  "http://www.w3.org/Graphics/SVG/1.1/DTD/svg11.dtd">
<!-- Created with matplotlib (https://matplotlib.org/) -->
<svg height="288pt" version="1.1" viewBox="0 0 540 288" width="540pt" xmlns="http://www.w3.org/2000/svg" xmlns:xlink="http://www.w3.org/1999/xlink">
 <defs>
  <style type="text/css">
*{stroke-linecap:butt;stroke-linejoin:round;}
  </style>
 </defs>
 <g id="figure_1">
  <g id="patch_1">
   <path d="M 0 288 
L 540 288 
L 540 0 
L 0 0 
z
" style="fill:#ffffff;"/>
  </g>
  <g id="axes_1">
   <g id="patch_2">
    <path d="M 67.5 252 
L 486 252 
L 486 34.56 
L 67.5 34.56 
z
" style="fill:#ffffff;"/>
   </g>
   <g id="matplotlib.axis_1">
    <g id="xtick_1">
     <g id="text_1">
      <!-- VR -->
      <defs>
       <path d="M 28.609375 0 
L 0.78125 72.90625 
L 11.078125 72.90625 
L 34.1875 11.53125 
L 57.328125 72.90625 
L 67.578125 72.90625 
L 39.796875 0 
z
" id="DejaVuSans-86"/>
       <path d="M 44.390625 34.1875 
Q 47.5625 33.109375 50.5625 29.59375 
Q 53.5625 26.078125 56.59375 19.921875 
L 66.609375 0 
L 56 0 
L 46.6875 18.703125 
Q 43.0625 26.03125 39.671875 28.421875 
Q 36.28125 30.8125 30.421875 30.8125 
L 19.671875 30.8125 
L 19.671875 0 
L 9.8125 0 
L 9.8125 72.90625 
L 32.078125 72.90625 
Q 44.578125 72.90625 50.734375 67.671875 
Q 56.890625 62.453125 56.890625 51.90625 
Q 56.890625 45.015625 53.6875 40.46875 
Q 50.484375 35.9375 44.390625 34.1875 
z
M 19.671875 64.796875 
L 19.671875 38.921875 
L 32.078125 38.921875 
Q 39.203125 38.921875 42.84375 42.21875 
Q 46.484375 45.515625 46.484375 51.90625 
Q 46.484375 58.296875 42.84375 61.546875 
Q 39.203125 64.796875 32.078125 64.796875 
z
" id="DejaVuSans-82"/>
      </defs>
      <g style="fill:#262626;" transform="translate(161.507422 279.201594)scale(0.154 -0.154)">
       <use xlink:href="#DejaVuSans-86"/>
       <use x="68.408203" xlink:href="#DejaVuSans-82"/>
      </g>
     </g>
    </g>
    <g id="xtick_2">
     <g id="text_2">
      <!-- Comp -->
      <defs>
       <path d="M 64.40625 67.28125 
L 64.40625 56.890625 
Q 59.421875 61.53125 53.78125 63.8125 
Q 48.140625 66.109375 41.796875 66.109375 
Q 29.296875 66.109375 22.65625 58.46875 
Q 16.015625 50.828125 16.015625 36.375 
Q 16.015625 21.96875 22.65625 14.328125 
Q 29.296875 6.6875 41.796875 6.6875 
Q 48.140625 6.6875 53.78125 8.984375 
Q 59.421875 11.28125 64.40625 15.921875 
L 64.40625 5.609375 
Q 59.234375 2.09375 53.4375 0.328125 
Q 47.65625 -1.421875 41.21875 -1.421875 
Q 24.65625 -1.421875 15.125 8.703125 
Q 5.609375 18.84375 5.609375 36.375 
Q 5.609375 53.953125 15.125 64.078125 
Q 24.65625 74.21875 41.21875 74.21875 
Q 47.75 74.21875 53.53125 72.484375 
Q 59.328125 70.75 64.40625 67.28125 
z
" id="DejaVuSans-67"/>
       <path d="M 30.609375 48.390625 
Q 23.390625 48.390625 19.1875 42.75 
Q 14.984375 37.109375 14.984375 27.296875 
Q 14.984375 17.484375 19.15625 11.84375 
Q 23.34375 6.203125 30.609375 6.203125 
Q 37.796875 6.203125 41.984375 11.859375 
Q 46.1875 17.53125 46.1875 27.296875 
Q 46.1875 37.015625 41.984375 42.703125 
Q 37.796875 48.390625 30.609375 48.390625 
z
M 30.609375 56 
Q 42.328125 56 49.015625 48.375 
Q 55.71875 40.765625 55.71875 27.296875 
Q 55.71875 13.875 49.015625 6.21875 
Q 42.328125 -1.421875 30.609375 -1.421875 
Q 18.84375 -1.421875 12.171875 6.21875 
Q 5.515625 13.875 5.515625 27.296875 
Q 5.515625 40.765625 12.171875 48.375 
Q 18.84375 56 30.609375 56 
z
" id="DejaVuSans-111"/>
       <path d="M 52 44.1875 
Q 55.375 50.25 60.0625 53.125 
Q 64.75 56 71.09375 56 
Q 79.640625 56 84.28125 50.015625 
Q 88.921875 44.046875 88.921875 33.015625 
L 88.921875 0 
L 79.890625 0 
L 79.890625 32.71875 
Q 79.890625 40.578125 77.09375 44.375 
Q 74.3125 48.1875 68.609375 48.1875 
Q 61.625 48.1875 57.5625 43.546875 
Q 53.515625 38.921875 53.515625 30.90625 
L 53.515625 0 
L 44.484375 0 
L 44.484375 32.71875 
Q 44.484375 40.625 41.703125 44.40625 
Q 38.921875 48.1875 33.109375 48.1875 
Q 26.21875 48.1875 22.15625 43.53125 
Q 18.109375 38.875 18.109375 30.90625 
L 18.109375 0 
L 9.078125 0 
L 9.078125 54.6875 
L 18.109375 54.6875 
L 18.109375 46.1875 
Q 21.1875 51.21875 25.484375 53.609375 
Q 29.78125 56 35.6875 56 
Q 41.65625 56 45.828125 52.96875 
Q 50 49.953125 52 44.1875 
z
" id="DejaVuSans-109"/>
       <path d="M 18.109375 8.203125 
L 18.109375 -20.796875 
L 9.078125 -20.796875 
L 9.078125 54.6875 
L 18.109375 54.6875 
L 18.109375 46.390625 
Q 20.953125 51.265625 25.265625 53.625 
Q 29.59375 56 35.59375 56 
Q 45.5625 56 51.78125 48.09375 
Q 58.015625 40.1875 58.015625 27.296875 
Q 58.015625 14.40625 51.78125 6.484375 
Q 45.5625 -1.421875 35.59375 -1.421875 
Q 29.59375 -1.421875 25.265625 0.953125 
Q 20.953125 3.328125 18.109375 8.203125 
z
M 48.6875 27.296875 
Q 48.6875 37.203125 44.609375 42.84375 
Q 40.53125 48.484375 33.40625 48.484375 
Q 26.265625 48.484375 22.1875 42.84375 
Q 18.109375 37.203125 18.109375 27.296875 
Q 18.109375 17.390625 22.1875 11.75 
Q 26.265625 6.109375 33.40625 6.109375 
Q 40.53125 6.109375 44.609375 11.75 
Q 48.6875 17.390625 48.6875 27.296875 
z
" id="DejaVuSans-112"/>
      </defs>
      <g style="fill:#262626;" transform="translate(358.898219 279.201594)scale(0.154 -0.154)">
       <use xlink:href="#DejaVuSans-67"/>
       <use x="69.824219" xlink:href="#DejaVuSans-111"/>
       <use x="131.005859" xlink:href="#DejaVuSans-109"/>
       <use x="228.417969" xlink:href="#DejaVuSans-112"/>
      </g>
     </g>
    </g>
    <g id="text_3">
     <!-- device -->
     <defs>
      <path d="M 45.40625 46.390625 
L 45.40625 75.984375 
L 54.390625 75.984375 
L 54.390625 0 
L 45.40625 0 
L 45.40625 8.203125 
Q 42.578125 3.328125 38.25 0.953125 
Q 33.9375 -1.421875 27.875 -1.421875 
Q 17.96875 -1.421875 11.734375 6.484375 
Q 5.515625 14.40625 5.515625 27.296875 
Q 5.515625 40.1875 11.734375 48.09375 
Q 17.96875 56 27.875 56 
Q 33.9375 56 38.25 53.625 
Q 42.578125 51.265625 45.40625 46.390625 
z
M 14.796875 27.296875 
Q 14.796875 17.390625 18.875 11.75 
Q 22.953125 6.109375 30.078125 6.109375 
Q 37.203125 6.109375 41.296875 11.75 
Q 45.40625 17.390625 45.40625 27.296875 
Q 45.40625 37.203125 41.296875 42.84375 
Q 37.203125 48.484375 30.078125 48.484375 
Q 22.953125 48.484375 18.875 42.84375 
Q 14.796875 37.203125 14.796875 27.296875 
z
" id="DejaVuSans-100"/>
      <path d="M 56.203125 29.59375 
L 56.203125 25.203125 
L 14.890625 25.203125 
Q 15.484375 15.921875 20.484375 11.0625 
Q 25.484375 6.203125 34.421875 6.203125 
Q 39.59375 6.203125 44.453125 7.46875 
Q 49.3125 8.734375 54.109375 11.28125 
L 54.109375 2.78125 
Q 49.265625 0.734375 44.1875 -0.34375 
Q 39.109375 -1.421875 33.890625 -1.421875 
Q 20.796875 -1.421875 13.15625 6.1875 
Q 5.515625 13.8125 5.515625 26.8125 
Q 5.515625 40.234375 12.765625 48.109375 
Q 20.015625 56 32.328125 56 
Q 43.359375 56 49.78125 48.890625 
Q 56.203125 41.796875 56.203125 29.59375 
z
M 47.21875 32.234375 
Q 47.125 39.59375 43.09375 43.984375 
Q 39.0625 48.390625 32.421875 48.390625 
Q 24.90625 48.390625 20.390625 44.140625 
Q 15.875 39.890625 15.1875 32.171875 
z
" id="DejaVuSans-101"/>
      <path d="M 2.984375 54.6875 
L 12.5 54.6875 
L 29.59375 8.796875 
L 46.6875 54.6875 
L 56.203125 54.6875 
L 35.6875 0 
L 23.484375 0 
z
" id="DejaVuSans-118"/>
      <path d="M 9.421875 54.6875 
L 18.40625 54.6875 
L 18.40625 0 
L 9.421875 0 
z
M 9.421875 75.984375 
L 18.40625 75.984375 
L 18.40625 64.59375 
L 9.421875 64.59375 
z
" id="DejaVuSans-105"/>
      <path d="M 48.78125 52.59375 
L 48.78125 44.1875 
Q 44.96875 46.296875 41.140625 47.34375 
Q 37.3125 48.390625 33.40625 48.390625 
Q 24.65625 48.390625 19.8125 42.84375 
Q 14.984375 37.3125 14.984375 27.296875 
Q 14.984375 17.28125 19.8125 11.734375 
Q 24.65625 6.203125 33.40625 6.203125 
Q 37.3125 6.203125 41.140625 7.25 
Q 44.96875 8.296875 48.78125 10.40625 
L 48.78125 2.09375 
Q 45.015625 0.34375 40.984375 -0.53125 
Q 36.96875 -1.421875 32.421875 -1.421875 
Q 20.0625 -1.421875 12.78125 6.34375 
Q 5.515625 14.109375 5.515625 27.296875 
Q 5.515625 40.671875 12.859375 48.328125 
Q 20.21875 56 33.015625 56 
Q 37.15625 56 41.109375 55.140625 
Q 45.0625 54.296875 48.78125 52.59375 
z
" id="DejaVuSans-99"/>
     </defs>
     <g style="fill:#262626;" transform="translate(249.156 299.169688)scale(0.168 -0.168)">
      <use xlink:href="#DejaVuSans-100"/>
      <use x="63.476562" xlink:href="#DejaVuSans-101"/>
      <use x="125" xlink:href="#DejaVuSans-118"/>
      <use x="184.179688" xlink:href="#DejaVuSans-105"/>
      <use x="211.962891" xlink:href="#DejaVuSans-99"/>
      <use x="266.943359" xlink:href="#DejaVuSans-101"/>
     </g>
    </g>
   </g>
   <g id="matplotlib.axis_2">
    <g id="ytick_1">
     <g id="line2d_1">
      <path clip-path="url(#p7801ab96d0)" d="M 67.5 220.621112 
L 486 220.621112 
" style="fill:none;stroke:#cccccc;stroke-linecap:round;stroke-width:2;"/>
     </g>
     <g id="text_4">
      <!-- 0.00 -->
      <defs>
       <path d="M 31.78125 66.40625 
Q 24.171875 66.40625 20.328125 58.90625 
Q 16.5 51.421875 16.5 36.375 
Q 16.5 21.390625 20.328125 13.890625 
Q 24.171875 6.390625 31.78125 6.390625 
Q 39.453125 6.390625 43.28125 13.890625 
Q 47.125 21.390625 47.125 36.375 
Q 47.125 51.421875 43.28125 58.90625 
Q 39.453125 66.40625 31.78125 66.40625 
z
M 31.78125 74.21875 
Q 44.046875 74.21875 50.515625 64.515625 
Q 56.984375 54.828125 56.984375 36.375 
Q 56.984375 17.96875 50.515625 8.265625 
Q 44.046875 -1.421875 31.78125 -1.421875 
Q 19.53125 -1.421875 13.0625 8.265625 
Q 6.59375 17.96875 6.59375 36.375 
Q 6.59375 54.828125 13.0625 64.515625 
Q 19.53125 74.21875 31.78125 74.21875 
z
" id="DejaVuSans-48"/>
       <path d="M 10.6875 12.40625 
L 21 12.40625 
L 21 0 
L 10.6875 0 
z
" id="DejaVuSans-46"/>
      </defs>
      <g style="fill:#262626;" transform="translate(17.710938 226.471909)scale(0.154 -0.154)">
       <use xlink:href="#DejaVuSans-48"/>
       <use x="63.623047" xlink:href="#DejaVuSans-46"/>
       <use x="95.410156" xlink:href="#DejaVuSans-48"/>
       <use x="159.033203" xlink:href="#DejaVuSans-48"/>
      </g>
     </g>
    </g>
    <g id="ytick_2">
     <g id="line2d_2">
      <path clip-path="url(#p7801ab96d0)" d="M 67.5 181.950556 
L 486 181.950556 
" style="fill:none;stroke:#cccccc;stroke-linecap:round;stroke-width:2;"/>
     </g>
     <g id="text_5">
      <!-- 0.25 -->
      <defs>
       <path d="M 19.1875 8.296875 
L 53.609375 8.296875 
L 53.609375 0 
L 7.328125 0 
L 7.328125 8.296875 
Q 12.9375 14.109375 22.625 23.890625 
Q 32.328125 33.6875 34.8125 36.53125 
Q 39.546875 41.84375 41.421875 45.53125 
Q 43.3125 49.21875 43.3125 52.78125 
Q 43.3125 58.59375 39.234375 62.25 
Q 35.15625 65.921875 28.609375 65.921875 
Q 23.96875 65.921875 18.8125 64.3125 
Q 13.671875 62.703125 7.8125 59.421875 
L 7.8125 69.390625 
Q 13.765625 71.78125 18.9375 73 
Q 24.125 74.21875 28.421875 74.21875 
Q 39.75 74.21875 46.484375 68.546875 
Q 53.21875 62.890625 53.21875 53.421875 
Q 53.21875 48.921875 51.53125 44.890625 
Q 49.859375 40.875 45.40625 35.40625 
Q 44.1875 33.984375 37.640625 27.21875 
Q 31.109375 20.453125 19.1875 8.296875 
z
" id="DejaVuSans-50"/>
       <path d="M 10.796875 72.90625 
L 49.515625 72.90625 
L 49.515625 64.59375 
L 19.828125 64.59375 
L 19.828125 46.734375 
Q 21.96875 47.46875 24.109375 47.828125 
Q 26.265625 48.1875 28.421875 48.1875 
Q 40.625 48.1875 47.75 41.5 
Q 54.890625 34.8125 54.890625 23.390625 
Q 54.890625 11.625 47.5625 5.09375 
Q 40.234375 -1.421875 26.90625 -1.421875 
Q 22.3125 -1.421875 17.546875 -0.640625 
Q 12.796875 0.140625 7.71875 1.703125 
L 7.71875 11.625 
Q 12.109375 9.234375 16.796875 8.0625 
Q 21.484375 6.890625 26.703125 6.890625 
Q 35.15625 6.890625 40.078125 11.328125 
Q 45.015625 15.765625 45.015625 23.390625 
Q 45.015625 31 40.078125 35.4375 
Q 35.15625 39.890625 26.703125 39.890625 
Q 22.75 39.890625 18.8125 39.015625 
Q 14.890625 38.140625 10.796875 36.28125 
z
" id="DejaVuSans-53"/>
      </defs>
      <g style="fill:#262626;" transform="translate(17.710938 187.801353)scale(0.154 -0.154)">
       <use xlink:href="#DejaVuSans-48"/>
       <use x="63.623047" xlink:href="#DejaVuSans-46"/>
       <use x="95.410156" xlink:href="#DejaVuSans-50"/>
       <use x="159.033203" xlink:href="#DejaVuSans-53"/>
      </g>
     </g>
    </g>
    <g id="ytick_3">
     <g id="line2d_3">
      <path clip-path="url(#p7801ab96d0)" d="M 67.5 143.28 
L 486 143.28 
" style="fill:none;stroke:#cccccc;stroke-linecap:round;stroke-width:2;"/>
     </g>
     <g id="text_6">
      <!-- 0.50 -->
      <g style="fill:#262626;" transform="translate(17.710938 149.130797)scale(0.154 -0.154)">
       <use xlink:href="#DejaVuSans-48"/>
       <use x="63.623047" xlink:href="#DejaVuSans-46"/>
       <use x="95.410156" xlink:href="#DejaVuSans-53"/>
       <use x="159.033203" xlink:href="#DejaVuSans-48"/>
      </g>
     </g>
    </g>
    <g id="ytick_4">
     <g id="line2d_4">
      <path clip-path="url(#p7801ab96d0)" d="M 67.5 104.609444 
L 486 104.609444 
" style="fill:none;stroke:#cccccc;stroke-linecap:round;stroke-width:2;"/>
     </g>
     <g id="text_7">
      <!-- 0.75 -->
      <defs>
       <path d="M 8.203125 72.90625 
L 55.078125 72.90625 
L 55.078125 68.703125 
L 28.609375 0 
L 18.3125 0 
L 43.21875 64.59375 
L 8.203125 64.59375 
z
" id="DejaVuSans-55"/>
      </defs>
      <g style="fill:#262626;" transform="translate(17.710938 110.460241)scale(0.154 -0.154)">
       <use xlink:href="#DejaVuSans-48"/>
       <use x="63.623047" xlink:href="#DejaVuSans-46"/>
       <use x="95.410156" xlink:href="#DejaVuSans-55"/>
       <use x="159.033203" xlink:href="#DejaVuSans-53"/>
      </g>
     </g>
    </g>
    <g id="ytick_5">
     <g id="line2d_5">
      <path clip-path="url(#p7801ab96d0)" d="M 67.5 65.938888 
L 486 65.938888 
" style="fill:none;stroke:#cccccc;stroke-linecap:round;stroke-width:2;"/>
     </g>
     <g id="text_8">
      <!-- 1.00 -->
      <defs>
       <path d="M 12.40625 8.296875 
L 28.515625 8.296875 
L 28.515625 63.921875 
L 10.984375 60.40625 
L 10.984375 69.390625 
L 28.421875 72.90625 
L 38.28125 72.90625 
L 38.28125 8.296875 
L 54.390625 8.296875 
L 54.390625 0 
L 12.40625 0 
z
" id="DejaVuSans-49"/>
      </defs>
      <g style="fill:#262626;" transform="translate(17.710938 71.789685)scale(0.154 -0.154)">
       <use xlink:href="#DejaVuSans-49"/>
       <use x="63.623047" xlink:href="#DejaVuSans-46"/>
       <use x="95.410156" xlink:href="#DejaVuSans-48"/>
       <use x="159.033203" xlink:href="#DejaVuSans-48"/>
      </g>
     </g>
    </g>
    <g id="text_9">
     <!-- trueProp -->
     <defs>
      <path d="M 18.3125 70.21875 
L 18.3125 54.6875 
L 36.8125 54.6875 
L 36.8125 47.703125 
L 18.3125 47.703125 
L 18.3125 18.015625 
Q 18.3125 11.328125 20.140625 9.421875 
Q 21.96875 7.515625 27.59375 7.515625 
L 36.8125 7.515625 
L 36.8125 0 
L 27.59375 0 
Q 17.1875 0 13.234375 3.875 
Q 9.28125 7.765625 9.28125 18.015625 
L 9.28125 47.703125 
L 2.6875 47.703125 
L 2.6875 54.6875 
L 9.28125 54.6875 
L 9.28125 70.21875 
z
" id="DejaVuSans-116"/>
      <path d="M 41.109375 46.296875 
Q 39.59375 47.171875 37.8125 47.578125 
Q 36.03125 48 33.890625 48 
Q 26.265625 48 22.1875 43.046875 
Q 18.109375 38.09375 18.109375 28.8125 
L 18.109375 0 
L 9.078125 0 
L 9.078125 54.6875 
L 18.109375 54.6875 
L 18.109375 46.1875 
Q 20.953125 51.171875 25.484375 53.578125 
Q 30.03125 56 36.53125 56 
Q 37.453125 56 38.578125 55.875 
Q 39.703125 55.765625 41.0625 55.515625 
z
" id="DejaVuSans-114"/>
      <path d="M 8.5 21.578125 
L 8.5 54.6875 
L 17.484375 54.6875 
L 17.484375 21.921875 
Q 17.484375 14.15625 20.5 10.265625 
Q 23.53125 6.390625 29.59375 6.390625 
Q 36.859375 6.390625 41.078125 11.03125 
Q 45.3125 15.671875 45.3125 23.6875 
L 45.3125 54.6875 
L 54.296875 54.6875 
L 54.296875 0 
L 45.3125 0 
L 45.3125 8.40625 
Q 42.046875 3.421875 37.71875 1 
Q 33.40625 -1.421875 27.6875 -1.421875 
Q 18.265625 -1.421875 13.375 4.4375 
Q 8.5 10.296875 8.5 21.578125 
z
M 31.109375 56 
z
" id="DejaVuSans-117"/>
      <path d="M 19.671875 64.796875 
L 19.671875 37.40625 
L 32.078125 37.40625 
Q 38.96875 37.40625 42.71875 40.96875 
Q 46.484375 44.53125 46.484375 51.125 
Q 46.484375 57.671875 42.71875 61.234375 
Q 38.96875 64.796875 32.078125 64.796875 
z
M 9.8125 72.90625 
L 32.078125 72.90625 
Q 44.34375 72.90625 50.609375 67.359375 
Q 56.890625 61.8125 56.890625 51.125 
Q 56.890625 40.328125 50.609375 34.8125 
Q 44.34375 29.296875 32.078125 29.296875 
L 19.671875 29.296875 
L 19.671875 0 
L 9.8125 0 
z
" id="DejaVuSans-80"/>
     </defs>
     <g style="fill:#262626;" transform="translate(10.217062 179.172937)rotate(-90)scale(0.168 -0.168)">
      <use xlink:href="#DejaVuSans-116"/>
      <use x="39.208984" xlink:href="#DejaVuSans-114"/>
      <use x="80.322266" xlink:href="#DejaVuSans-117"/>
      <use x="143.701172" xlink:href="#DejaVuSans-101"/>
      <use x="205.224609" xlink:href="#DejaVuSans-80"/>
      <use x="263.777344" xlink:href="#DejaVuSans-114"/>
      <use x="302.640625" xlink:href="#DejaVuSans-111"/>
      <use x="363.822266" xlink:href="#DejaVuSans-112"/>
     </g>
    </g>
   </g>
   <g id="PolyCollection_1">
    <defs>
     <path d="M 172.125 -45.883636 
L 169.081099 -45.883636 
L 168.467831 -47.880331 
L 167.765501 -49.877025 
L 166.96877 -51.873719 
L 166.073504 -53.870413 
L 165.077049 -55.867107 
L 163.978484 -57.863802 
L 162.778811 -59.860496 
L 161.481089 -61.85719 
L 160.090477 -63.853884 
L 158.614174 -65.850579 
L 157.061267 -67.847273 
L 155.442453 -69.843967 
L 153.769679 -71.840661 
L 152.055675 -73.837355 
L 150.313439 -75.83405 
L 148.555667 -77.830744 
L 146.794193 -79.827438 
L 145.039455 -81.824132 
L 143.300037 -83.820826 
L 141.582319 -85.817521 
L 139.890271 -87.814215 
L 138.225408 -89.810909 
L 136.586926 -91.807603 
L 134.972017 -93.804298 
L 133.376356 -95.800992 
L 131.794718 -97.797686 
L 130.221711 -99.79438 
L 128.652557 -101.791074 
L 127.083872 -103.787769 
L 125.514394 -105.784463 
L 123.94558 -107.781157 
L 122.382044 -109.777851 
L 120.831778 -111.774545 
L 119.306127 -113.77124 
L 117.819515 -115.767934 
L 116.388921 -117.764628 
L 115.033129 -119.761322 
L 113.771796 -121.758017 
L 112.624403 -123.754711 
L 111.609147 -125.751405 
L 110.741852 -127.748099 
L 110.034985 -129.744793 
L 109.496837 -131.741488 
L 109.130941 -133.738182 
L 108.935765 -135.734876 
L 108.904712 -137.73157 
L 109.02644 -139.728264 
L 109.285474 -141.724959 
L 109.663076 -143.721653 
L 110.138331 -145.718347 
L 110.68936 -147.715041 
L 111.294592 -149.711736 
L 111.934011 -151.70843 
L 112.590291 -153.705124 
L 113.249756 -155.701818 
L 113.903096 -157.698512 
L 114.5458 -159.695207 
L 115.178293 -161.691901 
L 115.805756 -163.688595 
L 116.437668 -165.685289 
L 117.087094 -167.681983 
L 117.769774 -169.678678 
L 118.503085 -171.675372 
L 119.304926 -173.672066 
L 120.192613 -175.66876 
L 121.181838 -177.665455 
L 122.285757 -179.662149 
L 123.514247 -181.658843 
L 124.873362 -183.655537 
L 126.365013 -185.652231 
L 127.98687 -187.648926 
L 129.732468 -189.64562 
L 131.591512 -191.642314 
L 133.550325 -193.639008 
L 135.592431 -195.635702 
L 137.699207 -197.632397 
L 139.85058 -199.629091 
L 142.025727 -201.625785 
L 144.203746 -203.622479 
L 146.364271 -205.619174 
L 148.488013 -207.615868 
L 150.557211 -209.612562 
L 152.555987 -211.609256 
L 154.4706 -213.60595 
L 156.289613 -215.602645 
L 158.003964 -217.599339 
L 159.606965 -219.596033 
L 161.094224 -221.592727 
L 162.463523 -223.589421 
L 163.714641 -225.586116 
L 164.849147 -227.58281 
L 165.870172 -229.579504 
L 166.782166 -231.576198 
L 167.590652 -233.572893 
L 168.30198 -235.569587 
L 168.923099 -237.566281 
L 169.46133 -239.562975 
L 169.924174 -241.559669 
L 170.319133 -243.556364 
L 172.125 -243.556364 
L 172.125 -243.556364 
L 172.125 -241.559669 
L 172.125 -239.562975 
L 172.125 -237.566281 
L 172.125 -235.569587 
L 172.125 -233.572893 
L 172.125 -231.576198 
L 172.125 -229.579504 
L 172.125 -227.58281 
L 172.125 -225.586116 
L 172.125 -223.589421 
L 172.125 -221.592727 
L 172.125 -219.596033 
L 172.125 -217.599339 
L 172.125 -215.602645 
L 172.125 -213.60595 
L 172.125 -211.609256 
L 172.125 -209.612562 
L 172.125 -207.615868 
L 172.125 -205.619174 
L 172.125 -203.622479 
L 172.125 -201.625785 
L 172.125 -199.629091 
L 172.125 -197.632397 
L 172.125 -195.635702 
L 172.125 -193.639008 
L 172.125 -191.642314 
L 172.125 -189.64562 
L 172.125 -187.648926 
L 172.125 -185.652231 
L 172.125 -183.655537 
L 172.125 -181.658843 
L 172.125 -179.662149 
L 172.125 -177.665455 
L 172.125 -175.66876 
L 172.125 -173.672066 
L 172.125 -171.675372 
L 172.125 -169.678678 
L 172.125 -167.681983 
L 172.125 -165.685289 
L 172.125 -163.688595 
L 172.125 -161.691901 
L 172.125 -159.695207 
L 172.125 -157.698512 
L 172.125 -155.701818 
L 172.125 -153.705124 
L 172.125 -151.70843 
L 172.125 -149.711736 
L 172.125 -147.715041 
L 172.125 -145.718347 
L 172.125 -143.721653 
L 172.125 -141.724959 
L 172.125 -139.728264 
L 172.125 -137.73157 
L 172.125 -135.734876 
L 172.125 -133.738182 
L 172.125 -131.741488 
L 172.125 -129.744793 
L 172.125 -127.748099 
L 172.125 -125.751405 
L 172.125 -123.754711 
L 172.125 -121.758017 
L 172.125 -119.761322 
L 172.125 -117.764628 
L 172.125 -115.767934 
L 172.125 -113.77124 
L 172.125 -111.774545 
L 172.125 -109.777851 
L 172.125 -107.781157 
L 172.125 -105.784463 
L 172.125 -103.787769 
L 172.125 -101.791074 
L 172.125 -99.79438 
L 172.125 -97.797686 
L 172.125 -95.800992 
L 172.125 -93.804298 
L 172.125 -91.807603 
L 172.125 -89.810909 
L 172.125 -87.814215 
L 172.125 -85.817521 
L 172.125 -83.820826 
L 172.125 -81.824132 
L 172.125 -79.827438 
L 172.125 -77.830744 
L 172.125 -75.83405 
L 172.125 -73.837355 
L 172.125 -71.840661 
L 172.125 -69.843967 
L 172.125 -67.847273 
L 172.125 -65.850579 
L 172.125 -63.853884 
L 172.125 -61.85719 
L 172.125 -59.860496 
L 172.125 -57.863802 
L 172.125 -55.867107 
L 172.125 -53.870413 
L 172.125 -51.873719 
L 172.125 -49.877025 
L 172.125 -47.880331 
L 172.125 -45.883636 
z
" id="mbe1de7671a" style="stroke:#737373;stroke-width:3;"/>
    </defs>
    <g clip-path="url(#p7801ab96d0)">
     <use style="fill:#abc9ea;stroke:#737373;stroke-width:3;" x="0" xlink:href="#mbe1de7671a" y="288"/>
    </g>
   </g>
   <g id="PolyCollection_2">
    <defs>
     <path d="M 175.988686 -73.952911 
L 172.125 -73.952911 
L 172.125 -75.605756 
L 172.125 -77.258601 
L 172.125 -78.911446 
L 172.125 -80.564291 
L 172.125 -82.217136 
L 172.125 -83.86998 
L 172.125 -85.522825 
L 172.125 -87.17567 
L 172.125 -88.828515 
L 172.125 -90.48136 
L 172.125 -92.134204 
L 172.125 -93.787049 
L 172.125 -95.439894 
L 172.125 -97.092739 
L 172.125 -98.745584 
L 172.125 -100.398429 
L 172.125 -102.051273 
L 172.125 -103.704118 
L 172.125 -105.356963 
L 172.125 -107.009808 
L 172.125 -108.662653 
L 172.125 -110.315498 
L 172.125 -111.968342 
L 172.125 -113.621187 
L 172.125 -115.274032 
L 172.125 -116.926877 
L 172.125 -118.579722 
L 172.125 -120.232567 
L 172.125 -121.885411 
L 172.125 -123.538256 
L 172.125 -125.191101 
L 172.125 -126.843946 
L 172.125 -128.496791 
L 172.125 -130.149636 
L 172.125 -131.80248 
L 172.125 -133.455325 
L 172.125 -135.10817 
L 172.125 -136.761015 
L 172.125 -138.41386 
L 172.125 -140.066704 
L 172.125 -141.719549 
L 172.125 -143.372394 
L 172.125 -145.025239 
L 172.125 -146.678084 
L 172.125 -148.330929 
L 172.125 -149.983773 
L 172.125 -151.636618 
L 172.125 -153.289463 
L 172.125 -154.942308 
L 172.125 -156.595153 
L 172.125 -158.247998 
L 172.125 -159.900842 
L 172.125 -161.553687 
L 172.125 -163.206532 
L 172.125 -164.859377 
L 172.125 -166.512222 
L 172.125 -168.165067 
L 172.125 -169.817911 
L 172.125 -171.470756 
L 172.125 -173.123601 
L 172.125 -174.776446 
L 172.125 -176.429291 
L 172.125 -178.082136 
L 172.125 -179.73498 
L 172.125 -181.387825 
L 172.125 -183.04067 
L 172.125 -184.693515 
L 172.125 -186.34636 
L 172.125 -187.999204 
L 172.125 -189.652049 
L 172.125 -191.304894 
L 172.125 -192.957739 
L 172.125 -194.610584 
L 172.125 -196.263429 
L 172.125 -197.916273 
L 172.125 -199.569118 
L 172.125 -201.221963 
L 172.125 -202.874808 
L 172.125 -204.527653 
L 172.125 -206.180498 
L 172.125 -207.833342 
L 172.125 -209.486187 
L 172.125 -211.139032 
L 172.125 -212.791877 
L 172.125 -214.444722 
L 172.125 -216.097567 
L 172.125 -217.750411 
L 172.125 -219.403256 
L 172.125 -221.056101 
L 172.125 -222.708946 
L 172.125 -224.361791 
L 172.125 -226.014635 
L 172.125 -227.66748 
L 172.125 -229.320325 
L 172.125 -230.97317 
L 172.125 -232.626015 
L 172.125 -234.27886 
L 172.125 -235.931704 
L 172.125 -237.584549 
L 174.410206 -237.584549 
L 174.410206 -237.584549 
L 174.895997 -235.931704 
L 175.465169 -234.27886 
L 176.127855 -232.626015 
L 176.894659 -230.97317 
L 177.776541 -229.320325 
L 178.784681 -227.66748 
L 179.930303 -226.014635 
L 181.22447 -224.361791 
L 182.677841 -222.708946 
L 184.30039 -221.056101 
L 186.101081 -219.403256 
L 188.087505 -217.750411 
L 190.265478 -216.097567 
L 192.638607 -214.444722 
L 195.207829 -212.791877 
L 197.970936 -211.139032 
L 200.922118 -209.486187 
L 204.051517 -207.833342 
L 207.344847 -206.180498 
L 210.783096 -204.527653 
L 214.342335 -202.874808 
L 217.993679 -201.221963 
L 221.703419 -199.569118 
L 225.43335 -197.916273 
L 229.141314 -196.263429 
L 232.781957 -194.610584 
L 236.307706 -192.957739 
L 239.669932 -191.304894 
L 242.82028 -189.652049 
L 245.71211 -187.999204 
L 248.301999 -186.34636 
L 250.551231 -184.693515 
L 252.427214 -183.04067 
L 253.904736 -181.387825 
L 254.967009 -179.73498 
L 255.606426 -178.082136 
L 255.825 -176.429291 
L 255.634431 -174.776446 
L 255.05581 -173.123601 
L 254.118957 -171.470756 
L 252.861414 -169.817911 
L 251.327156 -168.165067 
L 249.565054 -166.512222 
L 247.627194 -164.859377 
L 245.567095 -163.206532 
L 243.437942 -161.553687 
L 241.290887 -159.900842 
L 239.173501 -158.247998 
L 237.128438 -156.595153 
L 235.192353 -154.942308 
L 233.395101 -153.289463 
L 231.75925 -151.636618 
L 230.299878 -149.983773 
L 229.024663 -148.330929 
L 227.934222 -146.678084 
L 227.022666 -145.025239 
L 226.278325 -143.372394 
L 225.6846 -141.719549 
L 225.22088 -140.066704 
L 224.8635 -138.41386 
L 224.586686 -136.761015 
L 224.363453 -135.10817 
L 224.166443 -133.455325 
L 223.968676 -131.80248 
L 223.744211 -130.149636 
L 223.468705 -128.496791 
L 223.119888 -126.843946 
L 222.677948 -125.191101 
L 222.125839 -123.538256 
L 221.449517 -121.885411 
L 220.63812 -120.232567 
L 219.68409 -118.579722 
L 218.583241 -116.926877 
L 217.334775 -115.274032 
L 215.941244 -113.621187 
L 214.408454 -111.968342 
L 212.745304 -110.315498 
L 210.963568 -108.662653 
L 209.077599 -107.009808 
L 207.103976 -105.356963 
L 205.061086 -103.704118 
L 202.968664 -102.051273 
L 200.847277 -100.398429 
L 198.717807 -98.745584 
L 196.600912 -97.092739 
L 194.516511 -95.439894 
L 192.483304 -93.787049 
L 190.518345 -92.134204 
L 188.636681 -90.48136 
L 186.851077 -88.828515 
L 185.171827 -87.17567 
L 183.606661 -85.522825 
L 182.160737 -83.86998 
L 180.836723 -82.217136 
L 179.634954 -80.564291 
L 178.553647 -78.911446 
L 177.589167 -77.258601 
L 176.736324 -75.605756 
L 175.988686 -73.952911 
z
" id="mea515457fa" style="stroke:#737373;stroke-width:3;"/>
    </defs>
    <g clip-path="url(#p7801ab96d0)">
     <use style="fill:#efb792;stroke:#737373;stroke-width:3;" x="0" xlink:href="#mea515457fa" y="288"/>
    </g>
   </g>
   <g id="PolyCollection_3">
    <defs>
     <path d="M 381.375 -101.830844 
L 376.359053 -101.830844 
L 375.473935 -103.143705 
L 374.478841 -104.456566 
L 373.369468 -105.769426 
L 372.143191 -107.082287 
L 370.799384 -108.395148 
L 369.33971 -109.708009 
L 367.768372 -111.02087 
L 366.092298 -112.333731 
L 364.321257 -113.646592 
L 362.46787 -114.959453 
L 360.547535 -116.272314 
L 358.578223 -117.585175 
L 356.580175 -118.898036 
L 354.575473 -120.210897 
L 352.587518 -121.523758 
L 350.640407 -122.836619 
L 348.758247 -124.14948 
L 346.964416 -125.462341 
L 345.280805 -126.775202 
L 343.727076 -128.088063 
L 342.319959 -129.400924 
L 341.072618 -130.713785 
L 339.994132 -132.026645 
L 339.089093 -133.339506 
L 338.357355 -134.652367 
L 337.793951 -135.965228 
L 337.389168 -137.278089 
L 337.128799 -138.59095 
L 336.994556 -139.903811 
L 336.964631 -141.216672 
L 337.014383 -142.529533 
L 337.117137 -143.842394 
L 337.24505 -145.155255 
L 337.370035 -146.468116 
L 337.464698 -147.780977 
L 337.50325 -149.093838 
L 337.46239 -150.406699 
L 337.322103 -151.71956 
L 337.066363 -153.032421 
L 336.683711 -154.345282 
L 336.167698 -155.658143 
L 335.517171 -156.971004 
L 334.73639 -158.283864 
L 333.834981 -159.596725 
L 332.827708 -160.909586 
L 331.73409 -162.222447 
L 330.577846 -163.535308 
L 329.386214 -164.848169 
L 328.189137 -166.16103 
L 327.018356 -167.473891 
L 325.906444 -168.786752 
L 324.8858 -170.099613 
L 323.987655 -171.412474 
L 323.241112 -172.725335 
L 322.672268 -174.038196 
L 322.303449 -175.351057 
L 322.152573 -176.663918 
L 322.232694 -177.976779 
L 322.551706 -179.28964 
L 323.11225 -180.602501 
L 323.911791 -181.915362 
L 324.942884 -183.228223 
L 326.19359 -184.541083 
L 327.648025 -185.853944 
L 329.287018 -187.166805 
L 331.088829 -188.479666 
L 333.029911 -189.792527 
L 335.085664 -191.105388 
L 337.231155 -192.418249 
L 339.441787 -193.73111 
L 341.693873 -195.043971 
L 343.96512 -196.356832 
L 346.234998 -197.669693 
L 348.485009 -198.982554 
L 350.698834 -200.295415 
L 352.862399 -201.608276 
L 354.963843 -202.921137 
L 356.993428 -204.233998 
L 358.94339 -205.546859 
L 360.807762 -206.85972 
L 362.58217 -208.172581 
L 364.263637 -209.485442 
L 365.850384 -210.798302 
L 367.341648 -212.111163 
L 368.73753 -213.424024 
L 370.038854 -214.736885 
L 371.247062 -216.049746 
L 372.364118 -217.362607 
L 373.392442 -218.675468 
L 374.334854 -219.988329 
L 375.194525 -221.30119 
L 375.974939 -222.614051 
L 376.679852 -223.926912 
L 377.313258 -225.239773 
L 377.879345 -226.552634 
L 378.38245 -227.865495 
L 378.827014 -229.178356 
L 379.217531 -230.491217 
L 379.558498 -231.804078 
L 381.375 -231.804078 
L 381.375 -231.804078 
L 381.375 -230.491217 
L 381.375 -229.178356 
L 381.375 -227.865495 
L 381.375 -226.552634 
L 381.375 -225.239773 
L 381.375 -223.926912 
L 381.375 -222.614051 
L 381.375 -221.30119 
L 381.375 -219.988329 
L 381.375 -218.675468 
L 381.375 -217.362607 
L 381.375 -216.049746 
L 381.375 -214.736885 
L 381.375 -213.424024 
L 381.375 -212.111163 
L 381.375 -210.798302 
L 381.375 -209.485442 
L 381.375 -208.172581 
L 381.375 -206.85972 
L 381.375 -205.546859 
L 381.375 -204.233998 
L 381.375 -202.921137 
L 381.375 -201.608276 
L 381.375 -200.295415 
L 381.375 -198.982554 
L 381.375 -197.669693 
L 381.375 -196.356832 
L 381.375 -195.043971 
L 381.375 -193.73111 
L 381.375 -192.418249 
L 381.375 -191.105388 
L 381.375 -189.792527 
L 381.375 -188.479666 
L 381.375 -187.166805 
L 381.375 -185.853944 
L 381.375 -184.541083 
L 381.375 -183.228223 
L 381.375 -181.915362 
L 381.375 -180.602501 
L 381.375 -179.28964 
L 381.375 -177.976779 
L 381.375 -176.663918 
L 381.375 -175.351057 
L 381.375 -174.038196 
L 381.375 -172.725335 
L 381.375 -171.412474 
L 381.375 -170.099613 
L 381.375 -168.786752 
L 381.375 -167.473891 
L 381.375 -166.16103 
L 381.375 -164.848169 
L 381.375 -163.535308 
L 381.375 -162.222447 
L 381.375 -160.909586 
L 381.375 -159.596725 
L 381.375 -158.283864 
L 381.375 -156.971004 
L 381.375 -155.658143 
L 381.375 -154.345282 
L 381.375 -153.032421 
L 381.375 -151.71956 
L 381.375 -150.406699 
L 381.375 -149.093838 
L 381.375 -147.780977 
L 381.375 -146.468116 
L 381.375 -145.155255 
L 381.375 -143.842394 
L 381.375 -142.529533 
L 381.375 -141.216672 
L 381.375 -139.903811 
L 381.375 -138.59095 
L 381.375 -137.278089 
L 381.375 -135.965228 
L 381.375 -134.652367 
L 381.375 -133.339506 
L 381.375 -132.026645 
L 381.375 -130.713785 
L 381.375 -129.400924 
L 381.375 -128.088063 
L 381.375 -126.775202 
L 381.375 -125.462341 
L 381.375 -124.14948 
L 381.375 -122.836619 
L 381.375 -121.523758 
L 381.375 -120.210897 
L 381.375 -118.898036 
L 381.375 -117.585175 
L 381.375 -116.272314 
L 381.375 -114.959453 
L 381.375 -113.646592 
L 381.375 -112.333731 
L 381.375 -111.02087 
L 381.375 -109.708009 
L 381.375 -108.395148 
L 381.375 -107.082287 
L 381.375 -105.769426 
L 381.375 -104.456566 
L 381.375 -103.143705 
L 381.375 -101.830844 
z
" id="mbae6c2b00e" style="stroke:#737373;stroke-width:3;"/>
    </defs>
    <g clip-path="url(#p7801ab96d0)">
     <use style="fill:#abc9ea;stroke:#737373;stroke-width:3;" x="0" xlink:href="#mbae6c2b00e" y="288"/>
    </g>
   </g>
   <g id="PolyCollection_4">
    <defs>
     <path d="M 391.434917 -112.160699 
L 381.375 -112.160699 
L 381.375 -113.041669 
L 381.375 -113.922639 
L 381.375 -114.80361 
L 381.375 -115.68458 
L 381.375 -116.56555 
L 381.375 -117.446521 
L 381.375 -118.327491 
L 381.375 -119.208461 
L 381.375 -120.089432 
L 381.375 -120.970402 
L 381.375 -121.851372 
L 381.375 -122.732343 
L 381.375 -123.613313 
L 381.375 -124.494283 
L 381.375 -125.375254 
L 381.375 -126.256224 
L 381.375 -127.137194 
L 381.375 -128.018165 
L 381.375 -128.899135 
L 381.375 -129.780105 
L 381.375 -130.661076 
L 381.375 -131.542046 
L 381.375 -132.423016 
L 381.375 -133.303987 
L 381.375 -134.184957 
L 381.375 -135.065927 
L 381.375 -135.946898 
L 381.375 -136.827868 
L 381.375 -137.708838 
L 381.375 -138.589809 
L 381.375 -139.470779 
L 381.375 -140.351749 
L 381.375 -141.23272 
L 381.375 -142.11369 
L 381.375 -142.99466 
L 381.375 -143.875631 
L 381.375 -144.756601 
L 381.375 -145.637571 
L 381.375 -146.518542 
L 381.375 -147.399512 
L 381.375 -148.280482 
L 381.375 -149.161453 
L 381.375 -150.042423 
L 381.375 -150.923393 
L 381.375 -151.804364 
L 381.375 -152.685334 
L 381.375 -153.566304 
L 381.375 -154.447275 
L 381.375 -155.328245 
L 381.375 -156.209216 
L 381.375 -157.090186 
L 381.375 -157.971156 
L 381.375 -158.852127 
L 381.375 -159.733097 
L 381.375 -160.614067 
L 381.375 -161.495038 
L 381.375 -162.376008 
L 381.375 -163.256978 
L 381.375 -164.137949 
L 381.375 -165.018919 
L 381.375 -165.899889 
L 381.375 -166.78086 
L 381.375 -167.66183 
L 381.375 -168.5428 
L 381.375 -169.423771 
L 381.375 -170.304741 
L 381.375 -171.185711 
L 381.375 -172.066682 
L 381.375 -172.947652 
L 381.375 -173.828622 
L 381.375 -174.709593 
L 381.375 -175.590563 
L 381.375 -176.471533 
L 381.375 -177.352504 
L 381.375 -178.233474 
L 381.375 -179.114444 
L 381.375 -179.995415 
L 381.375 -180.876385 
L 381.375 -181.757355 
L 381.375 -182.638326 
L 381.375 -183.519296 
L 381.375 -184.400266 
L 381.375 -185.281237 
L 381.375 -186.162207 
L 381.375 -187.043177 
L 381.375 -187.924148 
L 381.375 -188.805118 
L 381.375 -189.686088 
L 381.375 -190.567059 
L 381.375 -191.448029 
L 381.375 -192.328999 
L 381.375 -193.20997 
L 381.375 -194.09094 
L 381.375 -194.97191 
L 381.375 -195.852881 
L 381.375 -196.733851 
L 381.375 -197.614821 
L 381.375 -198.495792 
L 381.375 -199.376762 
L 385.40856 -199.376762 
L 385.40856 -199.376762 
L 386.114075 -198.495792 
L 386.906492 -197.614821 
L 387.789238 -196.733851 
L 388.764488 -195.852881 
L 389.832938 -194.97191 
L 390.993616 -194.09094 
L 392.243726 -193.20997 
L 393.578552 -192.328999 
L 394.991423 -191.448029 
L 396.473762 -190.567059 
L 398.015219 -189.686088 
L 399.603889 -188.805118 
L 401.226634 -187.924148 
L 402.869472 -187.043177 
L 404.518054 -186.162207 
L 406.158191 -185.281237 
L 407.776423 -184.400266 
L 409.360592 -183.519296 
L 410.900399 -182.638326 
L 412.387917 -181.757355 
L 413.818011 -180.876385 
L 415.188658 -179.995415 
L 416.501125 -179.114444 
L 417.759988 -178.233474 
L 418.972987 -177.352504 
L 420.150703 -176.471533 
L 421.306068 -175.590563 
L 422.453719 -174.709593 
L 423.609234 -173.828622 
L 424.788267 -172.947652 
L 426.005645 -172.066682 
L 427.274454 -171.185711 
L 428.605189 -170.304741 
L 430.004996 -169.423771 
L 431.477077 -168.5428 
L 433.020279 -167.66183 
L 434.62892 -166.78086 
L 436.292852 -165.899889 
L 437.99779 -165.018919 
L 439.725886 -164.137949 
L 441.456524 -163.256978 
L 443.167311 -162.376008 
L 444.835203 -161.495038 
L 446.437707 -160.614067 
L 447.954096 -159.733097 
L 449.366562 -158.852127 
L 450.661239 -157.971156 
L 451.829019 -157.090186 
L 452.866132 -156.209216 
L 453.774411 -155.328245 
L 454.561249 -154.447275 
L 455.239213 -153.566304 
L 455.825342 -152.685334 
L 456.340154 -151.804364 
L 456.806408 -150.923393 
L 457.247688 -150.042423 
L 457.686884 -149.161453 
L 458.144649 -148.280482 
L 458.637936 -147.399512 
L 459.178674 -146.518542 
L 459.772686 -145.637571 
L 460.418902 -144.756601 
L 461.108915 -143.875631 
L 461.826931 -142.99466 
L 462.550099 -142.11369 
L 463.249224 -141.23272 
L 463.889834 -140.351749 
L 464.43354 -139.470779 
L 464.83963 -138.589809 
L 465.066808 -137.708838 
L 465.075 -136.827868 
L 464.827129 -135.946898 
L 464.290779 -135.065927 
L 463.439657 -134.184957 
L 462.25479 -133.303987 
L 460.72541 -132.423016 
L 458.84948 -131.542046 
L 456.633845 -130.661076 
L 454.094029 -129.780105 
L 451.253672 -128.899135 
L 448.14367 -128.018165 
L 444.801053 -127.137194 
L 441.267678 -126.256224 
L 437.588783 -125.375254 
L 433.811501 -124.494283 
L 429.983375 -123.613313 
L 426.150953 -122.732343 
L 422.358512 -121.851372 
L 418.646956 -120.970402 
L 415.052916 -120.089432 
L 411.60808 -119.208461 
L 408.33875 -118.327491 
L 405.265622 -117.446521 
L 402.403786 -116.56555 
L 399.762908 -115.68458 
L 397.347572 -114.80361 
L 395.157751 -113.922639 
L 393.189368 -113.041669 
L 391.434917 -112.160699 
z
" id="m93a8aec327" style="stroke:#737373;stroke-width:3;"/>
    </defs>
    <g clip-path="url(#p7801ab96d0)">
     <use style="fill:#efb792;stroke:#737373;stroke-width:3;" x="0" xlink:href="#m93a8aec327" y="288"/>
    </g>
   </g>
   <g id="PathCollection_1"/>
   <g id="PathCollection_2"/>
   <g id="patch_3">
    <path clip-path="url(#p7801ab96d0)" d="M 172.125 220.621112 
L 172.125 220.621112 
L 172.125 220.621112 
L 172.125 220.621112 
z
" style="fill:#abc9ea;stroke:#737373;stroke-linejoin:miter;stroke-width:1.5;"/>
   </g>
   <g id="patch_4">
    <path clip-path="url(#p7801ab96d0)" d="M 172.125 220.621112 
L 172.125 220.621112 
L 172.125 220.621112 
L 172.125 220.621112 
z
" style="fill:#efb792;stroke:#737373;stroke-linejoin:miter;stroke-width:1.5;"/>
   </g>
   <g id="line2d_6">
    <path clip-path="url(#p7801ab96d0)" d="M 111.355684 159.853096 
L 172.125 159.853096 
" style="fill:none;stroke:#737373;stroke-dasharray:13.5,13.5;stroke-dashoffset:0;stroke-width:3;"/>
   </g>
   <g id="line2d_7">
    <path clip-path="url(#p7801ab96d0)" d="M 109.760882 154.32873 
L 172.125 154.32873 
" style="fill:none;stroke:#737373;stroke-dasharray:27,27;stroke-dashoffset:0;stroke-width:3;"/>
   </g>
   <g id="line2d_8">
    <path clip-path="url(#p7801ab96d0)" d="M 121.69127 110.133809 
L 172.125 110.133809 
" style="fill:none;stroke:#737373;stroke-dasharray:13.5,13.5;stroke-dashoffset:0;stroke-width:3;"/>
   </g>
   <g id="line2d_9">
    <path clip-path="url(#p7801ab96d0)" d="M 172.125 154.32873 
L 223.646028 154.32873 
" style="fill:none;stroke:#737373;stroke-dasharray:13.5,13.5;stroke-dashoffset:0;stroke-width:3;"/>
   </g>
   <g id="line2d_10">
    <path clip-path="url(#p7801ab96d0)" d="M 172.125 110.133809 
L 254.771612 110.133809 
" style="fill:none;stroke:#737373;stroke-dasharray:27,27;stroke-dashoffset:0;stroke-width:3;"/>
   </g>
   <g id="line2d_11">
    <path clip-path="url(#p7801ab96d0)" d="M 172.125 110.133809 
L 254.771612 110.133809 
" style="fill:none;stroke:#737373;stroke-dasharray:13.5,13.5;stroke-dashoffset:0;stroke-width:3;"/>
   </g>
   <g id="line2d_12">
    <path clip-path="url(#p7801ab96d0)" d="M 339.511952 154.32873 
L 381.375 154.32873 
" style="fill:none;stroke:#737373;stroke-dasharray:13.5,13.5;stroke-dashoffset:0;stroke-width:3;"/>
   </g>
   <g id="line2d_13">
    <path clip-path="url(#p7801ab96d0)" d="M 322.824117 110.133809 
L 381.375 110.133809 
" style="fill:none;stroke:#737373;stroke-dasharray:27,27;stroke-dashoffset:0;stroke-width:3;"/>
   </g>
   <g id="line2d_14">
    <path clip-path="url(#p7801ab96d0)" d="M 322.824117 110.133809 
L 381.375 110.133809 
" style="fill:none;stroke:#737373;stroke-dasharray:13.5,13.5;stroke-dashoffset:0;stroke-width:3;"/>
   </g>
   <g id="line2d_15">
    <path clip-path="url(#p7801ab96d0)" d="M 381.375 154.32873 
L 461.445992 154.32873 
" style="fill:none;stroke:#737373;stroke-dasharray:13.5,13.5;stroke-dashoffset:0;stroke-width:3;"/>
   </g>
   <g id="line2d_16">
    <path clip-path="url(#p7801ab96d0)" d="M 381.375 132.23127 
L 453.050417 132.23127 
" style="fill:none;stroke:#737373;stroke-dasharray:27,27;stroke-dashoffset:0;stroke-width:3;"/>
   </g>
   <g id="line2d_17">
    <path clip-path="url(#p7801ab96d0)" d="M 381.375 132.23127 
L 453.050417 132.23127 
" style="fill:none;stroke:#737373;stroke-dasharray:13.5,13.5;stroke-dashoffset:0;stroke-width:3;"/>
   </g>
   <g id="patch_5">
    <path d="M 67.5 252 
L 67.5 34.56 
" style="fill:none;stroke:#cccccc;stroke-linecap:square;stroke-linejoin:miter;stroke-width:2.5;"/>
   </g>
   <g id="patch_6">
    <path d="M 486 252 
L 486 34.56 
" style="fill:none;stroke:#cccccc;stroke-linecap:square;stroke-linejoin:miter;stroke-width:2.5;"/>
   </g>
   <g id="patch_7">
    <path d="M 67.5 252 
L 486 252 
" style="fill:none;stroke:#cccccc;stroke-linecap:square;stroke-linejoin:miter;stroke-width:2.5;"/>
   </g>
   <g id="patch_8">
    <path d="M 67.5 34.56 
L 486 34.56 
" style="fill:none;stroke:#cccccc;stroke-linecap:square;stroke-linejoin:miter;stroke-width:2.5;"/>
   </g>
   <g id="PathCollection_3">
    <defs>
     <path d="M 0 2.5 
C 0.663008 2.5 1.29895 2.236584 1.767767 1.767767 
C 2.236584 1.29895 2.5 0.663008 2.5 0 
C 2.5 -0.663008 2.236584 -1.29895 1.767767 -1.767767 
C 1.29895 -2.236584 0.663008 -2.5 0 -2.5 
C -0.663008 -2.5 -1.29895 -2.236584 -1.767767 -1.767767 
C -2.236584 -1.29895 -2.5 -0.663008 -2.5 0 
C -2.5 0.663008 -2.236584 1.29895 -1.767767 1.767767 
C -1.29895 2.236584 -0.663008 2.5 0 2.5 
z
" id="C0_0_dd7f066861"/>
    </defs>
    <g clip-path="url(#p7801ab96d0)">
     <use style="fill:#1f77b4;" x="130.275" xlink:href="#C0_0_dd7f066861" y="198.523652"/>
    </g>
    <g clip-path="url(#p7801ab96d0)">
     <use style="fill:#1f77b4;" x="125.025" xlink:href="#C0_0_dd7f066861" y="198.523652"/>
    </g>
    <g clip-path="url(#p7801ab96d0)">
     <use style="fill:#1f77b4;" x="130.275" xlink:href="#C0_0_dd7f066861" y="176.426191"/>
    </g>
    <g clip-path="url(#p7801ab96d0)">
     <use style="fill:#1f77b4;" x="130.275" xlink:href="#C0_0_dd7f066861" y="154.32873"/>
    </g>
    <g clip-path="url(#p7801ab96d0)">
     <use style="fill:#1f77b4;" x="125.025" xlink:href="#C0_0_dd7f066861" y="154.32873"/>
    </g>
    <g clip-path="url(#p7801ab96d0)">
     <use style="fill:#1f77b4;" x="135.525" xlink:href="#C0_0_dd7f066861" y="154.32873"/>
    </g>
    <g clip-path="url(#p7801ab96d0)">
     <use style="fill:#1f77b4;" x="119.775" xlink:href="#C0_0_dd7f066861" y="154.32873"/>
    </g>
    <g clip-path="url(#p7801ab96d0)">
     <use style="fill:#1f77b4;" x="130.275" xlink:href="#C0_0_dd7f066861" y="132.23127"/>
    </g>
    <g clip-path="url(#p7801ab96d0)">
     <use style="fill:#1f77b4;" x="130.275" xlink:href="#C0_0_dd7f066861" y="110.133809"/>
    </g>
    <g clip-path="url(#p7801ab96d0)">
     <use style="fill:#1f77b4;" x="125.025" xlink:href="#C0_0_dd7f066861" y="110.133809"/>
    </g>
    <g clip-path="url(#p7801ab96d0)">
     <use style="fill:#1f77b4;" x="135.525" xlink:href="#C0_0_dd7f066861" y="110.133809"/>
    </g>
    <g clip-path="url(#p7801ab96d0)">
     <use style="fill:#1f77b4;" x="130.275" xlink:href="#C0_0_dd7f066861" y="88.036348"/>
    </g>
   </g>
   <g id="PathCollection_4">
    <defs>
     <path d="M 0 2.5 
C 0.663008 2.5 1.29895 2.236584 1.767767 1.767767 
C 2.236584 1.29895 2.5 0.663008 2.5 0 
C 2.5 -0.663008 2.236584 -1.29895 1.767767 -1.767767 
C 1.29895 -2.236584 0.663008 -2.5 0 -2.5 
C -0.663008 -2.5 -1.29895 -2.236584 -1.767767 -1.767767 
C -2.236584 -1.29895 -2.5 -0.663008 -2.5 0 
C -2.5 0.663008 -2.236584 1.29895 -1.767767 1.767767 
C -1.29895 2.236584 -0.663008 2.5 0 2.5 
z
" id="C1_0_17540a2741"/>
    </defs>
    <g clip-path="url(#p7801ab96d0)">
     <use style="fill:#ff7f0e;" x="213.975" xlink:href="#C1_0_17540a2741" y="176.426191"/>
    </g>
    <g clip-path="url(#p7801ab96d0)">
     <use style="fill:#ff7f0e;" x="208.725" xlink:href="#C1_0_17540a2741" y="176.426191"/>
    </g>
    <g clip-path="url(#p7801ab96d0)">
     <use style="fill:#ff7f0e;" x="213.975" xlink:href="#C1_0_17540a2741" y="154.32873"/>
    </g>
    <g clip-path="url(#p7801ab96d0)">
     <use style="fill:#ff7f0e;" x="208.725" xlink:href="#C1_0_17540a2741" y="154.32873"/>
    </g>
    <g clip-path="url(#p7801ab96d0)">
     <use style="fill:#ff7f0e;" x="213.975" xlink:href="#C1_0_17540a2741" y="132.23127"/>
    </g>
    <g clip-path="url(#p7801ab96d0)">
     <use style="fill:#ff7f0e;" x="213.975" xlink:href="#C1_0_17540a2741" y="110.133809"/>
    </g>
    <g clip-path="url(#p7801ab96d0)">
     <use style="fill:#ff7f0e;" x="208.725" xlink:href="#C1_0_17540a2741" y="110.133809"/>
    </g>
    <g clip-path="url(#p7801ab96d0)">
     <use style="fill:#ff7f0e;" x="219.225" xlink:href="#C1_0_17540a2741" y="110.133809"/>
    </g>
    <g clip-path="url(#p7801ab96d0)">
     <use style="fill:#ff7f0e;" x="203.475" xlink:href="#C1_0_17540a2741" y="110.133809"/>
    </g>
    <g clip-path="url(#p7801ab96d0)">
     <use style="fill:#ff7f0e;" x="224.475" xlink:href="#C1_0_17540a2741" y="110.133809"/>
    </g>
    <g clip-path="url(#p7801ab96d0)">
     <use style="fill:#ff7f0e;" x="213.975" xlink:href="#C1_0_17540a2741" y="88.036348"/>
    </g>
   </g>
   <g id="PathCollection_5">
    <defs>
     <path d="M 0 2.5 
C 0.663008 2.5 1.29895 2.236584 1.767767 1.767767 
C 2.236584 1.29895 2.5 0.663008 2.5 0 
C 2.5 -0.663008 2.236584 -1.29895 1.767767 -1.767767 
C 1.29895 -2.236584 0.663008 -2.5 0 -2.5 
C -0.663008 -2.5 -1.29895 -2.236584 -1.767767 -1.767767 
C -2.236584 -1.29895 -2.5 -0.663008 -2.5 0 
C -2.5 0.663008 -2.236584 1.29895 -1.767767 1.767767 
C -1.29895 2.236584 -0.663008 2.5 0 2.5 
z
" id="C2_0_7aa7d6798d"/>
    </defs>
    <g clip-path="url(#p7801ab96d0)">
     <use style="fill:#1f77b4;" x="339.525" xlink:href="#C2_0_7aa7d6798d" y="154.32873"/>
    </g>
    <g clip-path="url(#p7801ab96d0)">
     <use style="fill:#1f77b4;" x="334.275" xlink:href="#C2_0_7aa7d6798d" y="154.32873"/>
    </g>
    <g clip-path="url(#p7801ab96d0)">
     <use style="fill:#1f77b4;" x="344.775" xlink:href="#C2_0_7aa7d6798d" y="154.32873"/>
    </g>
    <g clip-path="url(#p7801ab96d0)">
     <use style="fill:#1f77b4;" x="339.525" xlink:href="#C2_0_7aa7d6798d" y="132.23127"/>
    </g>
    <g clip-path="url(#p7801ab96d0)">
     <use style="fill:#1f77b4;" x="339.525" xlink:href="#C2_0_7aa7d6798d" y="110.133809"/>
    </g>
    <g clip-path="url(#p7801ab96d0)">
     <use style="fill:#1f77b4;" x="334.275" xlink:href="#C2_0_7aa7d6798d" y="110.133809"/>
    </g>
    <g clip-path="url(#p7801ab96d0)">
     <use style="fill:#1f77b4;" x="344.775" xlink:href="#C2_0_7aa7d6798d" y="110.133809"/>
    </g>
    <g clip-path="url(#p7801ab96d0)">
     <use style="fill:#1f77b4;" x="329.025" xlink:href="#C2_0_7aa7d6798d" y="110.133809"/>
    </g>
    <g clip-path="url(#p7801ab96d0)">
     <use style="fill:#1f77b4;" x="339.525" xlink:href="#C2_0_7aa7d6798d" y="88.036348"/>
    </g>
   </g>
   <g id="PathCollection_6">
    <defs>
     <path d="M 0 2.5 
C 0.663008 2.5 1.29895 2.236584 1.767767 1.767767 
C 2.236584 1.29895 2.5 0.663008 2.5 0 
C 2.5 -0.663008 2.236584 -1.29895 1.767767 -1.767767 
C 1.29895 -2.236584 0.663008 -2.5 0 -2.5 
C -0.663008 -2.5 -1.29895 -2.236584 -1.767767 -1.767767 
C -2.236584 -1.29895 -2.5 -0.663008 -2.5 0 
C -2.5 0.663008 -2.236584 1.29895 -1.767767 1.767767 
C -1.29895 2.236584 -0.663008 2.5 0 2.5 
z
" id="C3_0_b3dae5f28a"/>
    </defs>
    <g clip-path="url(#p7801ab96d0)">
     <use style="fill:#ff7f0e;" x="423.225" xlink:href="#C3_0_b3dae5f28a" y="154.32873"/>
    </g>
    <g clip-path="url(#p7801ab96d0)">
     <use style="fill:#ff7f0e;" x="417.975" xlink:href="#C3_0_b3dae5f28a" y="154.32873"/>
    </g>
    <g clip-path="url(#p7801ab96d0)">
     <use style="fill:#ff7f0e;" x="428.475" xlink:href="#C3_0_b3dae5f28a" y="154.32873"/>
    </g>
    <g clip-path="url(#p7801ab96d0)">
     <use style="fill:#ff7f0e;" x="412.725" xlink:href="#C3_0_b3dae5f28a" y="154.32873"/>
    </g>
    <g clip-path="url(#p7801ab96d0)">
     <use style="fill:#ff7f0e;" x="433.725" xlink:href="#C3_0_b3dae5f28a" y="154.32873"/>
    </g>
    <g clip-path="url(#p7801ab96d0)">
     <use style="fill:#ff7f0e;" x="423.225" xlink:href="#C3_0_b3dae5f28a" y="132.23127"/>
    </g>
    <g clip-path="url(#p7801ab96d0)">
     <use style="fill:#ff7f0e;" x="417.975" xlink:href="#C3_0_b3dae5f28a" y="132.23127"/>
    </g>
    <g clip-path="url(#p7801ab96d0)">
     <use style="fill:#ff7f0e;" x="428.475" xlink:href="#C3_0_b3dae5f28a" y="132.23127"/>
    </g>
    <g clip-path="url(#p7801ab96d0)">
     <use style="fill:#ff7f0e;" x="412.725" xlink:href="#C3_0_b3dae5f28a" y="132.23127"/>
    </g>
    <g clip-path="url(#p7801ab96d0)">
     <use style="fill:#ff7f0e;" x="423.225" xlink:href="#C3_0_b3dae5f28a" y="110.133809"/>
    </g>
    <g clip-path="url(#p7801ab96d0)">
     <use style="fill:#ff7f0e;" x="417.975" xlink:href="#C3_0_b3dae5f28a" y="110.133809"/>
    </g>
   </g>
   <g id="text_10">
    <!-- Number of true in the first and -->
    <defs>
     <path d="M 9.8125 72.90625 
L 23.09375 72.90625 
L 55.421875 11.921875 
L 55.421875 72.90625 
L 64.984375 72.90625 
L 64.984375 0 
L 51.703125 0 
L 19.390625 60.984375 
L 19.390625 0 
L 9.8125 0 
z
" id="DejaVuSans-78"/>
     <path d="M 48.6875 27.296875 
Q 48.6875 37.203125 44.609375 42.84375 
Q 40.53125 48.484375 33.40625 48.484375 
Q 26.265625 48.484375 22.1875 42.84375 
Q 18.109375 37.203125 18.109375 27.296875 
Q 18.109375 17.390625 22.1875 11.75 
Q 26.265625 6.109375 33.40625 6.109375 
Q 40.53125 6.109375 44.609375 11.75 
Q 48.6875 17.390625 48.6875 27.296875 
z
M 18.109375 46.390625 
Q 20.953125 51.265625 25.265625 53.625 
Q 29.59375 56 35.59375 56 
Q 45.5625 56 51.78125 48.09375 
Q 58.015625 40.1875 58.015625 27.296875 
Q 58.015625 14.40625 51.78125 6.484375 
Q 45.5625 -1.421875 35.59375 -1.421875 
Q 29.59375 -1.421875 25.265625 0.953125 
Q 20.953125 3.328125 18.109375 8.203125 
L 18.109375 0 
L 9.078125 0 
L 9.078125 75.984375 
L 18.109375 75.984375 
z
" id="DejaVuSans-98"/>
     <path id="DejaVuSans-32"/>
     <path d="M 37.109375 75.984375 
L 37.109375 68.5 
L 28.515625 68.5 
Q 23.6875 68.5 21.796875 66.546875 
Q 19.921875 64.59375 19.921875 59.515625 
L 19.921875 54.6875 
L 34.71875 54.6875 
L 34.71875 47.703125 
L 19.921875 47.703125 
L 19.921875 0 
L 10.890625 0 
L 10.890625 47.703125 
L 2.296875 47.703125 
L 2.296875 54.6875 
L 10.890625 54.6875 
L 10.890625 58.5 
Q 10.890625 67.625 15.140625 71.796875 
Q 19.390625 75.984375 28.609375 75.984375 
z
" id="DejaVuSans-102"/>
     <path d="M 54.890625 33.015625 
L 54.890625 0 
L 45.90625 0 
L 45.90625 32.71875 
Q 45.90625 40.484375 42.875 44.328125 
Q 39.84375 48.1875 33.796875 48.1875 
Q 26.515625 48.1875 22.3125 43.546875 
Q 18.109375 38.921875 18.109375 30.90625 
L 18.109375 0 
L 9.078125 0 
L 9.078125 54.6875 
L 18.109375 54.6875 
L 18.109375 46.1875 
Q 21.34375 51.125 25.703125 53.5625 
Q 30.078125 56 35.796875 56 
Q 45.21875 56 50.046875 50.171875 
Q 54.890625 44.34375 54.890625 33.015625 
z
" id="DejaVuSans-110"/>
     <path d="M 54.890625 33.015625 
L 54.890625 0 
L 45.90625 0 
L 45.90625 32.71875 
Q 45.90625 40.484375 42.875 44.328125 
Q 39.84375 48.1875 33.796875 48.1875 
Q 26.515625 48.1875 22.3125 43.546875 
Q 18.109375 38.921875 18.109375 30.90625 
L 18.109375 0 
L 9.078125 0 
L 9.078125 75.984375 
L 18.109375 75.984375 
L 18.109375 46.1875 
Q 21.34375 51.125 25.703125 53.5625 
Q 30.078125 56 35.796875 56 
Q 45.21875 56 50.046875 50.171875 
Q 54.890625 44.34375 54.890625 33.015625 
z
" id="DejaVuSans-104"/>
     <path d="M 44.28125 53.078125 
L 44.28125 44.578125 
Q 40.484375 46.53125 36.375 47.5 
Q 32.28125 48.484375 27.875 48.484375 
Q 21.1875 48.484375 17.84375 46.4375 
Q 14.5 44.390625 14.5 40.28125 
Q 14.5 37.15625 16.890625 35.375 
Q 19.28125 33.59375 26.515625 31.984375 
L 29.59375 31.296875 
Q 39.15625 29.25 43.1875 25.515625 
Q 47.21875 21.78125 47.21875 15.09375 
Q 47.21875 7.46875 41.1875 3.015625 
Q 35.15625 -1.421875 24.609375 -1.421875 
Q 20.21875 -1.421875 15.453125 -0.5625 
Q 10.6875 0.296875 5.421875 2 
L 5.421875 11.28125 
Q 10.40625 8.6875 15.234375 7.390625 
Q 20.0625 6.109375 24.8125 6.109375 
Q 31.15625 6.109375 34.5625 8.28125 
Q 37.984375 10.453125 37.984375 14.40625 
Q 37.984375 18.0625 35.515625 20.015625 
Q 33.0625 21.96875 24.703125 23.78125 
L 21.578125 24.515625 
Q 13.234375 26.265625 9.515625 29.90625 
Q 5.8125 33.546875 5.8125 39.890625 
Q 5.8125 47.609375 11.28125 51.796875 
Q 16.75 56 26.8125 56 
Q 31.78125 56 36.171875 55.265625 
Q 40.578125 54.546875 44.28125 53.078125 
z
" id="DejaVuSans-115"/>
     <path d="M 34.28125 27.484375 
Q 23.390625 27.484375 19.1875 25 
Q 14.984375 22.515625 14.984375 16.5 
Q 14.984375 11.71875 18.140625 8.90625 
Q 21.296875 6.109375 26.703125 6.109375 
Q 34.1875 6.109375 38.703125 11.40625 
Q 43.21875 16.703125 43.21875 25.484375 
L 43.21875 27.484375 
z
M 52.203125 31.203125 
L 52.203125 0 
L 43.21875 0 
L 43.21875 8.296875 
Q 40.140625 3.328125 35.546875 0.953125 
Q 30.953125 -1.421875 24.3125 -1.421875 
Q 15.921875 -1.421875 10.953125 3.296875 
Q 6 8.015625 6 15.921875 
Q 6 25.140625 12.171875 29.828125 
Q 18.359375 34.515625 30.609375 34.515625 
L 43.21875 34.515625 
L 43.21875 35.40625 
Q 43.21875 41.609375 39.140625 45 
Q 35.0625 48.390625 27.6875 48.390625 
Q 23 48.390625 18.546875 47.265625 
Q 14.109375 46.140625 10.015625 43.890625 
L 10.015625 52.203125 
Q 14.9375 54.109375 19.578125 55.046875 
Q 24.21875 56 28.609375 56 
Q 40.484375 56 46.34375 49.84375 
Q 52.203125 43.703125 52.203125 31.203125 
z
" id="DejaVuSans-97"/>
    </defs>
    <g style="fill:#262626;" transform="translate(147.99375 9.747675)scale(0.168 -0.168)">
     <use xlink:href="#DejaVuSans-78"/>
     <use x="74.804688" xlink:href="#DejaVuSans-117"/>
     <use x="138.183594" xlink:href="#DejaVuSans-109"/>
     <use x="235.595703" xlink:href="#DejaVuSans-98"/>
     <use x="299.072266" xlink:href="#DejaVuSans-101"/>
     <use x="360.595703" xlink:href="#DejaVuSans-114"/>
     <use x="401.708984" xlink:href="#DejaVuSans-32"/>
     <use x="433.496094" xlink:href="#DejaVuSans-111"/>
     <use x="494.677734" xlink:href="#DejaVuSans-102"/>
     <use x="529.882812" xlink:href="#DejaVuSans-32"/>
     <use x="561.669922" xlink:href="#DejaVuSans-116"/>
     <use x="600.878906" xlink:href="#DejaVuSans-114"/>
     <use x="641.992188" xlink:href="#DejaVuSans-117"/>
     <use x="705.371094" xlink:href="#DejaVuSans-101"/>
     <use x="766.894531" xlink:href="#DejaVuSans-32"/>
     <use x="798.681641" xlink:href="#DejaVuSans-105"/>
     <use x="826.464844" xlink:href="#DejaVuSans-110"/>
     <use x="889.84375" xlink:href="#DejaVuSans-32"/>
     <use x="921.630859" xlink:href="#DejaVuSans-116"/>
     <use x="960.839844" xlink:href="#DejaVuSans-104"/>
     <use x="1024.21875" xlink:href="#DejaVuSans-101"/>
     <use x="1085.742188" xlink:href="#DejaVuSans-32"/>
     <use x="1117.529297" xlink:href="#DejaVuSans-102"/>
     <use x="1152.734375" xlink:href="#DejaVuSans-105"/>
     <use x="1180.517578" xlink:href="#DejaVuSans-114"/>
     <use x="1221.630859" xlink:href="#DejaVuSans-115"/>
     <use x="1273.730469" xlink:href="#DejaVuSans-116"/>
     <use x="1312.939453" xlink:href="#DejaVuSans-32"/>
     <use x="1344.726562" xlink:href="#DejaVuSans-97"/>
     <use x="1406.005859" xlink:href="#DejaVuSans-110"/>
     <use x="1469.384766" xlink:href="#DejaVuSans-100"/>
    </g>
    <!-- second sequence in VR and Computer -->
    <defs>
     <path d="M 14.796875 27.296875 
Q 14.796875 17.390625 18.875 11.75 
Q 22.953125 6.109375 30.078125 6.109375 
Q 37.203125 6.109375 41.296875 11.75 
Q 45.40625 17.390625 45.40625 27.296875 
Q 45.40625 37.203125 41.296875 42.84375 
Q 37.203125 48.484375 30.078125 48.484375 
Q 22.953125 48.484375 18.875 42.84375 
Q 14.796875 37.203125 14.796875 27.296875 
z
M 45.40625 8.203125 
Q 42.578125 3.328125 38.25 0.953125 
Q 33.9375 -1.421875 27.875 -1.421875 
Q 17.96875 -1.421875 11.734375 6.484375 
Q 5.515625 14.40625 5.515625 27.296875 
Q 5.515625 40.1875 11.734375 48.09375 
Q 17.96875 56 27.875 56 
Q 33.9375 56 38.25 53.625 
Q 42.578125 51.265625 45.40625 46.390625 
L 45.40625 54.6875 
L 54.390625 54.6875 
L 54.390625 -20.796875 
L 45.40625 -20.796875 
z
" id="DejaVuSans-113"/>
    </defs>
    <g style="fill:#262626;" transform="translate(116.160375 28.56)scale(0.168 -0.168)">
     <use xlink:href="#DejaVuSans-115"/>
     <use x="52.099609" xlink:href="#DejaVuSans-101"/>
     <use x="113.623047" xlink:href="#DejaVuSans-99"/>
     <use x="168.603516" xlink:href="#DejaVuSans-111"/>
     <use x="229.785156" xlink:href="#DejaVuSans-110"/>
     <use x="293.164062" xlink:href="#DejaVuSans-100"/>
     <use x="356.640625" xlink:href="#DejaVuSans-32"/>
     <use x="388.427734" xlink:href="#DejaVuSans-115"/>
     <use x="440.527344" xlink:href="#DejaVuSans-101"/>
     <use x="502.050781" xlink:href="#DejaVuSans-113"/>
     <use x="565.527344" xlink:href="#DejaVuSans-117"/>
     <use x="628.90625" xlink:href="#DejaVuSans-101"/>
     <use x="690.429688" xlink:href="#DejaVuSans-110"/>
     <use x="753.808594" xlink:href="#DejaVuSans-99"/>
     <use x="808.789062" xlink:href="#DejaVuSans-101"/>
     <use x="870.3125" xlink:href="#DejaVuSans-32"/>
     <use x="902.099609" xlink:href="#DejaVuSans-105"/>
     <use x="929.882812" xlink:href="#DejaVuSans-110"/>
     <use x="993.261719" xlink:href="#DejaVuSans-32"/>
     <use x="1025.048828" xlink:href="#DejaVuSans-86"/>
     <use x="1093.457031" xlink:href="#DejaVuSans-82"/>
     <use x="1162.939453" xlink:href="#DejaVuSans-32"/>
     <use x="1194.726562" xlink:href="#DejaVuSans-97"/>
     <use x="1256.005859" xlink:href="#DejaVuSans-110"/>
     <use x="1319.384766" xlink:href="#DejaVuSans-100"/>
     <use x="1382.861328" xlink:href="#DejaVuSans-32"/>
     <use x="1414.648438" xlink:href="#DejaVuSans-67"/>
     <use x="1484.472656" xlink:href="#DejaVuSans-111"/>
     <use x="1545.654297" xlink:href="#DejaVuSans-109"/>
     <use x="1643.066406" xlink:href="#DejaVuSans-112"/>
     <use x="1706.542969" xlink:href="#DejaVuSans-117"/>
     <use x="1769.921875" xlink:href="#DejaVuSans-116"/>
     <use x="1809.130859" xlink:href="#DejaVuSans-101"/>
     <use x="1870.654297" xlink:href="#DejaVuSans-114"/>
    </g>
   </g>
   <g id="legend_1">
    <g id="patch_9">
     <path d="M 209.316813 244.3 
L 344.183188 244.3 
Q 347.263188 244.3 347.263188 241.22 
L 347.263188 128.3835 
Q 347.263188 125.3035 344.183188 125.3035 
L 209.316813 125.3035 
Q 206.236813 125.3035 206.236813 128.3835 
L 206.236813 241.22 
Q 206.236813 244.3 209.316813 244.3 
z
" style="fill:#ffffff;opacity:0.8;stroke:#cccccc;stroke-linejoin:miter;stroke-width:2;"/>
    </g>
    <g id="text_11">
     <!-- sequenceOrder -->
     <defs>
      <path d="M 39.40625 66.21875 
Q 28.65625 66.21875 22.328125 58.203125 
Q 16.015625 50.203125 16.015625 36.375 
Q 16.015625 22.609375 22.328125 14.59375 
Q 28.65625 6.59375 39.40625 6.59375 
Q 50.140625 6.59375 56.421875 14.59375 
Q 62.703125 22.609375 62.703125 36.375 
Q 62.703125 50.203125 56.421875 58.203125 
Q 50.140625 66.21875 39.40625 66.21875 
z
M 39.40625 74.21875 
Q 54.734375 74.21875 63.90625 63.9375 
Q 73.09375 53.65625 73.09375 36.375 
Q 73.09375 19.140625 63.90625 8.859375 
Q 54.734375 -1.421875 39.40625 -1.421875 
Q 24.03125 -1.421875 14.8125 8.828125 
Q 5.609375 19.09375 5.609375 36.375 
Q 5.609375 53.65625 14.8125 63.9375 
Q 24.03125 74.21875 39.40625 74.21875 
z
" id="DejaVuSans-79"/>
     </defs>
     <g style="fill:#262626;" transform="translate(212.396813 144.228875)scale(0.168 -0.168)">
      <use xlink:href="#DejaVuSans-115"/>
      <use x="52.099609" xlink:href="#DejaVuSans-101"/>
      <use x="113.623047" xlink:href="#DejaVuSans-113"/>
      <use x="177.099609" xlink:href="#DejaVuSans-117"/>
      <use x="240.478516" xlink:href="#DejaVuSans-101"/>
      <use x="302.001953" xlink:href="#DejaVuSans-110"/>
      <use x="365.380859" xlink:href="#DejaVuSans-99"/>
      <use x="420.361328" xlink:href="#DejaVuSans-101"/>
      <use x="481.884766" xlink:href="#DejaVuSans-79"/>
      <use x="560.595703" xlink:href="#DejaVuSans-114"/>
      <use x="599.958984" xlink:href="#DejaVuSans-100"/>
      <use x="663.435547" xlink:href="#DejaVuSans-101"/>
      <use x="724.958984" xlink:href="#DejaVuSans-114"/>
     </g>
    </g>
    <g id="patch_10">
     <path d="M 250.290875 167.124344 
L 281.090875 167.124344 
L 281.090875 156.344344 
L 250.290875 156.344344 
z
" style="fill:#abc9ea;stroke:#737373;stroke-linejoin:miter;stroke-width:1.5;"/>
    </g>
    <g id="text_12">
     <!-- 1 -->
     <g style="fill:#262626;" transform="translate(293.410875 167.124344)scale(0.154 -0.154)">
      <use xlink:href="#DejaVuSans-49"/>
     </g>
    </g>
    <g id="patch_11">
     <path d="M 250.290875 189.728656 
L 281.090875 189.728656 
L 281.090875 178.948656 
L 250.290875 178.948656 
z
" style="fill:#efb792;stroke:#737373;stroke-linejoin:miter;stroke-width:1.5;"/>
    </g>
    <g id="text_13">
     <!-- 2 -->
     <g style="fill:#262626;" transform="translate(293.410875 189.728656)scale(0.154 -0.154)">
      <use xlink:href="#DejaVuSans-50"/>
     </g>
    </g>
    <g id="PathCollection_7">
     <defs>
      <path d="M 0 3.872983 
C 1.027127 3.872983 2.012324 3.464901 2.738613 2.738613 
C 3.464901 2.012324 3.872983 1.027127 3.872983 0 
C 3.872983 -1.027127 3.464901 -2.012324 2.738613 -2.738613 
C 2.012324 -3.464901 1.027127 -3.872983 0 -3.872983 
C -1.027127 -3.872983 -2.012324 -3.464901 -2.738613 -2.738613 
C -3.464901 -2.012324 -3.872983 -1.027127 -3.872983 0 
C -3.872983 1.027127 -3.464901 2.012324 -2.738613 2.738613 
C -2.012324 3.464901 -1.027127 3.872983 0 3.872983 
z
" id="m44715f8984" style="stroke:#1f77b4;stroke-width:2;"/>
     </defs>
     <g>
      <use style="fill:#1f77b4;stroke:#1f77b4;stroke-width:2;" x="265.690875" xlink:href="#m44715f8984" y="208.290469"/>
     </g>
    </g>
    <g id="text_14">
     <!-- 1 -->
     <g style="fill:#262626;" transform="translate(293.410875 212.332969)scale(0.154 -0.154)">
      <use xlink:href="#DejaVuSans-49"/>
     </g>
    </g>
    <g id="PathCollection_8">
     <defs>
      <path d="M 0 3.872983 
C 1.027127 3.872983 2.012324 3.464901 2.738613 2.738613 
C 3.464901 2.012324 3.872983 1.027127 3.872983 0 
C 3.872983 -1.027127 3.464901 -2.012324 2.738613 -2.738613 
C 2.012324 -3.464901 1.027127 -3.872983 0 -3.872983 
C -1.027127 -3.872983 -2.012324 -3.464901 -2.738613 -2.738613 
C -3.464901 -2.012324 -3.872983 -1.027127 -3.872983 0 
C -3.872983 1.027127 -3.464901 2.012324 -2.738613 2.738613 
C -2.012324 3.464901 -1.027127 3.872983 0 3.872983 
z
" id="m41e83e5ccb" style="stroke:#ff7f0e;stroke-width:2;"/>
     </defs>
     <g>
      <use style="fill:#ff7f0e;stroke:#ff7f0e;stroke-width:2;" x="265.690875" xlink:href="#m41e83e5ccb" y="230.894781"/>
     </g>
    </g>
    <g id="text_15">
     <!-- 2 -->
     <g style="fill:#262626;" transform="translate(293.410875 234.937281)scale(0.154 -0.154)">
      <use xlink:href="#DejaVuSans-50"/>
     </g>
    </g>
   </g>
  </g>
 </g>
 <defs>
  <clipPath id="p7801ab96d0">
   <rect height="217.44" width="418.5" x="67.5" y="34.56"/>
  </clipPath>
 </defs>
</svg>
