<?xml version="1.0" encoding="utf-8" standalone="no"?>
<!DOCTYPE svg PUBLIC "-//W3C//DTD SVG 1.1//EN"
  "http://www.w3.org/Graphics/SVG/1.1/DTD/svg11.dtd">
<!-- Created with matplotlib (https://matplotlib.org/) -->
<svg height="288pt" version="1.1" viewBox="0 0 540 288" width="540pt" xmlns="http://www.w3.org/2000/svg" xmlns:xlink="http://www.w3.org/1999/xlink">
 <defs>
  <style type="text/css">
*{stroke-linecap:butt;stroke-linejoin:round;}
  </style>
 </defs>
 <g id="figure_1">
  <g id="patch_1">
   <path d="M 0 288 
L 540 288 
L 540 0 
L 0 0 
z
" style="fill:#ffffff;"/>
  </g>
  <g id="axes_1">
   <g id="patch_2">
    <path d="M 67.5 252 
L 486 252 
L 486 34.56 
L 67.5 34.56 
z
" style="fill:#ffffff;"/>
   </g>
   <g id="matplotlib.axis_1">
    <g id="xtick_1">
     <g id="text_1">
      <!-- less than 5h in your life -->
      <defs>
       <path d="M 9.421875 75.984375 
L 18.40625 75.984375 
L 18.40625 0 
L 9.421875 0 
z
" id="DejaVuSans-108"/>
       <path d="M 56.203125 29.59375 
L 56.203125 25.203125 
L 14.890625 25.203125 
Q 15.484375 15.921875 20.484375 11.0625 
Q 25.484375 6.203125 34.421875 6.203125 
Q 39.59375 6.203125 44.453125 7.46875 
Q 49.3125 8.734375 54.109375 11.28125 
L 54.109375 2.78125 
Q 49.265625 0.734375 44.1875 -0.34375 
Q 39.109375 -1.421875 33.890625 -1.421875 
Q 20.796875 -1.421875 13.15625 6.1875 
Q 5.515625 13.8125 5.515625 26.8125 
Q 5.515625 40.234375 12.765625 48.109375 
Q 20.015625 56 32.328125 56 
Q 43.359375 56 49.78125 48.890625 
Q 56.203125 41.796875 56.203125 29.59375 
z
M 47.21875 32.234375 
Q 47.125 39.59375 43.09375 43.984375 
Q 39.0625 48.390625 32.421875 48.390625 
Q 24.90625 48.390625 20.390625 44.140625 
Q 15.875 39.890625 15.1875 32.171875 
z
" id="DejaVuSans-101"/>
       <path d="M 44.28125 53.078125 
L 44.28125 44.578125 
Q 40.484375 46.53125 36.375 47.5 
Q 32.28125 48.484375 27.875 48.484375 
Q 21.1875 48.484375 17.84375 46.4375 
Q 14.5 44.390625 14.5 40.28125 
Q 14.5 37.15625 16.890625 35.375 
Q 19.28125 33.59375 26.515625 31.984375 
L 29.59375 31.296875 
Q 39.15625 29.25 43.1875 25.515625 
Q 47.21875 21.78125 47.21875 15.09375 
Q 47.21875 7.46875 41.1875 3.015625 
Q 35.15625 -1.421875 24.609375 -1.421875 
Q 20.21875 -1.421875 15.453125 -0.5625 
Q 10.6875 0.296875 5.421875 2 
L 5.421875 11.28125 
Q 10.40625 8.6875 15.234375 7.390625 
Q 20.0625 6.109375 24.8125 6.109375 
Q 31.15625 6.109375 34.5625 8.28125 
Q 37.984375 10.453125 37.984375 14.40625 
Q 37.984375 18.0625 35.515625 20.015625 
Q 33.0625 21.96875 24.703125 23.78125 
L 21.578125 24.515625 
Q 13.234375 26.265625 9.515625 29.90625 
Q 5.8125 33.546875 5.8125 39.890625 
Q 5.8125 47.609375 11.28125 51.796875 
Q 16.75 56 26.8125 56 
Q 31.78125 56 36.171875 55.265625 
Q 40.578125 54.546875 44.28125 53.078125 
z
" id="DejaVuSans-115"/>
       <path id="DejaVuSans-32"/>
       <path d="M 18.3125 70.21875 
L 18.3125 54.6875 
L 36.8125 54.6875 
L 36.8125 47.703125 
L 18.3125 47.703125 
L 18.3125 18.015625 
Q 18.3125 11.328125 20.140625 9.421875 
Q 21.96875 7.515625 27.59375 7.515625 
L 36.8125 7.515625 
L 36.8125 0 
L 27.59375 0 
Q 17.1875 0 13.234375 3.875 
Q 9.28125 7.765625 9.28125 18.015625 
L 9.28125 47.703125 
L 2.6875 47.703125 
L 2.6875 54.6875 
L 9.28125 54.6875 
L 9.28125 70.21875 
z
" id="DejaVuSans-116"/>
       <path d="M 54.890625 33.015625 
L 54.890625 0 
L 45.90625 0 
L 45.90625 32.71875 
Q 45.90625 40.484375 42.875 44.328125 
Q 39.84375 48.1875 33.796875 48.1875 
Q 26.515625 48.1875 22.3125 43.546875 
Q 18.109375 38.921875 18.109375 30.90625 
L 18.109375 0 
L 9.078125 0 
L 9.078125 75.984375 
L 18.109375 75.984375 
L 18.109375 46.1875 
Q 21.34375 51.125 25.703125 53.5625 
Q 30.078125 56 35.796875 56 
Q 45.21875 56 50.046875 50.171875 
Q 54.890625 44.34375 54.890625 33.015625 
z
" id="DejaVuSans-104"/>
       <path d="M 34.28125 27.484375 
Q 23.390625 27.484375 19.1875 25 
Q 14.984375 22.515625 14.984375 16.5 
Q 14.984375 11.71875 18.140625 8.90625 
Q 21.296875 6.109375 26.703125 6.109375 
Q 34.1875 6.109375 38.703125 11.40625 
Q 43.21875 16.703125 43.21875 25.484375 
L 43.21875 27.484375 
z
M 52.203125 31.203125 
L 52.203125 0 
L 43.21875 0 
L 43.21875 8.296875 
Q 40.140625 3.328125 35.546875 0.953125 
Q 30.953125 -1.421875 24.3125 -1.421875 
Q 15.921875 -1.421875 10.953125 3.296875 
Q 6 8.015625 6 15.921875 
Q 6 25.140625 12.171875 29.828125 
Q 18.359375 34.515625 30.609375 34.515625 
L 43.21875 34.515625 
L 43.21875 35.40625 
Q 43.21875 41.609375 39.140625 45 
Q 35.0625 48.390625 27.6875 48.390625 
Q 23 48.390625 18.546875 47.265625 
Q 14.109375 46.140625 10.015625 43.890625 
L 10.015625 52.203125 
Q 14.9375 54.109375 19.578125 55.046875 
Q 24.21875 56 28.609375 56 
Q 40.484375 56 46.34375 49.84375 
Q 52.203125 43.703125 52.203125 31.203125 
z
" id="DejaVuSans-97"/>
       <path d="M 54.890625 33.015625 
L 54.890625 0 
L 45.90625 0 
L 45.90625 32.71875 
Q 45.90625 40.484375 42.875 44.328125 
Q 39.84375 48.1875 33.796875 48.1875 
Q 26.515625 48.1875 22.3125 43.546875 
Q 18.109375 38.921875 18.109375 30.90625 
L 18.109375 0 
L 9.078125 0 
L 9.078125 54.6875 
L 18.109375 54.6875 
L 18.109375 46.1875 
Q 21.34375 51.125 25.703125 53.5625 
Q 30.078125 56 35.796875 56 
Q 45.21875 56 50.046875 50.171875 
Q 54.890625 44.34375 54.890625 33.015625 
z
" id="DejaVuSans-110"/>
       <path d="M 10.796875 72.90625 
L 49.515625 72.90625 
L 49.515625 64.59375 
L 19.828125 64.59375 
L 19.828125 46.734375 
Q 21.96875 47.46875 24.109375 47.828125 
Q 26.265625 48.1875 28.421875 48.1875 
Q 40.625 48.1875 47.75 41.5 
Q 54.890625 34.8125 54.890625 23.390625 
Q 54.890625 11.625 47.5625 5.09375 
Q 40.234375 -1.421875 26.90625 -1.421875 
Q 22.3125 -1.421875 17.546875 -0.640625 
Q 12.796875 0.140625 7.71875 1.703125 
L 7.71875 11.625 
Q 12.109375 9.234375 16.796875 8.0625 
Q 21.484375 6.890625 26.703125 6.890625 
Q 35.15625 6.890625 40.078125 11.328125 
Q 45.015625 15.765625 45.015625 23.390625 
Q 45.015625 31 40.078125 35.4375 
Q 35.15625 39.890625 26.703125 39.890625 
Q 22.75 39.890625 18.8125 39.015625 
Q 14.890625 38.140625 10.796875 36.28125 
z
" id="DejaVuSans-53"/>
       <path d="M 9.421875 54.6875 
L 18.40625 54.6875 
L 18.40625 0 
L 9.421875 0 
z
M 9.421875 75.984375 
L 18.40625 75.984375 
L 18.40625 64.59375 
L 9.421875 64.59375 
z
" id="DejaVuSans-105"/>
       <path d="M 32.171875 -5.078125 
Q 28.375 -14.84375 24.75 -17.8125 
Q 21.140625 -20.796875 15.09375 -20.796875 
L 7.90625 -20.796875 
L 7.90625 -13.28125 
L 13.1875 -13.28125 
Q 16.890625 -13.28125 18.9375 -11.515625 
Q 21 -9.765625 23.484375 -3.21875 
L 25.09375 0.875 
L 2.984375 54.6875 
L 12.5 54.6875 
L 29.59375 11.921875 
L 46.6875 54.6875 
L 56.203125 54.6875 
z
" id="DejaVuSans-121"/>
       <path d="M 30.609375 48.390625 
Q 23.390625 48.390625 19.1875 42.75 
Q 14.984375 37.109375 14.984375 27.296875 
Q 14.984375 17.484375 19.15625 11.84375 
Q 23.34375 6.203125 30.609375 6.203125 
Q 37.796875 6.203125 41.984375 11.859375 
Q 46.1875 17.53125 46.1875 27.296875 
Q 46.1875 37.015625 41.984375 42.703125 
Q 37.796875 48.390625 30.609375 48.390625 
z
M 30.609375 56 
Q 42.328125 56 49.015625 48.375 
Q 55.71875 40.765625 55.71875 27.296875 
Q 55.71875 13.875 49.015625 6.21875 
Q 42.328125 -1.421875 30.609375 -1.421875 
Q 18.84375 -1.421875 12.171875 6.21875 
Q 5.515625 13.875 5.515625 27.296875 
Q 5.515625 40.765625 12.171875 48.375 
Q 18.84375 56 30.609375 56 
z
" id="DejaVuSans-111"/>
       <path d="M 8.5 21.578125 
L 8.5 54.6875 
L 17.484375 54.6875 
L 17.484375 21.921875 
Q 17.484375 14.15625 20.5 10.265625 
Q 23.53125 6.390625 29.59375 6.390625 
Q 36.859375 6.390625 41.078125 11.03125 
Q 45.3125 15.671875 45.3125 23.6875 
L 45.3125 54.6875 
L 54.296875 54.6875 
L 54.296875 0 
L 45.3125 0 
L 45.3125 8.40625 
Q 42.046875 3.421875 37.71875 1 
Q 33.40625 -1.421875 27.6875 -1.421875 
Q 18.265625 -1.421875 13.375 4.4375 
Q 8.5 10.296875 8.5 21.578125 
z
M 31.109375 56 
z
" id="DejaVuSans-117"/>
       <path d="M 41.109375 46.296875 
Q 39.59375 47.171875 37.8125 47.578125 
Q 36.03125 48 33.890625 48 
Q 26.265625 48 22.1875 43.046875 
Q 18.109375 38.09375 18.109375 28.8125 
L 18.109375 0 
L 9.078125 0 
L 9.078125 54.6875 
L 18.109375 54.6875 
L 18.109375 46.1875 
Q 20.953125 51.171875 25.484375 53.578125 
Q 30.03125 56 36.53125 56 
Q 37.453125 56 38.578125 55.875 
Q 39.703125 55.765625 41.0625 55.515625 
z
" id="DejaVuSans-114"/>
       <path d="M 37.109375 75.984375 
L 37.109375 68.5 
L 28.515625 68.5 
Q 23.6875 68.5 21.796875 66.546875 
Q 19.921875 64.59375 19.921875 59.515625 
L 19.921875 54.6875 
L 34.71875 54.6875 
L 34.71875 47.703125 
L 19.921875 47.703125 
L 19.921875 0 
L 10.890625 0 
L 10.890625 47.703125 
L 2.296875 47.703125 
L 2.296875 54.6875 
L 10.890625 54.6875 
L 10.890625 58.5 
Q 10.890625 67.625 15.140625 71.796875 
Q 19.390625 75.984375 28.609375 75.984375 
z
" id="DejaVuSans-102"/>
      </defs>
      <g style="fill:#262626;" transform="translate(33.523683 325.634309)rotate(-15)scale(0.154 -0.154)">
       <use xlink:href="#DejaVuSans-108"/>
       <use x="27.783203" xlink:href="#DejaVuSans-101"/>
       <use x="89.306641" xlink:href="#DejaVuSans-115"/>
       <use x="141.40625" xlink:href="#DejaVuSans-115"/>
       <use x="193.505859" xlink:href="#DejaVuSans-32"/>
       <use x="225.292969" xlink:href="#DejaVuSans-116"/>
       <use x="264.501953" xlink:href="#DejaVuSans-104"/>
       <use x="327.880859" xlink:href="#DejaVuSans-97"/>
       <use x="389.160156" xlink:href="#DejaVuSans-110"/>
       <use x="452.539062" xlink:href="#DejaVuSans-32"/>
       <use x="484.326172" xlink:href="#DejaVuSans-53"/>
       <use x="547.949219" xlink:href="#DejaVuSans-104"/>
       <use x="611.328125" xlink:href="#DejaVuSans-32"/>
       <use x="643.115234" xlink:href="#DejaVuSans-105"/>
       <use x="670.898438" xlink:href="#DejaVuSans-110"/>
       <use x="734.277344" xlink:href="#DejaVuSans-32"/>
       <use x="766.064453" xlink:href="#DejaVuSans-121"/>
       <use x="825.244141" xlink:href="#DejaVuSans-111"/>
       <use x="886.425781" xlink:href="#DejaVuSans-117"/>
       <use x="949.804688" xlink:href="#DejaVuSans-114"/>
       <use x="990.917969" xlink:href="#DejaVuSans-32"/>
       <use x="1022.705078" xlink:href="#DejaVuSans-108"/>
       <use x="1050.488281" xlink:href="#DejaVuSans-105"/>
       <use x="1078.271484" xlink:href="#DejaVuSans-102"/>
       <use x="1113.476562" xlink:href="#DejaVuSans-101"/>
      </g>
     </g>
    </g>
    <g id="xtick_2">
     <g id="text_2">
      <!-- less than 1h in your life -->
      <defs>
       <path d="M 12.40625 8.296875 
L 28.515625 8.296875 
L 28.515625 63.921875 
L 10.984375 60.40625 
L 10.984375 69.390625 
L 28.421875 72.90625 
L 38.28125 72.90625 
L 38.28125 8.296875 
L 54.390625 8.296875 
L 54.390625 0 
L 12.40625 0 
z
" id="DejaVuSans-49"/>
      </defs>
      <g style="fill:#262626;" transform="translate(138.148683 325.634309)rotate(-15)scale(0.154 -0.154)">
       <use xlink:href="#DejaVuSans-108"/>
       <use x="27.783203" xlink:href="#DejaVuSans-101"/>
       <use x="89.306641" xlink:href="#DejaVuSans-115"/>
       <use x="141.40625" xlink:href="#DejaVuSans-115"/>
       <use x="193.505859" xlink:href="#DejaVuSans-32"/>
       <use x="225.292969" xlink:href="#DejaVuSans-116"/>
       <use x="264.501953" xlink:href="#DejaVuSans-104"/>
       <use x="327.880859" xlink:href="#DejaVuSans-97"/>
       <use x="389.160156" xlink:href="#DejaVuSans-110"/>
       <use x="452.539062" xlink:href="#DejaVuSans-32"/>
       <use x="484.326172" xlink:href="#DejaVuSans-49"/>
       <use x="547.949219" xlink:href="#DejaVuSans-104"/>
       <use x="611.328125" xlink:href="#DejaVuSans-32"/>
       <use x="643.115234" xlink:href="#DejaVuSans-105"/>
       <use x="670.898438" xlink:href="#DejaVuSans-110"/>
       <use x="734.277344" xlink:href="#DejaVuSans-32"/>
       <use x="766.064453" xlink:href="#DejaVuSans-121"/>
       <use x="825.244141" xlink:href="#DejaVuSans-111"/>
       <use x="886.425781" xlink:href="#DejaVuSans-117"/>
       <use x="949.804688" xlink:href="#DejaVuSans-114"/>
       <use x="990.917969" xlink:href="#DejaVuSans-32"/>
       <use x="1022.705078" xlink:href="#DejaVuSans-108"/>
       <use x="1050.488281" xlink:href="#DejaVuSans-105"/>
       <use x="1078.271484" xlink:href="#DejaVuSans-102"/>
       <use x="1113.476562" xlink:href="#DejaVuSans-101"/>
      </g>
     </g>
    </g>
    <g id="xtick_3">
     <g id="text_3">
      <!-- less than 3h per month -->
      <defs>
       <path d="M 40.578125 39.3125 
Q 47.65625 37.796875 51.625 33 
Q 55.609375 28.21875 55.609375 21.1875 
Q 55.609375 10.40625 48.1875 4.484375 
Q 40.765625 -1.421875 27.09375 -1.421875 
Q 22.515625 -1.421875 17.65625 -0.515625 
Q 12.796875 0.390625 7.625 2.203125 
L 7.625 11.71875 
Q 11.71875 9.328125 16.59375 8.109375 
Q 21.484375 6.890625 26.8125 6.890625 
Q 36.078125 6.890625 40.9375 10.546875 
Q 45.796875 14.203125 45.796875 21.1875 
Q 45.796875 27.640625 41.28125 31.265625 
Q 36.765625 34.90625 28.71875 34.90625 
L 20.21875 34.90625 
L 20.21875 43.015625 
L 29.109375 43.015625 
Q 36.375 43.015625 40.234375 45.921875 
Q 44.09375 48.828125 44.09375 54.296875 
Q 44.09375 59.90625 40.109375 62.90625 
Q 36.140625 65.921875 28.71875 65.921875 
Q 24.65625 65.921875 20.015625 65.03125 
Q 15.375 64.15625 9.8125 62.3125 
L 9.8125 71.09375 
Q 15.4375 72.65625 20.34375 73.4375 
Q 25.25 74.21875 29.59375 74.21875 
Q 40.828125 74.21875 47.359375 69.109375 
Q 53.90625 64.015625 53.90625 55.328125 
Q 53.90625 49.265625 50.4375 45.09375 
Q 46.96875 40.921875 40.578125 39.3125 
z
" id="DejaVuSans-51"/>
       <path d="M 18.109375 8.203125 
L 18.109375 -20.796875 
L 9.078125 -20.796875 
L 9.078125 54.6875 
L 18.109375 54.6875 
L 18.109375 46.390625 
Q 20.953125 51.265625 25.265625 53.625 
Q 29.59375 56 35.59375 56 
Q 45.5625 56 51.78125 48.09375 
Q 58.015625 40.1875 58.015625 27.296875 
Q 58.015625 14.40625 51.78125 6.484375 
Q 45.5625 -1.421875 35.59375 -1.421875 
Q 29.59375 -1.421875 25.265625 0.953125 
Q 20.953125 3.328125 18.109375 8.203125 
z
M 48.6875 27.296875 
Q 48.6875 37.203125 44.609375 42.84375 
Q 40.53125 48.484375 33.40625 48.484375 
Q 26.265625 48.484375 22.1875 42.84375 
Q 18.109375 37.203125 18.109375 27.296875 
Q 18.109375 17.390625 22.1875 11.75 
Q 26.265625 6.109375 33.40625 6.109375 
Q 40.53125 6.109375 44.609375 11.75 
Q 48.6875 17.390625 48.6875 27.296875 
z
" id="DejaVuSans-112"/>
       <path d="M 52 44.1875 
Q 55.375 50.25 60.0625 53.125 
Q 64.75 56 71.09375 56 
Q 79.640625 56 84.28125 50.015625 
Q 88.921875 44.046875 88.921875 33.015625 
L 88.921875 0 
L 79.890625 0 
L 79.890625 32.71875 
Q 79.890625 40.578125 77.09375 44.375 
Q 74.3125 48.1875 68.609375 48.1875 
Q 61.625 48.1875 57.5625 43.546875 
Q 53.515625 38.921875 53.515625 30.90625 
L 53.515625 0 
L 44.484375 0 
L 44.484375 32.71875 
Q 44.484375 40.625 41.703125 44.40625 
Q 38.921875 48.1875 33.109375 48.1875 
Q 26.21875 48.1875 22.15625 43.53125 
Q 18.109375 38.875 18.109375 30.90625 
L 18.109375 0 
L 9.078125 0 
L 9.078125 54.6875 
L 18.109375 54.6875 
L 18.109375 46.1875 
Q 21.1875 51.21875 25.484375 53.609375 
Q 29.78125 56 35.6875 56 
Q 41.65625 56 45.828125 52.96875 
Q 50 49.953125 52 44.1875 
z
" id="DejaVuSans-109"/>
      </defs>
      <g style="fill:#262626;" transform="translate(243.474447 325.258771)rotate(-15)scale(0.154 -0.154)">
       <use xlink:href="#DejaVuSans-108"/>
       <use x="27.783203" xlink:href="#DejaVuSans-101"/>
       <use x="89.306641" xlink:href="#DejaVuSans-115"/>
       <use x="141.40625" xlink:href="#DejaVuSans-115"/>
       <use x="193.505859" xlink:href="#DejaVuSans-32"/>
       <use x="225.292969" xlink:href="#DejaVuSans-116"/>
       <use x="264.501953" xlink:href="#DejaVuSans-104"/>
       <use x="327.880859" xlink:href="#DejaVuSans-97"/>
       <use x="389.160156" xlink:href="#DejaVuSans-110"/>
       <use x="452.539062" xlink:href="#DejaVuSans-32"/>
       <use x="484.326172" xlink:href="#DejaVuSans-51"/>
       <use x="547.949219" xlink:href="#DejaVuSans-104"/>
       <use x="611.328125" xlink:href="#DejaVuSans-32"/>
       <use x="643.115234" xlink:href="#DejaVuSans-112"/>
       <use x="706.591797" xlink:href="#DejaVuSans-101"/>
       <use x="768.115234" xlink:href="#DejaVuSans-114"/>
       <use x="809.228516" xlink:href="#DejaVuSans-32"/>
       <use x="841.015625" xlink:href="#DejaVuSans-109"/>
       <use x="938.427734" xlink:href="#DejaVuSans-111"/>
       <use x="999.609375" xlink:href="#DejaVuSans-110"/>
       <use x="1062.988281" xlink:href="#DejaVuSans-116"/>
       <use x="1102.197266" xlink:href="#DejaVuSans-104"/>
      </g>
     </g>
    </g>
    <g id="xtick_4">
     <g id="text_4">
      <!-- less than 6h per week -->
      <defs>
       <path d="M 33.015625 40.375 
Q 26.375 40.375 22.484375 35.828125 
Q 18.609375 31.296875 18.609375 23.390625 
Q 18.609375 15.53125 22.484375 10.953125 
Q 26.375 6.390625 33.015625 6.390625 
Q 39.65625 6.390625 43.53125 10.953125 
Q 47.40625 15.53125 47.40625 23.390625 
Q 47.40625 31.296875 43.53125 35.828125 
Q 39.65625 40.375 33.015625 40.375 
z
M 52.59375 71.296875 
L 52.59375 62.3125 
Q 48.875 64.0625 45.09375 64.984375 
Q 41.3125 65.921875 37.59375 65.921875 
Q 27.828125 65.921875 22.671875 59.328125 
Q 17.53125 52.734375 16.796875 39.40625 
Q 19.671875 43.65625 24.015625 45.921875 
Q 28.375 48.1875 33.59375 48.1875 
Q 44.578125 48.1875 50.953125 41.515625 
Q 57.328125 34.859375 57.328125 23.390625 
Q 57.328125 12.15625 50.6875 5.359375 
Q 44.046875 -1.421875 33.015625 -1.421875 
Q 20.359375 -1.421875 13.671875 8.265625 
Q 6.984375 17.96875 6.984375 36.375 
Q 6.984375 53.65625 15.1875 63.9375 
Q 23.390625 74.21875 37.203125 74.21875 
Q 40.921875 74.21875 44.703125 73.484375 
Q 48.484375 72.75 52.59375 71.296875 
z
" id="DejaVuSans-54"/>
       <path d="M 4.203125 54.6875 
L 13.1875 54.6875 
L 24.421875 12.015625 
L 35.59375 54.6875 
L 46.1875 54.6875 
L 57.421875 12.015625 
L 68.609375 54.6875 
L 77.59375 54.6875 
L 63.28125 0 
L 52.6875 0 
L 40.921875 44.828125 
L 29.109375 0 
L 18.5 0 
z
" id="DejaVuSans-119"/>
       <path d="M 9.078125 75.984375 
L 18.109375 75.984375 
L 18.109375 31.109375 
L 44.921875 54.6875 
L 56.390625 54.6875 
L 27.390625 29.109375 
L 57.625 0 
L 45.90625 0 
L 18.109375 26.703125 
L 18.109375 0 
L 9.078125 0 
z
" id="DejaVuSans-107"/>
      </defs>
      <g style="fill:#262626;" transform="translate(352.695669 322.795663)rotate(-15)scale(0.154 -0.154)">
       <use xlink:href="#DejaVuSans-108"/>
       <use x="27.783203" xlink:href="#DejaVuSans-101"/>
       <use x="89.306641" xlink:href="#DejaVuSans-115"/>
       <use x="141.40625" xlink:href="#DejaVuSans-115"/>
       <use x="193.505859" xlink:href="#DejaVuSans-32"/>
       <use x="225.292969" xlink:href="#DejaVuSans-116"/>
       <use x="264.501953" xlink:href="#DejaVuSans-104"/>
       <use x="327.880859" xlink:href="#DejaVuSans-97"/>
       <use x="389.160156" xlink:href="#DejaVuSans-110"/>
       <use x="452.539062" xlink:href="#DejaVuSans-32"/>
       <use x="484.326172" xlink:href="#DejaVuSans-54"/>
       <use x="547.949219" xlink:href="#DejaVuSans-104"/>
       <use x="611.328125" xlink:href="#DejaVuSans-32"/>
       <use x="643.115234" xlink:href="#DejaVuSans-112"/>
       <use x="706.591797" xlink:href="#DejaVuSans-101"/>
       <use x="768.115234" xlink:href="#DejaVuSans-114"/>
       <use x="809.228516" xlink:href="#DejaVuSans-32"/>
       <use x="841.015625" xlink:href="#DejaVuSans-119"/>
       <use x="922.802734" xlink:href="#DejaVuSans-101"/>
       <use x="984.326172" xlink:href="#DejaVuSans-101"/>
       <use x="1045.849609" xlink:href="#DejaVuSans-107"/>
      </g>
     </g>
    </g>
    <g id="text_5">
     <!-- Time already spent in VR -->
     <defs>
      <path d="M -0.296875 72.90625 
L 61.375 72.90625 
L 61.375 64.59375 
L 35.5 64.59375 
L 35.5 0 
L 25.59375 0 
L 25.59375 64.59375 
L -0.296875 64.59375 
z
" id="DejaVuSans-84"/>
      <path d="M 45.40625 46.390625 
L 45.40625 75.984375 
L 54.390625 75.984375 
L 54.390625 0 
L 45.40625 0 
L 45.40625 8.203125 
Q 42.578125 3.328125 38.25 0.953125 
Q 33.9375 -1.421875 27.875 -1.421875 
Q 17.96875 -1.421875 11.734375 6.484375 
Q 5.515625 14.40625 5.515625 27.296875 
Q 5.515625 40.1875 11.734375 48.09375 
Q 17.96875 56 27.875 56 
Q 33.9375 56 38.25 53.625 
Q 42.578125 51.265625 45.40625 46.390625 
z
M 14.796875 27.296875 
Q 14.796875 17.390625 18.875 11.75 
Q 22.953125 6.109375 30.078125 6.109375 
Q 37.203125 6.109375 41.296875 11.75 
Q 45.40625 17.390625 45.40625 27.296875 
Q 45.40625 37.203125 41.296875 42.84375 
Q 37.203125 48.484375 30.078125 48.484375 
Q 22.953125 48.484375 18.875 42.84375 
Q 14.796875 37.203125 14.796875 27.296875 
z
" id="DejaVuSans-100"/>
      <path d="M 28.609375 0 
L 0.78125 72.90625 
L 11.078125 72.90625 
L 34.1875 11.53125 
L 57.328125 72.90625 
L 67.578125 72.90625 
L 39.796875 0 
z
" id="DejaVuSans-86"/>
      <path d="M 44.390625 34.1875 
Q 47.5625 33.109375 50.5625 29.59375 
Q 53.5625 26.078125 56.59375 19.921875 
L 66.609375 0 
L 56 0 
L 46.6875 18.703125 
Q 43.0625 26.03125 39.671875 28.421875 
Q 36.28125 30.8125 30.421875 30.8125 
L 19.671875 30.8125 
L 19.671875 0 
L 9.8125 0 
L 9.8125 72.90625 
L 32.078125 72.90625 
Q 44.578125 72.90625 50.734375 67.671875 
Q 56.890625 62.453125 56.890625 51.90625 
Q 56.890625 45.015625 53.6875 40.46875 
Q 50.484375 35.9375 44.390625 34.1875 
z
M 19.671875 64.796875 
L 19.671875 38.921875 
L 32.078125 38.921875 
Q 39.203125 38.921875 42.84375 42.21875 
Q 46.484375 45.515625 46.484375 51.90625 
Q 46.484375 58.296875 42.84375 61.546875 
Q 39.203125 64.796875 32.078125 64.796875 
z
" id="DejaVuSans-82"/>
     </defs>
     <g style="fill:#262626;" transform="translate(171.41925 345.493273)scale(0.168 -0.168)">
      <use xlink:href="#DejaVuSans-84"/>
      <use x="57.958984" xlink:href="#DejaVuSans-105"/>
      <use x="85.742188" xlink:href="#DejaVuSans-109"/>
      <use x="183.154297" xlink:href="#DejaVuSans-101"/>
      <use x="244.677734" xlink:href="#DejaVuSans-32"/>
      <use x="276.464844" xlink:href="#DejaVuSans-97"/>
      <use x="337.744141" xlink:href="#DejaVuSans-108"/>
      <use x="365.527344" xlink:href="#DejaVuSans-114"/>
      <use x="404.390625" xlink:href="#DejaVuSans-101"/>
      <use x="465.914062" xlink:href="#DejaVuSans-97"/>
      <use x="527.193359" xlink:href="#DejaVuSans-100"/>
      <use x="590.669922" xlink:href="#DejaVuSans-121"/>
      <use x="649.849609" xlink:href="#DejaVuSans-32"/>
      <use x="681.636719" xlink:href="#DejaVuSans-115"/>
      <use x="733.736328" xlink:href="#DejaVuSans-112"/>
      <use x="797.212891" xlink:href="#DejaVuSans-101"/>
      <use x="858.736328" xlink:href="#DejaVuSans-110"/>
      <use x="922.115234" xlink:href="#DejaVuSans-116"/>
      <use x="961.324219" xlink:href="#DejaVuSans-32"/>
      <use x="993.111328" xlink:href="#DejaVuSans-105"/>
      <use x="1020.894531" xlink:href="#DejaVuSans-110"/>
      <use x="1084.273438" xlink:href="#DejaVuSans-32"/>
      <use x="1116.060547" xlink:href="#DejaVuSans-86"/>
      <use x="1184.46875" xlink:href="#DejaVuSans-82"/>
     </g>
    </g>
   </g>
   <g id="matplotlib.axis_2">
    <g id="ytick_1">
     <g id="line2d_1">
      <path clip-path="url(#p37ddee0762)" d="M 67.5 249.019032 
L 486 249.019032 
" style="fill:none;stroke:#cccccc;stroke-linecap:round;stroke-width:2;"/>
     </g>
     <g id="text_6">
      <!-- −0.2 -->
      <defs>
       <path d="M 10.59375 35.5 
L 73.1875 35.5 
L 73.1875 27.203125 
L 10.59375 27.203125 
z
" id="DejaVuSans-8722"/>
       <path d="M 31.78125 66.40625 
Q 24.171875 66.40625 20.328125 58.90625 
Q 16.5 51.421875 16.5 36.375 
Q 16.5 21.390625 20.328125 13.890625 
Q 24.171875 6.390625 31.78125 6.390625 
Q 39.453125 6.390625 43.28125 13.890625 
Q 47.125 21.390625 47.125 36.375 
Q 47.125 51.421875 43.28125 58.90625 
Q 39.453125 66.40625 31.78125 66.40625 
z
M 31.78125 74.21875 
Q 44.046875 74.21875 50.515625 64.515625 
Q 56.984375 54.828125 56.984375 36.375 
Q 56.984375 17.96875 50.515625 8.265625 
Q 44.046875 -1.421875 31.78125 -1.421875 
Q 19.53125 -1.421875 13.0625 8.265625 
Q 6.59375 17.96875 6.59375 36.375 
Q 6.59375 54.828125 13.0625 64.515625 
Q 19.53125 74.21875 31.78125 74.21875 
z
" id="DejaVuSans-48"/>
       <path d="M 10.6875 12.40625 
L 21 12.40625 
L 21 0 
L 10.6875 0 
z
" id="DejaVuSans-46"/>
       <path d="M 19.1875 8.296875 
L 53.609375 8.296875 
L 53.609375 0 
L 7.328125 0 
L 7.328125 8.296875 
Q 12.9375 14.109375 22.625 23.890625 
Q 32.328125 33.6875 34.8125 36.53125 
Q 39.546875 41.84375 41.421875 45.53125 
Q 43.3125 49.21875 43.3125 52.78125 
Q 43.3125 58.59375 39.234375 62.25 
Q 35.15625 65.921875 28.609375 65.921875 
Q 23.96875 65.921875 18.8125 64.3125 
Q 13.671875 62.703125 7.8125 59.421875 
L 7.8125 69.390625 
Q 13.765625 71.78125 18.9375 73 
Q 24.125 74.21875 28.421875 74.21875 
Q 39.75 74.21875 46.484375 68.546875 
Q 53.21875 62.890625 53.21875 53.421875 
Q 53.21875 48.921875 51.53125 44.890625 
Q 49.859375 40.875 45.40625 35.40625 
Q 44.1875 33.984375 37.640625 27.21875 
Q 31.109375 20.453125 19.1875 8.296875 
z
" id="DejaVuSans-50"/>
      </defs>
      <g style="fill:#262626;" transform="translate(14.604469 254.869829)scale(0.154 -0.154)">
       <use xlink:href="#DejaVuSans-8722"/>
       <use x="83.789062" xlink:href="#DejaVuSans-48"/>
       <use x="147.412109" xlink:href="#DejaVuSans-46"/>
       <use x="179.199219" xlink:href="#DejaVuSans-50"/>
      </g>
     </g>
    </g>
    <g id="ytick_2">
     <g id="line2d_2">
      <path clip-path="url(#p37ddee0762)" d="M 67.5 210.353267 
L 486 210.353267 
" style="fill:none;stroke:#cccccc;stroke-linecap:round;stroke-width:2;"/>
     </g>
     <g id="text_7">
      <!-- 0.0 -->
      <g style="fill:#262626;" transform="translate(27.509187 216.204064)scale(0.154 -0.154)">
       <use xlink:href="#DejaVuSans-48"/>
       <use x="63.623047" xlink:href="#DejaVuSans-46"/>
       <use x="95.410156" xlink:href="#DejaVuSans-48"/>
      </g>
     </g>
    </g>
    <g id="ytick_3">
     <g id="line2d_3">
      <path clip-path="url(#p37ddee0762)" d="M 67.5 171.687501 
L 486 171.687501 
" style="fill:none;stroke:#cccccc;stroke-linecap:round;stroke-width:2;"/>
     </g>
     <g id="text_8">
      <!-- 0.2 -->
      <g style="fill:#262626;" transform="translate(27.509187 177.538298)scale(0.154 -0.154)">
       <use xlink:href="#DejaVuSans-48"/>
       <use x="63.623047" xlink:href="#DejaVuSans-46"/>
       <use x="95.410156" xlink:href="#DejaVuSans-50"/>
      </g>
     </g>
    </g>
    <g id="ytick_4">
     <g id="line2d_4">
      <path clip-path="url(#p37ddee0762)" d="M 67.5 133.021736 
L 486 133.021736 
" style="fill:none;stroke:#cccccc;stroke-linecap:round;stroke-width:2;"/>
     </g>
     <g id="text_9">
      <!-- 0.4 -->
      <defs>
       <path d="M 37.796875 64.3125 
L 12.890625 25.390625 
L 37.796875 25.390625 
z
M 35.203125 72.90625 
L 47.609375 72.90625 
L 47.609375 25.390625 
L 58.015625 25.390625 
L 58.015625 17.1875 
L 47.609375 17.1875 
L 47.609375 0 
L 37.796875 0 
L 37.796875 17.1875 
L 4.890625 17.1875 
L 4.890625 26.703125 
z
" id="DejaVuSans-52"/>
      </defs>
      <g style="fill:#262626;" transform="translate(27.509187 138.872533)scale(0.154 -0.154)">
       <use xlink:href="#DejaVuSans-48"/>
       <use x="63.623047" xlink:href="#DejaVuSans-46"/>
       <use x="95.410156" xlink:href="#DejaVuSans-52"/>
      </g>
     </g>
    </g>
    <g id="ytick_5">
     <g id="line2d_5">
      <path clip-path="url(#p37ddee0762)" d="M 67.5 94.35597 
L 486 94.35597 
" style="fill:none;stroke:#cccccc;stroke-linecap:round;stroke-width:2;"/>
     </g>
     <g id="text_10">
      <!-- 0.6 -->
      <g style="fill:#262626;" transform="translate(27.509187 100.206767)scale(0.154 -0.154)">
       <use xlink:href="#DejaVuSans-48"/>
       <use x="63.623047" xlink:href="#DejaVuSans-46"/>
       <use x="95.410156" xlink:href="#DejaVuSans-54"/>
      </g>
     </g>
    </g>
    <g id="ytick_6">
     <g id="line2d_6">
      <path clip-path="url(#p37ddee0762)" d="M 67.5 55.690205 
L 486 55.690205 
" style="fill:none;stroke:#cccccc;stroke-linecap:round;stroke-width:2;"/>
     </g>
     <g id="text_11">
      <!-- 0.8 -->
      <defs>
       <path d="M 31.78125 34.625 
Q 24.75 34.625 20.71875 30.859375 
Q 16.703125 27.09375 16.703125 20.515625 
Q 16.703125 13.921875 20.71875 10.15625 
Q 24.75 6.390625 31.78125 6.390625 
Q 38.8125 6.390625 42.859375 10.171875 
Q 46.921875 13.96875 46.921875 20.515625 
Q 46.921875 27.09375 42.890625 30.859375 
Q 38.875 34.625 31.78125 34.625 
z
M 21.921875 38.8125 
Q 15.578125 40.375 12.03125 44.71875 
Q 8.5 49.078125 8.5 55.328125 
Q 8.5 64.0625 14.71875 69.140625 
Q 20.953125 74.21875 31.78125 74.21875 
Q 42.671875 74.21875 48.875 69.140625 
Q 55.078125 64.0625 55.078125 55.328125 
Q 55.078125 49.078125 51.53125 44.71875 
Q 48 40.375 41.703125 38.8125 
Q 48.828125 37.15625 52.796875 32.3125 
Q 56.78125 27.484375 56.78125 20.515625 
Q 56.78125 9.90625 50.3125 4.234375 
Q 43.84375 -1.421875 31.78125 -1.421875 
Q 19.734375 -1.421875 13.25 4.234375 
Q 6.78125 9.90625 6.78125 20.515625 
Q 6.78125 27.484375 10.78125 32.3125 
Q 14.796875 37.15625 21.921875 38.8125 
z
M 18.3125 54.390625 
Q 18.3125 48.734375 21.84375 45.5625 
Q 25.390625 42.390625 31.78125 42.390625 
Q 38.140625 42.390625 41.71875 45.5625 
Q 45.3125 48.734375 45.3125 54.390625 
Q 45.3125 60.0625 41.71875 63.234375 
Q 38.140625 66.40625 31.78125 66.40625 
Q 25.390625 66.40625 21.84375 63.234375 
Q 18.3125 60.0625 18.3125 54.390625 
z
" id="DejaVuSans-56"/>
      </defs>
      <g style="fill:#262626;" transform="translate(27.509187 61.541001)scale(0.154 -0.154)">
       <use xlink:href="#DejaVuSans-48"/>
       <use x="63.623047" xlink:href="#DejaVuSans-46"/>
       <use x="95.410156" xlink:href="#DejaVuSans-56"/>
      </g>
     </g>
    </g>
    <g id="text_12">
     <!-- Veracity Score -->
     <defs>
      <path d="M 48.78125 52.59375 
L 48.78125 44.1875 
Q 44.96875 46.296875 41.140625 47.34375 
Q 37.3125 48.390625 33.40625 48.390625 
Q 24.65625 48.390625 19.8125 42.84375 
Q 14.984375 37.3125 14.984375 27.296875 
Q 14.984375 17.28125 19.8125 11.734375 
Q 24.65625 6.203125 33.40625 6.203125 
Q 37.3125 6.203125 41.140625 7.25 
Q 44.96875 8.296875 48.78125 10.40625 
L 48.78125 2.09375 
Q 45.015625 0.34375 40.984375 -0.53125 
Q 36.96875 -1.421875 32.421875 -1.421875 
Q 20.0625 -1.421875 12.78125 6.34375 
Q 5.515625 14.109375 5.515625 27.296875 
Q 5.515625 40.671875 12.859375 48.328125 
Q 20.21875 56 33.015625 56 
Q 37.15625 56 41.109375 55.140625 
Q 45.0625 54.296875 48.78125 52.59375 
z
" id="DejaVuSans-99"/>
      <path d="M 53.515625 70.515625 
L 53.515625 60.890625 
Q 47.90625 63.578125 42.921875 64.890625 
Q 37.9375 66.21875 33.296875 66.21875 
Q 25.25 66.21875 20.875 63.09375 
Q 16.5 59.96875 16.5 54.203125 
Q 16.5 49.359375 19.40625 46.890625 
Q 22.3125 44.4375 30.421875 42.921875 
L 36.375 41.703125 
Q 47.40625 39.59375 52.65625 34.296875 
Q 57.90625 29 57.90625 20.125 
Q 57.90625 9.515625 50.796875 4.046875 
Q 43.703125 -1.421875 29.984375 -1.421875 
Q 24.8125 -1.421875 18.96875 -0.25 
Q 13.140625 0.921875 6.890625 3.21875 
L 6.890625 13.375 
Q 12.890625 10.015625 18.65625 8.296875 
Q 24.421875 6.59375 29.984375 6.59375 
Q 38.421875 6.59375 43.015625 9.90625 
Q 47.609375 13.234375 47.609375 19.390625 
Q 47.609375 24.75 44.3125 27.78125 
Q 41.015625 30.8125 33.5 32.328125 
L 27.484375 33.5 
Q 16.453125 35.6875 11.515625 40.375 
Q 6.59375 45.0625 6.59375 53.421875 
Q 6.59375 63.09375 13.40625 68.65625 
Q 20.21875 74.21875 32.171875 74.21875 
Q 37.3125 74.21875 42.625 73.28125 
Q 47.953125 72.359375 53.515625 70.515625 
z
" id="DejaVuSans-83"/>
     </defs>
     <g style="fill:#262626;" transform="translate(7.110594 203.55525)rotate(-90)scale(0.168 -0.168)">
      <use xlink:href="#DejaVuSans-86"/>
      <use x="60.658203" xlink:href="#DejaVuSans-101"/>
      <use x="122.181641" xlink:href="#DejaVuSans-114"/>
      <use x="163.294922" xlink:href="#DejaVuSans-97"/>
      <use x="224.574219" xlink:href="#DejaVuSans-99"/>
      <use x="279.554688" xlink:href="#DejaVuSans-105"/>
      <use x="307.337891" xlink:href="#DejaVuSans-116"/>
      <use x="346.546875" xlink:href="#DejaVuSans-121"/>
      <use x="405.726562" xlink:href="#DejaVuSans-32"/>
      <use x="437.513672" xlink:href="#DejaVuSans-83"/>
      <use x="500.990234" xlink:href="#DejaVuSans-99"/>
      <use x="555.970703" xlink:href="#DejaVuSans-111"/>
      <use x="617.152344" xlink:href="#DejaVuSans-114"/>
      <use x="656.015625" xlink:href="#DejaVuSans-101"/>
     </g>
    </g>
   </g>
   <g id="PolyCollection_1">
    <defs>
     <path d="M 119.8125 -45.883636 
L 119.060763 -45.883636 
L 118.877713 -47.880331 
L 118.659811 -49.877025 
L 118.402835 -51.873719 
L 118.10258 -53.870413 
L 117.754969 -55.867107 
L 117.35619 -57.863802 
L 116.902829 -59.860496 
L 116.392016 -61.85719 
L 115.821568 -63.853884 
L 115.190116 -65.850579 
L 114.497225 -67.847273 
L 113.743487 -69.843967 
L 112.930593 -71.840661 
L 112.061358 -73.837355 
L 111.139724 -75.83405 
L 110.170709 -77.830744 
L 109.160325 -79.827438 
L 108.115449 -81.824132 
L 107.043656 -83.820826 
L 105.953033 -85.817521 
L 104.851954 -87.814215 
L 103.748863 -89.810909 
L 102.652042 -91.807603 
L 101.569401 -93.804298 
L 100.508299 -95.800992 
L 99.475393 -97.797686 
L 98.476546 -99.79438 
L 97.516782 -101.791074 
L 96.600301 -103.787769 
L 95.730541 -105.784463 
L 94.910287 -107.781157 
L 94.141818 -109.777851 
L 93.427062 -111.774545 
L 92.76776 -113.77124 
L 92.165606 -115.767934 
L 91.622363 -117.764628 
L 91.139929 -119.761322 
L 90.720354 -121.758017 
L 90.365804 -123.754711 
L 90.07847 -125.751405 
L 89.860443 -127.748099 
L 89.713551 -129.744793 
L 89.63919 -131.741488 
L 89.638156 -133.738182 
L 89.710499 -135.734876 
L 89.855412 -137.73157 
L 90.071167 -139.728264 
L 90.355104 -141.724959 
L 90.703674 -143.721653 
L 91.112538 -145.718347 
L 91.576701 -147.715041 
L 92.090694 -149.711736 
L 92.648762 -151.70843 
L 93.245069 -153.705124 
L 93.873886 -155.701818 
L 94.529766 -157.698512 
L 95.207687 -159.695207 
L 95.903148 -161.691901 
L 96.612233 -163.688595 
L 97.331629 -165.685289 
L 98.058605 -167.681983 
L 98.790954 -169.678678 
L 99.526922 -171.675372 
L 100.26511 -173.672066 
L 101.004379 -175.66876 
L 101.743763 -177.665455 
L 102.482383 -179.662149 
L 103.219393 -181.658843 
L 103.953934 -183.655537 
L 104.685112 -185.652231 
L 105.411996 -187.648926 
L 106.133619 -189.64562 
L 106.848991 -191.642314 
L 107.55711 -193.639008 
L 108.256965 -195.635702 
L 108.947532 -197.632397 
L 109.62776 -199.629091 
L 110.29655 -201.625785 
L 110.952722 -203.622479 
L 111.594989 -205.619174 
L 112.221932 -207.615868 
L 112.831987 -209.612562 
L 113.423446 -211.609256 
L 113.994478 -213.60595 
L 114.543168 -215.602645 
L 115.067578 -217.599339 
L 115.565815 -219.596033 
L 116.036116 -221.592727 
L 116.476927 -223.589421 
L 116.886988 -225.586116 
L 117.265396 -227.58281 
L 117.611659 -229.579504 
L 117.925727 -231.576198 
L 118.208002 -233.572893 
L 118.45932 -235.569587 
L 118.680922 -237.566281 
L 118.8744 -239.562975 
L 119.041633 -241.559669 
L 119.184711 -243.556364 
L 119.8125 -243.556364 
L 119.8125 -243.556364 
L 119.8125 -241.559669 
L 119.8125 -239.562975 
L 119.8125 -237.566281 
L 119.8125 -235.569587 
L 119.8125 -233.572893 
L 119.8125 -231.576198 
L 119.8125 -229.579504 
L 119.8125 -227.58281 
L 119.8125 -225.586116 
L 119.8125 -223.589421 
L 119.8125 -221.592727 
L 119.8125 -219.596033 
L 119.8125 -217.599339 
L 119.8125 -215.602645 
L 119.8125 -213.60595 
L 119.8125 -211.609256 
L 119.8125 -209.612562 
L 119.8125 -207.615868 
L 119.8125 -205.619174 
L 119.8125 -203.622479 
L 119.8125 -201.625785 
L 119.8125 -199.629091 
L 119.8125 -197.632397 
L 119.8125 -195.635702 
L 119.8125 -193.639008 
L 119.8125 -191.642314 
L 119.8125 -189.64562 
L 119.8125 -187.648926 
L 119.8125 -185.652231 
L 119.8125 -183.655537 
L 119.8125 -181.658843 
L 119.8125 -179.662149 
L 119.8125 -177.665455 
L 119.8125 -175.66876 
L 119.8125 -173.672066 
L 119.8125 -171.675372 
L 119.8125 -169.678678 
L 119.8125 -167.681983 
L 119.8125 -165.685289 
L 119.8125 -163.688595 
L 119.8125 -161.691901 
L 119.8125 -159.695207 
L 119.8125 -157.698512 
L 119.8125 -155.701818 
L 119.8125 -153.705124 
L 119.8125 -151.70843 
L 119.8125 -149.711736 
L 119.8125 -147.715041 
L 119.8125 -145.718347 
L 119.8125 -143.721653 
L 119.8125 -141.724959 
L 119.8125 -139.728264 
L 119.8125 -137.73157 
L 119.8125 -135.734876 
L 119.8125 -133.738182 
L 119.8125 -131.741488 
L 119.8125 -129.744793 
L 119.8125 -127.748099 
L 119.8125 -125.751405 
L 119.8125 -123.754711 
L 119.8125 -121.758017 
L 119.8125 -119.761322 
L 119.8125 -117.764628 
L 119.8125 -115.767934 
L 119.8125 -113.77124 
L 119.8125 -111.774545 
L 119.8125 -109.777851 
L 119.8125 -107.781157 
L 119.8125 -105.784463 
L 119.8125 -103.787769 
L 119.8125 -101.791074 
L 119.8125 -99.79438 
L 119.8125 -97.797686 
L 119.8125 -95.800992 
L 119.8125 -93.804298 
L 119.8125 -91.807603 
L 119.8125 -89.810909 
L 119.8125 -87.814215 
L 119.8125 -85.817521 
L 119.8125 -83.820826 
L 119.8125 -81.824132 
L 119.8125 -79.827438 
L 119.8125 -77.830744 
L 119.8125 -75.83405 
L 119.8125 -73.837355 
L 119.8125 -71.840661 
L 119.8125 -69.843967 
L 119.8125 -67.847273 
L 119.8125 -65.850579 
L 119.8125 -63.853884 
L 119.8125 -61.85719 
L 119.8125 -59.860496 
L 119.8125 -57.863802 
L 119.8125 -55.867107 
L 119.8125 -53.870413 
L 119.8125 -51.873719 
L 119.8125 -49.877025 
L 119.8125 -47.880331 
L 119.8125 -45.883636 
z
" id="md20720b42e" style="stroke:#737373;stroke-width:3;"/>
    </defs>
    <g clip-path="url(#p37ddee0762)">
     <use style="fill:#abc9ea;stroke:#737373;stroke-width:3;" x="0" xlink:href="#md20720b42e" y="288"/>
    </g>
   </g>
   <g id="PolyCollection_2">
    <defs>
     <path d="M 121.174583 -82.487477 
L 119.8125 -82.487477 
L 119.8125 -83.943967 
L 119.8125 -85.400456 
L 119.8125 -86.856946 
L 119.8125 -88.313436 
L 119.8125 -89.769925 
L 119.8125 -91.226415 
L 119.8125 -92.682905 
L 119.8125 -94.139394 
L 119.8125 -95.595884 
L 119.8125 -97.052374 
L 119.8125 -98.508863 
L 119.8125 -99.965353 
L 119.8125 -101.421843 
L 119.8125 -102.878332 
L 119.8125 -104.334822 
L 119.8125 -105.791312 
L 119.8125 -107.247801 
L 119.8125 -108.704291 
L 119.8125 -110.160781 
L 119.8125 -111.61727 
L 119.8125 -113.07376 
L 119.8125 -114.53025 
L 119.8125 -115.986739 
L 119.8125 -117.443229 
L 119.8125 -118.899719 
L 119.8125 -120.356208 
L 119.8125 -121.812698 
L 119.8125 -123.269188 
L 119.8125 -124.725677 
L 119.8125 -126.182167 
L 119.8125 -127.638657 
L 119.8125 -129.095146 
L 119.8125 -130.551636 
L 119.8125 -132.008126 
L 119.8125 -133.464616 
L 119.8125 -134.921105 
L 119.8125 -136.377595 
L 119.8125 -137.834085 
L 119.8125 -139.290574 
L 119.8125 -140.747064 
L 119.8125 -142.203554 
L 119.8125 -143.660043 
L 119.8125 -145.116533 
L 119.8125 -146.573023 
L 119.8125 -148.029512 
L 119.8125 -149.486002 
L 119.8125 -150.942492 
L 119.8125 -152.398981 
L 119.8125 -153.855471 
L 119.8125 -155.311961 
L 119.8125 -156.76845 
L 119.8125 -158.22494 
L 119.8125 -159.68143 
L 119.8125 -161.137919 
L 119.8125 -162.594409 
L 119.8125 -164.050899 
L 119.8125 -165.507388 
L 119.8125 -166.963878 
L 119.8125 -168.420368 
L 119.8125 -169.876857 
L 119.8125 -171.333347 
L 119.8125 -172.789837 
L 119.8125 -174.246326 
L 119.8125 -175.702816 
L 119.8125 -177.159306 
L 119.8125 -178.615795 
L 119.8125 -180.072285 
L 119.8125 -181.528775 
L 119.8125 -182.985264 
L 119.8125 -184.441754 
L 119.8125 -185.898244 
L 119.8125 -187.354733 
L 119.8125 -188.811223 
L 119.8125 -190.267713 
L 119.8125 -191.724202 
L 119.8125 -193.180692 
L 119.8125 -194.637182 
L 119.8125 -196.093671 
L 119.8125 -197.550161 
L 119.8125 -199.006651 
L 119.8125 -200.46314 
L 119.8125 -201.91963 
L 119.8125 -203.37612 
L 119.8125 -204.832609 
L 119.8125 -206.289099 
L 119.8125 -207.745589 
L 119.8125 -209.202078 
L 119.8125 -210.658568 
L 119.8125 -212.115058 
L 119.8125 -213.571547 
L 119.8125 -215.028037 
L 119.8125 -216.484527 
L 119.8125 -217.941016 
L 119.8125 -219.397506 
L 119.8125 -220.853996 
L 119.8125 -222.310485 
L 119.8125 -223.766975 
L 119.8125 -225.223465 
L 119.8125 -226.679954 
L 121.130673 -226.679954 
L 121.130673 -226.679954 
L 121.417996 -225.223465 
L 121.751316 -223.766975 
L 122.134027 -222.310485 
L 122.568906 -220.853996 
L 123.057915 -219.397506 
L 123.602016 -217.941016 
L 124.201002 -216.484527 
L 124.853369 -215.028037 
L 125.556229 -213.571547 
L 126.305278 -212.115058 
L 127.094843 -210.658568 
L 127.917998 -209.202078 
L 128.766752 -207.745589 
L 129.632319 -206.289099 
L 130.505452 -204.832609 
L 131.37683 -203.37612 
L 132.237479 -201.91963 
L 133.079205 -200.46314 
L 133.895023 -199.006651 
L 134.679541 -197.550161 
L 135.429286 -196.093671 
L 136.142951 -194.637182 
L 136.821528 -193.180692 
L 137.46834 -191.724202 
L 138.088938 -190.267713 
L 138.690889 -188.811223 
L 139.283439 -187.354733 
L 139.877084 -185.898244 
L 140.483064 -184.441754 
L 141.112794 -182.985264 
L 141.77728 -181.528775 
L 142.48653 -180.072285 
L 143.249 -178.615795 
L 144.0711 -177.159306 
L 144.956784 -175.702816 
L 145.907232 -174.246326 
L 146.92066 -172.789837 
L 147.992245 -171.333347 
L 149.11417 -169.876857 
L 150.275802 -168.420368 
L 151.463965 -166.963878 
L 152.663325 -165.507388 
L 153.856848 -164.050899 
L 155.026317 -162.594409 
L 156.152902 -161.137919 
L 157.217735 -159.68143 
L 158.202491 -158.22494 
L 159.089949 -156.76845 
L 159.864508 -155.311961 
L 160.512646 -153.855471 
L 161.023306 -152.398981 
L 161.388201 -150.942492 
L 161.602013 -149.486002 
L 161.6625 -148.029512 
L 161.570488 -146.573023 
L 161.329759 -145.116533 
L 160.946829 -143.660043 
L 160.430638 -142.203554 
L 159.792147 -140.747064 
L 159.043868 -139.290574 
L 158.199352 -137.834085 
L 157.272644 -136.377595 
L 156.277748 -134.921105 
L 155.228114 -133.464616 
L 154.136188 -132.008126 
L 153.013037 -130.551636 
L 151.868067 -129.095146 
L 150.708869 -127.638657 
L 149.541166 -126.182167 
L 148.368889 -124.725677 
L 147.194361 -123.269188 
L 146.018571 -121.812698 
L 144.84152 -120.356208 
L 143.66261 -118.899719 
L 142.481051 -117.443229 
L 141.296245 -115.986739 
L 140.108139 -114.53025 
L 138.917497 -113.07376 
L 137.726106 -111.61727 
L 136.536869 -110.160781 
L 135.353818 -108.704291 
L 134.182023 -107.247801 
L 133.027419 -105.791312 
L 131.896577 -104.334822 
L 130.796416 -102.878332 
L 129.733899 -101.421843 
L 128.71573 -99.965353 
L 127.748062 -98.508863 
L 126.836249 -97.052374 
L 125.984643 -95.595884 
L 125.196458 -94.139394 
L 124.473689 -92.682905 
L 123.817097 -91.226415 
L 123.226255 -89.769925 
L 122.699638 -88.313436 
L 122.234755 -86.856946 
L 121.82831 -85.400456 
L 121.476378 -83.943967 
L 121.174583 -82.487477 
z
" id="m579a28ee0e" style="stroke:#737373;stroke-width:3;"/>
    </defs>
    <g clip-path="url(#p37ddee0762)">
     <use style="fill:#efb792;stroke:#737373;stroke-width:3;" x="0" xlink:href="#m579a28ee0e" y="288"/>
    </g>
   </g>
   <g id="PolyCollection_3">
    <defs>
     <path d="M 224.4375 -88.247751 
L 221.639463 -88.247751 
L 221.033331 -89.627725 
L 220.330387 -91.007699 
L 219.523236 -92.387672 
L 218.605639 -93.767646 
L 217.572896 -95.14762 
L 216.422217 -96.527594 
L 215.15307 -97.907568 
L 213.767471 -99.287542 
L 212.270212 -100.667516 
L 210.668993 -102.04749 
L 208.974448 -103.427464 
L 207.200055 -104.807438 
L 205.361932 -106.187411 
L 203.478501 -107.567385 
L 201.570053 -108.947359 
L 199.658217 -110.327333 
L 197.76536 -111.707307 
L 195.913935 -113.087281 
L 194.125828 -114.467255 
L 192.421713 -115.847229 
L 190.820457 -117.227203 
L 189.338604 -118.607177 
L 187.989952 -119.98715 
L 186.785248 -121.367124 
L 185.732016 -122.747098 
L 184.834502 -124.127072 
L 184.093761 -125.507046 
L 183.507847 -126.88702 
L 183.072117 -128.266994 
L 182.779611 -129.646968 
L 182.621487 -131.026942 
L 182.5875 -132.406916 
L 182.666485 -133.786889 
L 182.846829 -135.166863 
L 183.116905 -136.546837 
L 183.465464 -137.926811 
L 183.881947 -139.306785 
L 184.356741 -140.686759 
L 184.88134 -142.066733 
L 185.448442 -143.446707 
L 186.051968 -144.826681 
L 186.687019 -146.206655 
L 187.349775 -147.586628 
L 188.037363 -148.966602 
L 188.747691 -150.346576 
L 189.479268 -151.72655 
L 190.23102 -153.106524 
L 191.002113 -154.486498 
L 191.791785 -155.866472 
L 192.599198 -157.246446 
L 193.423308 -158.62642 
L 194.262753 -160.006394 
L 195.115767 -161.386367 
L 195.980116 -162.766341 
L 196.853054 -164.146315 
L 197.731314 -165.526289 
L 198.611115 -166.906263 
L 199.488216 -168.286237 
L 200.357997 -169.666211 
L 201.215577 -171.046185 
L 202.055976 -172.426159 
L 202.874303 -173.806133 
L 203.665973 -175.186107 
L 204.426947 -176.56608 
L 205.153964 -177.946054 
L 205.844762 -179.326028 
L 206.498273 -180.706002 
L 207.114754 -182.085976 
L 207.695862 -183.46595 
L 208.244645 -184.845924 
L 208.765452 -186.225898 
L 209.26375 -187.605872 
L 209.745868 -188.985846 
L 210.218675 -190.365819 
L 210.689211 -191.745793 
L 211.164293 -193.125767 
L 211.650135 -194.505741 
L 212.151984 -195.885715 
L 212.673826 -197.265689 
L 213.218161 -198.645663 
L 213.785862 -200.025637 
L 214.376145 -201.405611 
L 214.986625 -202.785585 
L 215.613469 -204.165558 
L 216.251626 -205.545532 
L 216.895108 -206.925506 
L 217.537326 -208.30548 
L 218.17142 -209.685454 
L 218.790599 -211.065428 
L 219.388445 -212.445402 
L 219.959176 -213.825376 
L 220.497854 -215.20535 
L 221.000532 -216.585324 
L 221.464333 -217.965297 
L 221.887474 -219.345271 
L 222.269226 -220.725245 
L 222.609839 -222.105219 
L 222.91042 -223.485193 
L 223.172795 -224.865167 
L 224.4375 -224.865167 
L 224.4375 -224.865167 
L 224.4375 -223.485193 
L 224.4375 -222.105219 
L 224.4375 -220.725245 
L 224.4375 -219.345271 
L 224.4375 -217.965297 
L 224.4375 -216.585324 
L 224.4375 -215.20535 
L 224.4375 -213.825376 
L 224.4375 -212.445402 
L 224.4375 -211.065428 
L 224.4375 -209.685454 
L 224.4375 -208.30548 
L 224.4375 -206.925506 
L 224.4375 -205.545532 
L 224.4375 -204.165558 
L 224.4375 -202.785585 
L 224.4375 -201.405611 
L 224.4375 -200.025637 
L 224.4375 -198.645663 
L 224.4375 -197.265689 
L 224.4375 -195.885715 
L 224.4375 -194.505741 
L 224.4375 -193.125767 
L 224.4375 -191.745793 
L 224.4375 -190.365819 
L 224.4375 -188.985846 
L 224.4375 -187.605872 
L 224.4375 -186.225898 
L 224.4375 -184.845924 
L 224.4375 -183.46595 
L 224.4375 -182.085976 
L 224.4375 -180.706002 
L 224.4375 -179.326028 
L 224.4375 -177.946054 
L 224.4375 -176.56608 
L 224.4375 -175.186107 
L 224.4375 -173.806133 
L 224.4375 -172.426159 
L 224.4375 -171.046185 
L 224.4375 -169.666211 
L 224.4375 -168.286237 
L 224.4375 -166.906263 
L 224.4375 -165.526289 
L 224.4375 -164.146315 
L 224.4375 -162.766341 
L 224.4375 -161.386367 
L 224.4375 -160.006394 
L 224.4375 -158.62642 
L 224.4375 -157.246446 
L 224.4375 -155.866472 
L 224.4375 -154.486498 
L 224.4375 -153.106524 
L 224.4375 -151.72655 
L 224.4375 -150.346576 
L 224.4375 -148.966602 
L 224.4375 -147.586628 
L 224.4375 -146.206655 
L 224.4375 -144.826681 
L 224.4375 -143.446707 
L 224.4375 -142.066733 
L 224.4375 -140.686759 
L 224.4375 -139.306785 
L 224.4375 -137.926811 
L 224.4375 -136.546837 
L 224.4375 -135.166863 
L 224.4375 -133.786889 
L 224.4375 -132.406916 
L 224.4375 -131.026942 
L 224.4375 -129.646968 
L 224.4375 -128.266994 
L 224.4375 -126.88702 
L 224.4375 -125.507046 
L 224.4375 -124.127072 
L 224.4375 -122.747098 
L 224.4375 -121.367124 
L 224.4375 -119.98715 
L 224.4375 -118.607177 
L 224.4375 -117.227203 
L 224.4375 -115.847229 
L 224.4375 -114.467255 
L 224.4375 -113.087281 
L 224.4375 -111.707307 
L 224.4375 -110.327333 
L 224.4375 -108.947359 
L 224.4375 -107.567385 
L 224.4375 -106.187411 
L 224.4375 -104.807438 
L 224.4375 -103.427464 
L 224.4375 -102.04749 
L 224.4375 -100.667516 
L 224.4375 -99.287542 
L 224.4375 -97.907568 
L 224.4375 -96.527594 
L 224.4375 -95.14762 
L 224.4375 -93.767646 
L 224.4375 -92.387672 
L 224.4375 -91.007699 
L 224.4375 -89.627725 
L 224.4375 -88.247751 
z
" id="m98327b2a4f" style="stroke:#737373;stroke-width:3;"/>
    </defs>
    <g clip-path="url(#p37ddee0762)">
     <use style="fill:#abc9ea;stroke:#737373;stroke-width:3;" x="0" xlink:href="#m98327b2a4f" y="288"/>
    </g>
   </g>
   <g id="PolyCollection_4">
    <defs>
     <path d="M 225.622428 -81.273198 
L 224.4375 -81.273198 
L 224.4375 -82.674512 
L 224.4375 -84.075826 
L 224.4375 -85.47714 
L 224.4375 -86.878453 
L 224.4375 -88.279767 
L 224.4375 -89.681081 
L 224.4375 -91.082395 
L 224.4375 -92.483708 
L 224.4375 -93.885022 
L 224.4375 -95.286336 
L 224.4375 -96.68765 
L 224.4375 -98.088963 
L 224.4375 -99.490277 
L 224.4375 -100.891591 
L 224.4375 -102.292905 
L 224.4375 -103.694218 
L 224.4375 -105.095532 
L 224.4375 -106.496846 
L 224.4375 -107.89816 
L 224.4375 -109.299473 
L 224.4375 -110.700787 
L 224.4375 -112.102101 
L 224.4375 -113.503415 
L 224.4375 -114.904729 
L 224.4375 -116.306042 
L 224.4375 -117.707356 
L 224.4375 -119.10867 
L 224.4375 -120.509984 
L 224.4375 -121.911297 
L 224.4375 -123.312611 
L 224.4375 -124.713925 
L 224.4375 -126.115239 
L 224.4375 -127.516552 
L 224.4375 -128.917866 
L 224.4375 -130.31918 
L 224.4375 -131.720494 
L 224.4375 -133.121807 
L 224.4375 -134.523121 
L 224.4375 -135.924435 
L 224.4375 -137.325749 
L 224.4375 -138.727062 
L 224.4375 -140.128376 
L 224.4375 -141.52969 
L 224.4375 -142.931004 
L 224.4375 -144.332317 
L 224.4375 -145.733631 
L 224.4375 -147.134945 
L 224.4375 -148.536259 
L 224.4375 -149.937573 
L 224.4375 -151.338886 
L 224.4375 -152.7402 
L 224.4375 -154.141514 
L 224.4375 -155.542828 
L 224.4375 -156.944141 
L 224.4375 -158.345455 
L 224.4375 -159.746769 
L 224.4375 -161.148083 
L 224.4375 -162.549396 
L 224.4375 -163.95071 
L 224.4375 -165.352024 
L 224.4375 -166.753338 
L 224.4375 -168.154651 
L 224.4375 -169.555965 
L 224.4375 -170.957279 
L 224.4375 -172.358593 
L 224.4375 -173.759906 
L 224.4375 -175.16122 
L 224.4375 -176.562534 
L 224.4375 -177.963848 
L 224.4375 -179.365162 
L 224.4375 -180.766475 
L 224.4375 -182.167789 
L 224.4375 -183.569103 
L 224.4375 -184.970417 
L 224.4375 -186.37173 
L 224.4375 -187.773044 
L 224.4375 -189.174358 
L 224.4375 -190.575672 
L 224.4375 -191.976985 
L 224.4375 -193.378299 
L 224.4375 -194.779613 
L 224.4375 -196.180927 
L 224.4375 -197.58224 
L 224.4375 -198.983554 
L 224.4375 -200.384868 
L 224.4375 -201.786182 
L 224.4375 -203.187495 
L 224.4375 -204.588809 
L 224.4375 -205.990123 
L 224.4375 -207.391437 
L 224.4375 -208.792751 
L 224.4375 -210.194064 
L 224.4375 -211.595378 
L 224.4375 -212.996692 
L 224.4375 -214.398006 
L 224.4375 -215.799319 
L 224.4375 -217.200633 
L 224.4375 -218.601947 
L 224.4375 -220.003261 
L 225.484556 -220.003261 
L 225.484556 -220.003261 
L 225.735501 -218.601947 
L 226.032193 -217.200633 
L 226.379365 -215.799319 
L 226.781447 -214.398006 
L 227.242393 -212.996692 
L 227.765496 -211.595378 
L 228.353229 -210.194064 
L 229.007095 -208.792751 
L 229.727532 -207.391437 
L 230.513845 -205.990123 
L 231.364214 -204.588809 
L 232.27575 -203.187495 
L 233.244615 -201.786182 
L 234.266199 -200.384868 
L 235.335341 -198.983554 
L 236.44658 -197.58224 
L 237.594407 -196.180927 
L 238.773518 -194.779613 
L 239.97901 -193.378299 
L 241.206538 -191.976985 
L 242.452378 -190.575672 
L 243.713411 -189.174358 
L 244.987008 -187.773044 
L 246.270832 -186.37173 
L 247.562562 -184.970417 
L 248.859563 -183.569103 
L 250.158541 -182.167789 
L 251.455204 -180.766475 
L 252.743976 -179.365162 
L 254.017785 -177.963848 
L 255.267974 -176.562534 
L 256.484333 -175.16122 
L 257.655278 -173.759906 
L 258.768162 -172.358593 
L 259.809721 -170.957279 
L 260.766602 -169.555965 
L 261.625961 -168.154651 
L 262.37608 -166.753338 
L 263.006948 -165.352024 
L 263.510784 -163.95071 
L 263.882453 -162.549396 
L 264.119739 -161.148083 
L 264.223481 -159.746769 
L 264.197549 -158.345455 
L 264.048678 -156.944141 
L 263.786175 -155.542828 
L 263.42153 -154.141514 
L 262.967953 -152.7402 
L 262.439885 -151.338886 
L 261.852494 -149.937573 
L 261.221192 -148.536259 
L 260.561188 -147.134945 
L 259.887074 -145.733631 
L 259.212467 -144.332317 
L 258.549683 -142.931004 
L 257.909449 -141.52969 
L 257.300645 -140.128376 
L 256.730065 -138.727062 
L 256.202218 -137.325749 
L 255.719148 -135.924435 
L 255.280309 -134.523121 
L 254.882507 -133.121807 
L 254.519914 -131.720494 
L 254.184197 -130.31918 
L 253.864747 -128.917866 
L 253.549042 -127.516552 
L 253.223124 -126.115239 
L 252.87218 -124.713925 
L 252.481207 -123.312611 
L 252.035732 -121.911297 
L 251.522533 -120.509984 
L 250.930329 -119.10867 
L 250.250393 -117.707356 
L 249.477046 -116.306042 
L 248.607998 -114.904729 
L 247.644524 -113.503415 
L 246.591445 -112.102101 
L 245.456942 -110.700787 
L 244.252193 -109.299473 
L 242.990876 -107.89816 
L 241.688565 -106.496846 
L 240.362053 -105.095532 
L 239.028656 -103.694218 
L 237.705526 -102.292905 
L 236.409016 -100.891591 
L 235.154124 -99.490277 
L 233.954046 -98.088963 
L 232.819842 -96.68765 
L 231.76023 -95.286336 
L 230.781503 -93.885022 
L 229.887555 -92.483708 
L 229.08001 -91.082395 
L 228.358428 -89.681081 
L 227.720575 -88.279767 
L 227.162722 -86.878453 
L 226.679972 -85.47714 
L 226.266578 -84.075826 
L 225.916249 -82.674512 
L 225.622428 -81.273198 
z
" id="m9d83633975" style="stroke:#737373;stroke-width:3;"/>
    </defs>
    <g clip-path="url(#p37ddee0762)">
     <use style="fill:#efb792;stroke:#737373;stroke-width:3;" x="0" xlink:href="#m9d83633975" y="288"/>
    </g>
   </g>
   <g id="PolyCollection_5">
    <defs>
     <path d="M 329.0625 -118.608729 
L 327.356791 -118.608729 
L 327.152725 -119.574617 
L 326.930933 -120.540504 
L 326.690805 -121.506392 
L 326.43183 -122.47228 
L 326.153619 -123.438168 
L 325.855916 -124.404056 
L 325.538612 -125.369943 
L 325.201763 -126.335831 
L 324.845599 -127.301719 
L 324.470531 -128.267607 
L 324.077163 -129.233495 
L 323.666296 -130.199382 
L 323.238924 -131.16527 
L 322.79624 -132.131158 
L 322.339624 -133.097046 
L 321.870638 -134.062933 
L 321.391012 -135.028821 
L 320.902627 -135.994709 
L 320.407498 -136.960597 
L 319.90775 -137.926485 
L 319.405591 -138.892372 
L 318.903288 -139.85826 
L 318.403135 -140.824148 
L 317.907427 -141.790036 
L 317.418425 -142.755924 
L 316.938326 -143.721811 
L 316.46924 -144.687699 
L 316.013156 -145.653587 
L 315.571922 -146.619475 
L 315.147221 -147.585363 
L 314.740555 -148.55125 
L 314.353233 -149.517138 
L 313.986359 -150.483026 
L 313.640832 -151.448914 
L 313.317344 -152.414802 
L 313.016389 -153.380689 
L 312.738274 -154.346577 
L 312.483131 -155.312465 
L 312.250941 -156.278353 
L 312.041551 -157.244241 
L 311.854704 -158.210128 
L 311.690064 -159.176016 
L 311.547242 -160.141904 
L 311.425824 -161.107792 
L 311.3254 -162.073679 
L 311.245585 -163.039567 
L 311.186043 -164.005455 
L 311.146506 -164.971343 
L 311.126786 -165.937231 
L 311.126786 -166.903118 
L 311.146506 -167.869006 
L 311.186043 -168.834894 
L 311.245585 -169.800782 
L 311.3254 -170.76667 
L 311.425824 -171.732557 
L 311.547242 -172.698445 
L 311.690064 -173.664333 
L 311.854704 -174.630221 
L 312.041551 -175.596109 
L 312.250941 -176.561996 
L 312.483131 -177.527884 
L 312.738274 -178.493772 
L 313.016389 -179.45966 
L 313.317344 -180.425548 
L 313.640832 -181.391435 
L 313.986359 -182.357323 
L 314.353233 -183.323211 
L 314.740555 -184.289099 
L 315.147221 -185.254987 
L 315.571922 -186.220874 
L 316.013156 -187.186762 
L 316.46924 -188.15265 
L 316.938326 -189.118538 
L 317.418425 -190.084425 
L 317.907427 -191.050313 
L 318.403135 -192.016201 
L 318.903288 -192.982089 
L 319.405591 -193.947977 
L 319.90775 -194.913864 
L 320.407498 -195.879752 
L 320.902627 -196.84564 
L 321.391012 -197.811528 
L 321.870638 -198.777416 
L 322.339624 -199.743303 
L 322.79624 -200.709191 
L 323.238924 -201.675079 
L 323.666296 -202.640967 
L 324.077163 -203.606855 
L 324.470531 -204.572742 
L 324.845599 -205.53863 
L 325.201763 -206.504518 
L 325.538612 -207.470406 
L 325.855916 -208.436294 
L 326.153619 -209.402181 
L 326.43183 -210.368069 
L 326.690805 -211.333957 
L 326.930933 -212.299845 
L 327.152725 -213.265733 
L 327.356791 -214.23162 
L 329.0625 -214.23162 
L 329.0625 -214.23162 
L 329.0625 -213.265733 
L 329.0625 -212.299845 
L 329.0625 -211.333957 
L 329.0625 -210.368069 
L 329.0625 -209.402181 
L 329.0625 -208.436294 
L 329.0625 -207.470406 
L 329.0625 -206.504518 
L 329.0625 -205.53863 
L 329.0625 -204.572742 
L 329.0625 -203.606855 
L 329.0625 -202.640967 
L 329.0625 -201.675079 
L 329.0625 -200.709191 
L 329.0625 -199.743303 
L 329.0625 -198.777416 
L 329.0625 -197.811528 
L 329.0625 -196.84564 
L 329.0625 -195.879752 
L 329.0625 -194.913864 
L 329.0625 -193.947977 
L 329.0625 -192.982089 
L 329.0625 -192.016201 
L 329.0625 -191.050313 
L 329.0625 -190.084425 
L 329.0625 -189.118538 
L 329.0625 -188.15265 
L 329.0625 -187.186762 
L 329.0625 -186.220874 
L 329.0625 -185.254987 
L 329.0625 -184.289099 
L 329.0625 -183.323211 
L 329.0625 -182.357323 
L 329.0625 -181.391435 
L 329.0625 -180.425548 
L 329.0625 -179.45966 
L 329.0625 -178.493772 
L 329.0625 -177.527884 
L 329.0625 -176.561996 
L 329.0625 -175.596109 
L 329.0625 -174.630221 
L 329.0625 -173.664333 
L 329.0625 -172.698445 
L 329.0625 -171.732557 
L 329.0625 -170.76667 
L 329.0625 -169.800782 
L 329.0625 -168.834894 
L 329.0625 -167.869006 
L 329.0625 -166.903118 
L 329.0625 -165.937231 
L 329.0625 -164.971343 
L 329.0625 -164.005455 
L 329.0625 -163.039567 
L 329.0625 -162.073679 
L 329.0625 -161.107792 
L 329.0625 -160.141904 
L 329.0625 -159.176016 
L 329.0625 -158.210128 
L 329.0625 -157.244241 
L 329.0625 -156.278353 
L 329.0625 -155.312465 
L 329.0625 -154.346577 
L 329.0625 -153.380689 
L 329.0625 -152.414802 
L 329.0625 -151.448914 
L 329.0625 -150.483026 
L 329.0625 -149.517138 
L 329.0625 -148.55125 
L 329.0625 -147.585363 
L 329.0625 -146.619475 
L 329.0625 -145.653587 
L 329.0625 -144.687699 
L 329.0625 -143.721811 
L 329.0625 -142.755924 
L 329.0625 -141.790036 
L 329.0625 -140.824148 
L 329.0625 -139.85826 
L 329.0625 -138.892372 
L 329.0625 -137.926485 
L 329.0625 -136.960597 
L 329.0625 -135.994709 
L 329.0625 -135.028821 
L 329.0625 -134.062933 
L 329.0625 -133.097046 
L 329.0625 -132.131158 
L 329.0625 -131.16527 
L 329.0625 -130.199382 
L 329.0625 -129.233495 
L 329.0625 -128.267607 
L 329.0625 -127.301719 
L 329.0625 -126.335831 
L 329.0625 -125.369943 
L 329.0625 -124.404056 
L 329.0625 -123.438168 
L 329.0625 -122.47228 
L 329.0625 -121.506392 
L 329.0625 -120.540504 
L 329.0625 -119.574617 
L 329.0625 -118.608729 
z
" id="mee24938244" style="stroke:#737373;stroke-width:3;"/>
    </defs>
    <g clip-path="url(#p37ddee0762)">
     <use style="fill:#abc9ea;stroke:#737373;stroke-width:3;" x="0" xlink:href="#mee24938244" y="288"/>
    </g>
   </g>
   <g id="PolyCollection_6">
    <defs>
     <path d="M 333.042488 -106.474692 
L 329.0625 -106.474692 
L 329.0625 -106.888644 
L 329.0625 -107.302596 
L 329.0625 -107.716548 
L 329.0625 -108.1305 
L 329.0625 -108.544452 
L 329.0625 -108.958404 
L 329.0625 -109.372356 
L 329.0625 -109.786307 
L 329.0625 -110.200259 
L 329.0625 -110.614211 
L 329.0625 -111.028163 
L 329.0625 -111.442115 
L 329.0625 -111.856067 
L 329.0625 -112.270019 
L 329.0625 -112.683971 
L 329.0625 -113.097923 
L 329.0625 -113.511875 
L 329.0625 -113.925827 
L 329.0625 -114.339778 
L 329.0625 -114.75373 
L 329.0625 -115.167682 
L 329.0625 -115.581634 
L 329.0625 -115.995586 
L 329.0625 -116.409538 
L 329.0625 -116.82349 
L 329.0625 -117.237442 
L 329.0625 -117.651394 
L 329.0625 -118.065346 
L 329.0625 -118.479298 
L 329.0625 -118.893249 
L 329.0625 -119.307201 
L 329.0625 -119.721153 
L 329.0625 -120.135105 
L 329.0625 -120.549057 
L 329.0625 -120.963009 
L 329.0625 -121.376961 
L 329.0625 -121.790913 
L 329.0625 -122.204865 
L 329.0625 -122.618817 
L 329.0625 -123.032769 
L 329.0625 -123.44672 
L 329.0625 -123.860672 
L 329.0625 -124.274624 
L 329.0625 -124.688576 
L 329.0625 -125.102528 
L 329.0625 -125.51648 
L 329.0625 -125.930432 
L 329.0625 -126.344384 
L 329.0625 -126.758336 
L 329.0625 -127.172288 
L 329.0625 -127.58624 
L 329.0625 -128.000192 
L 329.0625 -128.414143 
L 329.0625 -128.828095 
L 329.0625 -129.242047 
L 329.0625 -129.655999 
L 329.0625 -130.069951 
L 329.0625 -130.483903 
L 329.0625 -130.897855 
L 329.0625 -131.311807 
L 329.0625 -131.725759 
L 329.0625 -132.139711 
L 329.0625 -132.553663 
L 329.0625 -132.967614 
L 329.0625 -133.381566 
L 329.0625 -133.795518 
L 329.0625 -134.20947 
L 329.0625 -134.623422 
L 329.0625 -135.037374 
L 329.0625 -135.451326 
L 329.0625 -135.865278 
L 329.0625 -136.27923 
L 329.0625 -136.693182 
L 329.0625 -137.107134 
L 329.0625 -137.521085 
L 329.0625 -137.935037 
L 329.0625 -138.348989 
L 329.0625 -138.762941 
L 329.0625 -139.176893 
L 329.0625 -139.590845 
L 329.0625 -140.004797 
L 329.0625 -140.418749 
L 329.0625 -140.832701 
L 329.0625 -141.246653 
L 329.0625 -141.660605 
L 329.0625 -142.074556 
L 329.0625 -142.488508 
L 329.0625 -142.90246 
L 329.0625 -143.316412 
L 329.0625 -143.730364 
L 329.0625 -144.144316 
L 329.0625 -144.558268 
L 329.0625 -144.97222 
L 329.0625 -145.386172 
L 329.0625 -145.800124 
L 329.0625 -146.214076 
L 329.0625 -146.628028 
L 329.0625 -147.041979 
L 329.0625 -147.455931 
L 333.042488 -147.455931 
L 333.042488 -147.455931 
L 333.518642 -147.041979 
L 334.036156 -146.628028 
L 334.596456 -146.214076 
L 335.20073 -145.800124 
L 335.849889 -145.386172 
L 336.54453 -144.97222 
L 337.284905 -144.558268 
L 338.070885 -144.144316 
L 338.901936 -143.730364 
L 339.777095 -143.316412 
L 340.694952 -142.90246 
L 341.653644 -142.488508 
L 342.650844 -142.074556 
L 343.683774 -141.660605 
L 344.749212 -141.246653 
L 345.843512 -140.832701 
L 346.96264 -140.418749 
L 348.102204 -140.004797 
L 349.257504 -139.590845 
L 350.423584 -139.176893 
L 351.595288 -138.762941 
L 352.767329 -138.348989 
L 353.934351 -137.935037 
L 355.091003 -137.521085 
L 356.232009 -137.107134 
L 357.352239 -136.693182 
L 358.446773 -136.27923 
L 359.510969 -135.865278 
L 360.540516 -135.451326 
L 361.531485 -135.037374 
L 362.480371 -134.623422 
L 363.384123 -134.20947 
L 364.240162 -133.795518 
L 365.046393 -133.381566 
L 365.801198 -132.967614 
L 366.503425 -132.553663 
L 367.152361 -132.139711 
L 367.747694 -131.725759 
L 368.289472 -131.311807 
L 368.778048 -130.897855 
L 369.214024 -130.483903 
L 369.598184 -130.069951 
L 369.931436 -129.655999 
L 370.214744 -129.242047 
L 370.449067 -128.828095 
L 370.635302 -128.414143 
L 370.774232 -128.000192 
L 370.866486 -127.58624 
L 370.9125 -127.172288 
L 370.9125 -126.758336 
L 370.866486 -126.344384 
L 370.774232 -125.930432 
L 370.635302 -125.51648 
L 370.449067 -125.102528 
L 370.214744 -124.688576 
L 369.931436 -124.274624 
L 369.598184 -123.860672 
L 369.214024 -123.44672 
L 368.778048 -123.032769 
L 368.289472 -122.618817 
L 367.747694 -122.204865 
L 367.152361 -121.790913 
L 366.503425 -121.376961 
L 365.801198 -120.963009 
L 365.046393 -120.549057 
L 364.240162 -120.135105 
L 363.384123 -119.721153 
L 362.480371 -119.307201 
L 361.531485 -118.893249 
L 360.540516 -118.479298 
L 359.510969 -118.065346 
L 358.446773 -117.651394 
L 357.352239 -117.237442 
L 356.232009 -116.82349 
L 355.091003 -116.409538 
L 353.934351 -115.995586 
L 352.767329 -115.581634 
L 351.595288 -115.167682 
L 350.423584 -114.75373 
L 349.257504 -114.339778 
L 348.102204 -113.925827 
L 346.96264 -113.511875 
L 345.843512 -113.097923 
L 344.749212 -112.683971 
L 343.683774 -112.270019 
L 342.650844 -111.856067 
L 341.653644 -111.442115 
L 340.694952 -111.028163 
L 339.777095 -110.614211 
L 338.901936 -110.200259 
L 338.070885 -109.786307 
L 337.284905 -109.372356 
L 336.54453 -108.958404 
L 335.849889 -108.544452 
L 335.20073 -108.1305 
L 334.596456 -107.716548 
L 334.036156 -107.302596 
L 333.518642 -106.888644 
L 333.042488 -106.474692 
z
" id="m0bd0bb0493" style="stroke:#737373;stroke-width:3;"/>
    </defs>
    <g clip-path="url(#p37ddee0762)">
     <use style="fill:#efb792;stroke:#737373;stroke-width:3;" x="0" xlink:href="#m0bd0bb0493" y="288"/>
    </g>
   </g>
   <g id="PolyCollection_7">
    <defs>
     <path d="M 437.667488 -131.357165 
L 433.6875 -131.357165 
L 433.6875 -132.185069 
L 433.6875 -133.012972 
L 433.6875 -133.840876 
L 433.6875 -134.66878 
L 433.6875 -135.496684 
L 433.6875 -136.324588 
L 433.6875 -137.152492 
L 433.6875 -137.980395 
L 433.6875 -138.808299 
L 433.6875 -139.636203 
L 433.6875 -140.464107 
L 433.6875 -141.292011 
L 433.6875 -142.119914 
L 433.6875 -142.947818 
L 433.6875 -143.775722 
L 433.6875 -144.603626 
L 433.6875 -145.43153 
L 433.6875 -146.259434 
L 433.6875 -147.087337 
L 433.6875 -147.915241 
L 433.6875 -148.743145 
L 433.6875 -149.571049 
L 433.6875 -150.398953 
L 433.6875 -151.226857 
L 433.6875 -152.05476 
L 433.6875 -152.882664 
L 433.6875 -153.710568 
L 433.6875 -154.538472 
L 433.6875 -155.366376 
L 433.6875 -156.194279 
L 433.6875 -157.022183 
L 433.6875 -157.850087 
L 433.6875 -158.677991 
L 433.6875 -159.505895 
L 433.6875 -160.333799 
L 433.6875 -161.161702 
L 433.6875 -161.989606 
L 433.6875 -162.81751 
L 433.6875 -163.645414 
L 433.6875 -164.473318 
L 433.6875 -165.301221 
L 433.6875 -166.129125 
L 433.6875 -166.957029 
L 433.6875 -167.784933 
L 433.6875 -168.612837 
L 433.6875 -169.440741 
L 433.6875 -170.268644 
L 433.6875 -171.096548 
L 433.6875 -171.924452 
L 433.6875 -172.752356 
L 433.6875 -173.58026 
L 433.6875 -174.408164 
L 433.6875 -175.236067 
L 433.6875 -176.063971 
L 433.6875 -176.891875 
L 433.6875 -177.719779 
L 433.6875 -178.547683 
L 433.6875 -179.375586 
L 433.6875 -180.20349 
L 433.6875 -181.031394 
L 433.6875 -181.859298 
L 433.6875 -182.687202 
L 433.6875 -183.515106 
L 433.6875 -184.343009 
L 433.6875 -185.170913 
L 433.6875 -185.998817 
L 433.6875 -186.826721 
L 433.6875 -187.654625 
L 433.6875 -188.482529 
L 433.6875 -189.310432 
L 433.6875 -190.138336 
L 433.6875 -190.96624 
L 433.6875 -191.794144 
L 433.6875 -192.622048 
L 433.6875 -193.449951 
L 433.6875 -194.277855 
L 433.6875 -195.105759 
L 433.6875 -195.933663 
L 433.6875 -196.761567 
L 433.6875 -197.589471 
L 433.6875 -198.417374 
L 433.6875 -199.245278 
L 433.6875 -200.073182 
L 433.6875 -200.901086 
L 433.6875 -201.72899 
L 433.6875 -202.556893 
L 433.6875 -203.384797 
L 433.6875 -204.212701 
L 433.6875 -205.040605 
L 433.6875 -205.868509 
L 433.6875 -206.696413 
L 433.6875 -207.524316 
L 433.6875 -208.35222 
L 433.6875 -209.180124 
L 433.6875 -210.008028 
L 433.6875 -210.835932 
L 433.6875 -211.663836 
L 433.6875 -212.491739 
L 433.6875 -213.319643 
L 437.667488 -213.319643 
L 437.667488 -213.319643 
L 438.143642 -212.491739 
L 438.661156 -211.663836 
L 439.221456 -210.835932 
L 439.82573 -210.008028 
L 440.474889 -209.180124 
L 441.16953 -208.35222 
L 441.909905 -207.524316 
L 442.695885 -206.696413 
L 443.526936 -205.868509 
L 444.402095 -205.040605 
L 445.319952 -204.212701 
L 446.278644 -203.384797 
L 447.275844 -202.556893 
L 448.308774 -201.72899 
L 449.374212 -200.901086 
L 450.468512 -200.073182 
L 451.58764 -199.245278 
L 452.727204 -198.417374 
L 453.882504 -197.589471 
L 455.048584 -196.761567 
L 456.220288 -195.933663 
L 457.392329 -195.105759 
L 458.559351 -194.277855 
L 459.716003 -193.449951 
L 460.857009 -192.622048 
L 461.977239 -191.794144 
L 463.071773 -190.96624 
L 464.135969 -190.138336 
L 465.165516 -189.310432 
L 466.156485 -188.482529 
L 467.105371 -187.654625 
L 468.009123 -186.826721 
L 468.865162 -185.998817 
L 469.671393 -185.170913 
L 470.426198 -184.343009 
L 471.128425 -183.515106 
L 471.777361 -182.687202 
L 472.372694 -181.859298 
L 472.914472 -181.031394 
L 473.403048 -180.20349 
L 473.839024 -179.375586 
L 474.223184 -178.547683 
L 474.556436 -177.719779 
L 474.839744 -176.891875 
L 475.074067 -176.063971 
L 475.260302 -175.236067 
L 475.399232 -174.408164 
L 475.491486 -173.58026 
L 475.5375 -172.752356 
L 475.5375 -171.924452 
L 475.491486 -171.096548 
L 475.399232 -170.268644 
L 475.260302 -169.440741 
L 475.074067 -168.612837 
L 474.839744 -167.784933 
L 474.556436 -166.957029 
L 474.223184 -166.129125 
L 473.839024 -165.301221 
L 473.403048 -164.473318 
L 472.914472 -163.645414 
L 472.372694 -162.81751 
L 471.777361 -161.989606 
L 471.128425 -161.161702 
L 470.426198 -160.333799 
L 469.671393 -159.505895 
L 468.865162 -158.677991 
L 468.009123 -157.850087 
L 467.105371 -157.022183 
L 466.156485 -156.194279 
L 465.165516 -155.366376 
L 464.135969 -154.538472 
L 463.071773 -153.710568 
L 461.977239 -152.882664 
L 460.857009 -152.05476 
L 459.716003 -151.226857 
L 458.559351 -150.398953 
L 457.392329 -149.571049 
L 456.220288 -148.743145 
L 455.048584 -147.915241 
L 453.882504 -147.087337 
L 452.727204 -146.259434 
L 451.58764 -145.43153 
L 450.468512 -144.603626 
L 449.374212 -143.775722 
L 448.308774 -142.947818 
L 447.275844 -142.119914 
L 446.278644 -141.292011 
L 445.319952 -140.464107 
L 444.402095 -139.636203 
L 443.526936 -138.808299 
L 442.695885 -137.980395 
L 441.909905 -137.152492 
L 441.16953 -136.324588 
L 440.474889 -135.496684 
L 439.82573 -134.66878 
L 439.221456 -133.840876 
L 438.661156 -133.012972 
L 438.143642 -132.185069 
L 437.667488 -131.357165 
z
" id="m53694637c4" style="stroke:#737373;stroke-width:3;"/>
    </defs>
    <g clip-path="url(#p37ddee0762)">
     <use style="fill:#efb792;stroke:#737373;stroke-width:3;" x="0" xlink:href="#m53694637c4" y="288"/>
    </g>
   </g>
   <g id="PathCollection_1"/>
   <g id="PathCollection_2"/>
   <g id="patch_3">
    <path clip-path="url(#p37ddee0762)" d="M 119.8125 210.353267 
L 119.8125 210.353267 
L 119.8125 210.353267 
L 119.8125 210.353267 
z
" style="fill:#abc9ea;stroke:#737373;stroke-linejoin:miter;stroke-width:1.5;"/>
   </g>
   <g id="patch_4">
    <path clip-path="url(#p37ddee0762)" d="M 119.8125 210.353267 
L 119.8125 210.353267 
L 119.8125 210.353267 
L 119.8125 210.353267 
z
" style="fill:#efb792;stroke:#737373;stroke-linejoin:miter;stroke-width:1.5;"/>
   </g>
   <g id="line2d_7">
    <path clip-path="url(#p37ddee0762)" d="M 119.8125 202.462294 
L 119.8125 84.097706 
" style="fill:none;stroke:#737373;stroke-linecap:round;stroke-width:3;"/>
   </g>
   <g id="line2d_8">
    <path clip-path="url(#p37ddee0762)" d="M 119.8125 161.034688 
L 119.8125 127.498055 
" style="fill:none;stroke:#737373;stroke-linecap:round;stroke-width:9;"/>
   </g>
   <g id="line2d_9">
    <path clip-path="url(#p37ddee0762)" d="M 224.4375 178.789377 
L 224.4375 91.988678 
" style="fill:none;stroke:#737373;stroke-linecap:round;stroke-width:3;"/>
   </g>
   <g id="line2d_10">
    <path clip-path="url(#p37ddee0762)" d="M 224.4375 159.061945 
L 224.4375 123.552569 
" style="fill:none;stroke:#737373;stroke-linecap:round;stroke-width:9;"/>
   </g>
   <g id="line2d_11">
    <path clip-path="url(#p37ddee0762)" d="M 329.0625 166.952918 
L 329.0625 107.770623 
" style="fill:none;stroke:#737373;stroke-linecap:round;stroke-width:3;"/>
   </g>
   <g id="line2d_12">
    <path clip-path="url(#p37ddee0762)" d="M 329.0625 158.075574 
L 329.0625 128.484426 
" style="fill:none;stroke:#737373;stroke-linecap:round;stroke-width:9;"/>
   </g>
   <g id="line2d_13">
    <path clip-path="url(#p37ddee0762)" d="M 391.8375 135.389027 
L 433.6875 135.389027 
" style="fill:none;stroke:#737373;stroke-linecap:round;stroke-width:3;"/>
   </g>
   <g id="line2d_14">
    <path clip-path="url(#p37ddee0762)" d="M 433.6875 135.389027 
L 433.6875 103.825137 
" style="fill:none;stroke:#737373;stroke-linecap:round;stroke-width:3;"/>
   </g>
   <g id="line2d_15">
    <path clip-path="url(#p37ddee0762)" d="M 433.6875 135.389027 
L 433.6875 121.579825 
" style="fill:none;stroke:#737373;stroke-linecap:round;stroke-width:9;"/>
   </g>
   <g id="patch_5">
    <path d="M 67.5 252 
L 67.5 34.56 
" style="fill:none;stroke:#cccccc;stroke-linecap:square;stroke-linejoin:miter;stroke-width:2.5;"/>
   </g>
   <g id="patch_6">
    <path d="M 486 252 
L 486 34.56 
" style="fill:none;stroke:#cccccc;stroke-linecap:square;stroke-linejoin:miter;stroke-width:2.5;"/>
   </g>
   <g id="patch_7">
    <path d="M 67.5 252 
L 486 252 
" style="fill:none;stroke:#cccccc;stroke-linecap:square;stroke-linejoin:miter;stroke-width:2.5;"/>
   </g>
   <g id="patch_8">
    <path d="M 67.5 34.56 
L 486 34.56 
" style="fill:none;stroke:#cccccc;stroke-linecap:square;stroke-linejoin:miter;stroke-width:2.5;"/>
   </g>
   <g id="PathCollection_3">
    <defs>
     <path d="M 0 3 
C 0.795609 3 1.55874 2.683901 2.12132 2.12132 
C 2.683901 1.55874 3 0.795609 3 0 
C 3 -0.795609 2.683901 -1.55874 2.12132 -2.12132 
C 1.55874 -2.683901 0.795609 -3 0 -3 
C -0.795609 -3 -1.55874 -2.683901 -2.12132 -2.12132 
C -2.683901 -1.55874 -3 -0.795609 -3 0 
C -3 0.795609 -2.683901 1.55874 -2.12132 2.12132 
C -1.55874 2.683901 -0.795609 3 0 3 
z
" id="m56282a4df8" style="stroke:#737373;stroke-width:2;"/>
    </defs>
    <g clip-path="url(#p37ddee0762)">
     <use style="fill:#ffffff;stroke:#737373;stroke-width:2;" x="119.8125" xlink:href="#m56282a4df8" y="143.28"/>
    </g>
   </g>
   <g id="PathCollection_4">
    <g clip-path="url(#p37ddee0762)">
     <use style="fill:#ffffff;stroke:#737373;stroke-width:2;" x="224.4375" xlink:href="#m56282a4df8" y="143.28"/>
    </g>
   </g>
   <g id="PathCollection_5">
    <g clip-path="url(#p37ddee0762)">
     <use style="fill:#ffffff;stroke:#737373;stroke-width:2;" x="329.0625" xlink:href="#m56282a4df8" y="145.252743"/>
    </g>
   </g>
   <g id="PathCollection_6">
    <g clip-path="url(#p37ddee0762)">
     <use style="fill:#ffffff;stroke:#737373;stroke-width:2;" x="433.6875" xlink:href="#m56282a4df8" y="131.443541"/>
    </g>
   </g>
   <g id="PathCollection_7">
    <defs>
     <path d="M 0 2.5 
C 0.663008 2.5 1.29895 2.236584 1.767767 1.767767 
C 2.236584 1.29895 2.5 0.663008 2.5 0 
C 2.5 -0.663008 2.236584 -1.29895 1.767767 -1.767767 
C 1.29895 -2.236584 0.663008 -2.5 0 -2.5 
C -0.663008 -2.5 -1.29895 -2.236584 -1.767767 -1.767767 
C -2.236584 -1.29895 -2.5 -0.663008 -2.5 0 
C -2.5 0.663008 -2.236584 1.29895 -1.767767 1.767767 
C -1.29895 2.236584 -0.663008 2.5 0 2.5 
z
" id="C0_0_8c870dd965"/>
    </defs>
    <g clip-path="url(#p37ddee0762)">
     <use style="fill:#4c72b0;" x="98.8875" xlink:href="#C0_0_8c870dd965" y="202.462294"/>
    </g>
    <g clip-path="url(#p37ddee0762)">
     <use style="fill:#4c72b0;" x="98.8875" xlink:href="#C0_0_8c870dd965" y="186.680349"/>
    </g>
    <g clip-path="url(#p37ddee0762)">
     <use style="fill:#4c72b0;" x="95.662592" xlink:href="#C0_0_8c870dd965" y="182.734863"/>
    </g>
    <g clip-path="url(#p37ddee0762)">
     <use style="fill:#4c72b0;" x="98.8875" xlink:href="#C0_0_8c870dd965" y="178.789377"/>
    </g>
    <g clip-path="url(#p37ddee0762)">
     <use style="fill:#4c72b0;" x="98.8875" xlink:href="#C0_0_8c870dd965" y="163.007431"/>
    </g>
    <g clip-path="url(#p37ddee0762)">
     <use style="fill:#4c72b0;" x="95.662592" xlink:href="#C0_0_8c870dd965" y="159.061945"/>
    </g>
    <g clip-path="url(#p37ddee0762)">
     <use style="fill:#4c72b0;" x="98.8875" xlink:href="#C0_0_8c870dd965" y="155.116459"/>
    </g>
    <g clip-path="url(#p37ddee0762)">
     <use style="fill:#4c72b0;" x="95.662592" xlink:href="#C0_0_8c870dd965" y="151.170973"/>
    </g>
    <g clip-path="url(#p37ddee0762)">
     <use style="fill:#4c72b0;" x="98.8875" xlink:href="#C0_0_8c870dd965" y="139.334514"/>
    </g>
    <g clip-path="url(#p37ddee0762)">
     <use style="fill:#4c72b0;" x="95.662592" xlink:href="#C0_0_8c870dd965" y="135.389027"/>
    </g>
    <g clip-path="url(#p37ddee0762)">
     <use style="fill:#4c72b0;" x="98.8875" xlink:href="#C0_0_8c870dd965" y="127.498055"/>
    </g>
    <g clip-path="url(#p37ddee0762)">
     <use style="fill:#4c72b0;" x="98.8875" xlink:href="#C0_0_8c870dd965" y="111.71611"/>
    </g>
    <g clip-path="url(#p37ddee0762)">
     <use style="fill:#4c72b0;" x="95.662592" xlink:href="#C0_0_8c870dd965" y="107.770623"/>
    </g>
    <g clip-path="url(#p37ddee0762)">
     <use style="fill:#4c72b0;" x="98.8875" xlink:href="#C0_0_8c870dd965" y="84.097706"/>
    </g>
   </g>
   <g id="PathCollection_8">
    <defs>
     <path d="M 0 2.5 
C 0.663008 2.5 1.29895 2.236584 1.767767 1.767767 
C 2.236584 1.29895 2.5 0.663008 2.5 0 
C 2.5 -0.663008 2.236584 -1.29895 1.767767 -1.767767 
C 1.29895 -2.236584 0.663008 -2.5 0 -2.5 
C -0.663008 -2.5 -1.29895 -2.236584 -1.767767 -1.767767 
C -2.236584 -1.29895 -2.5 -0.663008 -2.5 0 
C -2.5 0.663008 -2.236584 1.29895 -1.767767 1.767767 
C -1.29895 2.236584 -0.663008 2.5 0 2.5 
z
" id="C1_0_29133b5eb2"/>
    </defs>
    <g clip-path="url(#p37ddee0762)">
     <use style="fill:#dd8452;" x="140.7375" xlink:href="#C1_0_29133b5eb2" y="174.84389"/>
    </g>
    <g clip-path="url(#p37ddee0762)">
     <use style="fill:#dd8452;" x="137.512592" xlink:href="#C1_0_29133b5eb2" y="170.898404"/>
    </g>
    <g clip-path="url(#p37ddee0762)">
     <use style="fill:#dd8452;" x="140.7375" xlink:href="#C1_0_29133b5eb2" y="159.061945"/>
    </g>
    <g clip-path="url(#p37ddee0762)">
     <use style="fill:#dd8452;" x="140.7375" xlink:href="#C1_0_29133b5eb2" y="147.225486"/>
    </g>
    <g clip-path="url(#p37ddee0762)">
     <use style="fill:#dd8452;" x="135.4875" xlink:href="#C1_0_29133b5eb2" y="147.225486"/>
    </g>
    <g clip-path="url(#p37ddee0762)">
     <use style="fill:#dd8452;" x="143.962408" xlink:href="#C1_0_29133b5eb2" y="143.28"/>
    </g>
    <g clip-path="url(#p37ddee0762)">
     <use style="fill:#dd8452;" x="140.7375" xlink:href="#C1_0_29133b5eb2" y="139.334514"/>
    </g>
    <g clip-path="url(#p37ddee0762)">
     <use style="fill:#dd8452;" x="140.7375" xlink:href="#C1_0_29133b5eb2" y="131.443541"/>
    </g>
    <g clip-path="url(#p37ddee0762)">
     <use style="fill:#dd8452;" x="137.512592" xlink:href="#C1_0_29133b5eb2" y="127.498055"/>
    </g>
    <g clip-path="url(#p37ddee0762)">
     <use style="fill:#dd8452;" x="143.962408" xlink:href="#C1_0_29133b5eb2" y="127.498055"/>
    </g>
    <g clip-path="url(#p37ddee0762)">
     <use style="fill:#dd8452;" x="140.7375" xlink:href="#C1_0_29133b5eb2" y="111.71611"/>
    </g>
    <g clip-path="url(#p37ddee0762)">
     <use style="fill:#dd8452;" x="140.7375" xlink:href="#C1_0_29133b5eb2" y="95.934165"/>
    </g>
    <g clip-path="url(#p37ddee0762)">
     <use style="fill:#dd8452;" x="137.512592" xlink:href="#C1_0_29133b5eb2" y="91.988678"/>
    </g>
   </g>
   <g id="PathCollection_9">
    <defs>
     <path d="M 0 2.5 
C 0.663008 2.5 1.29895 2.236584 1.767767 1.767767 
C 2.236584 1.29895 2.5 0.663008 2.5 0 
C 2.5 -0.663008 2.236584 -1.29895 1.767767 -1.767767 
C 1.29895 -2.236584 0.663008 -2.5 0 -2.5 
C -0.663008 -2.5 -1.29895 -2.236584 -1.767767 -1.767767 
C -2.236584 -1.29895 -2.5 -0.663008 -2.5 0 
C -2.5 0.663008 -2.236584 1.29895 -1.767767 1.767767 
C -1.29895 2.236584 -0.663008 2.5 0 2.5 
z
" id="C2_0_89fe41d32e"/>
    </defs>
    <g clip-path="url(#p37ddee0762)">
     <use style="fill:#4c72b0;" x="203.5125" xlink:href="#C2_0_89fe41d32e" y="170.898404"/>
    </g>
    <g clip-path="url(#p37ddee0762)">
     <use style="fill:#4c72b0;" x="198.2625" xlink:href="#C2_0_89fe41d32e" y="170.898404"/>
    </g>
    <g clip-path="url(#p37ddee0762)">
     <use style="fill:#4c72b0;" x="208.7625" xlink:href="#C2_0_89fe41d32e" y="170.898404"/>
    </g>
    <g clip-path="url(#p37ddee0762)">
     <use style="fill:#4c72b0;" x="193.0125" xlink:href="#C2_0_89fe41d32e" y="170.898404"/>
    </g>
    <g clip-path="url(#p37ddee0762)">
     <use style="fill:#4c72b0;" x="203.5125" xlink:href="#C2_0_89fe41d32e" y="159.061945"/>
    </g>
    <g clip-path="url(#p37ddee0762)">
     <use style="fill:#4c72b0;" x="198.2625" xlink:href="#C2_0_89fe41d32e" y="159.061945"/>
    </g>
    <g clip-path="url(#p37ddee0762)">
     <use style="fill:#4c72b0;" x="208.7625" xlink:href="#C2_0_89fe41d32e" y="159.061945"/>
    </g>
    <g clip-path="url(#p37ddee0762)">
     <use style="fill:#4c72b0;" x="203.5125" xlink:href="#C2_0_89fe41d32e" y="151.170973"/>
    </g>
    <g clip-path="url(#p37ddee0762)">
     <use style="fill:#4c72b0;" x="198.2625" xlink:href="#C2_0_89fe41d32e" y="151.170973"/>
    </g>
    <g clip-path="url(#p37ddee0762)">
     <use style="fill:#4c72b0;" x="203.5125" xlink:href="#C2_0_89fe41d32e" y="143.28"/>
    </g>
    <g clip-path="url(#p37ddee0762)">
     <use style="fill:#4c72b0;" x="203.5125" xlink:href="#C2_0_89fe41d32e" y="135.389027"/>
    </g>
    <g clip-path="url(#p37ddee0762)">
     <use style="fill:#4c72b0;" x="198.2625" xlink:href="#C2_0_89fe41d32e" y="135.389027"/>
    </g>
    <g clip-path="url(#p37ddee0762)">
     <use style="fill:#4c72b0;" x="208.7625" xlink:href="#C2_0_89fe41d32e" y="135.389027"/>
    </g>
    <g clip-path="url(#p37ddee0762)">
     <use style="fill:#4c72b0;" x="203.5125" xlink:href="#C2_0_89fe41d32e" y="123.552569"/>
    </g>
    <g clip-path="url(#p37ddee0762)">
     <use style="fill:#4c72b0;" x="203.5125" xlink:href="#C2_0_89fe41d32e" y="115.661596"/>
    </g>
    <g clip-path="url(#p37ddee0762)">
     <use style="fill:#4c72b0;" x="198.2625" xlink:href="#C2_0_89fe41d32e" y="115.661596"/>
    </g>
    <g clip-path="url(#p37ddee0762)">
     <use style="fill:#4c72b0;" x="203.5125" xlink:href="#C2_0_89fe41d32e" y="91.988678"/>
    </g>
    <g clip-path="url(#p37ddee0762)">
     <use style="fill:#4c72b0;" x="198.2625" xlink:href="#C2_0_89fe41d32e" y="91.988678"/>
    </g>
   </g>
   <g id="PathCollection_10">
    <defs>
     <path d="M 0 2.5 
C 0.663008 2.5 1.29895 2.236584 1.767767 1.767767 
C 2.236584 1.29895 2.5 0.663008 2.5 0 
C 2.5 -0.663008 2.236584 -1.29895 1.767767 -1.767767 
C 1.29895 -2.236584 0.663008 -2.5 0 -2.5 
C -0.663008 -2.5 -1.29895 -2.236584 -1.767767 -1.767767 
C -2.236584 -1.29895 -2.5 -0.663008 -2.5 0 
C -2.5 0.663008 -2.236584 1.29895 -1.767767 1.767767 
C -1.29895 2.236584 -0.663008 2.5 0 2.5 
z
" id="C3_0_6f8ee928d0"/>
    </defs>
    <g clip-path="url(#p37ddee0762)">
     <use style="fill:#dd8452;" x="245.3625" xlink:href="#C3_0_6f8ee928d0" y="178.789377"/>
    </g>
    <g clip-path="url(#p37ddee0762)">
     <use style="fill:#dd8452;" x="242.137592" xlink:href="#C3_0_6f8ee928d0" y="174.84389"/>
    </g>
    <g clip-path="url(#p37ddee0762)">
     <use style="fill:#dd8452;" x="245.3625" xlink:href="#C3_0_6f8ee928d0" y="166.952918"/>
    </g>
    <g clip-path="url(#p37ddee0762)">
     <use style="fill:#dd8452;" x="240.1125" xlink:href="#C3_0_6f8ee928d0" y="166.952918"/>
    </g>
    <g clip-path="url(#p37ddee0762)">
     <use style="fill:#dd8452;" x="250.6125" xlink:href="#C3_0_6f8ee928d0" y="166.952918"/>
    </g>
    <g clip-path="url(#p37ddee0762)">
     <use style="fill:#dd8452;" x="245.3625" xlink:href="#C3_0_6f8ee928d0" y="151.170973"/>
    </g>
    <g clip-path="url(#p37ddee0762)">
     <use style="fill:#dd8452;" x="242.137592" xlink:href="#C3_0_6f8ee928d0" y="147.225486"/>
    </g>
    <g clip-path="url(#p37ddee0762)">
     <use style="fill:#dd8452;" x="245.3625" xlink:href="#C3_0_6f8ee928d0" y="143.28"/>
    </g>
    <g clip-path="url(#p37ddee0762)">
     <use style="fill:#dd8452;" x="250.6125" xlink:href="#C3_0_6f8ee928d0" y="143.28"/>
    </g>
    <g clip-path="url(#p37ddee0762)">
     <use style="fill:#dd8452;" x="245.3625" xlink:href="#C3_0_6f8ee928d0" y="131.443541"/>
    </g>
    <g clip-path="url(#p37ddee0762)">
     <use style="fill:#dd8452;" x="242.137592" xlink:href="#C3_0_6f8ee928d0" y="127.498055"/>
    </g>
    <g clip-path="url(#p37ddee0762)">
     <use style="fill:#dd8452;" x="248.587408" xlink:href="#C3_0_6f8ee928d0" y="127.498055"/>
    </g>
    <g clip-path="url(#p37ddee0762)">
     <use style="fill:#dd8452;" x="236.887592" xlink:href="#C3_0_6f8ee928d0" y="127.498055"/>
    </g>
    <g clip-path="url(#p37ddee0762)">
     <use style="fill:#dd8452;" x="245.3625" xlink:href="#C3_0_6f8ee928d0" y="123.552569"/>
    </g>
    <g clip-path="url(#p37ddee0762)">
     <use style="fill:#dd8452;" x="242.137592" xlink:href="#C3_0_6f8ee928d0" y="119.607082"/>
    </g>
    <g clip-path="url(#p37ddee0762)">
     <use style="fill:#dd8452;" x="245.3625" xlink:href="#C3_0_6f8ee928d0" y="115.661596"/>
    </g>
    <g clip-path="url(#p37ddee0762)">
     <use style="fill:#dd8452;" x="245.3625" xlink:href="#C3_0_6f8ee928d0" y="107.770623"/>
    </g>
    <g clip-path="url(#p37ddee0762)">
     <use style="fill:#dd8452;" x="245.3625" xlink:href="#C3_0_6f8ee928d0" y="99.879651"/>
    </g>
    <g clip-path="url(#p37ddee0762)">
     <use style="fill:#dd8452;" x="242.137592" xlink:href="#C3_0_6f8ee928d0" y="95.934165"/>
    </g>
   </g>
   <g id="PathCollection_11">
    <defs>
     <path d="M 0 2.5 
C 0.663008 2.5 1.29895 2.236584 1.767767 1.767767 
C 2.236584 1.29895 2.5 0.663008 2.5 0 
C 2.5 -0.663008 2.236584 -1.29895 1.767767 -1.767767 
C 1.29895 -2.236584 0.663008 -2.5 0 -2.5 
C -0.663008 -2.5 -1.29895 -2.236584 -1.767767 -1.767767 
C -2.236584 -1.29895 -2.5 -0.663008 -2.5 0 
C -2.5 0.663008 -2.236584 1.29895 -1.767767 1.767767 
C -1.29895 2.236584 -0.663008 2.5 0 2.5 
z
" id="C4_0_ccf4889c25"/>
    </defs>
    <g clip-path="url(#p37ddee0762)">
     <use style="fill:#4c72b0;" x="308.1375" xlink:href="#C4_0_ccf4889c25" y="135.389027"/>
    </g>
    <g clip-path="url(#p37ddee0762)">
     <use style="fill:#4c72b0;" x="308.1375" xlink:href="#C4_0_ccf4889c25" y="107.770623"/>
    </g>
   </g>
   <g id="PathCollection_12">
    <defs>
     <path d="M 0 2.5 
C 0.663008 2.5 1.29895 2.236584 1.767767 1.767767 
C 2.236584 1.29895 2.5 0.663008 2.5 0 
C 2.5 -0.663008 2.236584 -1.29895 1.767767 -1.767767 
C 1.29895 -2.236584 0.663008 -2.5 0 -2.5 
C -0.663008 -2.5 -1.29895 -2.236584 -1.767767 -1.767767 
C -2.236584 -1.29895 -2.5 -0.663008 -2.5 0 
C -2.5 0.663008 -2.236584 1.29895 -1.767767 1.767767 
C -1.29895 2.236584 -0.663008 2.5 0 2.5 
z
" id="C5_0_74dd12cb1c"/>
    </defs>
    <g clip-path="url(#p37ddee0762)">
     <use style="fill:#dd8452;" x="349.9875" xlink:href="#C5_0_74dd12cb1c" y="166.952918"/>
    </g>
    <g clip-path="url(#p37ddee0762)">
     <use style="fill:#dd8452;" x="349.9875" xlink:href="#C5_0_74dd12cb1c" y="155.116459"/>
    </g>
   </g>
   <g id="PathCollection_13">
    <defs>
     <path d="M 0 2.5 
C 0.663008 2.5 1.29895 2.236584 1.767767 1.767767 
C 2.236584 1.29895 2.5 0.663008 2.5 0 
C 2.5 -0.663008 2.236584 -1.29895 1.767767 -1.767767 
C 1.29895 -2.236584 0.663008 -2.5 0 -2.5 
C -0.663008 -2.5 -1.29895 -2.236584 -1.767767 -1.767767 
C -2.236584 -1.29895 -2.5 -0.663008 -2.5 0 
C -2.5 0.663008 -2.236584 1.29895 -1.767767 1.767767 
C -1.29895 2.236584 -0.663008 2.5 0 2.5 
z
" id="C6_0_a3cd11e5ef"/>
    </defs>
    <g clip-path="url(#p37ddee0762)">
     <use style="fill:#4c72b0;" x="412.7625" xlink:href="#C6_0_a3cd11e5ef" y="135.389027"/>
    </g>
    <g clip-path="url(#p37ddee0762)">
     <use style="fill:#4c72b0;" x="407.5125" xlink:href="#C6_0_a3cd11e5ef" y="135.389027"/>
    </g>
   </g>
   <g id="PathCollection_14">
    <defs>
     <path d="M 0 2.5 
C 0.663008 2.5 1.29895 2.236584 1.767767 1.767767 
C 2.236584 1.29895 2.5 0.663008 2.5 0 
C 2.5 -0.663008 2.236584 -1.29895 1.767767 -1.767767 
C 1.29895 -2.236584 0.663008 -2.5 0 -2.5 
C -0.663008 -2.5 -1.29895 -2.236584 -1.767767 -1.767767 
C -2.236584 -1.29895 -2.5 -0.663008 -2.5 0 
C -2.5 0.663008 -2.236584 1.29895 -1.767767 1.767767 
C -1.29895 2.236584 -0.663008 2.5 0 2.5 
z
" id="C7_0_fe3f428e41"/>
    </defs>
    <g clip-path="url(#p37ddee0762)">
     <use style="fill:#dd8452;" x="454.6125" xlink:href="#C7_0_fe3f428e41" y="127.498055"/>
    </g>
    <g clip-path="url(#p37ddee0762)">
     <use style="fill:#dd8452;" x="454.6125" xlink:href="#C7_0_fe3f428e41" y="103.825137"/>
    </g>
   </g>
   <g id="text_13">
    <!-- Veracity Score in function of participants' time already spent in VR -->
    <defs>
     <path d="M 17.921875 72.90625 
L 17.921875 45.796875 
L 9.625 45.796875 
L 9.625 72.90625 
z
" id="DejaVuSans-39"/>
    </defs>
    <g style="fill:#262626;" transform="translate(-2.989687 28.56)scale(0.168 -0.168)">
     <use xlink:href="#DejaVuSans-86"/>
     <use x="60.658203" xlink:href="#DejaVuSans-101"/>
     <use x="122.181641" xlink:href="#DejaVuSans-114"/>
     <use x="163.294922" xlink:href="#DejaVuSans-97"/>
     <use x="224.574219" xlink:href="#DejaVuSans-99"/>
     <use x="279.554688" xlink:href="#DejaVuSans-105"/>
     <use x="307.337891" xlink:href="#DejaVuSans-116"/>
     <use x="346.546875" xlink:href="#DejaVuSans-121"/>
     <use x="405.726562" xlink:href="#DejaVuSans-32"/>
     <use x="437.513672" xlink:href="#DejaVuSans-83"/>
     <use x="500.990234" xlink:href="#DejaVuSans-99"/>
     <use x="555.970703" xlink:href="#DejaVuSans-111"/>
     <use x="617.152344" xlink:href="#DejaVuSans-114"/>
     <use x="656.015625" xlink:href="#DejaVuSans-101"/>
     <use x="717.539062" xlink:href="#DejaVuSans-32"/>
     <use x="749.326172" xlink:href="#DejaVuSans-105"/>
     <use x="777.109375" xlink:href="#DejaVuSans-110"/>
     <use x="840.488281" xlink:href="#DejaVuSans-32"/>
     <use x="872.275391" xlink:href="#DejaVuSans-102"/>
     <use x="907.480469" xlink:href="#DejaVuSans-117"/>
     <use x="970.859375" xlink:href="#DejaVuSans-110"/>
     <use x="1034.238281" xlink:href="#DejaVuSans-99"/>
     <use x="1089.21875" xlink:href="#DejaVuSans-116"/>
     <use x="1128.427734" xlink:href="#DejaVuSans-105"/>
     <use x="1156.210938" xlink:href="#DejaVuSans-111"/>
     <use x="1217.392578" xlink:href="#DejaVuSans-110"/>
     <use x="1280.771484" xlink:href="#DejaVuSans-32"/>
     <use x="1312.558594" xlink:href="#DejaVuSans-111"/>
     <use x="1373.740234" xlink:href="#DejaVuSans-102"/>
     <use x="1408.945312" xlink:href="#DejaVuSans-32"/>
     <use x="1440.732422" xlink:href="#DejaVuSans-112"/>
     <use x="1504.208984" xlink:href="#DejaVuSans-97"/>
     <use x="1565.488281" xlink:href="#DejaVuSans-114"/>
     <use x="1606.601562" xlink:href="#DejaVuSans-116"/>
     <use x="1645.810547" xlink:href="#DejaVuSans-105"/>
     <use x="1673.59375" xlink:href="#DejaVuSans-99"/>
     <use x="1728.574219" xlink:href="#DejaVuSans-105"/>
     <use x="1756.357422" xlink:href="#DejaVuSans-112"/>
     <use x="1819.833984" xlink:href="#DejaVuSans-97"/>
     <use x="1881.113281" xlink:href="#DejaVuSans-110"/>
     <use x="1944.492188" xlink:href="#DejaVuSans-116"/>
     <use x="1983.701172" xlink:href="#DejaVuSans-115"/>
     <use x="2035.800781" xlink:href="#DejaVuSans-39"/>
     <use x="2063.291016" xlink:href="#DejaVuSans-32"/>
     <use x="2095.078125" xlink:href="#DejaVuSans-116"/>
     <use x="2134.287109" xlink:href="#DejaVuSans-105"/>
     <use x="2162.070312" xlink:href="#DejaVuSans-109"/>
     <use x="2259.482422" xlink:href="#DejaVuSans-101"/>
     <use x="2321.005859" xlink:href="#DejaVuSans-32"/>
     <use x="2352.792969" xlink:href="#DejaVuSans-97"/>
     <use x="2414.072266" xlink:href="#DejaVuSans-108"/>
     <use x="2441.855469" xlink:href="#DejaVuSans-114"/>
     <use x="2480.71875" xlink:href="#DejaVuSans-101"/>
     <use x="2542.242188" xlink:href="#DejaVuSans-97"/>
     <use x="2603.521484" xlink:href="#DejaVuSans-100"/>
     <use x="2666.998047" xlink:href="#DejaVuSans-121"/>
     <use x="2726.177734" xlink:href="#DejaVuSans-32"/>
     <use x="2757.964844" xlink:href="#DejaVuSans-115"/>
     <use x="2810.064453" xlink:href="#DejaVuSans-112"/>
     <use x="2873.541016" xlink:href="#DejaVuSans-101"/>
     <use x="2935.064453" xlink:href="#DejaVuSans-110"/>
     <use x="2998.443359" xlink:href="#DejaVuSans-116"/>
     <use x="3037.652344" xlink:href="#DejaVuSans-32"/>
     <use x="3069.439453" xlink:href="#DejaVuSans-105"/>
     <use x="3097.222656" xlink:href="#DejaVuSans-110"/>
     <use x="3160.601562" xlink:href="#DejaVuSans-32"/>
     <use x="3192.388672" xlink:href="#DejaVuSans-86"/>
     <use x="3260.796875" xlink:href="#DejaVuSans-82"/>
    </g>
   </g>
   <g id="legend_1">
    <g id="patch_9">
     <path d="M 510.005 194.82925 
L 604.238562 194.82925 
Q 607.318562 194.82925 607.318562 191.74925 
L 607.318562 102.872 
Q 607.318562 99.792 604.238562 99.792 
L 510.005 99.792 
Q 506.925 99.792 506.925 102.872 
L 506.925 191.74925 
Q 506.925 194.82925 510.005 194.82925 
z
" style="fill:#ffffff;opacity:0.8;stroke:#cccccc;stroke-linejoin:miter;stroke-width:2;"/>
    </g>
    <g id="patch_10">
     <path d="M 513.085 117.653594 
L 543.885 117.653594 
L 543.885 106.873594 
L 513.085 106.873594 
z
" style="fill:#abc9ea;stroke:#737373;stroke-linejoin:miter;stroke-width:1.5;"/>
    </g>
    <g id="text_14">
     <!-- VR -->
     <g style="fill:#262626;" transform="translate(556.205 117.653594)scale(0.154 -0.154)">
      <use xlink:href="#DejaVuSans-86"/>
      <use x="68.408203" xlink:href="#DejaVuSans-82"/>
     </g>
    </g>
    <g id="patch_11">
     <path d="M 513.085 140.257906 
L 543.885 140.257906 
L 543.885 129.477906 
L 513.085 129.477906 
z
" style="fill:#efb792;stroke:#737373;stroke-linejoin:miter;stroke-width:1.5;"/>
    </g>
    <g id="text_15">
     <!-- Comp -->
     <defs>
      <path d="M 64.40625 67.28125 
L 64.40625 56.890625 
Q 59.421875 61.53125 53.78125 63.8125 
Q 48.140625 66.109375 41.796875 66.109375 
Q 29.296875 66.109375 22.65625 58.46875 
Q 16.015625 50.828125 16.015625 36.375 
Q 16.015625 21.96875 22.65625 14.328125 
Q 29.296875 6.6875 41.796875 6.6875 
Q 48.140625 6.6875 53.78125 8.984375 
Q 59.421875 11.28125 64.40625 15.921875 
L 64.40625 5.609375 
Q 59.234375 2.09375 53.4375 0.328125 
Q 47.65625 -1.421875 41.21875 -1.421875 
Q 24.65625 -1.421875 15.125 8.703125 
Q 5.609375 18.84375 5.609375 36.375 
Q 5.609375 53.953125 15.125 64.078125 
Q 24.65625 74.21875 41.21875 74.21875 
Q 47.75 74.21875 53.53125 72.484375 
Q 59.328125 70.75 64.40625 67.28125 
z
" id="DejaVuSans-67"/>
     </defs>
     <g style="fill:#262626;" transform="translate(556.205 140.257906)scale(0.154 -0.154)">
      <use xlink:href="#DejaVuSans-67"/>
      <use x="69.824219" xlink:href="#DejaVuSans-111"/>
      <use x="131.005859" xlink:href="#DejaVuSans-109"/>
      <use x="228.417969" xlink:href="#DejaVuSans-112"/>
     </g>
    </g>
    <g id="PathCollection_15">
     <defs>
      <path d="M 0 3.872983 
C 1.027127 3.872983 2.012324 3.464901 2.738613 2.738613 
C 3.464901 2.012324 3.872983 1.027127 3.872983 0 
C 3.872983 -1.027127 3.464901 -2.012324 2.738613 -2.738613 
C 2.012324 -3.464901 1.027127 -3.872983 0 -3.872983 
C -1.027127 -3.872983 -2.012324 -3.464901 -2.738613 -2.738613 
C -3.464901 -2.012324 -3.872983 -1.027127 -3.872983 0 
C -3.872983 1.027127 -3.464901 2.012324 -2.738613 2.738613 
C -2.012324 3.464901 -1.027127 3.872983 0 3.872983 
z
" id="ma2d1792716" style="stroke:#4c72b0;stroke-width:2;"/>
     </defs>
     <g>
      <use style="fill:#4c72b0;stroke:#4c72b0;stroke-width:2;" x="528.485" xlink:href="#ma2d1792716" y="158.819719"/>
     </g>
    </g>
    <g id="text_16">
     <!-- VR -->
     <g style="fill:#262626;" transform="translate(556.205 162.862219)scale(0.154 -0.154)">
      <use xlink:href="#DejaVuSans-86"/>
      <use x="68.408203" xlink:href="#DejaVuSans-82"/>
     </g>
    </g>
    <g id="PathCollection_16">
     <defs>
      <path d="M 0 3.872983 
C 1.027127 3.872983 2.012324 3.464901 2.738613 2.738613 
C 3.464901 2.012324 3.872983 1.027127 3.872983 0 
C 3.872983 -1.027127 3.464901 -2.012324 2.738613 -2.738613 
C 2.012324 -3.464901 1.027127 -3.872983 0 -3.872983 
C -1.027127 -3.872983 -2.012324 -3.464901 -2.738613 -2.738613 
C -3.464901 -2.012324 -3.872983 -1.027127 -3.872983 0 
C -3.872983 1.027127 -3.464901 2.012324 -2.738613 2.738613 
C -2.012324 3.464901 -1.027127 3.872983 0 3.872983 
z
" id="mc70a68bebb" style="stroke:#dd8452;stroke-width:2;"/>
     </defs>
     <g>
      <use style="fill:#dd8452;stroke:#dd8452;stroke-width:2;" x="528.485" xlink:href="#mc70a68bebb" y="181.424031"/>
     </g>
    </g>
    <g id="text_17">
     <!-- Comp -->
     <g style="fill:#262626;" transform="translate(556.205 185.466531)scale(0.154 -0.154)">
      <use xlink:href="#DejaVuSans-67"/>
      <use x="69.824219" xlink:href="#DejaVuSans-111"/>
      <use x="131.005859" xlink:href="#DejaVuSans-109"/>
      <use x="228.417969" xlink:href="#DejaVuSans-112"/>
     </g>
    </g>
   </g>
  </g>
 </g>
 <defs>
  <clipPath id="p37ddee0762">
   <rect height="217.44" width="418.5" x="67.5" y="34.56"/>
  </clipPath>
 </defs>
</svg>
