<?xml version="1.0" encoding="utf-8" standalone="no"?>
<!DOCTYPE svg PUBLIC "-//W3C//DTD SVG 1.1//EN"
  "http://www.w3.org/Graphics/SVG/1.1/DTD/svg11.dtd">
<!-- Created with matplotlib (https://matplotlib.org/) -->
<svg height="288pt" version="1.1" viewBox="0 0 540 288" width="540pt" xmlns="http://www.w3.org/2000/svg" xmlns:xlink="http://www.w3.org/1999/xlink">
 <defs>
  <style type="text/css">
*{stroke-linecap:butt;stroke-linejoin:round;}
  </style>
 </defs>
 <g id="figure_1">
  <g id="patch_1">
   <path d="M 0 288 
L 540 288 
L 540 0 
L 0 0 
z
" style="fill:#ffffff;"/>
  </g>
  <g id="axes_1">
   <g id="patch_2">
    <path d="M 67.5 252 
L 486 252 
L 486 34.56 
L 67.5 34.56 
z
" style="fill:#ffffff;"/>
   </g>
   <g id="matplotlib.axis_1">
    <g id="xtick_1">
     <g id="text_1">
      <!-- less than 10h per year -->
      <defs>
       <path d="M 9.421875 75.984375 
L 18.40625 75.984375 
L 18.40625 0 
L 9.421875 0 
z
" id="DejaVuSans-108"/>
       <path d="M 56.203125 29.59375 
L 56.203125 25.203125 
L 14.890625 25.203125 
Q 15.484375 15.921875 20.484375 11.0625 
Q 25.484375 6.203125 34.421875 6.203125 
Q 39.59375 6.203125 44.453125 7.46875 
Q 49.3125 8.734375 54.109375 11.28125 
L 54.109375 2.78125 
Q 49.265625 0.734375 44.1875 -0.34375 
Q 39.109375 -1.421875 33.890625 -1.421875 
Q 20.796875 -1.421875 13.15625 6.1875 
Q 5.515625 13.8125 5.515625 26.8125 
Q 5.515625 40.234375 12.765625 48.109375 
Q 20.015625 56 32.328125 56 
Q 43.359375 56 49.78125 48.890625 
Q 56.203125 41.796875 56.203125 29.59375 
z
M 47.21875 32.234375 
Q 47.125 39.59375 43.09375 43.984375 
Q 39.0625 48.390625 32.421875 48.390625 
Q 24.90625 48.390625 20.390625 44.140625 
Q 15.875 39.890625 15.1875 32.171875 
z
" id="DejaVuSans-101"/>
       <path d="M 44.28125 53.078125 
L 44.28125 44.578125 
Q 40.484375 46.53125 36.375 47.5 
Q 32.28125 48.484375 27.875 48.484375 
Q 21.1875 48.484375 17.84375 46.4375 
Q 14.5 44.390625 14.5 40.28125 
Q 14.5 37.15625 16.890625 35.375 
Q 19.28125 33.59375 26.515625 31.984375 
L 29.59375 31.296875 
Q 39.15625 29.25 43.1875 25.515625 
Q 47.21875 21.78125 47.21875 15.09375 
Q 47.21875 7.46875 41.1875 3.015625 
Q 35.15625 -1.421875 24.609375 -1.421875 
Q 20.21875 -1.421875 15.453125 -0.5625 
Q 10.6875 0.296875 5.421875 2 
L 5.421875 11.28125 
Q 10.40625 8.6875 15.234375 7.390625 
Q 20.0625 6.109375 24.8125 6.109375 
Q 31.15625 6.109375 34.5625 8.28125 
Q 37.984375 10.453125 37.984375 14.40625 
Q 37.984375 18.0625 35.515625 20.015625 
Q 33.0625 21.96875 24.703125 23.78125 
L 21.578125 24.515625 
Q 13.234375 26.265625 9.515625 29.90625 
Q 5.8125 33.546875 5.8125 39.890625 
Q 5.8125 47.609375 11.28125 51.796875 
Q 16.75 56 26.8125 56 
Q 31.78125 56 36.171875 55.265625 
Q 40.578125 54.546875 44.28125 53.078125 
z
" id="DejaVuSans-115"/>
       <path id="DejaVuSans-32"/>
       <path d="M 18.3125 70.21875 
L 18.3125 54.6875 
L 36.8125 54.6875 
L 36.8125 47.703125 
L 18.3125 47.703125 
L 18.3125 18.015625 
Q 18.3125 11.328125 20.140625 9.421875 
Q 21.96875 7.515625 27.59375 7.515625 
L 36.8125 7.515625 
L 36.8125 0 
L 27.59375 0 
Q 17.1875 0 13.234375 3.875 
Q 9.28125 7.765625 9.28125 18.015625 
L 9.28125 47.703125 
L 2.6875 47.703125 
L 2.6875 54.6875 
L 9.28125 54.6875 
L 9.28125 70.21875 
z
" id="DejaVuSans-116"/>
       <path d="M 54.890625 33.015625 
L 54.890625 0 
L 45.90625 0 
L 45.90625 32.71875 
Q 45.90625 40.484375 42.875 44.328125 
Q 39.84375 48.1875 33.796875 48.1875 
Q 26.515625 48.1875 22.3125 43.546875 
Q 18.109375 38.921875 18.109375 30.90625 
L 18.109375 0 
L 9.078125 0 
L 9.078125 75.984375 
L 18.109375 75.984375 
L 18.109375 46.1875 
Q 21.34375 51.125 25.703125 53.5625 
Q 30.078125 56 35.796875 56 
Q 45.21875 56 50.046875 50.171875 
Q 54.890625 44.34375 54.890625 33.015625 
z
" id="DejaVuSans-104"/>
       <path d="M 34.28125 27.484375 
Q 23.390625 27.484375 19.1875 25 
Q 14.984375 22.515625 14.984375 16.5 
Q 14.984375 11.71875 18.140625 8.90625 
Q 21.296875 6.109375 26.703125 6.109375 
Q 34.1875 6.109375 38.703125 11.40625 
Q 43.21875 16.703125 43.21875 25.484375 
L 43.21875 27.484375 
z
M 52.203125 31.203125 
L 52.203125 0 
L 43.21875 0 
L 43.21875 8.296875 
Q 40.140625 3.328125 35.546875 0.953125 
Q 30.953125 -1.421875 24.3125 -1.421875 
Q 15.921875 -1.421875 10.953125 3.296875 
Q 6 8.015625 6 15.921875 
Q 6 25.140625 12.171875 29.828125 
Q 18.359375 34.515625 30.609375 34.515625 
L 43.21875 34.515625 
L 43.21875 35.40625 
Q 43.21875 41.609375 39.140625 45 
Q 35.0625 48.390625 27.6875 48.390625 
Q 23 48.390625 18.546875 47.265625 
Q 14.109375 46.140625 10.015625 43.890625 
L 10.015625 52.203125 
Q 14.9375 54.109375 19.578125 55.046875 
Q 24.21875 56 28.609375 56 
Q 40.484375 56 46.34375 49.84375 
Q 52.203125 43.703125 52.203125 31.203125 
z
" id="DejaVuSans-97"/>
       <path d="M 54.890625 33.015625 
L 54.890625 0 
L 45.90625 0 
L 45.90625 32.71875 
Q 45.90625 40.484375 42.875 44.328125 
Q 39.84375 48.1875 33.796875 48.1875 
Q 26.515625 48.1875 22.3125 43.546875 
Q 18.109375 38.921875 18.109375 30.90625 
L 18.109375 0 
L 9.078125 0 
L 9.078125 54.6875 
L 18.109375 54.6875 
L 18.109375 46.1875 
Q 21.34375 51.125 25.703125 53.5625 
Q 30.078125 56 35.796875 56 
Q 45.21875 56 50.046875 50.171875 
Q 54.890625 44.34375 54.890625 33.015625 
z
" id="DejaVuSans-110"/>
       <path d="M 12.40625 8.296875 
L 28.515625 8.296875 
L 28.515625 63.921875 
L 10.984375 60.40625 
L 10.984375 69.390625 
L 28.421875 72.90625 
L 38.28125 72.90625 
L 38.28125 8.296875 
L 54.390625 8.296875 
L 54.390625 0 
L 12.40625 0 
z
" id="DejaVuSans-49"/>
       <path d="M 31.78125 66.40625 
Q 24.171875 66.40625 20.328125 58.90625 
Q 16.5 51.421875 16.5 36.375 
Q 16.5 21.390625 20.328125 13.890625 
Q 24.171875 6.390625 31.78125 6.390625 
Q 39.453125 6.390625 43.28125 13.890625 
Q 47.125 21.390625 47.125 36.375 
Q 47.125 51.421875 43.28125 58.90625 
Q 39.453125 66.40625 31.78125 66.40625 
z
M 31.78125 74.21875 
Q 44.046875 74.21875 50.515625 64.515625 
Q 56.984375 54.828125 56.984375 36.375 
Q 56.984375 17.96875 50.515625 8.265625 
Q 44.046875 -1.421875 31.78125 -1.421875 
Q 19.53125 -1.421875 13.0625 8.265625 
Q 6.59375 17.96875 6.59375 36.375 
Q 6.59375 54.828125 13.0625 64.515625 
Q 19.53125 74.21875 31.78125 74.21875 
z
" id="DejaVuSans-48"/>
       <path d="M 18.109375 8.203125 
L 18.109375 -20.796875 
L 9.078125 -20.796875 
L 9.078125 54.6875 
L 18.109375 54.6875 
L 18.109375 46.390625 
Q 20.953125 51.265625 25.265625 53.625 
Q 29.59375 56 35.59375 56 
Q 45.5625 56 51.78125 48.09375 
Q 58.015625 40.1875 58.015625 27.296875 
Q 58.015625 14.40625 51.78125 6.484375 
Q 45.5625 -1.421875 35.59375 -1.421875 
Q 29.59375 -1.421875 25.265625 0.953125 
Q 20.953125 3.328125 18.109375 8.203125 
z
M 48.6875 27.296875 
Q 48.6875 37.203125 44.609375 42.84375 
Q 40.53125 48.484375 33.40625 48.484375 
Q 26.265625 48.484375 22.1875 42.84375 
Q 18.109375 37.203125 18.109375 27.296875 
Q 18.109375 17.390625 22.1875 11.75 
Q 26.265625 6.109375 33.40625 6.109375 
Q 40.53125 6.109375 44.609375 11.75 
Q 48.6875 17.390625 48.6875 27.296875 
z
" id="DejaVuSans-112"/>
       <path d="M 41.109375 46.296875 
Q 39.59375 47.171875 37.8125 47.578125 
Q 36.03125 48 33.890625 48 
Q 26.265625 48 22.1875 43.046875 
Q 18.109375 38.09375 18.109375 28.8125 
L 18.109375 0 
L 9.078125 0 
L 9.078125 54.6875 
L 18.109375 54.6875 
L 18.109375 46.1875 
Q 20.953125 51.171875 25.484375 53.578125 
Q 30.03125 56 36.53125 56 
Q 37.453125 56 38.578125 55.875 
Q 39.703125 55.765625 41.0625 55.515625 
z
" id="DejaVuSans-114"/>
       <path d="M 32.171875 -5.078125 
Q 28.375 -14.84375 24.75 -17.8125 
Q 21.140625 -20.796875 15.09375 -20.796875 
L 7.90625 -20.796875 
L 7.90625 -13.28125 
L 13.1875 -13.28125 
Q 16.890625 -13.28125 18.9375 -11.515625 
Q 21 -9.765625 23.484375 -3.21875 
L 25.09375 0.875 
L 2.984375 54.6875 
L 12.5 54.6875 
L 29.59375 11.921875 
L 46.6875 54.6875 
L 56.203125 54.6875 
z
" id="DejaVuSans-121"/>
      </defs>
      <g style="fill:#262626;" transform="translate(37.0368 323.751635)rotate(-15)scale(0.154 -0.154)">
       <use xlink:href="#DejaVuSans-108"/>
       <use x="27.783203" xlink:href="#DejaVuSans-101"/>
       <use x="89.306641" xlink:href="#DejaVuSans-115"/>
       <use x="141.40625" xlink:href="#DejaVuSans-115"/>
       <use x="193.505859" xlink:href="#DejaVuSans-32"/>
       <use x="225.292969" xlink:href="#DejaVuSans-116"/>
       <use x="264.501953" xlink:href="#DejaVuSans-104"/>
       <use x="327.880859" xlink:href="#DejaVuSans-97"/>
       <use x="389.160156" xlink:href="#DejaVuSans-110"/>
       <use x="452.539062" xlink:href="#DejaVuSans-32"/>
       <use x="484.326172" xlink:href="#DejaVuSans-49"/>
       <use x="547.949219" xlink:href="#DejaVuSans-48"/>
       <use x="611.572266" xlink:href="#DejaVuSans-104"/>
       <use x="674.951172" xlink:href="#DejaVuSans-32"/>
       <use x="706.738281" xlink:href="#DejaVuSans-112"/>
       <use x="770.214844" xlink:href="#DejaVuSans-101"/>
       <use x="831.738281" xlink:href="#DejaVuSans-114"/>
       <use x="872.851562" xlink:href="#DejaVuSans-32"/>
       <use x="904.638672" xlink:href="#DejaVuSans-121"/>
       <use x="963.818359" xlink:href="#DejaVuSans-101"/>
       <use x="1025.341797" xlink:href="#DejaVuSans-97"/>
       <use x="1086.621094" xlink:href="#DejaVuSans-114"/>
      </g>
     </g>
    </g>
    <g id="xtick_2">
     <g id="text_2">
      <!-- less than 3h per month -->
      <defs>
       <path d="M 40.578125 39.3125 
Q 47.65625 37.796875 51.625 33 
Q 55.609375 28.21875 55.609375 21.1875 
Q 55.609375 10.40625 48.1875 4.484375 
Q 40.765625 -1.421875 27.09375 -1.421875 
Q 22.515625 -1.421875 17.65625 -0.515625 
Q 12.796875 0.390625 7.625 2.203125 
L 7.625 11.71875 
Q 11.71875 9.328125 16.59375 8.109375 
Q 21.484375 6.890625 26.8125 6.890625 
Q 36.078125 6.890625 40.9375 10.546875 
Q 45.796875 14.203125 45.796875 21.1875 
Q 45.796875 27.640625 41.28125 31.265625 
Q 36.765625 34.90625 28.71875 34.90625 
L 20.21875 34.90625 
L 20.21875 43.015625 
L 29.109375 43.015625 
Q 36.375 43.015625 40.234375 45.921875 
Q 44.09375 48.828125 44.09375 54.296875 
Q 44.09375 59.90625 40.109375 62.90625 
Q 36.140625 65.921875 28.71875 65.921875 
Q 24.65625 65.921875 20.015625 65.03125 
Q 15.375 64.15625 9.8125 62.3125 
L 9.8125 71.09375 
Q 15.4375 72.65625 20.34375 73.4375 
Q 25.25 74.21875 29.59375 74.21875 
Q 40.828125 74.21875 47.359375 69.109375 
Q 53.90625 64.015625 53.90625 55.328125 
Q 53.90625 49.265625 50.4375 45.09375 
Q 46.96875 40.921875 40.578125 39.3125 
z
" id="DejaVuSans-51"/>
       <path d="M 52 44.1875 
Q 55.375 50.25 60.0625 53.125 
Q 64.75 56 71.09375 56 
Q 79.640625 56 84.28125 50.015625 
Q 88.921875 44.046875 88.921875 33.015625 
L 88.921875 0 
L 79.890625 0 
L 79.890625 32.71875 
Q 79.890625 40.578125 77.09375 44.375 
Q 74.3125 48.1875 68.609375 48.1875 
Q 61.625 48.1875 57.5625 43.546875 
Q 53.515625 38.921875 53.515625 30.90625 
L 53.515625 0 
L 44.484375 0 
L 44.484375 32.71875 
Q 44.484375 40.625 41.703125 44.40625 
Q 38.921875 48.1875 33.109375 48.1875 
Q 26.21875 48.1875 22.15625 43.53125 
Q 18.109375 38.875 18.109375 30.90625 
L 18.109375 0 
L 9.078125 0 
L 9.078125 54.6875 
L 18.109375 54.6875 
L 18.109375 46.1875 
Q 21.1875 51.21875 25.484375 53.609375 
Q 29.78125 56 35.6875 56 
Q 41.65625 56 45.828125 52.96875 
Q 50 49.953125 52 44.1875 
z
" id="DejaVuSans-109"/>
       <path d="M 30.609375 48.390625 
Q 23.390625 48.390625 19.1875 42.75 
Q 14.984375 37.109375 14.984375 27.296875 
Q 14.984375 17.484375 19.15625 11.84375 
Q 23.34375 6.203125 30.609375 6.203125 
Q 37.796875 6.203125 41.984375 11.859375 
Q 46.1875 17.53125 46.1875 27.296875 
Q 46.1875 37.015625 41.984375 42.703125 
Q 37.796875 48.390625 30.609375 48.390625 
z
M 30.609375 56 
Q 42.328125 56 49.015625 48.375 
Q 55.71875 40.765625 55.71875 27.296875 
Q 55.71875 13.875 49.015625 6.21875 
Q 42.328125 -1.421875 30.609375 -1.421875 
Q 18.84375 -1.421875 12.171875 6.21875 
Q 5.515625 13.875 5.515625 27.296875 
Q 5.515625 40.765625 12.171875 48.375 
Q 18.84375 56 30.609375 56 
z
" id="DejaVuSans-111"/>
      </defs>
      <g style="fill:#262626;" transform="translate(138.849447 325.258771)rotate(-15)scale(0.154 -0.154)">
       <use xlink:href="#DejaVuSans-108"/>
       <use x="27.783203" xlink:href="#DejaVuSans-101"/>
       <use x="89.306641" xlink:href="#DejaVuSans-115"/>
       <use x="141.40625" xlink:href="#DejaVuSans-115"/>
       <use x="193.505859" xlink:href="#DejaVuSans-32"/>
       <use x="225.292969" xlink:href="#DejaVuSans-116"/>
       <use x="264.501953" xlink:href="#DejaVuSans-104"/>
       <use x="327.880859" xlink:href="#DejaVuSans-97"/>
       <use x="389.160156" xlink:href="#DejaVuSans-110"/>
       <use x="452.539062" xlink:href="#DejaVuSans-32"/>
       <use x="484.326172" xlink:href="#DejaVuSans-51"/>
       <use x="547.949219" xlink:href="#DejaVuSans-104"/>
       <use x="611.328125" xlink:href="#DejaVuSans-32"/>
       <use x="643.115234" xlink:href="#DejaVuSans-112"/>
       <use x="706.591797" xlink:href="#DejaVuSans-101"/>
       <use x="768.115234" xlink:href="#DejaVuSans-114"/>
       <use x="809.228516" xlink:href="#DejaVuSans-32"/>
       <use x="841.015625" xlink:href="#DejaVuSans-109"/>
       <use x="938.427734" xlink:href="#DejaVuSans-111"/>
       <use x="999.609375" xlink:href="#DejaVuSans-110"/>
       <use x="1062.988281" xlink:href="#DejaVuSans-116"/>
       <use x="1102.197266" xlink:href="#DejaVuSans-104"/>
      </g>
     </g>
    </g>
    <g id="xtick_3">
     <g id="text_3">
      <!-- less than 5h in your life -->
      <defs>
       <path d="M 10.796875 72.90625 
L 49.515625 72.90625 
L 49.515625 64.59375 
L 19.828125 64.59375 
L 19.828125 46.734375 
Q 21.96875 47.46875 24.109375 47.828125 
Q 26.265625 48.1875 28.421875 48.1875 
Q 40.625 48.1875 47.75 41.5 
Q 54.890625 34.8125 54.890625 23.390625 
Q 54.890625 11.625 47.5625 5.09375 
Q 40.234375 -1.421875 26.90625 -1.421875 
Q 22.3125 -1.421875 17.546875 -0.640625 
Q 12.796875 0.140625 7.71875 1.703125 
L 7.71875 11.625 
Q 12.109375 9.234375 16.796875 8.0625 
Q 21.484375 6.890625 26.703125 6.890625 
Q 35.15625 6.890625 40.078125 11.328125 
Q 45.015625 15.765625 45.015625 23.390625 
Q 45.015625 31 40.078125 35.4375 
Q 35.15625 39.890625 26.703125 39.890625 
Q 22.75 39.890625 18.8125 39.015625 
Q 14.890625 38.140625 10.796875 36.28125 
z
" id="DejaVuSans-53"/>
       <path d="M 9.421875 54.6875 
L 18.40625 54.6875 
L 18.40625 0 
L 9.421875 0 
z
M 9.421875 75.984375 
L 18.40625 75.984375 
L 18.40625 64.59375 
L 9.421875 64.59375 
z
" id="DejaVuSans-105"/>
       <path d="M 8.5 21.578125 
L 8.5 54.6875 
L 17.484375 54.6875 
L 17.484375 21.921875 
Q 17.484375 14.15625 20.5 10.265625 
Q 23.53125 6.390625 29.59375 6.390625 
Q 36.859375 6.390625 41.078125 11.03125 
Q 45.3125 15.671875 45.3125 23.6875 
L 45.3125 54.6875 
L 54.296875 54.6875 
L 54.296875 0 
L 45.3125 0 
L 45.3125 8.40625 
Q 42.046875 3.421875 37.71875 1 
Q 33.40625 -1.421875 27.6875 -1.421875 
Q 18.265625 -1.421875 13.375 4.4375 
Q 8.5 10.296875 8.5 21.578125 
z
M 31.109375 56 
z
" id="DejaVuSans-117"/>
       <path d="M 37.109375 75.984375 
L 37.109375 68.5 
L 28.515625 68.5 
Q 23.6875 68.5 21.796875 66.546875 
Q 19.921875 64.59375 19.921875 59.515625 
L 19.921875 54.6875 
L 34.71875 54.6875 
L 34.71875 47.703125 
L 19.921875 47.703125 
L 19.921875 0 
L 10.890625 0 
L 10.890625 47.703125 
L 2.296875 47.703125 
L 2.296875 54.6875 
L 10.890625 54.6875 
L 10.890625 58.5 
Q 10.890625 67.625 15.140625 71.796875 
Q 19.390625 75.984375 28.609375 75.984375 
z
" id="DejaVuSans-102"/>
      </defs>
      <g style="fill:#262626;" transform="translate(242.773683 325.634309)rotate(-15)scale(0.154 -0.154)">
       <use xlink:href="#DejaVuSans-108"/>
       <use x="27.783203" xlink:href="#DejaVuSans-101"/>
       <use x="89.306641" xlink:href="#DejaVuSans-115"/>
       <use x="141.40625" xlink:href="#DejaVuSans-115"/>
       <use x="193.505859" xlink:href="#DejaVuSans-32"/>
       <use x="225.292969" xlink:href="#DejaVuSans-116"/>
       <use x="264.501953" xlink:href="#DejaVuSans-104"/>
       <use x="327.880859" xlink:href="#DejaVuSans-97"/>
       <use x="389.160156" xlink:href="#DejaVuSans-110"/>
       <use x="452.539062" xlink:href="#DejaVuSans-32"/>
       <use x="484.326172" xlink:href="#DejaVuSans-53"/>
       <use x="547.949219" xlink:href="#DejaVuSans-104"/>
       <use x="611.328125" xlink:href="#DejaVuSans-32"/>
       <use x="643.115234" xlink:href="#DejaVuSans-105"/>
       <use x="670.898438" xlink:href="#DejaVuSans-110"/>
       <use x="734.277344" xlink:href="#DejaVuSans-32"/>
       <use x="766.064453" xlink:href="#DejaVuSans-121"/>
       <use x="825.244141" xlink:href="#DejaVuSans-111"/>
       <use x="886.425781" xlink:href="#DejaVuSans-117"/>
       <use x="949.804688" xlink:href="#DejaVuSans-114"/>
       <use x="990.917969" xlink:href="#DejaVuSans-32"/>
       <use x="1022.705078" xlink:href="#DejaVuSans-108"/>
       <use x="1050.488281" xlink:href="#DejaVuSans-105"/>
       <use x="1078.271484" xlink:href="#DejaVuSans-102"/>
       <use x="1113.476562" xlink:href="#DejaVuSans-101"/>
      </g>
     </g>
    </g>
    <g id="xtick_4">
     <g id="text_4">
      <!-- less than 6h per week -->
      <defs>
       <path d="M 33.015625 40.375 
Q 26.375 40.375 22.484375 35.828125 
Q 18.609375 31.296875 18.609375 23.390625 
Q 18.609375 15.53125 22.484375 10.953125 
Q 26.375 6.390625 33.015625 6.390625 
Q 39.65625 6.390625 43.53125 10.953125 
Q 47.40625 15.53125 47.40625 23.390625 
Q 47.40625 31.296875 43.53125 35.828125 
Q 39.65625 40.375 33.015625 40.375 
z
M 52.59375 71.296875 
L 52.59375 62.3125 
Q 48.875 64.0625 45.09375 64.984375 
Q 41.3125 65.921875 37.59375 65.921875 
Q 27.828125 65.921875 22.671875 59.328125 
Q 17.53125 52.734375 16.796875 39.40625 
Q 19.671875 43.65625 24.015625 45.921875 
Q 28.375 48.1875 33.59375 48.1875 
Q 44.578125 48.1875 50.953125 41.515625 
Q 57.328125 34.859375 57.328125 23.390625 
Q 57.328125 12.15625 50.6875 5.359375 
Q 44.046875 -1.421875 33.015625 -1.421875 
Q 20.359375 -1.421875 13.671875 8.265625 
Q 6.984375 17.96875 6.984375 36.375 
Q 6.984375 53.65625 15.1875 63.9375 
Q 23.390625 74.21875 37.203125 74.21875 
Q 40.921875 74.21875 44.703125 73.484375 
Q 48.484375 72.75 52.59375 71.296875 
z
" id="DejaVuSans-54"/>
       <path d="M 4.203125 54.6875 
L 13.1875 54.6875 
L 24.421875 12.015625 
L 35.59375 54.6875 
L 46.1875 54.6875 
L 57.421875 12.015625 
L 68.609375 54.6875 
L 77.59375 54.6875 
L 63.28125 0 
L 52.6875 0 
L 40.921875 44.828125 
L 29.109375 0 
L 18.5 0 
z
" id="DejaVuSans-119"/>
       <path d="M 9.078125 75.984375 
L 18.109375 75.984375 
L 18.109375 31.109375 
L 44.921875 54.6875 
L 56.390625 54.6875 
L 27.390625 29.109375 
L 57.625 0 
L 45.90625 0 
L 18.109375 26.703125 
L 18.109375 0 
L 9.078125 0 
z
" id="DejaVuSans-107"/>
      </defs>
      <g style="fill:#262626;" transform="translate(352.695669 322.795663)rotate(-15)scale(0.154 -0.154)">
       <use xlink:href="#DejaVuSans-108"/>
       <use x="27.783203" xlink:href="#DejaVuSans-101"/>
       <use x="89.306641" xlink:href="#DejaVuSans-115"/>
       <use x="141.40625" xlink:href="#DejaVuSans-115"/>
       <use x="193.505859" xlink:href="#DejaVuSans-32"/>
       <use x="225.292969" xlink:href="#DejaVuSans-116"/>
       <use x="264.501953" xlink:href="#DejaVuSans-104"/>
       <use x="327.880859" xlink:href="#DejaVuSans-97"/>
       <use x="389.160156" xlink:href="#DejaVuSans-110"/>
       <use x="452.539062" xlink:href="#DejaVuSans-32"/>
       <use x="484.326172" xlink:href="#DejaVuSans-54"/>
       <use x="547.949219" xlink:href="#DejaVuSans-104"/>
       <use x="611.328125" xlink:href="#DejaVuSans-32"/>
       <use x="643.115234" xlink:href="#DejaVuSans-112"/>
       <use x="706.591797" xlink:href="#DejaVuSans-101"/>
       <use x="768.115234" xlink:href="#DejaVuSans-114"/>
       <use x="809.228516" xlink:href="#DejaVuSans-32"/>
       <use x="841.015625" xlink:href="#DejaVuSans-119"/>
       <use x="922.802734" xlink:href="#DejaVuSans-101"/>
       <use x="984.326172" xlink:href="#DejaVuSans-101"/>
       <use x="1045.849609" xlink:href="#DejaVuSans-107"/>
      </g>
     </g>
    </g>
    <g id="text_5">
     <!-- Time already spent using 3D softwares -->
     <defs>
      <path d="M -0.296875 72.90625 
L 61.375 72.90625 
L 61.375 64.59375 
L 35.5 64.59375 
L 35.5 0 
L 25.59375 0 
L 25.59375 64.59375 
L -0.296875 64.59375 
z
" id="DejaVuSans-84"/>
      <path d="M 45.40625 46.390625 
L 45.40625 75.984375 
L 54.390625 75.984375 
L 54.390625 0 
L 45.40625 0 
L 45.40625 8.203125 
Q 42.578125 3.328125 38.25 0.953125 
Q 33.9375 -1.421875 27.875 -1.421875 
Q 17.96875 -1.421875 11.734375 6.484375 
Q 5.515625 14.40625 5.515625 27.296875 
Q 5.515625 40.1875 11.734375 48.09375 
Q 17.96875 56 27.875 56 
Q 33.9375 56 38.25 53.625 
Q 42.578125 51.265625 45.40625 46.390625 
z
M 14.796875 27.296875 
Q 14.796875 17.390625 18.875 11.75 
Q 22.953125 6.109375 30.078125 6.109375 
Q 37.203125 6.109375 41.296875 11.75 
Q 45.40625 17.390625 45.40625 27.296875 
Q 45.40625 37.203125 41.296875 42.84375 
Q 37.203125 48.484375 30.078125 48.484375 
Q 22.953125 48.484375 18.875 42.84375 
Q 14.796875 37.203125 14.796875 27.296875 
z
" id="DejaVuSans-100"/>
      <path d="M 45.40625 27.984375 
Q 45.40625 37.75 41.375 43.109375 
Q 37.359375 48.484375 30.078125 48.484375 
Q 22.859375 48.484375 18.828125 43.109375 
Q 14.796875 37.75 14.796875 27.984375 
Q 14.796875 18.265625 18.828125 12.890625 
Q 22.859375 7.515625 30.078125 7.515625 
Q 37.359375 7.515625 41.375 12.890625 
Q 45.40625 18.265625 45.40625 27.984375 
z
M 54.390625 6.78125 
Q 54.390625 -7.171875 48.1875 -13.984375 
Q 42 -20.796875 29.203125 -20.796875 
Q 24.46875 -20.796875 20.265625 -20.09375 
Q 16.0625 -19.390625 12.109375 -17.921875 
L 12.109375 -9.1875 
Q 16.0625 -11.328125 19.921875 -12.34375 
Q 23.78125 -13.375 27.78125 -13.375 
Q 36.625 -13.375 41.015625 -8.765625 
Q 45.40625 -4.15625 45.40625 5.171875 
L 45.40625 9.625 
Q 42.625 4.78125 38.28125 2.390625 
Q 33.9375 0 27.875 0 
Q 17.828125 0 11.671875 7.65625 
Q 5.515625 15.328125 5.515625 27.984375 
Q 5.515625 40.671875 11.671875 48.328125 
Q 17.828125 56 27.875 56 
Q 33.9375 56 38.28125 53.609375 
Q 42.625 51.21875 45.40625 46.390625 
L 45.40625 54.6875 
L 54.390625 54.6875 
z
" id="DejaVuSans-103"/>
      <path d="M 19.671875 64.796875 
L 19.671875 8.109375 
L 31.59375 8.109375 
Q 46.6875 8.109375 53.6875 14.9375 
Q 60.6875 21.78125 60.6875 36.53125 
Q 60.6875 51.171875 53.6875 57.984375 
Q 46.6875 64.796875 31.59375 64.796875 
z
M 9.8125 72.90625 
L 30.078125 72.90625 
Q 51.265625 72.90625 61.171875 64.09375 
Q 71.09375 55.28125 71.09375 36.53125 
Q 71.09375 17.671875 61.125 8.828125 
Q 51.171875 0 30.078125 0 
L 9.8125 0 
z
" id="DejaVuSans-68"/>
     </defs>
     <g style="fill:#262626;" transform="translate(113.043188 345.493273)scale(0.168 -0.168)">
      <use xlink:href="#DejaVuSans-84"/>
      <use x="57.958984" xlink:href="#DejaVuSans-105"/>
      <use x="85.742188" xlink:href="#DejaVuSans-109"/>
      <use x="183.154297" xlink:href="#DejaVuSans-101"/>
      <use x="244.677734" xlink:href="#DejaVuSans-32"/>
      <use x="276.464844" xlink:href="#DejaVuSans-97"/>
      <use x="337.744141" xlink:href="#DejaVuSans-108"/>
      <use x="365.527344" xlink:href="#DejaVuSans-114"/>
      <use x="404.390625" xlink:href="#DejaVuSans-101"/>
      <use x="465.914062" xlink:href="#DejaVuSans-97"/>
      <use x="527.193359" xlink:href="#DejaVuSans-100"/>
      <use x="590.669922" xlink:href="#DejaVuSans-121"/>
      <use x="649.849609" xlink:href="#DejaVuSans-32"/>
      <use x="681.636719" xlink:href="#DejaVuSans-115"/>
      <use x="733.736328" xlink:href="#DejaVuSans-112"/>
      <use x="797.212891" xlink:href="#DejaVuSans-101"/>
      <use x="858.736328" xlink:href="#DejaVuSans-110"/>
      <use x="922.115234" xlink:href="#DejaVuSans-116"/>
      <use x="961.324219" xlink:href="#DejaVuSans-32"/>
      <use x="993.111328" xlink:href="#DejaVuSans-117"/>
      <use x="1056.490234" xlink:href="#DejaVuSans-115"/>
      <use x="1108.589844" xlink:href="#DejaVuSans-105"/>
      <use x="1136.373047" xlink:href="#DejaVuSans-110"/>
      <use x="1199.751953" xlink:href="#DejaVuSans-103"/>
      <use x="1263.228516" xlink:href="#DejaVuSans-32"/>
      <use x="1295.015625" xlink:href="#DejaVuSans-51"/>
      <use x="1358.638672" xlink:href="#DejaVuSans-68"/>
      <use x="1435.640625" xlink:href="#DejaVuSans-32"/>
      <use x="1467.427734" xlink:href="#DejaVuSans-115"/>
      <use x="1519.527344" xlink:href="#DejaVuSans-111"/>
      <use x="1580.708984" xlink:href="#DejaVuSans-102"/>
      <use x="1614.164062" xlink:href="#DejaVuSans-116"/>
      <use x="1653.373047" xlink:href="#DejaVuSans-119"/>
      <use x="1735.160156" xlink:href="#DejaVuSans-97"/>
      <use x="1796.439453" xlink:href="#DejaVuSans-114"/>
      <use x="1835.302734" xlink:href="#DejaVuSans-101"/>
      <use x="1896.826172" xlink:href="#DejaVuSans-115"/>
     </g>
    </g>
   </g>
   <g id="matplotlib.axis_2">
    <g id="ytick_1">
     <g id="line2d_1">
      <path clip-path="url(#p7e6ca894fc)" d="M 67.5 219.819226 
L 486 219.819226 
" style="fill:none;stroke:#cccccc;stroke-linecap:round;stroke-width:2;"/>
     </g>
     <g id="text_6">
      <!-- 0.0 -->
      <defs>
       <path d="M 10.6875 12.40625 
L 21 12.40625 
L 21 0 
L 10.6875 0 
z
" id="DejaVuSans-46"/>
      </defs>
      <g style="fill:#262626;" transform="translate(27.509187 225.670023)scale(0.154 -0.154)">
       <use xlink:href="#DejaVuSans-48"/>
       <use x="63.623047" xlink:href="#DejaVuSans-46"/>
       <use x="95.410156" xlink:href="#DejaVuSans-48"/>
      </g>
     </g>
    </g>
    <g id="ytick_2">
     <g id="line2d_2">
      <path clip-path="url(#p7e6ca894fc)" d="M 67.5 179.68565 
L 486 179.68565 
" style="fill:none;stroke:#cccccc;stroke-linecap:round;stroke-width:2;"/>
     </g>
     <g id="text_7">
      <!-- 0.2 -->
      <defs>
       <path d="M 19.1875 8.296875 
L 53.609375 8.296875 
L 53.609375 0 
L 7.328125 0 
L 7.328125 8.296875 
Q 12.9375 14.109375 22.625 23.890625 
Q 32.328125 33.6875 34.8125 36.53125 
Q 39.546875 41.84375 41.421875 45.53125 
Q 43.3125 49.21875 43.3125 52.78125 
Q 43.3125 58.59375 39.234375 62.25 
Q 35.15625 65.921875 28.609375 65.921875 
Q 23.96875 65.921875 18.8125 64.3125 
Q 13.671875 62.703125 7.8125 59.421875 
L 7.8125 69.390625 
Q 13.765625 71.78125 18.9375 73 
Q 24.125 74.21875 28.421875 74.21875 
Q 39.75 74.21875 46.484375 68.546875 
Q 53.21875 62.890625 53.21875 53.421875 
Q 53.21875 48.921875 51.53125 44.890625 
Q 49.859375 40.875 45.40625 35.40625 
Q 44.1875 33.984375 37.640625 27.21875 
Q 31.109375 20.453125 19.1875 8.296875 
z
" id="DejaVuSans-50"/>
      </defs>
      <g style="fill:#262626;" transform="translate(27.509187 185.536447)scale(0.154 -0.154)">
       <use xlink:href="#DejaVuSans-48"/>
       <use x="63.623047" xlink:href="#DejaVuSans-46"/>
       <use x="95.410156" xlink:href="#DejaVuSans-50"/>
      </g>
     </g>
    </g>
    <g id="ytick_3">
     <g id="line2d_3">
      <path clip-path="url(#p7e6ca894fc)" d="M 67.5 139.552075 
L 486 139.552075 
" style="fill:none;stroke:#cccccc;stroke-linecap:round;stroke-width:2;"/>
     </g>
     <g id="text_8">
      <!-- 0.4 -->
      <defs>
       <path d="M 37.796875 64.3125 
L 12.890625 25.390625 
L 37.796875 25.390625 
z
M 35.203125 72.90625 
L 47.609375 72.90625 
L 47.609375 25.390625 
L 58.015625 25.390625 
L 58.015625 17.1875 
L 47.609375 17.1875 
L 47.609375 0 
L 37.796875 0 
L 37.796875 17.1875 
L 4.890625 17.1875 
L 4.890625 26.703125 
z
" id="DejaVuSans-52"/>
      </defs>
      <g style="fill:#262626;" transform="translate(27.509187 145.402871)scale(0.154 -0.154)">
       <use xlink:href="#DejaVuSans-48"/>
       <use x="63.623047" xlink:href="#DejaVuSans-46"/>
       <use x="95.410156" xlink:href="#DejaVuSans-52"/>
      </g>
     </g>
    </g>
    <g id="ytick_4">
     <g id="line2d_4">
      <path clip-path="url(#p7e6ca894fc)" d="M 67.5 99.418499 
L 486 99.418499 
" style="fill:none;stroke:#cccccc;stroke-linecap:round;stroke-width:2;"/>
     </g>
     <g id="text_9">
      <!-- 0.6 -->
      <g style="fill:#262626;" transform="translate(27.509187 105.269296)scale(0.154 -0.154)">
       <use xlink:href="#DejaVuSans-48"/>
       <use x="63.623047" xlink:href="#DejaVuSans-46"/>
       <use x="95.410156" xlink:href="#DejaVuSans-54"/>
      </g>
     </g>
    </g>
    <g id="ytick_5">
     <g id="line2d_5">
      <path clip-path="url(#p7e6ca894fc)" d="M 67.5 59.284923 
L 486 59.284923 
" style="fill:none;stroke:#cccccc;stroke-linecap:round;stroke-width:2;"/>
     </g>
     <g id="text_10">
      <!-- 0.8 -->
      <defs>
       <path d="M 31.78125 34.625 
Q 24.75 34.625 20.71875 30.859375 
Q 16.703125 27.09375 16.703125 20.515625 
Q 16.703125 13.921875 20.71875 10.15625 
Q 24.75 6.390625 31.78125 6.390625 
Q 38.8125 6.390625 42.859375 10.171875 
Q 46.921875 13.96875 46.921875 20.515625 
Q 46.921875 27.09375 42.890625 30.859375 
Q 38.875 34.625 31.78125 34.625 
z
M 21.921875 38.8125 
Q 15.578125 40.375 12.03125 44.71875 
Q 8.5 49.078125 8.5 55.328125 
Q 8.5 64.0625 14.71875 69.140625 
Q 20.953125 74.21875 31.78125 74.21875 
Q 42.671875 74.21875 48.875 69.140625 
Q 55.078125 64.0625 55.078125 55.328125 
Q 55.078125 49.078125 51.53125 44.71875 
Q 48 40.375 41.703125 38.8125 
Q 48.828125 37.15625 52.796875 32.3125 
Q 56.78125 27.484375 56.78125 20.515625 
Q 56.78125 9.90625 50.3125 4.234375 
Q 43.84375 -1.421875 31.78125 -1.421875 
Q 19.734375 -1.421875 13.25 4.234375 
Q 6.78125 9.90625 6.78125 20.515625 
Q 6.78125 27.484375 10.78125 32.3125 
Q 14.796875 37.15625 21.921875 38.8125 
z
M 18.3125 54.390625 
Q 18.3125 48.734375 21.84375 45.5625 
Q 25.390625 42.390625 31.78125 42.390625 
Q 38.140625 42.390625 41.71875 45.5625 
Q 45.3125 48.734375 45.3125 54.390625 
Q 45.3125 60.0625 41.71875 63.234375 
Q 38.140625 66.40625 31.78125 66.40625 
Q 25.390625 66.40625 21.84375 63.234375 
Q 18.3125 60.0625 18.3125 54.390625 
z
" id="DejaVuSans-56"/>
      </defs>
      <g style="fill:#262626;" transform="translate(27.509187 65.13572)scale(0.154 -0.154)">
       <use xlink:href="#DejaVuSans-48"/>
       <use x="63.623047" xlink:href="#DejaVuSans-46"/>
       <use x="95.410156" xlink:href="#DejaVuSans-56"/>
      </g>
     </g>
    </g>
    <g id="text_11">
     <!-- Veracity Score -->
     <defs>
      <path d="M 28.609375 0 
L 0.78125 72.90625 
L 11.078125 72.90625 
L 34.1875 11.53125 
L 57.328125 72.90625 
L 67.578125 72.90625 
L 39.796875 0 
z
" id="DejaVuSans-86"/>
      <path d="M 48.78125 52.59375 
L 48.78125 44.1875 
Q 44.96875 46.296875 41.140625 47.34375 
Q 37.3125 48.390625 33.40625 48.390625 
Q 24.65625 48.390625 19.8125 42.84375 
Q 14.984375 37.3125 14.984375 27.296875 
Q 14.984375 17.28125 19.8125 11.734375 
Q 24.65625 6.203125 33.40625 6.203125 
Q 37.3125 6.203125 41.140625 7.25 
Q 44.96875 8.296875 48.78125 10.40625 
L 48.78125 2.09375 
Q 45.015625 0.34375 40.984375 -0.53125 
Q 36.96875 -1.421875 32.421875 -1.421875 
Q 20.0625 -1.421875 12.78125 6.34375 
Q 5.515625 14.109375 5.515625 27.296875 
Q 5.515625 40.671875 12.859375 48.328125 
Q 20.21875 56 33.015625 56 
Q 37.15625 56 41.109375 55.140625 
Q 45.0625 54.296875 48.78125 52.59375 
z
" id="DejaVuSans-99"/>
      <path d="M 53.515625 70.515625 
L 53.515625 60.890625 
Q 47.90625 63.578125 42.921875 64.890625 
Q 37.9375 66.21875 33.296875 66.21875 
Q 25.25 66.21875 20.875 63.09375 
Q 16.5 59.96875 16.5 54.203125 
Q 16.5 49.359375 19.40625 46.890625 
Q 22.3125 44.4375 30.421875 42.921875 
L 36.375 41.703125 
Q 47.40625 39.59375 52.65625 34.296875 
Q 57.90625 29 57.90625 20.125 
Q 57.90625 9.515625 50.796875 4.046875 
Q 43.703125 -1.421875 29.984375 -1.421875 
Q 24.8125 -1.421875 18.96875 -0.25 
Q 13.140625 0.921875 6.890625 3.21875 
L 6.890625 13.375 
Q 12.890625 10.015625 18.65625 8.296875 
Q 24.421875 6.59375 29.984375 6.59375 
Q 38.421875 6.59375 43.015625 9.90625 
Q 47.609375 13.234375 47.609375 19.390625 
Q 47.609375 24.75 44.3125 27.78125 
Q 41.015625 30.8125 33.5 32.328125 
L 27.484375 33.5 
Q 16.453125 35.6875 11.515625 40.375 
Q 6.59375 45.0625 6.59375 53.421875 
Q 6.59375 63.09375 13.40625 68.65625 
Q 20.21875 74.21875 32.171875 74.21875 
Q 37.3125 74.21875 42.625 73.28125 
Q 47.953125 72.359375 53.515625 70.515625 
z
" id="DejaVuSans-83"/>
     </defs>
     <g style="fill:#262626;" transform="translate(20.015312 203.55525)rotate(-90)scale(0.168 -0.168)">
      <use xlink:href="#DejaVuSans-86"/>
      <use x="60.658203" xlink:href="#DejaVuSans-101"/>
      <use x="122.181641" xlink:href="#DejaVuSans-114"/>
      <use x="163.294922" xlink:href="#DejaVuSans-97"/>
      <use x="224.574219" xlink:href="#DejaVuSans-99"/>
      <use x="279.554688" xlink:href="#DejaVuSans-105"/>
      <use x="307.337891" xlink:href="#DejaVuSans-116"/>
      <use x="346.546875" xlink:href="#DejaVuSans-121"/>
      <use x="405.726562" xlink:href="#DejaVuSans-32"/>
      <use x="437.513672" xlink:href="#DejaVuSans-83"/>
      <use x="500.990234" xlink:href="#DejaVuSans-99"/>
      <use x="555.970703" xlink:href="#DejaVuSans-111"/>
      <use x="617.152344" xlink:href="#DejaVuSans-114"/>
      <use x="656.015625" xlink:href="#DejaVuSans-101"/>
     </g>
    </g>
   </g>
   <g id="PolyCollection_1">
    <defs>
     <path d="M 119.8125 -65.1963 
L 118.77281 -65.1963 
L 118.556672 -66.62168 
L 118.306262 -68.04706 
L 118.018447 -69.47244 
L 117.690228 -70.89782 
L 117.318821 -72.3232 
L 116.901729 -73.74858 
L 116.436808 -75.17396 
L 115.922326 -76.59934 
L 115.357002 -78.02472 
L 114.740031 -79.4501 
L 114.071087 -80.87548 
L 113.350303 -82.30086 
L 112.578237 -83.72624 
L 111.755812 -85.15162 
L 110.88425 -86.577 
L 109.965001 -88.00238 
L 108.999666 -89.42776 
L 107.989934 -90.85314 
L 106.937545 -92.27852 
L 105.844271 -93.7039 
L 104.711935 -95.12928 
L 103.542476 -96.55466 
L 102.338052 -97.98004 
L 101.101182 -99.40542 
L 99.834924 -100.8308 
L 98.543088 -102.25618 
L 97.230445 -103.68156 
L 95.902948 -105.10694 
L 94.567917 -106.53232 
L 93.23419 -107.9577 
L 91.912203 -109.38308 
L 90.613993 -110.80846 
L 89.353107 -112.23384 
L 88.144403 -113.65922 
L 87.003746 -115.0846 
L 85.947602 -116.50998 
L 84.992541 -117.935361 
L 84.154668 -119.360741 
L 83.449009 -120.786121 
L 82.888885 -122.211501 
L 82.485297 -123.636881 
L 82.246375 -125.062261 
L 82.176911 -126.487641 
L 82.278005 -127.913021 
L 82.546863 -129.338401 
L 82.976745 -130.763781 
L 83.557088 -132.189161 
L 84.273785 -133.614541 
L 85.10963 -135.039921 
L 86.044882 -136.465301 
L 87.057953 -137.890681 
L 88.12616 -139.316061 
L 89.226515 -140.741441 
L 90.336523 -142.166821 
L 91.434937 -143.592201 
L 92.502451 -145.017581 
L 93.522292 -146.442961 
L 94.480692 -147.868341 
L 95.367232 -149.293721 
L 96.175035 -150.719101 
L 96.900824 -152.144481 
L 97.544829 -153.569861 
L 98.110583 -154.995241 
L 98.604587 -156.420621 
L 99.035892 -157.846001 
L 99.415604 -159.271381 
L 99.756339 -160.696761 
L 100.07165 -162.122141 
L 100.375442 -163.547521 
L 100.681414 -164.972901 
L 101.002528 -166.398281 
L 101.350531 -167.823661 
L 101.735548 -169.249041 
L 102.165759 -170.674421 
L 102.647158 -172.099801 
L 103.18341 -173.525181 
L 103.775809 -174.950561 
L 104.423326 -176.375941 
L 105.122746 -177.801321 
L 105.868883 -179.226701 
L 106.654867 -180.652081 
L 107.472474 -182.077461 
L 108.312495 -183.502841 
L 109.165121 -184.928221 
L 110.020325 -186.353601 
L 110.868226 -187.778981 
L 111.699419 -189.204361 
L 112.505266 -190.629741 
L 113.278123 -192.055121 
L 114.011516 -193.480501 
L 114.700251 -194.905881 
L 115.34046 -196.331261 
L 115.929599 -197.756641 
L 116.466389 -199.182021 
L 116.950717 -200.607401 
L 117.383504 -202.032781 
L 117.766556 -203.458161 
L 118.102396 -204.883541 
L 118.394098 -206.308921 
L 119.8125 -206.308921 
L 119.8125 -206.308921 
L 119.8125 -204.883541 
L 119.8125 -203.458161 
L 119.8125 -202.032781 
L 119.8125 -200.607401 
L 119.8125 -199.182021 
L 119.8125 -197.756641 
L 119.8125 -196.331261 
L 119.8125 -194.905881 
L 119.8125 -193.480501 
L 119.8125 -192.055121 
L 119.8125 -190.629741 
L 119.8125 -189.204361 
L 119.8125 -187.778981 
L 119.8125 -186.353601 
L 119.8125 -184.928221 
L 119.8125 -183.502841 
L 119.8125 -182.077461 
L 119.8125 -180.652081 
L 119.8125 -179.226701 
L 119.8125 -177.801321 
L 119.8125 -176.375941 
L 119.8125 -174.950561 
L 119.8125 -173.525181 
L 119.8125 -172.099801 
L 119.8125 -170.674421 
L 119.8125 -169.249041 
L 119.8125 -167.823661 
L 119.8125 -166.398281 
L 119.8125 -164.972901 
L 119.8125 -163.547521 
L 119.8125 -162.122141 
L 119.8125 -160.696761 
L 119.8125 -159.271381 
L 119.8125 -157.846001 
L 119.8125 -156.420621 
L 119.8125 -154.995241 
L 119.8125 -153.569861 
L 119.8125 -152.144481 
L 119.8125 -150.719101 
L 119.8125 -149.293721 
L 119.8125 -147.868341 
L 119.8125 -146.442961 
L 119.8125 -145.017581 
L 119.8125 -143.592201 
L 119.8125 -142.166821 
L 119.8125 -140.741441 
L 119.8125 -139.316061 
L 119.8125 -137.890681 
L 119.8125 -136.465301 
L 119.8125 -135.039921 
L 119.8125 -133.614541 
L 119.8125 -132.189161 
L 119.8125 -130.763781 
L 119.8125 -129.338401 
L 119.8125 -127.913021 
L 119.8125 -126.487641 
L 119.8125 -125.062261 
L 119.8125 -123.636881 
L 119.8125 -122.211501 
L 119.8125 -120.786121 
L 119.8125 -119.360741 
L 119.8125 -117.935361 
L 119.8125 -116.50998 
L 119.8125 -115.0846 
L 119.8125 -113.65922 
L 119.8125 -112.23384 
L 119.8125 -110.80846 
L 119.8125 -109.38308 
L 119.8125 -107.9577 
L 119.8125 -106.53232 
L 119.8125 -105.10694 
L 119.8125 -103.68156 
L 119.8125 -102.25618 
L 119.8125 -100.8308 
L 119.8125 -99.40542 
L 119.8125 -97.98004 
L 119.8125 -96.55466 
L 119.8125 -95.12928 
L 119.8125 -93.7039 
L 119.8125 -92.27852 
L 119.8125 -90.85314 
L 119.8125 -89.42776 
L 119.8125 -88.00238 
L 119.8125 -86.577 
L 119.8125 -85.15162 
L 119.8125 -83.72624 
L 119.8125 -82.30086 
L 119.8125 -80.87548 
L 119.8125 -79.4501 
L 119.8125 -78.02472 
L 119.8125 -76.59934 
L 119.8125 -75.17396 
L 119.8125 -73.74858 
L 119.8125 -72.3232 
L 119.8125 -70.89782 
L 119.8125 -69.47244 
L 119.8125 -68.04706 
L 119.8125 -66.62168 
L 119.8125 -65.1963 
z
" id="m23fa37ba1a" style="stroke:#737373;stroke-width:3;"/>
    </defs>
    <g clip-path="url(#p7e6ca894fc)">
     <use style="fill:#abc9ea;stroke:#737373;stroke-width:3;" x="0" xlink:href="#m23fa37ba1a" y="288"/>
    </g>
   </g>
   <g id="PolyCollection_2">
    <defs>
     <path d="M 121.584616 -93.366631 
L 119.8125 -93.366631 
L 119.8125 -94.636576 
L 119.8125 -95.906521 
L 119.8125 -97.176467 
L 119.8125 -98.446412 
L 119.8125 -99.716357 
L 119.8125 -100.986303 
L 119.8125 -102.256248 
L 119.8125 -103.526193 
L 119.8125 -104.796139 
L 119.8125 -106.066084 
L 119.8125 -107.336029 
L 119.8125 -108.605975 
L 119.8125 -109.87592 
L 119.8125 -111.145865 
L 119.8125 -112.415811 
L 119.8125 -113.685756 
L 119.8125 -114.955701 
L 119.8125 -116.225647 
L 119.8125 -117.495592 
L 119.8125 -118.765537 
L 119.8125 -120.035483 
L 119.8125 -121.305428 
L 119.8125 -122.575373 
L 119.8125 -123.845319 
L 119.8125 -125.115264 
L 119.8125 -126.385209 
L 119.8125 -127.655155 
L 119.8125 -128.9251 
L 119.8125 -130.195045 
L 119.8125 -131.464991 
L 119.8125 -132.734936 
L 119.8125 -134.004881 
L 119.8125 -135.274827 
L 119.8125 -136.544772 
L 119.8125 -137.814717 
L 119.8125 -139.084663 
L 119.8125 -140.354608 
L 119.8125 -141.624553 
L 119.8125 -142.894499 
L 119.8125 -144.164444 
L 119.8125 -145.43439 
L 119.8125 -146.704335 
L 119.8125 -147.97428 
L 119.8125 -149.244226 
L 119.8125 -150.514171 
L 119.8125 -151.784116 
L 119.8125 -153.054062 
L 119.8125 -154.324007 
L 119.8125 -155.593952 
L 119.8125 -156.863898 
L 119.8125 -158.133843 
L 119.8125 -159.403788 
L 119.8125 -160.673734 
L 119.8125 -161.943679 
L 119.8125 -163.213624 
L 119.8125 -164.48357 
L 119.8125 -165.753515 
L 119.8125 -167.02346 
L 119.8125 -168.293406 
L 119.8125 -169.563351 
L 119.8125 -170.833296 
L 119.8125 -172.103242 
L 119.8125 -173.373187 
L 119.8125 -174.643132 
L 119.8125 -175.913078 
L 119.8125 -177.183023 
L 119.8125 -178.452968 
L 119.8125 -179.722914 
L 119.8125 -180.992859 
L 119.8125 -182.262804 
L 119.8125 -183.53275 
L 119.8125 -184.802695 
L 119.8125 -186.07264 
L 119.8125 -187.342586 
L 119.8125 -188.612531 
L 119.8125 -189.882476 
L 119.8125 -191.152422 
L 119.8125 -192.422367 
L 119.8125 -193.692312 
L 119.8125 -194.962258 
L 119.8125 -196.232203 
L 119.8125 -197.502148 
L 119.8125 -198.772094 
L 119.8125 -200.042039 
L 119.8125 -201.311984 
L 119.8125 -202.58193 
L 119.8125 -203.851875 
L 119.8125 -205.12182 
L 119.8125 -206.391766 
L 119.8125 -207.661711 
L 119.8125 -208.931656 
L 119.8125 -210.201602 
L 119.8125 -211.471547 
L 119.8125 -212.741492 
L 119.8125 -214.011438 
L 119.8125 -215.281383 
L 119.8125 -216.551328 
L 119.8125 -217.821274 
L 119.8125 -219.091219 
L 120.938565 -219.091219 
L 120.938565 -219.091219 
L 121.160223 -217.821274 
L 121.412968 -216.551328 
L 121.698438 -215.281383 
L 122.017812 -214.011438 
L 122.371718 -212.741492 
L 122.760154 -211.471547 
L 123.182424 -210.201602 
L 123.637111 -208.931656 
L 124.122066 -207.661711 
L 124.634452 -206.391766 
L 125.170815 -205.12182 
L 125.727198 -203.851875 
L 126.299296 -202.58193 
L 126.88264 -201.311984 
L 127.472815 -200.042039 
L 128.065682 -198.772094 
L 128.657621 -197.502148 
L 129.245751 -196.232203 
L 129.828144 -194.962258 
L 130.403995 -193.692312 
L 130.973752 -192.422367 
L 131.539191 -191.152422 
L 132.103423 -189.882476 
L 132.670846 -188.612531 
L 133.247017 -187.342586 
L 133.838472 -186.07264 
L 134.452477 -184.802695 
L 135.096733 -183.53275 
L 135.77905 -182.262804 
L 136.506979 -180.992859 
L 137.287451 -179.722914 
L 138.126407 -178.452968 
L 139.028449 -177.183023 
L 139.996532 -175.913078 
L 141.031694 -174.643132 
L 142.132843 -173.373187 
L 143.296627 -172.103242 
L 144.517364 -170.833296 
L 145.787066 -169.563351 
L 147.095548 -168.293406 
L 148.430618 -167.02346 
L 149.778352 -165.753515 
L 151.123447 -164.48357 
L 152.449626 -163.213624 
L 153.740107 -161.943679 
L 154.97809 -160.673734 
L 156.147258 -159.403788 
L 157.232275 -158.133843 
L 158.219235 -156.863898 
L 159.096071 -155.593952 
L 159.852879 -154.324007 
L 160.482158 -153.054062 
L 160.97894 -151.784116 
L 161.340823 -150.514171 
L 161.567885 -149.244226 
L 161.6625 -147.97428 
L 161.629065 -146.704335 
L 161.473649 -145.43439 
L 161.203593 -144.164444 
L 160.827076 -142.894499 
L 160.352685 -141.624553 
L 159.788999 -140.354608 
L 159.144222 -139.084663 
L 158.425877 -137.814717 
L 157.640582 -136.544772 
L 156.793916 -135.274827 
L 155.890374 -134.004881 
L 154.933419 -132.734936 
L 153.925618 -131.464991 
L 152.868843 -130.195045 
L 151.76453 -128.9251 
L 150.613971 -127.655155 
L 149.418617 -126.385209 
L 148.180369 -125.115264 
L 146.901837 -123.845319 
L 145.586549 -122.575373 
L 144.239099 -121.305428 
L 142.865213 -120.035483 
L 141.471748 -118.765537 
L 140.066598 -117.495592 
L 138.658545 -116.225647 
L 137.257034 -114.955701 
L 135.871912 -113.685756 
L 134.513132 -112.415811 
L 133.190442 -111.145865 
L 131.913089 -109.87592 
L 130.689535 -108.605975 
L 129.527217 -107.336029 
L 128.432353 -106.066084 
L 127.409804 -104.796139 
L 126.462997 -103.526193 
L 125.593904 -102.256248 
L 124.803085 -100.986303 
L 124.089771 -99.716357 
L 123.451998 -98.446412 
L 122.886764 -97.176467 
L 122.390213 -95.906521 
L 121.957827 -94.636576 
L 121.584616 -93.366631 
z
" id="mee69b579e9" style="stroke:#737373;stroke-width:3;"/>
    </defs>
    <g clip-path="url(#p7e6ca894fc)">
     <use style="fill:#efb792;stroke:#737373;stroke-width:3;" x="0" xlink:href="#mee69b579e9" y="288"/>
    </g>
   </g>
   <g id="PolyCollection_3">
    <defs>
     <path d="M 224.4375 -56.615698 
L 222.740924 -56.615698 
L 222.478603 -58.503987 
L 222.186771 -60.392277 
L 221.864018 -62.280566 
L 221.509174 -64.168856 
L 221.121351 -66.057145 
L 220.699991 -67.945435 
L 220.244902 -69.833724 
L 219.756291 -71.722014 
L 219.234787 -73.610304 
L 218.681453 -75.498593 
L 218.097792 -77.386883 
L 217.485728 -79.275172 
L 216.847591 -81.163462 
L 216.186074 -83.051751 
L 215.504184 -84.940041 
L 214.805181 -86.82833 
L 214.092505 -88.71662 
L 213.3697 -90.60491 
L 212.640322 -92.493199 
L 211.90786 -94.381489 
L 211.175647 -96.269778 
L 210.446778 -98.158068 
L 209.724043 -100.046357 
L 209.009859 -101.934647 
L 208.306232 -103.822936 
L 207.61472 -105.711226 
L 206.936426 -107.599516 
L 206.272002 -109.487805 
L 205.621678 -111.376095 
L 204.985308 -113.264384 
L 204.362424 -115.152674 
L 203.75232 -117.040963 
L 203.15413 -118.929253 
L 202.566924 -120.817542 
L 201.989804 -122.705832 
L 201.421998 -124.594122 
L 200.862948 -126.482411 
L 200.312394 -128.370701 
L 199.770441 -130.25899 
L 199.237613 -132.14728 
L 198.714891 -134.035569 
L 198.203733 -135.923859 
L 197.706071 -137.812148 
L 197.2243 -139.700438 
L 196.761238 -141.588728 
L 196.320082 -143.477017 
L 195.904344 -145.365307 
L 195.517782 -147.253596 
L 195.164318 -149.141886 
L 194.847959 -151.030175 
L 194.572712 -152.918465 
L 194.342502 -154.806754 
L 194.161095 -156.695044 
L 194.032022 -158.583334 
L 193.958515 -160.471623 
L 193.94345 -162.359913 
L 193.989292 -164.248202 
L 194.098061 -166.136492 
L 194.271291 -168.024781 
L 194.510007 -169.913071 
L 194.814707 -171.80136 
L 195.185349 -173.68965 
L 195.621344 -175.57794 
L 196.121553 -177.466229 
L 196.684293 -179.354519 
L 197.307344 -181.242808 
L 197.987962 -183.131098 
L 198.722901 -185.019387 
L 199.508429 -186.907677 
L 200.340366 -188.795967 
L 201.214114 -190.684256 
L 202.124702 -192.572546 
L 203.066834 -194.460835 
L 204.034941 -196.349125 
L 205.023249 -198.237414 
L 206.025841 -200.125704 
L 207.036726 -202.013993 
L 208.049921 -203.902283 
L 209.059522 -205.790573 
L 210.05978 -207.678862 
L 211.045181 -209.567152 
L 212.01051 -211.455441 
L 212.950923 -213.343731 
L 213.862004 -215.23202 
L 214.739813 -217.12031 
L 215.580928 -219.008599 
L 216.382472 -220.896889 
L 217.142133 -222.785179 
L 217.858168 -224.673468 
L 218.5294 -226.561758 
L 219.155199 -228.450047 
L 219.735455 -230.338337 
L 220.270546 -232.226626 
L 220.761294 -234.114916 
L 221.208914 -236.003205 
L 221.614968 -237.891495 
L 221.981301 -239.779785 
L 222.309992 -241.668074 
L 222.603298 -243.556364 
L 224.4375 -243.556364 
L 224.4375 -243.556364 
L 224.4375 -241.668074 
L 224.4375 -239.779785 
L 224.4375 -237.891495 
L 224.4375 -236.003205 
L 224.4375 -234.114916 
L 224.4375 -232.226626 
L 224.4375 -230.338337 
L 224.4375 -228.450047 
L 224.4375 -226.561758 
L 224.4375 -224.673468 
L 224.4375 -222.785179 
L 224.4375 -220.896889 
L 224.4375 -219.008599 
L 224.4375 -217.12031 
L 224.4375 -215.23202 
L 224.4375 -213.343731 
L 224.4375 -211.455441 
L 224.4375 -209.567152 
L 224.4375 -207.678862 
L 224.4375 -205.790573 
L 224.4375 -203.902283 
L 224.4375 -202.013993 
L 224.4375 -200.125704 
L 224.4375 -198.237414 
L 224.4375 -196.349125 
L 224.4375 -194.460835 
L 224.4375 -192.572546 
L 224.4375 -190.684256 
L 224.4375 -188.795967 
L 224.4375 -186.907677 
L 224.4375 -185.019387 
L 224.4375 -183.131098 
L 224.4375 -181.242808 
L 224.4375 -179.354519 
L 224.4375 -177.466229 
L 224.4375 -175.57794 
L 224.4375 -173.68965 
L 224.4375 -171.80136 
L 224.4375 -169.913071 
L 224.4375 -168.024781 
L 224.4375 -166.136492 
L 224.4375 -164.248202 
L 224.4375 -162.359913 
L 224.4375 -160.471623 
L 224.4375 -158.583334 
L 224.4375 -156.695044 
L 224.4375 -154.806754 
L 224.4375 -152.918465 
L 224.4375 -151.030175 
L 224.4375 -149.141886 
L 224.4375 -147.253596 
L 224.4375 -145.365307 
L 224.4375 -143.477017 
L 224.4375 -141.588728 
L 224.4375 -139.700438 
L 224.4375 -137.812148 
L 224.4375 -135.923859 
L 224.4375 -134.035569 
L 224.4375 -132.14728 
L 224.4375 -130.25899 
L 224.4375 -128.370701 
L 224.4375 -126.482411 
L 224.4375 -124.594122 
L 224.4375 -122.705832 
L 224.4375 -120.817542 
L 224.4375 -118.929253 
L 224.4375 -117.040963 
L 224.4375 -115.152674 
L 224.4375 -113.264384 
L 224.4375 -111.376095 
L 224.4375 -109.487805 
L 224.4375 -107.599516 
L 224.4375 -105.711226 
L 224.4375 -103.822936 
L 224.4375 -101.934647 
L 224.4375 -100.046357 
L 224.4375 -98.158068 
L 224.4375 -96.269778 
L 224.4375 -94.381489 
L 224.4375 -92.493199 
L 224.4375 -90.60491 
L 224.4375 -88.71662 
L 224.4375 -86.82833 
L 224.4375 -84.940041 
L 224.4375 -83.051751 
L 224.4375 -81.163462 
L 224.4375 -79.275172 
L 224.4375 -77.386883 
L 224.4375 -75.498593 
L 224.4375 -73.610304 
L 224.4375 -71.722014 
L 224.4375 -69.833724 
L 224.4375 -67.945435 
L 224.4375 -66.057145 
L 224.4375 -64.168856 
L 224.4375 -62.280566 
L 224.4375 -60.392277 
L 224.4375 -58.503987 
L 224.4375 -56.615698 
z
" id="mfe4b1eec16" style="stroke:#737373;stroke-width:3;"/>
    </defs>
    <g clip-path="url(#p7e6ca894fc)">
     <use style="fill:#abc9ea;stroke:#737373;stroke-width:3;" x="0" xlink:href="#mfe4b1eec16" y="288"/>
    </g>
   </g>
   <g id="PolyCollection_4">
    <defs>
     <path d="M 228.73181 -69.227132 
L 224.4375 -69.227132 
L 224.4375 -70.736546 
L 224.4375 -72.24596 
L 224.4375 -73.755374 
L 224.4375 -75.264789 
L 224.4375 -76.774203 
L 224.4375 -78.283617 
L 224.4375 -79.793031 
L 224.4375 -81.302446 
L 224.4375 -82.81186 
L 224.4375 -84.321274 
L 224.4375 -85.830688 
L 224.4375 -87.340103 
L 224.4375 -88.849517 
L 224.4375 -90.358931 
L 224.4375 -91.868345 
L 224.4375 -93.377759 
L 224.4375 -94.887174 
L 224.4375 -96.396588 
L 224.4375 -97.906002 
L 224.4375 -99.415416 
L 224.4375 -100.924831 
L 224.4375 -102.434245 
L 224.4375 -103.943659 
L 224.4375 -105.453073 
L 224.4375 -106.962488 
L 224.4375 -108.471902 
L 224.4375 -109.981316 
L 224.4375 -111.49073 
L 224.4375 -113.000145 
L 224.4375 -114.509559 
L 224.4375 -116.018973 
L 224.4375 -117.528387 
L 224.4375 -119.037801 
L 224.4375 -120.547216 
L 224.4375 -122.05663 
L 224.4375 -123.566044 
L 224.4375 -125.075458 
L 224.4375 -126.584873 
L 224.4375 -128.094287 
L 224.4375 -129.603701 
L 224.4375 -131.113115 
L 224.4375 -132.62253 
L 224.4375 -134.131944 
L 224.4375 -135.641358 
L 224.4375 -137.150772 
L 224.4375 -138.660187 
L 224.4375 -140.169601 
L 224.4375 -141.679015 
L 224.4375 -143.188429 
L 224.4375 -144.697843 
L 224.4375 -146.207258 
L 224.4375 -147.716672 
L 224.4375 -149.226086 
L 224.4375 -150.7355 
L 224.4375 -152.244915 
L 224.4375 -153.754329 
L 224.4375 -155.263743 
L 224.4375 -156.773157 
L 224.4375 -158.282572 
L 224.4375 -159.791986 
L 224.4375 -161.3014 
L 224.4375 -162.810814 
L 224.4375 -164.320229 
L 224.4375 -165.829643 
L 224.4375 -167.339057 
L 224.4375 -168.848471 
L 224.4375 -170.357885 
L 224.4375 -171.8673 
L 224.4375 -173.376714 
L 224.4375 -174.886128 
L 224.4375 -176.395542 
L 224.4375 -177.904957 
L 224.4375 -179.414371 
L 224.4375 -180.923785 
L 224.4375 -182.433199 
L 224.4375 -183.942614 
L 224.4375 -185.452028 
L 224.4375 -186.961442 
L 224.4375 -188.470856 
L 224.4375 -189.980271 
L 224.4375 -191.489685 
L 224.4375 -192.999099 
L 224.4375 -194.508513 
L 224.4375 -196.017927 
L 224.4375 -197.527342 
L 224.4375 -199.036756 
L 224.4375 -200.54617 
L 224.4375 -202.055584 
L 224.4375 -203.564999 
L 224.4375 -205.074413 
L 224.4375 -206.583827 
L 224.4375 -208.093241 
L 224.4375 -209.602656 
L 224.4375 -211.11207 
L 224.4375 -212.621484 
L 224.4375 -214.130898 
L 224.4375 -215.640312 
L 224.4375 -217.149727 
L 224.4375 -218.659141 
L 226.419851 -218.659141 
L 226.419851 -218.659141 
L 226.70683 -217.149727 
L 227.023293 -215.640312 
L 227.370231 -214.130898 
L 227.748334 -212.621484 
L 228.157939 -211.11207 
L 228.598984 -209.602656 
L 229.070966 -208.093241 
L 229.572911 -206.583827 
L 230.103344 -205.074413 
L 230.660281 -203.564999 
L 231.241224 -202.055584 
L 231.84318 -200.54617 
L 232.462686 -199.036756 
L 233.09586 -197.527342 
L 233.738462 -196.017927 
L 234.385973 -194.508513 
L 235.03369 -192.999099 
L 235.676837 -191.489685 
L 236.31068 -189.980271 
L 236.93066 -188.470856 
L 237.532524 -186.961442 
L 238.112461 -185.452028 
L 238.667235 -183.942614 
L 239.194305 -182.433199 
L 239.691944 -180.923785 
L 240.159329 -179.414371 
L 240.596621 -177.904957 
L 241.005016 -176.395542 
L 241.386765 -174.886128 
L 241.745175 -173.376714 
L 242.084566 -171.8673 
L 242.410206 -170.357885 
L 242.72821 -168.848471 
L 243.045405 -167.339057 
L 243.369179 -165.829643 
L 243.70729 -164.320229 
L 244.067669 -162.810814 
L 244.458195 -161.3014 
L 244.886471 -159.791986 
L 245.35959 -158.282572 
L 245.883902 -156.773157 
L 246.464797 -155.263743 
L 247.106496 -153.754329 
L 247.811866 -152.244915 
L 248.582266 -150.7355 
L 249.417414 -149.226086 
L 250.315302 -147.716672 
L 251.272144 -146.207258 
L 252.282366 -144.697843 
L 253.338641 -143.188429 
L 254.431965 -141.679015 
L 255.551777 -140.169601 
L 256.686119 -138.660187 
L 257.821833 -137.150772 
L 258.944792 -135.641358 
L 260.040157 -134.131944 
L 261.092656 -132.62253 
L 262.086884 -131.113115 
L 263.007609 -129.603701 
L 263.840072 -128.094287 
L 264.570296 -126.584873 
L 265.185371 -125.075458 
L 265.67372 -123.566044 
L 266.025344 -122.05663 
L 266.232025 -120.547216 
L 266.2875 -119.037801 
L 266.187588 -117.528387 
L 265.930271 -116.018973 
L 265.51573 -114.509559 
L 264.946334 -113.000145 
L 264.226581 -111.49073 
L 263.362993 -109.981316 
L 262.363969 -108.471902 
L 261.239606 -106.962488 
L 260.001481 -105.453073 
L 258.66241 -103.943659 
L 257.236189 -102.434245 
L 255.737322 -100.924831 
L 254.180742 -99.415416 
L 252.581536 -97.906002 
L 250.954679 -96.396588 
L 249.314782 -94.887174 
L 247.67586 -93.377759 
L 246.051129 -91.868345 
L 244.452826 -90.358931 
L 242.892067 -88.849517 
L 241.378733 -87.340103 
L 239.921395 -85.830688 
L 238.527264 -84.321274 
L 237.202184 -82.81186 
L 235.950646 -81.302446 
L 234.775833 -79.793031 
L 233.679688 -78.283617 
L 232.662996 -76.774203 
L 231.725494 -75.264789 
L 230.865978 -73.755374 
L 230.082428 -72.24596 
L 229.372132 -70.736546 
L 228.73181 -69.227132 
z
" id="m73a0eb87ba" style="stroke:#737373;stroke-width:3;"/>
    </defs>
    <g clip-path="url(#p7e6ca894fc)">
     <use style="fill:#efb792;stroke:#737373;stroke-width:3;" x="0" xlink:href="#m73a0eb87ba" y="288"/>
    </g>
   </g>
   <g id="PolyCollection_5">
    <defs>
     <path d="M 329.0625 -45.883636 
L 328.582368 -45.883636 
L 328.455041 -47.657805 
L 328.303304 -49.431973 
L 328.125036 -51.206142 
L 327.918534 -52.980311 
L 327.682629 -54.754479 
L 327.416777 -56.528648 
L 327.121112 -58.302816 
L 326.796446 -60.076985 
L 326.444201 -61.851153 
L 326.066281 -63.625322 
L 325.664878 -65.39949 
L 325.242227 -67.173659 
L 324.800329 -68.947827 
L 324.340655 -70.721996 
L 323.863882 -72.496165 
L 323.369658 -74.270333 
L 322.856466 -76.044502 
L 322.32157 -77.81867 
L 321.761089 -79.592839 
L 321.1702 -81.367007 
L 320.54345 -83.141176 
L 319.875181 -84.915344 
L 319.160025 -86.689513 
L 318.393438 -88.463681 
L 317.572222 -90.23785 
L 316.694988 -92.012018 
L 315.762515 -93.786187 
L 314.777966 -95.560356 
L 313.746918 -97.334524 
L 312.677208 -99.108693 
L 311.578588 -100.882861 
L 310.4622 -102.65703 
L 309.339936 -104.431198 
L 308.223714 -106.205367 
L 307.124751 -107.979535 
L 306.052906 -109.753704 
L 305.016165 -111.527872 
L 304.020327 -113.302041 
L 303.068949 -115.07621 
L 302.163551 -116.850378 
L 301.304097 -118.624547 
L 300.489693 -120.398715 
L 299.719448 -122.172884 
L 298.993388 -123.947052 
L 298.313337 -125.721221 
L 297.683629 -127.495389 
L 297.11157 -129.269558 
L 296.607549 -131.043726 
L 296.184775 -132.817895 
L 295.858621 -134.592064 
L 295.645617 -136.366232 
L 295.562195 -138.140401 
L 295.623289 -139.914569 
L 295.840931 -141.688738 
L 296.223004 -143.462906 
L 296.772273 -145.237075 
L 297.485799 -147.011243 
L 298.354799 -148.785412 
L 299.364973 -150.55958 
L 300.497249 -152.333749 
L 301.728879 -154.107918 
L 303.034762 -155.882086 
L 304.388876 -157.656255 
L 305.765681 -159.430423 
L 307.141377 -161.204592 
L 308.494927 -162.97876 
L 309.808782 -164.752929 
L 311.069294 -166.527097 
L 312.266822 -168.301266 
L 313.395567 -170.075434 
L 314.453201 -171.849603 
L 315.440354 -173.623771 
L 316.36001 -175.39794 
L 317.216892 -177.172109 
L 318.016864 -178.946277 
L 318.766382 -180.720446 
L 319.472029 -182.494614 
L 320.140118 -184.268783 
L 320.776385 -186.042951 
L 321.385751 -187.81712 
L 321.972163 -189.591288 
L 322.538505 -191.365457 
L 323.086565 -193.139625 
L 323.617072 -194.913794 
L 324.129788 -196.687963 
L 324.623655 -198.462131 
L 325.096974 -200.2363 
L 325.547629 -202.010468 
L 325.973313 -203.784637 
L 326.371759 -205.558805 
L 326.740952 -207.332974 
L 327.079305 -209.107142 
L 327.385794 -210.881311 
L 327.660035 -212.655479 
L 327.902318 -214.429648 
L 328.113578 -216.203817 
L 328.295332 -217.977985 
L 328.44958 -219.752154 
L 328.578683 -221.526322 
L 329.0625 -221.526322 
L 329.0625 -221.526322 
L 329.0625 -219.752154 
L 329.0625 -217.977985 
L 329.0625 -216.203817 
L 329.0625 -214.429648 
L 329.0625 -212.655479 
L 329.0625 -210.881311 
L 329.0625 -209.107142 
L 329.0625 -207.332974 
L 329.0625 -205.558805 
L 329.0625 -203.784637 
L 329.0625 -202.010468 
L 329.0625 -200.2363 
L 329.0625 -198.462131 
L 329.0625 -196.687963 
L 329.0625 -194.913794 
L 329.0625 -193.139625 
L 329.0625 -191.365457 
L 329.0625 -189.591288 
L 329.0625 -187.81712 
L 329.0625 -186.042951 
L 329.0625 -184.268783 
L 329.0625 -182.494614 
L 329.0625 -180.720446 
L 329.0625 -178.946277 
L 329.0625 -177.172109 
L 329.0625 -175.39794 
L 329.0625 -173.623771 
L 329.0625 -171.849603 
L 329.0625 -170.075434 
L 329.0625 -168.301266 
L 329.0625 -166.527097 
L 329.0625 -164.752929 
L 329.0625 -162.97876 
L 329.0625 -161.204592 
L 329.0625 -159.430423 
L 329.0625 -157.656255 
L 329.0625 -155.882086 
L 329.0625 -154.107918 
L 329.0625 -152.333749 
L 329.0625 -150.55958 
L 329.0625 -148.785412 
L 329.0625 -147.011243 
L 329.0625 -145.237075 
L 329.0625 -143.462906 
L 329.0625 -141.688738 
L 329.0625 -139.914569 
L 329.0625 -138.140401 
L 329.0625 -136.366232 
L 329.0625 -134.592064 
L 329.0625 -132.817895 
L 329.0625 -131.043726 
L 329.0625 -129.269558 
L 329.0625 -127.495389 
L 329.0625 -125.721221 
L 329.0625 -123.947052 
L 329.0625 -122.172884 
L 329.0625 -120.398715 
L 329.0625 -118.624547 
L 329.0625 -116.850378 
L 329.0625 -115.07621 
L 329.0625 -113.302041 
L 329.0625 -111.527872 
L 329.0625 -109.753704 
L 329.0625 -107.979535 
L 329.0625 -106.205367 
L 329.0625 -104.431198 
L 329.0625 -102.65703 
L 329.0625 -100.882861 
L 329.0625 -99.108693 
L 329.0625 -97.334524 
L 329.0625 -95.560356 
L 329.0625 -93.786187 
L 329.0625 -92.012018 
L 329.0625 -90.23785 
L 329.0625 -88.463681 
L 329.0625 -86.689513 
L 329.0625 -84.915344 
L 329.0625 -83.141176 
L 329.0625 -81.367007 
L 329.0625 -79.592839 
L 329.0625 -77.81867 
L 329.0625 -76.044502 
L 329.0625 -74.270333 
L 329.0625 -72.496165 
L 329.0625 -70.721996 
L 329.0625 -68.947827 
L 329.0625 -67.173659 
L 329.0625 -65.39949 
L 329.0625 -63.625322 
L 329.0625 -61.851153 
L 329.0625 -60.076985 
L 329.0625 -58.302816 
L 329.0625 -56.528648 
L 329.0625 -54.754479 
L 329.0625 -52.980311 
L 329.0625 -51.206142 
L 329.0625 -49.431973 
L 329.0625 -47.657805 
L 329.0625 -45.883636 
z
" id="m0c5661a8ca" style="stroke:#737373;stroke-width:3;"/>
    </defs>
    <g clip-path="url(#p7e6ca894fc)">
     <use style="fill:#abc9ea;stroke:#737373;stroke-width:3;" x="0" xlink:href="#m0c5661a8ca" y="288"/>
    </g>
   </g>
   <g id="PolyCollection_6">
    <defs>
     <path d="M 330.069144 -77.426342 
L 329.0625 -77.426342 
L 329.0625 -78.770116 
L 329.0625 -80.11389 
L 329.0625 -81.457663 
L 329.0625 -82.801437 
L 329.0625 -84.14521 
L 329.0625 -85.488984 
L 329.0625 -86.832758 
L 329.0625 -88.176531 
L 329.0625 -89.520305 
L 329.0625 -90.864078 
L 329.0625 -92.207852 
L 329.0625 -93.551626 
L 329.0625 -94.895399 
L 329.0625 -96.239173 
L 329.0625 -97.582947 
L 329.0625 -98.92672 
L 329.0625 -100.270494 
L 329.0625 -101.614267 
L 329.0625 -102.958041 
L 329.0625 -104.301815 
L 329.0625 -105.645588 
L 329.0625 -106.989362 
L 329.0625 -108.333135 
L 329.0625 -109.676909 
L 329.0625 -111.020683 
L 329.0625 -112.364456 
L 329.0625 -113.70823 
L 329.0625 -115.052004 
L 329.0625 -116.395777 
L 329.0625 -117.739551 
L 329.0625 -119.083324 
L 329.0625 -120.427098 
L 329.0625 -121.770872 
L 329.0625 -123.114645 
L 329.0625 -124.458419 
L 329.0625 -125.802193 
L 329.0625 -127.145966 
L 329.0625 -128.48974 
L 329.0625 -129.833513 
L 329.0625 -131.177287 
L 329.0625 -132.521061 
L 329.0625 -133.864834 
L 329.0625 -135.208608 
L 329.0625 -136.552381 
L 329.0625 -137.896155 
L 329.0625 -139.239929 
L 329.0625 -140.583702 
L 329.0625 -141.927476 
L 329.0625 -143.27125 
L 329.0625 -144.615023 
L 329.0625 -145.958797 
L 329.0625 -147.30257 
L 329.0625 -148.646344 
L 329.0625 -149.990118 
L 329.0625 -151.333891 
L 329.0625 -152.677665 
L 329.0625 -154.021438 
L 329.0625 -155.365212 
L 329.0625 -156.708986 
L 329.0625 -158.052759 
L 329.0625 -159.396533 
L 329.0625 -160.740307 
L 329.0625 -162.08408 
L 329.0625 -163.427854 
L 329.0625 -164.771627 
L 329.0625 -166.115401 
L 329.0625 -167.459175 
L 329.0625 -168.802948 
L 329.0625 -170.146722 
L 329.0625 -171.490496 
L 329.0625 -172.834269 
L 329.0625 -174.178043 
L 329.0625 -175.521816 
L 329.0625 -176.86559 
L 329.0625 -178.209364 
L 329.0625 -179.553137 
L 329.0625 -180.896911 
L 329.0625 -182.240684 
L 329.0625 -183.584458 
L 329.0625 -184.928232 
L 329.0625 -186.272005 
L 329.0625 -187.615779 
L 329.0625 -188.959553 
L 329.0625 -190.303326 
L 329.0625 -191.6471 
L 329.0625 -192.990873 
L 329.0625 -194.334647 
L 329.0625 -195.678421 
L 329.0625 -197.022194 
L 329.0625 -198.365968 
L 329.0625 -199.709741 
L 329.0625 -201.053515 
L 329.0625 -202.397289 
L 329.0625 -203.741062 
L 329.0625 -205.084836 
L 329.0625 -206.42861 
L 329.0625 -207.772383 
L 329.0625 -209.116157 
L 329.0625 -210.45993 
L 329.620795 -210.45993 
L 329.620795 -210.45993 
L 329.760757 -209.116157 
L 329.924806 -207.772383 
L 330.114082 -206.42861 
L 330.329009 -205.084836 
L 330.56917 -203.741062 
L 330.833212 -202.397289 
L 331.118822 -201.053515 
L 331.422778 -199.709741 
L 331.741092 -198.365968 
L 332.069248 -197.022194 
L 332.402526 -195.678421 
L 332.7364 -194.334647 
L 333.066983 -192.990873 
L 333.391491 -191.6471 
L 333.708679 -190.303326 
L 334.01921 -188.959553 
L 334.32592 -187.615779 
L 334.63395 -186.272005 
L 334.950707 -184.928232 
L 335.285661 -183.584458 
L 335.649971 -182.240684 
L 336.05597 -180.896911 
L 336.516521 -179.553137 
L 337.044314 -178.209364 
L 337.651134 -176.86559 
L 338.347155 -175.521816 
L 339.140316 -174.178043 
L 340.035814 -172.834269 
L 341.035757 -171.490496 
L 342.138993 -170.146722 
L 343.341124 -168.802948 
L 344.634704 -167.459175 
L 346.009601 -166.115401 
L 347.453497 -164.771627 
L 348.952473 -163.427854 
L 350.491648 -162.08408 
L 352.055805 -160.740307 
L 353.629965 -159.396533 
L 355.199846 -158.052759 
L 356.752187 -156.708986 
L 358.274897 -155.365212 
L 359.757034 -154.021438 
L 361.188625 -152.677665 
L 362.560355 -151.333891 
L 363.863193 -149.990118 
L 365.088005 -148.646344 
L 366.225228 -147.30257 
L 367.264678 -145.958797 
L 368.195546 -144.615023 
L 369.006607 -143.27125 
L 369.686656 -141.927476 
L 370.225147 -140.583702 
L 370.612977 -139.239929 
L 370.843331 -137.896155 
L 370.9125 -136.552381 
L 370.820566 -135.208608 
L 370.571854 -133.864834 
L 370.175083 -132.521061 
L 369.643166 -131.177287 
L 368.992649 -129.833513 
L 368.242819 -128.48974 
L 367.41455 -127.145966 
L 366.528982 -125.802193 
L 365.606145 -124.458419 
L 364.663668 -123.114645 
L 363.715667 -121.770872 
L 362.771942 -120.427098 
L 361.837532 -119.083324 
L 360.912672 -117.739551 
L 359.993156 -116.395777 
L 359.071064 -115.052004 
L 358.135781 -113.70823 
L 357.175209 -112.364456 
L 356.177075 -111.020683 
L 355.130216 -109.676909 
L 354.025726 -108.333135 
L 352.857903 -106.989362 
L 351.624895 -105.645588 
L 350.329037 -104.301815 
L 348.976851 -102.958041 
L 347.578741 -101.614267 
L 346.148411 -100.270494 
L 344.702078 -98.92672 
L 343.25755 -97.582947 
L 341.833244 -96.239173 
L 340.447216 -94.895399 
L 339.116283 -93.551626 
L 337.855276 -92.207852 
L 336.67647 -90.864078 
L 335.589211 -89.520305 
L 334.599745 -88.176531 
L 333.711235 -86.832758 
L 332.92394 -85.488984 
L 332.235534 -84.14521 
L 331.64151 -82.801437 
L 331.13565 -81.457663 
L 330.710502 -80.11389 
L 330.357851 -78.770116 
L 330.069144 -77.426342 
z
" id="md62f4d71a7" style="stroke:#737373;stroke-width:3;"/>
    </defs>
    <g clip-path="url(#p7e6ca894fc)">
     <use style="fill:#efb792;stroke:#737373;stroke-width:3;" x="0" xlink:href="#md62f4d71a7" y="288"/>
    </g>
   </g>
   <g id="PolyCollection_7">
    <defs>
     <path d="M 437.667488 -123.930134 
L 433.6875 -123.930134 
L 433.6875 -124.789466 
L 433.6875 -125.648798 
L 433.6875 -126.508131 
L 433.6875 -127.367463 
L 433.6875 -128.226795 
L 433.6875 -129.086127 
L 433.6875 -129.94546 
L 433.6875 -130.804792 
L 433.6875 -131.664124 
L 433.6875 -132.523457 
L 433.6875 -133.382789 
L 433.6875 -134.242121 
L 433.6875 -135.101453 
L 433.6875 -135.960786 
L 433.6875 -136.820118 
L 433.6875 -137.67945 
L 433.6875 -138.538783 
L 433.6875 -139.398115 
L 433.6875 -140.257447 
L 433.6875 -141.116779 
L 433.6875 -141.976112 
L 433.6875 -142.835444 
L 433.6875 -143.694776 
L 433.6875 -144.554109 
L 433.6875 -145.413441 
L 433.6875 -146.272773 
L 433.6875 -147.132105 
L 433.6875 -147.991438 
L 433.6875 -148.85077 
L 433.6875 -149.710102 
L 433.6875 -150.569435 
L 433.6875 -151.428767 
L 433.6875 -152.288099 
L 433.6875 -153.147431 
L 433.6875 -154.006764 
L 433.6875 -154.866096 
L 433.6875 -155.725428 
L 433.6875 -156.584761 
L 433.6875 -157.444093 
L 433.6875 -158.303425 
L 433.6875 -159.162757 
L 433.6875 -160.02209 
L 433.6875 -160.881422 
L 433.6875 -161.740754 
L 433.6875 -162.600087 
L 433.6875 -163.459419 
L 433.6875 -164.318751 
L 433.6875 -165.178084 
L 433.6875 -166.037416 
L 433.6875 -166.896748 
L 433.6875 -167.75608 
L 433.6875 -168.615413 
L 433.6875 -169.474745 
L 433.6875 -170.334077 
L 433.6875 -171.19341 
L 433.6875 -172.052742 
L 433.6875 -172.912074 
L 433.6875 -173.771406 
L 433.6875 -174.630739 
L 433.6875 -175.490071 
L 433.6875 -176.349403 
L 433.6875 -177.208736 
L 433.6875 -178.068068 
L 433.6875 -178.9274 
L 433.6875 -179.786732 
L 433.6875 -180.646065 
L 433.6875 -181.505397 
L 433.6875 -182.364729 
L 433.6875 -183.224062 
L 433.6875 -184.083394 
L 433.6875 -184.942726 
L 433.6875 -185.802058 
L 433.6875 -186.661391 
L 433.6875 -187.520723 
L 433.6875 -188.380055 
L 433.6875 -189.239388 
L 433.6875 -190.09872 
L 433.6875 -190.958052 
L 433.6875 -191.817384 
L 433.6875 -192.676717 
L 433.6875 -193.536049 
L 433.6875 -194.395381 
L 433.6875 -195.254714 
L 433.6875 -196.114046 
L 433.6875 -196.973378 
L 433.6875 -197.83271 
L 433.6875 -198.692043 
L 433.6875 -199.551375 
L 433.6875 -200.410707 
L 433.6875 -201.27004 
L 433.6875 -202.129372 
L 433.6875 -202.988704 
L 433.6875 -203.848037 
L 433.6875 -204.707369 
L 433.6875 -205.566701 
L 433.6875 -206.426033 
L 433.6875 -207.285366 
L 433.6875 -208.144698 
L 433.6875 -209.00403 
L 437.667488 -209.00403 
L 437.667488 -209.00403 
L 438.143642 -208.144698 
L 438.661156 -207.285366 
L 439.221456 -206.426033 
L 439.82573 -205.566701 
L 440.474889 -204.707369 
L 441.16953 -203.848037 
L 441.909905 -202.988704 
L 442.695885 -202.129372 
L 443.526936 -201.27004 
L 444.402095 -200.410707 
L 445.319952 -199.551375 
L 446.278644 -198.692043 
L 447.275844 -197.83271 
L 448.308774 -196.973378 
L 449.374212 -196.114046 
L 450.468512 -195.254714 
L 451.58764 -194.395381 
L 452.727204 -193.536049 
L 453.882504 -192.676717 
L 455.048584 -191.817384 
L 456.220288 -190.958052 
L 457.392329 -190.09872 
L 458.559351 -189.239388 
L 459.716003 -188.380055 
L 460.857009 -187.520723 
L 461.977239 -186.661391 
L 463.071773 -185.802058 
L 464.135969 -184.942726 
L 465.165516 -184.083394 
L 466.156485 -183.224062 
L 467.105371 -182.364729 
L 468.009123 -181.505397 
L 468.865162 -180.646065 
L 469.671393 -179.786732 
L 470.426198 -178.9274 
L 471.128425 -178.068068 
L 471.777361 -177.208736 
L 472.372694 -176.349403 
L 472.914472 -175.490071 
L 473.403048 -174.630739 
L 473.839024 -173.771406 
L 474.223184 -172.912074 
L 474.556436 -172.052742 
L 474.839744 -171.19341 
L 475.074067 -170.334077 
L 475.260302 -169.474745 
L 475.399232 -168.615413 
L 475.491486 -167.75608 
L 475.5375 -166.896748 
L 475.5375 -166.037416 
L 475.491486 -165.178084 
L 475.399232 -164.318751 
L 475.260302 -163.459419 
L 475.074067 -162.600087 
L 474.839744 -161.740754 
L 474.556436 -160.881422 
L 474.223184 -160.02209 
L 473.839024 -159.162757 
L 473.403048 -158.303425 
L 472.914472 -157.444093 
L 472.372694 -156.584761 
L 471.777361 -155.725428 
L 471.128425 -154.866096 
L 470.426198 -154.006764 
L 469.671393 -153.147431 
L 468.865162 -152.288099 
L 468.009123 -151.428767 
L 467.105371 -150.569435 
L 466.156485 -149.710102 
L 465.165516 -148.85077 
L 464.135969 -147.991438 
L 463.071773 -147.132105 
L 461.977239 -146.272773 
L 460.857009 -145.413441 
L 459.716003 -144.554109 
L 458.559351 -143.694776 
L 457.392329 -142.835444 
L 456.220288 -141.976112 
L 455.048584 -141.116779 
L 453.882504 -140.257447 
L 452.727204 -139.398115 
L 451.58764 -138.538783 
L 450.468512 -137.67945 
L 449.374212 -136.820118 
L 448.308774 -135.960786 
L 447.275844 -135.101453 
L 446.278644 -134.242121 
L 445.319952 -133.382789 
L 444.402095 -132.523457 
L 443.526936 -131.664124 
L 442.695885 -130.804792 
L 441.909905 -129.94546 
L 441.16953 -129.086127 
L 440.474889 -128.226795 
L 439.82573 -127.367463 
L 439.221456 -126.508131 
L 438.661156 -125.648798 
L 438.143642 -124.789466 
L 437.667488 -123.930134 
z
" id="m17d43b3f7a" style="stroke:#737373;stroke-width:3;"/>
    </defs>
    <g clip-path="url(#p7e6ca894fc)">
     <use style="fill:#efb792;stroke:#737373;stroke-width:3;" x="0" xlink:href="#m17d43b3f7a" y="288"/>
    </g>
   </g>
   <g id="PathCollection_1"/>
   <g id="PathCollection_2"/>
   <g id="patch_3">
    <path clip-path="url(#p7e6ca894fc)" d="M 119.8125 219.819226 
L 119.8125 219.819226 
L 119.8125 219.819226 
L 119.8125 219.819226 
z
" style="fill:#abc9ea;stroke:#737373;stroke-linejoin:miter;stroke-width:1.5;"/>
   </g>
   <g id="patch_4">
    <path clip-path="url(#p7e6ca894fc)" d="M 119.8125 219.819226 
L 119.8125 219.819226 
L 119.8125 219.819226 
L 119.8125 219.819226 
z
" style="fill:#efb792;stroke:#737373;stroke-linejoin:miter;stroke-width:1.5;"/>
   </g>
   <g id="line2d_6">
    <path clip-path="url(#p7e6ca894fc)" d="M 119.8125 191.152386 
L 119.8125 96.961341 
" style="fill:none;stroke:#737373;stroke-linecap:round;stroke-width:3;"/>
   </g>
   <g id="line2d_7">
    <path clip-path="url(#p7e6ca894fc)" d="M 119.8125 162.485546 
L 119.8125 133.818707 
" style="fill:none;stroke:#737373;stroke-linecap:round;stroke-width:9;"/>
   </g>
   <g id="line2d_8">
    <path clip-path="url(#p7e6ca894fc)" d="M 224.4375 178.866598 
L 224.4375 96.961341 
" style="fill:none;stroke:#737373;stroke-linecap:round;stroke-width:3;"/>
   </g>
   <g id="line2d_9">
    <path clip-path="url(#p7e6ca894fc)" d="M 224.4375 174.771335 
L 224.4375 119.485287 
" style="fill:none;stroke:#737373;stroke-linecap:round;stroke-width:9;"/>
   </g>
   <g id="line2d_10">
    <path clip-path="url(#p7e6ca894fc)" d="M 329.0625 195.247649 
L 329.0625 113.342392 
" style="fill:none;stroke:#737373;stroke-linecap:round;stroke-width:3;"/>
   </g>
   <g id="line2d_11">
    <path clip-path="url(#p7e6ca894fc)" d="M 329.0625 166.580809 
L 329.0625 142.009232 
" style="fill:none;stroke:#737373;stroke-linecap:round;stroke-width:9;"/>
   </g>
   <g id="line2d_12">
    <path clip-path="url(#p7e6ca894fc)" d="M 391.8375 142.009232 
L 433.6875 142.009232 
" style="fill:none;stroke:#737373;stroke-linecap:round;stroke-width:3;"/>
   </g>
   <g id="line2d_13">
    <path clip-path="url(#p7e6ca894fc)" d="M 433.6875 142.009232 
L 433.6875 109.24713 
" style="fill:none;stroke:#737373;stroke-linecap:round;stroke-width:3;"/>
   </g>
   <g id="line2d_14">
    <path clip-path="url(#p7e6ca894fc)" d="M 433.6875 142.009232 
L 433.6875 127.675812 
" style="fill:none;stroke:#737373;stroke-linecap:round;stroke-width:9;"/>
   </g>
   <g id="patch_5">
    <path d="M 67.5 252 
L 67.5 34.56 
" style="fill:none;stroke:#cccccc;stroke-linecap:square;stroke-linejoin:miter;stroke-width:2.5;"/>
   </g>
   <g id="patch_6">
    <path d="M 486 252 
L 486 34.56 
" style="fill:none;stroke:#cccccc;stroke-linecap:square;stroke-linejoin:miter;stroke-width:2.5;"/>
   </g>
   <g id="patch_7">
    <path d="M 67.5 252 
L 486 252 
" style="fill:none;stroke:#cccccc;stroke-linecap:square;stroke-linejoin:miter;stroke-width:2.5;"/>
   </g>
   <g id="patch_8">
    <path d="M 67.5 34.56 
L 486 34.56 
" style="fill:none;stroke:#cccccc;stroke-linecap:square;stroke-linejoin:miter;stroke-width:2.5;"/>
   </g>
   <g id="PathCollection_3">
    <defs>
     <path d="M 0 3 
C 0.795609 3 1.55874 2.683901 2.12132 2.12132 
C 2.683901 1.55874 3 0.795609 3 0 
C 3 -0.795609 2.683901 -1.55874 2.12132 -2.12132 
C 1.55874 -2.683901 0.795609 -3 0 -3 
C -0.795609 -3 -1.55874 -2.683901 -2.12132 -2.12132 
C -2.683901 -1.55874 -3 -0.795609 -3 0 
C -3 0.795609 -2.683901 1.55874 -2.12132 2.12132 
C -1.55874 2.683901 -0.795609 3 0 3 
z
" id="m692ed35b32" style="stroke:#737373;stroke-width:2;"/>
    </defs>
    <g clip-path="url(#p7e6ca894fc)">
     <use style="fill:#ffffff;stroke:#737373;stroke-width:2;" x="119.8125" xlink:href="#m692ed35b32" y="150.199758"/>
    </g>
   </g>
   <g id="PathCollection_4">
    <g clip-path="url(#p7e6ca894fc)">
     <use style="fill:#ffffff;stroke:#737373;stroke-width:2;" x="224.4375" xlink:href="#m692ed35b32" y="150.199758"/>
    </g>
   </g>
   <g id="PathCollection_5">
    <g clip-path="url(#p7e6ca894fc)">
     <use style="fill:#ffffff;stroke:#737373;stroke-width:2;" x="329.0625" xlink:href="#m692ed35b32" y="150.199758"/>
    </g>
   </g>
   <g id="PathCollection_6">
    <g clip-path="url(#p7e6ca894fc)">
     <use style="fill:#ffffff;stroke:#737373;stroke-width:2;" x="433.6875" xlink:href="#m692ed35b32" y="137.913969"/>
    </g>
   </g>
   <g id="PathCollection_7">
    <defs>
     <path d="M 0 2.5 
C 0.663008 2.5 1.29895 2.236584 1.767767 1.767767 
C 2.236584 1.29895 2.5 0.663008 2.5 0 
C 2.5 -0.663008 2.236584 -1.29895 1.767767 -1.767767 
C 1.29895 -2.236584 0.663008 -2.5 0 -2.5 
C -0.663008 -2.5 -1.29895 -2.236584 -1.767767 -1.767767 
C -2.236584 -1.29895 -2.5 -0.663008 -2.5 0 
C -2.5 0.663008 -2.236584 1.29895 -1.767767 1.767767 
C -1.29895 2.236584 -0.663008 2.5 0 2.5 
z
" id="C0_0_141dde7062"/>
    </defs>
    <g clip-path="url(#p7e6ca894fc)">
     <use style="fill:#4c72b0;" x="98.8875" xlink:href="#C0_0_141dde7062" y="191.152386"/>
    </g>
    <g clip-path="url(#p7e6ca894fc)">
     <use style="fill:#4c72b0;" x="98.8875" xlink:href="#C0_0_141dde7062" y="178.866598"/>
    </g>
    <g clip-path="url(#p7e6ca894fc)">
     <use style="fill:#4c72b0;" x="98.8875" xlink:href="#C0_0_141dde7062" y="166.580809"/>
    </g>
    <g clip-path="url(#p7e6ca894fc)">
     <use style="fill:#4c72b0;" x="95.875478" xlink:href="#C0_0_141dde7062" y="162.485546"/>
    </g>
    <g clip-path="url(#p7e6ca894fc)">
     <use style="fill:#4c72b0;" x="98.8875" xlink:href="#C0_0_141dde7062" y="158.390284"/>
    </g>
    <g clip-path="url(#p7e6ca894fc)">
     <use style="fill:#4c72b0;" x="104.1375" xlink:href="#C0_0_141dde7062" y="158.390284"/>
    </g>
    <g clip-path="url(#p7e6ca894fc)">
     <use style="fill:#4c72b0;" x="95.875478" xlink:href="#C0_0_141dde7062" y="154.295021"/>
    </g>
    <g clip-path="url(#p7e6ca894fc)">
     <use style="fill:#4c72b0;" x="98.8875" xlink:href="#C0_0_141dde7062" y="133.818707"/>
    </g>
    <g clip-path="url(#p7e6ca894fc)">
     <use style="fill:#4c72b0;" x="98.8875" xlink:href="#C0_0_141dde7062" y="117.437655"/>
    </g>
    <g clip-path="url(#p7e6ca894fc)">
     <use style="fill:#4c72b0;" x="95.875478" xlink:href="#C0_0_141dde7062" y="113.342392"/>
    </g>
   </g>
   <g id="PathCollection_8">
    <defs>
     <path d="M 0 2.5 
C 0.663008 2.5 1.29895 2.236584 1.767767 1.767767 
C 2.236584 1.29895 2.5 0.663008 2.5 0 
C 2.5 -0.663008 2.236584 -1.29895 1.767767 -1.767767 
C 1.29895 -2.236584 0.663008 -2.5 0 -2.5 
C -0.663008 -2.5 -1.29895 -2.236584 -1.767767 -1.767767 
C -2.236584 -1.29895 -2.5 -0.663008 -2.5 0 
C -2.5 0.663008 -2.236584 1.29895 -1.767767 1.767767 
C -1.29895 2.236584 -0.663008 2.5 0 2.5 
z
" id="C1_0_888e4a2206"/>
    </defs>
    <g clip-path="url(#p7e6ca894fc)">
     <use style="fill:#dd8452;" x="140.7375" xlink:href="#C1_0_888e4a2206" y="166.580809"/>
    </g>
    <g clip-path="url(#p7e6ca894fc)">
     <use style="fill:#dd8452;" x="137.725478" xlink:href="#C1_0_888e4a2206" y="162.485546"/>
    </g>
    <g clip-path="url(#p7e6ca894fc)">
     <use style="fill:#dd8452;" x="140.7375" xlink:href="#C1_0_888e4a2206" y="150.199758"/>
    </g>
    <g clip-path="url(#p7e6ca894fc)">
     <use style="fill:#dd8452;" x="137.725478" xlink:href="#C1_0_888e4a2206" y="146.104495"/>
    </g>
    <g clip-path="url(#p7e6ca894fc)">
     <use style="fill:#dd8452;" x="140.7375" xlink:href="#C1_0_888e4a2206" y="133.818707"/>
    </g>
    <g clip-path="url(#p7e6ca894fc)">
     <use style="fill:#dd8452;" x="135.4875" xlink:href="#C1_0_888e4a2206" y="133.818707"/>
    </g>
    <g clip-path="url(#p7e6ca894fc)">
     <use style="fill:#dd8452;" x="145.9875" xlink:href="#C1_0_888e4a2206" y="133.818707"/>
    </g>
    <g clip-path="url(#p7e6ca894fc)">
     <use style="fill:#dd8452;" x="140.7375" xlink:href="#C1_0_888e4a2206" y="117.437655"/>
    </g>
    <g clip-path="url(#p7e6ca894fc)">
     <use style="fill:#dd8452;" x="140.7375" xlink:href="#C1_0_888e4a2206" y="96.961341"/>
    </g>
   </g>
   <g id="PathCollection_9">
    <defs>
     <path d="M 0 2.5 
C 0.663008 2.5 1.29895 2.236584 1.767767 1.767767 
C 2.236584 1.29895 2.5 0.663008 2.5 0 
C 2.5 -0.663008 2.236584 -1.29895 1.767767 -1.767767 
C 1.29895 -2.236584 0.663008 -2.5 0 -2.5 
C -0.663008 -2.5 -1.29895 -2.236584 -1.767767 -1.767767 
C -2.236584 -1.29895 -2.5 -0.663008 -2.5 0 
C -2.5 0.663008 -2.236584 1.29895 -1.767767 1.767767 
C -1.29895 2.236584 -0.663008 2.5 0 2.5 
z
" id="C2_0_84fce110da"/>
    </defs>
    <g clip-path="url(#p7e6ca894fc)">
     <use style="fill:#4c72b0;" x="203.5125" xlink:href="#C2_0_84fce110da" y="178.866598"/>
    </g>
    <g clip-path="url(#p7e6ca894fc)">
     <use style="fill:#4c72b0;" x="203.5125" xlink:href="#C2_0_84fce110da" y="142.009232"/>
    </g>
    <g clip-path="url(#p7e6ca894fc)">
     <use style="fill:#4c72b0;" x="203.5125" xlink:href="#C2_0_84fce110da" y="121.532918"/>
    </g>
    <g clip-path="url(#p7e6ca894fc)">
     <use style="fill:#4c72b0;" x="203.5125" xlink:href="#C2_0_84fce110da" y="96.961341"/>
    </g>
   </g>
   <g id="PathCollection_10">
    <defs>
     <path d="M 0 2.5 
C 0.663008 2.5 1.29895 2.236584 1.767767 1.767767 
C 2.236584 1.29895 2.5 0.663008 2.5 0 
C 2.5 -0.663008 2.236584 -1.29895 1.767767 -1.767767 
C 1.29895 -2.236584 0.663008 -2.5 0 -2.5 
C -0.663008 -2.5 -1.29895 -2.236584 -1.767767 -1.767767 
C -2.236584 -1.29895 -2.5 -0.663008 -2.5 0 
C -2.5 0.663008 -2.236584 1.29895 -1.767767 1.767767 
C -1.29895 2.236584 -0.663008 2.5 0 2.5 
z
" id="C3_0_e60234efcc"/>
    </defs>
    <g clip-path="url(#p7e6ca894fc)">
     <use style="fill:#dd8452;" x="245.3625" xlink:href="#C3_0_e60234efcc" y="174.771335"/>
    </g>
    <g clip-path="url(#p7e6ca894fc)">
     <use style="fill:#dd8452;" x="240.1125" xlink:href="#C3_0_e60234efcc" y="174.771335"/>
    </g>
    <g clip-path="url(#p7e6ca894fc)">
     <use style="fill:#dd8452;" x="245.3625" xlink:href="#C3_0_e60234efcc" y="158.390284"/>
    </g>
    <g clip-path="url(#p7e6ca894fc)">
     <use style="fill:#dd8452;" x="245.3625" xlink:href="#C3_0_e60234efcc" y="113.342392"/>
    </g>
   </g>
   <g id="PathCollection_11">
    <defs>
     <path d="M 0 2.5 
C 0.663008 2.5 1.29895 2.236584 1.767767 1.767767 
C 2.236584 1.29895 2.5 0.663008 2.5 0 
C 2.5 -0.663008 2.236584 -1.29895 1.767767 -1.767767 
C 1.29895 -2.236584 0.663008 -2.5 0 -2.5 
C -0.663008 -2.5 -1.29895 -2.236584 -1.767767 -1.767767 
C -2.236584 -1.29895 -2.5 -0.663008 -2.5 0 
C -2.5 0.663008 -2.236584 1.29895 -1.767767 1.767767 
C -1.29895 2.236584 -0.663008 2.5 0 2.5 
z
" id="C4_0_87193e2f24"/>
    </defs>
    <g clip-path="url(#p7e6ca894fc)">
     <use style="fill:#4c72b0;" x="308.1375" xlink:href="#C4_0_87193e2f24" y="211.6287"/>
    </g>
    <g clip-path="url(#p7e6ca894fc)">
     <use style="fill:#4c72b0;" x="308.1375" xlink:href="#C4_0_87193e2f24" y="195.247649"/>
    </g>
    <g clip-path="url(#p7e6ca894fc)">
     <use style="fill:#4c72b0;" x="308.1375" xlink:href="#C4_0_87193e2f24" y="178.866598"/>
    </g>
    <g clip-path="url(#p7e6ca894fc)">
     <use style="fill:#4c72b0;" x="302.8875" xlink:href="#C4_0_87193e2f24" y="178.866598"/>
    </g>
    <g clip-path="url(#p7e6ca894fc)">
     <use style="fill:#4c72b0;" x="313.3875" xlink:href="#C4_0_87193e2f24" y="178.866598"/>
    </g>
    <g clip-path="url(#p7e6ca894fc)">
     <use style="fill:#4c72b0;" x="308.1375" xlink:href="#C4_0_87193e2f24" y="166.580809"/>
    </g>
    <g clip-path="url(#p7e6ca894fc)">
     <use style="fill:#4c72b0;" x="302.8875" xlink:href="#C4_0_87193e2f24" y="166.580809"/>
    </g>
    <g clip-path="url(#p7e6ca894fc)">
     <use style="fill:#4c72b0;" x="313.3875" xlink:href="#C4_0_87193e2f24" y="166.580809"/>
    </g>
    <g clip-path="url(#p7e6ca894fc)">
     <use style="fill:#4c72b0;" x="308.1375" xlink:href="#C4_0_87193e2f24" y="158.390284"/>
    </g>
    <g clip-path="url(#p7e6ca894fc)">
     <use style="fill:#4c72b0;" x="308.1375" xlink:href="#C4_0_87193e2f24" y="150.199758"/>
    </g>
    <g clip-path="url(#p7e6ca894fc)">
     <use style="fill:#4c72b0;" x="305.125478" xlink:href="#C4_0_87193e2f24" y="146.104495"/>
    </g>
    <g clip-path="url(#p7e6ca894fc)">
     <use style="fill:#4c72b0;" x="311.149522" xlink:href="#C4_0_87193e2f24" y="146.104495"/>
    </g>
    <g clip-path="url(#p7e6ca894fc)">
     <use style="fill:#4c72b0;" x="308.1375" xlink:href="#C4_0_87193e2f24" y="142.009232"/>
    </g>
    <g clip-path="url(#p7e6ca894fc)">
     <use style="fill:#4c72b0;" x="302.113456" xlink:href="#C4_0_87193e2f24" y="142.009232"/>
    </g>
    <g clip-path="url(#p7e6ca894fc)">
     <use style="fill:#4c72b0;" x="314.161544" xlink:href="#C4_0_87193e2f24" y="142.009232"/>
    </g>
    <g clip-path="url(#p7e6ca894fc)">
     <use style="fill:#4c72b0;" x="296.863456" xlink:href="#C4_0_87193e2f24" y="142.009232"/>
    </g>
    <g clip-path="url(#p7e6ca894fc)">
     <use style="fill:#4c72b0;" x="308.1375" xlink:href="#C4_0_87193e2f24" y="129.723444"/>
    </g>
    <g clip-path="url(#p7e6ca894fc)">
     <use style="fill:#4c72b0;" x="308.1375" xlink:href="#C4_0_87193e2f24" y="121.532918"/>
    </g>
    <g clip-path="url(#p7e6ca894fc)">
     <use style="fill:#4c72b0;" x="308.1375" xlink:href="#C4_0_87193e2f24" y="113.342392"/>
    </g>
    <g clip-path="url(#p7e6ca894fc)">
     <use style="fill:#4c72b0;" x="308.1375" xlink:href="#C4_0_87193e2f24" y="96.961341"/>
    </g>
   </g>
   <g id="PathCollection_12">
    <defs>
     <path d="M 0 2.5 
C 0.663008 2.5 1.29895 2.236584 1.767767 1.767767 
C 2.236584 1.29895 2.5 0.663008 2.5 0 
C 2.5 -0.663008 2.236584 -1.29895 1.767767 -1.767767 
C 1.29895 -2.236584 0.663008 -2.5 0 -2.5 
C -0.663008 -2.5 -1.29895 -2.236584 -1.767767 -1.767767 
C -2.236584 -1.29895 -2.5 -0.663008 -2.5 0 
C -2.5 0.663008 -2.236584 1.29895 -1.767767 1.767767 
C -1.29895 2.236584 -0.663008 2.5 0 2.5 
z
" id="C5_0_377dd3cb4b"/>
    </defs>
    <g clip-path="url(#p7e6ca894fc)">
     <use style="fill:#dd8452;" x="349.9875" xlink:href="#C5_0_377dd3cb4b" y="187.057123"/>
    </g>
    <g clip-path="url(#p7e6ca894fc)">
     <use style="fill:#dd8452;" x="346.975478" xlink:href="#C5_0_377dd3cb4b" y="182.961861"/>
    </g>
    <g clip-path="url(#p7e6ca894fc)">
     <use style="fill:#dd8452;" x="349.9875" xlink:href="#C5_0_377dd3cb4b" y="178.866598"/>
    </g>
    <g clip-path="url(#p7e6ca894fc)">
     <use style="fill:#dd8452;" x="346.975478" xlink:href="#C5_0_377dd3cb4b" y="174.771335"/>
    </g>
    <g clip-path="url(#p7e6ca894fc)">
     <use style="fill:#dd8452;" x="352.999522" xlink:href="#C5_0_377dd3cb4b" y="174.771335"/>
    </g>
    <g clip-path="url(#p7e6ca894fc)">
     <use style="fill:#dd8452;" x="349.9875" xlink:href="#C5_0_377dd3cb4b" y="166.580809"/>
    </g>
    <g clip-path="url(#p7e6ca894fc)">
     <use style="fill:#dd8452;" x="346.975478" xlink:href="#C5_0_377dd3cb4b" y="162.485546"/>
    </g>
    <g clip-path="url(#p7e6ca894fc)">
     <use style="fill:#dd8452;" x="349.9875" xlink:href="#C5_0_377dd3cb4b" y="158.390284"/>
    </g>
    <g clip-path="url(#p7e6ca894fc)">
     <use style="fill:#dd8452;" x="346.975478" xlink:href="#C5_0_377dd3cb4b" y="154.295021"/>
    </g>
    <g clip-path="url(#p7e6ca894fc)">
     <use style="fill:#dd8452;" x="352.999522" xlink:href="#C5_0_377dd3cb4b" y="154.295021"/>
    </g>
    <g clip-path="url(#p7e6ca894fc)">
     <use style="fill:#dd8452;" x="341.725478" xlink:href="#C5_0_377dd3cb4b" y="154.295021"/>
    </g>
    <g clip-path="url(#p7e6ca894fc)">
     <use style="fill:#dd8452;" x="349.9875" xlink:href="#C5_0_377dd3cb4b" y="150.199758"/>
    </g>
    <g clip-path="url(#p7e6ca894fc)">
     <use style="fill:#dd8452;" x="356.011544" xlink:href="#C5_0_377dd3cb4b" y="150.199758"/>
    </g>
    <g clip-path="url(#p7e6ca894fc)">
     <use style="fill:#dd8452;" x="352.999522" xlink:href="#C5_0_377dd3cb4b" y="146.104495"/>
    </g>
    <g clip-path="url(#p7e6ca894fc)">
     <use style="fill:#dd8452;" x="349.9875" xlink:href="#C5_0_377dd3cb4b" y="142.009232"/>
    </g>
    <g clip-path="url(#p7e6ca894fc)">
     <use style="fill:#dd8452;" x="346.975478" xlink:href="#C5_0_377dd3cb4b" y="137.913969"/>
    </g>
    <g clip-path="url(#p7e6ca894fc)">
     <use style="fill:#dd8452;" x="349.9875" xlink:href="#C5_0_377dd3cb4b" y="133.818707"/>
    </g>
    <g clip-path="url(#p7e6ca894fc)">
     <use style="fill:#dd8452;" x="355.2375" xlink:href="#C5_0_377dd3cb4b" y="133.818707"/>
    </g>
    <g clip-path="url(#p7e6ca894fc)">
     <use style="fill:#dd8452;" x="346.975478" xlink:href="#C5_0_377dd3cb4b" y="129.723444"/>
    </g>
    <g clip-path="url(#p7e6ca894fc)">
     <use style="fill:#dd8452;" x="349.9875" xlink:href="#C5_0_377dd3cb4b" y="121.532918"/>
    </g>
    <g clip-path="url(#p7e6ca894fc)">
     <use style="fill:#dd8452;" x="349.9875" xlink:href="#C5_0_377dd3cb4b" y="101.056604"/>
    </g>
   </g>
   <g id="PathCollection_13">
    <defs>
     <path d="M 0 2.5 
C 0.663008 2.5 1.29895 2.236584 1.767767 1.767767 
C 2.236584 1.29895 2.5 0.663008 2.5 0 
C 2.5 -0.663008 2.236584 -1.29895 1.767767 -1.767767 
C 1.29895 -2.236584 0.663008 -2.5 0 -2.5 
C -0.663008 -2.5 -1.29895 -2.236584 -1.767767 -1.767767 
C -2.236584 -1.29895 -2.5 -0.663008 -2.5 0 
C -2.5 0.663008 -2.236584 1.29895 -1.767767 1.767767 
C -1.29895 2.236584 -0.663008 2.5 0 2.5 
z
" id="C6_0_364d3ada8a"/>
    </defs>
    <g clip-path="url(#p7e6ca894fc)">
     <use style="fill:#4c72b0;" x="412.7625" xlink:href="#C6_0_364d3ada8a" y="142.009232"/>
    </g>
    <g clip-path="url(#p7e6ca894fc)">
     <use style="fill:#4c72b0;" x="407.5125" xlink:href="#C6_0_364d3ada8a" y="142.009232"/>
    </g>
   </g>
   <g id="PathCollection_14">
    <defs>
     <path d="M 0 2.5 
C 0.663008 2.5 1.29895 2.236584 1.767767 1.767767 
C 2.236584 1.29895 2.5 0.663008 2.5 0 
C 2.5 -0.663008 2.236584 -1.29895 1.767767 -1.767767 
C 1.29895 -2.236584 0.663008 -2.5 0 -2.5 
C -0.663008 -2.5 -1.29895 -2.236584 -1.767767 -1.767767 
C -2.236584 -1.29895 -2.5 -0.663008 -2.5 0 
C -2.5 0.663008 -2.236584 1.29895 -1.767767 1.767767 
C -1.29895 2.236584 -0.663008 2.5 0 2.5 
z
" id="C7_0_d69d5829f5"/>
    </defs>
    <g clip-path="url(#p7e6ca894fc)">
     <use style="fill:#dd8452;" x="454.6125" xlink:href="#C7_0_d69d5829f5" y="133.818707"/>
    </g>
    <g clip-path="url(#p7e6ca894fc)">
     <use style="fill:#dd8452;" x="454.6125" xlink:href="#C7_0_d69d5829f5" y="109.24713"/>
    </g>
   </g>
   <g id="text_12">
    <!-- Veracity Score in function of participants' time spent using 3D softwares -->
    <defs>
     <path d="M 17.921875 72.90625 
L 17.921875 45.796875 
L 9.625 45.796875 
L 9.625 72.90625 
z
" id="DejaVuSans-39"/>
    </defs>
    <g style="fill:#262626;" transform="translate(-27.33 28.56)scale(0.168 -0.168)">
     <use xlink:href="#DejaVuSans-86"/>
     <use x="60.658203" xlink:href="#DejaVuSans-101"/>
     <use x="122.181641" xlink:href="#DejaVuSans-114"/>
     <use x="163.294922" xlink:href="#DejaVuSans-97"/>
     <use x="224.574219" xlink:href="#DejaVuSans-99"/>
     <use x="279.554688" xlink:href="#DejaVuSans-105"/>
     <use x="307.337891" xlink:href="#DejaVuSans-116"/>
     <use x="346.546875" xlink:href="#DejaVuSans-121"/>
     <use x="405.726562" xlink:href="#DejaVuSans-32"/>
     <use x="437.513672" xlink:href="#DejaVuSans-83"/>
     <use x="500.990234" xlink:href="#DejaVuSans-99"/>
     <use x="555.970703" xlink:href="#DejaVuSans-111"/>
     <use x="617.152344" xlink:href="#DejaVuSans-114"/>
     <use x="656.015625" xlink:href="#DejaVuSans-101"/>
     <use x="717.539062" xlink:href="#DejaVuSans-32"/>
     <use x="749.326172" xlink:href="#DejaVuSans-105"/>
     <use x="777.109375" xlink:href="#DejaVuSans-110"/>
     <use x="840.488281" xlink:href="#DejaVuSans-32"/>
     <use x="872.275391" xlink:href="#DejaVuSans-102"/>
     <use x="907.480469" xlink:href="#DejaVuSans-117"/>
     <use x="970.859375" xlink:href="#DejaVuSans-110"/>
     <use x="1034.238281" xlink:href="#DejaVuSans-99"/>
     <use x="1089.21875" xlink:href="#DejaVuSans-116"/>
     <use x="1128.427734" xlink:href="#DejaVuSans-105"/>
     <use x="1156.210938" xlink:href="#DejaVuSans-111"/>
     <use x="1217.392578" xlink:href="#DejaVuSans-110"/>
     <use x="1280.771484" xlink:href="#DejaVuSans-32"/>
     <use x="1312.558594" xlink:href="#DejaVuSans-111"/>
     <use x="1373.740234" xlink:href="#DejaVuSans-102"/>
     <use x="1408.945312" xlink:href="#DejaVuSans-32"/>
     <use x="1440.732422" xlink:href="#DejaVuSans-112"/>
     <use x="1504.208984" xlink:href="#DejaVuSans-97"/>
     <use x="1565.488281" xlink:href="#DejaVuSans-114"/>
     <use x="1606.601562" xlink:href="#DejaVuSans-116"/>
     <use x="1645.810547" xlink:href="#DejaVuSans-105"/>
     <use x="1673.59375" xlink:href="#DejaVuSans-99"/>
     <use x="1728.574219" xlink:href="#DejaVuSans-105"/>
     <use x="1756.357422" xlink:href="#DejaVuSans-112"/>
     <use x="1819.833984" xlink:href="#DejaVuSans-97"/>
     <use x="1881.113281" xlink:href="#DejaVuSans-110"/>
     <use x="1944.492188" xlink:href="#DejaVuSans-116"/>
     <use x="1983.701172" xlink:href="#DejaVuSans-115"/>
     <use x="2035.800781" xlink:href="#DejaVuSans-39"/>
     <use x="2063.291016" xlink:href="#DejaVuSans-32"/>
     <use x="2095.078125" xlink:href="#DejaVuSans-116"/>
     <use x="2134.287109" xlink:href="#DejaVuSans-105"/>
     <use x="2162.070312" xlink:href="#DejaVuSans-109"/>
     <use x="2259.482422" xlink:href="#DejaVuSans-101"/>
     <use x="2321.005859" xlink:href="#DejaVuSans-32"/>
     <use x="2352.792969" xlink:href="#DejaVuSans-115"/>
     <use x="2404.892578" xlink:href="#DejaVuSans-112"/>
     <use x="2468.369141" xlink:href="#DejaVuSans-101"/>
     <use x="2529.892578" xlink:href="#DejaVuSans-110"/>
     <use x="2593.271484" xlink:href="#DejaVuSans-116"/>
     <use x="2632.480469" xlink:href="#DejaVuSans-32"/>
     <use x="2664.267578" xlink:href="#DejaVuSans-117"/>
     <use x="2727.646484" xlink:href="#DejaVuSans-115"/>
     <use x="2779.746094" xlink:href="#DejaVuSans-105"/>
     <use x="2807.529297" xlink:href="#DejaVuSans-110"/>
     <use x="2870.908203" xlink:href="#DejaVuSans-103"/>
     <use x="2934.384766" xlink:href="#DejaVuSans-32"/>
     <use x="2966.171875" xlink:href="#DejaVuSans-51"/>
     <use x="3029.794922" xlink:href="#DejaVuSans-68"/>
     <use x="3106.796875" xlink:href="#DejaVuSans-32"/>
     <use x="3138.583984" xlink:href="#DejaVuSans-115"/>
     <use x="3190.683594" xlink:href="#DejaVuSans-111"/>
     <use x="3251.865234" xlink:href="#DejaVuSans-102"/>
     <use x="3285.320312" xlink:href="#DejaVuSans-116"/>
     <use x="3324.529297" xlink:href="#DejaVuSans-119"/>
     <use x="3406.316406" xlink:href="#DejaVuSans-97"/>
     <use x="3467.595703" xlink:href="#DejaVuSans-114"/>
     <use x="3506.458984" xlink:href="#DejaVuSans-101"/>
     <use x="3567.982422" xlink:href="#DejaVuSans-115"/>
    </g>
   </g>
   <g id="legend_1">
    <g id="patch_9">
     <path d="M 510.005 194.82925 
L 604.238562 194.82925 
Q 607.318562 194.82925 607.318562 191.74925 
L 607.318562 102.872 
Q 607.318562 99.792 604.238562 99.792 
L 510.005 99.792 
Q 506.925 99.792 506.925 102.872 
L 506.925 191.74925 
Q 506.925 194.82925 510.005 194.82925 
z
" style="fill:#ffffff;opacity:0.8;stroke:#cccccc;stroke-linejoin:miter;stroke-width:2;"/>
    </g>
    <g id="patch_10">
     <path d="M 513.085 117.653594 
L 543.885 117.653594 
L 543.885 106.873594 
L 513.085 106.873594 
z
" style="fill:#abc9ea;stroke:#737373;stroke-linejoin:miter;stroke-width:1.5;"/>
    </g>
    <g id="text_13">
     <!-- VR -->
     <defs>
      <path d="M 44.390625 34.1875 
Q 47.5625 33.109375 50.5625 29.59375 
Q 53.5625 26.078125 56.59375 19.921875 
L 66.609375 0 
L 56 0 
L 46.6875 18.703125 
Q 43.0625 26.03125 39.671875 28.421875 
Q 36.28125 30.8125 30.421875 30.8125 
L 19.671875 30.8125 
L 19.671875 0 
L 9.8125 0 
L 9.8125 72.90625 
L 32.078125 72.90625 
Q 44.578125 72.90625 50.734375 67.671875 
Q 56.890625 62.453125 56.890625 51.90625 
Q 56.890625 45.015625 53.6875 40.46875 
Q 50.484375 35.9375 44.390625 34.1875 
z
M 19.671875 64.796875 
L 19.671875 38.921875 
L 32.078125 38.921875 
Q 39.203125 38.921875 42.84375 42.21875 
Q 46.484375 45.515625 46.484375 51.90625 
Q 46.484375 58.296875 42.84375 61.546875 
Q 39.203125 64.796875 32.078125 64.796875 
z
" id="DejaVuSans-82"/>
     </defs>
     <g style="fill:#262626;" transform="translate(556.205 117.653594)scale(0.154 -0.154)">
      <use xlink:href="#DejaVuSans-86"/>
      <use x="68.408203" xlink:href="#DejaVuSans-82"/>
     </g>
    </g>
    <g id="patch_11">
     <path d="M 513.085 140.257906 
L 543.885 140.257906 
L 543.885 129.477906 
L 513.085 129.477906 
z
" style="fill:#efb792;stroke:#737373;stroke-linejoin:miter;stroke-width:1.5;"/>
    </g>
    <g id="text_14">
     <!-- Comp -->
     <defs>
      <path d="M 64.40625 67.28125 
L 64.40625 56.890625 
Q 59.421875 61.53125 53.78125 63.8125 
Q 48.140625 66.109375 41.796875 66.109375 
Q 29.296875 66.109375 22.65625 58.46875 
Q 16.015625 50.828125 16.015625 36.375 
Q 16.015625 21.96875 22.65625 14.328125 
Q 29.296875 6.6875 41.796875 6.6875 
Q 48.140625 6.6875 53.78125 8.984375 
Q 59.421875 11.28125 64.40625 15.921875 
L 64.40625 5.609375 
Q 59.234375 2.09375 53.4375 0.328125 
Q 47.65625 -1.421875 41.21875 -1.421875 
Q 24.65625 -1.421875 15.125 8.703125 
Q 5.609375 18.84375 5.609375 36.375 
Q 5.609375 53.953125 15.125 64.078125 
Q 24.65625 74.21875 41.21875 74.21875 
Q 47.75 74.21875 53.53125 72.484375 
Q 59.328125 70.75 64.40625 67.28125 
z
" id="DejaVuSans-67"/>
     </defs>
     <g style="fill:#262626;" transform="translate(556.205 140.257906)scale(0.154 -0.154)">
      <use xlink:href="#DejaVuSans-67"/>
      <use x="69.824219" xlink:href="#DejaVuSans-111"/>
      <use x="131.005859" xlink:href="#DejaVuSans-109"/>
      <use x="228.417969" xlink:href="#DejaVuSans-112"/>
     </g>
    </g>
    <g id="PathCollection_15">
     <defs>
      <path d="M 0 3.872983 
C 1.027127 3.872983 2.012324 3.464901 2.738613 2.738613 
C 3.464901 2.012324 3.872983 1.027127 3.872983 0 
C 3.872983 -1.027127 3.464901 -2.012324 2.738613 -2.738613 
C 2.012324 -3.464901 1.027127 -3.872983 0 -3.872983 
C -1.027127 -3.872983 -2.012324 -3.464901 -2.738613 -2.738613 
C -3.464901 -2.012324 -3.872983 -1.027127 -3.872983 0 
C -3.872983 1.027127 -3.464901 2.012324 -2.738613 2.738613 
C -2.012324 3.464901 -1.027127 3.872983 0 3.872983 
z
" id="me75e59d743" style="stroke:#4c72b0;stroke-width:2;"/>
     </defs>
     <g>
      <use style="fill:#4c72b0;stroke:#4c72b0;stroke-width:2;" x="528.485" xlink:href="#me75e59d743" y="158.819719"/>
     </g>
    </g>
    <g id="text_15">
     <!-- VR -->
     <g style="fill:#262626;" transform="translate(556.205 162.862219)scale(0.154 -0.154)">
      <use xlink:href="#DejaVuSans-86"/>
      <use x="68.408203" xlink:href="#DejaVuSans-82"/>
     </g>
    </g>
    <g id="PathCollection_16">
     <defs>
      <path d="M 0 3.872983 
C 1.027127 3.872983 2.012324 3.464901 2.738613 2.738613 
C 3.464901 2.012324 3.872983 1.027127 3.872983 0 
C 3.872983 -1.027127 3.464901 -2.012324 2.738613 -2.738613 
C 2.012324 -3.464901 1.027127 -3.872983 0 -3.872983 
C -1.027127 -3.872983 -2.012324 -3.464901 -2.738613 -2.738613 
C -3.464901 -2.012324 -3.872983 -1.027127 -3.872983 0 
C -3.872983 1.027127 -3.464901 2.012324 -2.738613 2.738613 
C -2.012324 3.464901 -1.027127 3.872983 0 3.872983 
z
" id="meea15c47a3" style="stroke:#dd8452;stroke-width:2;"/>
     </defs>
     <g>
      <use style="fill:#dd8452;stroke:#dd8452;stroke-width:2;" x="528.485" xlink:href="#meea15c47a3" y="181.424031"/>
     </g>
    </g>
    <g id="text_16">
     <!-- Comp -->
     <g style="fill:#262626;" transform="translate(556.205 185.466531)scale(0.154 -0.154)">
      <use xlink:href="#DejaVuSans-67"/>
      <use x="69.824219" xlink:href="#DejaVuSans-111"/>
      <use x="131.005859" xlink:href="#DejaVuSans-109"/>
      <use x="228.417969" xlink:href="#DejaVuSans-112"/>
     </g>
    </g>
   </g>
  </g>
 </g>
 <defs>
  <clipPath id="p7e6ca894fc">
   <rect height="217.44" width="418.5" x="67.5" y="34.56"/>
  </clipPath>
 </defs>
</svg>
